<svg width="867" height="84" xmlns="http://www.w3.org/2000/svg"><g fill="none" fill-rule="evenodd"><path fill="#FAFBFC" fill-rule="nonzero" d="M580 84l-93-21.5L560.398 0z"/><path fill="#ECEDF1" fill-rule="nonzero" d="M22 67.734L31.82 50l7.838 31.147zM707 60.23L722.316 56l-3.424 13.233zM818 42c.18.36.81 22.775.991 22.685.18-.18 17.568-7.742 17.568-7.742L818 42zM765.12 11c-.18.36-17.387 14.763-17.117 14.853.27.09 17.027 8.912 17.027 8.912L765.12 11z"/><path stroke="#3C76F0" stroke-width=".9" d="M698 43l9.867-27L722 34.323zM765 51.842L795 36l-2.158 27z"/><path stroke="#3D76F1" stroke-width=".9" d="M.938 4.635l.613 26.382 19.204-11.56zM866 40l-2.377 13L855 45.426z"/></g></svg>