<svg xmlns="http://www.w3.org/2000/svg" width="440" height="368" viewBox="0 0 440 368">
    <g fill="none" fill-rule="evenodd">
        <g fill="#E0E0E0" fill-rule="nonzero">
            <path d="M332.262 366.243V30.673l-.473 1.183 25.11-26.411-2.964-1.184V367.961h3.436V-.04l-2.963 3.116L329.3 29.49l-.473.497v337.975h3.436z"/>
            <path d="M382.712 76.565H149.733l-.492.473-26.155 25.104-3.086 2.962H384.148v-3.435h-259.89l1.172 2.962 26.156-25.104-1.173.473h234v-3.435zM332.997 33.77l14.865 16.005 1.167 1.255 2.333-2.511-1.167-1.256-14.865-16.005-1.166-1.256-2.333 2.511z"/>
            <path d="M349.365 31.258L334.5 47.263l-1.167 1.256 2.333 2.511 1.166-1.255 14.866-16.006 1.166-1.256-2.333-2.511zM332.997 56.3l14.865 16.005 1.167 1.256 2.333-2.512-1.167-1.255-14.865-16.006-1.166-1.256-2.333 2.512z"/>
            <path d="M349.365 53.788L334.5 69.794l-1.167 1.255 2.333 2.512 1.166-1.256L351.698 56.3l1.166-1.256-2.333-2.512zM332.997 113.377l14.865 16.006 1.167 1.255 2.333-2.511-1.167-1.256-14.865-16.005-1.166-1.256-2.333 2.512zM358.537 83.337l14.865 16.005 1.167 1.256 2.332-2.512-1.166-1.256-14.865-16.005-1.166-1.256-2.333 2.512zM332.997 135.908l14.865 16.005 1.167 1.256 2.333-2.512-1.167-1.255-14.865-16.006-1.166-1.255-2.333 2.511zM332.997 158.439l14.865 16.005 1.167 1.256 2.333-2.512-1.167-1.256-14.865-16.005-1.166-1.256-2.333 2.512zM332.997 182.471l14.865 16.006 1.167 1.255 2.333-2.511-1.167-1.256-14.865-16.005-1.166-1.256-2.333 2.511zM332.997 205.002l14.865 16.005 1.167 1.256 2.333-2.512-1.167-1.255-14.865-16.006-1.166-1.256-2.333 2.512zM332.997 227.532l14.865 16.006 1.167 1.256 2.333-2.512-1.167-1.256-14.865-16.005-1.166-1.256-2.333 2.512zM332.997 250.063l14.865 16.005 1.167 1.256 2.333-2.511-1.167-1.256-14.865-16.006-1.166-1.255-2.333 2.511zM332.997 274.096l14.865 16.005 1.167 1.256 2.333-2.512-1.167-1.256-14.865-16.005-1.166-1.256-2.333 2.512zM332.997 296.626l14.865 16.006 1.167 1.255 2.333-2.511-1.167-1.256-14.865-16.005-1.166-1.256-2.333 2.511zM332.997 319.157l14.865 16.005 1.167 1.256 2.333-2.512-1.167-1.255-14.865-16.006-1.166-1.255-2.333 2.511zM332.997 341.688l14.865 16.005 1.167 1.256 2.333-2.512-1.167-1.256-14.865-16.005-1.166-1.256-2.333 2.512z"/>
            <path d="M349.365 339.176L334.5 355.18l-1.167 1.256 2.333 2.512 1.166-1.256 14.866-16.005 1.166-1.256-2.333-2.512zM349.365 316.645L334.5 332.651l-1.167 1.255 2.333 2.512 1.166-1.256 14.866-16.005 1.166-1.256-2.333-2.511zM349.365 294.115L334.5 310.12l-1.167 1.256 2.333 2.511 1.166-1.255 14.866-16.006 1.166-1.256-2.333-2.511zM349.365 271.584L334.5 287.59l-1.167 1.256 2.333 2.512 1.166-1.256 14.866-16.005 1.166-1.256-2.333-2.512zM349.365 247.551L334.5 263.557l-1.167 1.256 2.333 2.511 1.166-1.256 14.866-16.005 1.166-1.256-2.333-2.511zM349.365 225.02L334.5 241.027l-1.167 1.256 2.333 2.512 1.166-1.256 14.866-16.006 1.166-1.255-2.333-2.512zM349.365 202.49L334.5 218.496l-1.167 1.255 2.333 2.512 1.166-1.256 14.866-16.005 1.166-1.256-2.333-2.512zM349.365 179.96L334.5 195.965l-1.167 1.256 2.333 2.511 1.166-1.255 14.866-16.006 1.166-1.256-2.333-2.511zM349.365 155.927L334.5 171.932l-1.167 1.256 2.333 2.512 1.166-1.256 14.866-16.005 1.166-1.256-2.333-2.512zM349.365 133.396L334.5 149.402l-1.167 1.255 2.333 2.512 1.166-1.256 14.866-16.005 1.166-1.256-2.333-2.511zM349.365 110.866L334.5 126.87l-1.167 1.256 2.333 2.511 1.166-1.255 14.866-16.006 1.166-1.255-2.333-2.512zM374.905 80.825L360.04 96.83l-1.167 1.256 2.333 2.512 1.166-1.256 14.865-16.005 1.167-1.256-2.333-2.512zM332.997 83.337l14.865 16.005 1.167 1.256 2.333-2.512-1.167-1.256-14.865-16.005-1.166-1.256-2.333 2.512z"/>
            <path d="M349.365 80.825L334.5 96.83l-1.167 1.256 2.333 2.512 1.166-1.256 14.866-16.005 1.166-1.256-2.333-2.512zM307.457 83.337l14.866 16.005 1.166 1.256 2.333-2.512-1.167-1.256-14.865-16.005-1.166-1.256-2.333 2.512z"/>
            <path d="M322.323 80.825L307.457 96.83l-1.166 1.256 2.333 2.512 1.166-1.256 14.865-16.005 1.167-1.256-2.333-2.512zM283.42 83.337l14.865 16.005 1.166 1.256 2.333-2.512-1.166-1.256-14.865-16.005-1.167-1.256-2.332 2.512z"/>
            <path d="M299.787 80.825L284.922 96.83l-1.166 1.256 2.333 2.512 1.166-1.256 14.865-16.005 1.166-1.256-2.332-2.512zM260.885 83.337l14.865 16.005 1.166 1.256 2.333-2.512-1.167-1.256-14.865-16.005-1.166-1.256-2.333 2.512z"/>
            <path d="M277.252 80.825L262.387 96.83l-1.166 1.256 2.332 2.512 1.167-1.256 14.865-16.005 1.166-1.256-2.333-2.512zM238.35 83.337l14.865 16.005 1.166 1.256 2.333-2.512-1.167-1.256-14.865-16.005-1.166-1.256-2.333 2.512z"/>
            <path d="M254.717 80.825L239.852 96.83l-1.167 1.256 2.333 2.512 1.166-1.256 14.866-16.005 1.166-1.256-2.333-2.512zM215.814 83.337l14.865 16.005 1.167 1.256 2.332-2.512-1.166-1.256-14.865-16.005-1.166-1.256-2.333 2.512z"/>
            <path d="M232.182 80.825L217.317 96.83l-1.167 1.256 2.333 2.512 1.166-1.256 14.865-16.005 1.167-1.256-2.333-2.512zM193.279 83.337l14.865 16.005 1.167 1.256 2.332-2.512-1.166-1.256-14.865-16.005-1.167-1.256-2.332 2.512z"/>
            <path d="M209.647 80.825L194.78 96.83l-1.166 1.256 2.333 2.512 1.166-1.256 14.865-16.005 1.167-1.256-2.333-2.512zM170.744 83.337l14.865 16.005 1.166 1.256 2.333-2.512-1.166-1.256-14.866-16.005-1.166-1.256-2.333 2.512z"/>
            <path d="M187.111 80.825L172.246 96.83l-1.166 1.256 2.332 2.512 1.167-1.256 14.865-16.005 1.166-1.256-2.332-2.512zM148.209 83.337l14.865 16.005 1.166 1.256 2.333-2.512-1.167-1.256-14.865-16.005-1.166-1.256-2.333 2.512z"/>
            <path d="M164.576 80.825L149.711 96.83l-1.166 1.256 2.332 2.512 1.167-1.256 14.865-16.005 1.166-1.256-2.333-2.512zM382.91 66.518l3.424-3.471v55.575l-3.423-3.471H440l-3.423 3.471V63.047l3.423 3.47h-57.09zm0-3.471H440v55.575h-57.09V63.047z"/>
            <path d="M386.114 100.598H440v-3.004H384.414v3.004zM386.114 82.573H440V79.57H384.414v3.004zM139.32 105.321v35.568l1.6-1.72-7.301.039 1.616 1.72V130.848h-3.216V142.655l1.616-.009 7.3-.038 1.6-.008V103.601h-3.216z"/>
        </g>
        <g transform="translate(68 131.96)">
            <circle cx="72" cy="72" r="72" fill="#F2F5FB"/>
            <circle cx="72" cy="72" r="55.5" fill="#EAEFFA"/>
            <g fill="#FFF">
                <path d="M57.64 98.998c.334-1.29.495-2.236.82-3.12 6.137-16.718 12.293-33.428 18.446-50.14.165-.449.33-.899.512-1.342 1.182-2.888 3.5-4.068 6.005-3.062 2.568 1.03 3.54 3.344 2.455 6.33-4.338 11.934-8.728 23.85-13.101 35.77-2.008 5.473-3.966 10.964-6.051 16.405-1.385 3.614-5.139 4.617-7.55 2.035-.751-.804-1.086-2.004-1.535-2.876M102.847 71.897c-4.304-4.295-8.51-8.407-12.616-12.618-2.768-2.838-1.818-7.124 1.855-7.875 1.32-.269 3.311.267 4.276 1.198 6.19 5.972 12.167 12.17 18.25 18.257 1.006 1.007.758 1.702-.127 2.59-5.846 5.873-11.64 11.8-17.502 17.657-2.155 2.154-4.901 2.216-6.77.335-1.913-1.924-1.867-4.599.282-6.833 3.424-3.562 6.937-7.036 10.403-10.558.598-.607 1.147-1.264 1.95-2.153M41.208 72.081c4.186 4.22 8.309 8.175 12.153 12.388 1.035 1.135 1.888 3.16 1.674 4.601-.579 3.898-4.859 4.971-7.826 2.091-3.71-3.601-7.288-7.343-10.938-11.01-2.573-2.584-5.17-5.145-7.771-7.732.48-.675.705-1.101 1.028-1.429a7899.014 7899.014 0 0 1 18.128-18.34c1.649-1.66 3.56-2.048 5.613-.84 1.869 1.1 2.562 2.9 2.045 4.93-.275 1.084-1.046 2.145-1.844 2.968-3.978 4.106-8.039 8.129-12.262 12.373"/>
            </g>
        </g>
        <path fill="#C5CFDE" fill-rule="nonzero" d="M140 137.457h-6.296l1.721 1.748V128.96H132v12l1.72-.009 6.28.009z"/>
        <g stroke="#3C76F0" stroke-linecap="round" stroke-linejoin="round" stroke-width="5.04">
            <path d="M95.612 117.444l10.496-8.2M104.96 118.591l-8.2-10.495"/>
        </g>
        <g stroke="#3C76F0" stroke-linecap="round" stroke-linejoin="round" stroke-width="5.04">
            <path d="M62.612 296.444l10.496-8.2M71.96 297.591l-8.2-10.495"/>
        </g>
        <g stroke="#3C76F0" stroke-linecap="round" stroke-linejoin="round" stroke-width="5.04">
            <path d="M255.69 156.2l2.083-13.155M263.31 150.664l-13.156-2.083"/>
        </g>
        <g stroke="#3C76F0" stroke-linecap="round" stroke-linejoin="round" stroke-width="4.032">
            <path d="M208.932 330.694l4.588-9.406M215.929 328.284l-9.406-4.587"/>
        </g>
        <g stroke="#3C76F0" stroke-linecap="round" stroke-linejoin="round" stroke-width="4.032">
            <path d="M269.932 251.694l4.588-9.406M276.929 249.284l-9.406-4.587"/>
        </g>
        <g stroke="#3C76F0" stroke-linecap="round" stroke-linejoin="round" stroke-width="4.032">
            <path d="M12.627 231.997l4.588-9.406M19.85 229.733l-8.98-4.379"/>
        </g>
        <g stroke="#3C76F0" stroke-linecap="round" stroke-linejoin="round" stroke-width="4.032">
            <path d="M33.627 176.997l4.588-9.406M40.85 174.733l-8.98-4.379"/>
        </g>
        <path stroke="#3C76F0" stroke-linecap="round" stroke-linejoin="round" stroke-width="7.5" d="M267 189.02l-3.241-1.796c-2.16-1.197-4.83-.504-5.967 1.545l-1.702 3.072c-1.138 2.052-3.81 2.74-5.97 1.543l-3.24-1.796c-2.16-1.197-4.835-.506-5.97 1.543l-1.705 3.075c-1.135 2.05-3.805 2.74-5.964 1.542L230 195.952M106.267 332.766l3.272-1.74c2.18-1.158 3.053-3.776 1.953-5.844l-1.648-3.101c-1.102-2.072-.223-4.688 1.957-5.848l3.271-1.74c2.18-1.158 3.057-3.778 1.957-5.846l-1.65-3.104c-1.1-2.069-.225-4.683 1.955-5.842l3.271-1.74M4 190.706l2.431 2.797c1.62 1.863 4.367 2.125 6.135.588l2.65-2.304c1.771-1.54 4.518-1.272 6.138.592l2.43 2.796c1.62 1.864 4.37 2.129 6.138.592l2.654-2.307c1.768-1.537 4.512-1.272 6.132.591l2.43 2.797M164.919 265.96l-1.268 3.483c-.844 2.32.258 4.85 2.46 5.65l3.3 1.202c2.205.803 3.303 3.335 2.458 5.655l-1.267 3.482c-.845 2.32.257 4.853 2.458 5.654l3.304 1.203c2.201.801 3.3 3.33 2.456 5.65l-1.267 3.482M211 257.554l.711 5.06c.474 3.373 3.447 5.741 6.637 5.293l4.782-.672c3.195-.45 6.163 1.925 6.637 5.297l.712 5.061c.473 3.373 3.447 5.746 6.637 5.298l4.787-.673c3.19-.449 6.158 1.92 6.631 5.292l.712 5.062M71.392 227.96l-5.033.888c-3.354.592-5.616 3.645-5.057 6.818l.838 4.755c.56 3.178-1.708 6.227-5.062 6.818l-5.033.888c-3.354.591-5.622 3.646-5.063 6.818l.84 4.76c.56 3.173-1.705 6.222-5.058 6.813l-5.034.888M83.445 158.353l-.888-5.033c-.591-3.354-3.645-5.617-6.817-5.057l-4.756.838c-3.177.56-6.227-1.708-6.818-5.062l-.887-5.033c-.592-3.354-3.646-5.622-6.819-5.063l-4.76.84c-3.172.559-6.221-1.705-6.812-5.058L44 124.69M188 153.916l5.104.267c3.4.178 6.292-2.288 6.461-5.505l.253-4.822c.169-3.222 3.065-5.683 6.466-5.505l5.104.268c3.4.178 6.298-2.288 6.467-5.505l.253-4.827c.168-3.217 3.06-5.678 6.46-5.5l5.104.267"/>
    </g>
</svg>
