<svg width="529" height="306" viewBox="0 0 529 306" fill="none" xmlns="http://www.w3.org/2000/svg">
<path d="M478.978 0L119.75 0C112.708 0 107 5.70845 107 12.7502L107 264.095C107 271.136 112.708 276.845 119.75 276.845H478.978C486.019 276.845 491.728 271.136 491.728 264.095V12.7502C491.728 5.70845 486.019 0 478.978 0Z" fill="#F1F5FE" fill-opacity="0.75"/>
<path d="M119.724 276.504H175.085V0.238281L119.724 0.238281C118.053 0.238281 116.398 0.567478 114.854 1.20707C113.31 1.84666 111.907 2.78412 110.726 3.96591C109.544 5.1477 108.607 6.55066 107.968 8.09468C107.328 9.6387 107 11.2935 107 12.9646L107 263.788C107.002 267.161 108.344 270.395 110.729 272.78C113.115 275.164 116.351 276.504 119.724 276.504V276.504Z" fill="#D8E4FC" fill-opacity="0.25"/>
<path opacity="0.65" d="M398 49H227.931C223.551 49 220 52.5509 220 56.9311V83.0689C220 87.4491 223.551 91 227.931 91H398C402.38 91 405.931 87.4491 405.931 83.0689V56.9311C405.931 52.5509 402.38 49 398 49Z" fill="white"/>
<path d="M269 59H239" stroke="#C1D3FA" stroke-opacity="0.35" stroke-width="2.63709" stroke-linecap="round" stroke-linejoin="round"/>
<path d="M392 73H239" stroke="#C1D3FA" stroke-opacity="0.35" stroke-width="2.63709" stroke-linecap="round" stroke-linejoin="round"/>
<path d="M355 79H239" stroke="#C1D3FA" stroke-opacity="0.35" stroke-width="2.63709" stroke-linecap="round" stroke-linejoin="round"/>
<circle cx="200.5" cy="61.5" r="8.5" fill="#D8E4FC" fill-opacity="0.5"/>
<path opacity="0.65" d="M398 151H227.931C223.551 151 220 154.551 220 158.931V185.069C220 189.449 223.551 193 227.931 193H398C402.38 193 405.931 189.449 405.931 185.069V158.931C405.931 154.551 402.38 151 398 151Z" fill="white"/>
<path d="M251 161H239" stroke="#C1D3FA" stroke-opacity="0.35" stroke-width="2.63709" stroke-linecap="round" stroke-linejoin="round"/>
<path d="M392 175H239" stroke="#C1D3FA" stroke-opacity="0.35" stroke-width="2.63709" stroke-linecap="round" stroke-linejoin="round"/>
<path d="M276 181H239" stroke="#C1D3FA" stroke-opacity="0.35" stroke-width="2.63709" stroke-linecap="round" stroke-linejoin="round"/>
<circle cx="200.5" cy="163.5" r="8.5" fill="#D8E4FC" fill-opacity="0.5"/>
<path d="M375 103H222" stroke="#C1D3FA" stroke-opacity="0.15" stroke-width="2.63709" stroke-linecap="round" stroke-linejoin="round"/>
<path d="M135.223 23H121" stroke="#C1D3FA" stroke-width="2.63709" stroke-linecap="round" stroke-linejoin="round"/>
<path d="M151 43H121" stroke="#C1D3FA" stroke-opacity="0.25" stroke-width="2.63709" stroke-linecap="round" stroke-linejoin="round"/>
<path d="M151 55H121" stroke="#C1D3FA" stroke-opacity="0.25" stroke-width="2.63709" stroke-linecap="round" stroke-linejoin="round"/>
<path d="M151 67H121" stroke="#C1D3FA" stroke-opacity="0.25" stroke-width="2.63709" stroke-linecap="round" stroke-linejoin="round"/>
<path d="M151 79H121" stroke="#C1D3FA" stroke-opacity="0.25" stroke-width="2.63709" stroke-linecap="round" stroke-linejoin="round"/>
<path d="M151 91H121" stroke="#C1D3FA" stroke-opacity="0.25" stroke-width="2.63709" stroke-linecap="round" stroke-linejoin="round"/>
<path d="M151 103H121" stroke="#C1D3FA" stroke-opacity="0.25" stroke-width="2.63709" stroke-linecap="round" stroke-linejoin="round"/>
<path d="M472 43H428" stroke="#C1D3FA" stroke-opacity="0.15" stroke-width="2.63709" stroke-linecap="round" stroke-linejoin="round"/>
<path d="M472 67H428" stroke="#C1D3FA" stroke-opacity="0.15" stroke-width="2.63709" stroke-linecap="round" stroke-linejoin="round"/>
<path d="M472 91H428" stroke="#C1D3FA" stroke-opacity="0.15" stroke-width="2.63709" stroke-linecap="round" stroke-linejoin="round"/>
<path d="M472 114H428" stroke="#C1D3FA" stroke-opacity="0.15" stroke-width="2.63709" stroke-linecap="round" stroke-linejoin="round"/>
<path d="M472 138H428" stroke="#C1D3FA" stroke-opacity="0.15" stroke-width="2.63709" stroke-linecap="round" stroke-linejoin="round"/>
<path d="M472 162H428" stroke="#C1D3FA" stroke-opacity="0.15" stroke-width="2.63709" stroke-linecap="round" stroke-linejoin="round"/>
<path d="M234.45 199.142H182.393C180.987 199.144 179.595 198.869 178.296 198.333C176.997 197.796 175.816 197.009 174.821 196.016C173.826 195.022 173.037 193.843 172.499 192.545C171.961 191.246 171.683 189.854 171.683 188.449V174.71C171.683 171.869 170.555 169.145 168.547 167.137C166.538 165.128 163.814 164 160.974 164H119" stroke="url(#paint0_linear)" stroke-width="1.5174" stroke-miterlimit="10"/>
<circle cx="211.693" cy="198.968" r="8.75688" fill="#D8E4FC" fill-opacity="0.5"/>
<g filter="url(#filter0_d)">
<circle cx="211.693" cy="198.968" r="4.80216" fill="#6391F3"/>
</g>
<g filter="url(#filter1_d)">
<path d="M141.584 122H24.0241C19.0402 122 15 126.04 15 131.024V195.681C15 200.665 19.0402 204.705 24.0241 204.705H141.584C146.568 204.705 150.608 200.665 150.608 195.681V131.024C150.608 126.04 146.568 122 141.584 122Z" fill="white"/>
</g>
<path d="M75.7088 141H37.2369C35.6059 141 34.2837 142.513 34.2837 144.379L34.2837 181.999C34.2837 183.865 35.6059 185.378 37.2369 185.378H75.7088C77.3398 185.378 78.6619 183.865 78.6619 181.999L78.662 144.379C78.662 142.513 77.3398 141 75.7088 141Z" fill="#F1F5FE"/>
<path d="M64.99 174.62C67.3419 174.62 69.2485 172.713 69.2485 170.362C69.2485 168.01 67.3419 166.103 64.99 166.103C62.638 166.103 60.7314 168.01 60.7314 170.362C60.7314 172.713 62.638 174.62 64.99 174.62Z" stroke="#6391F3" stroke-width="2.98545" stroke-linecap="round" stroke-linejoin="round"/>
<path d="M47.9558 157.586C50.3077 157.586 52.2143 155.679 52.2143 153.327C52.2143 150.975 50.3077 149.069 47.9558 149.069C45.6039 149.069 43.6973 150.975 43.6973 153.327C43.6973 155.679 45.6039 157.586 47.9558 157.586Z" stroke="#6391F3" stroke-width="2.98545" stroke-linecap="round" stroke-linejoin="round"/>
<path d="M57.8921 153.328H62.1506C62.9036 153.328 63.6257 153.627 64.1581 154.159C64.6905 154.692 64.9896 155.414 64.9896 156.167V166.103" stroke="#6391F3" stroke-width="2.98545" stroke-linecap="round" stroke-linejoin="round"/>
<path d="M47.9558 157.585V174.62" stroke="#6391F3" stroke-width="2.98545" stroke-linecap="round" stroke-linejoin="round"/>
<circle cx="96.3601" cy="153.603" r="4.70679" fill="#D8E4FC" fill-opacity="0.5"/>
<path d="M121.239 154.278L105.101 154.275" stroke="#D8E4FC" stroke-opacity="0.5" stroke-width="3.36199" stroke-linecap="round" stroke-linejoin="round"/>
<path d="M120.48 171.761L92.9982 171.757" stroke="#D8E4FC" stroke-opacity="0.5" stroke-width="3.36199" stroke-linecap="round" stroke-linejoin="round"/>
<path d="M109.136 179.83L92.9982 179.826" stroke="#D8E4FC" stroke-opacity="0.5" stroke-width="3.36199" stroke-linecap="round" stroke-linejoin="round"/>
<rect x="462" y="13" width="10" height="10" rx="3" fill="#D8E4FC" fill-opacity="0.75"/>
<g filter="url(#filter2_d)">
<path d="M503.374 212H232.626C225.653 212 220 218.087 220 225.596V270.404C220 277.913 225.653 284 232.626 284H503.374C510.347 284 516 277.913 516 270.404V225.596C516 218.087 510.347 212 503.374 212Z" fill="white"/>
</g>
<path d="M326 234H285" stroke="#C1D3FA" stroke-opacity="0.5" stroke-width="5" stroke-linecap="round" stroke-linejoin="round"/>
<path d="M494 252H285" stroke="#C1D3FA" stroke-opacity="0.3" stroke-width="5" stroke-linecap="round" stroke-linejoin="round"/>
<path d="M443 265H285" stroke="#C1D3FA" stroke-opacity="0.3" stroke-width="5" stroke-linecap="round" stroke-linejoin="round"/>
<rect x="237" y="230" width="27.0975" height="27.0975" rx="6.78" fill="#F1F5FE"/>
<path d="M255.33 250.722C256.651 250.722 257.721 249.652 257.721 248.331C257.721 247.011 256.651 245.94 255.33 245.94C254.01 245.94 252.939 247.011 252.939 248.331C252.939 249.652 254.01 250.722 255.33 250.722Z" stroke="#6391F3" stroke-width="2" stroke-linecap="round" stroke-linejoin="round"/>
<path d="M245.767 241.158C247.087 241.158 248.158 240.087 248.158 238.767C248.158 237.446 247.087 236.376 245.767 236.376C244.446 236.376 243.376 237.446 243.376 238.767C243.376 240.087 244.446 241.158 245.767 241.158Z" stroke="#6391F3" stroke-width="2" stroke-linecap="round" stroke-linejoin="round"/>
<path d="M245.767 250.721V241.157C245.767 243.059 246.523 244.884 247.868 246.229C249.213 247.574 251.037 248.33 252.94 248.33" stroke="#6391F3" stroke-width="2" stroke-linecap="round" stroke-linejoin="round"/>
<defs>
<filter id="filter0_d" x="195.79" y="183.065" width="31.8062" height="31.8062" filterUnits="userSpaceOnUse" color-interpolation-filters="sRGB">
<feFlood flood-opacity="0" result="BackgroundImageFix"/>
<feColorMatrix in="SourceAlpha" type="matrix" values="0 0 0 0 0 0 0 0 0 0 0 0 0 0 0 0 0 0 127 0"/>
<feOffset/>
<feGaussianBlur stdDeviation="5.55046"/>
<feColorMatrix type="matrix" values="0 0 0 0 0.235294 0 0 0 0 0.462745 0 0 0 0 0.941176 0 0 0 0.5 0"/>
<feBlend mode="normal" in2="BackgroundImageFix" result="effect1_dropShadow"/>
<feBlend mode="normal" in="SourceGraphic" in2="effect1_dropShadow" result="shape"/>
</filter>
<filter id="filter1_d" x="0.711819" y="107.712" width="164.185" height="111.281" filterUnits="userSpaceOnUse" color-interpolation-filters="sRGB">
<feFlood flood-opacity="0" result="BackgroundImageFix"/>
<feColorMatrix in="SourceAlpha" type="matrix" values="0 0 0 0 0 0 0 0 0 0 0 0 0 0 0 0 0 0 127 0"/>
<feOffset/>
<feGaussianBlur stdDeviation="7.14409"/>
<feColorMatrix type="matrix" values="0 0 0 0 0 0 0 0 0 0 0 0 0 0 0 0 0 0 0.12 0"/>
<feBlend mode="normal" in2="BackgroundImageFix" result="effect1_dropShadow"/>
<feBlend mode="normal" in="SourceGraphic" in2="effect1_dropShadow" result="shape"/>
</filter>
<filter id="filter2_d" x="207.71" y="199.71" width="320.58" height="96.58" filterUnits="userSpaceOnUse" color-interpolation-filters="sRGB">
<feFlood flood-opacity="0" result="BackgroundImageFix"/>
<feColorMatrix in="SourceAlpha" type="matrix" values="0 0 0 0 0 0 0 0 0 0 0 0 0 0 0 0 0 0 127 0"/>
<feOffset/>
<feGaussianBlur stdDeviation="6.145"/>
<feColorMatrix type="matrix" values="0 0 0 0 0 0 0 0 0 0 0 0 0 0 0 0 0 0 0.12 0"/>
<feBlend mode="normal" in2="BackgroundImageFix" result="effect1_dropShadow"/>
<feBlend mode="normal" in="SourceGraphic" in2="effect1_dropShadow" result="shape"/>
</filter>
<linearGradient id="paint0_linear" x1="218.908" y1="189.532" x2="119" y2="164" gradientUnits="userSpaceOnUse">
<stop stop-color="#3C76F0" stop-opacity="0"/>
<stop offset="1" stop-color="#3C76F0"/>
</linearGradient>
</defs>
</svg>
