<svg width="936" height="582" viewBox="0 0 936 582" xmlns="http://www.w3.org/2000/svg"><defs><linearGradient x1="17.54%" y1="65.512%" x2="110.219%" y2="33.096%" id="a"><stop stop-color="#6190E8" offset="0%"/><stop stop-color="#79A0E8" offset="28.33%"/><stop stop-color="#9AB6E8" offset="74.72%"/><stop stop-color="#A7BFE8" offset="100%"/></linearGradient><linearGradient x1=".107%" y1="49.966%" x2="100.031%" y2="49.966%" id="b"><stop stop-color="#ACCBEE" offset="0%"/><stop stop-color="#E7F0FD" offset="100%"/></linearGradient><linearGradient x1="21.109%" y1="25.189%" x2="71.25%" y2="114.695%" id="c"><stop stop-color="#6190E8" offset="0%"/><stop stop-color="#79A0E8" offset="28.33%"/><stop stop-color="#9AB6E8" offset="74.72%"/><stop stop-color="#A7BFE8" offset="100%"/></linearGradient><linearGradient x1="37.211%" y1="14.027%" x2="50.113%" y2="81.266%" id="d"><stop stop-color="#E7F0FD" offset="0%"/><stop stop-color="#ACCBEE" offset="100%"/></linearGradient><linearGradient x1="69.207%" y1="-14.951%" x2="20.387%" y2="85.772%" id="e"><stop stop-color="#ACCBEE" offset="0%"/><stop stop-color="#E7F0FD" offset="100%"/></linearGradient><linearGradient x1="24.07%" y1="76.268%" x2="114.085%" y2="28.915%" id="f"><stop stop-color="#6190E8" offset="0%"/><stop stop-color="#79A0E8" offset="28.33%"/><stop stop-color="#9AB6E8" offset="74.72%"/><stop stop-color="#A7BFE8" offset="100%"/></linearGradient><linearGradient x1="48.547%" y1="52.4%" x2="87.226%" y2="10.252%" id="g"><stop stop-color="#ACCBEE" offset="0%"/><stop stop-color="#E7F0FD" offset="100%"/></linearGradient><linearGradient x1="-.166%" y1="50.019%" x2="101.019%" y2="50.019%" id="h"><stop stop-color="#E7F0FD" offset="0%"/><stop stop-color="#ACCBEE" offset="100%"/></linearGradient><linearGradient x1="47.662%" y1="42.81%" x2="76.693%" y2="79.812%" id="i"><stop stop-color="#ACCBEE" offset="0%"/><stop stop-color="#E7F0FD" offset="100%"/></linearGradient><linearGradient x1="31.365%" y1="12.066%" x2="109.005%" y2="73.394%" id="j"><stop stop-color="#ACCBEE" offset="0%"/><stop stop-color="#E7F0FD" offset="100%"/></linearGradient><linearGradient x1="41.992%" y1="13.141%" x2="51.587%" y2="94.787%" id="k"><stop stop-color="#ACCBEE" offset="0%"/><stop stop-color="#E7F0FD" offset="100%"/></linearGradient><linearGradient x1="65.806%" y1="9.286%" x2="2.377%" y2="71.225%" id="l"><stop stop-color="#ACCBEE" offset="0%"/><stop stop-color="#E7F0FD" offset="100%"/></linearGradient><linearGradient x1="65.854%" y1="9.148%" x2="2.424%" y2="71.086%" id="m"><stop stop-color="#ACCBEE" offset="0%"/><stop stop-color="#E7F0FD" offset="100%"/></linearGradient></defs><g transform="translate(.5 .5)" fill="none" fill-rule="evenodd"><path fill="url(#a)" fill-rule="nonzero" d="M232 57.9l53 48.9 13.9-60.4z"/><path d="M127.6 221.9c-.7 1.7-3.6 103.6-4.5 102.9-.9-.7-79.9-35.3-79.9-35.3l84.4-67.6z" fill="url(#b)" fill-rule="nonzero"/><path fill="#F1F5FE" fill-rule="nonzero" d="M241.9 546.7l13 12 3.4-14.8zM242.3 496.8c-.2.4-.9 25.3-1.1 25.2-.2-.2-19.5-8.6-19.5-8.6l20.6-16.6z"/><path fill="url(#c)" fill-rule="nonzero" d="M387.9 120.3l-15.2 22.9 23.6 1.6z"/><path d="M527.3 99.4c-.5-.1-31.1 3.8-30.9 3.5.2-.3 6.7-25.5 6.7-25.5l24.2 22z" fill="url(#d)" fill-rule="nonzero"/><path stroke="url(#e)" stroke-width=".732" d="M118.2 580.8l-32.6-42.2 70.3-33.8z"/><path fill="url(#f)" fill-rule="nonzero" d="M67.8 435.6l42.3 29.7 4.1-44.3z"/><path fill="url(#g)" fill-rule="nonzero" d="M169 539.7l-33.5.8 39.7 35.5z"/><path stroke="url(#h)" d="M222.5 165.9l-95.7-62.8 101.3-18.5L29.6 34.4 0 0"/><path stroke="url(#i)" d="M222.5 165.9L120.8 307.4l85.2 11.7z"/><path stroke="url(#j)" d="M58.4 237.8l164.1-71.9L206 319.1z"/><path stroke="url(#k)" d="M284.7 431.6l-149.5-34.1 117.9-99.3z"/><circle fill="#A1C0F7" fill-rule="nonzero" cx="225.6" cy="83.1" r="3"/><circle fill="#A1C0F7" fill-rule="nonzero" cx="128.7" cy="103.5" r="3"/><path fill="url(#l)" fill-rule="nonzero" d="M805.9 51.4l-17-4.7 3.8 14.7z"/><path fill="#F1F5FE" fill-rule="nonzero" d="M691.5 60.8l-22.5.6 26.6 23.8zM614.7 111.3l-14.8-18.5-.5 26.2zM934.9 102.2L924 82.5l-8.8 34.6zM390.9 560.2L380 540.5l-8.8 34.6z"/><path fill="url(#m)" fill-rule="nonzero" d="M340.9 522.4l-17-4.7 3.8 14.7z"/></g></svg>