<svg width="682" height="484" viewBox="0 0 682 484" xmlns="http://www.w3.org/2000/svg"><defs><linearGradient x1="10.105%" y1="33.282%" x2="109.605%" y2="55.417%" id="a"><stop stop-color="#24282F" offset="0%"/><stop stop-color="#1C1C1C" offset="100%"/></linearGradient><linearGradient x1=".008%" y1="49.955%" x2="100.04%" y2="49.955%" id="b"><stop stop-color="#6190E8" offset="0%"/><stop stop-color="#79A0E8" offset="28.33%"/><stop stop-color="#9AB6E8" offset="74.72%"/><stop stop-color="#A7BFE8" offset="100%"/></linearGradient><linearGradient x1="-.024%" y1="49.989%" x2="100.008%" y2="49.989%" id="c"><stop stop-color="#6190E8" offset="0%"/><stop stop-color="#79A0E8" offset="28.33%"/><stop stop-color="#9AB6E8" offset="74.72%"/><stop stop-color="#A7BFE8" offset="100%"/></linearGradient><linearGradient x1="-.065%" y1="49.988%" x2="100.046%" y2="49.988%" id="d"><stop stop-color="#29323C" offset="0%"/><stop stop-color="#36404C" offset="28.65%"/><stop stop-color="#43505D" offset="69.42%"/><stop stop-color="#485563" offset="100%"/></linearGradient><linearGradient x1="-.012%" y1="49.975%" x2="100.02%" y2="49.975%" id="e"><stop stop-color="#485563" offset="0%"/><stop stop-color="#43505D" offset="30.58%"/><stop stop-color="#36404C" offset="71.35%"/><stop stop-color="#29323C" offset="100%"/></linearGradient><linearGradient x1=".008%" y1="49.897%" x2="100.04%" y2="49.897%" id="f"><stop stop-color="#485563" offset="0%"/><stop stop-color="#43505D" offset="30.58%"/><stop stop-color="#36404C" offset="71.35%"/><stop stop-color="#29323C" offset="100%"/></linearGradient><linearGradient x1=".025%" y1="50.039%" x2="100.012%" y2="50.039%" id="g"><stop stop-color="#E7F0FD" offset="0%"/><stop stop-color="#ACCBEE" offset="100%"/></linearGradient><linearGradient x1=".012%" y1="50.048%" x2="100.001%" y2="50.048%" id="h"><stop stop-color="#29323C" offset="0%"/><stop stop-color="#485563" offset="100%"/></linearGradient><linearGradient x1="-.128%" y1="49.973%" x2="100.198%" y2="49.973%" id="i"><stop stop-color="#6190E8" offset="0%"/><stop stop-color="#79A0E8" offset="28.33%"/><stop stop-color="#9AB6E8" offset="74.72%"/><stop stop-color="#A7BFE8" offset="100%"/></linearGradient><linearGradient x1="79.513%" y1="31.558%" x2="40.96%" y2="62.123%" id="j"><stop stop-color="#6190E8" offset="0%"/><stop stop-color="#79A0E8" offset="28.33%"/><stop stop-color="#9AB6E8" offset="74.72%"/><stop stop-color="#A7BFE8" offset="100%"/></linearGradient><linearGradient x1="-.147%" y1="49.894%" x2="99.882%" y2="49.894%" id="k"><stop stop-color="#6190E8" offset="0%"/><stop stop-color="#79A0E8" offset="28.33%"/><stop stop-color="#9AB6E8" offset="74.72%"/><stop stop-color="#A7BFE8" offset="100%"/></linearGradient><linearGradient x1=".184%" y1="49.934%" x2="100.349%" y2="49.934%" id="l"><stop stop-color="#6190E8" offset="0%"/><stop stop-color="#79A0E8" offset="28.33%"/><stop stop-color="#9AB6E8" offset="74.72%"/><stop stop-color="#A7BFE8" offset="100%"/></linearGradient><linearGradient x1=".235%" y1="49.652%" x2="100.167%" y2="49.652%" id="m"><stop stop-color="#6190E8" offset="0%"/><stop stop-color="#79A0E8" offset="28.33%"/><stop stop-color="#9AB6E8" offset="74.72%"/><stop stop-color="#A7BFE8" offset="100%"/></linearGradient><linearGradient x1=".203%" y1="50.028%" x2="100.354%" y2="50.028%" id="n"><stop stop-color="#6190E8" offset="0%"/><stop stop-color="#79A0E8" offset="28.33%"/><stop stop-color="#9AB6E8" offset="74.72%"/><stop stop-color="#A7BFE8" offset="100%"/></linearGradient><linearGradient x1="47.693%" y1="64.315%" x2="50.774%" y2="34.183%" id="o"><stop stop-color="#6190E8" offset="0%"/><stop stop-color="#79A0E8" offset="28.33%"/><stop stop-color="#9AB6E8" offset="74.72%"/><stop stop-color="#A7BFE8" offset="100%"/></linearGradient><linearGradient x1="30.266%" y1="16.96%" x2="61.766%" y2="59.264%" id="p"><stop stop-color="#6190E8" offset="0%"/><stop stop-color="#79A0E8" offset="28.33%"/><stop stop-color="#9AB6E8" offset="74.72%"/><stop stop-color="#A7BFE8" offset="100%"/></linearGradient><linearGradient x1="70.936%" y1="86.753%" x2="38.654%" y2="40.532%" id="q"><stop stop-color="#6190E8" offset="0%"/><stop stop-color="#79A0E8" offset="28.33%"/><stop stop-color="#9AB6E8" offset="74.72%"/><stop stop-color="#A7BFE8" offset="100%"/></linearGradient><linearGradient x1="46.043%" y1="100.841%" x2="50.529%" y2="2.695%" id="r"><stop stop-color="#6190E8" offset="0%"/><stop stop-color="#79A0E8" offset="28.33%"/><stop stop-color="#9AB6E8" offset="74.72%"/><stop stop-color="#A7BFE8" offset="100%"/></linearGradient><linearGradient x1="46.071%" y1="100.786%" x2="50.577%" y2="2.663%" id="s"><stop stop-color="#6190E8" offset="0%"/><stop stop-color="#79A0E8" offset="28.33%"/><stop stop-color="#9AB6E8" offset="74.72%"/><stop stop-color="#A7BFE8" offset="100%"/></linearGradient><linearGradient x1="46.043%" y1="100.84%" x2="50.53%" y2="2.694%" id="t"><stop stop-color="#6190E8" offset="0%"/><stop stop-color="#79A0E8" offset="28.33%"/><stop stop-color="#9AB6E8" offset="74.72%"/><stop stop-color="#A7BFE8" offset="100%"/></linearGradient><linearGradient x1="45.834%" y1="101.415%" x2="50.448%" y2="2.212%" id="u"><stop stop-color="#6190E8" offset="0%"/><stop stop-color="#79A0E8" offset="28.33%"/><stop stop-color="#9AB6E8" offset="74.72%"/><stop stop-color="#A7BFE8" offset="100%"/></linearGradient><linearGradient x1="48.957%" y1="102.405%" x2="53.556%" y2="1.621%" id="v"><stop stop-color="#6190E8" offset="0%"/><stop stop-color="#79A0E8" offset="28.33%"/><stop stop-color="#9AB6E8" offset="74.72%"/><stop stop-color="#A7BFE8" offset="100%"/></linearGradient><linearGradient x1="49.631%" y1="102.585%" x2="54.768%" y2="1.921%" id="w"><stop stop-color="#6190E8" offset="0%"/><stop stop-color="#79A0E8" offset="28.33%"/><stop stop-color="#9AB6E8" offset="74.72%"/><stop stop-color="#A7BFE8" offset="100%"/></linearGradient><linearGradient x1="49.648%" y1="8.661%" x2="64.362%" y2="106.207%" id="x"><stop stop-color="#6190E8" offset="0%"/><stop stop-color="#79A0E8" offset="28.33%"/><stop stop-color="#9AB6E8" offset="74.72%"/><stop stop-color="#A7BFE8" offset="100%"/></linearGradient><linearGradient x1="49.902%" y1="80.942%" x2="54.2%" y2="17.312%" id="y"><stop stop-color="#6190E8" offset="0%"/><stop stop-color="#79A0E8" offset="28.33%"/><stop stop-color="#9AB6E8" offset="74.72%"/><stop stop-color="#A7BFE8" offset="100%"/></linearGradient></defs><g fill-rule="nonzero" fill="none"><path fill="url(#a)" d="M494.7 483.8L.8 371 390.5 43.1z"/><path fill="#333941" d="M472.3 280.5l-115.1 63.8V229.2l115.1-63.8v115.1z"/><path fill="url(#b)" d="M472.3 280.5l-115.1 63.8v-42.5l72.6-40.2z"/><path fill="url(#c)" d="M242.1 280.5l115.1 63.8V229.2l-115.1-63.8z"/><path fill="url(#d)" d="M284.6 188.9v72.6l-42.5 19V165.4z"/><path fill="url(#e)" d="M357.2 101.6l-115.1 63.8 115.1 63.8 115.1-63.8z"/><path fill="url(#f)" d="M472.3 165.4L429.8 189l-72.6-40.2v-47.1z"/><path fill="#A1C0F7" d="M429.8 261.5l-72.6 40.2v-72.6l72.6-40.2v72.6z"/><path fill="url(#g)" d="M284.6 261.5l72.6 40.2v-72.6l-72.6-40.2z"/><path fill="url(#h)" d="M357.2 148.7l-72.6 40.2 72.6 40.2 72.6-40.2z"/><path fill="url(#i)" d="M303.6 256.6l10.9-19.7 8.7 34.6z"/><path fill="url(#j)" d="M348.3 274.6l6.3 15.7-24.2-11.4z"/><path fill="url(#k)" d="M324.6 258.6l17-4.7-3.8 14.7z"/><path d="M285.5 227.3c.4.3 14 21.1 14.1 20.9.1-.3 12.1-17.6 12.1-17.6l-26.2-3.3z" fill="url(#l)"/><path fill="url(#m)" d="M304.3 252.1l-9 8.4-2.4-10.3z"/><path d="M325.3 253.2c.2-.4 20.8-14.5 20.5-14.6-.3-.1-17.9-11.7-17.9-11.7l-2.6 26.3z" fill="url(#n)"/><path fill="url(#o)" d="M394.6 276.6l-19.1-11.9 35-6.9z"/><path fill="url(#p)" d="M412 232.9l16-5.3-12.7 23.5z"/><path fill="url(#q)" d="M405.6 232.6l-16.3 4.4 14-22.8z"/><path fill="url(#r)" d="M397.7 255.8l-3.7-17.3 14.4 4.6z"/><path fill="url(#s)" d="M364.8 267.9l-2.6-12.2 10.2 3.2z"/><path fill="url(#t)" d="M413.7 225.8l-3.7-17.3 14.4 4.6z"/><path fill="url(#u)" d="M343.7 269.4l-2.4-11.1 9.4 2.9z"/><path d="M364.3 293c.3-.4 21.9-12.8 21.6-12.9-.3-.1-16.8-13.1-16.8-13.1l-4.8 26z" fill="url(#v)"/><path fill="url(#w)" d="M410.5 257.8l7.9 9.5-10.5 1.8z"/><path fill="url(#x)" d="M424.7 259.9l-9.8-7.4 9.8-4.1z"/><path d="M392.4 254.7c-.4-.3-13.4-21.6-13.5-21.3-.1.3-12.7 17.2-12.7 17.2l26.2 4.1z" fill="url(#y)"/><path fill="#222" d="M372.2 169.7l-48.6 26.2 15.4 7.9 48.6-26.2z"/><path d="M453.9 73.2l-24.7 12.4c-2.2 2.3-18.2 18.6-26.3 21.3-6.4 2.1-6.8-5 2.7-14.9 3.7-3.9 6.2-6.7 7.9-8.7-4.9-2.5-12.7-5.7-25.1-9.6 0 0-26.7 8.6-32.8 7.9-13.9-1.6 32.6-24.7 47.2-30.7 14.6-6.1 44.9 6.1 44.9 6.1L552 20l5.6 22.8-103.7 30.4z" fill="#FFF"/><path fill="#3C76F0" d="M341.2 202.7l7.8-4.2 87.2-95.1-115-52.7z"/><path d="M369.7 67.5c7.9-7.5 22.1-12 33.1-16.5 14.6-6.1 44.9 6.1 44.9 6.1l104.3-37 5.6 22.8-103.7 30.3-24.7 12.4c-2.2 2.3-18.2 18.6-26.3 21.3-6.4 2.1-6.8-5 2.7-14.9 3.7-3.9 6.2-6.7 7.9-8.7-4.9-2.5-12.7-5.7-25.1-9.6l-4.2 1.1-14.5-7.3z" fill="#FFF"/><path fill="#333941" d="M339.9 356.4L327 368.3l-3.4-14.8zM124.9 202.2c.2.4.9 25.3 1.1 25.2.2-.2 19.5-8.6 19.5-8.6l-20.6-16.6zM190.9 369.8l11-19.7 8.7 34.6zM240.9 332l17-4.7-3.7 14.7zM176.6 289.1c-.2.4-19.3 16.4-19 16.5.3.1 18.9 9.9 18.9 9.9l.1-26.4z"/><path d="M681.9.4c-5.2-.3-10.7-.3-16.7-.1-58.3 2.1-153.7 18.9-217.8 50.3-7.2 3.5 9.2 22.9 12.9 30.8 0 0 69-2.5 94.7-3 19.2-.4 91.6 1.4 126.9 2.3V.4z" fill="#6391F3"/></g></svg>