<svg width="273" height="170" viewBox="0 0 273 170" fill="none" xmlns="http://www.w3.org/2000/svg">
<g clip-path="url(#clip0)">
<path d="M173.85 79.8887C173.097 79.8886 172.461 80.5248 172.461 81.2767C172.461 82.0286 173.097 82.6649 173.849 82.6649C174.601 82.665 175.238 82.0288 175.238 81.2769C175.238 80.525 174.602 79.8887 173.85 79.8887Z" fill="#66C789" fill-opacity="0.8"/>
<path d="M182.702 82.6662C183.454 82.6662 184.091 82.03 184.091 81.2781C184.091 80.5262 183.455 79.89 182.703 79.8899C181.951 79.8899 181.314 80.5261 181.314 81.278C181.314 82.0299 181.95 82.6661 182.702 82.6662Z" fill="#66C789" fill-opacity="0.8"/>
<path d="M191.555 82.6675C192.307 82.6675 192.944 82.0313 192.944 81.2794C192.944 80.5275 192.308 79.8913 191.556 79.8912C190.804 79.8912 190.167 80.5274 190.167 81.2793C190.167 82.0312 190.803 82.6674 191.555 82.6675Z" fill="#66C789" fill-opacity="0.8"/>
<path d="M200.466 82.6688C201.218 82.6688 201.855 82.0326 201.855 81.2807C201.855 80.5288 201.219 79.8926 200.467 79.8925C199.714 79.8925 199.078 80.5287 199.078 81.2806C199.078 82.0325 199.656 82.6687 200.466 82.6688Z" fill="#66C789" fill-opacity="0.8"/>
<path d="M209.319 82.67C210.071 82.6701 210.708 82.0339 210.708 81.282C210.708 80.5301 210.072 79.8938 209.32 79.8938C208.568 79.8938 207.931 80.5299 207.931 81.2818C207.931 82.0337 208.567 82.67 209.319 82.67Z" fill="#66C789" fill-opacity="0.8"/>
<path d="M218.231 79.895C217.478 79.895 216.842 80.5312 216.842 81.2831C216.841 82.035 217.478 82.6712 218.23 82.6713C218.982 82.6713 219.619 82.0351 219.619 81.2832C219.619 80.5313 218.983 79.8951 218.231 79.895Z" fill="#66C789" fill-opacity="0.8"/>
<path d="M227.083 82.6726C227.835 82.6726 228.472 82.0364 228.472 81.2845C228.472 80.5326 227.836 79.8964 227.084 79.8964C226.331 79.8963 225.695 80.5325 225.695 81.2844C225.694 82.0363 226.331 82.6726 227.083 82.6726Z" fill="#66C789" fill-opacity="0.8"/>
<path d="M237.383 81.2858C237.383 80.5339 236.747 79.8977 235.995 79.8977C235.242 79.8976 234.606 80.5338 234.606 81.2857C234.605 82.0376 235.242 82.6739 235.994 82.6739C236.746 82.6739 237.383 82.0377 237.383 81.2858Z" fill="#66C789" fill-opacity="0.8"/>
<path d="M244.847 82.6752C245.599 82.6752 246.236 82.039 246.236 81.2871C246.236 80.5352 245.6 79.899 244.848 79.8989C244.095 79.8989 243.459 80.5351 243.459 81.287C243.458 82.0389 244.095 82.6751 244.847 82.6752Z" fill="#66C789" fill-opacity="0.8"/>
<path d="M255.147 81.2884C255.147 80.5365 254.511 79.9002 253.759 79.9002C253.006 79.9002 252.37 80.5364 252.37 81.2883C252.369 82.0402 253.006 82.6764 253.758 82.6764C254.51 82.6765 255.147 82.0403 255.147 81.2884Z" fill="#66C789" fill-opacity="0.8"/>
<path d="M262.611 82.6777C263.363 82.6778 264 82.0416 264 81.2897C264 80.5378 263.364 79.9015 262.612 79.9015C261.859 79.9014 261.223 80.5376 261.223 81.2895C261.222 82.0414 261.859 82.6777 262.611 82.6777Z" fill="#66C789" fill-opacity="0.8"/>
<path d="M173.849 86.0774C173.097 86.0773 172.46 86.7135 172.46 87.4654C172.46 88.2173 173.096 88.8536 173.848 88.8536C174.6 88.8536 175.237 88.2175 175.237 87.4656C175.237 86.7137 174.601 86.0774 173.849 86.0774Z" fill="#66C789" fill-opacity="0.8"/>
<path d="M182.701 88.9127C183.453 88.9127 184.09 88.2766 184.09 87.5247C184.09 86.7728 183.454 86.1365 182.702 86.1365C181.95 86.1364 181.313 86.7726 181.313 87.5245C181.313 88.2764 181.949 88.9127 182.701 88.9127Z" fill="#66C789" fill-opacity="0.8"/>
<path d="M191.554 88.914C192.307 88.914 192.943 88.2778 192.943 87.5259C192.943 86.774 192.307 86.1378 191.555 86.1377C190.803 86.1377 190.166 86.7739 190.166 87.5258C190.166 88.2777 190.802 88.9139 191.554 88.914Z" fill="#66C789" fill-opacity="0.8"/>
<path d="M200.465 88.9153C201.217 88.9153 201.854 88.2791 201.854 87.5272C201.854 86.7753 201.218 86.1391 200.466 86.139C199.714 86.139 199.077 86.7752 199.077 87.5271C199.077 88.279 199.655 88.9152 200.465 88.9153Z" fill="#66C789" fill-opacity="0.8"/>
<path d="M209.318 88.9165C210.07 88.9166 210.707 88.2804 210.707 87.5285C210.707 86.7766 210.071 86.1403 209.319 86.1403C208.567 86.1403 207.93 86.7765 207.93 87.5284C207.93 88.2803 208.566 88.9165 209.318 88.9165Z" fill="#66C789" fill-opacity="0.8"/>
<path d="M218.23 86.0837C217.478 86.0837 216.841 86.7199 216.841 87.4718C216.841 88.2237 217.477 88.8599 218.229 88.86C218.981 88.86 219.618 88.2238 219.618 87.4719C219.618 86.72 218.982 86.0838 218.23 86.0837Z" fill="#66C789" fill-opacity="0.8"/>
<path d="M227.082 88.9191C227.834 88.9191 228.471 88.283 228.471 87.5311C228.471 86.7792 227.835 86.1429 227.083 86.1429C226.331 86.1428 225.694 86.779 225.694 87.5309C225.694 88.2828 226.33 88.9191 227.082 88.9191Z" fill="#66C789" fill-opacity="0.8"/>
<path d="M235.993 88.9204C236.745 88.9204 237.382 88.2843 237.382 87.5324C237.382 86.7805 236.746 86.1442 235.994 86.1442C235.242 86.1441 234.605 86.7803 234.605 87.5322C234.547 88.2841 235.183 88.9204 235.993 88.9204Z" fill="#66C789" fill-opacity="0.8"/>
<path d="M244.846 88.9217C245.598 88.9217 246.235 88.2855 246.235 87.5336C246.235 86.7817 245.599 86.1455 244.847 86.1454C244.095 86.1454 243.458 86.7816 243.458 87.5335C243.458 88.2854 244.094 88.9216 244.846 88.9217Z" fill="#66C789" fill-opacity="0.8"/>
<path d="M253.699 88.9229C254.451 88.923 255.088 88.2868 255.088 87.5349C255.088 86.783 254.452 86.1467 253.7 86.1467C252.948 86.1466 252.311 86.7828 252.311 87.5347C252.311 88.2866 252.947 88.9229 253.699 88.9229Z" fill="#66C789" fill-opacity="0.8"/>
<path d="M262.61 88.9242C263.362 88.9243 263.999 88.2881 263.999 87.5362C263.999 86.7843 263.363 86.148 262.611 86.148C261.859 86.1479 261.222 86.7842 261.222 87.5361C261.222 88.288 261.858 88.9242 262.61 88.9242Z" fill="#66C789" fill-opacity="0.8"/>
<path d="M173.847 95.1001C174.599 95.1002 175.236 94.464 175.236 93.7121C175.236 92.9602 174.6 92.3239 173.848 92.3239C173.096 92.3238 172.459 92.96 172.459 93.7119C172.459 94.4638 173.037 95.1001 173.847 95.1001Z" fill="#66C789" fill-opacity="0.8"/>
<path d="M182.7 95.1014C183.453 95.1014 184.089 94.4653 184.089 93.7134C184.09 92.9615 183.453 92.3252 182.701 92.3252C181.949 92.3251 181.312 92.9613 181.312 93.7132C181.312 94.4651 181.948 95.1014 182.7 95.1014Z" fill="#66C789" fill-opacity="0.8"/>
<path d="M191.554 92.3264C190.802 92.3264 190.165 92.9626 190.165 93.7145C190.165 94.4664 190.801 95.1026 191.553 95.1027C192.306 95.1027 192.942 94.4665 192.942 93.7146C192.943 92.9627 192.364 92.3265 191.554 92.3264Z" fill="#66C789" fill-opacity="0.8"/>
<path d="M200.464 95.104C201.216 95.104 201.853 94.4678 201.853 93.7159C201.853 92.964 201.217 92.3278 200.465 92.3277C199.713 92.3277 199.076 92.9639 199.076 93.7158C199.076 94.4677 199.654 95.1039 200.464 95.104Z" fill="#66C789" fill-opacity="0.8"/>
<path d="M209.317 95.1052C210.07 95.1053 210.706 94.4691 210.706 93.7172C210.707 92.9653 210.07 92.329 209.318 92.329C208.566 92.3289 207.929 92.9651 207.929 93.717C207.929 94.4689 208.565 95.1052 209.317 95.1052Z" fill="#66C789" fill-opacity="0.8"/>
<path d="M218.228 95.1065C218.98 95.1066 219.617 94.4704 219.617 93.7185C219.617 92.9666 218.981 92.3303 218.229 92.3303C217.477 92.3302 216.84 92.9664 216.84 93.7183C216.84 94.4702 217.418 95.1065 218.228 95.1065Z" fill="#66C789" fill-opacity="0.8"/>
<path d="M227.081 95.1078C227.833 95.1078 228.47 94.4717 228.47 93.7198C228.471 92.9679 227.834 92.3316 227.082 92.3316C226.33 92.3315 225.693 92.9677 225.693 93.7196C225.693 94.4715 226.329 95.1078 227.081 95.1078Z" fill="#66C789" fill-opacity="0.8"/>
<path d="M235.993 92.3329C235.241 92.3328 234.604 92.969 234.604 93.7209C234.604 94.4728 235.24 95.1091 235.992 95.1091C236.744 95.1091 237.381 94.473 237.381 93.7211C237.381 92.9692 236.745 92.3329 235.993 92.3329Z" fill="#66C789" fill-opacity="0.8"/>
<path d="M244.845 95.1104C245.597 95.1104 246.234 94.4742 246.234 93.7223C246.234 92.9704 245.598 92.3342 244.846 92.3341C244.094 92.3341 243.457 92.9703 243.457 93.7222C243.457 94.4741 244.093 95.1103 244.845 95.1104Z" fill="#66C789" fill-opacity="0.8"/>
<path d="M253.698 95.1116C254.45 95.1117 255.087 94.4755 255.087 93.7236C255.087 92.9717 254.451 92.3354 253.699 92.3354C252.947 92.3353 252.31 92.9715 252.31 93.7234C252.31 94.4753 252.946 95.1116 253.698 95.1116Z" fill="#66C789" fill-opacity="0.8"/>
<path d="M262.61 92.3367C261.858 92.3366 261.221 92.9728 261.221 93.7247C261.221 94.4767 261.857 95.1129 262.609 95.1129C263.361 95.113 263.998 94.4768 263.998 93.7249C263.998 92.973 263.362 92.3367 262.61 92.3367Z" fill="#66C789" fill-opacity="0.8"/>
<path d="M173.846 101.289C174.613 101.289 175.235 100.667 175.235 99.9007C175.236 99.1341 174.614 98.5126 173.847 98.5126C173.08 98.5125 172.458 99.134 172.458 99.9006C172.458 100.667 173.079 101.289 173.846 101.289Z" fill="#66C789" fill-opacity="0.8"/>
<path d="M182.7 98.5139C181.948 98.5138 181.311 99.15 181.311 99.9019C181.311 100.654 181.947 101.29 182.699 101.29C183.452 101.29 184.088 100.654 184.088 99.9021C184.089 99.1502 183.452 98.5139 182.7 98.5139Z" fill="#66C789" fill-opacity="0.8"/>
<path d="M191.553 98.5151C190.801 98.5151 190.164 99.1513 190.164 99.9032C190.164 100.655 190.8 101.291 191.552 101.291C192.305 101.291 192.941 100.655 192.941 99.9033C192.942 99.1514 192.363 98.5152 191.553 98.5151Z" fill="#66C789" fill-opacity="0.8"/>
<path d="M200.463 101.293C201.216 101.293 201.852 100.656 201.852 99.9046C201.853 99.1527 201.216 98.5164 200.464 98.5164C199.712 98.5164 199.075 99.1525 199.075 99.9044C199.075 100.714 199.653 101.293 200.463 101.293Z" fill="#66C789" fill-opacity="0.8"/>
<path d="M209.316 101.294C210.069 101.294 210.705 100.658 210.705 99.9059C210.706 99.154 210.069 98.5177 209.317 98.5177C208.565 98.5176 207.928 99.1538 207.928 99.9057C207.928 100.658 208.564 101.294 209.316 101.294Z" fill="#66C789" fill-opacity="0.8"/>
<path d="M218.228 98.519C217.476 98.5189 216.839 99.1551 216.839 99.907C216.839 100.659 217.475 101.295 218.227 101.295C218.98 101.295 219.616 100.659 219.616 99.9072C219.617 99.1553 218.98 98.519 218.228 98.519Z" fill="#66C789" fill-opacity="0.8"/>
<path d="M227.08 101.296C227.833 101.297 228.469 100.66 228.469 99.9084C228.47 99.1565 227.833 98.5203 227.081 98.5203C226.329 98.5202 225.692 99.1564 225.692 99.9083C225.692 100.718 226.328 101.296 227.08 101.296Z" fill="#66C789" fill-opacity="0.8"/>
<path d="M235.992 98.5215C235.24 98.5215 234.603 99.1577 234.603 99.9096C234.603 100.661 235.239 101.298 235.991 101.298C236.744 101.298 237.38 100.662 237.38 99.9097C237.38 99.1578 236.744 98.5216 235.992 98.5215Z" fill="#66C789" fill-opacity="0.8"/>
<path d="M244.844 101.299C245.597 101.299 246.233 100.663 246.233 99.911C246.234 99.1591 245.597 98.5228 244.845 98.5228C244.093 98.5228 243.456 99.1589 243.456 99.9108C243.456 100.721 244.092 101.299 244.844 101.299Z" fill="#66C789" fill-opacity="0.8"/>
<path d="M253.697 101.3C254.45 101.3 255.086 100.664 255.086 99.9123C255.087 99.1604 254.45 98.5241 253.698 98.5241C252.946 98.524 252.309 99.1602 252.309 99.9121C252.309 100.722 252.945 101.3 253.697 101.3Z" fill="#66C789" fill-opacity="0.8"/>
<path d="M262.608 101.302C263.375 101.302 263.997 100.68 263.997 99.9136C263.998 99.1469 263.376 98.5254 262.609 98.5254C261.842 98.5253 261.22 99.1468 261.22 99.9134C261.22 100.68 261.841 101.302 262.608 101.302Z" fill="#66C789" fill-opacity="0.8"/>
<path d="M173.845 107.535C174.598 107.535 175.234 106.899 175.234 106.147C175.235 105.395 174.598 104.759 173.846 104.759C173.094 104.759 172.457 105.395 172.457 106.147C172.399 106.899 173.035 107.535 173.845 107.535Z" fill="#66C789" fill-opacity="0.8"/>
<path d="M182.698 107.537C183.451 107.537 184.087 106.9 184.088 106.149C184.088 105.397 183.451 104.76 182.699 104.76C181.947 104.76 181.31 105.397 181.31 106.148C181.31 106.9 181.946 107.537 182.698 107.537Z" fill="#66C789" fill-opacity="0.8"/>
<path d="M191.552 107.538C192.304 107.538 192.94 106.902 192.941 106.15C192.941 105.398 192.304 104.762 191.552 104.762C190.8 104.762 190.163 105.398 190.163 106.15C190.163 106.902 190.799 107.538 191.552 107.538Z" fill="#66C789" fill-opacity="0.8"/>
<path d="M200.462 107.539C201.215 107.539 201.851 106.903 201.852 106.151C201.852 105.399 201.215 104.763 200.463 104.763C199.711 104.763 199.074 105.399 199.074 106.151C199.074 106.903 199.652 107.539 200.462 107.539Z" fill="#66C789" fill-opacity="0.8"/>
<path d="M209.316 107.54C210.068 107.54 210.704 106.904 210.705 106.152C210.705 105.401 210.068 104.764 209.316 104.764C208.564 104.764 207.927 105.4 207.927 106.152C207.927 106.904 208.563 107.54 209.316 107.54Z" fill="#66C789" fill-opacity="0.8"/>
<path d="M218.226 107.542C218.979 107.542 219.615 106.906 219.615 106.154C219.616 105.402 218.979 104.766 218.227 104.765C217.475 104.765 216.838 105.402 216.838 106.154C216.838 106.905 217.416 107.542 218.226 107.542Z" fill="#66C789" fill-opacity="0.8"/>
<path d="M227.079 107.543C227.832 107.543 228.468 106.907 228.469 106.155C228.469 105.403 227.832 104.767 227.08 104.767C226.328 104.767 225.691 105.403 225.691 106.155C225.691 106.907 226.327 107.543 227.079 107.543Z" fill="#66C789" fill-opacity="0.8"/>
<path d="M235.99 107.544C236.743 107.544 237.379 106.908 237.379 106.156C237.38 105.404 236.743 104.768 235.991 104.768C235.239 104.768 234.602 105.404 234.602 106.156C234.544 106.908 235.18 107.544 235.99 107.544Z" fill="#66C789" fill-opacity="0.8"/>
<path d="M244.843 107.546C245.596 107.546 246.232 106.909 246.233 106.158C246.233 105.406 245.596 104.769 244.844 104.769C244.092 104.769 243.455 105.406 243.455 106.157C243.455 106.909 244.091 107.546 244.843 107.546Z" fill="#66C789" fill-opacity="0.8"/>
<path d="M255.143 106.159C255.144 105.407 254.507 104.771 253.755 104.771C253.003 104.771 252.366 105.407 252.366 106.159C252.366 106.911 253.002 107.547 253.754 107.547C254.507 107.547 255.143 106.911 255.143 106.159Z" fill="#66C789" fill-opacity="0.8"/>
<path d="M262.608 104.772C261.856 104.772 261.219 105.408 261.219 106.16C261.219 106.912 261.855 107.548 262.607 107.548C263.36 107.548 263.996 106.912 263.996 106.16C263.997 105.35 263.36 104.772 262.608 104.772Z" fill="#66C789" fill-opacity="0.8"/>
<path d="M173.845 113.724C174.597 113.724 175.233 113.088 175.234 112.336C175.234 111.584 174.597 110.948 173.845 110.948C173.093 110.948 172.456 111.584 172.456 112.336C172.398 113.088 173.034 113.724 173.845 113.724Z" fill="#66C789" fill-opacity="0.8"/>
<path d="M182.698 113.725C183.45 113.725 184.086 113.089 184.087 112.337C184.087 111.585 183.45 110.949 182.698 110.949C181.946 110.949 181.309 111.585 181.309 112.337C181.309 113.089 181.945 113.725 182.698 113.725Z" fill="#66C789" fill-opacity="0.8"/>
<path d="M191.551 113.727C192.303 113.727 192.939 113.09 192.94 112.339C192.94 111.587 192.304 110.95 191.551 110.95C190.799 110.95 190.162 111.586 190.162 112.338C190.162 113.09 190.798 113.727 191.551 113.727Z" fill="#66C789" fill-opacity="0.8"/>
<path d="M200.462 113.728C201.229 113.728 201.85 113.106 201.851 112.34C201.851 111.573 201.229 110.952 200.462 110.952C199.695 110.952 199.073 111.573 199.073 112.34C199.073 113.106 199.695 113.728 200.462 113.728Z" fill="#66C789" fill-opacity="0.8"/>
<path d="M209.315 113.729C210.067 113.729 210.704 113.093 210.704 112.341C210.704 111.589 210.068 110.953 209.315 110.953C208.563 110.953 207.926 111.589 207.926 112.341C207.926 113.093 208.562 113.729 209.315 113.729Z" fill="#66C789" fill-opacity="0.8"/>
<path d="M218.226 113.73C218.978 113.73 219.614 113.094 219.615 112.342C219.615 111.59 218.978 110.954 218.226 110.954C217.474 110.954 216.837 111.59 216.837 112.342C216.837 113.094 217.415 113.73 218.226 113.73Z" fill="#66C789" fill-opacity="0.8"/>
<path d="M227.079 113.732C227.831 113.732 228.467 113.096 228.468 112.344C228.468 111.592 227.831 110.955 227.079 110.955C226.327 110.955 225.69 111.592 225.69 112.343C225.69 113.095 226.326 113.732 227.079 113.732Z" fill="#66C789" fill-opacity="0.8"/>
<path d="M235.99 113.733C236.756 113.733 237.378 113.112 237.379 112.345C237.379 111.578 236.757 110.957 235.99 110.957C235.223 110.957 234.601 111.578 234.601 112.345C234.601 113.111 235.223 113.733 235.99 113.733Z" fill="#66C789" fill-opacity="0.8"/>
<path d="M244.843 113.734C245.595 113.734 246.231 113.098 246.232 112.346C246.232 111.594 245.595 110.958 244.843 110.958C244.091 110.958 243.454 111.594 243.454 112.346C243.454 113.098 244.09 113.734 244.843 113.734Z" fill="#66C789" fill-opacity="0.8"/>
<path d="M253.696 113.736C254.448 113.736 255.084 113.099 255.085 112.347C255.085 111.596 254.448 110.959 253.696 110.959C252.944 110.959 252.307 111.595 252.307 112.347C252.307 113.099 252.943 113.736 253.696 113.736Z" fill="#66C789" fill-opacity="0.8"/>
<path d="M262.607 110.961C261.855 110.961 261.218 111.597 261.218 112.349C261.218 113.101 261.854 113.737 262.606 113.737C263.359 113.737 263.995 113.101 263.996 112.349C263.996 111.597 263.359 110.961 262.607 110.961Z" fill="#66C789" fill-opacity="0.8"/>
<path d="M173.844 119.971C174.611 119.971 175.232 119.349 175.233 118.583C175.233 117.816 174.611 117.194 173.844 117.194C173.077 117.194 172.455 117.816 172.455 118.582C172.455 119.349 173.077 119.97 173.844 119.971Z" fill="#66C789" fill-opacity="0.8"/>
<path d="M182.697 117.138C181.945 117.138 181.308 117.774 181.308 118.526C181.308 119.278 181.944 119.914 182.697 119.914C183.449 119.914 184.086 119.278 184.086 118.526C184.086 117.774 183.45 117.138 182.697 117.138Z" fill="#66C789" fill-opacity="0.8"/>
<path d="M191.55 117.139C190.798 117.139 190.162 117.775 190.161 118.527C190.161 119.279 190.798 119.915 191.55 119.915C192.302 119.915 192.939 119.279 192.939 118.527C192.939 117.775 192.361 117.139 191.55 117.139Z" fill="#66C789" fill-opacity="0.8"/>
<path d="M200.461 119.974C201.228 119.974 201.85 119.353 201.85 118.586C201.85 117.82 201.228 117.198 200.461 117.198C199.694 117.198 199.072 117.82 199.072 118.586C199.072 119.353 199.694 119.974 200.461 119.974Z" fill="#66C789" fill-opacity="0.8"/>
<path d="M209.314 119.976C210.066 119.976 210.703 119.34 210.703 118.588C210.703 117.836 210.067 117.199 209.314 117.199C208.562 117.199 207.926 117.836 207.925 118.587C207.925 119.339 208.561 119.976 209.314 119.976Z" fill="#66C789" fill-opacity="0.8"/>
<path d="M218.225 119.977C218.977 119.977 219.614 119.341 219.614 118.589C219.614 117.837 218.978 117.201 218.225 117.201C217.473 117.201 216.836 117.837 216.836 118.589C216.836 119.341 217.415 119.977 218.225 119.977Z" fill="#66C789" fill-opacity="0.8"/>
<path d="M227.078 119.978C227.845 119.978 228.467 119.357 228.467 118.59C228.467 117.824 227.845 117.202 227.078 117.202C226.311 117.202 225.689 117.823 225.689 118.59C225.689 119.357 226.311 119.978 227.078 119.978Z" fill="#66C789" fill-opacity="0.8"/>
<path d="M235.989 117.145C235.237 117.145 234.6 117.782 234.6 118.533C234.6 119.285 235.236 119.922 235.989 119.922C236.741 119.922 237.377 119.286 237.378 118.534C237.378 117.782 236.741 117.145 235.989 117.145Z" fill="#66C789" fill-opacity="0.8"/>
<path d="M244.842 119.981C245.594 119.981 246.231 119.345 246.231 118.593C246.231 117.841 245.595 117.205 244.842 117.205C244.09 117.205 243.453 117.841 243.453 118.593C243.453 119.345 244.089 119.981 244.842 119.981Z" fill="#66C789" fill-opacity="0.8"/>
<path d="M253.695 119.982C254.447 119.982 255.083 119.346 255.084 118.594C255.084 117.842 254.448 117.206 253.695 117.206C252.943 117.206 252.306 117.842 252.306 118.594C252.306 119.346 252.942 119.982 253.695 119.982Z" fill="#66C789" fill-opacity="0.8"/>
<path d="M262.606 119.983C263.373 119.983 263.994 119.362 263.995 118.595C263.995 117.829 263.373 117.207 262.606 117.207C261.839 117.207 261.217 117.829 261.217 118.595C261.217 119.362 261.839 119.983 262.606 119.983Z" fill="#66C789" fill-opacity="0.8"/>
<path d="M173.843 126.159C174.61 126.159 175.232 125.538 175.232 124.771C175.232 124.005 174.61 123.383 173.843 123.383C173.076 123.383 172.455 124.004 172.454 124.771C172.454 125.538 173.076 126.159 173.843 126.159Z" fill="#66C789" fill-opacity="0.8"/>
<path d="M182.696 126.161C183.463 126.161 184.085 125.539 184.085 124.772C184.085 124.006 183.463 123.384 182.696 123.384C181.93 123.384 181.308 124.006 181.307 124.772C181.307 125.539 181.929 126.16 182.696 126.161Z" fill="#66C789" fill-opacity="0.8"/>
<path d="M191.55 123.386C190.797 123.386 190.161 124.022 190.161 124.774C190.16 125.525 190.797 126.162 191.549 126.162C192.301 126.162 192.938 125.526 192.938 124.774C192.938 124.022 192.36 123.386 191.55 123.386Z" fill="#66C789" fill-opacity="0.8"/>
<path d="M200.46 126.163C201.212 126.163 201.849 125.527 201.849 124.775C201.849 124.023 201.213 123.387 200.46 123.387C199.708 123.387 199.072 124.023 199.071 124.775C199.071 125.527 199.65 126.163 200.46 126.163Z" fill="#66C789" fill-opacity="0.8"/>
<path d="M209.313 126.164C210.065 126.164 210.702 125.528 210.702 124.776C210.702 124.024 210.066 123.388 209.313 123.388C208.561 123.388 207.925 124.024 207.924 124.776C207.924 125.528 208.561 126.164 209.313 126.164Z" fill="#66C789" fill-opacity="0.8"/>
<path d="M218.224 126.166C218.976 126.166 219.613 125.529 219.613 124.778C219.613 124.026 218.977 123.389 218.224 123.389C217.472 123.389 216.836 124.026 216.835 124.777C216.835 125.529 217.414 126.166 218.224 126.166Z" fill="#66C789" fill-opacity="0.8"/>
<path d="M227.077 126.167C227.829 126.167 228.466 125.531 228.466 124.779C228.466 124.027 227.83 123.391 227.077 123.391C226.325 123.391 225.689 124.027 225.688 124.779C225.688 125.531 226.325 126.167 227.077 126.167Z" fill="#66C789" fill-opacity="0.8"/>
<path d="M235.988 123.392C235.236 123.392 234.599 124.028 234.599 124.78C234.599 125.532 235.235 126.168 235.988 126.168C236.74 126.168 237.377 125.532 237.377 124.78C237.377 124.028 236.741 123.392 235.988 123.392Z" fill="#66C789" fill-opacity="0.8"/>
<path d="M244.841 126.169C245.593 126.17 246.23 125.533 246.23 124.781C246.23 124.03 245.594 123.393 244.841 123.393C244.089 123.393 243.452 124.029 243.452 124.781C243.452 125.533 244.088 126.169 244.841 126.169Z" fill="#66C789" fill-opacity="0.8"/>
<path d="M253.694 126.171C254.461 126.171 255.083 125.549 255.083 124.783C255.083 124.016 254.461 123.395 253.694 123.395C252.927 123.395 252.306 124.016 252.305 124.783C252.305 125.549 252.927 126.171 253.694 126.171Z" fill="#66C789" fill-opacity="0.8"/>
<path d="M262.605 126.172C263.372 126.172 263.994 125.551 263.994 124.784C263.994 124.017 263.372 123.396 262.605 123.396C261.838 123.396 261.217 124.017 261.216 124.784C261.216 125.55 261.838 126.172 262.605 126.172Z" fill="#66C789" fill-opacity="0.8"/>
<path d="M173.842 132.348C174.609 132.348 175.231 131.727 175.231 130.96C175.231 130.193 174.609 129.572 173.843 129.572C173.076 129.572 172.454 130.193 172.454 130.96C172.453 131.726 173.075 132.348 173.842 132.348Z" fill="#66C789" fill-opacity="0.8"/>
<path d="M182.695 132.349C183.447 132.349 184.084 131.713 184.084 130.961C184.084 130.209 183.448 129.573 182.696 129.573C181.943 129.573 181.307 130.209 181.307 130.961C181.306 131.771 181.943 132.349 182.695 132.349Z" fill="#66C789" fill-opacity="0.8"/>
<path d="M191.548 132.35C192.3 132.351 192.937 131.714 192.937 130.962C192.937 130.211 192.301 129.574 191.549 129.574C190.796 129.574 190.16 130.21 190.16 130.962C190.159 131.772 190.796 132.35 191.548 132.35Z" fill="#66C789" fill-opacity="0.8"/>
<path d="M200.459 132.352C201.226 132.352 201.848 131.73 201.848 130.964C201.848 130.197 201.226 129.576 200.459 129.576C199.693 129.576 199.071 130.197 199.07 130.964C199.07 131.73 199.692 132.352 200.459 132.352Z" fill="#66C789" fill-opacity="0.8"/>
<path d="M209.312 132.353C210.079 132.353 210.701 131.732 210.701 130.965C210.701 130.198 210.08 129.577 209.313 129.577C208.546 129.577 207.924 130.198 207.924 130.965C207.923 131.731 208.545 132.353 209.312 132.353Z" fill="#66C789" fill-opacity="0.8"/>
<path d="M218.224 129.578C217.471 129.578 216.835 130.214 216.834 130.966C216.834 131.718 217.471 132.354 218.223 132.354C218.975 132.354 219.612 131.718 219.612 130.966C219.612 130.214 218.976 129.578 218.224 129.578Z" fill="#66C789" fill-opacity="0.8"/>
<path d="M227.076 132.356C227.843 132.356 228.465 131.734 228.465 130.968C228.465 130.201 227.843 129.579 227.077 129.579C226.31 129.579 225.688 130.201 225.687 130.967C225.687 131.734 226.309 132.356 227.076 132.356Z" fill="#66C789" fill-opacity="0.8"/>
<path d="M235.987 132.357C236.754 132.357 237.376 131.736 237.376 130.969C237.376 130.202 236.754 129.581 235.987 129.581C235.22 129.581 234.599 130.202 234.598 130.969C234.598 131.735 235.22 132.357 235.987 132.357Z" fill="#66C789" fill-opacity="0.8"/>
<path d="M244.84 132.358C245.592 132.358 246.229 131.722 246.229 130.97C246.229 130.218 245.593 129.582 244.841 129.582C244.088 129.582 243.452 130.218 243.451 130.97C243.451 131.78 244.088 132.358 244.84 132.358Z" fill="#66C789" fill-opacity="0.8"/>
<path d="M253.694 129.583C252.941 129.583 252.305 130.219 252.305 130.971C252.304 131.723 252.941 132.359 253.693 132.359C254.445 132.36 255.082 131.723 255.082 130.971C255.14 130.22 254.504 129.583 253.694 129.583Z" fill="#66C789" fill-opacity="0.8"/>
<path d="M262.604 132.361C263.371 132.361 263.993 131.739 263.993 130.973C263.993 130.206 263.371 129.585 262.604 129.585C261.838 129.584 261.216 130.206 261.215 130.973C261.215 131.739 261.837 132.361 262.604 132.361Z" fill="#66C789" fill-opacity="0.8"/>
<path d="M173.841 138.594C174.608 138.595 175.23 137.973 175.23 137.206C175.23 136.44 174.609 135.818 173.842 135.818C173.075 135.818 172.453 136.44 172.453 137.206C172.452 137.973 173.074 138.594 173.841 138.594Z" fill="#66C789" fill-opacity="0.8"/>
<path d="M182.694 138.596C183.446 138.596 184.083 137.96 184.083 137.208C184.083 136.456 183.447 135.82 182.695 135.82C181.942 135.819 181.306 136.456 181.306 137.208C181.305 137.959 181.942 138.596 182.694 138.596Z" fill="#66C789" fill-opacity="0.8"/>
<path d="M191.547 138.597C192.299 138.597 192.936 137.961 192.936 137.209C192.936 136.457 192.3 135.821 191.548 135.821C190.796 135.821 190.159 136.457 190.159 137.209C190.159 137.961 190.795 138.597 191.547 138.597Z" fill="#66C789" fill-opacity="0.8"/>
<path d="M200.458 138.598C201.225 138.598 201.847 137.977 201.847 137.21C201.847 136.444 201.226 135.822 200.459 135.822C199.692 135.822 199.07 136.443 199.07 137.21C199.069 137.977 199.691 138.598 200.458 138.598Z" fill="#66C789" fill-opacity="0.8"/>
<path d="M209.311 138.6C210.078 138.6 210.7 137.978 210.7 137.212C210.7 136.445 210.079 135.823 209.312 135.823C208.545 135.823 207.923 136.445 207.923 137.211C207.922 137.978 208.544 138.6 209.311 138.6Z" fill="#66C789" fill-opacity="0.8"/>
<path d="M218.222 138.601C218.974 138.601 219.611 137.965 219.611 137.213C219.611 136.461 218.975 135.825 218.223 135.825C217.47 135.825 216.834 136.461 216.834 137.213C216.833 137.965 217.412 138.601 218.222 138.601Z" fill="#66C789" fill-opacity="0.8"/>
<path d="M227.075 138.602C227.842 138.602 228.464 137.981 228.464 137.214C228.464 136.447 227.843 135.826 227.076 135.826C226.309 135.826 225.687 136.447 225.687 137.214C225.686 137.981 226.308 138.602 227.075 138.602Z" fill="#66C789" fill-opacity="0.8"/>
<path d="M235.986 138.603C236.753 138.603 237.375 137.982 237.375 137.215C237.375 136.449 236.754 135.827 235.987 135.827C235.22 135.827 234.598 136.449 234.598 137.215C234.597 137.982 235.219 138.603 235.986 138.603Z" fill="#66C789" fill-opacity="0.8"/>
<path d="M244.839 138.605C245.591 138.605 246.228 137.969 246.228 137.217C246.228 136.465 245.592 135.829 244.84 135.829C244.087 135.828 243.451 136.465 243.451 137.217C243.45 137.968 244.087 138.605 244.839 138.605Z" fill="#66C789" fill-opacity="0.8"/>
<path d="M253.692 138.606C254.459 138.606 255.081 137.985 255.081 137.218C255.081 136.451 254.46 135.83 253.693 135.83C252.926 135.83 252.304 136.451 252.304 137.218C252.303 137.984 252.925 138.606 253.692 138.606Z" fill="#66C789" fill-opacity="0.8"/>
<path d="M262.603 138.607C263.37 138.607 263.992 137.986 263.992 137.219C263.992 136.453 263.371 135.831 262.604 135.831C261.837 135.831 261.215 136.452 261.215 137.219C261.214 137.986 261.836 138.607 262.603 138.607Z" fill="#66C789" fill-opacity="0.8"/>
<path d="M173.84 144.783C174.607 144.783 175.229 144.162 175.229 143.395C175.229 142.628 174.608 142.007 173.841 142.007C173.074 142.007 172.452 142.628 172.452 143.395C172.452 144.162 173.073 144.783 173.84 144.783Z" fill="#66C789" fill-opacity="0.8"/>
<path d="M182.694 142.008C181.942 142.008 181.305 142.644 181.305 143.396C181.305 144.148 181.941 144.784 182.693 144.784C183.445 144.785 184.082 144.148 184.082 143.396C184.082 142.645 183.446 142.008 182.694 142.008Z" fill="#66C789" fill-opacity="0.8"/>
<path d="M190.158 143.398C190.158 144.149 190.794 144.786 191.546 144.786C192.298 144.786 192.935 144.15 192.935 143.398C192.935 142.646 192.299 142.01 191.547 142.009C190.795 142.009 190.158 142.646 190.158 143.398Z" fill="#66C789" fill-opacity="0.8"/>
<path d="M200.457 144.787C201.224 144.787 201.846 144.166 201.846 143.399C201.846 142.632 201.225 142.011 200.458 142.011C199.691 142.011 199.069 142.632 199.069 143.399C199.068 144.165 199.69 144.787 200.457 144.787Z" fill="#66C789" fill-opacity="0.8"/>
<path d="M209.31 144.788C210.077 144.788 210.699 144.167 210.699 143.4C210.699 142.634 210.078 142.012 209.311 142.012C208.544 142.012 207.922 142.633 207.922 143.4C207.922 144.167 208.543 144.788 209.31 144.788Z" fill="#66C789" fill-opacity="0.8"/>
<path d="M218.221 144.79C218.973 144.79 219.61 144.153 219.61 143.402C219.61 142.65 218.974 142.013 218.222 142.013C217.469 142.013 216.833 142.649 216.833 143.401C216.832 144.153 217.411 144.79 218.221 144.79Z" fill="#66C789" fill-opacity="0.8"/>
<path d="M227.074 144.791C227.841 144.791 228.463 144.169 228.463 143.403C228.463 142.636 227.842 142.015 227.075 142.015C226.308 142.015 225.686 142.636 225.686 143.403C225.686 144.169 226.307 144.791 227.074 144.791Z" fill="#66C789" fill-opacity="0.8"/>
<path d="M235.986 142.016C235.233 142.016 234.597 142.652 234.597 143.404C234.596 144.156 235.233 144.792 235.985 144.792C236.737 144.792 237.374 144.156 237.374 143.404C237.374 142.652 236.738 142.016 235.986 142.016Z" fill="#66C789" fill-opacity="0.8"/>
<path d="M244.839 142.017C244.086 142.017 243.45 142.653 243.45 143.405C243.449 144.157 244.086 144.793 244.838 144.793C245.59 144.793 246.227 144.157 246.227 143.405C246.227 142.653 245.591 142.017 244.839 142.017Z" fill="#66C789" fill-opacity="0.8"/>
<path d="M253.691 144.795C254.443 144.795 255.08 144.159 255.08 143.407C255.08 142.655 254.444 142.018 253.692 142.018C252.94 142.018 252.303 142.655 252.303 143.406C252.303 144.158 252.939 144.795 253.691 144.795Z" fill="#66C789" fill-opacity="0.8"/>
<path d="M262.602 144.796C263.369 144.796 263.991 144.175 263.991 143.408C263.991 142.641 263.37 142.02 262.603 142.02C261.836 142.02 261.214 142.641 261.214 143.408C261.213 144.174 261.835 144.796 262.602 144.796Z" fill="#66C789" fill-opacity="0.8"/>
<path d="M173.839 151.03C174.606 151.03 175.228 150.408 175.228 149.642C175.228 148.875 174.607 148.253 173.84 148.253C173.073 148.253 172.451 148.875 172.451 149.641C172.451 150.408 173.072 151.03 173.839 151.03Z" fill="#66C789" fill-opacity="0.8"/>
<path d="M182.693 148.197C181.941 148.197 181.304 148.833 181.304 149.585C181.304 150.337 181.94 150.973 182.692 150.973C183.444 150.973 184.081 150.337 184.081 149.585C184.081 148.833 183.445 148.197 182.693 148.197Z" fill="#66C789" fill-opacity="0.8"/>
<path d="M191.545 151.032C192.298 151.032 192.934 150.396 192.934 149.644C192.934 148.892 192.298 148.256 191.546 148.256C190.794 148.256 190.157 148.892 190.157 149.644C190.157 150.396 190.793 151.032 191.545 151.032Z" fill="#66C789" fill-opacity="0.8"/>
<path d="M200.456 151.034C201.208 151.034 201.845 150.397 201.845 149.645C201.845 148.894 201.209 148.257 200.457 148.257C199.705 148.257 199.068 148.893 199.068 149.645C199.068 150.397 199.646 151.034 200.456 151.034Z" fill="#66C789" fill-opacity="0.8"/>
<path d="M209.309 151.035C210.076 151.035 210.698 150.413 210.698 149.647C210.698 148.88 210.077 148.259 209.31 148.259C208.543 148.259 207.921 148.88 207.921 149.647C207.921 150.413 208.542 151.035 209.309 151.035Z" fill="#66C789" fill-opacity="0.8"/>
<path d="M218.22 151.036C218.972 151.036 219.609 150.4 219.609 149.648C219.609 148.896 218.973 148.26 218.221 148.26C217.469 148.26 216.832 148.896 216.832 149.648C216.832 150.4 217.41 151.036 218.22 151.036Z" fill="#66C789" fill-opacity="0.8"/>
<path d="M227.073 151.037C227.84 151.037 228.462 150.416 228.462 149.649C228.462 148.883 227.841 148.261 227.074 148.261C226.307 148.261 225.685 148.883 225.685 149.649C225.685 150.416 226.306 151.037 227.073 151.037Z" fill="#66C789" fill-opacity="0.8"/>
<path d="M235.985 148.205C235.233 148.205 234.596 148.841 234.596 149.593C234.596 150.345 235.232 150.981 235.984 150.981C236.736 150.981 237.373 150.345 237.373 149.593C237.373 148.841 236.737 148.205 235.985 148.205Z" fill="#66C789" fill-opacity="0.8"/>
<path d="M244.837 151.04C245.589 151.04 246.226 150.404 246.226 149.652C246.226 148.9 245.59 148.264 244.838 148.264C244.086 148.264 243.449 148.9 243.449 149.652C243.449 150.404 244.085 151.04 244.837 151.04Z" fill="#66C789" fill-opacity="0.8"/>
<path d="M253.69 151.041C254.457 151.041 255.079 150.42 255.079 149.653C255.079 148.886 254.458 148.265 253.691 148.265C252.924 148.265 252.302 148.886 252.302 149.653C252.302 150.42 252.923 151.041 253.69 151.041Z" fill="#66C789" fill-opacity="0.8"/>
<path d="M262.601 151.042C263.368 151.043 263.99 150.421 263.99 149.654C263.99 148.888 263.369 148.266 262.602 148.266C261.835 148.266 261.213 148.888 261.213 149.654C261.213 150.421 261.834 151.042 262.601 151.042Z" fill="#66C789" fill-opacity="0.8"/>
<path d="M173.838 157.218C174.605 157.218 175.227 156.597 175.227 155.83C175.227 155.064 174.606 154.442 173.839 154.442C173.072 154.442 172.45 155.064 172.45 155.83C172.45 156.597 173.071 157.218 173.838 157.218Z" fill="#66C789" fill-opacity="0.8"/>
<path d="M182.691 157.22C183.444 157.22 184.08 156.584 184.08 155.832C184.081 155.08 183.444 154.443 182.692 154.443C181.94 154.443 181.303 155.08 181.303 155.831C181.303 156.583 181.939 157.22 182.691 157.22Z" fill="#66C789" fill-opacity="0.8"/>
<path d="M191.544 157.221C192.297 157.221 192.933 156.585 192.933 155.833C192.934 155.081 192.297 154.445 191.545 154.445C190.793 154.445 190.156 155.081 190.156 155.833C190.156 156.585 190.792 157.221 191.544 157.221Z" fill="#66C789" fill-opacity="0.8"/>
<path d="M200.455 157.222C201.222 157.222 201.844 156.601 201.844 155.834C201.844 155.068 201.223 154.446 200.456 154.446C199.689 154.446 199.067 155.067 199.067 155.834C199.067 156.601 199.688 157.222 200.455 157.222Z" fill="#66C789" fill-opacity="0.8"/>
<path d="M209.309 154.447C208.557 154.447 207.92 155.083 207.92 155.835C207.92 156.587 208.556 157.223 209.308 157.224C210.061 157.224 210.697 156.587 210.697 155.835C210.698 155.084 210.119 154.447 209.309 154.447Z" fill="#66C789" fill-opacity="0.8"/>
<path d="M218.22 154.449C217.468 154.449 216.831 155.085 216.831 155.837C216.831 156.588 217.467 157.225 218.219 157.225C218.971 157.225 219.608 156.589 219.608 155.837C219.608 155.085 218.972 154.449 218.22 154.449Z" fill="#66C789" fill-opacity="0.8"/>
<path d="M227.072 157.226C227.824 157.226 228.461 156.59 228.461 155.838C228.462 155.086 227.825 154.45 227.073 154.45C226.321 154.45 225.684 155.086 225.684 155.838C225.684 156.59 226.32 157.226 227.072 157.226Z" fill="#66C789" fill-opacity="0.8"/>
<path d="M235.983 157.227C236.75 157.227 237.372 156.606 237.372 155.839C237.372 155.073 236.751 154.451 235.984 154.451C235.217 154.451 234.595 155.072 234.595 155.839C234.595 156.606 235.216 157.227 235.983 157.227Z" fill="#66C789" fill-opacity="0.8"/>
<path d="M244.836 157.229C245.589 157.229 246.225 156.592 246.225 155.841C246.226 155.089 245.589 154.452 244.837 154.452C244.085 154.452 243.448 155.089 243.448 155.84C243.448 156.592 244.084 157.229 244.836 157.229Z" fill="#66C789" fill-opacity="0.8"/>
<path d="M253.689 157.23C254.456 157.23 255.078 156.609 255.078 155.842C255.078 155.075 254.457 154.454 253.69 154.454C252.923 154.454 252.301 155.075 252.301 155.842C252.301 156.608 252.922 157.23 253.689 157.23Z" fill="#66C789" fill-opacity="0.8"/>
<path d="M262.6 157.231C263.367 157.231 263.989 156.61 263.989 155.843C263.989 155.077 263.368 154.455 262.601 154.455C261.834 154.455 261.212 155.076 261.212 155.843C261.212 156.61 261.833 157.231 262.6 157.231Z" fill="#66C789" fill-opacity="0.8"/>
<path d="M173.837 163.407C174.604 163.407 175.226 162.786 175.226 162.019C175.227 161.252 174.605 160.631 173.838 160.631C173.071 160.631 172.449 161.252 172.449 162.019C172.449 162.786 173.07 163.407 173.837 163.407Z" fill="#66C789" fill-opacity="0.8"/>
<path d="M182.69 163.408C183.443 163.408 184.079 162.772 184.079 162.02C184.08 161.268 183.443 160.632 182.691 160.632C181.939 160.632 181.302 161.268 181.302 162.02C181.302 162.83 181.938 163.408 182.69 163.408Z" fill="#66C789" fill-opacity="0.8"/>
<path d="M191.544 163.41C192.296 163.41 192.932 162.773 192.933 162.022C192.933 161.27 192.296 160.633 191.544 160.633C190.792 160.633 190.155 161.27 190.155 162.021C190.155 162.831 190.791 163.41 191.544 163.41Z" fill="#66C789" fill-opacity="0.8"/>
<path d="M200.454 163.411C201.207 163.411 201.843 162.775 201.843 162.023C201.844 161.271 201.207 160.635 200.455 160.635C199.703 160.635 199.066 161.271 199.066 162.023C199.066 162.832 199.644 163.411 200.454 163.411Z" fill="#66C789" fill-opacity="0.8"/>
<path d="M209.308 160.636C208.556 160.636 207.919 161.272 207.919 162.024C207.919 162.776 208.555 163.412 209.307 163.412C210.06 163.412 210.696 162.776 210.697 162.024C210.697 161.272 210.118 160.636 209.308 160.636Z" fill="#66C789" fill-opacity="0.8"/>
<path d="M218.218 163.413C218.971 163.413 219.607 162.777 219.607 162.025C219.608 161.274 218.971 160.637 218.219 160.637C217.467 160.637 216.83 161.273 216.83 162.025C216.83 162.835 217.408 163.413 218.218 163.413Z" fill="#66C789" fill-opacity="0.8"/>
<path d="M228.46 162.027C228.461 161.275 227.824 160.639 227.072 160.639C226.32 160.638 225.683 161.275 225.683 162.027C225.683 162.778 226.319 163.415 227.071 163.415C227.824 163.415 228.46 162.836 228.46 162.027Z" fill="#66C789" fill-opacity="0.8"/>
<path d="M235.983 160.64C235.231 160.64 234.594 161.276 234.594 162.028C234.594 162.78 235.23 163.416 235.982 163.416C236.735 163.416 237.371 162.78 237.371 162.028C237.371 161.276 236.735 160.64 235.983 160.64Z" fill="#66C789" fill-opacity="0.8"/>
<path d="M244.835 163.417C245.588 163.417 246.224 162.781 246.224 162.029C246.225 161.277 245.588 160.641 244.836 160.641C244.084 160.641 243.447 161.277 243.447 162.029C243.447 162.839 244.083 163.417 244.835 163.417Z" fill="#66C789" fill-opacity="0.8"/>
<path d="M253.689 160.642C252.937 160.642 252.3 161.279 252.3 162.03C252.3 162.782 252.936 163.419 253.688 163.419C254.441 163.419 255.077 162.782 255.077 162.031C255.135 161.279 254.499 160.642 253.689 160.642Z" fill="#66C789" fill-opacity="0.8"/>
<path d="M262.599 163.42C263.366 163.42 263.988 162.798 263.988 162.032C263.989 161.265 263.367 160.644 262.6 160.644C261.833 160.644 261.211 161.265 261.211 162.032C261.211 162.798 261.832 163.42 262.599 163.42Z" fill="#66C789" fill-opacity="0.8"/>
<path d="M173.836 169.654C174.589 169.654 175.225 169.017 175.225 168.266C175.226 167.514 174.589 166.877 173.837 166.877C173.085 166.877 172.448 167.514 172.448 168.265C172.39 169.017 173.026 169.654 173.836 169.654Z" fill="#66C789" fill-opacity="0.8"/>
<path d="M182.69 169.655C183.442 169.655 184.078 169.019 184.079 168.267C184.079 167.515 183.442 166.879 182.69 166.879C181.938 166.879 181.301 167.515 181.301 168.267C181.301 169.019 181.937 169.655 182.69 169.655Z" fill="#66C789" fill-opacity="0.8"/>
<path d="M191.543 166.88C190.791 166.88 190.154 167.516 190.154 168.268C190.154 169.02 190.79 169.656 191.543 169.656C192.295 169.656 192.931 169.02 192.932 168.268C192.932 167.458 192.353 166.88 191.543 166.88Z" fill="#66C789" fill-opacity="0.8"/>
<path d="M199.065 168.269C199.065 169.021 199.701 169.657 200.453 169.657C201.206 169.657 201.842 169.021 201.843 168.269C201.843 167.517 201.206 166.881 200.454 166.881C199.644 166.881 199.065 167.46 199.065 168.269Z" fill="#66C789" fill-opacity="0.8"/>
<path d="M209.307 169.659C210.059 169.659 210.695 169.023 210.696 168.271C210.696 167.519 210.059 166.883 209.307 166.883C208.555 166.882 207.918 167.519 207.918 168.271C207.918 169.022 208.554 169.659 209.307 169.659Z" fill="#66C789" fill-opacity="0.8"/>
<path d="M218.217 169.66C218.97 169.66 219.606 169.024 219.606 168.272C219.607 167.52 218.97 166.884 218.218 166.884C217.466 166.884 216.829 167.52 216.829 168.272C216.829 169.024 217.407 169.66 218.217 169.66Z" fill="#66C789" fill-opacity="0.8"/>
<path d="M227.07 169.661C227.823 169.661 228.459 169.025 228.46 168.273C228.46 167.521 227.823 166.885 227.071 166.885C226.319 166.885 225.682 167.521 225.682 168.273C225.682 169.025 226.318 169.661 227.07 169.661Z" fill="#66C789" fill-opacity="0.8"/>
<path d="M235.982 166.886C235.23 166.886 234.593 167.522 234.593 168.274C234.593 169.026 235.229 169.663 235.981 169.663C236.734 169.663 237.37 169.026 237.37 168.274C237.371 167.523 236.734 166.886 235.982 166.886Z" fill="#66C789" fill-opacity="0.8"/>
<path d="M244.835 166.888C244.083 166.888 243.446 167.524 243.446 168.276C243.446 169.028 244.082 169.664 244.834 169.664C245.587 169.664 246.223 169.028 246.224 168.276C246.224 167.466 245.587 166.888 244.835 166.888Z" fill="#66C789" fill-opacity="0.8"/>
<path d="M253.687 169.665C254.44 169.665 255.076 169.029 255.076 168.277C255.077 167.525 254.44 166.889 253.688 166.889C252.936 166.889 252.299 167.525 252.299 168.277C252.299 169.029 252.935 169.665 253.687 169.665Z" fill="#66C789" fill-opacity="0.8"/>
<path d="M262.598 169.666C263.351 169.666 263.987 169.03 263.987 168.278C263.988 167.526 263.351 166.89 262.599 166.89C261.847 166.89 261.21 167.526 261.21 168.278C261.21 169.03 261.846 169.666 262.598 169.666Z" fill="#66C789" fill-opacity="0.8"/>
<g filter="url(#filter0_d)">
<path d="M233.718 17.1329C233.718 11.5367 229.177 7 223.576 7L120.859 7L18.1413 7C12.5404 7 8 11.5367 8 17.1329V130.918C8 136.514 12.5404 141.05 18.1413 141.05H223.576C229.177 141.05 233.718 136.514 233.718 130.918V17.1329Z" fill="white"/>
</g>
<rect x="97" y="100" width="116" height="28" rx="6" fill="#F1F5FE"/>
<path d="M36.1568 100.852H74.8432C76.8628 100.852 78.5 102.489 78.5 104.509V123.492C78.5 125.511 76.8628 127.148 74.8432 127.148H36.1568C34.1372 127.148 32.5 125.511 32.5 123.492V104.509C32.5 102.489 34.1372 100.852 36.1568 100.852Z" fill="white" stroke="#C1D3FA"/>
<path opacity="0.25" d="M70.002 112.388H60.0861" stroke="#6391F3" stroke-width="2.65432" stroke-linecap="round" stroke-linejoin="round"/>
<path opacity="0.25" d="M65.2128 117.17H60.0861" stroke="#6391F3" stroke-width="2.65432" stroke-linecap="round" stroke-linejoin="round"/>
<path opacity="0.35" d="M46.8268 119.485C49.3853 119.485 51.4594 117.41 51.4594 114.852C51.4594 112.293 49.3853 110.219 46.8268 110.219C44.2683 110.219 42.1942 112.293 42.1942 114.852C42.1942 117.41 44.2683 119.485 46.8268 119.485Z" fill="#6391F3"/>
<path opacity="0.25" d="M51.2365 119.484C53.7951 119.484 55.8692 117.41 55.8692 114.851C55.8692 112.293 53.7951 110.219 51.2365 110.219C48.678 110.219 46.6039 112.293 46.6039 114.851C46.6039 117.41 48.678 119.484 51.2365 119.484Z" fill="#6391F3"/>
<path d="M139.523 110.895H140.384V115.599C140.384 116.131 140.258 116.586 140.006 116.963C139.753 117.34 139.418 117.628 138.999 117.827C138.581 118.025 138.122 118.125 137.622 118.125C137.122 118.125 136.663 118.025 136.245 117.827C135.826 117.628 135.491 117.34 135.239 116.963C134.986 116.586 134.86 116.131 134.86 115.599V110.895H135.721V115.599C135.721 115.969 135.809 116.283 135.985 116.539C136.16 116.794 136.393 116.988 136.682 117.122C136.971 117.254 137.284 117.32 137.622 117.32C137.96 117.32 138.273 117.254 138.562 117.122C138.851 116.988 139.084 116.794 139.26 116.539C139.435 116.283 139.523 115.969 139.523 115.599V110.895Z" fill="#242830"/>
<path d="M145.766 113.864L145.03 114.073C144.958 113.888 144.838 113.714 144.669 113.552C144.501 113.39 144.237 113.309 143.878 113.309C143.552 113.309 143.28 113.385 143.063 113.535C142.848 113.683 142.74 113.871 142.74 114.1C142.74 114.304 142.814 114.465 142.962 114.583C143.11 114.701 143.342 114.799 143.656 114.878L144.447 115.072C145.391 115.303 145.863 115.784 145.863 116.515C145.863 116.82 145.775 117.093 145.599 117.334C145.426 117.574 145.183 117.764 144.871 117.903C144.558 118.042 144.195 118.111 143.781 118.111C143.238 118.111 142.788 117.993 142.432 117.757C142.075 117.521 141.85 117.177 141.755 116.723L142.532 116.529C142.678 117.103 143.09 117.389 143.767 117.389C144.149 117.389 144.452 117.308 144.676 117.147C144.903 116.982 145.016 116.786 145.016 116.557C145.016 116.18 144.753 115.93 144.225 115.807L143.337 115.599C142.849 115.484 142.491 115.304 142.262 115.061C142.035 114.816 141.922 114.51 141.922 114.142C141.922 113.841 142.006 113.575 142.175 113.344C142.346 113.113 142.578 112.931 142.872 112.799C143.168 112.668 143.504 112.602 143.878 112.602C144.406 112.602 144.82 112.717 145.12 112.949C145.423 113.18 145.638 113.485 145.766 113.864Z" fill="#242830"/>
<path d="M149.33 118.111C148.816 118.111 148.373 117.998 148.001 117.771C147.631 117.542 147.345 117.223 147.144 116.813C146.945 116.402 146.846 115.923 146.846 115.377C146.846 114.831 146.945 114.35 147.144 113.934C147.345 113.515 147.625 113.189 147.984 112.955C148.344 112.72 148.765 112.602 149.246 112.602C149.524 112.602 149.798 112.648 150.069 112.74C150.339 112.833 150.586 112.983 150.808 113.191C151.03 113.397 151.207 113.67 151.338 114.01C151.47 114.35 151.536 114.769 151.536 115.266V115.613H147.668C147.686 116.182 147.847 116.618 148.15 116.921C148.455 117.224 148.849 117.376 149.33 117.376C149.651 117.376 149.928 117.306 150.159 117.167C150.39 117.029 150.558 116.82 150.662 116.543L151.453 116.765C151.328 117.167 151.078 117.492 150.704 117.74C150.329 117.987 149.871 118.111 149.33 118.111ZM147.668 114.905H150.704C150.704 114.454 150.572 114.081 150.308 113.785C150.044 113.486 149.69 113.337 149.246 113.337C148.934 113.337 148.664 113.41 148.435 113.556C148.206 113.701 148.025 113.895 147.893 114.135C147.761 114.373 147.686 114.63 147.668 114.905Z" fill="#242830"/>
<path d="M155.53 118V112.671H156.321V113.504H156.39C156.501 113.219 156.68 112.998 156.928 112.841C157.175 112.681 157.472 112.602 157.819 112.602C158.171 112.602 158.464 112.681 158.697 112.841C158.933 112.998 159.117 113.219 159.249 113.504H159.304C159.441 113.228 159.645 113.01 159.918 112.848C160.191 112.684 160.519 112.602 160.9 112.602C161.377 112.602 161.766 112.751 162.069 113.049C162.372 113.345 162.524 113.807 162.524 114.433V118H161.705V114.433C161.705 114.04 161.598 113.759 161.382 113.59C161.167 113.422 160.914 113.337 160.623 113.337C160.248 113.337 159.958 113.45 159.752 113.677C159.546 113.901 159.443 114.186 159.443 114.531V118H158.61V114.35C158.61 114.047 158.512 113.803 158.315 113.618C158.119 113.431 157.866 113.337 157.556 113.337C157.343 113.337 157.144 113.394 156.959 113.507C156.776 113.62 156.628 113.778 156.515 113.979C156.404 114.178 156.348 114.408 156.348 114.669V118H155.53Z" fill="#242830"/>
<path d="M164.33 120.068C164.191 120.068 164.067 120.056 163.959 120.033C163.85 120.012 163.775 119.991 163.733 119.971L163.941 119.249C164.24 119.325 164.488 119.323 164.687 119.242C164.888 119.163 165.061 118.925 165.204 118.527L165.384 118.028L163.414 112.671H164.302L165.773 116.918H165.829L167.3 112.671H168.188L165.898 118.86C165.597 119.665 165.075 120.068 164.33 120.068Z" fill="#242830"/>
<path d="M174.181 118.111C173.682 118.111 173.251 117.993 172.891 117.757C172.53 117.521 172.252 117.196 172.058 116.782C171.864 116.368 171.766 115.895 171.766 115.363C171.766 114.822 171.866 114.344 172.065 113.93C172.266 113.514 172.546 113.189 172.904 112.955C173.265 112.72 173.686 112.602 174.167 112.602C174.542 112.602 174.88 112.671 175.18 112.81C175.481 112.949 175.727 113.143 175.919 113.393C176.111 113.642 176.23 113.934 176.277 114.267H175.458C175.395 114.024 175.257 113.809 175.042 113.622C174.829 113.432 174.542 113.337 174.181 113.337C173.702 113.337 173.316 113.52 173.022 113.885C172.731 114.248 172.585 114.732 172.585 115.336C172.585 115.953 172.73 116.448 173.019 116.82C173.308 117.191 173.695 117.376 174.181 117.376C174.5 117.376 174.773 117.293 175 117.129C175.229 116.965 175.382 116.737 175.458 116.446H176.277C176.23 116.76 176.116 117.044 175.933 117.296C175.753 117.546 175.513 117.744 175.215 117.892C174.919 118.038 174.574 118.111 174.181 118.111Z" fill="#242830"/>
<path d="M177.474 118V112.671H178.265V113.476H178.32C178.415 113.212 178.59 112.998 178.844 112.834C179.099 112.67 179.386 112.588 179.708 112.588C179.856 112.588 179.986 112.605 180.097 112.64C180.208 112.674 180.305 112.722 180.388 112.782L180.11 113.476C180.053 113.446 179.984 113.423 179.906 113.407C179.829 113.388 179.74 113.379 179.639 113.379C179.25 113.379 178.929 113.498 178.674 113.736C178.42 113.972 178.292 114.269 178.292 114.628V118H177.474Z" fill="#242830"/>
<path d="M183.295 118.111C182.782 118.111 182.339 117.998 181.967 117.771C181.597 117.542 181.311 117.223 181.11 116.813C180.911 116.402 180.811 115.923 180.811 115.377C180.811 114.831 180.911 114.35 181.11 113.934C181.311 113.515 181.591 113.189 181.949 112.955C182.31 112.72 182.731 112.602 183.212 112.602C183.49 112.602 183.764 112.648 184.034 112.74C184.305 112.833 184.551 112.983 184.773 113.191C184.995 113.397 185.172 113.67 185.304 114.01C185.436 114.35 185.502 114.769 185.502 115.266V115.613H181.634C181.652 116.182 181.813 116.618 182.116 116.921C182.421 117.224 182.814 117.376 183.295 117.376C183.617 117.376 183.893 117.306 184.125 117.167C184.356 117.029 184.524 116.82 184.628 116.543L185.419 116.765C185.294 117.167 185.044 117.492 184.669 117.74C184.295 117.987 183.837 118.111 183.295 118.111ZM181.634 114.905H184.669C184.669 114.454 184.537 114.081 184.274 113.785C184.01 113.486 183.656 113.337 183.212 113.337C182.9 113.337 182.629 113.41 182.4 113.556C182.171 113.701 181.991 113.895 181.859 114.135C181.727 114.373 181.652 114.63 181.634 114.905Z" fill="#242830"/>
<path d="M188.76 118.111C188.316 118.111 187.924 117.999 187.584 117.775C187.244 117.548 186.978 117.229 186.786 116.817C186.594 116.403 186.498 115.914 186.498 115.349C186.498 114.79 186.594 114.304 186.786 113.892C186.978 113.481 187.245 113.163 187.587 112.938C187.929 112.714 188.325 112.602 188.774 112.602C189.121 112.602 189.395 112.659 189.596 112.775C189.799 112.888 189.954 113.018 190.061 113.164C190.169 113.307 190.254 113.425 190.314 113.518H190.383V110.895H191.202V118H190.411V117.181H190.314C190.254 117.278 190.168 117.401 190.057 117.549C189.946 117.695 189.788 117.825 189.582 117.941C189.376 118.054 189.102 118.111 188.76 118.111ZM188.871 117.376C189.363 117.376 189.74 117.187 190.002 116.81C190.265 116.431 190.397 115.939 190.397 115.336C190.397 114.739 190.268 114.257 190.009 113.889C189.75 113.521 189.37 113.337 188.871 113.337C188.524 113.337 188.235 113.426 188.003 113.604C187.774 113.78 187.602 114.019 187.486 114.322C187.373 114.623 187.316 114.961 187.316 115.336C187.316 115.715 187.374 116.059 187.49 116.369C187.608 116.677 187.781 116.922 188.01 117.105C188.242 117.285 188.528 117.376 188.871 117.376Z" fill="#242830"/>
<path d="M192.815 118V112.671H193.634V118H192.815ZM193.232 111.783C193.072 111.783 192.935 111.728 192.819 111.62C192.706 111.511 192.649 111.38 192.649 111.228C192.649 111.075 192.706 110.944 192.819 110.836C192.935 110.727 193.072 110.673 193.232 110.673C193.391 110.673 193.528 110.727 193.641 110.836C193.757 110.944 193.815 111.075 193.815 111.228C193.815 111.38 193.757 111.511 193.641 111.62C193.528 111.728 193.391 111.783 193.232 111.783Z" fill="#242830"/>
<path d="M197.452 112.671V113.365H196.314V116.473C196.314 116.705 196.347 116.878 196.414 116.994C196.484 117.107 196.571 117.184 196.678 117.223C196.787 117.26 196.901 117.278 197.021 117.278C197.112 117.278 197.186 117.274 197.243 117.265C197.301 117.253 197.347 117.244 197.382 117.237L197.549 117.972C197.493 117.993 197.416 118.014 197.316 118.035C197.217 118.058 197.091 118.069 196.938 118.069C196.707 118.069 196.48 118.02 196.258 117.92C196.038 117.821 195.856 117.669 195.71 117.466C195.566 117.262 195.495 117.005 195.495 116.696V113.365H194.69V112.671H195.495V111.394H196.314V112.671H197.452Z" fill="#242830"/>
<path d="M118.799 113.066L120.699 114.966L127.031 108.633M126.398 113.699V118.132C126.398 118.468 126.265 118.79 126.027 119.027C125.79 119.265 125.468 119.398 125.132 119.398H116.266C115.931 119.398 115.608 119.265 115.371 119.027C115.133 118.79 115 118.468 115 118.132V109.266C115 108.931 115.133 108.608 115.371 108.371C115.608 108.133 115.931 108 116.266 108H123.232" stroke="#3C76F0" stroke-width="1.62832" stroke-linecap="round" stroke-linejoin="round"/>
<path opacity="0.04" d="M8 15.6009C8 10.8507 11.8507 7 16.6009 7H225.177C229.927 7 233.778 10.8507 233.778 15.6009V47H8V15.6009Z" fill="#242830"/>
<path d="M40.6721 42.4504H58.3278C62.8686 42.4504 66.5496 46.1314 66.5496 50.6721V68.3278C66.5496 72.8686 62.8686 76.5496 58.3278 76.5496H40.6721C36.1314 76.5496 32.4504 72.8686 32.4504 68.3278V50.6721C32.4504 46.1314 36.1314 42.4504 40.6721 42.4504Z" fill="#F1F5FE" stroke="#C1D3FA" stroke-width="0.900776"/>
<path d="M107 56L77 56.044" stroke="#D8E4FC" stroke-width="3.90949" stroke-linecap="round" stroke-linejoin="round"/>
<path d="M92 65H77" stroke="#D8E4FC" stroke-width="3.90949" stroke-linecap="round" stroke-linejoin="round"/>
<g opacity="0.5">
<path d="M99.3283 28.2735H97.7729C97.7137 27.8734 97.5433 27.5597 97.2615 27.3325C96.9798 27.1028 96.6283 26.988 96.2069 26.988C95.6434 26.988 95.1912 27.1952 94.8503 27.6095C94.5118 28.0214 94.3425 28.6061 94.3425 29.3637C94.3425 30.1402 94.513 30.7309 94.8539 31.1357C95.1972 31.5382 95.6446 31.7394 96.1962 31.7394C96.6058 31.7394 96.9526 31.6329 97.2367 31.4198C97.5208 31.2044 97.6995 30.9026 97.7729 30.5143L99.3283 30.5214C99.2739 30.9665 99.1152 31.3855 98.8525 31.7785C98.5897 32.1715 98.2322 32.4899 97.78 32.7338C97.3302 32.9776 96.794 33.0995 96.1713 33.0995C95.5227 33.0995 94.9427 32.9527 94.4313 32.6592C93.9223 32.3656 93.5198 31.9407 93.2239 31.3843C92.9303 30.828 92.7836 30.1544 92.7836 29.3637C92.7836 28.5706 92.9327 27.8959 93.231 27.3396C93.5293 26.7832 93.9341 26.3595 94.4455 26.0683C94.9569 25.7747 95.5321 25.6279 96.1713 25.6279C96.7324 25.6279 97.2379 25.7321 97.6877 25.9404C98.1399 26.1464 98.5092 26.4471 98.7956 26.8424C99.0845 27.2354 99.262 27.7124 99.3283 28.2735Z" fill="#242830"/>
<path d="M101.915 29.8467V33.0001H100.403V25.7274H101.873V28.5079H101.937C102.062 28.1859 102.261 27.9338 102.533 27.7515C102.808 27.5669 103.152 27.4745 103.567 27.4745C104.135 27.4745 104.592 27.6568 104.937 28.0214C105.283 28.386 105.455 28.8879 105.452 29.5271V33.0001H103.939V29.797C103.942 29.4608 103.857 29.1992 103.684 29.0122C103.513 28.8251 103.274 28.7316 102.966 28.7316C102.659 28.7316 102.407 28.8299 102.21 29.0264C102.016 29.2205 101.918 29.4939 101.915 29.8467Z" fill="#242830"/>
<path d="M109.129 33.1066C108.57 33.1066 108.088 32.993 107.683 32.7657C107.278 32.5361 106.967 32.2117 106.749 31.7927C106.531 31.3713 106.423 30.873 106.423 30.2977C106.423 29.7366 106.531 29.2442 106.749 28.8204C106.967 28.3966 107.274 28.0664 107.669 27.8296C108.067 27.5929 108.533 27.4745 109.068 27.4745C109.549 27.4745 109.982 27.5763 110.368 27.7799C110.756 27.9835 111.064 28.2913 111.291 28.7032C111.518 29.1128 111.632 29.6265 111.632 30.2444V30.6599H107.918V30.6634C107.918 31.0706 108.029 31.3914 108.251 31.6258C108.474 31.8602 108.775 31.9774 109.153 31.9774C109.407 31.9774 109.626 31.9241 109.81 31.8176C109.995 31.711 110.125 31.5536 110.201 31.3453L111.6 31.4376C111.494 31.9442 111.224 32.349 110.79 32.6521C110.357 32.9551 109.803 33.1066 109.129 33.1066ZM107.918 29.7224H110.208C110.206 29.3981 110.102 29.1305 109.896 28.9198C109.69 28.7091 109.422 28.6038 109.093 28.6038C108.757 28.6038 108.481 28.7127 108.266 28.9305C108.05 29.1483 107.934 29.4123 107.918 29.7224Z" fill="#242830"/>
<path d="M115.084 33.1066C114.525 33.1066 114.045 32.9883 113.642 32.7515C113.242 32.5124 112.934 32.181 112.719 31.7572C112.506 31.3334 112.399 30.8457 112.399 30.2941C112.399 29.7354 112.507 29.2454 112.722 28.824C112.94 28.4002 113.249 28.0699 113.649 27.8332C114.049 27.5941 114.525 27.4745 115.077 27.4745C115.553 27.4745 115.969 27.5609 116.327 27.7338C116.687 27.9066 116.969 28.1492 117.175 28.4617C117.384 28.7742 117.499 29.1412 117.52 29.5626H116.092C116.052 29.2903 115.946 29.0713 115.773 28.9056C115.602 28.7375 115.379 28.6535 115.102 28.6535C114.751 28.6535 114.469 28.7944 114.256 29.0761C114.043 29.3578 113.937 29.7567 113.937 30.2728C113.937 30.7936 114.042 31.1973 114.253 31.4838C114.466 31.7678 114.749 31.9099 115.102 31.9099C115.362 31.9099 115.581 31.8318 115.759 31.6755C115.936 31.5169 116.047 31.292 116.092 31.0008H117.52C117.496 31.4175 117.383 31.7844 117.179 32.1017C116.978 32.4189 116.7 32.6663 116.344 32.8438C115.989 33.019 115.569 33.1066 115.084 33.1066Z" fill="#242830"/>
<path d="M118.488 33.0001V25.7274H120.001V29.6159H120.083L121.83 27.5455H123.567L121.542 29.907L123.67 33.0001H121.898L120.41 30.8019L120.001 31.2671V33.0001H118.488Z" fill="#242830"/>
<path d="M126.549 33.1066C125.997 33.1066 125.52 32.9894 125.118 32.7551C124.717 32.5183 124.409 32.1892 124.191 31.7678C123.973 31.3441 123.864 30.8528 123.864 30.2941C123.864 29.7307 123.973 29.2383 124.191 28.8169C124.409 28.3931 124.717 28.064 125.118 27.8296C125.52 27.5929 125.997 27.4745 126.549 27.4745C127.1 27.4745 127.576 27.5929 127.976 27.8296C128.379 28.064 128.689 28.3931 128.907 28.8169C129.124 29.2383 129.233 29.7307 129.233 30.2941C129.233 30.8528 129.124 31.3441 128.907 31.7678C128.689 32.1892 128.379 32.5183 127.976 32.7551C127.576 32.9894 127.1 33.1066 126.549 33.1066ZM126.556 31.9347C126.93 31.9347 127.213 31.7785 127.404 31.466C127.599 31.1535 127.696 30.7593 127.696 30.2835C127.696 29.8076 127.599 29.4134 127.404 29.1009C127.213 28.7861 126.93 28.6286 126.556 28.6286C126.175 28.6286 125.887 28.7861 125.693 29.1009C125.499 29.4134 125.402 29.8076 125.402 30.2835C125.402 30.7593 125.499 31.1535 125.693 31.466C125.887 31.7785 126.175 31.9347 126.556 31.9347Z" fill="#242830"/>
<path d="M133.715 30.6776V27.5455H135.228V33.0001H133.775V32.0093H133.718C133.595 32.3289 133.391 32.5858 133.104 32.7799C132.82 32.974 132.473 33.0711 132.064 33.0711C131.514 33.0711 131.069 32.8888 130.728 32.5242C130.39 32.1573 130.219 31.6554 130.217 31.0186V27.5455H131.73V30.7487C131.732 31.0706 131.819 31.3251 131.989 31.5122C132.159 31.6992 132.388 31.7927 132.674 31.7927C132.947 31.7927 133.188 31.698 133.399 31.5086C133.612 31.3192 133.717 31.0422 133.715 30.6776Z" fill="#242830"/>
<path d="M139.339 27.5455V28.6819H138.313V31.324C138.313 31.5323 138.36 31.6731 138.455 31.7465C138.549 31.8199 138.673 31.8566 138.824 31.8566C138.895 31.8566 138.966 31.8507 139.037 31.8389C139.108 31.8247 139.163 31.814 139.2 31.8069L139.438 32.9326C139.363 32.9563 139.256 32.9835 139.119 33.0143C138.981 33.0474 138.815 33.0676 138.618 33.0747C138.069 33.0983 137.627 32.98 137.294 32.7195C136.962 32.4568 136.798 32.0579 136.8 31.5228V28.6819H136.054V27.5455H136.8V26.2387H138.313V27.5455H139.339Z" fill="#242830"/>
</g>
<path d="M185.298 60.7273L185.304 60.0682C184.702 60.0171 184.223 59.8324 183.869 59.5142C183.517 59.1942 183.333 58.7472 183.318 58.1733H184.509C184.526 58.4101 184.606 58.5995 184.75 58.7415C184.896 58.8836 185.084 58.9764 185.315 59.0199L185.33 57.5171L185.057 57.4489C184.566 57.3315 184.179 57.1449 183.895 56.8892C183.611 56.6336 183.47 56.2917 183.472 55.8637C183.47 55.5417 183.549 55.2557 183.71 55.0057C183.871 54.7557 184.094 54.554 184.378 54.4006C184.662 54.2472 184.99 54.1525 185.361 54.1165L185.366 53.4546H186.037L186.031 54.1222C186.579 54.1809 187.015 54.3675 187.341 54.6819C187.667 54.9944 187.833 55.3855 187.841 55.8552H186.662C186.626 55.4896 186.412 55.2605 186.02 55.1677L186.009 56.5881L186.176 56.6279C186.513 56.7036 186.812 56.8135 187.074 56.9574C187.337 57.1014 187.544 57.287 187.693 57.5142C187.845 57.7396 187.92 58.0142 187.92 58.3381C187.919 58.8305 187.747 59.2311 187.406 59.5398C187.067 59.8466 186.59 60.0237 185.974 60.0711L185.969 60.7273H185.298ZM185.986 59.0199C186.2 58.9764 186.368 58.8949 186.491 58.7756C186.615 58.6544 186.677 58.5076 186.679 58.3353C186.677 58.1743 186.617 58.0446 186.5 57.9461C186.384 57.8457 186.217 57.7614 185.997 57.6932L185.986 59.0199ZM185.338 56.4148L185.349 55.1591C185.151 55.2008 184.998 55.2775 184.892 55.3892C184.786 55.4991 184.733 55.6298 184.733 55.7813C184.729 55.9442 184.785 56.0758 184.901 56.1762C185.016 56.2747 185.162 56.3542 185.338 56.4148Z" fill="#242830"/>
<path d="M191.123 54.1819V60H189.896V55.6875H189.842C189.779 55.7841 189.647 55.8807 189.444 55.9773C189.241 56.072 188.979 56.1194 188.657 56.1194V55.1421C188.907 55.1421 189.126 55.0872 189.313 54.9773C189.501 54.8656 189.647 54.7349 189.754 54.5853C189.86 54.4338 189.915 54.2993 189.918 54.1819H191.123Z" fill="#242830"/>
<path d="M194.608 54.0853C194.907 54.0853 195.195 54.1355 195.472 54.2358C195.75 54.3343 195.998 54.4944 196.216 54.716C196.436 54.9375 196.61 55.2311 196.739 55.5966C196.867 55.9603 196.932 56.4082 196.932 56.9404C196.932 57.5976 196.834 58.161 196.639 58.6307C196.444 59.0985 196.17 59.4574 195.815 59.7074C195.463 59.9555 195.046 60.0796 194.565 60.0796C194.177 60.0796 193.834 60.0048 193.537 59.8552C193.24 59.7036 193 59.4982 192.818 59.2387C192.638 58.9773 192.529 58.6838 192.491 58.358H193.705C193.752 58.5701 193.851 58.7349 194.003 58.8523C194.154 58.9678 194.342 59.0256 194.565 59.0256C194.944 59.0256 195.232 58.8608 195.429 58.5313C195.626 58.1999 195.725 57.7463 195.727 57.1705H195.687C195.559 57.4262 195.362 57.6269 195.097 57.7728C194.833 57.9186 194.542 57.9915 194.222 57.9915C193.879 57.9915 193.572 57.911 193.301 57.75C193.03 57.5872 192.817 57.3646 192.662 57.0824C192.509 56.8002 192.433 56.4773 192.435 56.1137C192.433 55.7197 192.523 55.3703 192.705 55.0654C192.886 54.7586 193.14 54.518 193.466 54.3438C193.794 54.1696 194.174 54.0834 194.608 54.0853ZM194.616 55.0512C194.33 55.0512 194.094 55.1497 193.906 55.3466C193.719 55.5436 193.626 55.7879 193.628 56.0796C193.626 56.3675 193.717 56.6099 193.901 56.8069C194.086 57.0019 194.321 57.0995 194.605 57.0995C194.793 57.0995 194.961 57.0531 195.111 56.9603C195.262 56.8675 195.382 56.7434 195.469 56.5881C195.558 56.4328 195.603 56.2614 195.605 56.0739C195.603 55.8864 195.559 55.716 195.472 55.5625C195.386 55.4072 195.27 55.2832 195.122 55.1904C194.974 55.0976 194.806 55.0512 194.616 55.0512Z" fill="#242830"/>
<path d="M198.503 60.0739C198.315 60.0739 198.154 60.0076 198.02 59.875C197.885 59.7425 197.819 59.5815 197.821 59.3921C197.819 59.2065 197.885 59.0474 198.02 58.9148C198.154 58.7822 198.315 58.716 198.503 58.716C198.685 58.716 198.843 58.7822 198.977 58.9148C199.114 59.0474 199.183 59.2065 199.185 59.3921C199.183 59.5815 199.114 59.7425 198.977 59.875C198.843 60.0076 198.685 60.0739 198.503 60.0739Z" fill="#242830"/>
<path d="M202.272 54.0853C202.571 54.0853 202.859 54.1355 203.136 54.2358C203.414 54.3343 203.662 54.4944 203.88 54.716C204.1 54.9375 204.274 55.2311 204.403 55.5966C204.531 55.9603 204.596 56.4082 204.596 56.9404C204.596 57.5976 204.498 58.161 204.303 58.6307C204.108 59.0985 203.834 59.4574 203.479 59.7074C203.127 59.9555 202.71 60.0796 202.229 60.0796C201.841 60.0796 201.498 60.0048 201.201 59.8552C200.904 59.7036 200.664 59.4982 200.482 59.2387C200.302 58.9773 200.193 58.6838 200.156 58.358H201.369C201.416 58.5701 201.515 58.7349 201.667 58.8523C201.818 58.9678 202.006 59.0256 202.229 59.0256C202.608 59.0256 202.896 58.8608 203.093 58.5313C203.29 58.1999 203.389 57.7463 203.391 57.1705H203.352C203.223 57.4262 203.026 57.6269 202.761 57.7728C202.497 57.9186 202.206 57.9915 201.886 57.9915C201.543 57.9915 201.236 57.911 200.965 57.75C200.694 57.5872 200.481 57.3646 200.326 57.0824C200.173 56.8002 200.097 56.4773 200.099 56.1137C200.097 55.7197 200.187 55.3703 200.369 55.0654C200.55 54.7586 200.804 54.518 201.13 54.3438C201.458 54.1696 201.838 54.0834 202.272 54.0853ZM202.281 55.0512C201.995 55.0512 201.758 55.1497 201.57 55.3466C201.383 55.5436 201.29 55.7879 201.292 56.0796C201.29 56.3675 201.381 56.6099 201.565 56.8069C201.75 57.0019 201.985 57.0995 202.269 57.0995C202.457 57.0995 202.625 57.0531 202.775 56.9603C202.926 56.8675 203.046 56.7434 203.133 56.5881C203.222 56.4328 203.267 56.2614 203.269 56.0739C203.267 55.8864 203.223 55.716 203.136 55.5625C203.05 55.4072 202.934 55.2832 202.786 55.1904C202.638 55.0976 202.47 55.0512 202.281 55.0512Z" fill="#242830"/>
<path d="M207.729 60.1279C207.241 60.126 206.82 60.0057 206.468 59.7671C206.118 59.5285 205.848 59.1828 205.658 58.7302C205.471 58.2775 205.378 57.733 205.38 57.0966C205.382 56.144 205.591 55.4072 206.008 54.8864C206.426 54.3637 207 54.1023 207.729 54.1023C208.216 54.1023 208.635 54.2197 208.985 54.4546C209.337 54.6894 209.608 55.0303 209.798 55.4773C209.987 55.9224 210.081 56.4622 210.079 57.0966C210.077 58.055 209.868 58.8002 209.451 59.3324C209.034 59.8627 208.46 60.1279 207.729 60.1279ZM207.729 59.108C208.063 59.108 208.329 58.9404 208.528 58.6052C208.727 58.2699 208.825 57.7671 208.823 57.0966C208.823 56.4357 208.724 55.9394 208.525 55.608C208.326 55.2766 208.061 55.1108 207.729 55.1108C207.398 55.1108 207.133 55.2766 206.934 55.608C206.735 55.9394 206.635 56.4357 206.633 57.0966C206.631 57.7671 206.729 58.2699 206.928 58.6052C207.129 58.9404 207.396 59.108 207.729 59.108Z" fill="#242830"/>
<path d="M151.213 152.246C153.539 150.395 156.915 150.773 158.753 153.089C160.59 155.405 160.194 158.783 157.868 160.634C155.541 162.484 152.166 162.107 150.328 159.79C148.49 157.474 148.886 154.096 151.213 152.246Z" fill="url(#paint0_linear)"/>
<path d="M109.578 79.8998C111.287 79.8954 112.924 79.2128 114.131 78.0019C115.337 76.791 116.013 75.1508 116.011 73.4416C116.009 71.7323 115.328 70.0938 114.119 68.886C112.91 67.6782 111.27 66.9998 109.561 66.9998C107.852 66.9998 106.212 67.6782 105.003 68.886C103.794 70.0938 103.113 71.7323 103.111 73.4416C103.109 75.1508 103.785 76.791 104.991 78.0019C106.198 79.2128 107.835 79.8954 109.545 79.8998H109.578Z" fill="url(#paint1_linear)"/>
<path d="M253.804 43.4442C256.513 43.4373 259.108 42.3555 261.02 40.4363C262.932 38.5172 264.003 35.9178 264 33.2089C263.996 30.5001 262.918 27.9034 261.001 25.9892C259.085 24.0749 256.487 22.9998 253.778 22.9998C251.069 22.9998 248.471 24.0749 246.554 25.9892C244.638 27.9034 243.559 30.5001 243.556 33.2089C243.552 35.9178 244.624 38.5172 246.536 40.4363C248.447 42.3555 251.043 43.4373 253.752 43.4442H253.804Z" fill="url(#paint2_linear)"/>
<line x1="33" y1="88.5" x2="210" y2="88.5" stroke="#242830" stroke-opacity="0.1"/>
</g>
<defs>
<filter id="filter0_d" x="-0.554978" y="-1.55498" width="242.827" height="151.16" filterUnits="userSpaceOnUse" color-interpolation-filters="sRGB">
<feFlood flood-opacity="0" result="BackgroundImageFix"/>
<feColorMatrix in="SourceAlpha" type="matrix" values="0 0 0 0 0 0 0 0 0 0 0 0 0 0 0 0 0 0 127 0"/>
<feOffset/>
<feGaussianBlur stdDeviation="4.27749"/>
<feColorMatrix type="matrix" values="0 0 0 0 0 0 0 0 0 0 0 0 0 0 0 0 0 0 0.12 0"/>
<feBlend mode="normal" in2="BackgroundImageFix" result="effect1_dropShadow"/>
<feBlend mode="normal" in="SourceGraphic" in2="effect1_dropShadow" result="shape"/>
</filter>
<linearGradient id="paint0_linear" x1="148.922" y1="154.068" x2="159.868" y2="159.068" gradientUnits="userSpaceOnUse">
<stop stop-color="#3C76F0" stop-opacity="0"/>
<stop offset="1" stop-color="#3C76F0"/>
</linearGradient>
<linearGradient id="paint1_linear" x1="118.698" y1="76.5985" x2="103.861" y2="72.4442" gradientUnits="userSpaceOnUse">
<stop stop-color="#66C789"/>
<stop offset="1" stop-color="#66C789" stop-opacity="0"/>
</linearGradient>
<linearGradient id="paint2_linear" x1="268.259" y1="38.2122" x2="244.744" y2="31.6282" gradientUnits="userSpaceOnUse">
<stop stop-color="#66C789"/>
<stop offset="1" stop-color="#66C789" stop-opacity="0"/>
</linearGradient>
<clipPath id="clip0">
<rect width="273" height="170" fill="white"/>
</clipPath>
</defs>
</svg>
