<svg width="263" height="180" viewBox="0 0 263 180" fill="none" xmlns="http://www.w3.org/2000/svg">
<g clip-path="url(#clip0)">
<path d="M172.85 89.8887C172.097 89.8886 171.461 90.5248 171.461 91.2767C171.461 92.0286 172.097 92.6649 172.849 92.6649C173.601 92.665 174.238 92.0288 174.238 91.2769C174.238 90.525 173.602 89.8887 172.85 89.8887Z" fill="#FFD879" fill-opacity="0.8"/>
<path d="M181.702 92.6662C182.454 92.6662 183.091 92.03 183.091 91.2781C183.091 90.5262 182.455 89.89 181.703 89.8899C180.951 89.8899 180.314 90.5261 180.314 91.278C180.314 92.0299 180.95 92.6661 181.702 92.6662Z" fill="#FFD879" fill-opacity="0.8"/>
<path d="M190.555 92.6675C191.307 92.6675 191.944 92.0313 191.944 91.2794C191.944 90.5275 191.308 89.8913 190.556 89.8912C189.804 89.8912 189.167 90.5274 189.167 91.2793C189.167 92.0312 189.803 92.6674 190.555 92.6675Z" fill="#FFD879" fill-opacity="0.8"/>
<path d="M199.466 92.6688C200.218 92.6688 200.855 92.0326 200.855 91.2807C200.855 90.5288 200.219 89.8926 199.467 89.8925C198.714 89.8925 198.078 90.5287 198.078 91.2806C198.078 92.0325 198.656 92.6687 199.466 92.6688Z" fill="#FFD879" fill-opacity="0.8"/>
<path d="M208.319 92.67C209.071 92.6701 209.708 92.0339 209.708 91.282C209.708 90.5301 209.072 89.8938 208.32 89.8938C207.568 89.8938 206.931 90.5299 206.931 91.2818C206.931 92.0337 207.567 92.67 208.319 92.67Z" fill="#FFD879" fill-opacity="0.8"/>
<path d="M217.231 89.895C216.478 89.895 215.842 90.5312 215.842 91.2831C215.841 92.035 216.478 92.6712 217.23 92.6713C217.982 92.6713 218.619 92.0351 218.619 91.2832C218.619 90.5313 217.983 89.8951 217.231 89.895Z" fill="#FFD879" fill-opacity="0.8"/>
<path d="M226.083 92.6726C226.835 92.6726 227.472 92.0364 227.472 91.2845C227.472 90.5326 226.836 89.8964 226.084 89.8964C225.331 89.8963 224.695 90.5325 224.695 91.2844C224.694 92.0363 225.331 92.6726 226.083 92.6726Z" fill="#FFD879" fill-opacity="0.8"/>
<path d="M236.383 91.2858C236.383 90.5339 235.747 89.8977 234.995 89.8977C234.242 89.8976 233.606 90.5338 233.606 91.2857C233.605 92.0376 234.242 92.6739 234.994 92.6739C235.746 92.6739 236.383 92.0377 236.383 91.2858Z" fill="#FFD879" fill-opacity="0.8"/>
<path d="M243.847 92.6752C244.599 92.6752 245.236 92.039 245.236 91.2871C245.236 90.5352 244.6 89.899 243.848 89.8989C243.095 89.8989 242.459 90.5351 242.459 91.287C242.458 92.0389 243.095 92.6751 243.847 92.6752Z" fill="#FFD879" fill-opacity="0.8"/>
<path d="M254.147 91.2884C254.147 90.5365 253.511 89.9002 252.759 89.9002C252.006 89.9002 251.37 90.5364 251.37 91.2883C251.369 92.0402 252.006 92.6764 252.758 92.6764C253.51 92.6765 254.147 92.0403 254.147 91.2884Z" fill="#FFD879" fill-opacity="0.8"/>
<path d="M261.611 92.6777C262.363 92.6778 263 92.0416 263 91.2897C263 90.5378 262.364 89.9015 261.612 89.9015C260.859 89.9014 260.223 90.5376 260.223 91.2895C260.222 92.0414 260.859 92.6777 261.611 92.6777Z" fill="#FFD879" fill-opacity="0.8"/>
<path d="M172.849 96.0774C172.097 96.0773 171.46 96.7135 171.46 97.4654C171.46 98.2173 172.096 98.8536 172.848 98.8536C173.6 98.8536 174.237 98.2175 174.237 97.4656C174.237 96.7137 173.601 96.0774 172.849 96.0774Z" fill="#FFD879" fill-opacity="0.8"/>
<path d="M181.701 98.9127C182.453 98.9127 183.09 98.2766 183.09 97.5247C183.09 96.7728 182.454 96.1365 181.702 96.1365C180.95 96.1364 180.313 96.7726 180.313 97.5245C180.313 98.2764 180.949 98.9127 181.701 98.9127Z" fill="#FFD879" fill-opacity="0.8"/>
<path d="M190.554 98.914C191.307 98.914 191.943 98.2778 191.943 97.5259C191.943 96.774 191.307 96.1378 190.555 96.1377C189.803 96.1377 189.166 96.7739 189.166 97.5258C189.166 98.2777 189.802 98.9139 190.554 98.914Z" fill="#FFD879" fill-opacity="0.8"/>
<path d="M199.465 98.9153C200.217 98.9153 200.854 98.2791 200.854 97.5272C200.854 96.7753 200.218 96.1391 199.466 96.139C198.714 96.139 198.077 96.7752 198.077 97.5271C198.077 98.279 198.655 98.9152 199.465 98.9153Z" fill="#FFD879" fill-opacity="0.8"/>
<path d="M208.318 98.9165C209.07 98.9166 209.707 98.2804 209.707 97.5285C209.707 96.7766 209.071 96.1403 208.319 96.1403C207.567 96.1403 206.93 96.7765 206.93 97.5284C206.93 98.2803 207.566 98.9165 208.318 98.9165Z" fill="#FFD879" fill-opacity="0.8"/>
<path d="M217.23 96.0837C216.478 96.0837 215.841 96.7199 215.841 97.4718C215.841 98.2237 216.477 98.8599 217.229 98.86C217.981 98.86 218.618 98.2238 218.618 97.4719C218.618 96.72 217.982 96.0838 217.23 96.0837Z" fill="#FFD879" fill-opacity="0.8"/>
<path d="M226.082 98.9191C226.834 98.9191 227.471 98.283 227.471 97.5311C227.471 96.7792 226.835 96.1429 226.083 96.1429C225.331 96.1428 224.694 96.779 224.694 97.5309C224.694 98.2828 225.33 98.9191 226.082 98.9191Z" fill="#FFD879" fill-opacity="0.8"/>
<path d="M234.993 98.9204C235.745 98.9204 236.382 98.2843 236.382 97.5324C236.382 96.7805 235.746 96.1442 234.994 96.1442C234.242 96.1441 233.605 96.7803 233.605 97.5322C233.547 98.2841 234.183 98.9204 234.993 98.9204Z" fill="#FFD879" fill-opacity="0.8"/>
<path d="M243.846 98.9217C244.598 98.9217 245.235 98.2855 245.235 97.5336C245.235 96.7817 244.599 96.1455 243.847 96.1454C243.095 96.1454 242.458 96.7816 242.458 97.5335C242.458 98.2854 243.094 98.9216 243.846 98.9217Z" fill="#FFD879" fill-opacity="0.8"/>
<path d="M252.699 98.9229C253.451 98.923 254.088 98.2868 254.088 97.5349C254.088 96.783 253.452 96.1467 252.7 96.1467C251.948 96.1466 251.311 96.7828 251.311 97.5347C251.311 98.2866 251.947 98.9229 252.699 98.9229Z" fill="#FFD879" fill-opacity="0.8"/>
<path d="M261.61 98.9242C262.362 98.9243 262.999 98.2881 262.999 97.5362C262.999 96.7843 262.363 96.148 261.611 96.148C260.859 96.1479 260.222 96.7842 260.222 97.5361C260.222 98.288 260.858 98.9242 261.61 98.9242Z" fill="#FFD879" fill-opacity="0.8"/>
<path d="M172.847 105.1C173.599 105.1 174.236 104.464 174.236 103.712C174.236 102.96 173.6 102.324 172.848 102.324C172.096 102.324 171.459 102.96 171.459 103.712C171.459 104.464 172.037 105.1 172.847 105.1Z" fill="#FFD879" fill-opacity="0.8"/>
<path d="M181.7 105.101C182.453 105.101 183.089 104.465 183.089 103.713C183.09 102.961 182.453 102.325 181.701 102.325C180.949 102.325 180.312 102.961 180.312 103.713C180.312 104.465 180.948 105.101 181.7 105.101Z" fill="#FFD879" fill-opacity="0.8"/>
<path d="M190.554 102.326C189.802 102.326 189.165 102.963 189.165 103.714C189.165 104.466 189.801 105.103 190.553 105.103C191.306 105.103 191.942 104.467 191.942 103.715C191.943 102.963 191.364 102.326 190.554 102.326Z" fill="#FFD879" fill-opacity="0.8"/>
<path d="M199.464 105.104C200.216 105.104 200.853 104.468 200.853 103.716C200.853 102.964 200.217 102.328 199.465 102.328C198.713 102.328 198.076 102.964 198.076 103.716C198.076 104.468 198.654 105.104 199.464 105.104Z" fill="#FFD879" fill-opacity="0.8"/>
<path d="M208.317 105.105C209.07 105.105 209.706 104.469 209.706 103.717C209.707 102.965 209.07 102.329 208.318 102.329C207.566 102.329 206.929 102.965 206.929 103.717C206.929 104.469 207.565 105.105 208.317 105.105Z" fill="#FFD879" fill-opacity="0.8"/>
<path d="M217.228 105.107C217.98 105.107 218.617 104.47 218.617 103.718C218.617 102.967 217.981 102.33 217.229 102.33C216.477 102.33 215.84 102.966 215.84 103.718C215.84 104.47 216.418 105.106 217.228 105.107Z" fill="#FFD879" fill-opacity="0.8"/>
<path d="M226.081 105.108C226.833 105.108 227.47 104.472 227.47 103.72C227.471 102.968 226.834 102.332 226.082 102.332C225.33 102.332 224.693 102.968 224.693 103.72C224.693 104.472 225.329 105.108 226.081 105.108Z" fill="#FFD879" fill-opacity="0.8"/>
<path d="M234.993 102.333C234.241 102.333 233.604 102.969 233.604 103.721C233.604 104.473 234.24 105.109 234.992 105.109C235.744 105.109 236.381 104.473 236.381 103.721C236.381 102.969 235.745 102.333 234.993 102.333Z" fill="#FFD879" fill-opacity="0.8"/>
<path d="M243.845 105.11C244.597 105.11 245.234 104.474 245.234 103.722C245.234 102.97 244.598 102.334 243.846 102.334C243.094 102.334 242.457 102.97 242.457 103.722C242.457 104.474 243.093 105.11 243.845 105.11Z" fill="#FFD879" fill-opacity="0.8"/>
<path d="M252.698 105.112C253.45 105.112 254.087 104.475 254.087 103.724C254.087 102.972 253.451 102.335 252.699 102.335C251.947 102.335 251.31 102.972 251.31 103.723C251.31 104.475 251.946 105.112 252.698 105.112Z" fill="#FFD879" fill-opacity="0.8"/>
<path d="M261.61 102.337C260.858 102.337 260.221 102.973 260.221 103.725C260.221 104.477 260.857 105.113 261.609 105.113C262.361 105.113 262.998 104.477 262.998 103.725C262.998 102.973 262.362 102.337 261.61 102.337Z" fill="#FFD879" fill-opacity="0.8"/>
<path d="M172.846 111.289C173.613 111.289 174.235 110.667 174.235 109.901C174.236 109.134 173.614 108.513 172.847 108.513C172.08 108.513 171.458 109.134 171.458 109.901C171.458 110.667 172.079 111.289 172.846 111.289Z" fill="#FFD879" fill-opacity="0.8"/>
<path d="M181.7 108.514C180.948 108.514 180.311 109.15 180.311 109.902C180.311 110.654 180.947 111.29 181.699 111.29C182.452 111.29 183.088 110.654 183.088 109.902C183.089 109.15 182.452 108.514 181.7 108.514Z" fill="#FFD879" fill-opacity="0.8"/>
<path d="M190.553 108.515C189.801 108.515 189.164 109.151 189.164 109.903C189.164 110.655 189.8 111.291 190.552 111.291C191.305 111.291 191.941 110.655 191.941 109.903C191.942 109.151 191.363 108.515 190.553 108.515Z" fill="#FFD879" fill-opacity="0.8"/>
<path d="M199.463 111.293C200.216 111.293 200.852 110.656 200.852 109.905C200.853 109.153 200.216 108.516 199.464 108.516C198.712 108.516 198.075 109.153 198.075 109.904C198.075 110.714 198.653 111.293 199.463 111.293Z" fill="#FFD879" fill-opacity="0.8"/>
<path d="M208.316 111.294C209.069 111.294 209.705 110.658 209.705 109.906C209.706 109.154 209.069 108.518 208.317 108.518C207.565 108.518 206.928 109.154 206.928 109.906C206.928 110.658 207.564 111.294 208.316 111.294Z" fill="#FFD879" fill-opacity="0.8"/>
<path d="M217.228 108.519C216.476 108.519 215.839 109.155 215.839 109.907C215.839 110.659 216.475 111.295 217.227 111.295C217.98 111.295 218.616 110.659 218.616 109.907C218.617 109.155 217.98 108.519 217.228 108.519Z" fill="#FFD879" fill-opacity="0.8"/>
<path d="M226.08 111.296C226.833 111.297 227.469 110.66 227.469 109.908C227.47 109.157 226.833 108.52 226.081 108.52C225.329 108.52 224.692 109.156 224.692 109.908C224.692 110.718 225.328 111.296 226.08 111.296Z" fill="#FFD879" fill-opacity="0.8"/>
<path d="M234.992 108.522C234.24 108.521 233.603 109.158 233.603 109.91C233.603 110.661 234.239 111.298 234.991 111.298C235.744 111.298 236.38 110.662 236.38 109.91C236.38 109.158 235.744 108.522 234.992 108.522Z" fill="#FFD879" fill-opacity="0.8"/>
<path d="M243.844 111.299C244.597 111.299 245.233 110.663 245.233 109.911C245.234 109.159 244.597 108.523 243.845 108.523C243.093 108.523 242.456 109.159 242.456 109.911C242.456 110.721 243.092 111.299 243.844 111.299Z" fill="#FFD879" fill-opacity="0.8"/>
<path d="M252.697 111.3C253.45 111.3 254.086 110.664 254.086 109.912C254.087 109.16 253.45 108.524 252.698 108.524C251.946 108.524 251.309 109.16 251.309 109.912C251.309 110.722 251.945 111.3 252.697 111.3Z" fill="#FFD879" fill-opacity="0.8"/>
<path d="M261.608 111.302C262.375 111.302 262.997 110.68 262.997 109.914C262.998 109.147 262.376 108.525 261.609 108.525C260.842 108.525 260.22 109.147 260.22 109.913C260.22 110.68 260.841 111.302 261.608 111.302Z" fill="#FFD879" fill-opacity="0.8"/>
<path d="M172.845 117.535C173.598 117.535 174.234 116.899 174.234 116.147C174.235 115.395 173.598 114.759 172.846 114.759C172.094 114.759 171.457 115.395 171.457 116.147C171.399 116.899 172.035 117.535 172.845 117.535Z" fill="#FFD879" fill-opacity="0.8"/>
<path d="M181.698 117.537C182.451 117.537 183.087 116.9 183.088 116.149C183.088 115.397 182.451 114.76 181.699 114.76C180.947 114.76 180.31 115.397 180.31 116.148C180.31 116.9 180.946 117.537 181.698 117.537Z" fill="#FFD879" fill-opacity="0.8"/>
<path d="M190.552 117.538C191.304 117.538 191.94 116.902 191.941 116.15C191.941 115.398 191.304 114.762 190.552 114.762C189.8 114.762 189.163 115.398 189.163 116.15C189.163 116.902 189.799 117.538 190.552 117.538Z" fill="#FFD879" fill-opacity="0.8"/>
<path d="M199.462 117.539C200.215 117.539 200.851 116.903 200.852 116.151C200.852 115.399 200.215 114.763 199.463 114.763C198.711 114.763 198.074 115.399 198.074 116.151C198.074 116.903 198.652 117.539 199.462 117.539Z" fill="#FFD879" fill-opacity="0.8"/>
<path d="M208.316 117.54C209.068 117.54 209.704 116.904 209.705 116.152C209.705 115.401 209.068 114.764 208.316 114.764C207.564 114.764 206.927 115.4 206.927 116.152C206.927 116.904 207.563 117.54 208.316 117.54Z" fill="#FFD879" fill-opacity="0.8"/>
<path d="M217.226 117.542C217.979 117.542 218.615 116.906 218.615 116.154C218.616 115.402 217.979 114.766 217.227 114.765C216.475 114.765 215.838 115.402 215.838 116.154C215.838 116.905 216.416 117.542 217.226 117.542Z" fill="#FFD879" fill-opacity="0.8"/>
<path d="M226.079 117.543C226.832 117.543 227.468 116.907 227.469 116.155C227.469 115.403 226.832 114.767 226.08 114.767C225.328 114.767 224.691 115.403 224.691 116.155C224.691 116.907 225.327 117.543 226.079 117.543Z" fill="#FFD879" fill-opacity="0.8"/>
<path d="M234.99 117.544C235.743 117.544 236.379 116.908 236.379 116.156C236.38 115.404 235.743 114.768 234.991 114.768C234.239 114.768 233.602 115.404 233.602 116.156C233.544 116.908 234.18 117.544 234.99 117.544Z" fill="#FFD879" fill-opacity="0.8"/>
<path d="M243.843 117.546C244.596 117.546 245.232 116.909 245.233 116.158C245.233 115.406 244.596 114.769 243.844 114.769C243.092 114.769 242.455 115.406 242.455 116.157C242.455 116.909 243.091 117.546 243.843 117.546Z" fill="#FFD879" fill-opacity="0.8"/>
<path d="M254.143 116.159C254.144 115.407 253.507 114.771 252.755 114.771C252.003 114.771 251.366 115.407 251.366 116.159C251.366 116.911 252.002 117.547 252.754 117.547C253.507 117.547 254.143 116.911 254.143 116.159Z" fill="#FFD879" fill-opacity="0.8"/>
<path d="M261.608 114.772C260.856 114.772 260.219 115.408 260.219 116.16C260.219 116.912 260.855 117.548 261.607 117.548C262.36 117.548 262.996 116.912 262.996 116.16C262.997 115.35 262.36 114.772 261.608 114.772Z" fill="#FFD879" fill-opacity="0.8"/>
<path d="M172.845 123.724C173.597 123.724 174.233 123.088 174.234 122.336C174.234 121.584 173.597 120.948 172.845 120.948C172.093 120.948 171.456 121.584 171.456 122.336C171.398 123.088 172.034 123.724 172.845 123.724Z" fill="#FFD879" fill-opacity="0.8"/>
<path d="M181.698 123.725C182.45 123.725 183.086 123.089 183.087 122.337C183.087 121.585 182.45 120.949 181.698 120.949C180.946 120.949 180.309 121.585 180.309 122.337C180.309 123.089 180.945 123.725 181.698 123.725Z" fill="#FFD879" fill-opacity="0.8"/>
<path d="M190.551 123.727C191.303 123.727 191.939 123.09 191.94 122.339C191.94 121.587 191.304 120.95 190.551 120.95C189.799 120.95 189.162 121.586 189.162 122.338C189.162 123.09 189.798 123.727 190.551 123.727Z" fill="#FFD879" fill-opacity="0.8"/>
<path d="M199.462 123.728C200.229 123.728 200.85 123.106 200.851 122.34C200.851 121.573 200.229 120.952 199.462 120.952C198.695 120.952 198.073 121.573 198.073 122.34C198.073 123.106 198.695 123.728 199.462 123.728Z" fill="#FFD879" fill-opacity="0.8"/>
<path d="M208.315 123.729C209.067 123.729 209.704 123.093 209.704 122.341C209.704 121.589 209.068 120.953 208.315 120.953C207.563 120.953 206.926 121.589 206.926 122.341C206.926 123.093 207.562 123.729 208.315 123.729Z" fill="#FFD879" fill-opacity="0.8"/>
<path d="M217.226 123.73C217.978 123.73 218.614 123.094 218.615 122.342C218.615 121.59 217.978 120.954 217.226 120.954C216.474 120.954 215.837 121.59 215.837 122.342C215.837 123.094 216.415 123.73 217.226 123.73Z" fill="#FFD879" fill-opacity="0.8"/>
<path d="M226.079 123.732C226.831 123.732 227.467 123.096 227.468 122.344C227.468 121.592 226.831 120.955 226.079 120.955C225.327 120.955 224.69 121.592 224.69 122.343C224.69 123.095 225.326 123.732 226.079 123.732Z" fill="#FFD879" fill-opacity="0.8"/>
<path d="M234.99 123.733C235.756 123.733 236.378 123.112 236.379 122.345C236.379 121.578 235.757 120.957 234.99 120.957C234.223 120.957 233.601 121.578 233.601 122.345C233.601 123.111 234.223 123.733 234.99 123.733Z" fill="#FFD879" fill-opacity="0.8"/>
<path d="M243.843 123.734C244.595 123.734 245.231 123.098 245.232 122.346C245.232 121.594 244.595 120.958 243.843 120.958C243.091 120.958 242.454 121.594 242.454 122.346C242.454 123.098 243.09 123.734 243.843 123.734Z" fill="#FFD879" fill-opacity="0.8"/>
<path d="M252.696 123.736C253.448 123.736 254.084 123.099 254.085 122.347C254.085 121.596 253.448 120.959 252.696 120.959C251.944 120.959 251.307 121.595 251.307 122.347C251.307 123.099 251.943 123.736 252.696 123.736Z" fill="#FFD879" fill-opacity="0.8"/>
<path d="M261.607 120.961C260.855 120.961 260.218 121.597 260.218 122.349C260.218 123.101 260.854 123.737 261.606 123.737C262.359 123.737 262.995 123.101 262.996 122.349C262.996 121.597 262.359 120.961 261.607 120.961Z" fill="#FFD879" fill-opacity="0.8"/>
<path d="M172.844 129.971C173.611 129.971 174.232 129.349 174.233 128.583C174.233 127.816 173.611 127.194 172.844 127.194C172.077 127.194 171.455 127.816 171.455 128.582C171.455 129.349 172.077 129.97 172.844 129.971Z" fill="#FFD879" fill-opacity="0.8"/>
<path d="M181.697 127.138C180.945 127.138 180.308 127.774 180.308 128.526C180.308 129.278 180.944 129.914 181.697 129.914C182.449 129.914 183.086 129.278 183.086 128.526C183.086 127.774 182.45 127.138 181.697 127.138Z" fill="#FFD879" fill-opacity="0.8"/>
<path d="M190.55 127.139C189.798 127.139 189.162 127.775 189.161 128.527C189.161 129.279 189.798 129.915 190.55 129.915C191.302 129.915 191.939 129.279 191.939 128.527C191.939 127.775 191.361 127.139 190.55 127.139Z" fill="#FFD879" fill-opacity="0.8"/>
<path d="M199.461 129.974C200.228 129.974 200.85 129.353 200.85 128.586C200.85 127.82 200.228 127.198 199.461 127.198C198.694 127.198 198.072 127.82 198.072 128.586C198.072 129.353 198.694 129.974 199.461 129.974Z" fill="#FFD879" fill-opacity="0.8"/>
<path d="M208.314 129.976C209.066 129.976 209.703 129.34 209.703 128.588C209.703 127.836 209.067 127.199 208.314 127.199C207.562 127.199 206.926 127.836 206.925 128.587C206.925 129.339 207.561 129.976 208.314 129.976Z" fill="#FFD879" fill-opacity="0.8"/>
<path d="M217.225 129.977C217.977 129.977 218.614 129.341 218.614 128.589C218.614 127.837 217.978 127.201 217.225 127.201C216.473 127.201 215.836 127.837 215.836 128.589C215.836 129.341 216.415 129.977 217.225 129.977Z" fill="#FFD879" fill-opacity="0.8"/>
<path d="M226.078 129.978C226.845 129.978 227.467 129.357 227.467 128.59C227.467 127.824 226.845 127.202 226.078 127.202C225.311 127.202 224.689 127.823 224.689 128.59C224.689 129.357 225.311 129.978 226.078 129.978Z" fill="#FFD879" fill-opacity="0.8"/>
<path d="M234.989 127.145C234.237 127.145 233.6 127.782 233.6 128.533C233.6 129.285 234.236 129.922 234.989 129.922C235.741 129.922 236.377 129.286 236.378 128.534C236.378 127.782 235.741 127.145 234.989 127.145Z" fill="#FFD879" fill-opacity="0.8"/>
<path d="M243.842 129.981C244.594 129.981 245.231 129.345 245.231 128.593C245.231 127.841 244.595 127.205 243.842 127.205C243.09 127.205 242.453 127.841 242.453 128.593C242.453 129.345 243.089 129.981 243.842 129.981Z" fill="#FFD879" fill-opacity="0.8"/>
<path d="M252.695 129.982C253.447 129.982 254.083 129.346 254.084 128.594C254.084 127.842 253.448 127.206 252.695 127.206C251.943 127.206 251.306 127.842 251.306 128.594C251.306 129.346 251.942 129.982 252.695 129.982Z" fill="#FFD879" fill-opacity="0.8"/>
<path d="M261.606 129.983C262.373 129.983 262.994 129.362 262.995 128.595C262.995 127.829 262.373 127.207 261.606 127.207C260.839 127.207 260.217 127.829 260.217 128.595C260.217 129.362 260.839 129.983 261.606 129.983Z" fill="#FFD879" fill-opacity="0.8"/>
<path d="M172.843 136.159C173.61 136.159 174.232 135.538 174.232 134.771C174.232 134.005 173.61 133.383 172.843 133.383C172.076 133.383 171.455 134.004 171.454 134.771C171.454 135.538 172.076 136.159 172.843 136.159Z" fill="#FFD879" fill-opacity="0.8"/>
<path d="M181.696 136.161C182.463 136.161 183.085 135.539 183.085 134.772C183.085 134.006 182.463 133.384 181.696 133.384C180.93 133.384 180.308 134.006 180.307 134.772C180.307 135.539 180.929 136.16 181.696 136.161Z" fill="#FFD879" fill-opacity="0.8"/>
<path d="M190.55 133.386C189.797 133.386 189.161 134.022 189.161 134.774C189.16 135.525 189.797 136.162 190.549 136.162C191.301 136.162 191.938 135.526 191.938 134.774C191.938 134.022 191.36 133.386 190.55 133.386Z" fill="#FFD879" fill-opacity="0.8"/>
<path d="M199.46 136.163C200.212 136.163 200.849 135.527 200.849 134.775C200.849 134.023 200.213 133.387 199.46 133.387C198.708 133.387 198.072 134.023 198.071 134.775C198.071 135.527 198.65 136.163 199.46 136.163Z" fill="#FFD879" fill-opacity="0.8"/>
<path d="M208.313 136.164C209.065 136.164 209.702 135.528 209.702 134.776C209.702 134.024 209.066 133.388 208.313 133.388C207.561 133.388 206.925 134.024 206.924 134.776C206.924 135.528 207.561 136.164 208.313 136.164Z" fill="#FFD879" fill-opacity="0.8"/>
<path d="M217.224 136.166C217.976 136.166 218.613 135.529 218.613 134.778C218.613 134.026 217.977 133.389 217.224 133.389C216.472 133.389 215.836 134.026 215.835 134.777C215.835 135.529 216.414 136.166 217.224 136.166Z" fill="#FFD879" fill-opacity="0.8"/>
<path d="M226.077 136.167C226.829 136.167 227.466 135.531 227.466 134.779C227.466 134.027 226.83 133.391 226.077 133.391C225.325 133.391 224.689 134.027 224.688 134.779C224.688 135.531 225.325 136.167 226.077 136.167Z" fill="#FFD879" fill-opacity="0.8"/>
<path d="M234.988 133.392C234.236 133.392 233.599 134.028 233.599 134.78C233.599 135.532 234.235 136.168 234.988 136.168C235.74 136.168 236.377 135.532 236.377 134.78C236.377 134.028 235.741 133.392 234.988 133.392Z" fill="#FFD879" fill-opacity="0.8"/>
<path d="M243.841 136.169C244.593 136.17 245.23 135.533 245.23 134.781C245.23 134.03 244.594 133.393 243.841 133.393C243.089 133.393 242.452 134.029 242.452 134.781C242.452 135.533 243.088 136.169 243.841 136.169Z" fill="#FFD879" fill-opacity="0.8"/>
<path d="M252.694 136.171C253.461 136.171 254.083 135.549 254.083 134.783C254.083 134.016 253.461 133.395 252.694 133.395C251.927 133.395 251.306 134.016 251.305 134.783C251.305 135.549 251.927 136.171 252.694 136.171Z" fill="#FFD879" fill-opacity="0.8"/>
<path d="M261.605 136.172C262.372 136.172 262.994 135.551 262.994 134.784C262.994 134.017 262.372 133.396 261.605 133.396C260.838 133.396 260.217 134.017 260.216 134.784C260.216 135.55 260.838 136.172 261.605 136.172Z" fill="#FFD879" fill-opacity="0.8"/>
<path d="M172.842 142.348C173.609 142.348 174.231 141.727 174.231 140.96C174.231 140.193 173.609 139.572 172.843 139.572C172.076 139.572 171.454 140.193 171.454 140.96C171.453 141.726 172.075 142.348 172.842 142.348Z" fill="#FFD879" fill-opacity="0.8"/>
<path d="M181.695 142.349C182.447 142.349 183.084 141.713 183.084 140.961C183.084 140.209 182.448 139.573 181.696 139.573C180.943 139.573 180.307 140.209 180.307 140.961C180.306 141.771 180.943 142.349 181.695 142.349Z" fill="#FFD879" fill-opacity="0.8"/>
<path d="M190.548 142.35C191.3 142.351 191.937 141.714 191.937 140.962C191.937 140.211 191.301 139.574 190.549 139.574C189.796 139.574 189.16 140.21 189.16 140.962C189.159 141.772 189.796 142.35 190.548 142.35Z" fill="#FFD879" fill-opacity="0.8"/>
<path d="M199.459 142.352C200.226 142.352 200.848 141.73 200.848 140.964C200.848 140.197 200.226 139.576 199.459 139.576C198.693 139.576 198.071 140.197 198.07 140.964C198.07 141.73 198.692 142.352 199.459 142.352Z" fill="#FFD879" fill-opacity="0.8"/>
<path d="M208.312 142.353C209.079 142.353 209.701 141.732 209.701 140.965C209.701 140.198 209.08 139.577 208.313 139.577C207.546 139.577 206.924 140.198 206.924 140.965C206.923 141.731 207.545 142.353 208.312 142.353Z" fill="#FFD879" fill-opacity="0.8"/>
<path d="M217.224 139.578C216.471 139.578 215.835 140.214 215.834 140.966C215.834 141.718 216.471 142.354 217.223 142.354C217.975 142.354 218.612 141.718 218.612 140.966C218.612 140.214 217.976 139.578 217.224 139.578Z" fill="#FFD879" fill-opacity="0.8"/>
<path d="M226.076 142.356C226.843 142.356 227.465 141.734 227.465 140.968C227.465 140.201 226.843 139.579 226.077 139.579C225.31 139.579 224.688 140.201 224.687 140.967C224.687 141.734 225.309 142.356 226.076 142.356Z" fill="#FFD879" fill-opacity="0.8"/>
<path d="M234.987 142.357C235.754 142.357 236.376 141.736 236.376 140.969C236.376 140.202 235.754 139.581 234.987 139.581C234.22 139.581 233.599 140.202 233.598 140.969C233.598 141.735 234.22 142.357 234.987 142.357Z" fill="#FFD879" fill-opacity="0.8"/>
<path d="M243.84 142.358C244.592 142.358 245.229 141.722 245.229 140.97C245.229 140.218 244.593 139.582 243.841 139.582C243.088 139.582 242.452 140.218 242.451 140.97C242.451 141.78 243.088 142.358 243.84 142.358Z" fill="#FFD879" fill-opacity="0.8"/>
<path d="M252.694 139.583C251.941 139.583 251.305 140.219 251.305 140.971C251.304 141.723 251.941 142.359 252.693 142.359C253.445 142.36 254.082 141.723 254.082 140.971C254.14 140.22 253.504 139.583 252.694 139.583Z" fill="#FFD879" fill-opacity="0.8"/>
<path d="M261.604 142.361C262.371 142.361 262.993 141.739 262.993 140.973C262.993 140.206 262.371 139.585 261.604 139.585C260.838 139.584 260.216 140.206 260.215 140.973C260.215 141.739 260.837 142.361 261.604 142.361Z" fill="#FFD879" fill-opacity="0.8"/>
<path d="M172.841 148.594C173.608 148.595 174.23 147.973 174.23 147.206C174.23 146.44 173.609 145.818 172.842 145.818C172.075 145.818 171.453 146.44 171.453 147.206C171.452 147.973 172.074 148.594 172.841 148.594Z" fill="#FFD879" fill-opacity="0.8"/>
<path d="M181.694 148.596C182.446 148.596 183.083 147.96 183.083 147.208C183.083 146.456 182.447 145.82 181.695 145.82C180.942 145.819 180.306 146.456 180.306 147.208C180.305 147.959 180.942 148.596 181.694 148.596Z" fill="#FFD879" fill-opacity="0.8"/>
<path d="M190.547 148.597C191.299 148.597 191.936 147.961 191.936 147.209C191.936 146.457 191.3 145.821 190.548 145.821C189.796 145.821 189.159 146.457 189.159 147.209C189.159 147.961 189.795 148.597 190.547 148.597Z" fill="#FFD879" fill-opacity="0.8"/>
<path d="M199.458 148.598C200.225 148.598 200.847 147.977 200.847 147.21C200.847 146.444 200.226 145.822 199.459 145.822C198.692 145.822 198.07 146.443 198.07 147.21C198.069 147.977 198.691 148.598 199.458 148.598Z" fill="#FFD879" fill-opacity="0.8"/>
<path d="M208.311 148.6C209.078 148.6 209.7 147.978 209.7 147.212C209.7 146.445 209.079 145.823 208.312 145.823C207.545 145.823 206.923 146.445 206.923 147.211C206.922 147.978 207.544 148.6 208.311 148.6Z" fill="#FFD879" fill-opacity="0.8"/>
<path d="M217.222 148.601C217.974 148.601 218.611 147.965 218.611 147.213C218.611 146.461 217.975 145.825 217.223 145.825C216.47 145.825 215.834 146.461 215.834 147.213C215.833 147.965 216.412 148.601 217.222 148.601Z" fill="#FFD879" fill-opacity="0.8"/>
<path d="M226.075 148.602C226.842 148.602 227.464 147.981 227.464 147.214C227.464 146.447 226.843 145.826 226.076 145.826C225.309 145.826 224.687 146.447 224.687 147.214C224.686 147.981 225.308 148.602 226.075 148.602Z" fill="#FFD879" fill-opacity="0.8"/>
<path d="M234.986 148.603C235.753 148.603 236.375 147.982 236.375 147.215C236.375 146.449 235.754 145.827 234.987 145.827C234.22 145.827 233.598 146.449 233.598 147.215C233.597 147.982 234.219 148.603 234.986 148.603Z" fill="#FFD879" fill-opacity="0.8"/>
<path d="M243.839 148.605C244.591 148.605 245.228 147.969 245.228 147.217C245.228 146.465 244.592 145.829 243.84 145.829C243.087 145.828 242.451 146.465 242.451 147.217C242.45 147.968 243.087 148.605 243.839 148.605Z" fill="#FFD879" fill-opacity="0.8"/>
<path d="M252.692 148.606C253.459 148.606 254.081 147.985 254.081 147.218C254.081 146.451 253.46 145.83 252.693 145.83C251.926 145.83 251.304 146.451 251.304 147.218C251.303 147.984 251.925 148.606 252.692 148.606Z" fill="#FFD879" fill-opacity="0.8"/>
<path d="M261.603 148.607C262.37 148.607 262.992 147.986 262.992 147.219C262.992 146.453 262.371 145.831 261.604 145.831C260.837 145.831 260.215 146.452 260.215 147.219C260.214 147.986 260.836 148.607 261.603 148.607Z" fill="#FFD879" fill-opacity="0.8"/>
<path d="M172.84 154.783C173.607 154.783 174.229 154.162 174.229 153.395C174.229 152.628 173.608 152.007 172.841 152.007C172.074 152.007 171.452 152.628 171.452 153.395C171.452 154.162 172.073 154.783 172.84 154.783Z" fill="#FFD879" fill-opacity="0.8"/>
<path d="M181.694 152.008C180.942 152.008 180.305 152.644 180.305 153.396C180.305 154.148 180.941 154.784 181.693 154.784C182.445 154.785 183.082 154.148 183.082 153.396C183.082 152.645 182.446 152.008 181.694 152.008Z" fill="#FFD879" fill-opacity="0.8"/>
<path d="M189.158 153.398C189.158 154.149 189.794 154.786 190.546 154.786C191.298 154.786 191.935 154.15 191.935 153.398C191.935 152.646 191.299 152.01 190.547 152.009C189.795 152.009 189.158 152.646 189.158 153.398Z" fill="#FFD879" fill-opacity="0.8"/>
<path d="M199.457 154.787C200.224 154.787 200.846 154.166 200.846 153.399C200.846 152.632 200.225 152.011 199.458 152.011C198.691 152.011 198.069 152.632 198.069 153.399C198.068 154.165 198.69 154.787 199.457 154.787Z" fill="#FFD879" fill-opacity="0.8"/>
<path d="M208.31 154.788C209.077 154.788 209.699 154.167 209.699 153.4C209.699 152.634 209.078 152.012 208.311 152.012C207.544 152.012 206.922 152.633 206.922 153.4C206.922 154.167 207.543 154.788 208.31 154.788Z" fill="#FFD879" fill-opacity="0.8"/>
<path d="M217.221 154.79C217.973 154.79 218.61 154.153 218.61 153.402C218.61 152.65 217.974 152.013 217.222 152.013C216.469 152.013 215.833 152.649 215.833 153.401C215.832 154.153 216.411 154.79 217.221 154.79Z" fill="#FFD879" fill-opacity="0.8"/>
<path d="M226.074 154.791C226.841 154.791 227.463 154.169 227.463 153.403C227.463 152.636 226.842 152.015 226.075 152.015C225.308 152.015 224.686 152.636 224.686 153.403C224.686 154.169 225.307 154.791 226.074 154.791Z" fill="#FFD879" fill-opacity="0.8"/>
<path d="M234.986 152.016C234.233 152.016 233.597 152.652 233.597 153.404C233.596 154.156 234.233 154.792 234.985 154.792C235.737 154.792 236.374 154.156 236.374 153.404C236.374 152.652 235.738 152.016 234.986 152.016Z" fill="#FFD879" fill-opacity="0.8"/>
<path d="M243.839 152.017C243.086 152.017 242.45 152.653 242.45 153.405C242.449 154.157 243.086 154.793 243.838 154.793C244.59 154.793 245.227 154.157 245.227 153.405C245.227 152.653 244.591 152.017 243.839 152.017Z" fill="#FFD879" fill-opacity="0.8"/>
<path d="M252.691 154.795C253.443 154.795 254.08 154.159 254.08 153.407C254.08 152.655 253.444 152.018 252.692 152.018C251.94 152.018 251.303 152.655 251.303 153.406C251.303 154.158 251.939 154.795 252.691 154.795Z" fill="#FFD879" fill-opacity="0.8"/>
<path d="M261.602 154.796C262.369 154.796 262.991 154.175 262.991 153.408C262.991 152.641 262.37 152.02 261.603 152.02C260.836 152.02 260.214 152.641 260.214 153.408C260.213 154.174 260.835 154.796 261.602 154.796Z" fill="#FFD879" fill-opacity="0.8"/>
<path d="M172.839 161.03C173.606 161.03 174.228 160.408 174.228 159.642C174.228 158.875 173.607 158.253 172.84 158.253C172.073 158.253 171.451 158.875 171.451 159.641C171.451 160.408 172.072 161.03 172.839 161.03Z" fill="#FFD879" fill-opacity="0.8"/>
<path d="M181.693 158.197C180.941 158.197 180.304 158.833 180.304 159.585C180.304 160.337 180.94 160.973 181.692 160.973C182.444 160.973 183.081 160.337 183.081 159.585C183.081 158.833 182.445 158.197 181.693 158.197Z" fill="#FFD879" fill-opacity="0.8"/>
<path d="M190.545 161.032C191.298 161.032 191.934 160.396 191.934 159.644C191.934 158.892 191.298 158.256 190.546 158.256C189.794 158.256 189.157 158.892 189.157 159.644C189.157 160.396 189.793 161.032 190.545 161.032Z" fill="#FFD879" fill-opacity="0.8"/>
<path d="M199.456 161.034C200.208 161.034 200.845 160.397 200.845 159.645C200.845 158.894 200.209 158.257 199.457 158.257C198.705 158.257 198.068 158.893 198.068 159.645C198.068 160.397 198.646 161.034 199.456 161.034Z" fill="#FFD879" fill-opacity="0.8"/>
<path d="M208.309 161.035C209.076 161.035 209.698 160.413 209.698 159.647C209.698 158.88 209.077 158.259 208.31 158.259C207.543 158.259 206.921 158.88 206.921 159.647C206.921 160.413 207.542 161.035 208.309 161.035Z" fill="#FFD879" fill-opacity="0.8"/>
<path d="M217.22 161.036C217.972 161.036 218.609 160.4 218.609 159.648C218.609 158.896 217.973 158.26 217.221 158.26C216.469 158.26 215.832 158.896 215.832 159.648C215.832 160.4 216.41 161.036 217.22 161.036Z" fill="#FFD879" fill-opacity="0.8"/>
<path d="M226.073 161.037C226.84 161.037 227.462 160.416 227.462 159.649C227.462 158.883 226.841 158.261 226.074 158.261C225.307 158.261 224.685 158.883 224.685 159.649C224.685 160.416 225.306 161.037 226.073 161.037Z" fill="#FFD879" fill-opacity="0.8"/>
<path d="M234.985 158.205C234.233 158.205 233.596 158.841 233.596 159.593C233.596 160.345 234.232 160.981 234.984 160.981C235.736 160.981 236.373 160.345 236.373 159.593C236.373 158.841 235.737 158.205 234.985 158.205Z" fill="#FFD879" fill-opacity="0.8"/>
<path d="M243.837 161.04C244.589 161.04 245.226 160.404 245.226 159.652C245.226 158.9 244.59 158.264 243.838 158.264C243.086 158.264 242.449 158.9 242.449 159.652C242.449 160.404 243.085 161.04 243.837 161.04Z" fill="#FFD879" fill-opacity="0.8"/>
<path d="M252.69 161.041C253.457 161.041 254.079 160.42 254.079 159.653C254.079 158.886 253.458 158.265 252.691 158.265C251.924 158.265 251.302 158.886 251.302 159.653C251.302 160.42 251.923 161.041 252.69 161.041Z" fill="#FFD879" fill-opacity="0.8"/>
<path d="M261.601 161.042C262.368 161.043 262.99 160.421 262.99 159.654C262.99 158.888 262.369 158.266 261.602 158.266C260.835 158.266 260.213 158.888 260.213 159.654C260.213 160.421 260.834 161.042 261.601 161.042Z" fill="#FFD879" fill-opacity="0.8"/>
<path d="M172.838 167.218C173.605 167.218 174.227 166.597 174.227 165.83C174.227 165.064 173.606 164.442 172.839 164.442C172.072 164.442 171.45 165.064 171.45 165.83C171.45 166.597 172.071 167.218 172.838 167.218Z" fill="#FFD879" fill-opacity="0.8"/>
<path d="M181.691 167.22C182.444 167.22 183.08 166.584 183.08 165.832C183.081 165.08 182.444 164.443 181.692 164.443C180.94 164.443 180.303 165.08 180.303 165.831C180.303 166.583 180.939 167.22 181.691 167.22Z" fill="#FFD879" fill-opacity="0.8"/>
<path d="M190.544 167.221C191.297 167.221 191.933 166.585 191.933 165.833C191.934 165.081 191.297 164.445 190.545 164.445C189.793 164.445 189.156 165.081 189.156 165.833C189.156 166.585 189.792 167.221 190.544 167.221Z" fill="#FFD879" fill-opacity="0.8"/>
<path d="M199.455 167.222C200.222 167.222 200.844 166.601 200.844 165.834C200.844 165.068 200.223 164.446 199.456 164.446C198.689 164.446 198.067 165.067 198.067 165.834C198.067 166.601 198.688 167.222 199.455 167.222Z" fill="#FFD879" fill-opacity="0.8"/>
<path d="M208.309 164.447C207.557 164.447 206.92 165.083 206.92 165.835C206.92 166.587 207.556 167.223 208.308 167.224C209.061 167.224 209.697 166.587 209.697 165.835C209.698 165.084 209.119 164.447 208.309 164.447Z" fill="#FFD879" fill-opacity="0.8"/>
<path d="M217.22 164.449C216.468 164.449 215.831 165.085 215.831 165.837C215.831 166.588 216.467 167.225 217.219 167.225C217.971 167.225 218.608 166.589 218.608 165.837C218.608 165.085 217.972 164.449 217.22 164.449Z" fill="#FFD879" fill-opacity="0.8"/>
<path d="M226.072 167.226C226.824 167.226 227.461 166.59 227.461 165.838C227.462 165.086 226.825 164.45 226.073 164.45C225.321 164.45 224.684 165.086 224.684 165.838C224.684 166.59 225.32 167.226 226.072 167.226Z" fill="#FFD879" fill-opacity="0.8"/>
<path d="M234.983 167.227C235.75 167.227 236.372 166.606 236.372 165.839C236.372 165.073 235.751 164.451 234.984 164.451C234.217 164.451 233.595 165.072 233.595 165.839C233.595 166.606 234.216 167.227 234.983 167.227Z" fill="#FFD879" fill-opacity="0.8"/>
<path d="M243.836 167.229C244.589 167.229 245.225 166.592 245.225 165.841C245.226 165.089 244.589 164.452 243.837 164.452C243.085 164.452 242.448 165.089 242.448 165.84C242.448 166.592 243.084 167.229 243.836 167.229Z" fill="#FFD879" fill-opacity="0.8"/>
<path d="M252.689 167.23C253.456 167.23 254.078 166.609 254.078 165.842C254.078 165.075 253.457 164.454 252.69 164.454C251.923 164.454 251.301 165.075 251.301 165.842C251.301 166.608 251.922 167.23 252.689 167.23Z" fill="#FFD879" fill-opacity="0.8"/>
<path d="M261.6 167.231C262.367 167.231 262.989 166.61 262.989 165.843C262.989 165.077 262.368 164.455 261.601 164.455C260.834 164.455 260.212 165.076 260.212 165.843C260.212 166.61 260.833 167.231 261.6 167.231Z" fill="#FFD879" fill-opacity="0.8"/>
<path d="M172.837 173.407C173.604 173.407 174.226 172.786 174.226 172.019C174.227 171.252 173.605 170.631 172.838 170.631C172.071 170.631 171.449 171.252 171.449 172.019C171.449 172.786 172.07 173.407 172.837 173.407Z" fill="#FFD879" fill-opacity="0.8"/>
<path d="M181.69 173.408C182.443 173.408 183.079 172.772 183.079 172.02C183.08 171.268 182.443 170.632 181.691 170.632C180.939 170.632 180.302 171.268 180.302 172.02C180.302 172.83 180.938 173.408 181.69 173.408Z" fill="#FFD879" fill-opacity="0.8"/>
<path d="M190.544 173.41C191.296 173.41 191.932 172.773 191.933 172.022C191.933 171.27 191.296 170.633 190.544 170.633C189.792 170.633 189.155 171.27 189.155 172.021C189.155 172.831 189.791 173.41 190.544 173.41Z" fill="#FFD879" fill-opacity="0.8"/>
<path d="M199.454 173.411C200.207 173.411 200.843 172.775 200.843 172.023C200.844 171.271 200.207 170.635 199.455 170.635C198.703 170.635 198.066 171.271 198.066 172.023C198.066 172.832 198.644 173.411 199.454 173.411Z" fill="#FFD879" fill-opacity="0.8"/>
<path d="M208.308 170.636C207.556 170.636 206.919 171.272 206.919 172.024C206.919 172.776 207.555 173.412 208.307 173.412C209.06 173.412 209.696 172.776 209.697 172.024C209.697 171.272 209.118 170.636 208.308 170.636Z" fill="#FFD879" fill-opacity="0.8"/>
<path d="M217.218 173.413C217.971 173.413 218.607 172.777 218.607 172.025C218.608 171.274 217.971 170.637 217.219 170.637C216.467 170.637 215.83 171.273 215.83 172.025C215.83 172.835 216.408 173.413 217.218 173.413Z" fill="#FFD879" fill-opacity="0.8"/>
<path d="M227.46 172.027C227.461 171.275 226.824 170.639 226.072 170.639C225.32 170.638 224.683 171.275 224.683 172.027C224.683 172.778 225.319 173.415 226.071 173.415C226.824 173.415 227.46 172.836 227.46 172.027Z" fill="#FFD879" fill-opacity="0.8"/>
<path d="M234.983 170.64C234.231 170.64 233.594 171.276 233.594 172.028C233.594 172.78 234.23 173.416 234.982 173.416C235.735 173.416 236.371 172.78 236.371 172.028C236.371 171.276 235.735 170.64 234.983 170.64Z" fill="#FFD879" fill-opacity="0.8"/>
<path d="M243.835 173.417C244.588 173.417 245.224 172.781 245.224 172.029C245.225 171.277 244.588 170.641 243.836 170.641C243.084 170.641 242.447 171.277 242.447 172.029C242.447 172.839 243.083 173.417 243.835 173.417Z" fill="#FFD879" fill-opacity="0.8"/>
<path d="M252.689 170.642C251.937 170.642 251.3 171.279 251.3 172.03C251.3 172.782 251.936 173.419 252.688 173.419C253.441 173.419 254.077 172.782 254.077 172.031C254.135 171.279 253.499 170.642 252.689 170.642Z" fill="#FFD879" fill-opacity="0.8"/>
<path d="M261.599 173.42C262.366 173.42 262.988 172.798 262.988 172.032C262.989 171.265 262.367 170.644 261.6 170.644C260.833 170.644 260.211 171.265 260.211 172.032C260.211 172.798 260.832 173.42 261.599 173.42Z" fill="#FFD879" fill-opacity="0.8"/>
<path d="M172.836 179.654C173.589 179.654 174.225 179.017 174.225 178.266C174.226 177.514 173.589 176.877 172.837 176.877C172.085 176.877 171.448 177.514 171.448 178.265C171.39 179.017 172.026 179.654 172.836 179.654Z" fill="#FFD879" fill-opacity="0.8"/>
<path d="M181.69 179.655C182.442 179.655 183.078 179.019 183.079 178.267C183.079 177.515 182.442 176.879 181.69 176.879C180.938 176.879 180.301 177.515 180.301 178.267C180.301 179.019 180.937 179.655 181.69 179.655Z" fill="#FFD879" fill-opacity="0.8"/>
<path d="M190.543 176.88C189.791 176.88 189.154 177.516 189.154 178.268C189.154 179.02 189.79 179.656 190.543 179.656C191.295 179.656 191.931 179.02 191.932 178.268C191.932 177.458 191.353 176.88 190.543 176.88Z" fill="#FFD879" fill-opacity="0.8"/>
<path d="M198.065 178.269C198.065 179.021 198.701 179.657 199.453 179.657C200.206 179.657 200.842 179.021 200.843 178.269C200.843 177.517 200.206 176.881 199.454 176.881C198.644 176.881 198.065 177.46 198.065 178.269Z" fill="#FFD879" fill-opacity="0.8"/>
<path d="M208.307 179.659C209.059 179.659 209.695 179.023 209.696 178.271C209.696 177.519 209.059 176.883 208.307 176.883C207.555 176.882 206.918 177.519 206.918 178.271C206.918 179.022 207.554 179.659 208.307 179.659Z" fill="#FFD879" fill-opacity="0.8"/>
<path d="M217.217 179.66C217.97 179.66 218.606 179.024 218.606 178.272C218.607 177.52 217.97 176.884 217.218 176.884C216.466 176.884 215.829 177.52 215.829 178.272C215.829 179.024 216.407 179.66 217.217 179.66Z" fill="#FFD879" fill-opacity="0.8"/>
<path d="M226.07 179.661C226.823 179.661 227.459 179.025 227.46 178.273C227.46 177.521 226.823 176.885 226.071 176.885C225.319 176.885 224.682 177.521 224.682 178.273C224.682 179.025 225.318 179.661 226.07 179.661Z" fill="#FFD879" fill-opacity="0.8"/>
<path d="M234.982 176.886C234.23 176.886 233.593 177.522 233.593 178.274C233.593 179.026 234.229 179.663 234.981 179.663C235.734 179.663 236.37 179.026 236.37 178.274C236.371 177.523 235.734 176.886 234.982 176.886Z" fill="#FFD879" fill-opacity="0.8"/>
<path d="M243.835 176.888C243.083 176.888 242.446 177.524 242.446 178.276C242.446 179.028 243.082 179.664 243.834 179.664C244.587 179.664 245.223 179.028 245.224 178.276C245.224 177.466 244.587 176.888 243.835 176.888Z" fill="#FFD879" fill-opacity="0.8"/>
<path d="M252.687 179.665C253.44 179.665 254.076 179.029 254.076 178.277C254.077 177.525 253.44 176.889 252.688 176.889C251.936 176.889 251.299 177.525 251.299 178.277C251.299 179.029 251.935 179.665 252.687 179.665Z" fill="#FFD879" fill-opacity="0.8"/>
<path d="M261.598 179.666C262.351 179.666 262.987 179.03 262.987 178.278C262.988 177.526 262.351 176.89 261.599 176.89C260.847 176.89 260.21 177.526 260.21 178.278C260.21 179.03 260.846 179.666 261.598 179.666Z" fill="#FFD879" fill-opacity="0.8"/>
<g filter="url(#filter0_d)">
<path d="M232.718 27.1329C232.718 21.5367 228.177 17 222.576 17L119.859 17L17.1413 17C11.5404 17 7 21.5367 7 27.1329L7 140.918C7 146.514 11.5404 151.05 17.1413 151.05H222.576C228.177 151.05 232.718 146.514 232.718 140.918V27.1329Z" fill="white"/>
</g>
<path opacity="0.4" d="M7 25.6009C7 20.8507 10.8507 17 15.6009 17H224.177C228.927 17 232.778 20.8507 232.778 25.6009V57H7V25.6009Z" fill="#F1F5FE"/>
<path d="M93.2448 42.9295L93.2372 35.64L96.1558 35.6369C96.9602 35.6361 97.5643 35.811 97.9681 36.1618C98.3742 36.5102 98.5776 36.9573 98.5781 37.503C98.5786 37.9325 98.4544 38.2803 98.2055 38.5463C97.9566 38.81 97.6424 38.9847 97.2628 39.0705L97.2629 39.1417C97.5405 39.1533 97.8005 39.2313 98.0426 39.3758C98.2872 39.5203 98.4856 39.7218 98.6377 39.9803C98.7898 40.2388 98.8661 40.5483 98.8665 40.909C98.8669 41.2958 98.7711 41.6412 98.5792 41.9451C98.3897 42.249 98.1088 42.489 97.7364 42.665C97.3641 42.8386 96.905 42.9257 96.3592 42.9263L93.2448 42.9295ZM94.7847 41.6679L96.0411 41.6666C96.473 41.6661 96.7861 41.5827 96.9805 41.4164C97.1773 41.2501 97.2756 41.0305 97.2753 40.7576C97.275 40.4563 97.1667 40.2096 96.9506 40.0176C96.7368 39.8257 96.4449 39.7299 96.0747 39.7302L94.7826 39.7316L94.7847 41.6679ZM94.7815 38.6887L95.9241 38.6875C96.2397 38.6872 96.5018 38.605 96.7105 38.4411C96.9191 38.2748 97.0233 38.048 97.023 37.7609C97.0227 37.4975 96.9287 37.2853 96.7411 37.1241C96.5559 36.9629 96.2924 36.8825 95.9507 36.8829L94.7797 36.8841L94.7815 38.6887Z" fill="#6391F3"/>
<path d="M102.335 43.0268C101.775 43.0274 101.292 42.914 100.886 42.6866C100.48 42.4568 100.167 42.1321 99.9485 41.7123C99.7297 41.2902 99.62 40.7908 99.6194 40.2142C99.6188 39.6518 99.7275 39.1581 99.9453 38.7331C100.163 38.3082 100.47 37.9768 100.866 37.7391C101.265 37.5014 101.732 37.3823 102.268 37.3817C102.75 37.3812 103.184 37.4828 103.571 37.6864C103.961 37.8901 104.269 38.1983 104.498 38.6109C104.726 39.0212 104.84 39.536 104.841 40.1553L104.841 40.5718L101.118 40.5757L101.118 40.5792C101.119 40.9874 101.231 41.3088 101.454 41.5434C101.677 41.7781 101.979 41.8953 102.358 41.8949C102.612 41.8946 102.832 41.841 103.017 41.734C103.202 41.627 103.332 41.4691 103.408 41.2602L104.81 41.3513C104.704 41.8592 104.434 42.2652 104 42.5694C103.566 42.8736 103.011 43.0261 102.335 43.0268ZM101.117 39.636L103.413 39.6336C103.41 39.3085 103.306 39.0405 103.099 38.8295C102.892 38.6185 102.624 38.5132 102.294 38.5136C101.957 38.5139 101.681 38.6233 101.465 38.8419C101.25 39.0604 101.134 39.3251 101.117 39.636Z" fill="#6391F3"/>
<path d="M110.378 39.0034L108.99 39.0903C108.952 38.9147 108.856 38.7641 108.701 38.6385C108.547 38.5129 108.338 38.4503 108.075 38.4505C107.84 38.4508 107.64 38.5008 107.477 38.6007C107.316 38.6981 107.236 38.8287 107.239 38.9924C107.236 39.123 107.288 39.2332 107.392 39.3233C107.499 39.4134 107.679 39.4855 107.933 39.5399L108.923 39.7381C109.975 39.953 110.502 40.446 110.505 41.2172C110.505 41.5755 110.4 41.89 110.189 42.1607C109.981 42.4315 109.694 42.643 109.329 42.7952C108.963 42.9451 108.544 43.0203 108.072 43.0208C107.349 43.0215 106.772 42.8715 106.342 42.5705C105.912 42.2673 105.661 41.8546 105.59 41.3327L107.081 41.2528C107.129 41.4758 107.238 41.6442 107.409 41.7579C107.582 41.8716 107.804 41.9283 108.075 41.928C108.34 41.9278 108.554 41.8753 108.715 41.7708C108.879 41.6662 108.962 41.5332 108.964 41.3719C108.957 41.1013 108.723 40.9201 108.262 40.828L107.315 40.6403C106.257 40.4303 105.729 39.91 105.733 39.0794C105.73 38.5527 105.94 38.1372 106.362 37.833C106.786 37.5288 107.349 37.3764 108.049 37.3756C108.739 37.3749 109.283 37.5203 109.679 37.8117C110.078 38.1032 110.311 38.5004 110.378 39.0034Z" fill="#6391F3"/>
<path d="M114.364 37.4402L114.365 38.5792L113.336 38.5803L113.339 41.2285C113.339 41.4373 113.387 41.5784 113.482 41.6519C113.577 41.7253 113.7 41.762 113.852 41.7618C113.923 41.7617 113.995 41.7557 114.066 41.7438C114.137 41.7295 114.192 41.7188 114.23 41.7116L114.469 42.8397C114.393 42.8635 114.287 42.8909 114.149 42.9219C114.011 42.9552 113.844 42.9756 113.647 42.9829C113.097 43.0072 112.654 42.889 112.319 42.6284C111.987 42.3653 111.821 41.9656 111.823 41.4294L111.82 38.5819L111.073 38.5827L111.071 37.4437L111.819 37.4429L111.818 36.133L113.334 36.1315L113.335 37.4413L114.364 37.4402Z" fill="#6391F3"/>
<path d="M119.692 42.9908C119.277 42.9912 118.902 42.8849 118.567 42.6716C118.232 42.4561 117.966 42.1396 117.768 41.7221C117.571 41.3023 117.472 40.7875 117.471 40.1777C117.471 39.5512 117.571 39.0303 117.772 38.6148C117.976 38.197 118.245 37.8846 118.579 37.6778C118.916 37.4687 119.284 37.3639 119.682 37.3635C119.988 37.3631 120.244 37.4151 120.448 37.5193C120.654 37.6211 120.821 37.7479 120.946 37.8996C121.075 38.0513 121.172 38.2019 121.239 38.3513L121.285 38.3513L121.282 35.6106L122.795 35.609L122.803 42.8986L121.308 42.9001L121.307 42.0245L121.243 42.0246C121.174 42.1765 121.074 42.3273 120.944 42.4769C120.814 42.6242 120.645 42.7466 120.439 42.8441C120.235 42.9416 119.986 42.9905 119.692 42.9908ZM120.171 41.7837C120.536 41.7833 120.819 41.6359 121.018 41.3414C121.219 41.0446 121.32 40.653 121.319 40.1665C121.319 39.6777 121.218 39.2898 121.019 39.0029C120.819 38.7136 120.535 38.5692 120.168 38.5696C119.793 38.57 119.507 38.7186 119.31 39.0154C119.116 39.3098 119.019 39.6944 119.02 40.1689C119.02 40.6459 119.119 41.0349 119.316 41.3361C119.514 41.6349 119.798 41.7841 120.171 41.7837Z" fill="#6391F3"/>
<path d="M126.541 43.0014C125.981 43.002 125.498 42.8886 125.092 42.6612C124.686 42.4315 124.373 42.1067 124.155 41.687C123.936 41.2648 123.826 40.7654 123.826 40.1888C123.825 39.6264 123.934 39.1328 124.152 38.7078C124.369 38.2828 124.676 37.9515 125.072 37.7138C125.471 37.476 125.938 37.3569 126.474 37.3564C126.956 37.3558 127.391 37.4574 127.778 37.6611C128.167 37.8648 128.476 38.1729 128.704 38.5856C128.932 38.9958 129.047 39.5106 129.047 40.13L129.048 40.5464L125.325 40.5503L125.325 40.5539C125.325 40.962 125.437 41.2834 125.66 41.5181C125.883 41.7528 126.185 41.8699 126.565 41.8695C126.819 41.8693 127.038 41.8156 127.223 41.7087C127.408 41.6017 127.538 41.4438 127.614 41.2349L129.016 41.3259C128.91 41.8339 128.64 42.2399 128.206 42.5441C127.772 42.8483 127.217 43.0007 126.541 43.0014ZM125.324 39.6106L127.619 39.6082C127.617 39.2831 127.512 39.0151 127.305 38.8041C127.099 38.5932 126.83 38.4879 126.501 38.4882C126.164 38.4886 125.887 38.598 125.672 38.8165C125.456 39.0351 125.34 39.2998 125.324 39.6106Z" fill="#6391F3"/>
<path d="M131.599 42.9926C131.077 42.9931 130.644 42.8571 130.299 42.5846C129.955 42.3121 129.782 41.9053 129.782 41.3643C129.781 40.9561 129.877 40.6357 130.069 40.403C130.261 40.1702 130.512 40.0003 130.823 39.8932C131.136 39.7837 131.473 39.7122 131.834 39.6786C132.308 39.6306 132.648 39.5804 132.852 39.528C133.056 39.4756 133.157 39.3616 133.157 39.186L133.157 39.1646C133.157 38.9392 133.086 38.7649 132.943 38.6416C132.803 38.5184 132.604 38.4569 132.345 38.4572C132.072 38.4575 131.855 38.517 131.694 38.6358C131.533 38.7546 131.426 38.9054 131.374 39.0882L129.971 38.9758C130.075 38.4773 130.334 38.082 130.746 37.7897C131.161 37.4974 131.696 37.3509 132.351 37.3502C132.757 37.3498 133.136 37.4134 133.49 37.5412C133.844 37.669 134.129 37.8692 134.345 38.1418C134.564 38.4121 134.673 38.7644 134.674 39.1986L134.677 42.8861L133.239 42.8876L133.239 42.1295L133.196 42.1295C133.063 42.3836 132.864 42.5914 132.599 42.753C132.335 42.9123 132.002 42.9921 131.599 42.9926ZM132.032 41.9457C132.364 41.9453 132.637 41.8489 132.85 41.6565C133.064 41.4617 133.17 41.2207 133.17 40.9336L133.169 40.3534C133.11 40.3938 133.017 40.4295 132.892 40.4605C132.768 40.4915 132.635 40.5189 132.493 40.5428C132.353 40.5643 132.227 40.5834 132.116 40.6001C131.85 40.6384 131.636 40.7134 131.472 40.8251C131.311 40.9368 131.23 41.0994 131.23 41.3129C131.231 41.5218 131.306 41.6795 131.455 41.7861C131.607 41.8927 131.799 41.9459 132.032 41.9457Z" fill="#6391F3"/>
<path d="M137.362 35.5937L137.37 42.8833L135.854 42.8849L135.846 35.5953L137.362 35.5937Z" fill="#6391F3"/>
<path d="M140.389 35.5906L140.255 40.6948L138.953 40.6962L138.805 35.5922L140.389 35.5906ZM139.606 42.9735C139.371 42.9738 139.17 42.8909 139.001 42.725C138.832 42.5591 138.749 42.3575 138.751 42.1202C138.749 41.8876 138.831 41.6882 139 41.5219C139.168 41.3556 139.37 41.2724 139.605 41.2721C139.832 41.2719 140.031 41.3547 140.199 41.5207C140.37 41.6866 140.457 41.8858 140.46 42.1184C140.458 42.3557 140.371 42.5574 140.201 42.7237C140.032 42.89 139.834 42.9733 139.606 42.9735Z" fill="#6391F3"/>
<path d="M88.2583 87.0625L34.2622 87.1065" stroke="#D8E4FC" stroke-width="3.90949" stroke-linecap="round" stroke-linejoin="round"/>
<path d="M33.4597 78.1398L33.4655 77.37C32.7621 77.3111 32.2034 77.096 31.7894 76.7248C31.3776 76.3515 31.1625 75.8297 31.1441 75.1596L32.5343 75.1581C32.5545 75.4346 32.6487 75.6556 32.817 75.8214C32.9874 75.9871 33.2076 76.0952 33.4775 76.1458L33.4923 74.3907L33.1737 74.3114C32.6007 74.1749 32.1481 73.9575 31.8161 73.6592C31.484 73.361 31.3188 72.9619 31.3205 72.4621C31.3179 72.0861 31.4104 71.752 31.5981 71.4598C31.7858 71.1677 32.0454 70.9318 32.377 70.7523C32.7086 70.5728 33.0911 70.4618 33.5246 70.4194L33.5304 69.6463L34.3134 69.6455L34.3076 70.4252C34.9469 70.4931 35.4569 70.7104 35.8377 71.0772C36.2186 71.4417 36.4137 71.8983 36.4231 72.4468L35.0463 72.4482C35.0038 72.0214 34.7536 71.754 34.2956 71.6461L34.2841 73.305L34.4799 73.3512C34.8737 73.4393 35.2233 73.5672 35.5287 73.735C35.8363 73.9028 36.0776 74.1193 36.2526 74.3845C36.4298 74.6475 36.5186 74.9681 36.519 75.3464C36.5174 75.9214 36.3177 76.3894 35.92 76.7504C35.5245 77.1091 34.9673 77.3165 34.2485 77.3725L34.2427 78.1389L33.4597 78.1398ZM34.2605 76.145C34.5104 76.0938 34.7071 75.9985 34.8508 75.859C34.9944 75.7173 35.0672 75.5458 35.0692 75.3446C35.0668 75.1566 34.997 75.0051 34.8597 74.8903C34.7247 74.7732 34.5288 74.6749 34.2722 74.5956L34.2605 76.145ZM33.5009 73.1034L33.5126 71.637C33.2804 71.6859 33.1025 71.7756 32.9787 71.9063C32.855 72.0347 32.7932 72.1874 32.7934 72.3643C32.7892 72.5545 32.8546 72.7082 32.9897 72.8253C33.1247 72.9401 33.2951 73.0329 33.5009 73.1034Z" fill="#3C76F0"/>
<path d="M37.4475 77.2863L37.4465 76.2511L39.8627 74.0091C40.1721 73.7124 40.4074 73.4545 40.5686 73.2354C40.7298 73.0162 40.8103 72.7717 40.81 72.5019C40.8097 72.2033 40.7099 71.9678 40.5107 71.7955C40.3136 71.621 40.0658 71.5339 39.7672 71.5342C39.4576 71.5345 39.2077 71.6288 39.0177 71.817C38.8299 72.003 38.7373 72.2586 38.7398 72.5837L37.3763 72.5851C37.3758 72.1405 37.476 71.7545 37.677 71.4269C37.8779 71.0994 38.1585 70.8458 38.5189 70.6663C38.8814 70.4867 39.3005 70.3967 39.776 70.3962C40.2626 70.3957 40.6862 70.4815 41.047 70.6537C41.4099 70.8236 41.6921 71.06 41.8937 71.3628C42.0953 71.6634 42.1963 72.0105 42.1967 72.4042C42.197 72.6608 42.1464 72.9141 42.0449 73.1641C41.9434 73.4142 41.7646 73.692 41.5083 73.9975C41.2543 74.3007 40.8941 74.665 40.4279 75.0901L39.4369 76.0632L39.4369 76.1097L42.2902 76.1067L42.2914 77.2812L37.4475 77.2863Z" fill="#3C76F0"/>
<path d="M45.8141 77.3704C45.3452 77.3709 44.9271 77.2851 44.5597 77.1129C44.1924 76.9408 43.9013 76.7033 43.6864 76.4005C43.4738 76.0977 43.3628 75.7506 43.3535 75.3591L44.747 75.3576C44.765 75.6208 44.8758 75.8342 45.0794 75.9976C45.2831 76.1611 45.5276 76.2427 45.8129 76.2424C46.1491 76.242 46.4255 76.1311 46.642 75.9097C46.8585 75.6883 46.9666 75.4007 46.9662 75.0468C46.9658 74.6907 46.855 74.401 46.6335 74.1779C46.4143 73.9525 46.1333 73.8389 45.7905 73.837C45.5892 73.8373 45.3957 73.8784 45.21 73.9604C45.0243 74.0424 44.8795 74.1543 44.7757 74.2959L43.4982 74.0684L43.8162 70.4849L47.97 70.4805L47.9713 71.655L45.0019 71.6581L44.8278 73.3603L44.8677 73.3603C44.9869 73.192 45.167 73.0525 45.408 72.9417C45.649 72.8308 45.9188 72.7752 46.2174 72.7749C46.6265 72.7745 46.9916 72.8703 47.3125 73.0624C47.6334 73.2545 47.8869 73.5186 48.0731 73.8546C48.2592 74.1906 48.3514 74.5753 48.3497 75.0088C48.3524 75.4667 48.2466 75.8738 48.0324 76.2301C47.8205 76.5842 47.5233 76.8632 47.1409 77.0671C46.7606 77.2688 46.3184 77.3699 45.8141 77.3704Z" fill="#3C76F0"/>
<path d="M57.7965 73.8676C57.7973 74.6086 57.6575 75.2391 57.3771 75.7591C57.099 76.2792 56.7201 76.6766 56.2404 76.9514C55.7607 77.2239 55.2201 77.3605 54.6185 77.3612C54.0147 77.3618 53.4726 77.2252 52.9924 76.9515C52.5121 76.6777 52.1324 76.2811 51.8531 75.7616C51.5739 75.2399 51.4339 74.6108 51.4331 73.8743C51.4324 73.1333 51.571 72.5028 51.8492 71.9827C52.1273 71.4627 52.5062 71.0663 52.9859 70.7938C53.4656 70.519 54.0073 70.3813 54.6112 70.3807C55.2128 70.3801 55.7537 70.5166 56.234 70.7904C56.7142 71.0619 57.0939 71.4575 57.3732 71.9769C57.6546 72.4964 57.7957 73.1266 57.7965 73.8676ZM56.34 73.8691C56.3393 73.1481 56.1817 72.5986 55.8672 72.2207C55.5527 71.8406 55.1345 71.6508 54.6125 71.6514C54.0905 71.6519 53.6727 71.8426 53.359 72.2233C53.0453 72.6019 52.8889 73.1517 52.8896 73.8727C52.8904 74.5916 53.048 75.141 53.3624 75.5211C53.6769 75.9012 54.0952 76.091 54.6171 76.0905C55.1391 76.0899 55.557 75.8993 55.8706 75.5185C56.1843 75.1378 56.3408 74.588 56.34 73.8691Z" fill="#3C76F0"/>
<path d="M58.8642 77.2638L58.8571 70.4691L63.3559 70.4644L63.3572 71.6489L60.2949 71.6521L60.2966 73.2711L63.0603 73.2682L63.0615 74.4526L60.2979 74.4555L60.3008 77.2623L58.8642 77.2638Z" fill="#3C76F0"/>
<path d="M64.3293 77.2581L64.3222 70.4634L68.821 70.4587L68.8223 71.6431L65.76 71.6463L65.7617 73.2654L68.5254 73.2625L68.5266 74.4469L65.763 74.4498L65.7659 77.2566L64.3293 77.2581Z" fill="#3C76F0"/>
<rect x="144.251" y="67.6663" width="64.9841" height="18.5669" rx="4.08302" fill="#6391F3"/>
<path d="M162.741 81.1748L162.741 80.5875L164.944 78.1708C165.202 77.8877 165.415 77.6417 165.583 77.4327C165.75 77.2216 165.874 77.0235 165.954 76.8385C166.036 76.6514 166.077 76.4556 166.077 76.2511C166.077 75.8987 165.954 75.6193 165.708 75.413C165.464 75.2066 165.16 75.1036 164.797 75.104C164.41 75.1044 164.102 75.2211 163.874 75.454C163.646 75.6848 163.532 75.9906 163.532 76.3712L162.762 76.372C162.762 75.9805 162.852 75.6367 163.032 75.3407C163.212 75.0447 163.458 74.8139 163.769 74.6482C164.082 74.4826 164.433 74.3996 164.822 74.3992C165.214 74.3988 165.561 74.4811 165.863 74.646C166.166 74.811 166.403 75.0338 166.575 75.3142C166.748 75.5946 166.834 75.9066 166.834 76.2503C166.834 76.4961 166.79 76.7365 166.701 76.9715C166.614 77.2043 166.462 77.4644 166.245 77.7518C166.03 78.037 165.731 78.3853 165.349 78.7968L163.85 80.4036L163.85 80.4558L166.956 80.4526L166.957 81.1704L162.741 81.1748Z" fill="white"/>
<path d="M170.393 81.2582C170.01 81.2586 169.665 81.1828 169.358 81.0308C169.051 80.8789 168.805 80.6704 168.62 80.4052C168.435 80.14 168.333 79.8378 168.316 79.4985L169.099 79.4976C169.129 79.7999 169.267 80.0499 169.511 80.2476C169.757 80.4431 170.05 80.5407 170.392 80.5404C170.666 80.5401 170.909 80.4756 171.122 80.3471C171.338 80.2185 171.506 80.0422 171.628 79.818C171.751 79.5916 171.813 79.336 171.813 79.0511C171.812 78.7596 171.748 78.4997 171.619 78.2715C171.493 78.041 171.319 77.8596 171.097 77.7271C170.875 77.5947 170.621 77.5275 170.336 77.5256C170.132 77.5237 169.922 77.5554 169.707 77.6209C169.492 77.6842 169.314 77.766 169.175 77.8662L168.418 77.7756L168.819 74.4863L172.291 74.4827L172.292 75.2005L169.499 75.2034L169.266 77.1744L169.305 77.1743C169.442 77.0654 169.614 76.975 169.82 76.903C170.027 76.831 170.242 76.7949 170.466 76.7946C170.875 76.7942 171.24 76.8917 171.559 77.0871C171.882 77.2804 172.134 77.5455 172.317 77.8825C172.503 78.2194 172.595 78.6043 172.596 79.0372C172.596 79.4635 172.501 79.8443 172.31 80.1794C172.121 80.5124 171.86 80.7759 171.528 80.9698C171.195 81.1616 170.817 81.2577 170.393 81.2582Z" fill="white"/>
<path d="M174.396 74.4805L176.122 77.2586L176.174 77.2585L177.894 74.4768L178.847 74.4758L176.749 77.8191L178.854 81.1579L177.901 81.1589L176.175 78.4331L176.123 78.4331L174.403 81.1626L173.45 81.1636L175.6 77.8203L173.443 74.4815L174.396 74.4805Z" fill="white"/>
<path d="M179.325 74.4753L180.252 74.4744L182.108 77.5916L182.187 77.5915L184.037 74.4704L184.963 74.4694L182.553 78.4003L182.556 81.1541L181.747 81.1549L181.744 78.4012L179.325 74.4753Z" fill="white"/>
<path d="M185.795 81.1507L185.794 80.5634L189.391 75.1826L185.75 75.1864L185.749 74.4686L190.356 74.4638L190.356 75.0511L186.76 80.4319L190.401 80.428L190.402 81.1458L185.795 81.1507Z" fill="white"/>
<path opacity="0.1" d="M199 125.444L154.556 125.48" stroke="#242830" stroke-width="3.63565" stroke-linecap="round" stroke-linejoin="round"/>
<g opacity="0.5">
<path d="M62.0314 128.067V121.385H66.0381V122.103H62.8406V124.36H65.7379V125.078H62.8406V128.067H62.0314Z" fill="#242830"/>
<path d="M67.2657 128.067V123.055H68.0096V123.812H68.0618C68.151 123.564 68.3152 123.363 68.5544 123.209C68.7937 123.054 69.0645 122.977 69.3669 122.977C69.5061 122.977 69.6279 122.993 69.7323 123.026C69.8367 123.059 69.9281 123.103 70.0064 123.16L69.7453 123.812C69.691 123.784 69.6268 123.762 69.5528 123.747C69.4811 123.73 69.3973 123.721 69.3016 123.721C68.9362 123.721 68.6338 123.833 68.3946 124.057C68.1553 124.279 68.0357 124.558 68.0357 124.896V128.067H67.2657Z" fill="#242830"/>
<path d="M72.7405 128.171C72.2577 128.171 71.8411 128.065 71.4909 127.852C71.1429 127.636 70.8743 127.336 70.685 126.951C70.498 126.564 70.4044 126.114 70.4044 125.6C70.4044 125.087 70.498 124.635 70.685 124.243C70.8743 123.849 71.1375 123.543 71.4746 123.323C71.8139 123.101 72.2098 122.99 72.6622 122.99C72.9233 122.99 73.181 123.034 73.4355 123.121C73.69 123.208 73.9217 123.349 74.1305 123.545C74.3393 123.738 74.5057 123.995 74.6297 124.315C74.7537 124.635 74.8157 125.028 74.8157 125.496V125.822H71.1777C71.1951 126.357 71.3463 126.767 71.6312 127.052C71.9183 127.337 72.2881 127.48 72.7405 127.48C73.0429 127.48 73.3028 127.414 73.5203 127.284C73.7379 127.153 73.8956 126.958 73.9934 126.697L74.7373 126.905C74.6199 127.284 74.385 127.589 74.0326 127.822C73.6802 128.055 73.2495 128.171 72.7405 128.171ZM71.1777 125.157H74.0326C74.0326 124.732 73.9086 124.381 73.6606 124.103C73.4127 123.822 73.0799 123.682 72.6622 123.682C72.3686 123.682 72.1141 123.75 71.8988 123.887C71.6834 124.024 71.5138 124.206 71.3898 124.432C71.2658 124.656 71.1951 124.898 71.1777 125.157Z" fill="#242830"/>
<path d="M78.0882 128.171C77.6053 128.171 77.1888 128.065 76.8386 127.852C76.4905 127.636 76.2219 127.336 76.0327 126.951C75.8456 126.564 75.7521 126.114 75.7521 125.6C75.7521 125.087 75.8456 124.635 76.0327 124.243C76.2219 123.849 76.4851 123.543 76.8222 123.323C77.1616 123.101 77.5574 122.99 78.0099 122.99C78.2709 122.99 78.5287 123.034 78.7832 123.121C79.0376 123.208 79.2693 123.349 79.4781 123.545C79.6869 123.738 79.8533 123.995 79.9773 124.315C80.1013 124.635 80.1633 125.028 80.1633 125.496V125.822H76.5253C76.5427 126.357 76.6939 126.767 76.9789 127.052C77.266 127.337 77.6358 127.48 78.0882 127.48C78.3905 127.48 78.6505 127.414 78.868 127.284C79.0855 127.153 79.2432 126.958 79.3411 126.697L80.085 126.905C79.9675 127.284 79.7326 127.589 79.3802 127.822C79.0279 128.055 78.5972 128.171 78.0882 128.171ZM76.5253 125.157H79.3802C79.3802 124.732 79.2563 124.381 79.0083 124.103C78.7603 123.822 78.4275 123.682 78.0099 123.682C77.7162 123.682 77.4617 123.75 77.2464 123.887C77.0311 124.024 76.8614 124.206 76.7374 124.432C76.6134 124.656 76.5427 124.898 76.5253 125.157Z" fill="#242830"/>
<path d="M87.4686 124.178L86.7769 124.374C86.7094 124.2 86.5963 124.036 86.4376 123.884C86.2788 123.732 86.0308 123.656 85.6936 123.656C85.3869 123.656 85.1314 123.726 84.9269 123.868C84.7246 124.007 84.6235 124.184 84.6235 124.4C84.6235 124.591 84.6931 124.742 84.8323 124.853C84.9715 124.964 85.189 125.057 85.4848 125.13L86.2287 125.313C87.1162 125.531 87.5599 125.983 87.5599 126.67C87.5599 126.958 87.4773 127.214 87.312 127.44C87.1488 127.667 86.9204 127.845 86.6268 127.976C86.3331 128.106 85.9916 128.171 85.6023 128.171C85.0911 128.171 84.6681 128.06 84.3331 127.839C83.9981 127.617 83.786 127.293 83.6968 126.866L84.4277 126.684C84.5647 127.223 84.9519 127.493 85.5892 127.493C85.9481 127.493 86.2331 127.417 86.4441 127.264C86.6572 127.11 86.7638 126.925 86.7638 126.71C86.7638 126.355 86.5159 126.12 86.0199 126.005L85.1847 125.809C84.7257 125.7 84.3885 125.532 84.1732 125.303C83.96 125.073 83.8535 124.785 83.8535 124.439C83.8535 124.156 83.9329 123.906 84.0916 123.688C84.2526 123.471 84.4712 123.3 84.7475 123.176C85.0259 123.052 85.3413 122.99 85.6936 122.99C86.1896 122.99 86.5789 123.099 86.8617 123.316C87.1467 123.534 87.3489 123.821 87.4686 124.178Z" fill="#242830"/>
<path d="M89.489 125.052V128.067H88.719V121.385H89.489V123.838H89.5543C89.6717 123.58 89.8479 123.374 90.0829 123.222C90.3199 123.067 90.6353 122.99 91.0291 122.99C91.5424 122.99 91.9557 123.145 92.2689 123.453C92.5821 123.762 92.7387 124.239 92.7387 124.883V128.067H91.9687V124.935C91.9687 124.537 91.8654 124.229 91.6588 124.011C91.4543 123.792 91.1704 123.682 90.8072 123.682C90.4265 123.682 90.1111 123.801 89.861 124.041C89.613 124.278 89.489 124.615 89.489 125.052Z" fill="#242830"/>
<path d="M94.1474 128.067V123.055H94.9174V128.067H94.1474ZM94.5389 122.22C94.3889 122.22 94.2594 122.169 94.1507 122.067C94.0441 121.965 93.9908 121.842 93.9908 121.698C93.9908 121.555 94.0441 121.432 94.1507 121.329C94.2594 121.227 94.3889 121.176 94.5389 121.176C94.689 121.176 94.8174 121.227 94.924 121.329C95.0327 121.432 95.0871 121.555 95.0871 121.698C95.0871 121.842 95.0327 121.965 94.924 122.067C94.8174 122.169 94.689 122.22 94.5389 122.22Z" fill="#242830"/>
<path d="M96.3277 129.946V123.055H97.0717V123.851H97.163C97.2196 123.764 97.2979 123.654 97.3979 123.519C97.5002 123.382 97.6459 123.26 97.8351 123.153C98.0266 123.044 98.2854 122.99 98.6117 122.99C99.0336 122.99 99.4056 123.096 99.7275 123.307C100.049 123.518 100.301 123.817 100.481 124.204C100.662 124.591 100.752 125.048 100.752 125.574C100.752 126.105 100.662 126.565 100.481 126.954C100.301 127.342 100.051 127.642 99.7308 127.855C99.411 128.066 99.0424 128.171 98.6247 128.171C98.3028 128.171 98.045 128.118 97.8515 128.011C97.6579 127.903 97.5089 127.78 97.4045 127.643C97.3 127.504 97.2196 127.388 97.163 127.297H97.0978V129.946H96.3277ZM97.0847 125.561C97.0847 126.129 97.2076 126.591 97.4534 126.948C97.7014 127.302 98.057 127.48 98.5203 127.48C98.8422 127.48 99.1109 127.395 99.3262 127.225C99.5437 127.053 99.7069 126.823 99.8156 126.533C99.9266 126.242 99.982 125.918 99.982 125.561C99.982 125.209 99.9276 124.891 99.8189 124.608C99.7123 124.323 99.5503 124.098 99.3327 123.933C99.1174 123.766 98.8466 123.682 98.5203 123.682C98.0505 123.682 97.6937 123.855 97.4501 124.201C97.2065 124.546 97.0847 125 97.0847 125.561Z" fill="#242830"/>
<path d="M101.927 129.946V123.055H102.671V123.851H102.762C102.818 123.764 102.897 123.654 102.997 123.519C103.099 123.382 103.245 123.26 103.434 123.153C103.625 123.044 103.884 122.99 104.211 122.99C104.633 122.99 105.004 123.096 105.326 123.307C105.648 123.518 105.9 123.817 106.08 124.204C106.261 124.591 106.351 125.048 106.351 125.574C106.351 126.105 106.261 126.565 106.08 126.954C105.9 127.342 105.649 127.642 105.33 127.855C105.01 128.066 104.641 128.171 104.224 128.171C103.902 128.171 103.644 128.118 103.45 128.011C103.257 127.903 103.108 127.78 103.003 127.643C102.899 127.504 102.818 127.388 102.762 127.297H102.697V129.946H101.927ZM102.684 125.561C102.684 126.129 102.806 126.591 103.052 126.948C103.3 127.302 103.656 127.48 104.119 127.48C104.441 127.48 104.71 127.395 104.925 127.225C105.143 127.053 105.306 126.823 105.414 126.533C105.525 126.242 105.581 125.918 105.581 125.561C105.581 125.209 105.527 124.891 105.418 124.608C105.311 124.323 105.149 124.098 104.932 123.933C104.716 123.766 104.445 123.682 104.119 123.682C103.649 123.682 103.293 123.855 103.049 124.201C102.805 124.546 102.684 125 102.684 125.561Z" fill="#242830"/>
<path d="M107.525 128.067V123.055H108.295V128.067H107.525ZM107.917 122.22C107.767 122.22 107.638 122.169 107.529 122.067C107.422 121.965 107.369 121.842 107.369 121.698C107.369 121.555 107.422 121.432 107.529 121.329C107.638 121.227 107.767 121.176 107.917 121.176C108.067 121.176 108.195 121.227 108.302 121.329C108.411 121.432 108.465 121.555 108.465 121.698C108.465 121.842 108.411 121.965 108.302 122.067C108.195 122.169 108.067 122.22 107.917 122.22Z" fill="#242830"/>
<path d="M110.476 125.052V128.067H109.706V123.055H110.45V123.838H110.515C110.632 123.584 110.811 123.379 111.05 123.225C111.289 123.068 111.598 122.99 111.977 122.99C112.484 122.99 112.892 123.146 113.203 123.457C113.517 123.768 113.673 124.243 113.673 124.883V128.067H112.903V124.935C112.903 124.541 112.801 124.234 112.597 124.015C112.392 123.793 112.112 123.682 111.755 123.682C111.387 123.682 111.082 123.801 110.838 124.041C110.597 124.278 110.476 124.615 110.476 125.052Z" fill="#242830"/>
<path d="M117.103 130.051C116.544 130.051 116.102 129.948 115.775 129.744C115.451 129.542 115.211 129.309 115.054 129.046L115.668 128.615C115.737 128.706 115.825 128.811 115.932 128.928C116.039 129.048 116.184 129.151 116.369 129.238C116.556 129.327 116.801 129.372 117.103 129.372C117.508 129.372 117.842 129.274 118.105 129.078C118.368 128.883 118.5 128.576 118.5 128.158V127.14H118.434C118.378 127.232 118.297 127.345 118.193 127.48C118.091 127.612 117.943 127.731 117.749 127.835C117.558 127.938 117.299 127.989 116.973 127.989C116.568 127.989 116.205 127.893 115.883 127.702C115.563 127.51 115.31 127.232 115.123 126.866C114.938 126.501 114.845 126.057 114.845 125.535C114.845 125.022 114.936 124.575 115.116 124.194C115.297 123.811 115.548 123.515 115.87 123.307C116.192 123.096 116.564 122.99 116.986 122.99C117.312 122.99 117.571 123.044 117.762 123.153C117.956 123.26 118.104 123.382 118.206 123.519C118.31 123.654 118.391 123.764 118.448 123.851H118.526V123.055H119.27V128.211C119.27 128.641 119.172 128.991 118.976 129.261C118.783 129.533 118.521 129.732 118.193 129.858C117.867 129.987 117.504 130.051 117.103 130.051ZM117.077 127.297C117.54 127.297 117.895 127.14 118.141 126.827C118.389 126.512 118.513 126.077 118.513 125.522C118.513 124.98 118.391 124.539 118.147 124.197C117.904 123.854 117.547 123.682 117.077 123.682C116.751 123.682 116.479 123.764 116.261 123.93C116.046 124.095 115.884 124.317 115.775 124.595C115.669 124.874 115.615 125.183 115.615 125.522C115.615 126.044 115.738 126.47 115.984 126.801C116.23 127.132 116.594 127.297 117.077 127.297Z" fill="#242830"/>
</g>
<path d="M44.037 120.111H33.6667V129.099H44.037V120.111Z" fill="#F1F5FE"/>
<path d="M44.037 123.568H46.8025L48.8765 125.642V129.099H44.037V123.568Z" fill="#F1F5FE"/>
<path d="M36.7778 132.556C37.7323 132.556 38.5062 131.782 38.5062 130.827C38.5062 129.873 37.7323 129.099 36.7778 129.099C35.8232 129.099 35.0494 129.873 35.0494 130.827C35.0494 131.782 35.8232 132.556 36.7778 132.556Z" fill="#F1F5FE"/>
<path d="M45.7654 132.556C46.72 132.556 47.4938 131.782 47.4938 130.827C47.4938 129.873 46.72 129.099 45.7654 129.099C44.8109 129.099 44.037 129.873 44.037 130.827C44.037 131.782 44.8109 132.556 45.7654 132.556Z" fill="#F1F5FE"/>
<path d="M44.037 129.099V120.111H33.6667V129.099H44.037ZM44.037 129.099H48.8765V125.642L46.8025 123.568H44.037V129.099ZM38.5062 130.827C38.5062 131.782 37.7323 132.556 36.7778 132.556C35.8232 132.556 35.0494 131.782 35.0494 130.827C35.0494 129.873 35.8232 129.099 36.7778 129.099C37.7323 129.099 38.5062 129.873 38.5062 130.827ZM47.4938 130.827C47.4938 131.782 46.72 132.556 45.7654 132.556C44.8109 132.556 44.037 131.782 44.037 130.827C44.037 129.873 44.8109 129.099 45.7654 129.099C46.72 129.099 47.4938 129.873 47.4938 130.827Z" stroke="#242830" stroke-width="0.781898" stroke-linecap="round" stroke-linejoin="round"/>
<line opacity="0.1" x1="31" y1="104.609" x2="209.667" y2="104.609" stroke="#242830" stroke-width="0.781898"/>
<path d="M150.213 162.246C152.539 160.395 155.915 160.773 157.753 163.089C159.59 165.405 159.194 168.783 156.868 170.634C154.541 172.484 151.166 172.107 149.328 169.79C147.49 167.474 147.886 164.096 150.213 162.246Z" fill="url(#paint0_linear)"/>
<path d="M108.578 109.9C110.287 109.895 111.924 109.213 113.131 108.002C114.337 106.791 115.013 105.151 115.011 103.442C115.009 101.732 114.328 100.094 113.119 98.886C111.91 97.6782 110.27 96.9998 108.561 96.9998C106.852 96.9998 105.212 97.6782 104.003 98.886C102.794 100.094 102.113 101.732 102.111 103.442C102.109 105.151 102.785 106.791 103.991 108.002C105.198 109.213 106.835 109.895 108.545 109.9H108.578Z" fill="url(#paint1_linear)"/>
<path d="M252.804 53.4442C255.513 53.4373 258.108 52.3555 260.02 50.4363C261.932 48.5172 263.003 45.9178 263 43.2089C262.996 40.5001 261.918 37.9034 260.001 35.9892C258.085 34.0749 255.487 32.9998 252.778 32.9998C250.069 32.9998 247.471 34.0749 245.554 35.9892C243.638 37.9034 242.559 40.5001 242.556 43.2089C242.552 45.9178 243.624 48.5172 245.536 50.4363C247.447 52.3555 250.043 53.4373 252.752 53.4442H252.804Z" fill="url(#paint2_linear)"/>
</g>
<defs>
<filter id="filter0_d" x="-1.55498" y="8.44502" width="242.827" height="151.16" filterUnits="userSpaceOnUse" color-interpolation-filters="sRGB">
<feFlood flood-opacity="0" result="BackgroundImageFix"/>
<feColorMatrix in="SourceAlpha" type="matrix" values="0 0 0 0 0 0 0 0 0 0 0 0 0 0 0 0 0 0 127 0"/>
<feOffset/>
<feGaussianBlur stdDeviation="4.27749"/>
<feColorMatrix type="matrix" values="0 0 0 0 0 0 0 0 0 0 0 0 0 0 0 0 0 0 0.12 0"/>
<feBlend mode="normal" in2="BackgroundImageFix" result="effect1_dropShadow"/>
<feBlend mode="normal" in="SourceGraphic" in2="effect1_dropShadow" result="shape"/>
</filter>
<linearGradient id="paint0_linear" x1="147.922" y1="164.068" x2="158.868" y2="169.068" gradientUnits="userSpaceOnUse">
<stop stop-color="#3C76F0" stop-opacity="0"/>
<stop offset="1" stop-color="#3C76F0"/>
</linearGradient>
<linearGradient id="paint1_linear" x1="117.698" y1="106.599" x2="102.861" y2="102.444" gradientUnits="userSpaceOnUse">
<stop stop-color="#66C789"/>
<stop offset="1" stop-color="#66C789" stop-opacity="0"/>
</linearGradient>
<linearGradient id="paint2_linear" x1="267.259" y1="48.2122" x2="243.744" y2="41.6282" gradientUnits="userSpaceOnUse">
<stop stop-color="#66C789"/>
<stop offset="1" stop-color="#66C789" stop-opacity="0"/>
</linearGradient>
<clipPath id="clip0">
<rect width="263" height="180" fill="white"/>
</clipPath>
</defs>
</svg>
