<svg width="539" height="390" viewBox="0 0 539 390" fill="none" xmlns="http://www.w3.org/2000/svg">
<rect x="183" width="162" height="90" rx="10" fill="#7023F0"/>
<path fill-rule="evenodd" clip-rule="evenodd" d="M279.963 51.3729C278.36 51.3729 277.153 50.1176 277.153 48.4552C277.153 46.7916 278.36 45.5396 279.963 45.5396C281.538 45.5396 282.724 46.7927 282.724 48.4552C282.724 50.1187 281.537 51.3718 279.963 51.3718V51.3729ZM282.56 43.6649C281.501 42.5683 280.107 42.2202 278.969 42.2202C275.449 42.2706 273.55 45.4455 273.55 48.4803C273.55 52.5461 276.304 54.7404 278.895 54.7404C281.045 54.7404 282.131 53.657 282.588 53.1448V54.4876H286.204V36.6748H282.562V43.6649H282.56Z" fill="white"/>
<mask id="mask0" mask-type="alpha" maskUnits="userSpaceOnUse" x="206" y="34" width="39" height="22">
<path d="M206 34H244.574V55.0655H206V34Z" fill="#242830"/>
</mask>
<g mask="url(#mask0)">
<path fill-rule="evenodd" clip-rule="evenodd" d="M237.442 44.3795C238.517 44.9289 237.809 47.5795 234.827 48.8939C234.678 46.1666 236.368 43.8268 237.442 44.3784V44.3795ZM243.806 48.6751C243.03 48.3314 242.187 48.6422 241.816 49.5287C241.018 51.4626 238.235 52.7441 236.467 51.4275C238.13 50.4502 239.756 49.1446 240.665 47.0936C241.573 45.0427 240.8 40.6004 236.682 41.2779C234.462 41.6937 230.925 44.5349 231.851 49.7126C228.901 50.3517 229.392 46.0933 230.698 40.1889C231.065 38.509 231.238 37.2197 230.012 36.2348C228.935 35.3702 227.724 36.0049 226.816 36.7601C224.85 38.5002 222.38 41.685 221.095 43.401C221.652 40.1156 222.524 35.9414 221.862 34.8667C221.204 33.7909 219.963 33.7635 218.843 34.5296C216.313 36.5587 211.843 42.7794 211.843 42.7794C211.843 42.7794 212.053 42.0571 212.13 41.2691C212.205 40.4778 211.828 39.68 210.921 39.4742C210.096 39.2849 209.08 39.7216 208.894 40.6256C207.879 45.5264 207.054 48.0808 206.038 52.9816C205.864 53.8243 206.283 54.8049 207.188 55.0118C207.611 55.1081 208.084 55.0884 208.458 54.8454C208.805 54.6222 209.026 54.2785 209.161 53.9863C210.981 49.2978 215.508 42.8746 218.537 39.46C218.611 39.3834 218.773 39.4272 218.745 39.5727C218.367 41.5909 217.398 46.5792 217.355 47.2753C217.309 47.9713 217.397 48.8513 218.277 49.1686C219.157 49.486 219.874 49.3273 220.869 48.4682C221.865 47.6102 225.456 43.1657 226.652 41.732C226.754 41.6193 226.934 41.6095 226.861 41.8743C224.446 49.8636 227.357 54.3562 233.169 52.7682C237.177 57.3013 243.008 54.2949 244.413 50.7184C244.737 49.9118 244.583 49.022 243.806 48.6783" fill="white"/>
</g>
<mask id="mask1" mask-type="alpha" maskUnits="userSpaceOnUse" x="206" y="34" width="112" height="22">
<path d="M206 55.0655H317.672V34H206V55.0655Z" fill="#242830"/>
</mask>
<g mask="url(#mask1)">
<path fill-rule="evenodd" clip-rule="evenodd" d="M288.427 54.5139H292.258V42.9217H288.427V54.5139ZM268.03 42.287C266.225 42.287 265.412 42.8451 264.488 43.9067V42.5409H260.823V54.5576H264.513V47.9145C264.513 46.3407 265.253 45.4017 266.493 45.4017C267.757 45.4017 268.424 46.2094 268.424 47.7383V54.5533H272.192V46.8048C272.192 44.0173 270.596 42.2848 268.031 42.2848L268.03 42.287ZM255.007 48.4508C255.007 50.1143 254.037 51.282 252.43 51.282C251.004 51.282 249.903 50.2719 249.903 48.4497V36.6354H246.019V48.3238C246.019 52.7125 248.752 54.7656 252.43 54.7656C257.283 54.7656 258.864 51.4867 258.864 48.3238V36.6354H255.007V48.4508ZM290.346 36.6441C289.09 36.6441 288.071 37.6641 288.071 38.9227C288.071 40.1813 289.09 41.2013 290.346 41.2013C291.602 41.2013 292.623 40.1802 292.623 38.9227C292.623 37.6641 291.602 36.6441 290.346 36.6441V36.6441ZM297.456 47.0477C298.012 45.6075 299.225 45.1106 300.312 45.1106C301.863 45.1106 302.746 45.9489 303.089 47.0477H297.456V47.0477ZM300.236 42.1819C296.822 42.1819 293.904 44.7691 293.904 48.488C293.904 52.6074 296.943 54.8685 300.212 54.8685C303.823 54.8685 305.492 52.754 306.233 51.0489H302.316C301.943 51.4801 301.312 51.8873 300.262 51.8873C298.87 51.8873 297.629 51.0303 297.353 49.5736H306.569V48.5493C306.569 44.8337 303.845 42.1819 300.237 42.1819H300.236ZM311.253 45.903C311.253 45.4597 311.575 44.9858 312.496 44.9858C313.594 44.9858 313.78 45.6096 313.823 45.9194H317.508C317.42 44.7899 316.965 43.8914 316.149 43.249C315.252 42.5409 314.022 42.183 312.496 42.183C310.461 42.183 308.774 42.8364 307.924 44.4791C307.704 44.9461 307.592 45.4594 307.597 45.9785C307.597 46.6351 307.717 47.178 307.953 47.5895C308.428 48.3807 309.035 48.8863 310.085 49.2595C312.064 49.9315 313.99 49.7488 313.99 50.7447C313.99 51.4889 313.386 51.7373 312.647 51.7373C312.227 51.7373 311.53 51.6388 311.311 51.05H307.501C307.777 53.3647 309.15 54.0466 310.273 54.4537C310.922 54.6616 311.722 54.7678 312.646 54.7678C313.487 54.7678 314.227 54.6561 314.849 54.4318C316.123 53.9688 317.673 52.9084 317.673 50.6954C317.673 50.0497 317.566 49.5069 317.36 49.0823C317.051 48.3993 316.37 47.804 315.531 47.4713C314.529 47.0488 312.473 46.819 311.588 46.4228C311.491 46.377 311.408 46.3042 311.349 46.2125C311.29 46.1209 311.257 46.014 311.253 45.904V45.903Z" fill="white"/>
</g>
<rect x="377" y="99" width="162" height="90" rx="10" fill="#003399"/>
<path d="M411.25 147.1C411.25 149.758 409.783 150.583 408.042 150.583C406.85 150.583 406.117 149.758 406.117 148.842C406.117 147.742 406.85 147.192 407.858 147.008L411.25 146.55V147.1ZM414.367 143.8C414.367 141.05 412.808 138.758 408.775 138.758C405.567 138.758 403.55 140.867 403.275 143.158L406.117 143.8C406.208 142.517 407.125 141.417 408.775 141.417C410.517 141.417 411.25 142.333 411.25 143.433C411.25 143.892 411.067 144.258 410.242 144.442L406.85 144.992C404.742 145.267 403 146.642 403 149.117C403 151.225 404.65 153.242 407.4 153.242C409.508 153.242 410.792 152.142 411.433 151.133C411.433 152.233 411.525 152.783 411.525 152.875H414.458C414.458 152.692 414.275 151.958 414.275 150.675L414.367 143.8ZM454.517 141.783C454.058 141.233 453.875 140.683 453.875 140.225C453.875 139.675 454.058 139.217 454.425 138.942C454.7 138.667 455.158 138.483 455.617 138.483C456.9 138.483 457.45 139.492 457.633 140.317V140.408L459.833 138.575V138.483C459.1 136.65 457.633 135.642 455.617 135.642C453.508 135.642 451.308 137.108 451.125 139.767V140.133C451.125 141.508 451.95 142.792 452.408 143.433C450.758 144.808 449.658 146.092 449.658 148.292C449.658 149.575 450.208 150.858 451.033 151.775C452.042 152.783 453.417 153.333 455.067 153.333C457.083 153.333 458.825 152.508 459.925 151.042L461.758 152.783H465.608L454.975 142.333C454.792 142.15 454.7 141.967 454.517 141.783ZM454.242 145.358L457.908 148.933C457.45 149.758 456.533 150.767 454.975 150.767C454.608 150.767 454.242 150.675 453.967 150.583C453.142 150.125 452.5 149.3 452.5 148.292C452.5 147.192 452.958 146.275 454.058 145.45L454.242 145.358ZM436.458 138.758C433.158 138.758 430.133 141.6 430.133 145.908C430.133 150.492 433.25 153.242 436.825 153.242C439.942 153.242 442.05 151.317 442.692 148.933L440.033 148.108C439.575 149.483 438.658 150.492 436.733 150.492C434.808 150.492 433.25 149.025 433.158 146.917H442.692C442.692 146.825 442.783 146.458 442.783 145.908C442.875 141.508 440.492 138.758 436.458 138.758ZM433.25 144.442C433.342 142.975 434.533 141.417 436.458 141.417C438.567 141.417 439.667 142.883 439.667 144.442H433.25ZM422.983 150.217C421.058 150.217 419.317 148.658 419.317 145.908C419.317 143.158 420.967 141.692 422.892 141.692C424.908 141.692 425.733 143.067 426.1 144.258L428.85 143.158C428.3 140.958 426.375 138.667 422.892 138.667C419.133 138.667 416.2 141.692 416.2 145.908C416.2 150.033 419.133 153.15 422.983 153.15C426.375 153.15 428.392 150.858 429.033 148.75L426.283 147.742C426.008 148.75 425.092 150.217 422.983 150.217ZM513 145.817C513 141.508 510.617 138.758 506.583 138.758C503.283 138.758 500.258 141.6 500.258 145.908C500.258 150.492 503.375 153.242 506.95 153.242C510.067 153.242 512.175 151.317 512.817 148.933L510.158 148.108C509.7 149.483 508.783 150.492 506.858 150.492C504.933 150.492 503.375 149.025 503.283 146.917H512.817C512.908 146.825 513 146.367 513 145.817ZM503.467 144.442C503.558 142.975 504.658 141.417 506.675 141.417C508.783 141.417 509.883 142.883 509.883 144.442H503.467ZM496.317 148.383V142.058H499.067V139.125H496.317V135H493.475V137.017C493.475 138.208 492.833 139.125 491.458 139.125H490.817V141.967H493.2V148.842C493.2 151.408 494.667 152.875 497.142 152.875C498.242 152.875 498.883 152.692 499.067 152.6V149.942C498.7 150.033 498.333 150.033 497.967 150.033C496.775 150.033 496.317 149.575 496.317 148.383ZM489.442 143.8C489.442 141.05 487.883 138.667 483.85 138.667C480.642 138.667 478.625 140.775 478.35 143.067L481.192 143.708C481.375 142.517 482.292 141.417 483.85 141.417C485.592 141.417 486.325 142.333 486.325 143.525C486.325 143.983 486.142 144.35 485.317 144.533L481.925 145.083C479.725 145.45 477.983 146.733 477.983 149.208C477.983 151.408 479.633 153.333 482.383 153.333C484.492 153.333 485.775 152.233 486.417 151.225C486.417 152.325 486.508 152.875 486.508 152.967H489.442C489.442 152.783 489.258 152.05 489.258 150.767C489.442 150.583 489.442 143.8 489.442 143.8ZM486.325 147.1C486.325 149.758 484.858 150.583 483.117 150.583C481.925 150.583 481.192 149.758 481.192 148.842C481.192 147.742 481.925 147.192 482.933 147.008L486.325 146.458V147.1ZM473.492 148.383V142.058H476.242V139.125H473.492V135H470.65V137.017C470.65 138.208 470.008 139.125 468.633 139.125H467.992V141.967H470.375V148.842C470.375 151.408 471.842 152.875 474.317 152.875C475.417 152.875 476.058 152.692 476.242 152.6V149.942C476.15 149.942 475.6 150.033 475.142 150.033C474.042 150.033 473.492 149.575 473.492 148.383Z" fill="white"/>
<rect x="83" y="153" width="162" height="90" rx="10" fill="#EF4023"/>
<path d="M131.282 188.263H118.132C118.132 188.263 118 188.263 118 188.394V208.738C118 208.738 118 208.869 118.132 208.869H122.077C122.077 208.869 122.208 208.869 122.208 208.738V200.075H129.704C129.704 200.075 129.836 200.075 129.836 199.944V196.4C129.836 196.4 129.836 196.269 129.704 196.269H122.077V191.806H131.414C131.414 191.806 131.545 191.806 131.545 191.675L131.282 188.263C131.414 188.263 131.414 188.263 131.282 188.263ZM149.825 205.194H141.014V188.263C141.014 188.263 141.014 188.131 140.882 188.131H137.068C137.068 188.131 136.937 188.131 136.937 188.263V208.606C136.937 208.606 136.937 208.738 137.068 208.738H149.825C149.825 208.738 149.956 208.737 149.956 208.606L149.825 205.194C149.956 205.194 149.825 205.194 149.825 205.194V205.194ZM163.238 188C161.397 188 159.819 188.394 158.241 189.05C155.216 190.625 153.244 194.169 153.244 198.5C153.244 200.731 153.77 202.7 154.69 204.406C156.532 207.425 159.425 209 163.238 209C165.079 209 166.658 208.606 168.236 207.95C171.392 206.375 173.233 202.831 173.233 198.5C173.233 196.269 172.707 194.3 171.786 192.594C170.077 189.575 167.184 188 163.238 188ZM163.238 205.325C161.529 205.325 160.214 204.8 159.03 203.619C157.978 202.437 157.321 200.731 157.321 198.5C157.321 196.269 157.847 194.562 159.03 193.381C160.214 192.2 161.529 191.675 163.238 191.675C164.948 191.675 166.395 192.2 167.447 193.381C168.499 194.562 169.156 196.269 169.156 198.5C169.156 200.731 168.63 202.437 167.447 203.619C166.395 204.8 164.948 205.325 163.238 205.325ZM192.564 188.263H188.356H188.225L184.411 196.006L180.597 188.263H176.258H176.126V188.394L182.438 200.075V208.738C182.438 208.738 182.438 208.869 182.57 208.869H186.515C186.515 208.869 186.647 208.869 186.647 208.738V200.075L192.564 188.263V188.263ZM204.137 188.263H197.562C197.562 188.263 197.43 188.263 197.43 188.394V208.738C197.43 208.738 197.43 208.869 197.562 208.869H204.137C208.608 208.869 214 206.244 214 198.631C214 190.888 208.74 188.263 204.137 188.263V188.263ZM201.638 191.806H202.953C204.795 191.806 206.373 192.2 207.688 193.119C209.134 194.038 209.923 196.006 209.923 198.5C209.923 200.994 209.134 202.831 207.688 203.881C206.373 204.8 204.926 205.194 202.953 205.194H201.638V191.806V191.806Z" fill="white"/>
<rect y="304" width="166" height="86" rx="10" fill="#111111"/>
<path fill-rule="evenodd" clip-rule="evenodd" d="M137 365H30V328H137V365ZM57.0369 353.827H60.5565L53.8416 339.173H51.1325L44.4165 353.827H47.935L48.9174 351.526H56.0545L57.0369 353.827V353.827ZM50.1934 348.537L52.4848 343.169L54.7773 348.537H50.1934V348.537ZM115.131 344.65L118.738 339.174H122.583L116.728 348.061V353.827H113.533V348.061L107.677 339.174H111.524L115.131 344.65V344.65ZM103.432 353.827H106.951L100.236 339.173H97.5261L90.8102 353.827H94.3298L95.3121 351.526H102.449L103.432 353.827ZM96.5882 348.537L98.8795 343.169L101.171 348.537H96.5882ZM81.6207 349.83L86.1716 339.172H89.6912L82.9752 353.826H80.2661L75.6833 343.824L71.0994 353.826H68.3902L61.6743 339.172H65.195L69.7448 349.83L74.2946 339.172H77.0402L81.6207 349.83Z" fill="white"/>
<rect x="295" y="255" width="166" height="86" rx="10" fill="#1E306E"/>
<path d="M358.124 290.368C353.045 290.368 349.181 294.168 349.181 299.579C349.181 304.99 353.045 308.789 358.124 308.789C360.553 308.789 362.431 307.638 363.203 306.717V308.559H367.178V290.599H363.203V292.441C362.431 291.52 360.443 290.368 358.124 290.368V290.368ZM358.235 304.99C355.253 304.99 353.045 302.572 353.045 299.579C353.045 296.586 355.364 294.168 358.235 294.168C361.106 294.168 363.314 296.586 363.314 299.579C363.314 302.572 361.106 304.99 358.235 304.99ZM392.353 290.368C390.035 290.368 388.268 291.289 387.164 292.441V290.599H383.299V318L387.164 317.539V306.602C388.268 307.868 390.145 308.674 392.353 308.674C397.653 308.674 401.187 305.105 401.187 299.464C401.187 293.937 397.653 290.368 392.353 290.368ZM392.243 304.99C389.151 304.99 387.164 302.687 387.164 299.579C387.164 296.47 389.151 294.168 392.243 294.168C395.335 294.168 397.433 296.47 397.433 299.579C397.322 302.687 395.335 304.99 392.243 304.99V304.99ZM430.999 290.368C428.57 290.368 427.245 291.289 426.472 292.441V290.599H422.608V308.559H426.472V298.658C426.472 296.01 428.239 294.168 430.668 294.168H430.999V290.368ZM411.566 290.368C406.487 290.368 402.512 294.513 402.512 299.579C402.512 304.645 406.487 308.789 411.566 308.789C415.762 308.789 419.185 306.372 420.289 303.148H415.651C415.099 304.299 413.664 305.105 411.566 305.105C409.026 305.105 407.039 303.263 406.597 300.961H420.399C420.51 300.5 420.51 300.039 420.51 299.579C420.51 294.513 416.535 290.368 411.566 290.368ZM406.818 297.391C407.37 295.549 409.247 294.053 411.566 294.053C413.774 294.053 415.762 295.549 416.314 297.391H406.818ZM375.46 293.937C374.687 293.937 373.803 294.283 373.803 295.319C373.803 296.47 374.908 296.816 377.006 297.622C379.876 298.773 381.312 300.155 381.312 302.918C381.312 305.796 378.993 308.789 375.018 308.789C371.043 308.789 368.945 305.681 368.835 303.148H372.589C372.81 304.299 373.693 305.22 375.018 305.22C376.453 305.22 377.337 304.184 377.337 303.033C377.337 302.227 377.006 301.306 374.576 300.615C371.926 299.924 370.049 298.428 370.049 295.434C370.049 292.671 372.368 290.484 375.349 290.484C377.999 290.484 379.656 292.441 380.428 293.707L377.226 295.204C376.785 294.283 376.122 293.937 375.46 293.937" fill="white"/>
<path d="M337.477 283C330.41 283 325 288.757 325 295.895C325 303.033 330.41 308.789 337.477 308.789C342.004 308.789 346.2 306.257 348.077 302.688L344.433 300.615C342.998 303.263 340.569 304.76 337.477 304.76C335.269 304.76 333.06 303.839 331.625 302.227C330.079 300.5 329.196 298.313 329.196 296.01C329.196 293.707 330.079 291.52 331.625 289.793C333.06 288.181 335.158 287.26 337.477 287.26C339.906 287.26 341.342 288.066 342.335 288.872C343.44 289.678 344.544 290.484 346.421 290.484C349.844 290.484 351.39 287.605 351.721 286.109L347.856 285.303C347.856 285.418 347.525 286.569 346.421 286.569C345.869 286.569 345.537 286.339 344.765 285.763C343.329 284.382 341.452 283 337.477 283" fill="white"/>
</svg>
