<svg width="256" height="179" viewBox="0 0 256 179" fill="none" xmlns="http://www.w3.org/2000/svg">
<g clip-path="url(#clip0)">
<path d="M1.4007 0.000244142C0.650922 0.000206077 0.0163641 0.634341 0.0161858 1.38382C0.0160074 2.13329 0.650264 2.76749 1.40004 2.76753C2.14982 2.76757 2.78442 2.13343 2.78459 1.38396C2.78477 0.634482 2.15048 0.000282207 1.4007 0.000244142Z" fill="#ED6663" fill-opacity="0.8"/>
<path d="M10.2245 2.76877C10.9743 2.76881 11.6089 2.13467 11.6091 1.3852C11.6093 0.635726 10.975 0.00152608 10.2252 0.001488C9.4754 0.00144992 8.84083 0.635585 8.84065 1.38506C8.84048 2.13453 9.47474 2.76873 10.2245 2.76877Z" fill="#ED6663" fill-opacity="0.8"/>
<path d="M19.0491 2.77007C19.7989 2.77011 20.4334 2.13598 20.4336 1.38651C20.4338 0.637033 19.7995 0.00283127 19.0497 0.00279063C18.3 0.00275 17.6654 0.636883 17.6652 1.38636C17.665 2.13583 18.2993 2.77003 19.0491 2.77007Z" fill="#ED6663" fill-opacity="0.8"/>
<path d="M27.9312 2.77137C28.681 2.77141 29.3156 2.13727 29.3158 1.3878C29.3159 0.638324 28.6816 0.00412396 27.9318 0.00408516C27.1821 0.00404636 26.5475 0.638181 26.5473 1.38766C26.5471 2.13713 27.1237 2.77133 27.9312 2.77137Z" fill="#ED6663" fill-opacity="0.8"/>
<path d="M36.7557 2.77264C37.5055 2.77268 38.1401 2.13854 38.1403 1.38907C38.1404 0.639595 37.5061 0.00539483 36.7564 0.00535603C36.0066 0.00531723 35.372 0.639452 35.3718 1.38893C35.3716 2.1384 36.0059 2.7726 36.7557 2.77264Z" fill="#ED6663" fill-opacity="0.8"/>
<path d="M45.6385 0.00659853C44.8887 0.00656045 44.2541 0.640695 44.2539 1.39017C44.2538 2.13964 44.8881 2.77384 45.6378 2.77388C46.3876 2.77392 47.0222 2.13978 47.0224 1.39031C47.0226 0.640836 46.3883 0.00663661 45.6385 0.00659853Z" fill="#ED6663" fill-opacity="0.8"/>
<path d="M54.4623 2.77518C55.2121 2.77522 55.8467 2.14109 55.8469 1.39162C55.847 0.642142 55.2127 0.00794069 54.4629 0.00790044C53.7132 0.0078602 53.0786 0.641993 53.0784 1.39147C53.0782 2.14094 53.7125 2.77514 54.4623 2.77518Z" fill="#ED6663" fill-opacity="0.8"/>
<path d="M64.7291 1.39291C64.7292 0.643434 64.095 0.00923449 63.3452 0.00919569C62.5954 0.00915689 61.9608 0.643291 61.9606 1.39277C61.9604 2.14224 62.5947 2.77644 63.3445 2.77648C64.0943 2.77652 64.7289 2.14238 64.7291 1.39291Z" fill="#ED6663" fill-opacity="0.8"/>
<path d="M72.169 2.77775C72.9188 2.77779 73.5534 2.14365 73.5536 1.39418C73.5537 0.644706 72.9194 0.0105054 72.1696 0.0104666C71.4198 0.0104278 70.7852 0.644562 70.7851 1.39404C70.7849 2.14351 71.4192 2.77771 72.169 2.77775Z" fill="#ED6663" fill-opacity="0.8"/>
<path d="M82.4357 1.39545C82.4359 0.645974 81.8016 0.0117742 81.0518 0.0117361C80.302 0.011698 79.6674 0.645833 79.6672 1.39531C79.6671 2.14478 80.3014 2.77898 81.0512 2.77902C81.8009 2.77906 82.4355 2.14492 82.4357 1.39545Z" fill="#ED6663" fill-opacity="0.8"/>
<path d="M89.8756 2.78029C90.6254 2.78033 91.26 2.1462 91.2602 1.39673C91.2603 0.647253 90.6261 0.0130512 89.8763 0.013011C89.1265 0.0129707 88.4919 0.647104 88.4917 1.39658C88.4915 2.14605 89.1258 2.78025 89.8756 2.78029Z" fill="#ED6663" fill-opacity="0.8"/>
<path d="M1.39981 6.16897C0.650034 6.16894 0.0154749 6.80307 0.0152958 7.55255C0.0151167 8.30202 0.649373 8.93622 1.39915 8.93626C2.14893 8.9363 2.78352 8.30216 2.7837 7.55268C2.78388 6.80321 2.14959 6.16901 1.39981 6.16897Z" fill="#ED6663" fill-opacity="0.8"/>
<path d="M10.2236 8.99516C10.9734 8.9952 11.608 8.36108 11.6082 7.61161C11.6084 6.86213 10.9741 6.22791 10.2243 6.22787C9.47447 6.22783 8.8399 6.86198 8.83973 7.61146C8.83955 8.36093 9.47382 8.99512 10.2236 8.99516Z" fill="#ED6663" fill-opacity="0.8"/>
<path d="M19.0482 8.99642C19.798 8.99646 20.4325 8.36234 20.4327 7.61287C20.4329 6.86339 19.7986 6.22918 19.0488 6.22914C18.2991 6.2291 17.6645 6.86325 17.6643 7.61273C17.6641 8.3622 18.2984 8.99638 19.0482 8.99642Z" fill="#ED6663" fill-opacity="0.8"/>
<path d="M27.9303 8.99772C28.68 8.99776 29.3147 8.36364 29.3148 7.61417C29.315 6.86469 28.6807 6.23048 27.9309 6.23044C27.1811 6.2304 26.5465 6.86455 26.5464 7.61403C26.5462 8.3635 27.1228 8.99768 27.9303 8.99772Z" fill="#ED6663" fill-opacity="0.8"/>
<path d="M36.7548 8.99899C37.5046 8.99903 38.1392 8.36492 38.1394 7.61544C38.1395 6.86597 37.5052 6.23175 36.7554 6.23171C36.0056 6.23167 35.3711 6.86582 35.3709 7.6153C35.3707 8.36477 36.005 8.99895 36.7548 8.99899Z" fill="#ED6663" fill-opacity="0.8"/>
<path d="M45.6376 6.17533C44.8878 6.17529 44.2532 6.80943 44.253 7.5589C44.2529 8.30838 44.8872 8.94258 45.637 8.94262C46.3867 8.94266 47.0213 8.30852 47.0215 7.55905C47.0217 6.80957 46.3874 6.17537 45.6376 6.17533Z" fill="#ED6663" fill-opacity="0.8"/>
<path d="M54.4614 9.00153C55.2112 9.00157 55.8458 8.36745 55.846 7.61798C55.8462 6.8685 55.2119 6.23429 54.4621 6.23425C53.7123 6.23421 53.0777 6.86836 53.0775 7.61784C53.0774 8.36731 53.7116 9.0015 54.4614 9.00153Z" fill="#ED6663" fill-opacity="0.8"/>
<path d="M63.3436 9.00283C64.0934 9.00287 64.728 8.36876 64.7281 7.61928C64.7283 6.86981 64.094 6.23559 63.3443 6.23555C62.5945 6.23551 61.9599 6.86966 61.9597 7.61914C61.9018 8.36861 62.5361 9.00279 63.3436 9.00283Z" fill="#ED6663" fill-opacity="0.8"/>
<path d="M72.1681 9.0041C72.9179 9.00414 73.5525 8.37003 73.5526 7.62055C73.5528 6.87108 72.9185 6.23686 72.1687 6.23682C71.4189 6.23678 70.7843 6.87093 70.7841 7.62041C70.784 8.36988 71.4183 9.00406 72.1681 9.0041Z" fill="#ED6663" fill-opacity="0.8"/>
<path d="M80.9925 9.00535C81.7423 9.00539 82.3769 8.37127 82.3771 7.6218C82.3772 6.87232 81.7429 6.2381 80.9932 6.23806C80.2434 6.23803 79.6088 6.87218 79.6087 7.62165C79.6085 8.37113 80.2427 9.00531 80.9925 9.00535Z" fill="#ED6663" fill-opacity="0.8"/>
<path d="M89.8747 9.00664C90.6245 9.00668 91.2591 8.37256 91.2593 7.62309C91.2595 6.87362 90.6252 6.2394 89.8754 6.23936C89.1256 6.23932 88.491 6.87348 88.4908 7.62295C88.4907 8.37242 89.125 9.00661 89.8747 9.00664Z" fill="#ED6663" fill-opacity="0.8"/>
<path d="M1.39823 15.1626C2.14801 15.1627 2.7826 14.5285 2.78278 13.7791C2.78295 13.0296 2.14866 12.3954 1.39888 12.3953C0.649101 12.3953 0.0145445 13.0294 0.0143676 13.7789C0.0141906 14.5284 0.590773 15.1626 1.39823 15.1626Z" fill="#ED6663" fill-opacity="0.8"/>
<path d="M10.2228 15.1639C10.9726 15.1639 11.6072 14.5298 11.6074 13.7803C11.6075 13.0309 10.9732 12.3966 10.2234 12.3966C9.47364 12.3966 8.83907 13.0307 8.83889 13.7802C8.83871 14.5297 9.47298 15.1638 10.2228 15.1639Z" fill="#ED6663" fill-opacity="0.8"/>
<path d="M19.048 12.3979C18.2982 12.3978 17.6636 13.032 17.6634 13.7815C17.6632 14.5309 18.2975 15.1651 19.0473 15.1652C19.7971 15.1652 20.4316 14.5311 20.4318 13.7816C20.432 13.0321 19.8554 12.3979 19.048 12.3979Z" fill="#ED6663" fill-opacity="0.8"/>
<path d="M27.9294 15.1665C28.6792 15.1665 29.3138 14.5324 29.3139 13.7829C29.3141 13.0334 28.6798 12.3992 27.93 12.3992C27.1802 12.3991 26.5457 13.0333 26.5455 13.7828C26.5453 14.5322 27.1219 15.1664 27.9294 15.1665Z" fill="#ED6663" fill-opacity="0.8"/>
<path d="M36.7539 15.1677C37.5037 15.1677 38.1383 14.5336 38.1385 13.7842C38.1386 13.0347 37.5043 12.4005 36.7545 12.4004C36.0047 12.4004 35.3702 13.0345 35.37 13.784C35.3698 14.5335 36.0041 15.1677 36.7539 15.1677Z" fill="#ED6663" fill-opacity="0.8"/>
<path d="M45.6361 15.169C46.3859 15.169 47.0205 14.5349 47.0206 13.7854C47.0208 13.036 46.3865 12.4017 45.6367 12.4017C44.887 12.4017 44.2524 13.0358 44.2522 13.7853C44.252 14.5348 44.8286 15.169 45.6361 15.169Z" fill="#ED6663" fill-opacity="0.8"/>
<path d="M54.4605 15.1703C55.2103 15.1703 55.8449 14.5362 55.8451 13.7867C55.8453 13.0372 55.211 12.403 54.4612 12.403C53.7114 12.4029 53.0768 13.0371 53.0766 13.7866C53.0765 14.536 53.7107 15.1702 54.4605 15.1703Z" fill="#ED6663" fill-opacity="0.8"/>
<path d="M63.3434 12.4043C62.5936 12.4042 61.959 13.0384 61.9588 13.7879C61.9586 14.5373 62.5929 15.1715 63.3427 15.1716C64.0925 15.1716 64.7271 14.5375 64.7272 13.788C64.7274 13.0385 64.0931 12.4043 63.3434 12.4043Z" fill="#ED6663" fill-opacity="0.8"/>
<path d="M72.1672 15.1728C72.917 15.1729 73.5516 14.5388 73.5518 13.7893C73.5519 13.0398 72.9176 12.4056 72.1678 12.4056C71.418 12.4055 70.7834 13.0397 70.7832 13.7891C70.7831 14.5386 71.4174 15.1728 72.1672 15.1728Z" fill="#ED6663" fill-opacity="0.8"/>
<path d="M80.9916 15.1741C81.7414 15.1741 82.376 14.54 82.3762 13.7905C82.3763 13.0411 81.742 12.4068 80.9923 12.4068C80.2425 12.4068 79.6079 13.0409 79.6078 13.7904C79.6076 14.5399 80.2418 15.174 80.9916 15.1741Z" fill="#ED6663" fill-opacity="0.8"/>
<path d="M89.8745 12.4081C89.1247 12.4081 88.4901 13.0422 88.4899 13.7917C88.4898 14.5412 89.1241 15.1753 89.8739 15.1754C90.6237 15.1754 91.2582 14.5413 91.2584 13.7918C91.2586 13.0424 90.6243 12.4081 89.8745 12.4081Z" fill="#ED6663" fill-opacity="0.8"/>
<path d="M1.39739 21.3313C2.16186 21.3314 2.78176 20.7119 2.78194 19.9478C2.78212 19.1836 2.16252 18.5641 1.39805 18.5641C0.633569 18.564 0.0137123 19.1834 0.0135304 19.9476C0.0133485 20.7118 0.632911 21.3313 1.39739 21.3313Z" fill="#ED6663" fill-opacity="0.8"/>
<path d="M10.2225 18.5654C9.47275 18.5653 8.83818 19.1994 8.838 19.9489C8.83782 20.6984 9.47209 21.3326 10.2219 21.3326C10.9717 21.3327 11.6063 20.6985 11.6065 19.9491C11.6066 19.1996 10.9723 18.5654 10.2225 18.5654Z" fill="#ED6663" fill-opacity="0.8"/>
<path d="M19.047 18.5666C18.2973 18.5666 17.6627 19.2007 17.6625 19.9502C17.6623 20.6996 18.2966 21.3338 19.0464 21.3339C19.7962 21.3339 20.4307 20.6998 20.4309 19.9503C20.4311 19.2008 19.8545 18.5666 19.047 18.5666Z" fill="#ED6663" fill-opacity="0.8"/>
<path d="M27.9285 21.3352C28.6783 21.3352 29.3129 20.7011 29.3131 19.9516C29.3132 19.2021 28.6789 18.5679 27.9291 18.5679C27.1793 18.5678 26.5448 19.202 26.5446 19.9514C26.5444 20.7586 27.121 21.3351 27.9285 21.3352Z" fill="#ED6663" fill-opacity="0.8"/>
<path d="M36.753 21.3364C37.5028 21.3365 38.1374 20.7023 38.1376 19.9528C38.1377 19.2034 37.5034 18.5692 36.7536 18.5691C36.0038 18.5691 35.3693 19.2032 35.3691 19.9527C35.3689 20.7022 36.0032 21.3364 36.753 21.3364Z" fill="#ED6663" fill-opacity="0.8"/>
<path d="M45.6359 18.5704C44.8861 18.5704 44.2515 19.2045 44.2513 19.954C44.2511 20.7035 44.8854 21.3377 45.6352 21.3377C46.385 21.3378 47.0196 20.7036 47.0198 19.9541C47.0199 19.2047 46.3856 18.5705 45.6359 18.5704Z" fill="#ED6663" fill-opacity="0.8"/>
<path d="M54.4596 21.339C55.2094 21.339 55.844 20.7049 55.8442 19.9554C55.8444 19.2059 55.2101 18.5718 54.4603 18.5717C53.7105 18.5717 53.0759 19.2058 53.0757 19.9553C53.0756 20.7624 53.7098 21.339 54.4596 21.339Z" fill="#ED6663" fill-opacity="0.8"/>
<path d="M63.3425 18.573C62.5927 18.5729 61.9581 19.2071 61.9579 19.9565C61.9577 20.706 62.592 21.3402 63.3418 21.3403C64.0916 21.3403 64.7262 20.7062 64.7263 19.9567C64.7265 19.2072 64.0923 18.573 63.3425 18.573Z" fill="#ED6663" fill-opacity="0.8"/>
<path d="M72.1663 21.3415C72.9161 21.3416 73.5507 20.7074 73.5509 19.958C73.551 19.2085 72.9167 18.5743 72.1669 18.5743C71.4171 18.5742 70.7825 19.2083 70.7823 19.9578C70.7822 20.7649 71.4165 21.3415 72.1663 21.3415Z" fill="#ED6663" fill-opacity="0.8"/>
<path d="M80.9908 21.3428C81.7405 21.3428 82.3751 20.7087 82.3753 19.9592C82.3755 19.2098 81.7412 18.5756 80.9914 18.5755C80.2416 18.5755 79.6071 19.2096 79.6069 19.9591C79.6067 20.7662 80.241 21.3428 80.9908 21.3428Z" fill="#ED6663" fill-opacity="0.8"/>
<path d="M89.873 21.3441C90.6375 21.3441 91.2573 20.7247 91.2575 19.9605C91.2577 19.1964 90.6381 18.5769 89.8736 18.5768C89.1091 18.5768 88.4892 19.1962 88.489 19.9604C88.4889 20.7245 89.1085 21.3441 89.873 21.3441Z" fill="#ED6663" fill-opacity="0.8"/>
<path d="M1.39646 27.5577C2.14624 27.5577 2.78083 26.9236 2.78101 26.1742C2.78118 25.4247 2.1469 24.7905 1.39712 24.7904C0.647348 24.7904 0.0127941 25.4246 0.0126155 26.174C-0.0452381 26.9235 0.589014 27.5577 1.39646 27.5577Z" fill="#ED6663" fill-opacity="0.8"/>
<path d="M10.221 27.5589C10.9707 27.559 11.6054 26.9249 11.6055 26.1754C11.6057 25.4259 10.9714 24.7917 10.2216 24.7917C9.47182 24.7916 8.83725 25.4258 8.83707 26.1753C8.83689 26.9247 9.47116 27.5589 10.221 27.5589Z" fill="#ED6663" fill-opacity="0.8"/>
<path d="M19.0455 27.5602C19.7953 27.5603 20.4298 26.9262 20.43 26.1767C20.4302 25.4272 19.7959 24.793 19.0461 24.793C18.2964 24.7929 17.6618 25.4271 17.6616 26.1766C17.6614 26.926 18.2957 27.5602 19.0455 27.5602Z" fill="#ED6663" fill-opacity="0.8"/>
<path d="M27.9276 27.5615C28.6774 27.5615 29.312 26.9274 29.3122 26.178C29.3124 25.4285 28.678 24.7943 27.9283 24.7943C27.1785 24.7942 26.5439 25.4284 26.5437 26.1778C26.5435 26.9273 27.1201 27.5615 27.9276 27.5615Z" fill="#ED6663" fill-opacity="0.8"/>
<path d="M36.7521 27.5628C37.5019 27.5629 38.1365 26.9287 38.1367 26.1793C38.1369 25.4298 37.5026 24.7956 36.7528 24.7956C36.003 24.7955 35.3684 25.4297 35.3682 26.1791C35.3681 26.9286 36.0023 27.5628 36.7521 27.5628Z" fill="#ED6663" fill-opacity="0.8"/>
<path d="M45.6343 27.5641C46.3841 27.5641 47.0186 26.93 47.0188 26.1805C47.019 25.4311 46.3847 24.7968 45.6349 24.7968C44.8851 24.7968 44.2505 25.4309 44.2504 26.1804C44.2502 26.9298 44.8268 27.564 45.6343 27.5641Z" fill="#ED6663" fill-opacity="0.8"/>
<path d="M54.4587 27.5654C55.2085 27.5654 55.8431 26.9313 55.8433 26.1818C55.8435 25.4324 55.2092 24.7981 54.4594 24.7981C53.7096 24.7981 53.075 25.4322 53.0748 26.1817C53.0747 26.9311 53.7089 27.5653 54.4587 27.5654Z" fill="#ED6663" fill-opacity="0.8"/>
<path d="M63.3409 27.5667C64.0907 27.5667 64.7253 26.9326 64.7255 26.1831C64.7256 25.4337 64.0914 24.7994 63.3416 24.7994C62.5918 24.7994 61.9572 25.4335 61.957 26.183C61.8992 26.9324 62.5335 27.5666 63.3409 27.5667Z" fill="#ED6663" fill-opacity="0.8"/>
<path d="M72.1654 27.5679C72.9152 27.568 73.5498 26.9338 73.55 26.1844C73.5502 25.4349 72.9158 24.8007 72.166 24.8007C71.4162 24.8006 70.7816 25.4348 70.7815 26.1842C70.7813 26.9337 71.4156 27.5679 72.1654 27.5679Z" fill="#ED6663" fill-opacity="0.8"/>
<path d="M82.4321 26.1856C82.4323 25.4362 81.798 24.8019 81.0482 24.8019C80.2984 24.8019 79.6638 25.436 79.6637 26.1855C79.6635 26.935 80.2978 27.5691 81.0476 27.5692C81.7974 27.5692 82.4319 26.9351 82.4321 26.1856Z" fill="#ED6663" fill-opacity="0.8"/>
<path d="M89.8727 24.8032C89.1229 24.8032 88.4883 25.4373 88.4881 26.1868C88.488 26.9362 89.1222 27.5704 89.872 27.5705C90.6218 27.5705 91.2564 26.9364 91.2566 26.1869C91.2568 25.3798 90.6225 24.8033 89.8727 24.8032Z" fill="#ED6663" fill-opacity="0.8"/>
<path d="M1.39557 33.7264C2.14534 33.7265 2.77993 33.0923 2.78011 32.3428C2.78029 31.5934 2.14601 30.9592 1.39623 30.9591C0.64646 30.9591 0.0119037 31.5932 0.0117228 32.3427C-0.046133 33.0922 0.588117 33.7264 1.39557 33.7264Z" fill="#ED6663" fill-opacity="0.8"/>
<path d="M10.2201 33.7277C10.9699 33.7278 11.6045 33.0936 11.6046 32.3441C11.6048 31.5947 10.9705 30.9605 10.2207 30.9604C9.47093 30.9604 8.83636 31.5945 8.83618 32.344C8.83601 33.0935 9.47028 33.7277 10.2201 33.7277Z" fill="#ED6663" fill-opacity="0.8"/>
<path d="M19.0446 33.729C19.7943 33.729 20.4289 33.0949 20.4291 32.3454C20.4293 31.5959 19.795 30.9617 19.0452 30.9617C18.2954 30.9616 17.6609 31.5958 17.6607 32.3452C17.6605 33.0947 18.2948 33.7289 19.0446 33.729Z" fill="#ED6663" fill-opacity="0.8"/>
<path d="M27.9267 33.7303C28.6912 33.7303 29.3111 33.1109 29.3113 32.3467C29.3115 31.5825 28.6919 30.9631 27.9274 30.963C27.1629 30.963 26.543 31.5824 26.5428 32.3466C26.5426 33.1107 27.1622 33.7303 27.9267 33.7303Z" fill="#ED6663" fill-opacity="0.8"/>
<path d="M36.7512 33.7315C37.501 33.7316 38.1356 33.0974 38.1358 32.3479C38.136 31.5985 37.5017 30.9643 36.7519 30.9643C36.0021 30.9642 35.3675 31.5983 35.3673 32.3478C35.3672 33.0973 36.0014 33.7315 36.7512 33.7315Z" fill="#ED6663" fill-opacity="0.8"/>
<path d="M45.6334 33.7328C46.3832 33.7329 47.0177 33.0987 47.0179 32.3493C47.0181 31.5998 46.3838 30.9656 45.634 30.9656C44.8842 30.9655 44.2496 31.5996 44.2495 32.3491C44.2493 33.0986 44.8259 33.7328 45.6334 33.7328Z" fill="#ED6663" fill-opacity="0.8"/>
<path d="M54.4578 33.7341C55.2076 33.7341 55.8422 33.1 55.8424 32.3505C55.8426 31.601 55.2083 30.9668 54.4585 30.9668C53.7087 30.9668 53.0741 31.6009 53.0739 32.3504C53.0737 33.0998 53.708 33.734 54.4578 33.7341Z" fill="#ED6663" fill-opacity="0.8"/>
<path d="M63.34 33.7354C64.1045 33.7355 64.7244 33.116 64.7246 32.3518C64.7247 31.5877 64.1052 30.9682 63.3407 30.9681C62.5762 30.9681 61.9563 31.5875 61.9561 32.3517C61.9559 33.1158 62.5755 33.7354 63.34 33.7354Z" fill="#ED6663" fill-opacity="0.8"/>
<path d="M72.1645 33.7367C72.9143 33.7367 73.5489 33.1025 73.5491 32.3531C73.5493 31.6036 72.915 30.9694 72.1652 30.9694C71.4154 30.9693 70.7808 31.6034 70.7806 32.3529C70.7804 33.1024 71.4147 33.7366 72.1645 33.7367Z" fill="#ED6663" fill-opacity="0.8"/>
<path d="M80.9889 33.7379C81.7387 33.738 82.3733 33.1038 82.3735 32.3543C82.3737 31.6049 81.7394 30.9707 80.9896 30.9706C80.2398 30.9706 79.6053 31.6047 79.6051 32.3542C79.6049 33.1037 80.2392 33.7379 80.9889 33.7379Z" fill="#ED6663" fill-opacity="0.8"/>
<path d="M89.8718 30.9719C89.122 30.9719 88.4874 31.606 88.4872 32.3555C88.487 33.1049 89.1213 33.7392 89.8711 33.7392C90.6209 33.7392 91.2555 33.1051 91.2557 32.3556C91.2559 31.6061 90.6216 30.9719 89.8718 30.9719Z" fill="#ED6663" fill-opacity="0.8"/>
<path d="M1.39467 39.9528C2.15914 39.9528 2.77903 39.3334 2.77921 38.5692C2.7794 37.8051 2.1598 37.1855 1.39532 37.1855C0.630843 37.1855 0.0109873 37.8049 0.0108069 38.5691C0.0106266 39.3333 0.63019 39.9527 1.39467 39.9528Z" fill="#ED6663" fill-opacity="0.8"/>
<path d="M10.2198 37.1292C9.47001 37.1291 8.83544 37.7632 8.83527 38.5127C8.83509 39.2622 9.46936 39.8964 10.2192 39.8964C10.9689 39.8965 11.6036 39.2623 11.6037 38.5128C11.6039 37.7634 10.9696 37.1292 10.2198 37.1292Z" fill="#ED6663" fill-opacity="0.8"/>
<path d="M19.0444 37.1305C18.2946 37.1304 17.66 37.7646 17.6598 38.514C17.6597 39.2635 18.294 39.8977 19.0437 39.8978C19.7935 39.8978 20.4281 39.2636 20.4282 38.5142C20.4284 37.7647 19.8518 37.1305 19.0444 37.1305Z" fill="#ED6663" fill-opacity="0.8"/>
<path d="M27.9258 39.9567C28.6903 39.9567 29.3102 39.3373 29.3104 38.5731C29.3105 37.8089 28.6909 37.1894 27.9264 37.1894C27.1619 37.1893 26.5421 37.8088 26.5419 38.573C26.5417 39.3371 27.1613 39.9566 27.9258 39.9567Z" fill="#ED6663" fill-opacity="0.8"/>
<path d="M36.7503 39.9579C37.5001 39.9579 38.1347 39.3238 38.1349 38.5743C38.1351 37.8249 37.5007 37.1907 36.751 37.1906C36.0012 37.1906 35.3666 37.8247 35.3664 38.5742C35.3662 39.3237 36.0005 39.9579 36.7503 39.9579Z" fill="#ED6663" fill-opacity="0.8"/>
<path d="M45.6325 39.9592C46.3823 39.9592 47.0169 39.3251 47.0171 38.5756C47.0172 37.8262 46.3829 37.192 45.6332 37.1919C44.8834 37.1919 44.2488 37.826 44.2486 38.5755C44.2484 39.325 44.825 39.9592 45.6325 39.9592Z" fill="#ED6663" fill-opacity="0.8"/>
<path d="M54.4569 39.9604C55.2214 39.9605 55.8413 39.341 55.8415 38.5769C55.8417 37.8127 55.2221 37.1932 54.4576 37.1932C53.6931 37.1931 53.0732 37.8126 53.0731 38.5767C53.0729 39.3409 53.6925 39.9604 54.4569 39.9604Z" fill="#ED6663" fill-opacity="0.8"/>
<path d="M63.3398 37.1368C62.59 37.1368 61.9554 37.7709 61.9552 38.5204C61.955 39.2699 62.5893 39.9041 63.3391 39.9041C64.0889 39.9042 64.7235 39.27 64.7237 38.5205C64.7239 37.771 64.0896 37.1369 63.3398 37.1368Z" fill="#ED6663" fill-opacity="0.8"/>
<path d="M72.1636 39.963C72.9134 39.963 73.548 39.3289 73.5482 38.5795C73.5483 37.83 72.914 37.1958 72.1642 37.1957C71.4144 37.1957 70.7798 37.8298 70.7797 38.5793C70.7795 39.3288 71.4138 39.963 72.1636 39.963Z" fill="#ED6663" fill-opacity="0.8"/>
<path d="M80.988 39.9643C81.7378 39.9643 82.3724 39.3302 82.3726 38.5807C82.3728 37.8313 81.7385 37.197 80.9887 37.197C80.2389 37.197 79.6044 37.8311 79.6042 38.5806C79.604 39.3301 80.2383 39.9642 80.988 39.9643Z" fill="#ED6663" fill-opacity="0.8"/>
<path d="M89.8703 39.9655C90.6348 39.9656 91.2546 39.3462 91.2548 38.582C91.255 37.8178 90.6354 37.1983 89.8709 37.1983C89.1064 37.1982 88.4865 37.8177 88.4864 38.5819C88.4862 39.346 89.1058 39.9655 89.8703 39.9655Z" fill="#ED6663" fill-opacity="0.8"/>
<path d="M1.3938 46.1216C2.15828 46.1216 2.77817 45.5021 2.77835 44.738C2.77853 43.9738 2.15894 43.3543 1.39446 43.3543C0.629982 43.3542 0.0101246 43.9737 0.00994273 44.7378C0.00976086 45.502 0.629323 46.1215 1.3938 46.1216Z" fill="#ED6663" fill-opacity="0.8"/>
<path d="M10.2183 46.1228C10.9828 46.1228 11.6027 45.5034 11.6029 44.7392C11.6031 43.9751 10.9834 43.3556 10.219 43.3555C9.45446 43.3555 8.83459 43.9749 8.83441 44.7391C8.83423 45.5032 9.4538 46.1228 10.2183 46.1228Z" fill="#ED6663" fill-opacity="0.8"/>
<path d="M19.0435 43.3568C18.2937 43.3568 17.6591 43.9909 17.6589 44.7404C17.6587 45.4898 18.293 46.124 19.0428 46.1241C19.7926 46.1241 20.4271 45.49 20.4273 44.7405C20.4275 43.991 19.8509 43.3568 19.0435 43.3568Z" fill="#ED6663" fill-opacity="0.8"/>
<path d="M27.9249 46.1254C28.6747 46.1254 29.3093 45.4912 29.3095 44.7418C29.3096 43.9923 28.6753 43.3581 27.9255 43.3581C27.1758 43.358 26.5412 43.9921 26.541 44.7416C26.5408 45.4911 27.1174 46.1253 27.9249 46.1254Z" fill="#ED6663" fill-opacity="0.8"/>
<path d="M36.7494 46.1266C37.4992 46.1267 38.1338 45.4925 38.134 44.743C38.1342 43.9936 37.4999 43.3594 36.7501 43.3593C36.0003 43.3593 35.3657 43.9934 35.3655 44.7429C35.3653 45.4924 35.9996 46.1266 36.7494 46.1266Z" fill="#ED6663" fill-opacity="0.8"/>
<path d="M45.6316 46.1279C46.3814 46.128 47.016 45.4938 47.0162 44.7443C47.0163 43.9949 46.382 43.3607 45.6323 43.3606C44.8825 43.3606 44.2479 43.9947 44.2477 44.7442C44.2475 45.4937 44.8241 46.1279 45.6316 46.1279Z" fill="#ED6663" fill-opacity="0.8"/>
<path d="M54.456 46.1292C55.2058 46.1292 55.8404 45.4951 55.8406 44.7456C55.8408 43.9961 55.2065 43.362 54.4567 43.3619C53.7069 43.3619 53.0723 43.996 53.0722 44.7455C53.072 45.4949 53.7063 46.1292 54.456 46.1292Z" fill="#ED6663" fill-opacity="0.8"/>
<path d="M63.3389 43.3632C62.5891 43.3631 61.9545 43.9973 61.9543 44.7467C61.9541 45.4962 62.5884 46.1304 63.3382 46.1305C64.088 46.1305 64.7226 45.4964 64.7228 44.7469C64.7229 43.9974 64.0887 43.3632 63.3389 43.3632Z" fill="#ED6663" fill-opacity="0.8"/>
<path d="M72.1627 46.1317C72.9125 46.1318 73.5471 45.4976 73.5473 44.7482C73.5474 43.9987 72.9131 43.3645 72.1633 43.3645C71.4135 43.3644 70.7789 43.9985 70.7788 44.748C70.7786 45.4975 71.4129 46.1317 72.1627 46.1317Z" fill="#ED6663" fill-opacity="0.8"/>
<path d="M80.9872 46.1331C81.7516 46.1331 82.3715 45.5136 82.3717 44.7495C82.3719 43.9853 81.7523 43.3658 80.9878 43.3658C80.2234 43.3657 79.6035 43.9852 79.6033 44.7493C79.6031 45.5135 80.2227 46.133 80.9872 46.1331Z" fill="#ED6663" fill-opacity="0.8"/>
<path d="M89.8694 46.1343C90.6339 46.1343 91.2537 45.5149 91.2539 44.7507C91.2541 43.9866 90.6345 43.3671 89.87 43.367C89.1055 43.367 88.4856 43.9864 88.4855 44.7506C88.4853 45.5147 89.1049 46.1343 89.8694 46.1343Z" fill="#ED6663" fill-opacity="0.8"/>
<path d="M1.39291 52.2903C2.15739 52.2903 2.77728 51.6708 2.77746 50.9067C2.77764 50.1425 2.15805 49.523 1.39357 49.523C0.629093 49.5229 0.00923602 50.1424 0.00905415 50.9065C0.00887228 51.6707 0.628434 52.2902 1.39291 52.2903Z" fill="#ED6663" fill-opacity="0.8"/>
<path d="M10.2174 52.2916C10.9672 52.2916 11.6018 51.6574 11.602 50.908C11.6021 50.1585 10.9678 49.5243 10.218 49.5243C9.46824 49.5242 8.83367 50.1584 8.8335 50.9078C8.83331 51.715 9.46759 52.2915 10.2174 52.2916Z" fill="#ED6663" fill-opacity="0.8"/>
<path d="M19.0419 52.2928C19.7917 52.2928 20.4262 51.6587 20.4264 50.9092C20.4266 50.1597 19.7923 49.5256 19.0426 49.5255C18.2928 49.5255 17.6582 50.1596 17.658 50.9091C17.6578 51.7162 18.2921 52.2928 19.0419 52.2928Z" fill="#ED6663" fill-opacity="0.8"/>
<path d="M27.924 52.2941C28.6885 52.2941 29.3084 51.6747 29.3086 50.9105C29.3087 50.1464 28.6891 49.5269 27.9246 49.5268C27.1601 49.5268 26.5403 50.1462 26.5401 50.9104C26.5399 51.6745 27.1595 52.2941 27.924 52.2941Z" fill="#ED6663" fill-opacity="0.8"/>
<path d="M36.7485 52.2954C37.513 52.2954 38.1329 51.6759 38.1331 50.9118C38.1333 50.1476 37.5137 49.5281 36.7492 49.5281C35.9847 49.528 35.3648 50.1475 35.3647 50.9116C35.3645 51.6758 35.9841 52.2953 36.7485 52.2954Z" fill="#ED6663" fill-opacity="0.8"/>
<path d="M45.6314 49.5294C44.8816 49.5294 44.247 50.1635 44.2468 50.9129C44.2466 51.6624 44.8809 52.2966 45.6307 52.2967C46.3805 52.2967 47.0151 51.6626 47.0153 50.9131C47.0154 50.1636 46.3811 49.5294 45.6314 49.5294Z" fill="#ED6663" fill-opacity="0.8"/>
<path d="M54.4551 52.2979C55.2196 52.298 55.8395 51.6785 55.8397 50.9143C55.8399 50.1502 55.2203 49.5307 54.4558 49.5306C53.6913 49.5306 53.0714 50.15 53.0713 50.9142C53.0711 51.6783 53.6906 52.2979 54.4551 52.2979Z" fill="#ED6663" fill-opacity="0.8"/>
<path d="M63.3373 52.2992C64.1018 52.2993 64.7217 51.6798 64.7219 50.9156C64.722 50.1515 64.1025 49.532 63.338 49.5319C62.5735 49.5319 61.9536 50.1513 61.9534 50.9155C61.9532 51.6796 62.5728 52.2992 63.3373 52.2992Z" fill="#ED6663" fill-opacity="0.8"/>
<path d="M72.1618 52.3005C72.9116 52.3005 73.5462 51.6664 73.5464 50.9169C73.5466 50.1674 72.9123 49.5332 72.1625 49.5332C71.4127 49.5332 70.7781 50.1673 70.7779 50.9168C70.7777 51.7239 71.412 52.3004 72.1618 52.3005Z" fill="#ED6663" fill-opacity="0.8"/>
<path d="M80.987 49.5345C80.2372 49.5344 79.6026 50.1686 79.6024 50.918C79.6023 51.6675 80.2365 52.3017 80.9863 52.3018C81.7361 52.3018 82.3707 51.6677 82.3709 50.9182C82.4287 50.1687 81.7944 49.5345 80.987 49.5345Z" fill="#ED6663" fill-opacity="0.8"/>
<path d="M89.8685 52.303C90.633 52.3031 91.2528 51.6836 91.253 50.9194C91.2532 50.1553 90.6336 49.5358 89.8691 49.5357C89.1046 49.5357 88.4847 50.1551 88.4846 50.9193C88.4844 51.6835 89.104 52.303 89.8685 52.303Z" fill="#ED6663" fill-opacity="0.8"/>
<path d="M1.39199 58.5166C2.15646 58.5167 2.77635 57.8972 2.77653 57.1331C2.77671 56.3689 2.15711 55.7494 1.39264 55.7494C0.628161 55.7493 0.00830555 56.3688 0.00812594 57.1329C0.00794633 57.8971 0.62751 58.5166 1.39199 58.5166Z" fill="#ED6663" fill-opacity="0.8"/>
<path d="M10.2165 58.5179C10.9663 58.5179 11.6009 57.8838 11.6011 57.1343C11.6012 56.3848 10.9669 55.7507 10.2171 55.7506C9.46734 55.7506 8.83277 56.3847 8.83259 57.1342C8.83241 57.8836 9.46668 58.5179 10.2165 58.5179Z" fill="#ED6663" fill-opacity="0.8"/>
<path d="M19.041 58.5192C19.7908 58.5192 20.4253 57.8851 20.4255 57.1356C20.4257 56.3861 19.7914 55.752 19.0417 55.7519C18.2919 55.7519 17.6573 56.386 17.6571 57.1355C17.6569 57.8849 18.2912 58.5191 19.041 58.5192Z" fill="#ED6663" fill-opacity="0.8"/>
<path d="M27.9231 58.5204C28.6876 58.5205 29.3075 57.901 29.3077 57.1369C29.3079 56.3727 28.6883 55.7532 27.9238 55.7532C27.1593 55.7531 26.5394 56.3726 26.5392 57.1367C26.5391 57.9009 27.1586 58.5204 27.9231 58.5204Z" fill="#ED6663" fill-opacity="0.8"/>
<path d="M36.7476 58.5217C37.5121 58.5218 38.132 57.9023 38.1322 57.1382C38.1324 56.374 37.5128 55.7545 36.7483 55.7545C35.9838 55.7544 35.3639 56.3739 35.3637 57.138C35.3636 57.9022 35.9831 58.5217 36.7476 58.5217Z" fill="#ED6663" fill-opacity="0.8"/>
<path d="M45.6298 58.523C46.3796 58.523 47.0142 57.8889 47.0144 57.1394C47.0145 56.39 46.3802 55.7558 45.6304 55.7557C44.8807 55.7557 44.2461 56.3898 44.2459 57.1393C44.2457 57.8887 44.8223 58.5229 45.6298 58.523Z" fill="#ED6663" fill-opacity="0.8"/>
<path d="M54.4542 58.5243C55.2187 58.5243 55.8386 57.9049 55.8388 57.1407C55.839 56.3766 55.2194 55.7571 54.4549 55.757C53.6904 55.757 53.0705 56.3764 53.0703 57.1406C53.0702 57.9047 53.6897 58.5242 54.4542 58.5243Z" fill="#ED6663" fill-opacity="0.8"/>
<path d="M63.3365 58.5256C64.1009 58.5256 64.7208 57.9061 64.721 57.142C64.7212 56.3778 64.1016 55.7583 63.3371 55.7583C62.5726 55.7583 61.9527 56.3777 61.9525 57.1418C61.9524 57.906 62.572 58.5255 63.3365 58.5256Z" fill="#ED6663" fill-opacity="0.8"/>
<path d="M72.1609 58.5268C72.9107 58.5269 73.5453 57.8927 73.5455 57.1433C73.5457 56.3938 72.9114 55.7596 72.1616 55.7596C71.4118 55.7596 70.7772 56.3937 70.777 57.1431C70.7768 57.8926 71.4111 58.5268 72.1609 58.5268Z" fill="#ED6663" fill-opacity="0.8"/>
<path d="M80.9854 58.5281C81.7498 58.5282 82.3697 57.9087 82.3699 57.1446C82.3701 56.3804 81.7505 55.7609 80.986 55.7609C80.2215 55.7608 79.6017 56.3802 79.6015 57.1444C79.6013 57.9086 80.2209 58.5281 80.9854 58.5281Z" fill="#ED6663" fill-opacity="0.8"/>
<path d="M89.8676 58.5294C90.6321 58.5294 91.2519 57.91 91.2521 57.1458C91.2523 56.3817 90.6327 55.7622 89.8682 55.7621C89.1037 55.7621 88.4838 56.3815 88.4836 57.1457C88.4835 57.9098 89.1031 58.5294 89.8676 58.5294Z" fill="#ED6663" fill-opacity="0.8"/>
<path d="M1.3911 64.6854C2.15557 64.6854 2.77546 64.0659 2.77564 63.3018C2.77582 62.5376 2.15623 61.9181 1.39175 61.9181C0.627272 61.918 0.00741633 62.5375 0.00723593 63.3016C0.00705553 64.0658 0.626619 64.6853 1.3911 64.6854Z" fill="#ED6663" fill-opacity="0.8"/>
<path d="M10.2162 61.9194C9.46642 61.9193 8.83186 62.5535 8.83168 63.3029C8.8315 64.0524 9.46577 64.6866 10.2156 64.6867C10.9654 64.6867 11.6 64.0525 11.6001 63.3031C11.6003 62.5536 10.966 61.9194 10.2162 61.9194Z" fill="#ED6663" fill-opacity="0.8"/>
<path d="M17.6563 63.3042C17.6561 64.0537 18.2904 64.6879 19.0401 64.6879C19.7899 64.688 20.4245 64.0538 20.4247 63.3043C20.4248 62.5549 19.7906 61.9207 19.0408 61.9206C18.291 61.9206 17.6564 62.5547 17.6563 63.3042Z" fill="#ED6663" fill-opacity="0.8"/>
<path d="M27.9222 64.6892C28.6867 64.6893 29.3066 64.0698 29.3068 63.3056C29.307 62.5415 28.6874 61.922 27.9229 61.9219C27.1584 61.9219 26.5385 62.5413 26.5383 63.3055C26.5381 64.0697 27.1577 64.6892 27.9222 64.6892Z" fill="#ED6663" fill-opacity="0.8"/>
<path d="M36.7467 64.6905C37.5112 64.6905 38.1311 64.071 38.1313 63.3069C38.1315 62.5427 37.5119 61.9232 36.7474 61.9232C35.9829 61.9231 35.363 62.5426 35.3628 63.3067C35.3627 64.0709 35.9822 64.6904 36.7467 64.6905Z" fill="#ED6663" fill-opacity="0.8"/>
<path d="M45.6289 64.6918C46.3787 64.6918 47.0133 64.0577 47.0134 63.3082C47.0136 62.5587 46.3793 61.9245 45.6295 61.9245C44.8798 61.9244 44.2452 62.5586 44.245 63.308C44.2448 64.0575 44.8214 64.6917 45.6289 64.6918Z" fill="#ED6663" fill-opacity="0.8"/>
<path d="M54.4534 64.693C55.2179 64.6931 55.8378 64.0736 55.838 63.3095C55.8381 62.5453 55.2185 61.9258 54.454 61.9258C53.6895 61.9257 53.0697 62.5451 53.0695 63.3093C53.0693 64.0735 53.6889 64.693 54.4534 64.693Z" fill="#ED6663" fill-opacity="0.8"/>
<path d="M63.3362 61.9271C62.5864 61.927 61.9518 62.5611 61.9516 63.3106C61.9515 64.0601 62.5858 64.6943 63.3355 64.6943C64.0853 64.6944 64.7199 64.0602 64.7201 63.3108C64.7203 62.5613 64.086 61.9271 63.3362 61.9271Z" fill="#ED6663" fill-opacity="0.8"/>
<path d="M72.1607 61.9283C71.4109 61.9283 70.7763 62.5624 70.7761 63.3118C70.7759 64.0613 71.4102 64.6955 72.16 64.6956C72.9098 64.6956 73.5444 64.0615 73.5446 63.312C73.5448 62.5625 72.9105 61.9283 72.1607 61.9283Z" fill="#ED6663" fill-opacity="0.8"/>
<path d="M80.9845 64.6969C81.7342 64.6969 82.3688 64.0627 82.369 63.3133C82.3692 62.5638 81.7349 61.9296 80.9851 61.9296C80.2353 61.9295 79.6008 62.5636 79.6006 63.3131C79.6004 64.0626 80.2347 64.6968 80.9845 64.6969Z" fill="#ED6663" fill-opacity="0.8"/>
<path d="M89.8667 64.6981C90.6312 64.6982 91.2511 64.0787 91.2513 63.3146C91.2514 62.5504 90.6319 61.9309 89.8674 61.9309C89.1029 61.9308 88.483 62.5503 88.4828 63.3144C88.4826 64.0786 89.1022 64.6981 89.8667 64.6981Z" fill="#ED6663" fill-opacity="0.8"/>
<path d="M1.39021 70.9117C2.15469 70.9118 2.77458 70.2923 2.77476 69.5281C2.77494 68.764 2.15535 68.1445 1.39087 68.1444C0.626394 68.1444 0.00653695 68.7638 0.00635507 69.528C0.0061732 70.2922 0.625735 70.9117 1.39021 70.9117Z" fill="#ED6663" fill-opacity="0.8"/>
<path d="M10.2153 68.088C9.46553 68.088 8.83097 68.7222 8.83079 69.4716C8.83061 70.2211 9.46488 70.8553 10.2147 70.8554C10.9645 70.8554 11.5991 70.2213 11.5993 69.4718C11.5994 68.7223 10.9651 68.0881 10.2153 68.088Z" fill="#ED6663" fill-opacity="0.8"/>
<path d="M19.0392 70.9143C19.789 70.9143 20.4236 70.2801 20.4238 69.5307C20.4239 68.7812 19.7897 68.147 19.0399 68.147C18.2901 68.1469 17.6555 68.7811 17.6553 69.5305C17.6552 70.28 18.2895 70.9142 19.0392 70.9143Z" fill="#ED6663" fill-opacity="0.8"/>
<path d="M27.9213 70.9156C28.6711 70.9156 29.3057 70.2815 29.3059 69.532C29.3061 68.7825 28.6718 68.1483 27.922 68.1483C27.1722 68.1482 26.5376 68.7824 26.5374 69.5318C26.5372 70.2813 27.1138 70.9155 27.9213 70.9156Z" fill="#ED6663" fill-opacity="0.8"/>
<path d="M36.7458 70.9168C37.5103 70.9169 38.1302 70.2974 38.1304 69.5332C38.1306 68.7691 37.511 68.1496 36.7465 68.1495C35.982 68.1495 35.3621 68.7689 35.3619 69.5331C35.3618 70.2972 35.9813 70.9168 36.7458 70.9168Z" fill="#ED6663" fill-opacity="0.8"/>
<path d="M45.628 70.9181C46.3778 70.9182 47.0124 70.284 47.0126 69.5346C47.0128 68.7851 46.3785 68.1509 45.6287 68.1509C44.8789 68.1508 44.2443 68.7849 44.2441 69.5344C44.2439 70.2839 44.8206 70.9181 45.628 70.9181Z" fill="#ED6663" fill-opacity="0.8"/>
<path d="M54.4525 70.9194C55.217 70.9194 55.8369 70.3 55.837 69.5358C55.8372 68.7716 55.2176 68.1521 54.4531 68.1521C53.6886 68.1521 53.0688 68.7715 53.0686 69.5356C53.0684 70.2998 53.688 70.9193 54.4525 70.9194Z" fill="#ED6663" fill-opacity="0.8"/>
<path d="M63.3353 68.0957C62.5855 68.0957 61.9509 68.7298 61.9507 69.4793C61.9506 70.2288 62.5849 70.863 63.3347 70.863C64.0845 70.8631 64.719 70.2289 64.7192 69.4794C64.7194 68.73 64.0851 68.0957 63.3353 68.0957Z" fill="#ED6663" fill-opacity="0.8"/>
<path d="M72.1591 70.9219C72.9089 70.922 73.5435 70.2878 73.5437 69.5383C73.5439 68.7889 72.9096 68.1547 72.1598 68.1546C71.41 68.1546 70.7754 68.7887 70.7752 69.5382C70.775 70.2877 71.4093 70.9219 72.1591 70.9219Z" fill="#ED6663" fill-opacity="0.8"/>
<path d="M80.9836 70.9232C81.7481 70.9233 82.368 70.3038 82.3681 69.5396C82.3683 68.7755 81.7487 68.156 80.9843 68.1559C80.2198 68.1559 79.5999 68.7753 79.5997 69.5395C79.5996 70.3037 80.2191 70.9232 80.9836 70.9232Z" fill="#ED6663" fill-opacity="0.8"/>
<path d="M89.8658 70.9245C90.6303 70.9245 91.2502 70.3051 91.2503 69.5409C91.2505 68.7767 90.6309 68.1572 89.8664 68.1572C89.102 68.1572 88.4821 68.7766 88.4819 69.5408C88.4817 70.3049 89.1013 70.9245 89.8658 70.9245Z" fill="#ED6663" fill-opacity="0.8"/>
<path d="M1.38932 77.0805C2.1538 77.0805 2.77369 76.4611 2.77387 75.6969C2.77406 74.9327 2.15446 74.3132 1.38998 74.3132C0.625505 74.3132 0.00564834 74.9326 0.00546647 75.6968C0.0052846 76.4609 0.624847 77.0804 1.38932 77.0805Z" fill="#ED6663" fill-opacity="0.8"/>
<path d="M10.2138 77.0817C10.9636 77.0818 11.5982 76.4476 11.5984 75.6982C11.5986 74.9487 10.9643 74.3145 10.2145 74.3145C9.46468 74.3144 8.83011 74.9485 8.82993 75.698C8.82975 76.4475 9.46402 77.0817 10.2138 77.0817Z" fill="#ED6663" fill-opacity="0.8"/>
<path d="M19.0383 77.083C19.7881 77.0831 20.4227 76.4489 20.4228 75.6994C20.423 74.95 19.7888 74.3158 19.039 74.3157C18.2892 74.3157 17.6546 74.9498 17.6544 75.6993C17.6543 76.4488 18.2885 77.083 19.0383 77.083Z" fill="#ED6663" fill-opacity="0.8"/>
<path d="M27.9204 77.0843C28.6849 77.0843 29.3048 76.4649 29.305 75.7007C29.3052 74.9365 28.6856 74.317 27.9211 74.317C27.1566 74.317 26.5367 74.9364 26.5365 75.7005C26.5363 76.4647 27.1559 77.0842 27.9204 77.0843Z" fill="#ED6663" fill-opacity="0.8"/>
<path d="M36.7456 74.3183C35.9958 74.3183 35.3613 74.9524 35.3611 75.7018C35.3609 76.4513 35.9952 77.0856 36.745 77.0856C37.4948 77.0856 38.1294 76.4515 38.1295 75.702C38.1297 74.9525 37.5531 74.3183 36.7456 74.3183Z" fill="#ED6663" fill-opacity="0.8"/>
<path d="M45.6278 74.3196C44.878 74.3195 44.2434 74.9536 44.2432 75.7031C44.243 76.4526 44.8773 77.0868 45.6271 77.0868C46.3769 77.0869 47.0115 76.4527 47.0117 75.7033C47.0119 74.9538 46.3776 74.3196 45.6278 74.3196Z" fill="#ED6663" fill-opacity="0.8"/>
<path d="M54.4516 77.0881C55.2014 77.0882 55.836 76.454 55.8361 75.7046C55.8363 74.9551 55.202 74.3209 54.4522 74.3209C53.7024 74.3208 53.0679 74.9549 53.0677 75.7044C53.0675 76.4539 53.7018 77.0881 54.4516 77.0881Z" fill="#ED6663" fill-opacity="0.8"/>
<path d="M63.3337 77.0894C64.0982 77.0894 64.7181 76.47 64.7183 75.7058C64.7185 74.9416 64.0989 74.3222 63.3344 74.3221C62.5699 74.3221 61.95 74.9415 61.9498 75.7057C61.9496 76.4698 62.5692 77.0894 63.3337 77.0894Z" fill="#ED6663" fill-opacity="0.8"/>
<path d="M72.1583 77.0907C72.9081 77.0907 73.5427 76.4566 73.5428 75.7071C73.543 74.9576 72.9087 74.3235 72.1589 74.3234C71.4091 74.3234 70.7745 74.9575 70.7743 75.707C70.7741 76.4564 71.4085 77.0907 72.1583 77.0907Z" fill="#ED6663" fill-opacity="0.8"/>
<path d="M80.9827 77.092C81.7472 77.092 82.3671 76.4726 82.3672 75.7084C82.3674 74.9442 81.7478 74.3247 80.9834 74.3247C80.2189 74.3247 79.599 74.9441 79.5988 75.7082C79.5987 76.4724 80.2182 77.0919 80.9827 77.092Z" fill="#ED6663" fill-opacity="0.8"/>
<path d="M89.8649 77.0933C90.6294 77.0933 91.2493 76.4738 91.2494 75.7097C91.2496 74.9455 90.63 74.326 89.8655 74.326C89.1011 74.3259 88.4812 74.9454 88.481 75.7095C88.4808 76.4737 89.1004 77.0932 89.8649 77.0933Z" fill="#ED6663" fill-opacity="0.8"/>
<path d="M1.38843 83.2492C2.15291 83.2492 2.7728 82.6298 2.77299 81.8656C2.77317 81.1015 2.15357 80.4819 1.38909 80.4819C0.624617 80.4819 0.00475975 81.1013 0.00457788 81.8655C0.00439601 82.6296 0.623958 83.2491 1.38843 83.2492Z" fill="#ED6663" fill-opacity="0.8"/>
<path d="M10.2129 83.2504C10.9627 83.2505 11.5973 82.6163 11.5975 81.8669C11.5977 81.1174 10.9634 80.4832 10.2136 80.4831C9.46377 80.4831 8.8292 81.1173 8.82902 81.8667C8.82883 82.6738 9.46311 83.2504 10.2129 83.2504Z" fill="#ED6663" fill-opacity="0.8"/>
<path d="M19.0374 83.2517C19.7872 83.2518 20.4218 82.6176 20.4219 81.8682C20.4221 81.1187 19.7879 80.4845 19.0381 80.4845C18.2883 80.4844 17.6537 81.1186 17.6535 81.868C17.6534 82.6751 18.2877 83.2517 19.0374 83.2517Z" fill="#ED6663" fill-opacity="0.8"/>
<path d="M27.9195 83.253C28.6693 83.253 29.3039 82.6189 29.3041 81.8694C29.3043 81.12 28.6699 80.4857 27.9202 80.4857C27.1704 80.4857 26.5358 81.1198 26.5356 81.8693C26.5354 82.6764 27.112 83.2529 27.9195 83.253Z" fill="#ED6663" fill-opacity="0.8"/>
<path d="M36.7447 80.487C35.9949 80.487 35.3604 81.1211 35.3602 81.8706C35.36 82.62 35.9943 83.2542 36.7441 83.2543C37.4939 83.2543 38.1285 82.6202 38.1287 81.8707C38.1288 81.1213 37.5522 80.487 36.7447 80.487Z" fill="#ED6663" fill-opacity="0.8"/>
<path d="M45.6262 83.2555C46.376 83.2556 47.0106 82.6214 47.0108 81.872C47.011 81.1225 46.3767 80.4883 45.6269 80.4883C44.8771 80.4882 44.2425 81.1224 44.2423 81.8718C44.2421 82.679 44.8188 83.2555 45.6262 83.2555Z" fill="#ED6663" fill-opacity="0.8"/>
<path d="M55.8352 81.8733C55.8354 81.1238 55.2011 80.4896 54.4513 80.4896C53.7015 80.4895 53.067 81.1237 53.0668 81.8731C53.0666 82.6226 53.7009 83.2568 54.4507 83.2568C55.2005 83.2569 55.8351 82.6804 55.8352 81.8733Z" fill="#ED6663" fill-opacity="0.8"/>
<path d="M63.3335 80.4908C62.5837 80.4908 61.9491 81.1249 61.9489 81.8744C61.9487 82.6238 62.5831 83.2581 63.3328 83.2581C64.0826 83.2581 64.7172 82.624 64.7174 81.8745C64.7176 81.1251 64.0833 80.4908 63.3335 80.4908Z" fill="#ED6663" fill-opacity="0.8"/>
<path d="M72.1574 83.2594C72.9072 83.2594 73.5418 82.6253 73.5419 81.8758C73.5421 81.1264 72.9078 80.4922 72.158 80.4921C71.4082 80.4921 70.7736 81.1262 70.7734 81.8757C70.7732 82.6828 71.4076 83.2594 72.1574 83.2594Z" fill="#ED6663" fill-opacity="0.8"/>
<path d="M80.9825 80.4934C80.2327 80.4933 79.5981 81.1275 79.5979 81.8769C79.5978 82.6264 80.232 83.2606 80.9818 83.2607C81.7316 83.2607 82.3662 82.6265 82.3664 81.8771C82.4242 81.1276 81.7899 80.4934 80.9825 80.4934Z" fill="#ED6663" fill-opacity="0.8"/>
<path d="M89.864 83.262C90.6285 83.262 91.2484 82.6425 91.2485 81.8784C91.2487 81.1142 90.6291 80.4947 89.8647 80.4947C89.1002 80.4946 88.4803 81.1141 88.4801 81.8782C88.4799 82.6424 89.0995 83.2619 89.864 83.262Z" fill="#ED6663" fill-opacity="0.8"/>
<path d="M1.38752 89.4756C2.13729 89.4756 2.77188 88.8415 2.77206 88.092C2.77223 87.3425 2.13794 86.7083 1.38817 86.7083C0.638396 86.7083 0.00384281 87.3424 0.00366564 88.0918C-0.0541865 88.8413 0.580067 89.4755 1.38752 89.4756Z" fill="#ED6663" fill-opacity="0.8"/>
<path d="M10.212 89.4768C10.9618 89.4769 11.5964 88.8427 11.5966 88.0932C11.5968 87.3438 10.9625 86.7096 10.2127 86.7096C9.46286 86.7095 8.82829 87.3436 8.82812 88.0931C8.82794 88.8426 9.46221 89.4768 10.212 89.4768Z" fill="#ED6663" fill-opacity="0.8"/>
<path d="M19.0372 86.7109C18.2874 86.7108 17.6528 87.3449 17.6527 88.0944C17.6525 88.8439 18.2868 89.4781 19.0366 89.4781C19.7863 89.4782 20.4209 88.844 20.4211 88.0945C20.4213 87.2874 19.8447 86.7109 19.0372 86.7109Z" fill="#ED6663" fill-opacity="0.8"/>
<path d="M26.5348 88.0957C26.5346 88.8451 27.1688 89.4793 27.9186 89.4794C28.6684 89.4794 29.303 88.8453 29.3032 88.0958C29.3034 87.3463 28.6691 86.7122 27.9193 86.7121C27.1118 86.7121 26.535 87.2885 26.5348 88.0957Z" fill="#ED6663" fill-opacity="0.8"/>
<path d="M36.7431 89.4807C37.4929 89.4807 38.1275 88.8466 38.1277 88.0971C38.1279 87.3476 37.4936 86.7134 36.7438 86.7134C35.994 86.7134 35.3594 87.3475 35.3593 88.0969C35.3591 88.8464 35.9933 89.4806 36.7431 89.4807Z" fill="#ED6663" fill-opacity="0.8"/>
<path d="M45.6253 89.4819C46.3751 89.482 47.0097 88.8478 47.0099 88.0984C47.01 87.3489 46.3758 86.7147 45.626 86.7147C44.8762 86.7146 44.2416 87.3487 44.2414 88.0982C44.2412 88.8477 44.8179 89.4819 45.6253 89.4819Z" fill="#ED6663" fill-opacity="0.8"/>
<path d="M54.4498 89.4832C55.1996 89.4833 55.8342 88.8491 55.8344 88.0996C55.8345 87.3502 55.2002 86.716 54.4504 86.716C53.7006 86.7159 53.0661 87.35 53.0659 88.0995C53.0657 88.849 53.7 89.4832 54.4498 89.4832Z" fill="#ED6663" fill-opacity="0.8"/>
<path d="M63.3326 86.7172C62.5828 86.7172 61.9482 87.3513 61.948 88.1008C61.9479 88.8502 62.5822 89.4844 63.332 89.4845C64.0817 89.4845 64.7163 88.8504 64.7165 88.1009C64.7167 87.3514 64.0824 86.7173 63.3326 86.7172Z" fill="#ED6663" fill-opacity="0.8"/>
<path d="M72.1571 86.7185C71.4073 86.7185 70.7727 87.3526 70.7725 88.1021C70.7723 88.8515 71.4066 89.4857 72.1564 89.4858C72.9062 89.4858 73.5408 88.8517 73.541 88.1022C73.5412 87.2951 72.9069 86.7186 72.1571 86.7185Z" fill="#ED6663" fill-opacity="0.8"/>
<path d="M80.9809 89.4871C81.7307 89.4871 82.3653 88.853 82.3654 88.1035C82.3656 87.354 81.7313 86.7198 80.9815 86.7198C80.2318 86.7198 79.5972 87.3539 79.597 88.1033C79.5968 88.8528 80.2311 89.487 80.9809 89.4871Z" fill="#ED6663" fill-opacity="0.8"/>
<path d="M89.8631 89.4883C90.6129 89.4884 91.2475 88.8542 91.2477 88.1048C91.2478 87.3553 90.6136 86.7211 89.8638 86.7211C89.114 86.7211 88.4794 87.3552 88.4792 88.1046C88.479 88.8541 89.1133 89.4883 89.8631 89.4883Z" fill="#ED6663" fill-opacity="0.8"/>
<g filter="url(#filter0_d)">
<path d="M256 33.1371C256 27.5589 251.474 23.0369 245.891 23.0369L143.505 23.0369L41.1193 23.0369C35.5365 23.0369 31.0107 27.5589 31.0107 33.1371V146.555C31.0107 152.133 35.5365 156.655 41.1193 156.655H245.891C251.474 156.655 256 152.133 256 146.555V33.1371Z" fill="white"/>
</g>
<rect x="49.6172" y="109.915" width="192.267" height="32.4606" rx="16.2303" fill="#242830" fill-opacity="0.06"/>
<circle cx="73.1482" cy="89.1564" r="8.15368" stroke="#242830" stroke-opacity="0.5" stroke-width="0.749573"/>
<circle cx="73.1482" cy="126.833" r="8.15368" fill="white" stroke="#3C76F0" stroke-width="0.749573"/>
<circle cx="73.1484" cy="126.833" r="5.68565" fill="#3C76F0"/>
<path d="M97.439 87.2581C97.2862 86.7832 97.0346 86.4081 96.6842 86.133C96.3362 85.8579 95.9012 85.7204 95.3793 85.7204C94.9513 85.7204 94.5622 85.8309 94.2118 86.0519C93.8615 86.2729 93.5828 86.5986 93.3759 87.0289C93.169 87.4592 93.0656 87.987 93.0656 88.6125C93.0656 89.2379 93.1702 89.7658 93.3795 90.1961C93.5887 90.6264 93.8721 90.952 94.2295 91.1731C94.5869 91.3941 94.9889 91.5046 95.4357 91.5046C95.8425 91.5046 96.2022 91.4188 96.5149 91.2471C96.83 91.0731 97.0769 90.8286 97.2556 90.5135C97.4343 90.1961 97.5284 89.8211 97.5378 89.3884H95.6332V88.6125H98.3842V89.3884C98.3842 89.9833 98.2573 90.5006 98.0033 90.9403C97.7517 91.38 97.4037 91.7209 96.9593 91.9631C96.5173 92.2029 96.0094 92.3229 95.4357 92.3229C94.7961 92.3229 94.2342 92.1724 93.7498 91.8714C93.2678 91.5704 92.8916 91.1425 92.6212 90.5876C92.3531 90.0327 92.2191 89.3743 92.2191 88.6125C92.2191 87.8506 92.3531 87.1923 92.6212 86.6374C92.8916 86.0825 93.2642 85.6545 93.7392 85.3536C94.2165 85.0526 94.7632 84.9021 95.3793 84.9021C95.8871 84.9021 96.348 85.002 96.7618 85.2019C97.1757 85.3994 97.5201 85.6757 97.7952 86.0307C98.0703 86.3834 98.2526 86.7926 98.3419 87.2581H97.439Z" fill="#242830"/>
<path d="M102.041 92.337C101.519 92.337 101.069 92.2217 100.69 91.9913C100.314 91.7585 100.023 91.4341 99.8188 91.0179C99.6166 90.5993 99.5155 90.1126 99.5155 89.5577C99.5155 89.0028 99.6166 88.5137 99.8188 88.0905C100.023 87.6649 100.308 87.3334 100.672 87.0959C101.039 86.856 101.467 86.7361 101.956 86.7361C102.238 86.7361 102.517 86.7832 102.792 86.8772C103.067 86.9713 103.318 87.1241 103.543 87.3357C103.769 87.545 103.949 87.8224 104.083 88.1681C104.217 88.5137 104.284 88.9393 104.284 89.4448V89.7975H100.351C100.37 90.376 100.534 90.8192 100.842 91.1272C101.152 91.4352 101.552 91.5892 102.041 91.5892C102.368 91.5892 102.649 91.5187 102.884 91.3776C103.119 91.2365 103.289 91.0249 103.395 90.7428L104.199 90.9685C104.072 91.3776 103.818 91.708 103.438 91.9596C103.057 92.2112 102.591 92.337 102.041 92.337ZM100.351 89.078H103.438C103.438 88.6195 103.303 88.2398 103.035 87.9388C102.767 87.6355 102.408 87.4838 101.956 87.4838C101.639 87.4838 101.364 87.5579 101.131 87.706C100.898 87.8542 100.715 88.0505 100.581 88.295C100.447 88.5372 100.37 88.7982 100.351 89.078Z" fill="#242830"/>
<path d="M107.906 86.8067V87.5121H106.749V90.6722C106.749 90.9074 106.783 91.0837 106.852 91.2013C106.922 91.3165 107.012 91.3941 107.12 91.4341C107.23 91.4717 107.347 91.4905 107.469 91.4905C107.561 91.4905 107.636 91.4858 107.695 91.4764C107.753 91.4646 107.8 91.4552 107.836 91.4482L108.005 92.1959C107.949 92.217 107.87 92.2382 107.769 92.2594C107.668 92.2829 107.539 92.2946 107.384 92.2946C107.149 92.2946 106.919 92.2441 106.693 92.143C106.47 92.0419 106.284 91.8879 106.136 91.6809C105.99 91.474 105.917 91.213 105.917 90.898V87.5121H105.099V86.8067H105.917V85.5087H106.749V86.8067H107.906Z" fill="#242830"/>
<path d="M114.152 92.337C113.663 92.337 113.234 92.2206 112.865 91.9878C112.498 91.755 112.211 91.4294 112.005 91.0108C111.8 90.5923 111.698 90.1032 111.698 89.5436C111.698 88.9793 111.8 88.4867 112.005 88.0658C112.211 87.6449 112.498 87.3181 112.865 87.0853C113.234 86.8525 113.663 86.7361 114.152 86.7361C114.642 86.7361 115.069 86.8525 115.436 87.0853C115.805 87.3181 116.092 87.6449 116.297 88.0658C116.504 88.4867 116.607 88.9793 116.607 89.5436C116.607 90.1032 116.504 90.5923 116.297 91.0108C116.092 91.4294 115.805 91.755 115.436 91.9878C115.069 92.2206 114.642 92.337 114.152 92.337ZM114.152 91.5892C114.524 91.5892 114.83 91.494 115.069 91.3036C115.309 91.1131 115.487 90.8627 115.602 90.5523C115.717 90.2419 115.775 89.9057 115.775 89.5436C115.775 89.1815 115.717 88.8441 115.602 88.5314C115.487 88.2186 115.309 87.9659 115.069 87.7731C114.83 87.5802 114.524 87.4838 114.152 87.4838C113.781 87.4838 113.475 87.5802 113.235 87.7731C112.996 87.9659 112.818 88.2186 112.703 88.5314C112.588 88.8441 112.53 89.1815 112.53 89.5436C112.53 89.9057 112.588 90.2419 112.703 90.5523C112.818 90.8627 112.996 91.1131 113.235 91.3036C113.475 91.494 113.781 91.5892 114.152 91.5892Z" fill="#242830"/>
<path d="M118.71 88.9652V92.2241H117.878V86.8067H118.682V87.6531H118.753C118.879 87.378 119.072 87.157 119.331 86.9901C119.59 86.8208 119.923 86.7361 120.333 86.7361C120.88 86.7361 121.322 86.9042 121.659 87.2405C121.997 87.5767 122.167 88.0905 122.167 88.7818V92.2241H121.334V88.8382C121.334 88.4126 121.224 88.0811 121.003 87.8436C120.782 87.6038 120.478 87.4838 120.093 87.4838C119.695 87.4838 119.365 87.6132 119.102 87.8718C118.841 88.1281 118.71 88.4926 118.71 88.9652Z" fill="#242830"/>
<path d="M125.888 92.337C125.381 92.337 124.943 92.217 124.576 91.9772C124.21 91.7374 123.927 91.407 123.73 90.9861C123.532 90.5652 123.434 90.0844 123.434 89.5436C123.434 88.9934 123.535 88.5078 123.737 88.087C123.942 87.6637 124.226 87.3334 124.591 87.0959C124.957 86.856 125.385 86.7361 125.874 86.7361C126.255 86.7361 126.599 86.8067 126.904 86.9477C127.21 87.0888 127.46 87.2863 127.655 87.5403C127.851 87.7942 127.972 88.0905 128.019 88.4291H127.186C127.123 88.1822 126.982 87.9635 126.763 87.7731C126.547 87.5802 126.255 87.4838 125.888 87.4838C125.402 87.4838 125.009 87.6696 124.71 88.0411C124.414 88.4103 124.266 88.9017 124.266 89.5154C124.266 90.1432 124.413 90.6464 124.707 91.0249C125.001 91.4011 125.395 91.5892 125.888 91.5892C126.213 91.5892 126.49 91.5058 126.721 91.3388C126.954 91.1719 127.109 90.9403 127.186 90.644H128.019C127.972 90.9638 127.855 91.2518 127.67 91.5081C127.486 91.7621 127.243 91.9643 126.939 92.1148C126.639 92.2629 126.288 92.337 125.888 92.337Z" fill="#242830"/>
<path d="M131.507 92.337C130.985 92.337 130.535 92.2217 130.156 91.9913C129.78 91.7585 129.489 91.4341 129.285 91.0179C129.083 90.5993 128.982 90.1126 128.982 89.5577C128.982 89.0028 129.083 88.5137 129.285 88.0905C129.489 87.6649 129.774 87.3334 130.138 87.0959C130.505 86.856 130.933 86.7361 131.422 86.7361C131.704 86.7361 131.983 86.7832 132.258 86.8772C132.533 86.9713 132.784 87.1241 133.009 87.3357C133.235 87.545 133.415 87.8224 133.549 88.1681C133.683 88.5137 133.75 88.9393 133.75 89.4448V89.7975H129.818C129.836 90.376 130 90.8192 130.308 91.1272C130.618 91.4352 131.018 91.5892 131.507 91.5892C131.834 91.5892 132.115 91.5187 132.35 91.3776C132.585 91.2365 132.755 91.0249 132.861 90.7428L133.665 90.9685C133.538 91.3776 133.285 91.708 132.904 91.9596C132.523 92.2112 132.057 92.337 131.507 92.337ZM129.818 89.078H132.904C132.904 88.6195 132.77 88.2398 132.502 87.9388C132.233 87.6355 131.874 87.4838 131.422 87.4838C131.105 87.4838 130.83 87.5579 130.597 87.706C130.364 87.8542 130.181 88.0505 130.047 88.295C129.913 88.5372 129.836 88.7982 129.818 89.078Z" fill="#242830"/>
<path d="M97.8781 124.402C97.7253 123.927 97.4737 123.552 97.1233 123.277C96.7753 123.002 96.3403 122.864 95.8183 122.864C95.3904 122.864 95.0013 122.975 94.6509 123.196C94.3006 123.417 94.0219 123.742 93.815 124.173C93.6081 124.603 93.5046 125.131 93.5046 125.756C93.5046 126.382 93.6093 126.91 93.8185 127.34C94.0278 127.77 94.3111 128.096 94.6685 128.317C95.0259 128.538 95.428 128.648 95.8748 128.648C96.2816 128.648 96.6413 128.563 96.954 128.391C97.2691 128.217 97.516 127.972 97.6947 127.657C97.8734 127.34 97.9674 126.965 97.9768 126.532H96.0723V125.756H98.8233V126.532C98.8233 127.127 98.6964 127.644 98.4424 128.084C98.1908 128.524 97.8428 128.865 97.3984 129.107C96.9564 129.347 96.4485 129.467 95.8748 129.467C95.2352 129.467 94.6733 129.316 94.1889 129.015C93.7069 128.714 93.3306 128.286 93.0602 127.731C92.7922 127.176 92.6582 126.518 92.6582 125.756C92.6582 124.994 92.7922 124.336 93.0602 123.781C93.3306 123.226 93.7033 122.798 94.1783 122.497C94.6556 122.196 95.2023 122.046 95.8183 122.046C96.3262 122.046 96.7871 122.146 97.2009 122.346C97.6147 122.543 97.9592 122.819 98.2343 123.175C98.5094 123.527 98.6916 123.936 98.781 124.402H97.8781Z" fill="#242830"/>
<path d="M102.48 129.481C101.958 129.481 101.508 129.366 101.129 129.135C100.753 128.902 100.462 128.578 100.258 128.162C100.056 127.743 99.9546 127.256 99.9546 126.702C99.9546 126.147 100.056 125.658 100.258 125.234C100.462 124.809 100.747 124.477 101.111 124.24C101.478 124 101.906 123.88 102.395 123.88C102.677 123.88 102.956 123.927 103.231 124.021C103.506 124.115 103.757 124.268 103.982 124.48C104.208 124.689 104.388 124.966 104.522 125.312C104.656 125.658 104.723 126.083 104.723 126.589V126.941H100.79C100.809 127.52 100.973 127.963 101.281 128.271C101.591 128.579 101.991 128.733 102.48 128.733C102.807 128.733 103.088 128.663 103.323 128.521C103.558 128.38 103.728 128.169 103.834 127.887L104.638 128.112C104.511 128.521 104.258 128.852 103.877 129.103C103.496 129.355 103.03 129.481 102.48 129.481ZM100.79 126.222H103.877C103.877 125.763 103.743 125.384 103.475 125.083C103.206 124.779 102.847 124.628 102.395 124.628C102.078 124.628 101.803 124.702 101.57 124.85C101.337 124.998 101.154 125.194 101.02 125.439C100.886 125.681 100.809 125.942 100.79 126.222Z" fill="#242830"/>
<path d="M108.345 123.95V124.656H107.188V127.816C107.188 128.051 107.223 128.228 107.291 128.345C107.361 128.46 107.451 128.538 107.559 128.578C107.669 128.615 107.786 128.634 107.908 128.634C108 128.634 108.075 128.63 108.134 128.62C108.192 128.608 108.239 128.599 108.275 128.592L108.444 129.34C108.388 129.361 108.309 129.382 108.208 129.403C108.107 129.427 107.978 129.438 107.823 129.438C107.588 129.438 107.358 129.388 107.132 129.287C106.909 129.186 106.723 129.032 106.575 128.825C106.429 128.618 106.356 128.357 106.356 128.042V124.656H105.538V123.95H106.356V122.653H107.188V123.95H108.345Z" fill="#242830"/>
<path d="M112.391 129.368V123.95H113.195V124.797H113.265C113.378 124.508 113.56 124.283 113.812 124.123C114.064 123.961 114.366 123.88 114.719 123.88C115.076 123.88 115.373 123.961 115.611 124.123C115.851 124.283 116.038 124.508 116.172 124.797H116.228C116.367 124.517 116.575 124.295 116.852 124.13C117.13 123.963 117.462 123.88 117.85 123.88C118.335 123.88 118.731 124.032 119.039 124.335C119.347 124.636 119.501 125.105 119.501 125.742V129.368H118.669V125.742C118.669 125.342 118.559 125.057 118.341 124.885C118.122 124.713 117.865 124.628 117.568 124.628C117.187 124.628 116.892 124.743 116.683 124.973C116.474 125.201 116.369 125.491 116.369 125.841V129.368H115.523V125.658C115.523 125.349 115.423 125.101 115.223 124.913C115.023 124.723 114.766 124.628 114.45 124.628C114.234 124.628 114.032 124.685 113.844 124.8C113.658 124.916 113.508 125.076 113.392 125.28C113.28 125.482 113.223 125.716 113.223 125.982V129.368H112.391Z" fill="#242830"/>
<path d="M123.224 129.481C122.735 129.481 122.306 129.364 121.936 129.132C121.57 128.899 121.283 128.573 121.076 128.155C120.871 127.736 120.769 127.247 120.769 126.687C120.769 126.123 120.871 125.63 121.076 125.21C121.283 124.789 121.57 124.462 121.936 124.229C122.306 123.996 122.735 123.88 123.224 123.88C123.713 123.88 124.141 123.996 124.508 124.229C124.877 124.462 125.164 124.789 125.368 125.21C125.575 125.63 125.679 126.123 125.679 126.687C125.679 127.247 125.575 127.736 125.368 128.155C125.164 128.573 124.877 128.899 124.508 129.132C124.141 129.364 123.713 129.481 123.224 129.481ZM123.224 128.733C123.595 128.733 123.901 128.638 124.141 128.447C124.381 128.257 124.558 128.006 124.673 127.696C124.789 127.386 124.846 127.049 124.846 126.687C124.846 126.325 124.789 125.988 124.673 125.675C124.558 125.362 124.381 125.11 124.141 124.917C123.901 124.724 123.595 124.628 123.224 124.628C122.852 124.628 122.547 124.724 122.307 124.917C122.067 125.11 121.889 125.362 121.774 125.675C121.659 125.988 121.601 126.325 121.601 126.687C121.601 127.049 121.659 127.386 121.774 127.696C121.889 128.006 122.067 128.257 122.307 128.447C122.547 128.638 122.852 128.733 123.224 128.733Z" fill="#242830"/>
<path d="M127.782 126.109V129.368H126.949V123.95H127.753V124.797H127.824C127.951 124.522 128.144 124.301 128.402 124.134C128.661 123.965 128.995 123.88 129.404 123.88C129.952 123.88 130.394 124.048 130.73 124.384C131.069 124.721 131.238 125.234 131.238 125.926V129.368H130.406V125.982C130.406 125.556 130.295 125.225 130.074 124.987C129.853 124.748 129.55 124.628 129.164 124.628C128.767 124.628 128.436 124.757 128.173 125.016C127.912 125.272 127.782 125.636 127.782 126.109Z" fill="#242830"/>
<path d="M135.115 123.95V124.656H133.958V127.816C133.958 128.051 133.992 128.228 134.06 128.345C134.131 128.46 134.22 128.538 134.328 128.578C134.439 128.615 134.555 128.634 134.678 128.634C134.769 128.634 134.845 128.63 134.903 128.62C134.962 128.608 135.009 128.599 135.044 128.592L135.214 129.34C135.157 129.361 135.079 129.382 134.977 129.403C134.876 129.427 134.748 129.438 134.593 129.438C134.358 129.438 134.127 129.388 133.902 129.287C133.678 129.186 133.493 129.032 133.344 128.825C133.199 128.618 133.126 128.357 133.126 128.042V124.656H132.308V123.95H133.126V122.653H133.958V123.95H135.115Z" fill="#242830"/>
<path d="M137.316 126.109V129.368H136.483V122.145H137.316V124.797H137.386C137.513 124.517 137.704 124.295 137.958 124.13C138.214 123.963 138.555 123.88 138.981 123.88C139.535 123.88 139.982 124.047 140.321 124.381C140.659 124.715 140.829 125.23 140.829 125.926V129.368H139.996V125.982C139.996 125.552 139.885 125.219 139.661 124.984C139.44 124.746 139.133 124.628 138.741 124.628C138.329 124.628 137.988 124.757 137.718 125.016C137.45 125.272 137.316 125.636 137.316 126.109Z" fill="#242830"/>
<path d="M143.184 122.145V129.368H142.351V122.145H143.184Z" fill="#242830"/>
<path d="M145.216 131.47C145.075 131.47 144.949 131.458 144.839 131.435C144.728 131.414 144.652 131.392 144.61 131.371L144.821 130.638C145.125 130.715 145.377 130.713 145.58 130.631C145.784 130.551 145.959 130.308 146.105 129.904L146.288 129.396L144.285 123.95H145.188L146.683 128.267H146.74L148.235 123.95H149.138L146.81 130.243C146.505 131.061 145.973 131.47 145.216 131.47Z" fill="#242830"/>
<path d="M184.08 124.222C184.052 123.937 183.93 123.716 183.714 123.559C183.5 123.401 183.21 123.322 182.846 123.322C182.472 123.322 182.185 123.399 181.985 123.552C181.785 123.705 181.686 123.897 181.686 124.13C181.681 124.389 181.791 124.585 182.017 124.719C182.245 124.851 182.516 124.953 182.828 125.026L183.477 125.181C183.896 125.275 184.267 125.412 184.592 125.59C184.919 125.769 185.175 125.999 185.361 126.282C185.549 126.561 185.643 126.902 185.643 127.304C185.64 127.965 185.392 128.492 184.899 128.885C184.407 129.275 183.721 129.47 182.839 129.47C181.962 129.47 181.262 129.27 180.74 128.87C180.218 128.471 179.948 127.88 179.929 127.1H181.407C181.433 127.462 181.575 127.735 181.834 127.918C182.095 128.099 182.424 128.19 182.821 128.19C183.209 128.19 183.518 128.107 183.749 127.943C183.982 127.778 184.099 127.564 184.102 127.301C184.099 127.056 183.992 126.868 183.781 126.737C183.569 126.605 183.267 126.492 182.874 126.398L182.088 126.2C181.479 126.055 180.998 125.823 180.645 125.506C180.292 125.188 180.117 124.764 180.12 124.232C180.117 123.795 180.234 123.413 180.469 123.086C180.706 122.757 181.032 122.502 181.446 122.321C181.86 122.137 182.33 122.046 182.856 122.046C183.393 122.046 183.86 122.137 184.26 122.321C184.662 122.504 184.975 122.759 185.198 123.086C185.422 123.413 185.537 123.792 185.544 124.222H184.08Z" fill="#242830"/>
<path d="M188.187 129.47C187.669 129.47 187.24 129.335 186.899 129.064C186.558 128.794 186.388 128.391 186.388 127.855C186.388 127.45 186.483 127.133 186.674 126.902C186.864 126.672 187.113 126.504 187.421 126.398C187.732 126.29 188.066 126.219 188.423 126.186C188.893 126.139 189.229 126.09 189.432 126.038C189.634 125.987 189.735 125.874 189.735 125.7V125.678C189.735 125.455 189.664 125.282 189.523 125.16C189.385 125.038 189.187 124.977 188.931 124.977C188.66 124.977 188.445 125.035 188.285 125.153C188.125 125.271 188.02 125.42 187.968 125.601L186.578 125.488C186.682 124.994 186.938 124.603 187.347 124.314C187.759 124.024 188.289 123.88 188.938 123.88C189.34 123.88 189.716 123.943 190.066 124.07C190.417 124.197 190.699 124.396 190.913 124.666C191.129 124.934 191.237 125.283 191.237 125.714V129.368H189.813V128.616H189.77C189.639 128.868 189.441 129.074 189.178 129.234C188.917 129.391 188.586 129.47 188.187 129.47ZM188.617 128.433C188.946 128.433 189.216 128.338 189.428 128.147C189.64 127.955 189.746 127.716 189.746 127.431V126.856C189.687 126.896 189.595 126.932 189.47 126.962C189.348 126.993 189.216 127.02 189.075 127.043C188.937 127.065 188.812 127.083 188.702 127.1C188.438 127.137 188.225 127.212 188.063 127.322C187.903 127.433 187.823 127.594 187.823 127.805C187.823 128.012 187.897 128.169 188.046 128.274C188.196 128.38 188.386 128.433 188.617 128.433Z" fill="#242830"/>
<path d="M197.26 123.95L195.366 129.368H193.673L191.779 123.95H193.366L194.491 127.826H194.548L195.669 123.95H197.26Z" fill="#242830"/>
<path d="M200.313 129.474C199.758 129.474 199.28 129.361 198.878 129.135C198.476 128.907 198.166 128.585 197.95 128.169C197.734 127.75 197.626 127.255 197.626 126.684C197.626 126.126 197.734 125.637 197.95 125.216C198.166 124.796 198.471 124.468 198.864 124.232C199.259 123.997 199.722 123.88 200.253 123.88C200.731 123.88 201.161 123.981 201.544 124.183C201.93 124.385 202.235 124.691 202.461 125.1C202.687 125.507 202.8 126.017 202.8 126.631V127.043H199.111V127.047C199.111 127.451 199.221 127.77 199.442 128.003C199.663 128.236 199.962 128.352 200.338 128.352C200.59 128.352 200.807 128.299 200.99 128.193C201.174 128.087 201.303 127.931 201.378 127.724L202.768 127.816C202.662 128.319 202.394 128.721 201.964 129.022C201.534 129.323 200.983 129.474 200.313 129.474ZM199.111 126.112H201.385C201.383 125.79 201.28 125.524 201.075 125.315C200.87 125.106 200.605 125.001 200.278 125.001C199.944 125.001 199.67 125.109 199.456 125.326C199.242 125.542 199.127 125.804 199.111 126.112Z" fill="#242830"/>
<path d="M206.065 129.368V128.267L208.636 125.887C208.965 125.572 209.216 125.298 209.387 125.065C209.559 124.832 209.645 124.572 209.645 124.285C209.645 123.968 209.539 123.717 209.327 123.534C209.118 123.348 208.855 123.255 208.537 123.255C208.208 123.255 207.942 123.355 207.74 123.555C207.54 123.753 207.442 124.024 207.444 124.37H205.994C205.994 123.897 206.101 123.487 206.315 123.139C206.529 122.791 206.828 122.522 207.211 122.331C207.597 122.141 208.042 122.046 208.548 122.046C209.065 122.046 209.515 122.137 209.899 122.321C210.284 122.502 210.584 122.753 210.798 123.076C211.012 123.395 211.119 123.765 211.119 124.183C211.119 124.456 211.065 124.725 210.957 124.991C210.849 125.256 210.658 125.552 210.385 125.876C210.115 126.198 209.732 126.585 209.236 127.036L208.181 128.07V128.119H211.214V129.368H206.065Z" fill="#242830"/>
<path d="M214.934 122.025C215.306 122.025 215.663 122.087 216.007 122.211C216.352 122.334 216.66 122.532 216.931 122.808C217.203 123.083 217.42 123.447 217.58 123.901C217.739 124.352 217.819 124.908 217.819 125.569C217.819 126.385 217.698 127.085 217.456 127.668C217.214 128.248 216.873 128.694 216.433 129.004C215.996 129.312 215.479 129.466 214.881 129.466C214.399 129.466 213.974 129.374 213.605 129.188C213.235 129 212.938 128.745 212.712 128.422C212.489 128.098 212.354 127.734 212.307 127.329H213.813C213.872 127.592 213.995 127.797 214.183 127.943C214.371 128.086 214.604 128.158 214.881 128.158C215.352 128.158 215.709 127.953 215.954 127.544C216.198 127.133 216.322 126.57 216.324 125.855H216.275C216.115 126.172 215.87 126.422 215.541 126.603C215.214 126.784 214.852 126.874 214.455 126.874C214.029 126.874 213.648 126.774 213.312 126.574C212.976 126.372 212.711 126.096 212.518 125.745C212.328 125.395 212.234 124.994 212.236 124.543C212.234 124.054 212.346 123.62 212.571 123.241C212.797 122.86 213.112 122.562 213.516 122.345C213.923 122.129 214.396 122.022 214.934 122.025ZM214.945 123.224C214.59 123.224 214.296 123.346 214.063 123.591C213.83 123.835 213.715 124.138 213.718 124.5C213.715 124.858 213.828 125.159 214.056 125.403C214.287 125.646 214.578 125.767 214.931 125.767C215.164 125.767 215.373 125.709 215.559 125.594C215.747 125.479 215.895 125.325 216.003 125.132C216.113 124.939 216.17 124.726 216.172 124.493C216.17 124.261 216.115 124.049 216.007 123.859C215.901 123.666 215.756 123.512 215.573 123.397C215.389 123.281 215.18 123.224 214.945 123.224Z" fill="#242830"/>
<path d="M222.831 128.013V127.632C222.834 127.343 222.896 127.078 223.018 126.835C223.14 126.591 223.32 126.396 223.558 126.25C223.795 126.102 224.083 126.028 224.422 126.028C224.768 126.028 225.058 126.101 225.293 126.246C225.531 126.392 225.71 126.587 225.833 126.832C225.955 127.074 226.015 127.341 226.013 127.632V128.013C226.015 128.303 225.954 128.569 225.829 128.814C225.707 129.056 225.527 129.25 225.29 129.396C225.052 129.544 224.763 129.618 224.422 129.618C224.079 129.618 223.788 129.544 223.551 129.396C223.316 129.25 223.137 129.056 223.015 128.814C222.895 128.569 222.834 128.303 222.831 128.013ZM219.124 123.88V123.499C219.127 123.207 219.189 122.94 219.311 122.698C219.436 122.454 219.616 122.258 219.851 122.113C220.088 121.967 220.375 121.894 220.711 121.894C221.059 121.894 221.351 121.967 221.586 122.113C221.824 122.258 222.004 122.454 222.126 122.698C222.248 122.94 222.308 123.207 222.306 123.499V123.88C222.308 124.171 222.247 124.438 222.122 124.68C222 124.923 221.82 125.117 221.583 125.262C221.345 125.406 221.055 125.477 220.711 125.477C220.368 125.477 220.079 125.405 219.844 125.259C219.609 125.113 219.43 124.919 219.308 124.677C219.188 124.435 219.127 124.169 219.124 123.88ZM219.47 129.368L224.436 122.144H225.357L220.391 129.368H219.47ZM223.858 127.632V128.013C223.86 128.18 223.901 128.338 223.981 128.486C224.061 128.634 224.208 128.708 224.422 128.708C224.638 128.708 224.785 128.635 224.863 128.489C224.943 128.344 224.981 128.185 224.979 128.013V127.632C224.981 127.458 224.945 127.299 224.87 127.153C224.795 127.005 224.645 126.931 224.422 126.931C224.21 126.931 224.063 127.005 223.981 127.153C223.901 127.299 223.86 127.458 223.858 127.632ZM220.158 123.499V123.88C220.16 124.051 220.201 124.21 220.281 124.356C220.361 124.502 220.505 124.575 220.711 124.575C220.928 124.575 221.076 124.502 221.156 124.356C221.236 124.21 221.275 124.051 221.272 123.88V123.499C221.275 123.325 221.237 123.165 221.159 123.019C221.084 122.871 220.935 122.797 220.711 122.797C220.502 122.797 220.358 122.872 220.278 123.023C220.2 123.173 220.16 123.332 220.158 123.499Z" fill="#242830"/>
<path d="M127.445 7.53852L159.626 7.53852C168.107 7.53852 174.982 14.4137 174.982 22.8946V55.0752C174.982 63.5561 168.107 70.4313 159.626 70.4313H127.445C118.964 70.4313 112.089 63.5561 112.089 55.0752V22.8946C112.089 14.4137 118.964 7.53852 127.445 7.53852Z" fill="#F1F5FE" stroke="#C1D3FA" stroke-width="0.900776"/>
<path d="M159.732 25.4873L153.643 24.9073L148.858 24.4724C148.858 24.4724 148.858 24.4724 148.713 24.4724C148.423 24.4724 148.133 24.7624 148.133 25.0523C148.133 27.9521 145.813 30.4169 142.769 30.4169C139.869 30.4169 137.404 27.9521 137.404 25.0523C137.549 24.6174 137.404 24.3274 136.969 24.3274C136.969 24.3274 136.969 24.3274 136.824 24.3274L132.04 24.9073L126.095 25.4873C125.805 25.4873 125.515 25.7773 125.515 26.0672V35.4914C125.515 35.7814 125.805 36.0714 126.095 36.0714H131.315C131.605 36.0714 131.895 36.3614 131.895 36.6513V52.745C131.895 53.035 132.185 53.3249 132.475 53.3249H153.208C153.498 53.3249 153.788 53.035 153.788 52.745V36.6513C153.788 36.3614 154.078 36.0714 154.368 36.0714H159.587C159.877 36.0714 160.167 35.7814 160.167 35.4914V26.0672C160.312 25.7773 160.022 25.4873 159.732 25.4873Z" fill="white" stroke="#242830" stroke-width="1.94159" stroke-miterlimit="10"/>
<path opacity="0.1" d="M239.331 49.2427L216.189 49.279" stroke="#242830" stroke-width="5.46798" stroke-linecap="round" stroke-linejoin="round"/>
<path opacity="0.1" d="M239.482 40.7571L194.925 40.7934" stroke="#242830" stroke-width="5.46798" stroke-linecap="round" stroke-linejoin="round"/>
<path d="M156.594 128.829C158.913 126.984 162.278 127.361 164.11 129.669C165.942 131.978 165.547 135.345 163.228 137.19C160.909 139.034 157.544 138.658 155.712 136.349C153.881 134.04 154.275 130.673 156.594 128.829Z" fill="url(#paint0_linear)"/>
<path d="M51.6325 76.6519C53.3362 76.6475 54.9685 75.9671 56.1709 74.7601C57.3733 73.5531 58.0474 71.9182 58.0453 70.2145C58.0431 68.5108 57.3648 66.8776 56.1593 65.6736C54.9538 64.4697 53.3198 63.7935 51.616 63.7935C49.9123 63.7935 48.2783 64.4697 47.0728 65.6736C45.8673 66.8776 45.189 68.5108 45.1868 70.2145C45.1847 71.9182 45.8588 73.5531 47.0612 74.7601C48.2636 75.9671 49.8959 76.6475 51.5996 76.6519H51.6325Z" fill="url(#paint1_linear)"/>
<path d="M172.356 20.3785C175.056 20.3716 177.643 19.2932 179.549 17.3803C181.455 15.4674 182.523 12.8763 182.52 10.1762C182.516 7.47614 181.441 4.8878 179.531 2.97976C177.62 1.07172 175.03 0 172.33 0C169.63 0 167.041 1.07172 165.13 2.97976C163.22 4.8878 162.145 7.47614 162.141 10.1762C162.138 12.8763 163.206 15.4674 165.112 17.3803C167.017 19.2932 169.604 20.3716 172.304 20.3785H172.356Z" fill="url(#paint2_linear)"/>
</g>
<defs>
<filter id="filter0_d" x="20.7864" y="12.8125" width="245.438" height="154.067" filterUnits="userSpaceOnUse" color-interpolation-filters="sRGB">
<feFlood flood-opacity="0" result="BackgroundImageFix"/>
<feColorMatrix in="SourceAlpha" type="matrix" values="0 0 0 0 0 0 0 0 0 0 0 0 0 0 0 0 0 0 127 0"/>
<feOffset/>
<feGaussianBlur stdDeviation="5.11219"/>
<feColorMatrix type="matrix" values="0 0 0 0 0 0 0 0 0 0 0 0 0 0 0 0 0 0 0.12 0"/>
<feBlend mode="normal" in2="BackgroundImageFix" result="effect1_dropShadow"/>
<feBlend mode="normal" in="SourceGraphic" in2="effect1_dropShadow" result="shape"/>
</filter>
<linearGradient id="paint0_linear" x1="154.311" y1="130.645" x2="165.221" y2="135.629" gradientUnits="userSpaceOnUse">
<stop stop-color="#3C76F0" stop-opacity="0"/>
<stop offset="1" stop-color="#3C76F0"/>
</linearGradient>
<linearGradient id="paint1_linear" x1="60.7238" y1="73.3613" x2="45.9345" y2="69.2203" gradientUnits="userSpaceOnUse">
<stop stop-color="#66C789"/>
<stop offset="1" stop-color="#66C789" stop-opacity="0"/>
</linearGradient>
<linearGradient id="paint2_linear" x1="186.765" y1="15.1634" x2="163.326" y2="8.60063" gradientUnits="userSpaceOnUse">
<stop stop-color="#66C789"/>
<stop offset="1" stop-color="#66C789" stop-opacity="0"/>
</linearGradient>
<clipPath id="clip0">
<rect width="256" height="178.52" fill="white"/>
</clipPath>
</defs>
</svg>
