<svg width="256" height="179" viewBox="0 0 256 179" fill="none" xmlns="http://www.w3.org/2000/svg">
<g clip-path="url(#clip0)">
<path d="M165.85 88.8887C165.097 88.8886 164.461 89.5248 164.461 90.2767C164.461 91.0286 165.097 91.6649 165.849 91.6649C166.601 91.665 167.238 91.0288 167.238 90.2769C167.238 89.525 166.602 88.8887 165.85 88.8887Z" fill="#FFD879" fill-opacity="0.8"/>
<path d="M174.702 91.6662C175.454 91.6662 176.091 91.03 176.091 90.2781C176.091 89.5262 175.455 88.89 174.703 88.8899C173.951 88.8899 173.314 89.5261 173.314 90.278C173.314 91.0299 173.95 91.6661 174.702 91.6662Z" fill="#FFD879" fill-opacity="0.8"/>
<path d="M183.555 91.6675C184.307 91.6675 184.944 91.0313 184.944 90.2794C184.944 89.5275 184.308 88.8913 183.556 88.8912C182.804 88.8912 182.167 89.5274 182.167 90.2793C182.167 91.0312 182.803 91.6674 183.555 91.6675Z" fill="#FFD879" fill-opacity="0.8"/>
<path d="M192.466 91.6688C193.218 91.6688 193.855 91.0326 193.855 90.2807C193.855 89.5288 193.219 88.8926 192.467 88.8925C191.714 88.8925 191.078 89.5287 191.078 90.2806C191.078 91.0325 191.656 91.6687 192.466 91.6688Z" fill="#FFD879" fill-opacity="0.8"/>
<path d="M201.319 91.67C202.071 91.6701 202.708 91.0339 202.708 90.282C202.708 89.5301 202.072 88.8938 201.32 88.8938C200.568 88.8938 199.931 89.5299 199.931 90.2818C199.931 91.0337 200.567 91.67 201.319 91.67Z" fill="#FFD879" fill-opacity="0.8"/>
<path d="M210.231 88.895C209.478 88.895 208.842 89.5312 208.842 90.2831C208.841 91.035 209.478 91.6712 210.23 91.6713C210.982 91.6713 211.619 91.0351 211.619 90.2832C211.619 89.5313 210.983 88.8951 210.231 88.895Z" fill="#FFD879" fill-opacity="0.8"/>
<path d="M219.083 91.6726C219.835 91.6726 220.472 91.0364 220.472 90.2845C220.472 89.5326 219.836 88.8964 219.084 88.8964C218.331 88.8963 217.695 89.5325 217.695 90.2844C217.694 91.0363 218.331 91.6726 219.083 91.6726Z" fill="#FFD879" fill-opacity="0.8"/>
<path d="M229.383 90.2858C229.383 89.5339 228.747 88.8977 227.995 88.8977C227.242 88.8976 226.606 89.5338 226.606 90.2857C226.605 91.0376 227.242 91.6739 227.994 91.6739C228.746 91.6739 229.383 91.0377 229.383 90.2858Z" fill="#FFD879" fill-opacity="0.8"/>
<path d="M236.847 91.6752C237.599 91.6752 238.236 91.039 238.236 90.2871C238.236 89.5352 237.6 88.899 236.848 88.8989C236.095 88.8989 235.459 89.5351 235.459 90.287C235.458 91.0389 236.095 91.6751 236.847 91.6752Z" fill="#FFD879" fill-opacity="0.8"/>
<path d="M247.147 90.2884C247.147 89.5365 246.511 88.9002 245.759 88.9002C245.006 88.9002 244.37 89.5364 244.37 90.2883C244.369 91.0402 245.006 91.6764 245.758 91.6764C246.51 91.6765 247.147 91.0403 247.147 90.2884Z" fill="#FFD879" fill-opacity="0.8"/>
<path d="M254.611 91.6777C255.363 91.6778 256 91.0416 256 90.2897C256 89.5378 255.364 88.9015 254.612 88.9015C253.859 88.9014 253.223 89.5376 253.223 90.2895C253.222 91.0414 253.859 91.6777 254.611 91.6777Z" fill="#FFD879" fill-opacity="0.8"/>
<path d="M165.849 95.0774C165.097 95.0773 164.46 95.7135 164.46 96.4654C164.46 97.2173 165.096 97.8536 165.848 97.8536C166.6 97.8536 167.237 97.2175 167.237 96.4656C167.237 95.7137 166.601 95.0774 165.849 95.0774Z" fill="#FFD879" fill-opacity="0.8"/>
<path d="M174.701 97.9127C175.453 97.9127 176.09 97.2766 176.09 96.5247C176.09 95.7728 175.454 95.1365 174.702 95.1365C173.95 95.1364 173.313 95.7726 173.313 96.5245C173.313 97.2764 173.949 97.9127 174.701 97.9127Z" fill="#FFD879" fill-opacity="0.8"/>
<path d="M183.554 97.914C184.307 97.914 184.943 97.2778 184.943 96.5259C184.943 95.774 184.307 95.1378 183.555 95.1377C182.803 95.1377 182.166 95.7739 182.166 96.5258C182.166 97.2777 182.802 97.9139 183.554 97.914Z" fill="#FFD879" fill-opacity="0.8"/>
<path d="M192.465 97.9153C193.217 97.9153 193.854 97.2791 193.854 96.5272C193.854 95.7753 193.218 95.1391 192.466 95.139C191.714 95.139 191.077 95.7752 191.077 96.5271C191.077 97.279 191.655 97.9152 192.465 97.9153Z" fill="#FFD879" fill-opacity="0.8"/>
<path d="M201.318 97.9165C202.07 97.9166 202.707 97.2804 202.707 96.5285C202.707 95.7766 202.071 95.1403 201.319 95.1403C200.567 95.1403 199.93 95.7765 199.93 96.5284C199.93 97.2803 200.566 97.9165 201.318 97.9165Z" fill="#FFD879" fill-opacity="0.8"/>
<path d="M210.23 95.0837C209.478 95.0837 208.841 95.7199 208.841 96.4718C208.841 97.2237 209.477 97.8599 210.229 97.86C210.981 97.86 211.618 97.2238 211.618 96.4719C211.618 95.72 210.982 95.0838 210.23 95.0837Z" fill="#FFD879" fill-opacity="0.8"/>
<path d="M219.082 97.9191C219.834 97.9191 220.471 97.283 220.471 96.5311C220.471 95.7792 219.835 95.1429 219.083 95.1429C218.331 95.1428 217.694 95.779 217.694 96.5309C217.694 97.2828 218.33 97.9191 219.082 97.9191Z" fill="#FFD879" fill-opacity="0.8"/>
<path d="M227.993 97.9204C228.745 97.9204 229.382 97.2843 229.382 96.5324C229.382 95.7805 228.746 95.1442 227.994 95.1442C227.242 95.1441 226.605 95.7803 226.605 96.5322C226.547 97.2841 227.183 97.9204 227.993 97.9204Z" fill="#FFD879" fill-opacity="0.8"/>
<path d="M236.846 97.9217C237.598 97.9217 238.235 97.2855 238.235 96.5336C238.235 95.7817 237.599 95.1455 236.847 95.1454C236.095 95.1454 235.458 95.7816 235.458 96.5335C235.458 97.2854 236.094 97.9216 236.846 97.9217Z" fill="#FFD879" fill-opacity="0.8"/>
<path d="M245.699 97.9229C246.451 97.923 247.088 97.2868 247.088 96.5349C247.088 95.783 246.452 95.1467 245.7 95.1467C244.948 95.1466 244.311 95.7828 244.311 96.5347C244.311 97.2866 244.947 97.9229 245.699 97.9229Z" fill="#FFD879" fill-opacity="0.8"/>
<path d="M254.61 97.9242C255.362 97.9243 255.999 97.2881 255.999 96.5362C255.999 95.7843 255.363 95.148 254.611 95.148C253.859 95.1479 253.222 95.7842 253.222 96.5361C253.222 97.288 253.858 97.9242 254.61 97.9242Z" fill="#FFD879" fill-opacity="0.8"/>
<path d="M165.847 104.1C166.599 104.1 167.236 103.464 167.236 102.712C167.236 101.96 166.6 101.324 165.848 101.324C165.096 101.324 164.459 101.96 164.459 102.712C164.459 103.464 165.037 104.1 165.847 104.1Z" fill="#FFD879" fill-opacity="0.8"/>
<path d="M174.7 104.101C175.453 104.101 176.089 103.465 176.089 102.713C176.09 101.961 175.453 101.325 174.701 101.325C173.949 101.325 173.312 101.961 173.312 102.713C173.312 103.465 173.948 104.101 174.7 104.101Z" fill="#FFD879" fill-opacity="0.8"/>
<path d="M183.554 101.326C182.802 101.326 182.165 101.963 182.165 102.714C182.165 103.466 182.801 104.103 183.553 104.103C184.306 104.103 184.942 103.467 184.942 102.715C184.943 101.963 184.364 101.326 183.554 101.326Z" fill="#FFD879" fill-opacity="0.8"/>
<path d="M192.464 104.104C193.216 104.104 193.853 103.468 193.853 102.716C193.853 101.964 193.217 101.328 192.465 101.328C191.713 101.328 191.076 101.964 191.076 102.716C191.076 103.468 191.654 104.104 192.464 104.104Z" fill="#FFD879" fill-opacity="0.8"/>
<path d="M201.317 104.105C202.07 104.105 202.706 103.469 202.706 102.717C202.707 101.965 202.07 101.329 201.318 101.329C200.566 101.329 199.929 101.965 199.929 102.717C199.929 103.469 200.565 104.105 201.317 104.105Z" fill="#FFD879" fill-opacity="0.8"/>
<path d="M210.228 104.107C210.98 104.107 211.617 103.47 211.617 102.718C211.617 101.967 210.981 101.33 210.229 101.33C209.477 101.33 208.84 101.966 208.84 102.718C208.84 103.47 209.418 104.106 210.228 104.107Z" fill="#FFD879" fill-opacity="0.8"/>
<path d="M219.081 104.108C219.833 104.108 220.47 103.472 220.47 102.72C220.471 101.968 219.834 101.332 219.082 101.332C218.33 101.332 217.693 101.968 217.693 102.72C217.693 103.472 218.329 104.108 219.081 104.108Z" fill="#FFD879" fill-opacity="0.8"/>
<path d="M227.993 101.333C227.241 101.333 226.604 101.969 226.604 102.721C226.604 103.473 227.24 104.109 227.992 104.109C228.744 104.109 229.381 103.473 229.381 102.721C229.381 101.969 228.745 101.333 227.993 101.333Z" fill="#FFD879" fill-opacity="0.8"/>
<path d="M236.845 104.11C237.597 104.11 238.234 103.474 238.234 102.722C238.234 101.97 237.598 101.334 236.846 101.334C236.094 101.334 235.457 101.97 235.457 102.722C235.457 103.474 236.093 104.11 236.845 104.11Z" fill="#FFD879" fill-opacity="0.8"/>
<path d="M245.698 104.112C246.45 104.112 247.087 103.475 247.087 102.724C247.087 101.972 246.451 101.335 245.699 101.335C244.947 101.335 244.31 101.972 244.31 102.723C244.31 103.475 244.946 104.112 245.698 104.112Z" fill="#FFD879" fill-opacity="0.8"/>
<path d="M254.61 101.337C253.858 101.337 253.221 101.973 253.221 102.725C253.221 103.477 253.857 104.113 254.609 104.113C255.361 104.113 255.998 103.477 255.998 102.725C255.998 101.973 255.362 101.337 254.61 101.337Z" fill="#FFD879" fill-opacity="0.8"/>
<path d="M165.846 110.289C166.613 110.289 167.235 109.667 167.235 108.901C167.236 108.134 166.614 107.513 165.847 107.513C165.08 107.513 164.458 108.134 164.458 108.901C164.458 109.667 165.079 110.289 165.846 110.289Z" fill="#FFD879" fill-opacity="0.8"/>
<path d="M174.7 107.514C173.948 107.514 173.311 108.15 173.311 108.902C173.311 109.654 173.947 110.29 174.699 110.29C175.452 110.29 176.088 109.654 176.088 108.902C176.089 108.15 175.452 107.514 174.7 107.514Z" fill="#FFD879" fill-opacity="0.8"/>
<path d="M183.553 107.515C182.801 107.515 182.164 108.151 182.164 108.903C182.164 109.655 182.8 110.291 183.552 110.291C184.305 110.291 184.941 109.655 184.941 108.903C184.942 108.151 184.363 107.515 183.553 107.515Z" fill="#FFD879" fill-opacity="0.8"/>
<path d="M192.463 110.293C193.216 110.293 193.852 109.656 193.852 108.905C193.853 108.153 193.216 107.516 192.464 107.516C191.712 107.516 191.075 108.153 191.075 108.904C191.075 109.714 191.653 110.293 192.463 110.293Z" fill="#FFD879" fill-opacity="0.8"/>
<path d="M201.316 110.294C202.069 110.294 202.705 109.658 202.705 108.906C202.706 108.154 202.069 107.518 201.317 107.518C200.565 107.518 199.928 108.154 199.928 108.906C199.928 109.658 200.564 110.294 201.316 110.294Z" fill="#FFD879" fill-opacity="0.8"/>
<path d="M210.228 107.519C209.476 107.519 208.839 108.155 208.839 108.907C208.839 109.659 209.475 110.295 210.227 110.295C210.98 110.295 211.616 109.659 211.616 108.907C211.617 108.155 210.98 107.519 210.228 107.519Z" fill="#FFD879" fill-opacity="0.8"/>
<path d="M219.08 110.296C219.833 110.297 220.469 109.66 220.469 108.908C220.47 108.157 219.833 107.52 219.081 107.52C218.329 107.52 217.692 108.156 217.692 108.908C217.692 109.718 218.328 110.296 219.08 110.296Z" fill="#FFD879" fill-opacity="0.8"/>
<path d="M227.992 107.522C227.24 107.521 226.603 108.158 226.603 108.91C226.603 109.661 227.239 110.298 227.991 110.298C228.744 110.298 229.38 109.662 229.38 108.91C229.38 108.158 228.744 107.522 227.992 107.522Z" fill="#FFD879" fill-opacity="0.8"/>
<path d="M236.844 110.299C237.597 110.299 238.233 109.663 238.233 108.911C238.234 108.159 237.597 107.523 236.845 107.523C236.093 107.523 235.456 108.159 235.456 108.911C235.456 109.721 236.092 110.299 236.844 110.299Z" fill="#FFD879" fill-opacity="0.8"/>
<path d="M245.697 110.3C246.45 110.3 247.086 109.664 247.086 108.912C247.087 108.16 246.45 107.524 245.698 107.524C244.946 107.524 244.309 108.16 244.309 108.912C244.309 109.722 244.945 110.3 245.697 110.3Z" fill="#FFD879" fill-opacity="0.8"/>
<path d="M254.608 110.302C255.375 110.302 255.997 109.68 255.997 108.914C255.998 108.147 255.376 107.525 254.609 107.525C253.842 107.525 253.22 108.147 253.22 108.913C253.22 109.68 253.841 110.302 254.608 110.302Z" fill="#FFD879" fill-opacity="0.8"/>
<path d="M165.845 116.535C166.598 116.535 167.234 115.899 167.234 115.147C167.235 114.395 166.598 113.759 165.846 113.759C165.094 113.759 164.457 114.395 164.457 115.147C164.399 115.899 165.035 116.535 165.845 116.535Z" fill="#FFD879" fill-opacity="0.8"/>
<path d="M174.698 116.537C175.451 116.537 176.087 115.9 176.088 115.149C176.088 114.397 175.451 113.76 174.699 113.76C173.947 113.76 173.31 114.397 173.31 115.148C173.31 115.9 173.946 116.537 174.698 116.537Z" fill="#FFD879" fill-opacity="0.8"/>
<path d="M183.552 116.538C184.304 116.538 184.94 115.902 184.941 115.15C184.941 114.398 184.304 113.762 183.552 113.762C182.8 113.762 182.163 114.398 182.163 115.15C182.163 115.902 182.799 116.538 183.552 116.538Z" fill="#FFD879" fill-opacity="0.8"/>
<path d="M192.462 116.539C193.215 116.539 193.851 115.903 193.852 115.151C193.852 114.399 193.215 113.763 192.463 113.763C191.711 113.763 191.074 114.399 191.074 115.151C191.074 115.903 191.652 116.539 192.462 116.539Z" fill="#FFD879" fill-opacity="0.8"/>
<path d="M201.316 116.54C202.068 116.54 202.704 115.904 202.705 115.152C202.705 114.401 202.068 113.764 201.316 113.764C200.564 113.764 199.927 114.4 199.927 115.152C199.927 115.904 200.563 116.54 201.316 116.54Z" fill="#FFD879" fill-opacity="0.8"/>
<path d="M210.226 116.542C210.979 116.542 211.615 115.906 211.615 115.154C211.616 114.402 210.979 113.766 210.227 113.765C209.475 113.765 208.838 114.402 208.838 115.154C208.838 115.905 209.416 116.542 210.226 116.542Z" fill="#FFD879" fill-opacity="0.8"/>
<path d="M219.079 116.543C219.832 116.543 220.468 115.907 220.469 115.155C220.469 114.403 219.832 113.767 219.08 113.767C218.328 113.767 217.691 114.403 217.691 115.155C217.691 115.907 218.327 116.543 219.079 116.543Z" fill="#FFD879" fill-opacity="0.8"/>
<path d="M227.99 116.544C228.743 116.544 229.379 115.908 229.379 115.156C229.38 114.404 228.743 113.768 227.991 113.768C227.239 113.768 226.602 114.404 226.602 115.156C226.544 115.908 227.18 116.544 227.99 116.544Z" fill="#FFD879" fill-opacity="0.8"/>
<path d="M236.843 116.546C237.596 116.546 238.232 115.909 238.233 115.158C238.233 114.406 237.596 113.769 236.844 113.769C236.092 113.769 235.455 114.406 235.455 115.157C235.455 115.909 236.091 116.546 236.843 116.546Z" fill="#FFD879" fill-opacity="0.8"/>
<path d="M247.143 115.159C247.144 114.407 246.507 113.771 245.755 113.771C245.003 113.771 244.366 114.407 244.366 115.159C244.366 115.911 245.002 116.547 245.754 116.547C246.507 116.547 247.143 115.911 247.143 115.159Z" fill="#FFD879" fill-opacity="0.8"/>
<path d="M254.608 113.772C253.856 113.772 253.219 114.408 253.219 115.16C253.219 115.912 253.855 116.548 254.607 116.548C255.36 116.548 255.996 115.912 255.996 115.16C255.997 114.35 255.36 113.772 254.608 113.772Z" fill="#FFD879" fill-opacity="0.8"/>
<path d="M165.845 122.724C166.597 122.724 167.233 122.088 167.234 121.336C167.234 120.584 166.597 119.948 165.845 119.948C165.093 119.948 164.456 120.584 164.456 121.336C164.398 122.088 165.034 122.724 165.845 122.724Z" fill="#FFD879" fill-opacity="0.8"/>
<path d="M174.698 122.725C175.45 122.725 176.086 122.089 176.087 121.337C176.087 120.585 175.45 119.949 174.698 119.949C173.946 119.949 173.309 120.585 173.309 121.337C173.309 122.089 173.945 122.725 174.698 122.725Z" fill="#FFD879" fill-opacity="0.8"/>
<path d="M183.551 122.727C184.303 122.727 184.939 122.09 184.94 121.339C184.94 120.587 184.304 119.95 183.551 119.95C182.799 119.95 182.162 120.586 182.162 121.338C182.162 122.09 182.798 122.727 183.551 122.727Z" fill="#FFD879" fill-opacity="0.8"/>
<path d="M192.462 122.728C193.229 122.728 193.85 122.106 193.851 121.34C193.851 120.573 193.229 119.952 192.462 119.952C191.695 119.952 191.073 120.573 191.073 121.34C191.073 122.106 191.695 122.728 192.462 122.728Z" fill="#FFD879" fill-opacity="0.8"/>
<path d="M201.315 122.729C202.067 122.729 202.704 122.093 202.704 121.341C202.704 120.589 202.068 119.953 201.315 119.953C200.563 119.953 199.926 120.589 199.926 121.341C199.926 122.093 200.562 122.729 201.315 122.729Z" fill="#FFD879" fill-opacity="0.8"/>
<path d="M210.226 122.73C210.978 122.73 211.614 122.094 211.615 121.342C211.615 120.59 210.978 119.954 210.226 119.954C209.474 119.954 208.837 120.59 208.837 121.342C208.837 122.094 209.415 122.73 210.226 122.73Z" fill="#FFD879" fill-opacity="0.8"/>
<path d="M219.079 122.732C219.831 122.732 220.467 122.096 220.468 121.344C220.468 120.592 219.831 119.956 219.079 119.955C218.327 119.955 217.69 120.592 217.69 121.343C217.69 122.095 218.326 122.732 219.079 122.732Z" fill="#FFD879" fill-opacity="0.8"/>
<path d="M227.99 122.733C228.756 122.733 229.378 122.112 229.379 121.345C229.379 120.578 228.757 119.957 227.99 119.957C227.223 119.957 226.601 120.578 226.601 121.345C226.601 122.111 227.223 122.733 227.99 122.733Z" fill="#FFD879" fill-opacity="0.8"/>
<path d="M236.843 122.734C237.595 122.734 238.231 122.098 238.232 121.346C238.232 120.594 237.595 119.958 236.843 119.958C236.091 119.958 235.454 120.594 235.454 121.346C235.454 122.098 236.09 122.734 236.843 122.734Z" fill="#FFD879" fill-opacity="0.8"/>
<path d="M245.696 122.736C246.448 122.736 247.084 122.099 247.085 121.347C247.085 120.596 246.448 119.959 245.696 119.959C244.944 119.959 244.307 120.595 244.307 121.347C244.307 122.099 244.943 122.736 245.696 122.736Z" fill="#FFD879" fill-opacity="0.8"/>
<path d="M254.607 119.961C253.855 119.961 253.218 120.597 253.218 121.349C253.218 122.101 253.854 122.737 254.606 122.737C255.359 122.737 255.995 122.101 255.996 121.349C255.996 120.597 255.359 119.961 254.607 119.961Z" fill="#FFD879" fill-opacity="0.8"/>
<path d="M165.844 128.971C166.611 128.971 167.232 128.349 167.233 127.583C167.233 126.816 166.611 126.194 165.844 126.194C165.077 126.194 164.455 126.816 164.455 127.582C164.455 128.349 165.077 128.97 165.844 128.971Z" fill="#FFD879" fill-opacity="0.8"/>
<path d="M174.697 126.138C173.945 126.138 173.308 126.774 173.308 127.526C173.308 128.278 173.944 128.914 174.697 128.914C175.449 128.914 176.086 128.278 176.086 127.526C176.086 126.774 175.45 126.138 174.697 126.138Z" fill="#FFD879" fill-opacity="0.8"/>
<path d="M183.55 126.139C182.798 126.139 182.162 126.775 182.161 127.527C182.161 128.279 182.798 128.915 183.55 128.915C184.302 128.915 184.939 128.279 184.939 127.527C184.939 126.775 184.361 126.139 183.55 126.139Z" fill="#FFD879" fill-opacity="0.8"/>
<path d="M192.461 128.974C193.228 128.974 193.85 128.353 193.85 127.586C193.85 126.82 193.228 126.198 192.461 126.198C191.694 126.198 191.072 126.82 191.072 127.586C191.072 128.353 191.694 128.974 192.461 128.974Z" fill="#FFD879" fill-opacity="0.8"/>
<path d="M201.314 128.976C202.066 128.976 202.703 128.34 202.703 127.588C202.703 126.836 202.067 126.199 201.314 126.199C200.562 126.199 199.926 126.836 199.925 127.587C199.925 128.339 200.561 128.976 201.314 128.976Z" fill="#FFD879" fill-opacity="0.8"/>
<path d="M210.225 128.977C210.977 128.977 211.614 128.341 211.614 127.589C211.614 126.837 210.978 126.201 210.225 126.201C209.473 126.201 208.836 126.837 208.836 127.589C208.836 128.341 209.415 128.977 210.225 128.977Z" fill="#FFD879" fill-opacity="0.8"/>
<path d="M219.078 128.978C219.845 128.978 220.467 128.357 220.467 127.59C220.467 126.824 219.845 126.202 219.078 126.202C218.311 126.202 217.689 126.823 217.689 127.59C217.689 128.357 218.311 128.978 219.078 128.978Z" fill="#FFD879" fill-opacity="0.8"/>
<path d="M227.989 126.145C227.237 126.145 226.6 126.782 226.6 127.533C226.6 128.285 227.236 128.922 227.989 128.922C228.741 128.922 229.377 128.286 229.378 127.534C229.378 126.782 228.741 126.145 227.989 126.145Z" fill="#FFD879" fill-opacity="0.8"/>
<path d="M236.842 128.981C237.594 128.981 238.231 128.345 238.231 127.593C238.231 126.841 237.595 126.205 236.842 126.205C236.09 126.205 235.453 126.841 235.453 127.593C235.453 128.345 236.089 128.981 236.842 128.981Z" fill="#FFD879" fill-opacity="0.8"/>
<path d="M245.695 128.982C246.447 128.982 247.083 128.346 247.084 127.594C247.084 126.842 246.448 126.206 245.695 126.206C244.943 126.206 244.306 126.842 244.306 127.594C244.306 128.346 244.942 128.982 245.695 128.982Z" fill="#FFD879" fill-opacity="0.8"/>
<path d="M254.606 128.983C255.373 128.983 255.994 128.362 255.995 127.595C255.995 126.829 255.373 126.207 254.606 126.207C253.839 126.207 253.217 126.829 253.217 127.595C253.217 128.362 253.839 128.983 254.606 128.983Z" fill="#FFD879" fill-opacity="0.8"/>
<path d="M165.843 135.159C166.61 135.159 167.232 134.538 167.232 133.771C167.232 133.005 166.61 132.383 165.843 132.383C165.076 132.383 164.455 133.004 164.454 133.771C164.454 134.538 165.076 135.159 165.843 135.159Z" fill="#FFD879" fill-opacity="0.8"/>
<path d="M174.696 135.161C175.463 135.161 176.085 134.539 176.085 133.772C176.085 133.006 175.463 132.384 174.696 132.384C173.93 132.384 173.308 133.006 173.307 133.772C173.307 134.539 173.929 135.16 174.696 135.161Z" fill="#FFD879" fill-opacity="0.8"/>
<path d="M183.55 132.386C182.797 132.386 182.161 133.022 182.161 133.774C182.16 134.525 182.797 135.162 183.549 135.162C184.301 135.162 184.938 134.526 184.938 133.774C184.938 133.022 184.36 132.386 183.55 132.386Z" fill="#FFD879" fill-opacity="0.8"/>
<path d="M192.46 135.163C193.212 135.163 193.849 134.527 193.849 133.775C193.849 133.023 193.213 132.387 192.46 132.387C191.708 132.387 191.072 133.023 191.071 133.775C191.071 134.527 191.65 135.163 192.46 135.163Z" fill="#FFD879" fill-opacity="0.8"/>
<path d="M201.313 135.164C202.065 135.164 202.702 134.528 202.702 133.776C202.702 133.024 202.066 132.388 201.313 132.388C200.561 132.388 199.925 133.024 199.924 133.776C199.924 134.528 200.561 135.164 201.313 135.164Z" fill="#FFD879" fill-opacity="0.8"/>
<path d="M210.224 135.166C210.976 135.166 211.613 134.529 211.613 133.778C211.613 133.026 210.977 132.389 210.224 132.389C209.472 132.389 208.836 133.026 208.835 133.777C208.835 134.529 209.414 135.166 210.224 135.166Z" fill="#FFD879" fill-opacity="0.8"/>
<path d="M219.077 135.167C219.829 135.167 220.466 134.531 220.466 133.779C220.466 133.027 219.83 132.391 219.077 132.391C218.325 132.391 217.689 133.027 217.688 133.779C217.688 134.531 218.325 135.167 219.077 135.167Z" fill="#FFD879" fill-opacity="0.8"/>
<path d="M227.988 132.392C227.236 132.392 226.599 133.028 226.599 133.78C226.599 134.532 227.235 135.168 227.988 135.168C228.74 135.168 229.377 134.532 229.377 133.78C229.377 133.028 228.741 132.392 227.988 132.392Z" fill="#FFD879" fill-opacity="0.8"/>
<path d="M236.841 135.169C237.593 135.17 238.23 134.533 238.23 133.781C238.23 133.03 237.594 132.393 236.841 132.393C236.089 132.393 235.452 133.029 235.452 133.781C235.452 134.533 236.088 135.169 236.841 135.169Z" fill="#FFD879" fill-opacity="0.8"/>
<path d="M245.694 135.171C246.461 135.171 247.083 134.549 247.083 133.783C247.083 133.016 246.461 132.395 245.694 132.395C244.927 132.395 244.306 133.016 244.305 133.783C244.305 134.549 244.927 135.171 245.694 135.171Z" fill="#FFD879" fill-opacity="0.8"/>
<path d="M254.605 135.172C255.372 135.172 255.994 134.551 255.994 133.784C255.994 133.017 255.372 132.396 254.605 132.396C253.838 132.396 253.217 133.017 253.216 133.784C253.216 134.55 253.838 135.172 254.605 135.172Z" fill="#FFD879" fill-opacity="0.8"/>
<path d="M165.842 141.348C166.609 141.348 167.231 140.727 167.231 139.96C167.231 139.193 166.609 138.572 165.843 138.572C165.076 138.572 164.454 139.193 164.454 139.96C164.453 140.726 165.075 141.348 165.842 141.348Z" fill="#FFD879" fill-opacity="0.8"/>
<path d="M174.695 141.349C175.447 141.349 176.084 140.713 176.084 139.961C176.084 139.209 175.448 138.573 174.696 138.573C173.943 138.573 173.307 139.209 173.307 139.961C173.306 140.771 173.943 141.349 174.695 141.349Z" fill="#FFD879" fill-opacity="0.8"/>
<path d="M183.548 141.35C184.3 141.351 184.937 140.714 184.937 139.962C184.937 139.211 184.301 138.574 183.549 138.574C182.796 138.574 182.16 139.21 182.16 139.962C182.159 140.772 182.796 141.35 183.548 141.35Z" fill="#FFD879" fill-opacity="0.8"/>
<path d="M192.459 141.352C193.226 141.352 193.848 140.73 193.848 139.964C193.848 139.197 193.226 138.576 192.459 138.576C191.693 138.576 191.071 139.197 191.07 139.964C191.07 140.73 191.692 141.352 192.459 141.352Z" fill="#FFD879" fill-opacity="0.8"/>
<path d="M201.312 141.353C202.079 141.353 202.701 140.732 202.701 139.965C202.701 139.198 202.08 138.577 201.313 138.577C200.546 138.577 199.924 139.198 199.924 139.965C199.923 140.731 200.545 141.353 201.312 141.353Z" fill="#FFD879" fill-opacity="0.8"/>
<path d="M210.224 138.578C209.471 138.578 208.835 139.214 208.834 139.966C208.834 140.718 209.471 141.354 210.223 141.354C210.975 141.354 211.612 140.718 211.612 139.966C211.612 139.214 210.976 138.578 210.224 138.578Z" fill="#FFD879" fill-opacity="0.8"/>
<path d="M219.076 141.356C219.843 141.356 220.465 140.734 220.465 139.968C220.465 139.201 219.843 138.579 219.077 138.579C218.31 138.579 217.688 139.201 217.687 139.967C217.687 140.734 218.309 141.356 219.076 141.356Z" fill="#FFD879" fill-opacity="0.8"/>
<path d="M227.987 141.357C228.754 141.357 229.376 140.736 229.376 139.969C229.376 139.202 228.754 138.581 227.987 138.581C227.22 138.581 226.599 139.202 226.598 139.969C226.598 140.735 227.22 141.357 227.987 141.357Z" fill="#FFD879" fill-opacity="0.8"/>
<path d="M236.84 141.358C237.592 141.358 238.229 140.722 238.229 139.97C238.229 139.218 237.593 138.582 236.841 138.582C236.088 138.582 235.452 139.218 235.451 139.97C235.451 140.78 236.088 141.358 236.84 141.358Z" fill="#FFD879" fill-opacity="0.8"/>
<path d="M245.694 138.583C244.941 138.583 244.305 139.219 244.305 139.971C244.304 140.723 244.941 141.359 245.693 141.359C246.445 141.36 247.082 140.723 247.082 139.971C247.14 139.22 246.504 138.583 245.694 138.583Z" fill="#FFD879" fill-opacity="0.8"/>
<path d="M254.604 141.361C255.371 141.361 255.993 140.739 255.993 139.973C255.993 139.206 255.371 138.585 254.604 138.585C253.838 138.584 253.216 139.206 253.215 139.973C253.215 140.739 253.837 141.361 254.604 141.361Z" fill="#FFD879" fill-opacity="0.8"/>
<path d="M165.841 147.594C166.608 147.595 167.23 146.973 167.23 146.206C167.23 145.44 166.609 144.818 165.842 144.818C165.075 144.818 164.453 145.44 164.453 146.206C164.452 146.973 165.074 147.594 165.841 147.594Z" fill="#FFD879" fill-opacity="0.8"/>
<path d="M174.694 147.596C175.446 147.596 176.083 146.96 176.083 146.208C176.083 145.456 175.447 144.82 174.695 144.82C173.942 144.819 173.306 145.456 173.306 146.208C173.305 146.959 173.942 147.596 174.694 147.596Z" fill="#FFD879" fill-opacity="0.8"/>
<path d="M183.547 147.597C184.299 147.597 184.936 146.961 184.936 146.209C184.936 145.457 184.3 144.821 183.548 144.821C182.796 144.821 182.159 145.457 182.159 146.209C182.159 146.961 182.795 147.597 183.547 147.597Z" fill="#FFD879" fill-opacity="0.8"/>
<path d="M192.458 147.598C193.225 147.598 193.847 146.977 193.847 146.21C193.847 145.444 193.226 144.822 192.459 144.822C191.692 144.822 191.07 145.443 191.07 146.21C191.069 146.977 191.691 147.598 192.458 147.598Z" fill="#FFD879" fill-opacity="0.8"/>
<path d="M201.311 147.6C202.078 147.6 202.7 146.978 202.7 146.212C202.7 145.445 202.079 144.823 201.312 144.823C200.545 144.823 199.923 145.445 199.923 146.211C199.922 146.978 200.544 147.6 201.311 147.6Z" fill="#FFD879" fill-opacity="0.8"/>
<path d="M210.222 147.601C210.974 147.601 211.611 146.965 211.611 146.213C211.611 145.461 210.975 144.825 210.223 144.825C209.47 144.825 208.834 145.461 208.834 146.213C208.833 146.965 209.412 147.601 210.222 147.601Z" fill="#FFD879" fill-opacity="0.8"/>
<path d="M219.075 147.602C219.842 147.602 220.464 146.981 220.464 146.214C220.464 145.447 219.843 144.826 219.076 144.826C218.309 144.826 217.687 145.447 217.687 146.214C217.686 146.981 218.308 147.602 219.075 147.602Z" fill="#FFD879" fill-opacity="0.8"/>
<path d="M227.986 147.603C228.753 147.603 229.375 146.982 229.375 146.215C229.375 145.449 228.754 144.827 227.987 144.827C227.22 144.827 226.598 145.449 226.598 146.215C226.597 146.982 227.219 147.603 227.986 147.603Z" fill="#FFD879" fill-opacity="0.8"/>
<path d="M236.839 147.605C237.591 147.605 238.228 146.969 238.228 146.217C238.228 145.465 237.592 144.829 236.84 144.829C236.087 144.828 235.451 145.465 235.451 146.217C235.45 146.968 236.087 147.605 236.839 147.605Z" fill="#FFD879" fill-opacity="0.8"/>
<path d="M245.692 147.606C246.459 147.606 247.081 146.985 247.081 146.218C247.081 145.451 246.46 144.83 245.693 144.83C244.926 144.83 244.304 145.451 244.304 146.218C244.303 146.984 244.925 147.606 245.692 147.606Z" fill="#FFD879" fill-opacity="0.8"/>
<path d="M254.603 147.607C255.37 147.607 255.992 146.986 255.992 146.219C255.992 145.453 255.371 144.831 254.604 144.831C253.837 144.831 253.215 145.452 253.215 146.219C253.214 146.986 253.836 147.607 254.603 147.607Z" fill="#FFD879" fill-opacity="0.8"/>
<path d="M165.84 153.783C166.607 153.783 167.229 153.162 167.229 152.395C167.229 151.628 166.608 151.007 165.841 151.007C165.074 151.007 164.452 151.628 164.452 152.395C164.452 153.162 165.073 153.783 165.84 153.783Z" fill="#FFD879" fill-opacity="0.8"/>
<path d="M174.694 151.008C173.942 151.008 173.305 151.644 173.305 152.396C173.305 153.148 173.941 153.784 174.693 153.784C175.445 153.785 176.082 153.148 176.082 152.396C176.082 151.645 175.446 151.008 174.694 151.008Z" fill="#FFD879" fill-opacity="0.8"/>
<path d="M182.158 152.398C182.158 153.149 182.794 153.786 183.546 153.786C184.298 153.786 184.935 153.15 184.935 152.398C184.935 151.646 184.299 151.01 183.547 151.009C182.795 151.009 182.158 151.646 182.158 152.398Z" fill="#FFD879" fill-opacity="0.8"/>
<path d="M192.457 153.787C193.224 153.787 193.846 153.166 193.846 152.399C193.846 151.632 193.225 151.011 192.458 151.011C191.691 151.011 191.069 151.632 191.069 152.399C191.068 153.165 191.69 153.787 192.457 153.787Z" fill="#FFD879" fill-opacity="0.8"/>
<path d="M201.31 153.788C202.077 153.788 202.699 153.167 202.699 152.4C202.699 151.634 202.078 151.012 201.311 151.012C200.544 151.012 199.922 151.633 199.922 152.4C199.922 153.167 200.543 153.788 201.31 153.788Z" fill="#FFD879" fill-opacity="0.8"/>
<path d="M210.221 153.79C210.973 153.79 211.61 153.153 211.61 152.402C211.61 151.65 210.974 151.013 210.222 151.013C209.469 151.013 208.833 151.649 208.833 152.401C208.832 153.153 209.411 153.79 210.221 153.79Z" fill="#FFD879" fill-opacity="0.8"/>
<path d="M219.074 153.791C219.841 153.791 220.463 153.169 220.463 152.403C220.463 151.636 219.842 151.015 219.075 151.015C218.308 151.015 217.686 151.636 217.686 152.403C217.686 153.169 218.307 153.791 219.074 153.791Z" fill="#FFD879" fill-opacity="0.8"/>
<path d="M227.986 151.016C227.233 151.016 226.597 151.652 226.597 152.404C226.596 153.156 227.233 153.792 227.985 153.792C228.737 153.792 229.374 153.156 229.374 152.404C229.374 151.652 228.738 151.016 227.986 151.016Z" fill="#FFD879" fill-opacity="0.8"/>
<path d="M236.839 151.017C236.086 151.017 235.45 151.653 235.45 152.405C235.449 153.157 236.086 153.793 236.838 153.793C237.59 153.793 238.227 153.157 238.227 152.405C238.227 151.653 237.591 151.017 236.839 151.017Z" fill="#FFD879" fill-opacity="0.8"/>
<path d="M245.691 153.795C246.443 153.795 247.08 153.159 247.08 152.407C247.08 151.655 246.444 151.018 245.692 151.018C244.94 151.018 244.303 151.655 244.303 152.406C244.303 153.158 244.939 153.795 245.691 153.795Z" fill="#FFD879" fill-opacity="0.8"/>
<path d="M254.602 153.796C255.369 153.796 255.991 153.175 255.991 152.408C255.991 151.641 255.37 151.02 254.603 151.02C253.836 151.02 253.214 151.641 253.214 152.408C253.213 153.174 253.835 153.796 254.602 153.796Z" fill="#FFD879" fill-opacity="0.8"/>
<path d="M165.839 160.03C166.606 160.03 167.228 159.408 167.228 158.642C167.228 157.875 166.607 157.253 165.84 157.253C165.073 157.253 164.451 157.875 164.451 158.641C164.451 159.408 165.072 160.03 165.839 160.03Z" fill="#FFD879" fill-opacity="0.8"/>
<path d="M174.693 157.197C173.941 157.197 173.304 157.833 173.304 158.585C173.304 159.337 173.94 159.973 174.692 159.973C175.444 159.973 176.081 159.337 176.081 158.585C176.081 157.833 175.445 157.197 174.693 157.197Z" fill="#FFD879" fill-opacity="0.8"/>
<path d="M183.545 160.032C184.298 160.032 184.934 159.396 184.934 158.644C184.934 157.892 184.298 157.256 183.546 157.256C182.794 157.256 182.157 157.892 182.157 158.644C182.157 159.396 182.793 160.032 183.545 160.032Z" fill="#FFD879" fill-opacity="0.8"/>
<path d="M192.456 160.034C193.208 160.034 193.845 159.397 193.845 158.645C193.845 157.894 193.209 157.257 192.457 157.257C191.705 157.257 191.068 157.893 191.068 158.645C191.068 159.397 191.646 160.033 192.456 160.034Z" fill="#FFD879" fill-opacity="0.8"/>
<path d="M201.309 160.035C202.076 160.035 202.698 159.413 202.698 158.647C202.698 157.88 202.077 157.259 201.31 157.259C200.543 157.259 199.921 157.88 199.921 158.647C199.921 159.413 200.542 160.035 201.309 160.035Z" fill="#FFD879" fill-opacity="0.8"/>
<path d="M210.22 160.036C210.972 160.036 211.609 159.4 211.609 158.648C211.609 157.896 210.973 157.26 210.221 157.26C209.469 157.26 208.832 157.896 208.832 158.648C208.832 159.4 209.41 160.036 210.22 160.036Z" fill="#FFD879" fill-opacity="0.8"/>
<path d="M219.073 160.037C219.84 160.037 220.462 159.416 220.462 158.649C220.462 157.883 219.841 157.261 219.074 157.261C218.307 157.261 217.685 157.883 217.685 158.649C217.685 159.416 218.306 160.037 219.073 160.037Z" fill="#FFD879" fill-opacity="0.8"/>
<path d="M227.985 157.205C227.233 157.205 226.596 157.841 226.596 158.593C226.596 159.345 227.232 159.981 227.984 159.981C228.736 159.981 229.373 159.345 229.373 158.593C229.373 157.841 228.737 157.205 227.985 157.205Z" fill="#FFD879" fill-opacity="0.8"/>
<path d="M236.837 160.04C237.589 160.04 238.226 159.404 238.226 158.652C238.226 157.9 237.59 157.264 236.838 157.264C236.086 157.264 235.449 157.9 235.449 158.652C235.449 159.404 236.085 160.04 236.837 160.04Z" fill="#FFD879" fill-opacity="0.8"/>
<path d="M245.69 160.041C246.457 160.041 247.079 159.42 247.079 158.653C247.079 157.887 246.458 157.265 245.691 157.265C244.924 157.265 244.302 157.886 244.302 158.653C244.302 159.42 244.923 160.041 245.69 160.041Z" fill="#FFD879" fill-opacity="0.8"/>
<path d="M254.601 160.042C255.368 160.043 255.99 159.421 255.99 158.654C255.99 157.888 255.369 157.266 254.602 157.266C253.835 157.266 253.213 157.888 253.213 158.654C253.213 159.421 253.834 160.042 254.601 160.042Z" fill="#FFD879" fill-opacity="0.8"/>
<path d="M165.838 166.218C166.605 166.218 167.227 165.597 167.227 164.83C167.227 164.064 166.606 163.442 165.839 163.442C165.072 163.442 164.45 164.064 164.45 164.83C164.45 165.597 165.071 166.218 165.838 166.218Z" fill="#FFD879" fill-opacity="0.8"/>
<path d="M174.691 166.22C175.444 166.22 176.08 165.584 176.08 164.832C176.081 164.08 175.444 163.443 174.692 163.443C173.94 163.443 173.303 164.08 173.303 164.831C173.303 165.583 173.939 166.22 174.691 166.22Z" fill="#FFD879" fill-opacity="0.8"/>
<path d="M183.544 166.221C184.297 166.221 184.933 165.585 184.933 164.833C184.934 164.081 184.297 163.445 183.545 163.445C182.793 163.445 182.156 164.081 182.156 164.833C182.156 165.585 182.792 166.221 183.544 166.221Z" fill="#FFD879" fill-opacity="0.8"/>
<path d="M192.455 166.222C193.222 166.222 193.844 165.601 193.844 164.834C193.844 164.068 193.223 163.446 192.456 163.446C191.689 163.446 191.067 164.067 191.067 164.834C191.067 165.601 191.688 166.222 192.455 166.222Z" fill="#FFD879" fill-opacity="0.8"/>
<path d="M201.309 163.447C200.557 163.447 199.92 164.083 199.92 164.835C199.92 165.587 200.556 166.223 201.308 166.224C202.061 166.224 202.697 165.587 202.697 164.835C202.698 164.084 202.119 163.447 201.309 163.447Z" fill="#FFD879" fill-opacity="0.8"/>
<path d="M210.22 163.449C209.468 163.449 208.831 164.085 208.831 164.837C208.831 165.588 209.467 166.225 210.219 166.225C210.971 166.225 211.608 165.589 211.608 164.837C211.608 164.085 210.972 163.449 210.22 163.449Z" fill="#FFD879" fill-opacity="0.8"/>
<path d="M219.072 166.226C219.824 166.226 220.461 165.59 220.461 164.838C220.462 164.086 219.825 163.45 219.073 163.45C218.321 163.45 217.684 164.086 217.684 164.838C217.684 165.59 218.32 166.226 219.072 166.226Z" fill="#FFD879" fill-opacity="0.8"/>
<path d="M227.983 166.227C228.75 166.227 229.372 165.606 229.372 164.839C229.372 164.073 228.751 163.451 227.984 163.451C227.217 163.451 226.595 164.072 226.595 164.839C226.595 165.606 227.216 166.227 227.983 166.227Z" fill="#FFD879" fill-opacity="0.8"/>
<path d="M236.836 166.229C237.589 166.229 238.225 165.592 238.225 164.841C238.226 164.089 237.589 163.452 236.837 163.452C236.085 163.452 235.448 164.089 235.448 164.84C235.448 165.592 236.084 166.229 236.836 166.229Z" fill="#FFD879" fill-opacity="0.8"/>
<path d="M245.689 166.23C246.456 166.23 247.078 165.609 247.078 164.842C247.078 164.075 246.457 163.454 245.69 163.454C244.923 163.454 244.301 164.075 244.301 164.842C244.301 165.608 244.922 166.23 245.689 166.23Z" fill="#FFD879" fill-opacity="0.8"/>
<path d="M254.6 166.231C255.367 166.231 255.989 165.61 255.989 164.843C255.989 164.077 255.368 163.455 254.601 163.455C253.834 163.455 253.212 164.076 253.212 164.843C253.212 165.61 253.833 166.231 254.6 166.231Z" fill="#FFD879" fill-opacity="0.8"/>
<path d="M165.837 172.407C166.604 172.407 167.226 171.786 167.226 171.019C167.227 170.252 166.605 169.631 165.838 169.631C165.071 169.631 164.449 170.252 164.449 171.019C164.449 171.786 165.07 172.407 165.837 172.407Z" fill="#FFD879" fill-opacity="0.8"/>
<path d="M174.69 172.408C175.443 172.408 176.079 171.772 176.079 171.02C176.08 170.268 175.443 169.632 174.691 169.632C173.939 169.632 173.302 170.268 173.302 171.02C173.302 171.83 173.938 172.408 174.69 172.408Z" fill="#FFD879" fill-opacity="0.8"/>
<path d="M183.544 172.41C184.296 172.41 184.932 171.773 184.933 171.022C184.933 170.27 184.296 169.633 183.544 169.633C182.792 169.633 182.155 170.27 182.155 171.021C182.155 171.831 182.791 172.41 183.544 172.41Z" fill="#FFD879" fill-opacity="0.8"/>
<path d="M192.454 172.411C193.207 172.411 193.843 171.775 193.843 171.023C193.844 170.271 193.207 169.635 192.455 169.635C191.703 169.635 191.066 170.271 191.066 171.023C191.066 171.832 191.644 172.411 192.454 172.411Z" fill="#FFD879" fill-opacity="0.8"/>
<path d="M201.308 169.636C200.556 169.636 199.919 170.272 199.919 171.024C199.919 171.776 200.555 172.412 201.307 172.412C202.06 172.412 202.696 171.776 202.697 171.024C202.697 170.272 202.118 169.636 201.308 169.636Z" fill="#FFD879" fill-opacity="0.8"/>
<path d="M210.218 172.413C210.971 172.413 211.607 171.777 211.607 171.025C211.608 170.274 210.971 169.637 210.219 169.637C209.467 169.637 208.83 170.273 208.83 171.025C208.83 171.835 209.408 172.413 210.218 172.413Z" fill="#FFD879" fill-opacity="0.8"/>
<path d="M220.46 171.027C220.461 170.275 219.824 169.639 219.072 169.639C218.32 169.638 217.683 170.275 217.683 171.027C217.683 171.778 218.319 172.415 219.071 172.415C219.824 172.415 220.46 171.836 220.46 171.027Z" fill="#FFD879" fill-opacity="0.8"/>
<path d="M227.983 169.64C227.231 169.64 226.594 170.276 226.594 171.028C226.594 171.78 227.23 172.416 227.982 172.416C228.735 172.416 229.371 171.78 229.371 171.028C229.371 170.276 228.735 169.64 227.983 169.64Z" fill="#FFD879" fill-opacity="0.8"/>
<path d="M236.835 172.417C237.588 172.417 238.224 171.781 238.224 171.029C238.225 170.277 237.588 169.641 236.836 169.641C236.084 169.641 235.447 170.277 235.447 171.029C235.447 171.839 236.083 172.417 236.835 172.417Z" fill="#FFD879" fill-opacity="0.8"/>
<path d="M245.689 169.642C244.937 169.642 244.3 170.279 244.3 171.03C244.3 171.782 244.936 172.419 245.688 172.419C246.441 172.419 247.077 171.782 247.077 171.031C247.135 170.279 246.499 169.642 245.689 169.642Z" fill="#FFD879" fill-opacity="0.8"/>
<path d="M254.599 172.42C255.366 172.42 255.988 171.798 255.988 171.032C255.989 170.265 255.367 169.644 254.6 169.644C253.833 169.644 253.211 170.265 253.211 171.032C253.211 171.798 253.832 172.42 254.599 172.42Z" fill="#FFD879" fill-opacity="0.8"/>
<path d="M165.836 178.654C166.589 178.654 167.225 178.017 167.225 177.266C167.226 176.514 166.589 175.877 165.837 175.877C165.085 175.877 164.448 176.514 164.448 177.265C164.39 178.017 165.026 178.654 165.836 178.654Z" fill="#FFD879" fill-opacity="0.8"/>
<path d="M174.69 178.655C175.442 178.655 176.078 178.019 176.079 177.267C176.079 176.515 175.442 175.879 174.69 175.879C173.938 175.879 173.301 176.515 173.301 177.267C173.301 178.019 173.937 178.655 174.69 178.655Z" fill="#FFD879" fill-opacity="0.8"/>
<path d="M183.543 175.88C182.791 175.88 182.154 176.516 182.154 177.268C182.154 178.02 182.79 178.656 183.543 178.656C184.295 178.656 184.931 178.02 184.932 177.268C184.932 176.458 184.353 175.88 183.543 175.88Z" fill="#FFD879" fill-opacity="0.8"/>
<path d="M191.065 177.269C191.065 178.021 191.701 178.657 192.453 178.657C193.206 178.657 193.842 178.021 193.843 177.269C193.843 176.517 193.206 175.881 192.454 175.881C191.644 175.881 191.065 176.459 191.065 177.269Z" fill="#FFD879" fill-opacity="0.8"/>
<path d="M201.307 178.659C202.059 178.659 202.695 178.023 202.696 177.271C202.696 176.519 202.059 175.883 201.307 175.883C200.555 175.882 199.918 176.519 199.918 177.271C199.918 178.022 200.554 178.659 201.307 178.659Z" fill="#FFD879" fill-opacity="0.8"/>
<path d="M210.217 178.66C210.97 178.66 211.606 178.024 211.606 177.272C211.607 176.52 210.97 175.884 210.218 175.884C209.466 175.884 208.829 176.52 208.829 177.272C208.829 178.024 209.407 178.66 210.217 178.66Z" fill="#FFD879" fill-opacity="0.8"/>
<path d="M219.07 178.661C219.823 178.661 220.459 178.025 220.46 177.273C220.46 176.521 219.823 175.885 219.071 175.885C218.319 175.885 217.682 176.521 217.682 177.273C217.682 178.025 218.318 178.661 219.07 178.661Z" fill="#FFD879" fill-opacity="0.8"/>
<path d="M227.982 175.886C227.23 175.886 226.593 176.522 226.593 177.274C226.593 178.026 227.229 178.663 227.981 178.663C228.734 178.663 229.37 178.026 229.37 177.274C229.371 176.523 228.734 175.886 227.982 175.886Z" fill="#FFD879" fill-opacity="0.8"/>
<path d="M236.835 175.888C236.083 175.888 235.446 176.524 235.446 177.276C235.446 178.028 236.082 178.664 236.834 178.664C237.587 178.664 238.223 178.028 238.224 177.276C238.224 176.466 237.587 175.888 236.835 175.888Z" fill="#FFD879" fill-opacity="0.8"/>
<path d="M245.687 178.665C246.44 178.665 247.076 178.029 247.076 177.277C247.077 176.525 246.44 175.889 245.688 175.889C244.936 175.889 244.299 176.525 244.299 177.277C244.299 178.029 244.935 178.665 245.687 178.665Z" fill="#FFD879" fill-opacity="0.8"/>
<path d="M254.598 178.666C255.351 178.666 255.987 178.03 255.987 177.278C255.988 176.526 255.351 175.89 254.599 175.89C253.847 175.89 253.21 176.526 253.21 177.278C253.21 178.03 253.846 178.666 254.598 178.666Z" fill="#FFD879" fill-opacity="0.8"/>
<g filter="url(#filter0_d)">
<path d="M225.718 26.1329C225.718 20.5367 221.177 16 215.576 16L112.859 16L10.1413 16C4.5404 16 0 20.5367 0 26.1329L0 139.918C0 145.514 4.5404 150.05 10.1413 150.05H215.576C221.177 150.05 225.718 145.514 225.718 139.918V26.1329Z" fill="white"/>
</g>
<path opacity="0.4" d="M0 24.6009C0 19.8507 3.85074 16 8.60088 16H217.177C221.927 16 225.778 19.8507 225.778 24.6009V56H0V24.6009Z" fill="#F1F5FE"/>
<path d="M86.2448 41.9295L86.2372 34.64L89.1558 34.6369C89.9602 34.6361 90.5643 34.811 90.9681 35.1618C91.3742 35.5102 91.5776 35.9573 91.5781 36.503C91.5786 36.9325 91.4544 37.2803 91.2055 37.5463C90.9566 37.81 90.6424 37.9847 90.2628 38.0705L90.2629 38.1417C90.5405 38.1533 90.8005 38.2313 91.0426 38.3758C91.2872 38.5203 91.4856 38.7218 91.6377 38.9803C91.7898 39.2388 91.8661 39.5483 91.8665 39.909C91.8669 40.2958 91.7711 40.6412 91.5792 40.9451C91.3897 41.249 91.1088 41.489 90.7364 41.665C90.3641 41.8386 89.905 41.9257 89.3592 41.9263L86.2448 41.9295ZM87.7847 40.6679L89.0411 40.6666C89.473 40.6661 89.7861 40.5827 89.9805 40.4164C90.1773 40.2501 90.2756 40.0305 90.2753 39.7576C90.275 39.4563 90.1667 39.2096 89.9506 39.0176C89.7368 38.8257 89.4449 38.7299 89.0747 38.7302L87.7826 38.7316L87.7847 40.6679ZM87.7815 37.6887L88.9241 37.6875C89.2397 37.6872 89.5018 37.605 89.7105 37.4411C89.9191 37.2748 90.0233 37.048 90.023 36.7609C90.0227 36.4975 89.9287 36.2853 89.7411 36.1241C89.5559 35.9629 89.2924 35.8825 88.9507 35.8829L87.7797 35.8841L87.7815 37.6887Z" fill="#6391F3"/>
<path d="M95.3346 42.0268C94.7746 42.0274 94.2916 41.914 93.8856 41.6866C93.4796 41.4568 93.1672 41.1321 92.9485 40.7123C92.7297 40.2902 92.62 39.7908 92.6194 39.2142C92.6188 38.6518 92.7275 38.1581 92.9453 37.7331C93.1632 37.3082 93.4701 36.9768 93.8662 36.7391C94.2646 36.5014 94.7319 36.3823 95.2682 36.3817C95.7499 36.3812 96.1842 36.4828 96.5712 36.6864C96.9606 36.8901 97.2694 37.1983 97.4976 37.6109C97.7259 38.0212 97.8403 38.536 97.8409 39.1553L97.8414 39.5718L94.1183 39.5757L94.1183 39.5792C94.1187 39.9874 94.2306 40.3088 94.4539 40.5434C94.6772 40.7781 94.9787 40.8953 95.3583 40.8949C95.6122 40.8946 95.8317 40.841 96.0166 40.734C96.2016 40.627 96.332 40.4691 96.4077 40.2602L97.8102 40.3513C97.7039 40.8592 97.4338 41.2652 96.9999 41.5694C96.566 41.8736 96.0109 42.0261 95.3346 42.0268ZM94.1173 38.636L96.4131 38.6336C96.4104 38.3085 96.3057 38.0405 96.099 37.8295C95.8924 37.6185 95.6241 37.5132 95.2943 37.5136C94.9573 37.5139 94.681 37.6233 94.4653 37.8419C94.2496 38.0604 94.1336 38.3251 94.1173 38.636Z" fill="#6391F3"/>
<path d="M103.378 38.0034L101.99 38.0903C101.952 37.9147 101.856 37.7641 101.701 37.6385C101.547 37.5129 101.338 37.4503 101.075 37.4505C100.84 37.4508 100.64 37.5008 100.477 37.6007C100.316 37.6981 100.236 37.8287 100.239 37.9924C100.236 38.123 100.288 38.2332 100.392 38.3233C100.499 38.4134 100.679 38.4855 100.933 38.5399L101.923 38.7381C102.975 38.953 103.502 39.446 103.505 40.2172C103.505 40.5755 103.4 40.89 103.189 41.1607C102.981 41.4315 102.694 41.643 102.329 41.7952C101.963 41.9451 101.544 42.0203 101.072 42.0208C100.349 42.0215 99.7718 41.8715 99.342 41.5705C98.9121 41.2673 98.6614 40.8546 98.5896 40.3327L100.081 40.2528C100.129 40.4758 100.238 40.6442 100.409 40.7579C100.582 40.8716 100.804 40.9283 101.075 40.928C101.34 40.9278 101.554 40.8753 101.715 40.7708C101.879 40.6662 101.962 40.5332 101.964 40.3719C101.957 40.1013 101.723 39.9201 101.262 39.828L100.315 39.6403C99.2567 39.4303 98.7293 38.91 98.7332 38.0794C98.7303 37.5527 98.9399 37.1372 99.3619 36.833C99.7863 36.5288 100.349 36.3764 101.049 36.3756C101.739 36.3749 102.283 36.5203 102.679 36.8117C103.078 37.1032 103.311 37.5004 103.378 38.0034Z" fill="#6391F3"/>
<path d="M107.364 36.4402L107.365 37.5792L106.336 37.5803L106.339 40.2285C106.339 40.4373 106.387 40.5784 106.482 40.6519C106.577 40.7253 106.7 40.762 106.852 40.7618C106.923 40.7617 106.995 40.7557 107.066 40.7438C107.137 40.7295 107.192 40.7188 107.23 40.7116L107.469 41.8397C107.393 41.8635 107.287 41.8909 107.149 41.9219C107.011 41.9552 106.844 41.9756 106.647 41.9829C106.097 42.0072 105.654 41.889 105.319 41.6284C104.987 41.3653 104.821 40.9656 104.823 40.4294L104.82 37.5819L104.073 37.5827L104.071 36.4437L104.819 36.4429L104.818 35.133L106.334 35.1315L106.335 36.4413L107.364 36.4402Z" fill="#6391F3"/>
<path d="M112.692 41.9908C112.277 41.9912 111.902 41.8849 111.567 41.6716C111.232 41.4561 110.966 41.1396 110.768 40.7221C110.571 40.3023 110.472 39.7875 110.471 39.1777C110.471 38.5512 110.571 38.0303 110.772 37.6148C110.976 37.197 111.245 36.8846 111.579 36.6778C111.916 36.4687 112.284 36.3639 112.682 36.3635C112.988 36.3631 113.244 36.4151 113.448 36.5193C113.654 36.6211 113.821 36.7479 113.946 36.8996C114.075 37.0513 114.172 37.2019 114.239 37.3513L114.285 37.3513L114.282 34.6106L115.795 34.609L115.803 41.8986L114.308 41.9001L114.307 41.0245L114.243 41.0246C114.174 41.1765 114.074 41.3273 113.944 41.4769C113.814 41.6242 113.645 41.7466 113.439 41.8441C113.235 41.9416 112.986 41.9905 112.692 41.9908ZM113.171 40.7837C113.536 40.7833 113.819 40.6359 114.018 40.3414C114.219 40.0446 114.32 39.653 114.319 39.1665C114.319 38.6777 114.218 38.2898 114.019 38.0029C113.819 37.7136 113.535 37.5692 113.168 37.5696C112.793 37.57 112.507 37.7186 112.31 38.0154C112.116 38.3098 112.019 38.6944 112.02 39.1689C112.02 39.6459 112.119 40.0349 112.316 40.3361C112.514 40.6349 112.798 40.7841 113.171 40.7837Z" fill="#6391F3"/>
<path d="M119.541 42.0014C118.981 42.002 118.498 41.8886 118.092 41.6612C117.686 41.4315 117.373 41.1067 117.155 40.687C116.936 40.2648 116.826 39.7654 116.826 39.1888C116.825 38.6264 116.934 38.1328 117.152 37.7078C117.369 37.2828 117.676 36.9515 118.072 36.7138C118.471 36.476 118.938 36.3569 119.474 36.3564C119.956 36.3558 120.391 36.4574 120.778 36.6611C121.167 36.8648 121.476 37.1729 121.704 37.5856C121.932 37.9958 122.047 38.5106 122.047 39.13L122.048 39.5464L118.325 39.5503L118.325 39.5539C118.325 39.962 118.437 40.2834 118.66 40.5181C118.883 40.7528 119.185 40.8699 119.565 40.8695C119.819 40.8693 120.038 40.8156 120.223 40.7087C120.408 40.6017 120.538 40.4438 120.614 40.2349L122.016 40.3259C121.91 40.8339 121.64 41.2399 121.206 41.5441C120.772 41.8483 120.217 42.0007 119.541 42.0014ZM118.324 38.6106L120.619 38.6082C120.617 38.2831 120.512 38.0151 120.305 37.8041C120.099 37.5932 119.83 37.4879 119.501 37.4882C119.164 37.4886 118.887 37.598 118.672 37.8165C118.456 38.0351 118.34 38.2998 118.324 38.6106Z" fill="#6391F3"/>
<path d="M124.599 41.9926C124.077 41.9931 123.644 41.8571 123.299 41.5846C122.955 41.3121 122.782 40.9053 122.782 40.3643C122.781 39.9561 122.877 39.6357 123.069 39.403C123.261 39.1702 123.512 39.0003 123.823 38.8932C124.136 38.7837 124.473 38.7122 124.834 38.6786C125.308 38.6306 125.648 38.5804 125.852 38.528C126.056 38.4756 126.157 38.3616 126.157 38.186L126.157 38.1646C126.157 37.9392 126.086 37.7649 125.943 37.6416C125.803 37.5184 125.604 37.4569 125.345 37.4572C125.072 37.4575 124.855 37.517 124.694 37.6358C124.533 37.7546 124.426 37.9054 124.374 38.0882L122.971 37.9758C123.075 37.4773 123.334 37.082 123.746 36.7897C124.161 36.4974 124.696 36.3509 125.351 36.3502C125.757 36.3498 126.136 36.4134 126.49 36.5412C126.844 36.669 127.129 36.8692 127.345 37.1418C127.564 37.4121 127.673 37.7644 127.674 38.1986L127.677 41.8861L126.239 41.8876L126.239 41.1295L126.196 41.1295C126.063 41.3836 125.864 41.5914 125.599 41.753C125.335 41.9123 125.002 41.9921 124.599 41.9926ZM125.032 40.9457C125.364 40.9453 125.637 40.8489 125.85 40.6565C126.064 40.4617 126.17 40.2207 126.17 39.9336L126.169 39.3534C126.11 39.3938 126.017 39.4295 125.892 39.4605C125.768 39.4915 125.635 39.5189 125.493 39.5428C125.353 39.5643 125.227 39.5834 125.116 39.6001C124.85 39.6384 124.636 39.7134 124.472 39.8251C124.311 39.9368 124.23 40.0994 124.23 40.3129C124.231 40.5218 124.305 40.6795 124.455 40.7861C124.607 40.8927 124.799 40.9459 125.032 40.9457Z" fill="#6391F3"/>
<path d="M130.362 34.5937L130.37 41.8833L128.854 41.8849L128.846 34.5953L130.362 34.5937Z" fill="#6391F3"/>
<path d="M133.389 34.5906L133.255 39.6948L131.953 39.6962L131.805 34.5922L133.389 34.5906ZM132.606 41.9735C132.371 41.9738 132.17 41.8909 132.001 41.725C131.832 41.5591 131.749 41.3575 131.751 41.1202C131.749 40.8876 131.831 40.6882 132 40.5219C132.168 40.3556 132.37 40.2724 132.605 40.2721C132.832 40.2719 133.031 40.3547 133.199 40.5207C133.37 40.6866 133.457 40.8858 133.46 41.1184C133.458 41.3557 133.371 41.5574 133.201 41.7237C133.032 41.89 132.834 41.9733 132.606 41.9735Z" fill="#6391F3"/>
<path d="M81.2583 86.0625L27.2622 86.1065" stroke="#D8E4FC" stroke-width="3.90949" stroke-linecap="round" stroke-linejoin="round"/>
<path d="M26.4597 77.1398L26.4655 76.37C25.7621 76.3111 25.2034 76.096 24.7894 75.7248C24.3776 75.3515 24.1625 74.8297 24.1441 74.1596L25.5343 74.1581C25.5545 74.4346 25.6487 74.6556 25.817 74.8214C25.9874 74.9871 26.2076 75.0952 26.4775 75.1458L26.4923 73.3907L26.1737 73.3114C25.6007 73.1749 25.1481 72.9575 24.8161 72.6592C24.484 72.361 24.3188 71.9619 24.3205 71.4621C24.3179 71.0861 24.4104 70.752 24.5981 70.4598C24.7858 70.1677 25.0454 69.9318 25.377 69.7523C25.7086 69.5728 26.0911 69.4618 26.5246 69.4194L26.5304 68.6463L27.3134 68.6455L27.3076 69.4252C27.9469 69.4931 28.4569 69.7104 28.8377 70.0772C29.2186 70.4417 29.4137 70.8983 29.4231 71.4468L28.0463 71.4482C28.0038 71.0214 27.7536 70.754 27.2956 70.6461L27.2841 72.305L27.4799 72.3512C27.8737 72.4393 28.2233 72.5672 28.5287 72.735C28.8363 72.9028 29.0776 73.1193 29.2526 73.3845C29.4298 73.6475 29.5186 73.9681 29.519 74.3464C29.5174 74.9214 29.3177 75.3894 28.92 75.7504C28.5245 76.1091 27.9673 76.3165 27.2485 76.3725L27.2427 77.1389L26.4597 77.1398ZM27.2605 75.145C27.5104 75.0938 27.7071 74.9985 27.8508 74.859C27.9944 74.7173 28.0672 74.5458 28.0692 74.3446C28.0668 74.1566 27.997 74.0051 27.8597 73.8903C27.7247 73.7732 27.5288 73.6749 27.2722 73.5956L27.2605 75.145ZM26.5009 72.1034L26.5126 70.637C26.2804 70.6859 26.1025 70.7756 25.9787 70.9063C25.855 71.0347 25.7932 71.1874 25.7934 71.3643C25.7892 71.5545 25.8546 71.7082 25.9897 71.8253C26.1247 71.9401 26.2951 72.0329 26.5009 72.1034Z" fill="#3C76F0"/>
<path d="M30.4475 76.2863L30.4465 75.2511L32.8627 73.0091C33.1721 72.7124 33.4074 72.4545 33.5686 72.2354C33.7298 72.0162 33.8103 71.7717 33.81 71.5019C33.8097 71.2033 33.7099 70.9678 33.5107 70.7955C33.3136 70.621 33.0658 70.5339 32.7672 70.5342C32.4576 70.5345 32.2077 70.6288 32.0177 70.817C31.8299 71.003 31.7373 71.2586 31.7398 71.5837L30.3763 71.5851C30.3758 71.1405 30.476 70.7545 30.677 70.4269C30.8779 70.0994 31.1585 69.8458 31.5189 69.6663C31.8814 69.4867 32.3005 69.3967 32.776 69.3962C33.2626 69.3957 33.6862 69.4815 34.047 69.6537C34.4099 69.8236 34.6921 70.06 34.8937 70.3628C35.0953 70.6634 35.1963 71.0105 35.1967 71.4042C35.197 71.6608 35.1464 71.9141 35.0449 72.1641C34.9434 72.4142 34.7646 72.692 34.5083 72.9975C34.2543 73.3007 33.8941 73.665 33.4279 74.0901L32.4369 75.0632L32.4369 75.1097L35.2902 75.1067L35.2914 76.2812L30.4475 76.2863Z" fill="#3C76F0"/>
<path d="M38.8141 76.3704C38.3452 76.3709 37.9271 76.2851 37.5597 76.1129C37.1924 75.9408 36.9013 75.7033 36.6864 75.4005C36.4738 75.0977 36.3628 74.7506 36.3536 74.3591L37.747 74.3576C37.765 74.6208 37.8758 74.8342 38.0794 74.9976C38.2831 75.1611 38.5276 75.2427 38.8129 75.2424C39.1491 75.242 39.4255 75.1311 39.642 74.9097C39.8585 74.6883 39.9666 74.4007 39.9662 74.0468C39.9658 73.6907 39.855 73.401 39.6335 73.1779C39.4143 72.9525 39.1333 72.8389 38.7905 72.837C38.5892 72.8373 38.3957 72.8784 38.21 72.9604C38.0243 73.0424 37.8795 73.1543 37.7757 73.2959L36.4982 73.0684L36.8162 69.4849L40.97 69.4805L40.9713 70.655L38.0019 70.6581L37.8278 72.3603L37.8677 72.3603C37.9869 72.192 38.167 72.0525 38.408 71.9417C38.649 71.8308 38.9188 71.7752 39.2174 71.7749C39.6265 71.7745 39.9916 71.8703 40.3125 72.0624C40.6334 72.2545 40.8869 72.5186 41.0731 72.8546C41.2592 73.1906 41.3514 73.5753 41.3497 74.0088C41.3524 74.4667 41.2466 74.8738 41.0324 75.2301C40.8205 75.5842 40.5233 75.8632 40.1409 76.0671C39.7606 76.2688 39.3184 76.3699 38.8141 76.3704Z" fill="#3C76F0"/>
<path d="M50.7965 72.8676C50.7973 73.6086 50.6575 74.2391 50.3771 74.7591C50.099 75.2792 49.7201 75.6766 49.2404 75.9514C48.7607 76.2239 48.2201 76.3605 47.6185 76.3612C47.0147 76.3618 46.4726 76.2252 45.9924 75.9515C45.5121 75.6777 45.1324 75.2811 44.8531 74.7616C44.5739 74.2399 44.4339 73.6108 44.4331 72.8743C44.4324 72.1333 44.571 71.5028 44.8492 70.9827C45.1273 70.4627 45.5062 70.0663 45.9859 69.7938C46.4656 69.519 47.0073 69.3813 47.6112 69.3807C48.2128 69.3801 48.7537 69.5166 49.234 69.7904C49.7142 70.0619 50.0939 70.4575 50.3732 70.9769C50.6546 71.4964 50.7957 72.1266 50.7965 72.8676ZM49.34 72.8691C49.3393 72.1481 49.1817 71.5986 48.8672 71.2207C48.5527 70.8406 48.1345 70.6508 47.6125 70.6514C47.0905 70.6519 46.6727 70.8426 46.359 71.2233C46.0453 71.6019 45.8889 72.1517 45.8896 72.8727C45.8904 73.5916 46.048 74.141 46.3625 74.5211C46.6769 74.9012 47.0952 75.091 47.6171 75.0905C48.1391 75.0899 48.557 74.8993 48.8706 74.5185C49.1843 74.1378 49.3408 73.588 49.34 72.8691Z" fill="#3C76F0"/>
<path d="M51.8642 76.2638L51.8571 69.4691L56.3559 69.4644L56.3572 70.6489L53.2949 70.6521L53.2966 72.2711L56.0603 72.2682L56.0615 73.4526L53.2979 73.4555L53.3008 76.2623L51.8642 76.2638Z" fill="#3C76F0"/>
<path d="M57.3293 76.2581L57.3222 69.4634L61.821 69.4587L61.8223 70.6431L58.76 70.6463L58.7617 72.2654L61.5254 72.2625L61.5266 73.4469L58.763 73.4498L58.7659 76.2566L57.3293 76.2581Z" fill="#3C76F0"/>
<rect x="137.251" y="66.6663" width="64.9841" height="18.5669" rx="4.08302" fill="#6391F3"/>
<path d="M155.741 80.1748L155.741 79.5875L157.944 77.1708C158.202 76.8877 158.415 76.6417 158.583 76.4327C158.75 76.2216 158.874 76.0235 158.954 75.8385C159.036 75.6514 159.077 75.4556 159.077 75.2511C159.077 74.8987 158.954 74.6193 158.708 74.413C158.464 74.2066 158.16 74.1036 157.797 74.104C157.41 74.1044 157.102 74.2211 156.874 74.454C156.646 74.6848 156.532 74.9906 156.532 75.3712L155.762 75.372C155.762 74.9805 155.852 74.6367 156.032 74.3407C156.212 74.0447 156.458 73.8139 156.769 73.6482C157.082 73.4826 157.433 73.3996 157.822 73.3992C158.214 73.3988 158.561 73.4811 158.863 73.646C159.166 73.811 159.403 74.0338 159.575 74.3142C159.748 74.5946 159.834 74.9066 159.834 75.2503C159.834 75.4961 159.79 75.7365 159.701 75.9715C159.614 76.2043 159.462 76.4644 159.245 76.7518C159.03 77.037 158.731 77.3853 158.349 77.7968L156.85 79.4036L156.85 79.4558L159.956 79.4526L159.957 80.1704L155.741 80.1748Z" fill="white"/>
<path d="M163.393 80.2582C163.01 80.2586 162.665 80.1828 162.358 80.0308C162.051 79.8789 161.805 79.6704 161.62 79.4052C161.435 79.14 161.333 78.8378 161.316 78.4985L162.099 78.4976C162.129 78.7999 162.267 79.0499 162.511 79.2476C162.757 79.4431 163.05 79.5407 163.392 79.5404C163.666 79.5401 163.909 79.4756 164.122 79.3471C164.338 79.2185 164.506 79.0422 164.628 78.818C164.751 78.5916 164.813 78.336 164.813 78.0511C164.812 77.7596 164.748 77.4997 164.619 77.2715C164.493 77.041 164.319 76.8596 164.097 76.7271C163.875 76.5947 163.621 76.5275 163.336 76.5256C163.132 76.5237 162.922 76.5554 162.707 76.6209C162.492 76.6842 162.314 76.766 162.175 76.8662L161.418 76.7756L161.819 73.4863L165.291 73.4827L165.292 74.2005L162.499 74.2034L162.266 76.1744L162.305 76.1743C162.442 76.0654 162.614 75.975 162.82 75.903C163.027 75.831 163.242 75.7949 163.466 75.7946C163.875 75.7942 164.24 75.8917 164.559 76.0871C164.882 76.2804 165.134 76.5455 165.317 76.8825C165.503 77.2194 165.595 77.6043 165.596 78.0372C165.596 78.4635 165.501 78.8443 165.31 79.1794C165.121 79.5124 164.86 79.7759 164.528 79.9698C164.195 80.1616 163.817 80.2577 163.393 80.2582Z" fill="white"/>
<path d="M167.396 73.4805L169.122 76.2586L169.174 76.2585L170.894 73.4768L171.847 73.4758L169.749 76.8191L171.854 80.1579L170.901 80.1589L169.175 77.4331L169.123 77.4331L167.403 80.1626L166.45 80.1636L168.6 76.8203L166.443 73.4815L167.396 73.4805Z" fill="white"/>
<path d="M172.325 73.4753L173.252 73.4744L175.108 76.5916L175.187 76.5915L177.037 73.4704L177.963 73.4694L175.553 77.4003L175.556 80.1541L174.747 80.1549L174.744 77.4012L172.325 73.4753Z" fill="white"/>
<path d="M178.795 80.1507L178.794 79.5634L182.391 74.1826L178.75 74.1864L178.749 73.4686L183.356 73.4638L183.356 74.0511L179.76 79.4319L183.401 79.428L183.402 80.1458L178.795 80.1507Z" fill="white"/>
<path opacity="0.1" d="M192 124.444L147.556 124.48" stroke="#242830" stroke-width="3.63565" stroke-linecap="round" stroke-linejoin="round"/>
<g opacity="0.5">
<path d="M55.0314 127.067V120.385H59.0381V121.103H55.8406V123.36H58.7379V124.078H55.8406V127.067H55.0314Z" fill="#242830"/>
<path d="M60.2657 127.067V122.055H61.0096V122.812H61.0618C61.151 122.564 61.3152 122.363 61.5544 122.209C61.7937 122.054 62.0645 121.977 62.3669 121.977C62.5061 121.977 62.6279 121.993 62.7323 122.026C62.8367 122.059 62.9281 122.103 63.0064 122.16L62.7453 122.812C62.691 122.784 62.6268 122.762 62.5528 122.747C62.4811 122.73 62.3973 122.721 62.3016 122.721C61.9362 122.721 61.6338 122.833 61.3946 123.057C61.1553 123.279 61.0357 123.558 61.0357 123.896V127.067H60.2657Z" fill="#242830"/>
<path d="M65.7405 127.171C65.2577 127.171 64.8411 127.065 64.4909 126.852C64.1429 126.636 63.8743 126.336 63.685 125.951C63.498 125.564 63.4044 125.114 63.4044 124.6C63.4044 124.087 63.498 123.635 63.685 123.243C63.8743 122.849 64.1375 122.543 64.4746 122.323C64.8139 122.101 65.2098 121.99 65.6622 121.99C65.9233 121.99 66.181 122.034 66.4355 122.121C66.69 122.208 66.9217 122.349 67.1305 122.545C67.3393 122.738 67.5057 122.995 67.6297 123.315C67.7537 123.635 67.8157 124.028 67.8157 124.496V124.822H64.1777C64.1951 125.357 64.3463 125.767 64.6312 126.052C64.9183 126.337 65.2881 126.48 65.7405 126.48C66.0429 126.48 66.3028 126.414 66.5203 126.284C66.7379 126.153 66.8956 125.958 66.9934 125.697L67.7373 125.905C67.6199 126.284 67.385 126.589 67.0326 126.822C66.6802 127.055 66.2495 127.171 65.7405 127.171ZM64.1777 124.157H67.0326C67.0326 123.732 66.9086 123.381 66.6606 123.103C66.4127 122.822 66.0799 122.682 65.6622 122.682C65.3686 122.682 65.1141 122.75 64.8988 122.887C64.6834 123.024 64.5138 123.206 64.3898 123.432C64.2658 123.656 64.1951 123.898 64.1777 124.157Z" fill="#242830"/>
<path d="M71.0882 127.171C70.6053 127.171 70.1888 127.065 69.8386 126.852C69.4905 126.636 69.2219 126.336 69.0327 125.951C68.8456 125.564 68.7521 125.114 68.7521 124.6C68.7521 124.087 68.8456 123.635 69.0327 123.243C69.2219 122.849 69.4851 122.543 69.8222 122.323C70.1616 122.101 70.5574 121.99 71.0099 121.99C71.2709 121.99 71.5287 122.034 71.7832 122.121C72.0376 122.208 72.2693 122.349 72.4781 122.545C72.6869 122.738 72.8533 122.995 72.9773 123.315C73.1013 123.635 73.1633 124.028 73.1633 124.496V124.822H69.5253C69.5427 125.357 69.6939 125.767 69.9789 126.052C70.266 126.337 70.6358 126.48 71.0882 126.48C71.3905 126.48 71.6505 126.414 71.868 126.284C72.0855 126.153 72.2432 125.958 72.3411 125.697L73.085 125.905C72.9675 126.284 72.7326 126.589 72.3802 126.822C72.0279 127.055 71.5972 127.171 71.0882 127.171ZM69.5253 124.157H72.3802C72.3802 123.732 72.2562 123.381 72.0083 123.103C71.7603 122.822 71.4275 122.682 71.0099 122.682C70.7162 122.682 70.4617 122.75 70.2464 122.887C70.0311 123.024 69.8614 123.206 69.7374 123.432C69.6134 123.656 69.5427 123.898 69.5253 124.157Z" fill="#242830"/>
<path d="M80.4686 123.178L79.7769 123.374C79.7094 123.2 79.5963 123.036 79.4376 122.884C79.2788 122.732 79.0308 122.656 78.6936 122.656C78.3869 122.656 78.1314 122.726 77.9269 122.868C77.7246 123.007 77.6235 123.184 77.6235 123.4C77.6235 123.591 77.6931 123.742 77.8323 123.853C77.9715 123.964 78.189 124.057 78.4848 124.13L79.2287 124.313C80.1162 124.531 80.5599 124.983 80.5599 125.67C80.5599 125.958 80.4773 126.214 80.312 126.44C80.1488 126.667 79.9204 126.845 79.6268 126.976C79.3331 127.106 78.9916 127.171 78.6023 127.171C78.0911 127.171 77.6681 127.06 77.3331 126.839C76.9981 126.617 76.786 126.293 76.6968 125.866L77.4277 125.684C77.5647 126.223 77.9519 126.493 78.5892 126.493C78.9481 126.493 79.2331 126.417 79.4441 126.264C79.6572 126.11 79.7638 125.925 79.7638 125.71C79.7638 125.355 79.5159 125.12 79.0199 125.005L78.1847 124.809C77.7257 124.7 77.3885 124.532 77.1732 124.303C76.96 124.073 76.8535 123.785 76.8535 123.439C76.8535 123.156 76.9329 122.906 77.0916 122.688C77.2526 122.471 77.4712 122.3 77.7475 122.176C78.0259 122.052 78.3413 121.99 78.6936 121.99C79.1896 121.99 79.5789 122.099 79.8617 122.316C80.1467 122.534 80.3489 122.821 80.4686 123.178Z" fill="#242830"/>
<path d="M82.489 124.052V127.067H81.719V120.385H82.489V122.838H82.5543C82.6717 122.58 82.8479 122.374 83.0829 122.222C83.3199 122.067 83.6353 121.99 84.0291 121.99C84.5424 121.99 84.9557 122.145 85.2689 122.453C85.5821 122.762 85.7387 123.239 85.7387 123.883V127.067H84.9687V123.935C84.9687 123.537 84.8654 123.229 84.6588 123.011C84.4543 122.792 84.1704 122.682 83.8072 122.682C83.4265 122.682 83.1111 122.801 82.861 123.041C82.613 123.278 82.489 123.615 82.489 124.052Z" fill="#242830"/>
<path d="M87.1474 127.067V122.055H87.9174V127.067H87.1474ZM87.5389 121.22C87.3889 121.22 87.2594 121.169 87.1507 121.067C87.0441 120.965 86.9908 120.842 86.9908 120.698C86.9908 120.555 87.0441 120.432 87.1507 120.329C87.2594 120.227 87.3889 120.176 87.5389 120.176C87.689 120.176 87.8174 120.227 87.924 120.329C88.0327 120.432 88.0871 120.555 88.0871 120.698C88.0871 120.842 88.0327 120.965 87.924 121.067C87.8174 121.169 87.689 121.22 87.5389 121.22Z" fill="#242830"/>
<path d="M89.3277 128.946V122.055H90.0717V122.851H90.163C90.2196 122.764 90.2979 122.654 90.3979 122.519C90.5002 122.382 90.6459 122.26 90.8351 122.153C91.0266 122.044 91.2854 121.99 91.6117 121.99C92.0336 121.99 92.4056 122.096 92.7275 122.307C93.0495 122.518 93.3007 122.817 93.4812 123.204C93.6618 123.591 93.752 124.048 93.752 124.574C93.752 125.105 93.6618 125.565 93.4812 125.954C93.3007 126.342 93.0505 126.642 92.7308 126.855C92.411 127.066 92.0424 127.171 91.6247 127.171C91.3028 127.171 91.045 127.118 90.8515 127.011C90.6579 126.903 90.5089 126.78 90.4045 126.643C90.3 126.504 90.2196 126.388 90.163 126.297H90.0978V128.946H89.3277ZM90.0847 124.561C90.0847 125.129 90.2076 125.591 90.4534 125.948C90.7014 126.302 91.057 126.48 91.5203 126.48C91.8422 126.48 92.1109 126.395 92.3262 126.225C92.5437 126.053 92.7069 125.823 92.8156 125.533C92.9266 125.242 92.982 124.918 92.982 124.561C92.982 124.209 92.9276 123.891 92.8189 123.608C92.7123 123.323 92.5503 123.098 92.3327 122.933C92.1174 122.766 91.8466 122.682 91.5203 122.682C91.0505 122.682 90.6937 122.855 90.4501 123.201C90.2065 123.546 90.0847 124 90.0847 124.561Z" fill="#242830"/>
<path d="M94.9266 128.946V122.055H95.6705V122.851H95.7619C95.8184 122.764 95.8967 122.654 95.9968 122.519C96.099 122.382 96.2448 122.26 96.434 122.153C96.6254 122.044 96.8843 121.99 97.2105 121.99C97.6325 121.99 98.0045 122.096 98.3264 122.307C98.6483 122.518 98.8996 122.817 99.0801 123.204C99.2606 123.591 99.3509 124.048 99.3509 124.574C99.3509 125.105 99.2606 125.565 99.0801 125.954C98.8996 126.342 98.6494 126.642 98.3297 126.855C98.0099 127.066 97.6412 127.171 97.2236 127.171C96.9017 127.171 96.6439 127.118 96.4503 127.011C96.2567 126.903 96.1077 126.78 96.0033 126.643C95.8989 126.504 95.8184 126.388 95.7619 126.297H95.6966V128.946H94.9266ZM95.6836 124.561C95.6836 125.129 95.8065 125.591 96.0523 125.948C96.3002 126.302 96.6559 126.48 97.1192 126.48C97.4411 126.48 97.7097 126.395 97.9251 126.225C98.1426 126.053 98.3057 125.823 98.4145 125.533C98.5254 125.242 98.5809 124.918 98.5809 124.561C98.5809 124.209 98.5265 123.891 98.4178 123.608C98.3112 123.323 98.1491 123.098 97.9316 122.933C97.7163 122.766 97.4455 122.682 97.1192 122.682C96.6494 122.682 96.2926 122.855 96.049 123.201C95.8054 123.546 95.6836 124 95.6836 124.561Z" fill="#242830"/>
<path d="M100.525 127.067V122.055H101.295V127.067H100.525ZM100.917 121.22C100.767 121.22 100.638 121.169 100.529 121.067C100.422 120.965 100.369 120.842 100.369 120.698C100.369 120.555 100.422 120.432 100.529 120.329C100.638 120.227 100.767 120.176 100.917 120.176C101.067 120.176 101.195 120.227 101.302 120.329C101.411 120.432 101.465 120.555 101.465 120.698C101.465 120.842 101.411 120.965 101.302 121.067C101.195 121.169 101.067 121.22 100.917 121.22Z" fill="#242830"/>
<path d="M103.476 124.052V127.067H102.706V122.055H103.45V122.838H103.515C103.632 122.584 103.811 122.379 104.05 122.225C104.289 122.068 104.598 121.99 104.977 121.99C105.484 121.99 105.892 122.146 106.203 122.457C106.517 122.768 106.673 123.243 106.673 123.883V127.067H105.903V123.935C105.903 123.541 105.801 123.234 105.597 123.015C105.392 122.793 105.112 122.682 104.755 122.682C104.387 122.682 104.082 122.801 103.838 123.041C103.597 123.278 103.476 123.615 103.476 124.052Z" fill="#242830"/>
<path d="M110.103 129.051C109.544 129.051 109.102 128.948 108.775 128.744C108.451 128.542 108.211 128.309 108.054 128.046L108.668 127.615C108.737 127.706 108.825 127.811 108.932 127.928C109.039 128.048 109.184 128.151 109.369 128.238C109.556 128.327 109.801 128.372 110.103 128.372C110.508 128.372 110.842 128.274 111.105 128.078C111.368 127.883 111.5 127.576 111.5 127.158V126.14H111.434C111.378 126.232 111.297 126.345 111.193 126.48C111.091 126.612 110.943 126.731 110.749 126.835C110.558 126.938 110.299 126.989 109.973 126.989C109.568 126.989 109.205 126.893 108.883 126.702C108.563 126.51 108.31 126.232 108.123 125.866C107.938 125.501 107.845 125.057 107.845 124.535C107.845 124.022 107.936 123.575 108.116 123.194C108.297 122.811 108.548 122.515 108.87 122.307C109.192 122.096 109.564 121.99 109.986 121.99C110.312 121.99 110.571 122.044 110.762 122.153C110.956 122.26 111.104 122.382 111.206 122.519C111.31 122.654 111.391 122.764 111.448 122.851H111.526V122.055H112.27V127.211C112.27 127.641 112.172 127.991 111.976 128.261C111.783 128.533 111.521 128.732 111.193 128.858C110.867 128.987 110.504 129.051 110.103 129.051ZM110.077 126.297C110.54 126.297 110.895 126.14 111.141 125.827C111.389 125.512 111.513 125.077 111.513 124.522C111.513 123.98 111.391 123.539 111.147 123.197C110.904 122.854 110.547 122.682 110.077 122.682C109.751 122.682 109.479 122.764 109.261 122.93C109.046 123.095 108.884 123.317 108.775 123.595C108.669 123.874 108.615 124.183 108.615 124.522C108.615 125.044 108.738 125.47 108.984 125.801C109.23 126.132 109.594 126.297 110.077 126.297Z" fill="#242830"/>
</g>
<path d="M37.037 119.111H26.6667V128.099H37.037V119.111Z" fill="#F1F5FE"/>
<path d="M37.037 122.568H39.8025L41.8765 124.642V128.099H37.037V122.568Z" fill="#F1F5FE"/>
<path d="M29.7778 131.556C30.7323 131.556 31.5062 130.782 31.5062 129.827C31.5062 128.873 30.7323 128.099 29.7778 128.099C28.8232 128.099 28.0494 128.873 28.0494 129.827C28.0494 130.782 28.8232 131.556 29.7778 131.556Z" fill="#F1F5FE"/>
<path d="M38.7654 131.556C39.72 131.556 40.4938 130.782 40.4938 129.827C40.4938 128.873 39.72 128.099 38.7654 128.099C37.8109 128.099 37.037 128.873 37.037 129.827C37.037 130.782 37.8109 131.556 38.7654 131.556Z" fill="#F1F5FE"/>
<path d="M37.037 128.099V119.111H26.6667V128.099H37.037ZM37.037 128.099H41.8765V124.642L39.8025 122.568H37.037V128.099ZM31.5062 129.827C31.5062 130.782 30.7323 131.556 29.7778 131.556C28.8232 131.556 28.0494 130.782 28.0494 129.827C28.0494 128.873 28.8232 128.099 29.7778 128.099C30.7323 128.099 31.5062 128.873 31.5062 129.827ZM40.4938 129.827C40.4938 130.782 39.72 131.556 38.7654 131.556C37.8109 131.556 37.037 130.782 37.037 129.827C37.037 128.873 37.8109 128.099 38.7654 128.099C39.72 128.099 40.4938 128.873 40.4938 129.827Z" stroke="#242830" stroke-width="0.781898" stroke-linecap="round" stroke-linejoin="round"/>
<line opacity="0.1" x1="24" y1="103.609" x2="202.667" y2="103.609" stroke="#242830" stroke-width="0.781898"/>
<path d="M143.213 161.246C145.539 159.395 148.915 159.773 150.753 162.089C152.59 164.405 152.194 167.783 149.868 169.634C147.541 171.484 144.166 171.107 142.328 168.79C140.49 166.474 140.886 163.096 143.213 161.246Z" fill="url(#paint0_linear)"/>
<path d="M101.578 108.9C103.287 108.895 104.924 108.213 106.131 107.002C107.337 105.791 108.013 104.151 108.011 102.442C108.009 100.732 107.328 99.0938 106.119 97.886C104.91 96.6782 103.27 95.9998 101.561 95.9998C99.8518 95.9998 98.2125 96.6782 97.0031 97.886C95.7937 99.0938 95.1132 100.732 95.111 102.442C95.1088 104.151 95.7851 105.791 96.9914 107.002C98.1977 108.213 99.8353 108.895 101.545 108.9H101.578Z" fill="url(#paint1_linear)"/>
<path d="M245.804 52.4442C248.513 52.4373 251.108 51.3555 253.02 49.4363C254.932 47.5172 256.003 44.9178 256 42.2089C255.996 39.5001 254.918 36.9034 253.001 34.9892C251.085 33.0749 248.487 31.9998 245.778 31.9998C243.069 31.9998 240.471 33.0749 238.554 34.9892C236.638 36.9034 235.559 39.5001 235.556 42.2089C235.552 44.9178 236.624 47.5172 238.536 49.4363C240.447 51.3555 243.043 52.4373 245.752 52.4442H245.804Z" fill="url(#paint2_linear)"/>
</g>
<defs>
<filter id="filter0_d" x="-8.55498" y="7.44502" width="242.827" height="151.16" filterUnits="userSpaceOnUse" color-interpolation-filters="sRGB">
<feFlood flood-opacity="0" result="BackgroundImageFix"/>
<feColorMatrix in="SourceAlpha" type="matrix" values="0 0 0 0 0 0 0 0 0 0 0 0 0 0 0 0 0 0 127 0"/>
<feOffset/>
<feGaussianBlur stdDeviation="4.27749"/>
<feColorMatrix type="matrix" values="0 0 0 0 0 0 0 0 0 0 0 0 0 0 0 0 0 0 0.12 0"/>
<feBlend mode="normal" in2="BackgroundImageFix" result="effect1_dropShadow"/>
<feBlend mode="normal" in="SourceGraphic" in2="effect1_dropShadow" result="shape"/>
</filter>
<linearGradient id="paint0_linear" x1="140.922" y1="163.068" x2="151.868" y2="168.068" gradientUnits="userSpaceOnUse">
<stop stop-color="#3C76F0" stop-opacity="0"/>
<stop offset="1" stop-color="#3C76F0"/>
</linearGradient>
<linearGradient id="paint1_linear" x1="110.698" y1="105.599" x2="95.8611" y2="101.444" gradientUnits="userSpaceOnUse">
<stop stop-color="#66C789"/>
<stop offset="1" stop-color="#66C789" stop-opacity="0"/>
</linearGradient>
<linearGradient id="paint2_linear" x1="260.259" y1="47.2122" x2="236.744" y2="40.6282" gradientUnits="userSpaceOnUse">
<stop stop-color="#66C789"/>
<stop offset="1" stop-color="#66C789" stop-opacity="0"/>
</linearGradient>
<clipPath id="clip0">
<rect width="256" height="178.52" fill="white"/>
</clipPath>
</defs>
</svg>
