<svg width="535" height="341" viewBox="0 0 535 341" fill="none" xmlns="http://www.w3.org/2000/svg">
<g opacity="0.25">
<path d="M7.32031 3.00195L2 8.66217L7.30553 14.3224" stroke="#C1D3FA" stroke-width="3" stroke-linecap="round" stroke-linejoin="round"/>
<path d="M20.6654 3L25.9857 8.66021L20.6801 14.3204" stroke="#C1D3FA" stroke-width="3" stroke-linecap="round" stroke-linejoin="round"/>
<path d="M11.7391 15.281L15.9658 3" stroke="#C1D3FA" stroke-width="3" stroke-linecap="round" stroke-linejoin="round"/>
<path d="M33.1385 15.3842C33.1156 15.6703 33.0098 15.9436 32.8341 16.1706C32.6584 16.3976 32.4203 16.5685 32.1491 16.6624C31.8779 16.7564 31.5851 16.7693 31.3067 16.6996C31.0282 16.6299 30.776 16.4806 30.581 16.27C30.386 16.0594 30.2565 15.7965 30.2084 15.5135C30.1603 15.2305 30.1957 14.9396 30.3102 14.6764C30.4247 14.4132 30.6134 14.189 30.8532 14.0313C31.093 13.8735 31.3736 13.789 31.6607 13.7881C32.0671 13.8073 32.4497 13.9853 32.7261 14.2838C33.0025 14.5824 33.1506 14.9775 33.1385 15.3842V15.3842Z" fill="#C1D3FA"/>
<path d="M39.3308 15.3842C39.3078 15.6703 39.202 15.9436 39.0263 16.1706C38.8506 16.3976 38.6126 16.5685 38.3413 16.6624C38.0701 16.7564 37.7774 16.7693 37.4989 16.6996C37.2204 16.6299 36.9683 16.4806 36.7733 16.27C36.5782 16.0594 36.4488 15.7965 36.4007 15.5135C36.3526 15.2305 36.388 14.9397 36.5025 14.6764C36.617 14.4132 36.8056 14.189 37.0455 14.0313C37.2853 13.8735 37.5659 13.789 37.8529 13.7881C38.0574 13.7874 38.2597 13.8292 38.4472 13.9108C38.6346 13.9923 38.8031 14.1119 38.942 14.2619C39.0809 14.4119 39.1872 14.5891 39.2541 14.7823C39.321 14.9754 39.3471 15.1804 39.3308 15.3842V15.3842Z" fill="#C1D3FA"/>
<path d="M44.0452 16.9803C44.8695 16.9803 45.5378 16.2657 45.5378 15.3842C45.5378 14.5027 44.8695 13.7881 44.0452 13.7881C43.2208 13.7881 42.5525 14.5027 42.5525 15.3842C42.5525 16.2657 43.2208 16.9803 44.0452 16.9803Z" fill="#C1D3FA"/>
<path d="M10.9999 35.6758H134.443" stroke="#C1D3FA" stroke-width="3" stroke-linecap="round" stroke-linejoin="round"/>
<path d="M144.04 35.6758H216.465" stroke="#C1D3FA" stroke-width="3" stroke-linecap="round" stroke-linejoin="round"/>
<path d="M216.464 44.6045H114.855" stroke="#C1D3FA" stroke-width="3" stroke-linecap="round" stroke-linejoin="round"/>
<path d="M10.9999 27.5176H216.465" stroke="#C1D3FA" stroke-width="3" stroke-linecap="round" stroke-linejoin="round"/>
<path d="M151.718 2H216.962" stroke="#C1D3FA" stroke-width="3" stroke-linecap="round" stroke-linejoin="round"/>
<path d="M144.537 10.1406H216.961" stroke="#C1D3FA" stroke-width="3" stroke-linecap="round" stroke-linejoin="round"/>
<path d="M216.961 19.0693H115.352" stroke="#C1D3FA" stroke-width="3" stroke-linecap="round" stroke-linejoin="round"/>
<path d="M106.611 44.6045H94.5122" stroke="#C1D3FA" stroke-width="3" stroke-linecap="round" stroke-linejoin="round"/>
<path d="M84.8979 44.6045H72.7816" stroke="#C1D3FA" stroke-width="3" stroke-linecap="round" stroke-linejoin="round"/>
<path d="M63.1673 44.6045H51.068" stroke="#C1D3FA" stroke-width="3" stroke-linecap="round" stroke-linejoin="round"/>
<path d="M41.4537 44.6045H29.3545" stroke="#C1D3FA" stroke-width="3" stroke-linecap="round" stroke-linejoin="round"/>
<path d="M216.465 55.4526H25.4813" stroke="#C1D3FA" stroke-width="3" stroke-linecap="round" stroke-linejoin="round"/>
<path d="M15.3701 44.6045H10.9999" stroke="#C1D3FA" stroke-width="3" stroke-linecap="round" stroke-linejoin="round"/>
<path d="M15.3701 55.4526H10.9999" stroke="#C1D3FA" stroke-width="3" stroke-linecap="round" stroke-linejoin="round"/>
<path d="M15.3701 66.3013H10.9999" stroke="#C1D3FA" stroke-width="3" stroke-linecap="round" stroke-linejoin="round"/>
<path d="M15.3701 77.166H10.9999" stroke="#C1D3FA" stroke-width="3" stroke-linecap="round" stroke-linejoin="round"/>
<path d="M28.9089 66.3013H81.419" stroke="#C1D3FA" stroke-width="3" stroke-linecap="round" stroke-linejoin="round"/>
<path d="M28.9089 77.4229H98.5739" stroke="#C1D3FA" stroke-width="3" stroke-linecap="round" stroke-linejoin="round"/>
<path d="M28.9089 88.5454H123.372" stroke="#C1D3FA" stroke-width="3" stroke-linecap="round" stroke-linejoin="round"/>
<path d="M28.9089 99H123.372" stroke="#C1D3FA" stroke-width="3" stroke-linecap="round" stroke-linejoin="round"/>
<path d="M103.561 77.4229H216.464" stroke="#C1D3FA" stroke-width="3" stroke-linecap="round" stroke-linejoin="round"/>
</g>
<path d="M486.978 25L127.75 25C120.708 25 115 30.7084 115 37.7502L115 289.095C115 296.136 120.708 301.845 127.75 301.845H486.978C494.019 301.845 499.728 296.136 499.728 289.095V37.7502C499.728 30.7084 494.019 25 486.978 25Z" fill="#F1F5FE" fill-opacity="0.75"/>
<path d="M486.753 301.504H431.392V25.2383L486.753 25.2383C488.424 25.2383 490.079 25.5675 491.623 26.2071C493.166 26.8467 494.569 27.7841 495.751 28.9659C496.932 30.1477 497.869 31.5507 498.509 33.0947C499.148 34.6387 499.477 36.2935 499.476 37.9646V288.788C499.474 292.161 498.133 295.395 495.747 297.78C493.361 300.164 490.126 301.504 486.753 301.504V301.504Z" fill="#D8E4FC" fill-opacity="0.25"/>
<path opacity="0.2" d="M242.727 87.9839H240.512C240.017 87.9839 239.615 88.3855 239.615 88.8808V91.0954C239.615 91.5907 240.017 91.9923 240.512 91.9923H242.727C243.222 91.9923 243.624 91.5907 243.624 91.0954V88.8808C243.624 88.3855 243.222 87.9839 242.727 87.9839Z" fill="white"/>
<path opacity="0.15" d="M217.188 80.9673H140.826" stroke="#C1D3FA" stroke-width="4.00961" stroke-linecap="round" stroke-linejoin="round"/>
<path opacity="0.15" d="M200.891 92H140.826" stroke="#C1D3FA" stroke-width="4.00961" stroke-linecap="round" stroke-linejoin="round"/>
<path d="M144.767 44.4637L154.671 44.3882L154.818 62.7821L144.907 62.8612L144.767 44.4637ZM142.969 64.893L156.915 64.7851L156.742 42.3564L142.796 42.4643L142.969 64.893Z" fill="#C1D3FA"/>
<path d="M150.855 56.7012L150.808 50.4117C150.808 48.5166 149.841 47.8081 147.813 46.8768L146.993 48.4303L148.072 49.0164C148.608 49.3113 148.849 49.6637 148.859 50.6095L148.906 56.9601C148.906 58.8624 149.873 59.5673 151.902 60.4986L152.718 58.9523L151.639 58.3662C151.103 58.0066 150.862 57.6757 150.852 56.7084L150.855 56.7012Z" fill="#C1D3FA"/>
<path opacity="0.25" d="M467.978 43H376.811C373.049 43 370 46.0494 370 49.8109V49.8145C370 53.5761 373.049 56.6255 376.811 56.6255H467.978C471.74 56.6255 474.789 53.5761 474.789 49.8145V49.8109C474.789 46.0494 471.74 43 467.978 43Z" fill="#C1D3FA"/>
<path d="M380.623 52.4625L379.386 51.2254M380.055 49.6142C380.055 50.8714 379.036 51.8905 377.779 51.8905C376.521 51.8905 375.502 50.8714 375.502 49.6142C375.502 48.357 376.521 47.3379 377.779 47.3379C379.036 47.3379 380.055 48.357 380.055 49.6142Z" stroke="#C1D3FA" stroke-width="1.35915" stroke-linecap="round" stroke-linejoin="round"/>
<path opacity="0.65" d="M296.833 110.802H148.931C144.551 110.802 141 114.353 141 118.733V269.992C141 274.372 144.551 277.923 148.931 277.923H296.833C301.213 277.923 304.764 274.372 304.764 269.992V118.733C304.764 114.353 301.213 110.802 296.833 110.802Z" fill="white"/>
<path d="M176.201 151.687H164.033C159.653 151.687 156.102 155.237 156.102 159.618V171.785C156.102 176.165 159.653 179.716 164.033 179.716H176.201C180.581 179.716 184.132 176.165 184.132 171.785V159.618C184.132 155.237 180.581 151.687 176.201 151.687Z" fill="#D8E4FC"/>
<path opacity="0.15" d="M229.828 158.382H215.605" stroke="#C1D3FA" stroke-width="2.63709" stroke-linecap="round" stroke-linejoin="round"/>
<path opacity="0.15" d="M241.143 170.424H215.605" stroke="#C1D3FA" stroke-width="2.63709" stroke-linecap="round" stroke-linejoin="round"/>
<path opacity="0.15" d="M281.711 170.391H267.488" stroke="#C1D3FA" stroke-width="2.63709" stroke-linecap="round" stroke-linejoin="round"/>
<path opacity="0.25" d="M256.344 169.783C256.344 172.096 253.37 174.079 253.37 174.079C253.37 174.079 250.39 172.096 250.39 169.783C250.44 169.028 250.775 168.321 251.327 167.805C251.88 167.288 252.607 167 253.364 167C254.12 167 254.848 167.288 255.4 167.805C255.952 168.321 256.288 169.028 256.338 169.783H256.344Z" stroke="#6391F3" stroke-width="0.660924" stroke-linecap="round" stroke-linejoin="round"/>
<path opacity="0.25" d="M253.37 170.774C253.918 170.774 254.362 170.33 254.362 169.783C254.362 169.235 253.918 168.792 253.37 168.792C252.823 168.792 252.379 169.235 252.379 169.783C252.379 170.33 252.823 170.774 253.37 170.774Z" stroke="#6391F3" stroke-width="0.660924" stroke-linecap="round" stroke-linejoin="round"/>
<path d="M176.201 190.02H164.033C159.653 190.02 156.102 193.571 156.102 197.951V210.119C156.102 214.499 159.653 218.05 164.033 218.05H176.201C180.581 218.05 184.132 214.499 184.132 210.119V197.951C184.132 193.571 180.581 190.02 176.201 190.02Z" fill="#F1F5FE"/>
<path opacity="0.1" d="M229.828 196.715H215.605" stroke="#C1D3FA" stroke-width="2.63709" stroke-linecap="round" stroke-linejoin="round"/>
<path opacity="0.1" d="M241.143 208.758H215.605" stroke="#C1D3FA" stroke-width="2.63709" stroke-linecap="round" stroke-linejoin="round"/>
<path opacity="0.15" d="M199.115 195.881C199.096 195.714 199.016 195.585 198.876 195.493C198.735 195.401 198.563 195.355 198.36 195.355C198.136 195.355 197.957 195.408 197.821 195.514C197.685 195.62 197.617 195.753 197.617 195.914C197.617 196.034 197.654 196.132 197.727 196.206C197.802 196.279 197.889 196.337 197.99 196.379C198.092 196.419 198.184 196.45 198.268 196.472L198.609 196.564C198.697 196.587 198.795 196.619 198.902 196.66C199.01 196.7 199.114 196.755 199.212 196.825C199.312 196.894 199.394 196.983 199.459 197.092C199.523 197.2 199.556 197.333 199.556 197.491C199.556 197.673 199.508 197.837 199.413 197.984C199.319 198.13 199.181 198.247 198.999 198.334C198.818 198.42 198.598 198.463 198.34 198.463C197.979 198.463 197.692 198.378 197.479 198.207C197.267 198.036 197.15 197.813 197.131 197.537H197.551C197.562 197.664 197.605 197.769 197.68 197.852C197.755 197.934 197.85 197.996 197.965 198.036C198.081 198.076 198.206 198.095 198.34 198.095C198.495 198.095 198.635 198.07 198.759 198.02C198.883 197.968 198.981 197.897 199.053 197.806C199.125 197.714 199.161 197.607 199.161 197.484C199.161 197.373 199.13 197.282 199.068 197.212C199.005 197.141 198.923 197.084 198.821 197.041C198.719 196.997 198.609 196.959 198.491 196.926L198.077 196.807C197.814 196.732 197.606 196.624 197.453 196.484C197.299 196.344 197.223 196.16 197.223 195.933C197.223 195.745 197.274 195.581 197.376 195.44C197.479 195.299 197.617 195.19 197.79 195.112C197.964 195.033 198.158 194.994 198.373 194.994C198.59 194.994 198.782 195.032 198.951 195.11C199.12 195.187 199.253 195.292 199.352 195.426C199.452 195.559 199.504 195.711 199.51 195.881H199.115ZM200.226 198.404V195.04H200.633V196.709H200.673L202.184 195.04H202.716L201.303 196.558L202.716 198.404H202.223L201.054 196.84L200.633 197.313V198.404H200.226ZM205.452 195.04H205.859V197.267C205.859 197.519 205.8 197.735 205.68 197.913C205.561 198.092 205.402 198.228 205.204 198.322C205.005 198.416 204.788 198.463 204.551 198.463C204.315 198.463 204.097 198.416 203.899 198.322C203.701 198.228 203.542 198.092 203.423 197.913C203.303 197.735 203.244 197.519 203.244 197.267V195.04H203.651V197.267C203.651 197.443 203.693 197.591 203.776 197.713C203.859 197.833 203.969 197.925 204.106 197.989C204.243 198.051 204.392 198.082 204.551 198.082C204.711 198.082 204.86 198.051 204.997 197.989C205.134 197.925 205.244 197.833 205.327 197.713C205.41 197.591 205.452 197.443 205.452 197.267V195.04Z" fill="#C1D3FA"/>
<path opacity="0.15" d="M199.943 207.597V210.961H199.549L197.716 208.32H197.683V210.961H197.275V207.597H197.67L199.51 210.245H199.543V207.597H199.943ZM201.449 211.021C201.289 211.021 201.144 210.99 201.013 210.93C200.883 210.869 200.78 210.781 200.703 210.666C200.626 210.55 200.588 210.409 200.588 210.245C200.588 210.101 200.616 209.983 200.673 209.894C200.73 209.803 200.806 209.731 200.902 209.68C200.997 209.628 201.102 209.59 201.217 209.565C201.333 209.539 201.45 209.518 201.567 209.503C201.72 209.483 201.845 209.468 201.94 209.458C202.036 209.447 202.106 209.429 202.15 209.404C202.195 209.379 202.218 209.335 202.218 209.273V209.259C202.218 209.097 202.173 208.971 202.085 208.881C201.997 208.792 201.864 208.747 201.685 208.747C201.5 208.747 201.355 208.787 201.25 208.868C201.145 208.949 201.071 209.036 201.028 209.128L200.66 208.996C200.726 208.843 200.814 208.724 200.923 208.638C201.034 208.552 201.154 208.492 201.284 208.458C201.416 208.423 201.545 208.405 201.672 208.405C201.753 208.405 201.846 208.415 201.952 208.435C202.058 208.453 202.16 208.492 202.259 208.551C202.358 208.61 202.441 208.7 202.507 208.819C202.573 208.938 202.605 209.098 202.605 209.299V210.961H202.218V210.62H202.198C202.172 210.674 202.128 210.733 202.067 210.795C202.005 210.858 201.924 210.911 201.822 210.955C201.72 210.999 201.596 211.021 201.449 211.021ZM201.508 210.672C201.661 210.672 201.791 210.642 201.896 210.582C202.002 210.522 202.082 210.444 202.136 210.349C202.19 210.253 202.218 210.153 202.218 210.048V209.693C202.201 209.713 202.165 209.731 202.109 209.747C202.054 209.763 201.991 209.776 201.919 209.788C201.847 209.799 201.778 209.809 201.71 209.818C201.643 209.826 201.589 209.832 201.547 209.838C201.447 209.851 201.352 209.872 201.265 209.902C201.178 209.93 201.108 209.973 201.054 210.032C201.002 210.088 200.976 210.166 200.976 210.265C200.976 210.4 201.025 210.501 201.125 210.57C201.226 210.638 201.353 210.672 201.508 210.672ZM203.313 210.961V208.438H203.688V208.832H203.721C203.773 208.697 203.858 208.593 203.975 208.518C204.092 208.443 204.233 208.405 204.397 208.405C204.564 208.405 204.702 208.443 204.813 208.518C204.925 208.593 205.012 208.697 205.074 208.832H205.101C205.165 208.702 205.262 208.598 205.391 208.522C205.521 208.444 205.676 208.405 205.856 208.405C206.082 208.405 206.267 208.476 206.41 208.617C206.553 208.757 206.625 208.976 206.625 209.273V210.961H206.237V209.273C206.237 209.086 206.187 208.953 206.085 208.873C205.983 208.793 205.863 208.753 205.725 208.753C205.547 208.753 205.41 208.807 205.313 208.914C205.215 209.021 205.166 209.155 205.166 209.319V210.961H204.772V209.233C204.772 209.09 204.725 208.974 204.632 208.886C204.539 208.798 204.419 208.753 204.273 208.753C204.172 208.753 204.078 208.78 203.99 208.834C203.903 208.888 203.833 208.962 203.78 209.057C203.727 209.151 203.701 209.26 203.701 209.384V210.961H203.313ZM208.392 211.014C208.149 211.014 207.939 210.96 207.763 210.853C207.588 210.745 207.452 210.593 207.357 210.4C207.263 210.205 207.216 209.978 207.216 209.719C207.216 209.461 207.263 209.233 207.357 209.036C207.452 208.838 207.585 208.683 207.755 208.573C207.926 208.461 208.125 208.405 208.353 208.405C208.484 208.405 208.614 208.427 208.742 208.471C208.87 208.515 208.987 208.586 209.092 208.684C209.197 208.782 209.281 208.911 209.343 209.072C209.406 209.233 209.437 209.431 209.437 209.667V209.831H207.605C207.614 210.101 207.69 210.307 207.834 210.45C207.978 210.594 208.164 210.666 208.392 210.666C208.544 210.666 208.675 210.633 208.785 210.567C208.894 210.501 208.974 210.403 209.023 210.271L209.398 210.377C209.339 210.567 209.22 210.721 209.043 210.838C208.865 210.955 208.648 211.014 208.392 211.014ZM207.605 209.496H209.043C209.043 209.282 208.98 209.105 208.855 208.965C208.731 208.824 208.563 208.753 208.353 208.753C208.205 208.753 208.077 208.788 207.968 208.857C207.86 208.926 207.774 209.017 207.712 209.131C207.65 209.244 207.614 209.366 207.605 209.496Z" fill="#C1D3FA"/>
<path opacity="0.1" d="M281.711 208.725H267.488" stroke="#C1D3FA" stroke-width="2.63709" stroke-linecap="round" stroke-linejoin="round"/>
<path d="M256.344 208.116C256.344 210.43 253.37 212.412 253.37 212.412C253.37 212.412 250.39 210.43 250.39 208.116C250.44 207.362 250.775 206.655 251.327 206.138C251.88 205.621 252.607 205.334 253.364 205.334C254.12 205.334 254.848 205.621 255.4 206.138C255.952 206.655 256.288 207.362 256.338 208.116H256.344Z" stroke="#C1D3FA" stroke-width="0.660924" stroke-linecap="round" stroke-linejoin="round"/>
<path d="M253.37 209.108C253.918 209.108 254.362 208.664 254.362 208.117C254.362 207.569 253.918 207.125 253.37 207.125C252.823 207.125 252.379 207.569 252.379 208.117C252.379 208.664 252.823 209.108 253.37 209.108Z" stroke="#C1D3FA" stroke-width="0.660924" stroke-linecap="round" stroke-linejoin="round"/>
<path d="M281.79 156.155V158.798" stroke="#C1D3FA" stroke-width="0.660924" stroke-linecap="round" stroke-linejoin="round"/>
<path d="M280.468 157.477H283.112" stroke="#C1D3FA" stroke-width="0.660924" stroke-linecap="round" stroke-linejoin="round"/>
<path d="M265.928 157.477H268.572" stroke="#C1D3FA" stroke-width="0.660924" stroke-linecap="round" stroke-linejoin="round"/>
<path d="M199.028 157.631C199.013 157.487 198.949 157.376 198.836 157.296C198.723 157.216 198.576 157.176 198.394 157.176C198.204 157.176 198.055 157.217 197.947 157.301C197.84 157.383 197.786 157.487 197.785 157.614C197.784 157.707 197.811 157.785 197.868 157.846C197.925 157.906 197.998 157.954 198.085 157.991C198.174 158.027 198.264 158.056 198.356 158.078L198.672 158.156C198.84 158.196 199 158.255 199.15 158.332C199.301 158.409 199.424 158.512 199.518 158.641C199.613 158.769 199.661 158.931 199.661 159.126C199.66 159.423 199.547 159.663 199.324 159.847C199.101 160.03 198.787 160.121 198.384 160.121C197.992 160.121 197.679 160.031 197.446 159.85C197.213 159.669 197.09 159.411 197.078 159.077H197.678C197.69 159.253 197.762 159.384 197.895 159.471C198.027 159.557 198.189 159.601 198.379 159.601C198.579 159.601 198.74 159.557 198.864 159.469C198.988 159.38 199.05 159.264 199.051 159.121C199.05 158.991 198.994 158.892 198.884 158.825C198.774 158.757 198.629 158.7 198.447 158.654L198.064 158.556C197.787 158.485 197.568 158.377 197.407 158.232C197.247 158.086 197.167 157.893 197.167 157.652C197.167 157.454 197.221 157.28 197.328 157.131C197.435 156.982 197.582 156.867 197.768 156.785C197.956 156.701 198.167 156.66 198.402 156.66C198.641 156.66 198.851 156.701 199.032 156.785C199.212 156.867 199.354 156.981 199.455 157.128C199.558 157.274 199.612 157.441 199.615 157.631H199.028Z" fill="#C1D3FA"/>
<path d="M200.204 160.07V156.706H200.814V158.252H200.855L202.168 156.706H202.912L201.611 158.216L202.923 160.07H202.191L201.187 158.628L200.814 159.068V160.07H200.204Z" fill="#C1D3FA"/>
<path d="M205.458 156.706H206.066V158.93C206.066 159.184 206.006 159.4 205.887 159.578C205.767 159.755 205.605 159.89 205.399 159.983C205.193 160.075 204.96 160.121 204.701 160.121C204.441 160.121 204.208 160.075 204.002 159.983C203.796 159.89 203.634 159.755 203.514 159.578C203.395 159.4 203.335 159.184 203.335 158.93V156.706H203.945V158.916C203.945 159.054 203.978 159.172 204.045 159.27C204.113 159.368 204.204 159.443 204.318 159.495C204.433 159.547 204.56 159.573 204.701 159.573C204.842 159.573 204.969 159.547 205.083 159.495C205.198 159.443 205.289 159.368 205.356 159.27C205.424 159.172 205.458 159.054 205.458 158.916V156.706Z" fill="#C1D3FA"/>
<path d="M274.797 156.65C274.958 156.651 275.115 156.679 275.267 156.735C275.421 156.791 275.559 156.882 275.681 157.006C275.804 157.131 275.901 157.298 275.974 157.508C276.046 157.717 276.082 157.976 276.082 158.285C276.082 158.67 276.028 159 275.919 159.274C275.812 159.546 275.66 159.755 275.463 159.9C275.266 160.044 275.032 160.116 274.763 160.116C274.55 160.116 274.362 160.075 274.198 159.992C274.034 159.908 273.902 159.794 273.802 159.65C273.701 159.504 273.639 159.339 273.616 159.154H274.216C274.246 159.287 274.309 159.394 274.403 159.472C274.497 159.55 274.617 159.589 274.763 159.589C274.995 159.589 275.174 159.488 275.3 159.285C275.426 159.081 275.49 158.8 275.491 158.441H275.468C275.387 158.585 275.272 158.699 275.123 158.782C274.974 158.865 274.808 158.906 274.626 158.906C274.43 158.906 274.253 158.859 274.096 158.764C273.938 158.67 273.813 158.541 273.721 158.377C273.629 158.211 273.583 158.022 273.583 157.81C273.583 157.589 273.634 157.39 273.734 157.215C273.836 157.04 273.978 156.902 274.16 156.801C274.342 156.699 274.554 156.649 274.797 156.65ZM274.799 157.143C274.681 157.143 274.574 157.172 274.48 157.23C274.386 157.288 274.312 157.366 274.257 157.465C274.202 157.563 274.175 157.674 274.175 157.797C274.175 157.917 274.201 158.027 274.254 158.125C274.307 158.223 274.381 158.3 274.474 158.357C274.567 158.414 274.673 158.442 274.792 158.442C274.911 158.442 275.017 158.413 275.113 158.354C275.208 158.293 275.284 158.214 275.339 158.115C275.395 158.017 275.423 157.909 275.423 157.793C275.423 157.676 275.396 157.568 275.341 157.47C275.287 157.371 275.214 157.292 275.119 157.233C275.026 157.173 274.919 157.143 274.799 157.143Z" fill="#C1D3FA"/>
<path d="M199.965 169.263V172.628H199.423L197.837 170.336H197.809V172.628H197.2V169.263H197.745L199.329 171.557H199.359V169.263H199.965Z" fill="#C1D3FA"/>
<path d="M201.329 172.679C201.088 172.679 200.887 172.614 200.726 172.485C200.565 172.356 200.484 172.167 200.484 171.92C200.484 171.73 200.53 171.584 200.621 171.479C200.713 171.374 200.832 171.298 200.977 171.251C201.124 171.203 201.279 171.17 201.442 171.153C201.665 171.128 201.824 171.106 201.92 171.085C202.018 171.064 202.067 171.011 202.067 170.926V170.916C202.067 170.792 202.03 170.696 201.956 170.628C201.883 170.561 201.777 170.527 201.639 170.527C201.494 170.527 201.378 170.558 201.293 170.622C201.208 170.685 201.151 170.76 201.122 170.847L200.567 170.768C200.632 170.538 200.76 170.364 200.951 170.247C201.143 170.13 201.371 170.071 201.636 170.071C201.757 170.071 201.877 170.086 201.998 170.114C202.118 170.143 202.228 170.19 202.328 170.255C202.428 170.321 202.509 170.41 202.569 170.522C202.631 170.633 202.661 170.772 202.661 170.939V172.628H202.09V172.281H202.07C202.016 172.387 201.929 172.481 201.807 172.561C201.686 172.639 201.527 172.679 201.329 172.679ZM201.483 172.242C201.663 172.242 201.805 172.19 201.91 172.087C202.016 171.984 202.068 171.863 202.068 171.723V171.425C202.043 171.446 201.996 171.465 201.929 171.481C201.862 171.496 201.79 171.51 201.715 171.521C201.639 171.531 201.575 171.541 201.523 171.548C201.39 171.567 201.28 171.604 201.191 171.659C201.102 171.712 201.058 171.796 201.058 171.91C201.058 172.019 201.098 172.102 201.178 172.158C201.258 172.214 201.36 172.242 201.483 172.242Z" fill="#C1D3FA"/>
<path d="M203.259 172.628V170.104H203.828V170.533H203.857C203.91 170.39 203.997 170.277 204.119 170.195C204.24 170.113 204.385 170.071 204.554 170.071C204.724 170.071 204.868 170.113 204.986 170.195C205.104 170.277 205.188 170.39 205.236 170.533H205.262C205.318 170.393 205.412 170.281 205.545 170.198C205.678 170.114 205.836 170.071 206.019 170.071C206.252 170.071 206.441 170.145 206.588 170.292C206.735 170.438 206.808 170.653 206.808 170.934V172.628H206.212V171.026C206.212 170.869 206.17 170.755 206.087 170.683C206.003 170.609 205.902 170.573 205.781 170.573C205.638 170.573 205.525 170.617 205.444 170.707C205.364 170.796 205.324 170.912 205.324 171.054V172.628H204.741V171.001C204.741 170.871 204.702 170.767 204.623 170.689C204.545 170.611 204.443 170.573 204.317 170.573C204.189 170.573 204.08 170.621 203.989 170.717C203.899 170.812 203.854 170.938 203.854 171.093V172.628H203.259Z" fill="#C1D3FA"/>
<path d="M208.529 172.677C208.276 172.677 208.057 172.624 207.873 172.518C207.69 172.412 207.549 172.262 207.451 172.068C207.352 171.874 207.303 171.645 207.303 171.381C207.303 171.121 207.352 170.893 207.451 170.697C207.549 170.5 207.688 170.347 207.866 170.237C208.046 170.127 208.256 170.071 208.497 170.071C208.704 170.071 208.895 170.116 209.071 170.206C209.246 170.295 209.386 170.433 209.491 170.622C209.598 170.809 209.651 171.051 209.651 171.346V171.529H207.893C207.896 171.745 207.956 171.913 208.072 172.033C208.189 172.154 208.344 172.214 208.537 172.214C208.665 172.214 208.776 172.186 208.869 172.132C208.963 172.076 209.03 171.995 209.071 171.889L209.626 171.951C209.573 172.17 209.451 172.346 209.258 172.478C209.066 172.611 208.823 172.677 208.529 172.677ZM207.894 171.128H209.081C209.079 170.956 209.026 170.814 208.92 170.702C208.814 170.591 208.676 170.535 208.506 170.535C208.328 170.535 208.184 170.593 208.073 170.711C207.963 170.828 207.903 170.967 207.894 171.128Z" fill="#C1D3FA"/>
<path d="M272.169 199.065V198.625L273.337 197.479C273.503 197.311 273.629 197.167 273.713 197.049C273.797 196.931 273.839 196.802 273.839 196.661C273.839 196.502 273.786 196.378 273.68 196.287C273.574 196.195 273.441 196.149 273.281 196.149C273.113 196.149 272.979 196.199 272.878 196.3C272.779 196.4 272.729 196.535 272.729 196.707H272.149C272.149 196.494 272.198 196.308 272.295 196.15C272.393 195.993 272.527 195.871 272.698 195.784C272.87 195.697 273.067 195.654 273.289 195.654C273.515 195.654 273.712 195.696 273.882 195.781C274.053 195.865 274.186 195.981 274.281 196.127C274.377 196.274 274.424 196.442 274.424 196.63C274.424 196.756 274.4 196.88 274.352 197.001C274.304 197.123 274.219 197.258 274.097 197.407C273.977 197.555 273.808 197.734 273.59 197.943L273.01 198.533V198.556H274.475V199.065H272.169Z" fill="#C1D3FA"/>
<path d="M276.274 199.111C276.113 199.11 275.956 199.082 275.803 199.027C275.649 198.971 275.511 198.881 275.389 198.756C275.267 198.631 275.17 198.464 275.098 198.255C275.026 198.046 274.989 197.787 274.989 197.478C274.989 197.091 275.043 196.762 275.15 196.489C275.259 196.215 275.412 196.006 275.609 195.861C275.806 195.717 276.039 195.644 276.309 195.644C276.521 195.644 276.709 195.687 276.872 195.771C277.035 195.854 277.167 195.969 277.268 196.114C277.369 196.259 277.431 196.423 277.455 196.607H276.856C276.825 196.473 276.762 196.368 276.667 196.29C276.573 196.211 276.453 196.172 276.309 196.172C276.075 196.172 275.896 196.274 275.77 196.477C275.645 196.68 275.582 196.961 275.581 197.32H275.604C275.685 197.176 275.8 197.062 275.949 196.98C276.099 196.897 276.264 196.855 276.445 196.855C276.642 196.855 276.819 196.902 276.976 196.996C277.133 197.091 277.258 197.22 277.35 197.386C277.442 197.55 277.488 197.739 277.487 197.951C277.488 198.172 277.437 198.371 277.336 198.547C277.235 198.723 277.093 198.861 276.91 198.961C276.728 199.062 276.516 199.112 276.274 199.111ZM276.271 198.618C276.39 198.618 276.497 198.589 276.591 198.531C276.685 198.473 276.76 198.395 276.815 198.296C276.869 198.197 276.896 198.087 276.895 197.964C276.896 197.844 276.87 197.735 276.816 197.637C276.763 197.54 276.689 197.463 276.596 197.406C276.504 197.349 276.399 197.32 276.279 197.32C276.161 197.32 276.054 197.35 275.959 197.409C275.863 197.468 275.788 197.547 275.732 197.645C275.676 197.743 275.648 197.851 275.647 197.969C275.648 198.086 275.675 198.194 275.729 198.293C275.782 198.391 275.856 198.47 275.951 198.529C276.045 198.588 276.152 198.618 276.271 198.618Z" fill="#C1D3FA"/>
<path d="M281.79 195.149V197.793" stroke="#C1D3FA" stroke-width="0.660924" stroke-linecap="round" stroke-linejoin="round"/>
<path d="M280.468 196.471H283.112" stroke="#C1D3FA" stroke-width="0.660924" stroke-linecap="round" stroke-linejoin="round"/>
<path d="M265.928 196.471H268.572" stroke="#C1D3FA" stroke-width="0.660924" stroke-linecap="round" stroke-linejoin="round"/>
<path opacity="0.65" d="M467.463 88H335.239C330.859 88 327.308 91.5509 327.308 95.9311V288.346C327.308 292.726 330.859 296.277 335.239 296.277H467.463C471.844 296.277 475.394 292.726 475.394 288.346V95.9311C475.394 91.5509 471.844 88 467.463 88Z" fill="white"/>
<path d="M368.986 111.046H349.918C345.538 111.046 341.987 114.597 341.987 118.977V138.045C341.987 142.425 345.538 145.976 349.918 145.976H368.986C373.366 145.976 376.917 142.425 376.917 138.045V118.977C376.917 114.597 373.366 111.046 368.986 111.046Z" fill="#F1F5FE"/>
<path opacity="0.25" d="M433.869 119.387H416.143" stroke="#C1D3FA" stroke-width="3.28479" stroke-linecap="round" stroke-linejoin="round"/>
<path opacity="0.25" d="M447.973 134.397H416.143" stroke="#C1D3FA" stroke-width="3.28479" stroke-linecap="round" stroke-linejoin="round"/>
<path d="M441.521 222.427L441.523 222.045C441.179 222.017 440.906 221.913 440.702 221.731C440.499 221.55 440.393 221.303 440.381 220.99H440.991C441.001 221.142 441.055 221.26 441.154 221.346C441.253 221.431 441.377 221.486 441.526 221.509L441.533 220.5L441.383 220.461C441.101 220.389 440.879 220.279 440.715 220.132C440.553 219.984 440.472 219.788 440.472 219.543C440.472 219.36 440.517 219.197 440.608 219.054C440.701 218.911 440.828 218.795 440.989 218.707C441.151 218.619 441.337 218.565 441.546 218.544L441.548 218.155H441.902L441.9 218.544C442.111 218.564 442.294 218.617 442.451 218.705C442.609 218.792 442.732 218.906 442.82 219.046C442.909 219.186 442.955 219.345 442.958 219.522H442.363C442.349 219.401 442.301 219.303 442.219 219.226C442.138 219.148 442.03 219.098 441.897 219.074L441.89 220.027L442 220.056C442.172 220.096 442.334 220.155 442.486 220.234C442.64 220.312 442.764 220.417 442.86 220.548C442.957 220.678 443.005 220.842 443.005 221.04C443.004 221.321 442.905 221.552 442.708 221.735C442.512 221.916 442.235 222.02 441.877 222.045L441.875 222.427H441.521ZM441.88 221.509C442.034 221.485 442.156 221.431 442.247 221.347C442.339 221.263 442.385 221.159 442.386 221.035C442.385 220.917 442.339 220.826 442.249 220.76C442.159 220.693 442.038 220.638 441.887 220.593L441.88 221.509ZM441.536 219.937L441.543 219.074C441.403 219.099 441.294 219.15 441.216 219.228C441.139 219.305 441.1 219.397 441.099 219.505C441.098 219.624 441.141 219.717 441.229 219.784C441.318 219.849 441.421 219.9 441.536 219.937Z" fill="#C1D3FA"/>
<path d="M444.832 218.582V222H444.212V219.373H444.183C444.15 219.425 444.072 219.481 443.949 219.54C443.827 219.598 443.67 219.627 443.477 219.627V219.126C443.595 219.126 443.7 219.105 443.793 219.064C443.885 219.022 443.963 218.971 444.028 218.911C444.094 218.849 444.144 218.789 444.18 218.729C444.215 218.669 444.235 218.62 444.238 218.582H444.832Z" fill="#C1D3FA"/>
<path d="M445.704 222V221.553L446.891 220.389C447.06 220.218 447.187 220.072 447.273 219.952C447.359 219.832 447.401 219.701 447.401 219.558C447.401 219.397 447.347 219.27 447.24 219.178C447.132 219.084 446.996 219.038 446.834 219.038C446.664 219.038 446.527 219.089 446.425 219.191C446.324 219.292 446.273 219.43 446.273 219.605H445.684C445.684 219.388 445.734 219.199 445.833 219.039C445.932 218.879 446.068 218.755 446.241 218.667C446.416 218.579 446.616 218.535 446.842 218.535C447.072 218.535 447.272 218.578 447.445 218.664C447.618 218.749 447.754 218.867 447.85 219.016C447.947 219.165 447.996 219.335 447.996 219.527C447.996 219.655 447.971 219.78 447.922 219.904C447.873 220.027 447.787 220.165 447.663 220.316C447.541 220.466 447.369 220.648 447.148 220.86L446.559 221.459V221.483H448.047V222H445.704Z" fill="#C1D3FA"/>
<path d="M449.887 222.065C449.475 222.065 449.152 221.91 448.919 221.6C448.686 221.289 448.57 220.854 448.57 220.294C448.571 219.736 448.688 219.303 448.92 218.996C449.154 218.689 449.476 218.535 449.887 218.535C450.297 218.535 450.619 218.689 450.853 218.997C451.087 219.305 451.204 219.737 451.204 220.294C451.204 220.855 451.087 221.291 450.855 221.601C450.622 221.912 450.299 222.066 449.887 222.065ZM449.887 221.543C450.1 221.543 450.269 221.438 450.392 221.227C450.517 221.016 450.579 220.705 450.579 220.294C450.578 219.887 450.515 219.578 450.391 219.368C450.267 219.157 450.099 219.051 449.887 219.051C449.675 219.051 449.507 219.157 449.383 219.368C449.259 219.578 449.197 219.887 449.196 220.294C449.195 220.705 449.256 221.016 449.381 221.227C449.506 221.438 449.674 221.543 449.887 221.543Z" fill="#C1D3FA"/>
<path d="M452.137 222.037C452.036 222.037 451.949 222.001 451.877 221.93C451.804 221.858 451.769 221.771 451.77 221.67C451.769 221.569 451.804 221.484 451.877 221.413C451.949 221.341 452.036 221.306 452.137 221.306C452.236 221.306 452.322 221.341 452.394 221.413C452.466 221.484 452.503 221.569 452.504 221.67C452.503 221.771 452.466 221.858 452.394 221.93C452.322 222.001 452.236 222.037 452.137 222.037Z" fill="#C1D3FA"/>
<path d="M454.308 218.525C454.471 218.526 454.631 218.555 454.785 218.612C454.941 218.669 455.081 218.76 455.206 218.887C455.33 219.014 455.43 219.184 455.503 219.396C455.576 219.609 455.613 219.872 455.613 220.186C455.613 220.577 455.558 220.912 455.448 221.191C455.339 221.468 455.184 221.68 454.984 221.826C454.784 221.973 454.547 222.047 454.273 222.047C454.057 222.047 453.866 222.005 453.699 221.92C453.533 221.835 453.399 221.72 453.296 221.573C453.194 221.425 453.131 221.257 453.108 221.069H453.717C453.748 221.204 453.812 221.312 453.907 221.393C454.003 221.472 454.125 221.511 454.273 221.511C454.509 221.511 454.691 221.408 454.819 221.202C454.947 220.995 455.011 220.709 455.012 220.344H454.989C454.907 220.491 454.79 220.607 454.638 220.692C454.487 220.775 454.319 220.817 454.134 220.817C453.935 220.817 453.755 220.769 453.595 220.673C453.435 220.577 453.308 220.446 453.215 220.279C453.121 220.111 453.075 219.919 453.075 219.703C453.075 219.479 453.126 219.277 453.228 219.099C453.332 218.921 453.476 218.781 453.66 218.679C453.845 218.575 454.061 218.524 454.308 218.525ZM454.31 219.026C454.189 219.026 454.081 219.055 453.986 219.114C453.89 219.173 453.814 219.253 453.759 219.353C453.703 219.453 453.675 219.566 453.675 219.69C453.675 219.813 453.702 219.924 453.755 220.024C453.81 220.123 453.885 220.201 453.979 220.259C454.074 220.317 454.182 220.346 454.303 220.346C454.423 220.346 454.532 220.316 454.628 220.256C454.725 220.195 454.802 220.114 454.859 220.014C454.915 219.914 454.944 219.805 454.944 219.687C454.944 219.568 454.916 219.458 454.86 219.358C454.806 219.258 454.731 219.178 454.635 219.118C454.54 219.056 454.432 219.026 454.31 219.026Z" fill="#C1D3FA"/>
<path d="M457.432 222.065C457.021 222.065 456.698 221.91 456.464 221.6C456.232 221.289 456.115 220.854 456.115 220.294C456.117 219.736 456.233 219.303 456.466 218.996C456.7 218.689 457.022 218.535 457.432 218.535C457.843 218.535 458.165 218.689 458.399 218.997C458.632 219.305 458.749 219.737 458.749 220.294C458.749 220.855 458.633 221.291 458.4 221.601C458.168 221.912 457.845 222.066 457.432 222.065ZM457.432 221.543C457.646 221.543 457.815 221.438 457.938 221.227C458.063 221.016 458.125 220.705 458.125 220.294C458.124 219.887 458.061 219.578 457.936 219.368C457.813 219.157 457.645 219.051 457.432 219.051C457.221 219.051 457.053 219.157 456.928 219.368C456.805 219.578 456.742 219.887 456.741 220.294C456.74 220.705 456.802 221.016 456.927 221.227C457.051 221.438 457.22 221.543 457.432 221.543Z" fill="#C1D3FA"/>
<path d="M385.195 206.522C385.179 206.376 385.114 206.262 384.999 206.181C384.885 206.1 384.735 206.059 384.551 206.059C384.357 206.059 384.206 206.102 384.097 206.186C383.987 206.27 383.932 206.376 383.931 206.505C383.93 206.599 383.959 206.678 384.016 206.74C384.074 206.801 384.148 206.85 384.237 206.887C384.327 206.924 384.419 206.953 384.512 206.976L384.833 207.056C385.004 207.096 385.166 207.155 385.318 207.234C385.472 207.312 385.596 207.417 385.692 207.548C385.789 207.678 385.837 207.842 385.837 208.04C385.836 208.342 385.722 208.586 385.495 208.773C385.268 208.959 384.95 209.052 384.541 209.052C384.142 209.052 383.824 208.96 383.587 208.776C383.35 208.592 383.226 208.33 383.214 207.99H383.823C383.835 208.169 383.908 208.303 384.043 208.391C384.178 208.479 384.342 208.523 384.535 208.523C384.738 208.523 384.902 208.478 385.028 208.389C385.154 208.299 385.217 208.181 385.218 208.035C385.217 207.903 385.16 207.803 385.048 207.735C384.937 207.666 384.789 207.608 384.604 207.561L384.215 207.461C383.934 207.389 383.711 207.279 383.547 207.132C383.385 206.984 383.304 206.788 383.304 206.543C383.304 206.342 383.358 206.165 383.467 206.014C383.576 205.863 383.725 205.745 383.915 205.662C384.105 205.577 384.32 205.535 384.559 205.535C384.801 205.535 385.015 205.577 385.198 205.662C385.382 205.745 385.525 205.862 385.629 206.011C385.733 206.159 385.787 206.329 385.791 206.522H385.195Z" fill="#C1D3FA"/>
<path d="M386.967 207.498V209H386.363V205.582H386.954V206.872H386.984C387.043 206.726 387.135 206.612 387.261 206.528C387.387 206.445 387.549 206.403 387.746 206.403C388.012 206.403 388.226 206.487 388.387 206.653C388.549 206.82 388.629 207.058 388.629 207.368V209H388.025V207.461C388.025 207.289 387.981 207.155 387.892 207.059C387.804 206.962 387.68 206.914 387.521 206.914C387.36 206.914 387.227 206.965 387.122 207.067C387.019 207.169 386.967 207.312 386.967 207.498Z" fill="#C1D3FA"/>
<path d="M389.245 209V206.436H389.849V209H389.245ZM389.549 206.073C389.452 206.073 389.369 206.041 389.3 205.977C389.232 205.913 389.198 205.836 389.198 205.745C389.198 205.654 389.232 205.577 389.3 205.513C389.369 205.449 389.452 205.417 389.549 205.417C389.645 205.417 389.726 205.449 389.794 205.513C389.863 205.577 389.898 205.654 389.898 205.745C389.898 205.836 389.863 205.913 389.794 205.977C389.726 206.041 389.645 206.073 389.549 206.073Z" fill="#C1D3FA"/>
<path d="M390.471 209.961V206.436H391.065V206.86H391.1C391.131 206.798 391.174 206.732 391.23 206.662C391.287 206.591 391.364 206.53 391.46 206.48C391.558 206.429 391.682 206.403 391.833 206.403C392.031 206.403 392.209 206.454 392.368 206.555C392.529 206.656 392.655 206.805 392.749 207.001C392.843 207.196 392.891 207.437 392.891 207.722C392.891 208.003 392.845 208.242 392.752 208.439C392.66 208.636 392.534 208.786 392.375 208.89C392.216 208.993 392.036 209.045 391.834 209.045C391.687 209.045 391.565 209.021 391.469 208.972C391.372 208.923 391.294 208.864 391.235 208.795C391.177 208.725 391.132 208.658 391.1 208.596H391.075V209.961H390.471ZM391.063 207.718C391.063 207.966 391.115 208.167 391.22 208.321C391.325 208.473 391.473 208.549 391.666 208.549C391.865 208.549 392.016 208.471 392.12 208.314C392.223 208.157 392.275 207.959 392.275 207.718C392.275 207.479 392.224 207.283 392.121 207.129C392.019 206.976 391.867 206.899 391.666 206.899C391.471 206.899 391.322 206.973 391.218 207.122C391.115 207.27 391.063 207.469 391.063 207.718Z" fill="#C1D3FA"/>
<path d="M393.408 209.961V206.436H394.002V206.86H394.037C394.068 206.798 394.112 206.732 394.167 206.662C394.224 206.591 394.301 206.53 394.398 206.48C394.496 206.429 394.62 206.403 394.77 206.403C394.968 206.403 395.147 206.454 395.306 206.555C395.466 206.656 395.593 206.805 395.686 207.001C395.781 207.196 395.828 207.437 395.828 207.722C395.828 208.003 395.782 208.242 395.69 208.439C395.597 208.636 395.472 208.786 395.312 208.89C395.153 208.993 394.973 209.045 394.772 209.045C394.625 209.045 394.503 209.021 394.406 208.972C394.309 208.923 394.231 208.864 394.173 208.795C394.115 208.725 394.07 208.658 394.037 208.596H394.012V209.961H393.408ZM394.001 207.718C394.001 207.966 394.053 208.167 394.157 208.321C394.262 208.473 394.411 208.549 394.603 208.549C394.802 208.549 394.954 208.471 395.057 208.314C395.161 208.157 395.212 207.959 395.212 207.718C395.212 207.479 395.161 207.283 395.059 207.129C394.956 206.976 394.805 206.899 394.603 206.899C394.408 206.899 394.259 206.973 394.156 207.122C394.052 207.27 394.001 207.469 394.001 207.718Z" fill="#C1D3FA"/>
<path d="M396.346 209V206.436H396.95V209H396.346ZM396.649 206.073C396.553 206.073 396.47 206.041 396.401 205.977C396.333 205.913 396.299 205.836 396.299 205.745C396.299 205.654 396.333 205.577 396.401 205.513C396.47 205.449 396.553 205.417 396.649 205.417C396.745 205.417 396.827 205.449 396.895 205.513C396.964 205.577 396.998 205.654 396.998 205.745C396.998 205.836 396.964 205.913 396.895 205.977C396.827 206.041 396.745 206.073 396.649 206.073Z" fill="#C1D3FA"/>
<path d="M398.175 207.498V209H397.571V206.436H398.149V206.872H398.179C398.238 206.73 398.332 206.616 398.461 206.532C398.591 206.446 398.752 206.403 398.943 206.403C399.208 206.403 399.42 206.487 399.581 206.655C399.742 206.823 399.822 207.061 399.821 207.368V209H399.217V207.461C399.217 207.29 399.172 207.156 399.083 207.059C398.995 206.962 398.873 206.914 398.718 206.914C398.559 206.914 398.428 206.965 398.327 207.067C398.226 207.169 398.175 207.312 398.175 207.498Z" fill="#C1D3FA"/>
<path d="M401.55 210.005C401.224 210.005 400.968 209.942 400.781 209.816C400.595 209.692 400.474 209.542 400.418 209.367L400.963 209.235C400.999 209.306 401.063 209.375 401.153 209.444C401.243 209.513 401.379 209.548 401.56 209.548C401.733 209.548 401.874 209.506 401.986 209.424C402.098 209.342 402.154 209.209 402.154 209.025V208.539H402.124C402.093 208.602 402.047 208.666 401.987 208.731C401.928 208.797 401.85 208.852 401.752 208.897C401.655 208.941 401.533 208.963 401.386 208.963C401.19 208.963 401.011 208.917 400.851 208.825C400.692 208.731 400.565 208.592 400.47 208.406C400.377 208.22 400.33 207.988 400.33 207.71C400.33 207.428 400.377 207.191 400.47 206.997C400.565 206.803 400.692 206.655 400.852 206.555C401.013 206.454 401.191 206.403 401.388 206.403C401.539 206.403 401.664 206.429 401.76 206.48C401.858 206.53 401.936 206.591 401.992 206.662C402.05 206.732 402.094 206.798 402.124 206.86H402.158V206.436H402.753V209.042C402.753 209.257 402.701 209.435 402.597 209.578C402.492 209.721 402.349 209.828 402.168 209.898C401.987 209.969 401.781 210.005 401.55 210.005ZM401.555 208.489C401.748 208.489 401.896 208.42 402.001 208.282C402.105 208.143 402.158 207.951 402.158 207.707C402.158 207.464 402.106 207.269 402.002 207.121C401.899 206.973 401.75 206.899 401.555 206.899C401.354 206.899 401.202 206.976 401.099 207.129C400.997 207.282 400.946 207.474 400.946 207.707C400.946 207.942 400.998 208.132 401.101 208.276C401.205 208.418 401.356 208.489 401.555 208.489Z" fill="#C1D3FA"/>
<path d="M403.745 209.037C403.644 209.037 403.557 209.001 403.484 208.93C403.412 208.858 403.377 208.771 403.378 208.67C403.377 208.569 403.412 208.484 403.484 208.413C403.557 208.341 403.644 208.306 403.745 208.306C403.844 208.306 403.93 208.341 404.002 208.413C404.074 208.484 404.111 208.569 404.112 208.67C404.111 208.771 404.074 208.858 404.002 208.93C403.93 209.001 403.844 209.037 403.745 209.037ZM403.745 207.206C403.644 207.206 403.557 207.17 403.484 207.099C403.412 207.027 403.377 206.94 403.378 206.839C403.377 206.739 403.412 206.653 403.484 206.582C403.557 206.51 403.644 206.475 403.745 206.475C403.844 206.475 403.93 206.51 404.002 206.582C404.074 206.653 404.111 206.739 404.112 206.839C404.111 206.94 404.074 207.027 404.002 207.099C403.93 207.17 403.844 207.206 403.745 207.206Z" fill="#C1D3FA"/>
<path d="M394.195 119.522C394.179 119.376 394.114 119.262 393.999 119.181C393.885 119.1 393.735 119.059 393.551 119.059C393.357 119.059 393.206 119.102 393.097 119.186C392.987 119.27 392.932 119.376 392.931 119.505C392.93 119.599 392.959 119.678 393.016 119.74C393.074 119.801 393.148 119.85 393.237 119.887C393.327 119.924 393.419 119.953 393.512 119.976L393.833 120.056C394.004 120.096 394.166 120.155 394.318 120.234C394.472 120.312 394.596 120.417 394.692 120.548C394.789 120.678 394.837 120.842 394.837 121.04C394.836 121.342 394.722 121.586 394.495 121.773C394.268 121.959 393.95 122.052 393.541 122.052C393.142 122.052 392.824 121.96 392.587 121.776C392.35 121.592 392.226 121.33 392.214 120.99H392.823C392.835 121.169 392.908 121.303 393.043 121.391C393.178 121.479 393.342 121.523 393.535 121.523C393.738 121.523 393.902 121.478 394.028 121.389C394.154 121.299 394.217 121.181 394.218 121.035C394.217 120.903 394.16 120.803 394.048 120.735C393.937 120.666 393.789 120.608 393.604 120.561L393.215 120.461C392.934 120.389 392.711 120.279 392.547 120.132C392.385 119.984 392.304 119.788 392.304 119.543C392.304 119.342 392.358 119.165 392.467 119.014C392.576 118.863 392.725 118.745 392.915 118.662C393.105 118.577 393.32 118.535 393.559 118.535C393.801 118.535 394.015 118.577 394.198 118.662C394.382 118.745 394.525 118.862 394.629 119.011C394.733 119.159 394.787 119.329 394.791 119.522H394.195Z" fill="#C1D3FA"/>
<path d="M395.389 122V118.582H396.009V120.152H396.05L397.384 118.582H398.14L396.818 120.116L398.152 122H397.407L396.387 120.535L396.009 120.982V122H395.389Z" fill="#C1D3FA"/>
<path d="M400.727 118.582H401.344V120.842C401.344 121.1 401.283 121.319 401.162 121.499C401.041 121.68 400.876 121.817 400.666 121.912C400.457 122.005 400.221 122.052 399.957 122.052C399.693 122.052 399.457 122.005 399.248 121.912C399.039 121.817 398.873 121.68 398.752 121.499C398.631 121.319 398.57 121.1 398.57 120.842V118.582H399.189V120.827C399.189 120.967 399.223 121.087 399.291 121.187C399.36 121.286 399.453 121.362 399.568 121.416C399.685 121.468 399.815 121.494 399.957 121.494C400.101 121.494 400.23 121.468 400.346 121.416C400.463 121.362 400.555 121.286 400.623 121.187C400.692 121.087 400.727 120.967 400.727 120.827V118.582Z" fill="#C1D3FA"/>
<path d="M395.146 133.582V137H394.595L392.985 134.672H392.956V137H392.337V133.582H392.891L394.5 135.912H394.53V133.582H395.146Z" fill="#C1D3FA"/>
<path d="M396.532 137.052C396.287 137.052 396.083 136.986 395.919 136.855C395.756 136.724 395.674 136.532 395.674 136.281C395.674 136.088 395.72 135.939 395.812 135.833C395.906 135.727 396.027 135.649 396.175 135.601C396.324 135.552 396.481 135.519 396.647 135.501C396.873 135.477 397.035 135.454 397.133 135.433C397.232 135.412 397.281 135.358 397.281 135.271V135.261C397.281 135.135 397.244 135.038 397.169 134.969C397.095 134.9 396.987 134.865 396.847 134.865C396.699 134.865 396.582 134.898 396.495 134.962C396.409 135.027 396.352 135.103 396.322 135.191L395.757 135.111C395.824 134.877 395.954 134.701 396.148 134.582C396.343 134.463 396.575 134.403 396.844 134.403C396.966 134.403 397.089 134.418 397.211 134.446C397.334 134.475 397.445 134.523 397.547 134.59C397.649 134.657 397.731 134.747 397.792 134.86C397.854 134.974 397.885 135.115 397.885 135.284V137H397.305V136.648H397.285C397.23 136.756 397.141 136.85 397.018 136.932C396.895 137.012 396.733 137.052 396.532 137.052ZM396.689 136.608C396.871 136.608 397.016 136.556 397.123 136.451C397.229 136.346 397.283 136.223 397.283 136.08V135.778C397.257 135.799 397.21 135.818 397.141 135.835C397.073 135.851 397.001 135.864 396.924 135.875C396.847 135.886 396.782 135.896 396.729 135.904C396.594 135.922 396.482 135.96 396.392 136.015C396.302 136.07 396.256 136.155 396.256 136.271C396.256 136.382 396.297 136.466 396.378 136.523C396.46 136.579 396.563 136.608 396.689 136.608Z" fill="#C1D3FA"/>
<path d="M398.493 137V134.436H399.07V134.872H399.1C399.154 134.726 399.242 134.612 399.366 134.528C399.489 134.445 399.637 134.403 399.808 134.403C399.981 134.403 400.127 134.445 400.247 134.528C400.367 134.612 400.452 134.726 400.501 134.872H400.527C400.584 134.73 400.68 134.616 400.815 134.532C400.95 134.446 401.111 134.403 401.297 134.403C401.533 134.403 401.725 134.478 401.874 134.627C402.024 134.776 402.098 134.993 402.098 135.279V137H401.492V135.373C401.492 135.214 401.45 135.097 401.365 135.024C401.281 134.949 401.177 134.912 401.055 134.912C400.909 134.912 400.795 134.958 400.713 135.049C400.632 135.139 400.591 135.256 400.591 135.401V137H399.998V135.348C399.998 135.215 399.958 135.11 399.878 135.031C399.799 134.952 399.696 134.912 399.568 134.912C399.438 134.912 399.326 134.961 399.234 135.059C399.143 135.156 399.097 135.283 399.097 135.441V137H398.493Z" fill="#C1D3FA"/>
<path d="M403.846 137.05C403.589 137.05 403.367 136.996 403.18 136.888C402.994 136.78 402.851 136.628 402.751 136.431C402.651 136.234 402.601 136.001 402.601 135.733C402.601 135.47 402.651 135.238 402.751 135.039C402.851 134.839 402.992 134.683 403.173 134.572C403.356 134.459 403.569 134.403 403.814 134.403C404.025 134.403 404.219 134.449 404.397 134.54C404.575 134.63 404.717 134.771 404.824 134.962C404.932 135.152 404.986 135.398 404.986 135.698V135.883H403.2C403.203 136.103 403.264 136.273 403.382 136.396C403.501 136.518 403.658 136.579 403.854 136.579C403.984 136.579 404.097 136.552 404.191 136.496C404.287 136.439 404.356 136.357 404.397 136.249L404.961 136.312C404.907 136.535 404.783 136.714 404.587 136.848C404.392 136.983 404.145 137.05 403.846 137.05ZM403.202 135.476H404.407C404.406 135.302 404.351 135.157 404.243 135.044C404.136 134.93 403.996 134.874 403.823 134.874C403.642 134.874 403.496 134.933 403.384 135.052C403.271 135.171 403.211 135.313 403.202 135.476Z" fill="#C1D3FA"/>
<path opacity="0.25" d="M400.922 172.929H383.196" stroke="#C1D3FA" stroke-width="3.28479" stroke-linecap="round" stroke-linejoin="round"/>
<path opacity="0.25" d="M456.109 208.348H438.383" stroke="#C1D3FA" stroke-width="3.28479" stroke-linecap="round" stroke-linejoin="round"/>
<path opacity="0.25" d="M343.362 192.802H459.499" stroke="#C1D3FA" stroke-width="0.826155" stroke-miterlimit="10"/>
<path opacity="0.25" d="M409.983 222.346H398.846" stroke="#C1D3FA" stroke-width="3.28479" stroke-linecap="round" stroke-linejoin="round"/>
<path d="M174.971 131.945H160.748" stroke="#C1D3FA" stroke-width="2.63709" stroke-linecap="round" stroke-linejoin="round"/>
<path d="M265 239.775H212.943C211.538 239.777 210.145 239.502 208.846 238.965C207.547 238.429 206.366 237.642 205.372 236.648C204.377 235.655 203.588 234.476 203.049 233.177C202.511 231.879 202.234 230.487 202.234 229.081V215.342C202.234 212.502 201.105 209.778 199.097 207.77C197.089 205.761 194.365 204.633 191.524 204.633H149.55" stroke="url(#paint0_linear)" stroke-width="1.5174" stroke-miterlimit="10"/>
<circle cx="242.243" cy="239.601" r="8.75688" fill="#D8E4FC" fill-opacity="0.5"/>
<g filter="url(#filter0_d)">
<circle cx="242.243" cy="239.601" r="4.80216" fill="#6391F3"/>
</g>
<g filter="url(#filter1_d)">
<path d="M161.509 186.872H36.3709C32.6649 186.872 29.6605 189.876 29.6605 193.582V221.507C29.6605 225.213 32.6649 228.217 36.3709 228.217H161.509C165.215 228.217 168.219 225.213 168.219 221.507V193.582C168.219 189.876 165.215 186.872 161.509 186.872Z" fill="white"/>
</g>
<path d="M65.1835 201.279V182.26C65.1826 181.426 64.9657 180.607 64.5543 179.885C64.143 179.163 63.5518 178.564 62.84 178.147L46.4353 168.637C45.7227 168.22 44.9145 168 44.0917 168C43.269 168 42.4607 168.22 41.7482 168.637L25.3435 178.147C24.6317 178.564 24.0405 179.163 23.6291 179.885C23.2178 180.607 23.0008 181.426 23 182.26V201.279C23.0008 202.113 23.2178 202.932 23.6291 203.654C24.0405 204.376 24.6317 204.975 25.3435 205.392L41.7482 214.902C42.4607 215.319 43.269 215.539 44.0917 215.539C44.9145 215.539 45.7227 215.319 46.4353 214.902L62.84 205.392C63.5518 204.975 64.143 204.376 64.5543 203.654C64.9657 202.932 65.1826 202.113 65.1835 201.279Z" fill="white"/>
<path d="M23.6328 179.787L44.0917 191.793L64.5507 179.787" fill="white"/>
<path d="M23.6328 179.787L44.0917 191.793L64.5507 179.787M44.0917 215.734V191.769M65.1835 201.279V182.26C65.1826 181.426 64.9657 180.607 64.5543 179.885C64.143 179.163 63.5518 178.564 62.84 178.147L46.4353 168.637C45.7227 168.22 44.9145 168 44.0917 168C43.269 168 42.4607 168.22 41.7482 168.637L25.3435 178.147C24.6317 178.564 24.0405 179.163 23.6291 179.885C23.2178 180.607 23.0008 181.426 23 182.26V201.279C23.0008 202.113 23.2178 202.932 23.6291 203.654C24.0405 204.376 24.6317 204.975 25.3435 205.392L41.7482 214.902C42.4607 215.319 43.269 215.539 44.0917 215.539C44.9145 215.539 45.7227 215.319 46.4353 214.902L62.84 205.392C63.5518 204.975 64.143 204.376 64.5543 203.654C64.9657 202.932 65.1826 202.113 65.1835 201.279Z" stroke="#6391F3" stroke-width="2.22018" stroke-linecap="round" stroke-linejoin="round"/>
<path d="M138.904 207.358L118.468 207.355" stroke="#D8E4FC" stroke-width="3.81919" stroke-linecap="round" stroke-linejoin="round"/>
<path d="M73.9431 207.925L83.8605 202.032L84.0058 213.567L73.9431 207.925Z" stroke="#D8E4FC" stroke-width="2.22018"/>
<circle cx="100.706" cy="207.963" r="4.44037" fill="#D8E4FC"/>
<path d="M350 272L350 303.057C349.998 304.462 350.273 305.855 350.809 307.154C351.346 308.453 352.133 309.634 353.126 310.628C354.119 311.623 355.299 312.412 356.597 312.951C357.896 313.489 359.288 313.766 360.693 313.766L391 312.951" stroke="url(#paint1_linear)" stroke-width="1.5174" stroke-miterlimit="10"/>
<circle r="8.755" transform="matrix(-1 0 0 1 350.755 269.755)" fill="#D8E4FC" fill-opacity="0.5"/>
<g filter="url(#filter2_d)">
<circle r="4.80113" transform="matrix(-1 0 0 1 350.755 269.755)" fill="#6391F3"/>
</g>
<g filter="url(#filter3_d)">
<path d="M391.71 288.872H516.848C520.554 288.872 523.559 291.876 523.559 295.582V323.507C523.559 327.213 520.554 330.218 516.848 330.218H391.71C388.004 330.218 385 327.213 385 323.507V295.582C385 291.876 388.004 288.872 391.71 288.872Z" fill="white"/>
</g>
<path d="M488.036 303.28V284.26C488.036 283.426 488.253 282.607 488.665 281.886C489.076 281.164 489.667 280.564 490.379 280.147L506.784 270.638C507.496 270.22 508.305 270 509.127 270C509.95 270 510.758 270.22 511.471 270.638L527.876 280.147C528.587 280.564 529.179 281.164 529.59 281.886C530.001 282.607 530.218 283.426 530.219 284.26V303.28C530.218 304.113 530.001 304.932 529.59 305.654C529.179 306.376 528.587 306.976 527.876 307.393L511.471 316.902C510.758 317.32 509.95 317.539 509.127 317.539C508.305 317.539 507.496 317.32 506.784 316.902L490.379 307.393C489.667 306.976 489.076 306.376 488.665 305.654C488.253 304.932 488.036 304.113 488.036 303.28Z" fill="white"/>
<path d="M529.586 281.788L509.127 293.794L488.668 281.788" fill="white"/>
<path d="M529.586 281.788L509.127 293.794L488.668 281.788M509.127 317.734V293.77M488.036 303.28V284.26C488.036 283.426 488.253 282.607 488.665 281.886C489.076 281.164 489.667 280.564 490.379 280.147L506.784 270.638C507.496 270.22 508.305 270 509.127 270C509.95 270 510.758 270.22 511.471 270.638L527.876 280.147C528.587 280.564 529.179 281.164 529.59 281.886C530.001 282.607 530.218 283.426 530.219 284.26V303.28C530.218 304.113 530.001 304.932 529.59 305.654C529.179 306.376 528.587 306.976 527.876 307.393L511.471 316.902C510.758 317.32 509.95 317.539 509.127 317.539C508.305 317.539 507.496 317.32 506.784 316.902L490.379 307.393C489.667 306.976 489.076 306.376 488.665 305.654C488.253 304.932 488.036 304.113 488.036 303.28Z" stroke="#6391F3" stroke-width="2.22018" stroke-linecap="round" stroke-linejoin="round"/>
<path d="M414.315 309.358L434.751 309.356" stroke="#D8E4FC" stroke-width="3.81919" stroke-linecap="round" stroke-linejoin="round"/>
<path d="M479.276 309.926L469.359 304.032L469.213 315.568L479.276 309.926Z" stroke="#D8E4FC" stroke-width="2.22018"/>
<circle r="4.44037" transform="matrix(-1 0 0 1 452.513 309.963)" fill="#D8E4FC"/>
<defs>
<filter id="filter0_d" x="226.34" y="223.698" width="31.8062" height="31.8062" filterUnits="userSpaceOnUse" color-interpolation-filters="sRGB">
<feFlood flood-opacity="0" result="BackgroundImageFix"/>
<feColorMatrix in="SourceAlpha" type="matrix" values="0 0 0 0 0 0 0 0 0 0 0 0 0 0 0 0 0 0 127 0"/>
<feOffset/>
<feGaussianBlur stdDeviation="5.55046"/>
<feColorMatrix type="matrix" values="0 0 0 0 0.235294 0 0 0 0 0.462745 0 0 0 0 0.941176 0 0 0 0.5 0"/>
<feBlend mode="normal" in2="BackgroundImageFix" result="effect1_dropShadow"/>
<feBlend mode="normal" in="SourceGraphic" in2="effect1_dropShadow" result="shape"/>
</filter>
<filter id="filter1_d" x="19.0358" y="176.247" width="159.808" height="62.5953" filterUnits="userSpaceOnUse" color-interpolation-filters="sRGB">
<feFlood flood-opacity="0" result="BackgroundImageFix"/>
<feColorMatrix in="SourceAlpha" type="matrix" values="0 0 0 0 0 0 0 0 0 0 0 0 0 0 0 0 0 0 127 0"/>
<feOffset/>
<feGaussianBlur stdDeviation="5.3124"/>
<feColorMatrix type="matrix" values="0 0 0 0 0 0 0 0 0 0 0 0 0 0 0 0 0 0 0.12 0"/>
<feBlend mode="normal" in2="BackgroundImageFix" result="effect1_dropShadow"/>
<feBlend mode="normal" in="SourceGraphic" in2="effect1_dropShadow" result="shape"/>
</filter>
<filter id="filter2_d" x="334.853" y="253.853" width="31.8041" height="31.8041" filterUnits="userSpaceOnUse" color-interpolation-filters="sRGB">
<feFlood flood-opacity="0" result="BackgroundImageFix"/>
<feColorMatrix in="SourceAlpha" type="matrix" values="0 0 0 0 0 0 0 0 0 0 0 0 0 0 0 0 0 0 127 0"/>
<feOffset/>
<feGaussianBlur stdDeviation="5.55046"/>
<feColorMatrix type="matrix" values="0 0 0 0 0.235294 0 0 0 0 0.462745 0 0 0 0 0.941176 0 0 0 0.5 0"/>
<feBlend mode="normal" in2="BackgroundImageFix" result="effect1_dropShadow"/>
<feBlend mode="normal" in="SourceGraphic" in2="effect1_dropShadow" result="shape"/>
</filter>
<filter id="filter3_d" x="374.375" y="278.247" width="159.808" height="62.5953" filterUnits="userSpaceOnUse" color-interpolation-filters="sRGB">
<feFlood flood-opacity="0" result="BackgroundImageFix"/>
<feColorMatrix in="SourceAlpha" type="matrix" values="0 0 0 0 0 0 0 0 0 0 0 0 0 0 0 0 0 0 127 0"/>
<feOffset/>
<feGaussianBlur stdDeviation="5.3124"/>
<feColorMatrix type="matrix" values="0 0 0 0 0 0 0 0 0 0 0 0 0 0 0 0 0 0 0.12 0"/>
<feBlend mode="normal" in2="BackgroundImageFix" result="effect1_dropShadow"/>
<feBlend mode="normal" in="SourceGraphic" in2="effect1_dropShadow" result="shape"/>
</filter>
<linearGradient id="paint0_linear" x1="249.459" y1="230.165" x2="149.55" y2="204.633" gradientUnits="userSpaceOnUse">
<stop stop-color="#3C76F0" stop-opacity="0"/>
<stop offset="1" stop-color="#3C76F0"/>
</linearGradient>
<linearGradient id="paint1_linear" x1="359.61" y1="266.541" x2="353" y2="318" gradientUnits="userSpaceOnUse">
<stop stop-color="#3C76F0"/>
<stop offset="1" stop-color="#3C76F0" stop-opacity="0"/>
</linearGradient>
</defs>
</svg>
