<svg width="590" height="506" viewBox="0 0 590 506" fill="none" xmlns="http://www.w3.org/2000/svg">
  <defs>
    <filter id="filter0_d" x="75.877" y=".878" width="162" height="90" filterUnits="userSpaceOnUse" color-interpolation-filters="sRGB">
      <feFlood flood-opacity="0" result="BackgroundImageFix"/>
      <feColorMatrix in="SourceAlpha" values="0 0 0 0 0 0 0 0 0 0 0 0 0 0 0 0 0 0 127 0"/>
      <feOffset dx="3.708" dy="3.708"/>
      <feGaussianBlur stdDeviation="7.415"/>
      <feColorMatrix values="0 0 0 0 0 0 0 0 0 0 0 0 0 0 0 0 0 0 0.1 0"/>
      <feBlend in2="BackgroundImageFix" result="effect1_dropShadow"/>
      <feBlend in="SourceGraphic" in2="effect1_dropShadow" result="shape"/>
    </filter>
    <filter id="filter1_d" x="4.27" y="10.607" width="166" height="86" filterUnits="userSpaceOnUse" color-interpolation-filters="sRGB">
      <feFlood flood-opacity="0" result="BackgroundImageFix"/>
      <feColorMatrix in="SourceAlpha" values="0 0 0 0 0 0 0 0 0 0 0 0 0 0 0 0 0 0 127 0"/>
      <feOffset/>
      <feGaussianBlur stdDeviation="10.413"/>
      <feColorMatrix values="0 0 0 0 0 0 0 0 0 0 0 0 0 0 0 0 0 0 0.12 0"/>
      <feBlend in2="BackgroundImageFix" result="effect1_dropShadow"/>
      <feBlend in="SourceGraphic" in2="effect1_dropShadow" result="shape"/>
    </filter>
  </defs>
  <g class="floating-brand meundies" filter="url(#filter0_d)">
    <rect x="208" y="54" width="162" height="90" rx="10" fill="#7023F0"/>
    <path fill-rule="evenodd" clip-rule="evenodd" d="M304.963 105.373C303.36 105.373 302.153 104.118 302.153 102.455C302.153 100.792 303.36 99.5396 304.963 99.5396C306.538 99.5396 307.724 100.793 307.724 102.455C307.724 104.119 306.537 105.372 304.963 105.372V105.373ZM307.56 97.6649C306.501 96.5683 305.107 96.2202 303.969 96.2202C300.449 96.2706 298.55 99.4455 298.55 102.48C298.55 106.546 301.304 108.74 303.895 108.74C306.045 108.74 307.131 107.657 307.588 107.145V108.488H311.204V90.6748H307.562V97.6649H307.56Z" fill="white"/>
    <mask id="mask0" mask-type="alpha" maskUnits="userSpaceOnUse" x="231" y="88" width="39" height="22">
    <path d="M231 88H269.574V109.065H231V88Z" fill="#242830"/>
    </mask>
    <g mask="url(#mask0)">
    <path fill-rule="evenodd" clip-rule="evenodd" d="M262.442 98.3795C263.517 98.9289 262.809 101.58 259.827 102.894C259.678 100.167 261.368 97.8268 262.442 98.3784V98.3795ZM268.806 102.675C268.03 102.331 267.187 102.642 266.816 103.529C266.018 105.463 263.235 106.744 261.467 105.428C263.13 104.45 264.756 103.145 265.665 101.094C266.573 99.0427 265.8 94.6004 261.682 95.2779C259.462 95.6937 255.925 98.5349 256.851 103.713C253.901 104.352 254.392 100.093 255.698 94.1889C256.065 92.509 256.238 91.2197 255.012 90.2348C253.935 89.3702 252.724 90.0049 251.816 90.7601C249.85 92.5002 247.38 95.685 246.095 97.401C246.652 94.1156 247.524 89.9414 246.862 88.8667C246.204 87.7909 244.963 87.7635 243.843 88.5296C241.313 90.5587 236.843 96.7794 236.843 96.7794C236.843 96.7794 237.053 96.0571 237.13 95.2691C237.205 94.4778 236.828 93.68 235.921 93.4742C235.096 93.2849 234.08 93.7216 233.894 94.6256C232.879 99.5264 232.054 102.081 231.038 106.982C230.864 107.824 231.283 108.805 232.188 109.012C232.611 109.108 233.084 109.088 233.458 108.845C233.805 108.622 234.026 108.279 234.161 107.986C235.981 103.298 240.508 96.8746 243.537 93.46C243.611 93.3834 243.773 93.4272 243.745 93.5727C243.367 95.5909 242.398 100.579 242.355 101.275C242.309 101.971 242.397 102.851 243.277 103.169C244.157 103.486 244.874 103.327 245.869 102.468C246.865 101.61 250.456 97.1657 251.652 95.732C251.754 95.6193 251.934 95.6095 251.861 95.8743C249.446 103.864 252.357 108.356 258.169 106.768C262.177 111.301 268.008 108.295 269.413 104.718C269.737 103.912 269.583 103.022 268.806 102.678" fill="white"/>
    </g>
    <mask id="mask1" mask-type="alpha" maskUnits="userSpaceOnUse" x="231" y="88" width="112" height="22">
    <path d="M231 109.065H342.672V88H231V109.065Z" fill="#242830"/>
    </mask>
    <g mask="url(#mask1)">
    <path fill-rule="evenodd" clip-rule="evenodd" d="M313.427 108.514H317.258V96.9217H313.427V108.514ZM293.03 96.287C291.225 96.287 290.412 96.8451 289.488 97.9067V96.5409H285.823V108.558H289.513V101.915C289.513 100.341 290.253 99.4017 291.493 99.4017C292.757 99.4017 293.424 100.209 293.424 101.738V108.553H297.192V100.805C297.192 98.0173 295.596 96.2848 293.031 96.2848L293.03 96.287ZM280.007 102.451C280.007 104.114 279.037 105.282 277.43 105.282C276.004 105.282 274.903 104.272 274.903 102.45V90.6354H271.019V102.324C271.019 106.712 273.752 108.766 277.43 108.766C282.283 108.766 283.864 105.487 283.864 102.324V90.6354H280.007V102.451ZM315.346 90.6441C314.09 90.6441 313.071 91.6641 313.071 92.9227C313.071 94.1813 314.09 95.2013 315.346 95.2013C316.602 95.2013 317.623 94.1802 317.623 92.9227C317.623 91.6641 316.602 90.6441 315.346 90.6441ZM322.456 101.048C323.012 99.6075 324.225 99.1106 325.312 99.1106C326.863 99.1106 327.746 99.9489 328.089 101.048H322.456ZM325.236 96.1819C321.822 96.1819 318.904 98.7691 318.904 102.488C318.904 106.607 321.943 108.868 325.212 108.868C328.823 108.868 330.492 106.754 331.233 105.049H327.316C326.943 105.48 326.312 105.887 325.262 105.887C323.87 105.887 322.629 105.03 322.353 103.574H331.569V102.549C331.569 98.8337 328.845 96.1819 325.237 96.1819H325.236ZM336.253 99.903C336.253 99.4597 336.575 98.9858 337.496 98.9858C338.594 98.9858 338.78 99.6096 338.823 99.9194H342.508C342.42 98.7899 341.965 97.8914 341.149 97.249C340.252 96.5409 339.022 96.183 337.496 96.183C335.461 96.183 333.774 96.8364 332.924 98.4791C332.704 98.9461 332.592 99.4594 332.597 99.9785C332.597 100.635 332.717 101.178 332.953 101.589C333.428 102.381 334.035 102.886 335.085 103.26C337.064 103.932 338.99 103.749 338.99 104.745C338.99 105.489 338.386 105.737 337.647 105.737C337.227 105.737 336.53 105.639 336.311 105.05H332.501C332.777 107.365 334.15 108.047 335.273 108.454C335.922 108.662 336.722 108.768 337.646 108.768C338.487 108.768 339.227 108.656 339.849 108.432C341.123 107.969 342.673 106.908 342.673 104.695C342.673 104.05 342.566 103.507 342.36 103.082C342.051 102.399 341.37 101.804 340.531 101.471C339.529 101.049 337.473 100.819 336.588 100.423C336.491 100.377 336.408 100.304 336.349 100.213C336.29 100.121 336.257 100.014 336.253 99.904V99.903Z" fill="white"/>
    </g>
  </g>
<g class="floating-brand aceandtate" filter="url(#filter0_d)">
  <rect x="402" y="153" width="162" height="90" rx="10" fill="#003399"/>
  <path d="M436.25 201.1C436.25 203.758 434.783 204.583 433.042 204.583C431.85 204.583 431.117 203.758 431.117 202.842C431.117 201.742 431.85 201.192 432.858 201.008L436.25 200.55V201.1ZM439.367 197.8C439.367 195.05 437.808 192.758 433.775 192.758C430.567 192.758 428.55 194.867 428.275 197.158L431.117 197.8C431.208 196.517 432.125 195.417 433.775 195.417C435.517 195.417 436.25 196.333 436.25 197.433C436.25 197.892 436.067 198.258 435.242 198.442L431.85 198.992C429.742 199.267 428 200.642 428 203.117C428 205.225 429.65 207.242 432.4 207.242C434.508 207.242 435.792 206.142 436.433 205.133C436.433 206.233 436.525 206.783 436.525 206.875H439.458C439.458 206.692 439.275 205.958 439.275 204.675L439.367 197.8ZM479.517 195.783C479.058 195.233 478.875 194.683 478.875 194.225C478.875 193.675 479.058 193.217 479.425 192.942C479.7 192.667 480.158 192.483 480.617 192.483C481.9 192.483 482.45 193.492 482.633 194.317V194.408L484.833 192.575V192.483C484.1 190.65 482.633 189.642 480.617 189.642C478.508 189.642 476.308 191.108 476.125 193.767V194.133C476.125 195.508 476.95 196.792 477.408 197.433C475.758 198.808 474.658 200.092 474.658 202.292C474.658 203.575 475.208 204.858 476.033 205.775C477.042 206.783 478.417 207.333 480.067 207.333C482.083 207.333 483.825 206.508 484.925 205.042L486.758 206.783H490.608L479.975 196.333C479.792 196.15 479.7 195.967 479.517 195.783ZM479.242 199.358L482.908 202.933C482.45 203.758 481.533 204.767 479.975 204.767C479.608 204.767 479.242 204.675 478.967 204.583C478.142 204.125 477.5 203.3 477.5 202.292C477.5 201.192 477.958 200.275 479.058 199.45L479.242 199.358ZM461.458 192.758C458.158 192.758 455.133 195.6 455.133 199.908C455.133 204.492 458.25 207.242 461.825 207.242C464.942 207.242 467.05 205.317 467.692 202.933L465.033 202.108C464.575 203.483 463.658 204.492 461.733 204.492C459.808 204.492 458.25 203.025 458.158 200.917H467.692C467.692 200.825 467.783 200.458 467.783 199.908C467.875 195.508 465.492 192.758 461.458 192.758ZM458.25 198.442C458.342 196.975 459.533 195.417 461.458 195.417C463.567 195.417 464.667 196.883 464.667 198.442H458.25ZM447.983 204.217C446.058 204.217 444.317 202.658 444.317 199.908C444.317 197.158 445.967 195.692 447.892 195.692C449.908 195.692 450.733 197.067 451.1 198.258L453.85 197.158C453.3 194.958 451.375 192.667 447.892 192.667C444.133 192.667 441.2 195.692 441.2 199.908C441.2 204.033 444.133 207.15 447.983 207.15C451.375 207.15 453.392 204.858 454.033 202.75L451.283 201.742C451.008 202.75 450.092 204.217 447.983 204.217ZM538 199.817C538 195.508 535.617 192.758 531.583 192.758C528.283 192.758 525.258 195.6 525.258 199.908C525.258 204.492 528.375 207.242 531.95 207.242C535.067 207.242 537.175 205.317 537.817 202.933L535.158 202.108C534.7 203.483 533.783 204.492 531.858 204.492C529.933 204.492 528.375 203.025 528.283 200.917H537.817C537.908 200.825 538 200.367 538 199.817ZM528.467 198.442C528.558 196.975 529.658 195.417 531.675 195.417C533.783 195.417 534.883 196.883 534.883 198.442H528.467ZM521.317 202.383V196.058H524.067V193.125H521.317V189H518.475V191.017C518.475 192.208 517.833 193.125 516.458 193.125H515.817V195.967H518.2V202.842C518.2 205.408 519.667 206.875 522.142 206.875C523.242 206.875 523.883 206.692 524.067 206.6V203.942C523.7 204.033 523.333 204.033 522.967 204.033C521.775 204.033 521.317 203.575 521.317 202.383ZM514.442 197.8C514.442 195.05 512.883 192.667 508.85 192.667C505.642 192.667 503.625 194.775 503.35 197.067L506.192 197.708C506.375 196.517 507.292 195.417 508.85 195.417C510.592 195.417 511.325 196.333 511.325 197.525C511.325 197.983 511.142 198.35 510.317 198.533L506.925 199.083C504.725 199.45 502.983 200.733 502.983 203.208C502.983 205.408 504.633 207.333 507.383 207.333C509.492 207.333 510.775 206.233 511.417 205.225C511.417 206.325 511.508 206.875 511.508 206.967H514.442C514.442 206.783 514.258 206.05 514.258 204.767C514.442 204.583 514.442 197.8 514.442 197.8ZM511.325 201.1C511.325 203.758 509.858 204.583 508.117 204.583C506.925 204.583 506.192 203.758 506.192 202.842C506.192 201.742 506.925 201.192 507.933 201.008L511.325 200.458V201.1ZM498.492 202.383V196.058H501.242V193.125H498.492V189H495.65V191.017C495.65 192.208 495.008 193.125 493.633 193.125H492.992V195.967H495.375V202.842C495.375 205.408 496.842 206.875 499.317 206.875C500.417 206.875 501.058 206.692 501.242 206.6V203.942C501.15 203.942 500.6 204.033 500.142 204.033C499.042 204.033 498.492 203.575 498.492 202.383Z" fill="white"/>
</g>

<g class="floating-brand floyd" filter="url(#filter0_d)">
  <rect x="108" y="207" width="162" height="90" rx="10" fill="#EF4023"/>
  <path d="M156.282 242.263H143.132C143.132 242.263 143 242.263 143 242.394V262.738C143 262.738 143 262.869 143.132 262.869H147.077C147.077 262.869 147.208 262.869 147.208 262.738V254.075H154.704C154.704 254.075 154.836 254.075 154.836 253.944V250.4C154.836 250.4 154.836 250.269 154.704 250.269H147.077V245.806H156.414C156.414 245.806 156.545 245.806 156.545 245.675L156.282 242.263C156.414 242.263 156.414 242.263 156.282 242.263ZM174.825 259.194H166.014V242.263C166.014 242.263 166.014 242.131 165.882 242.131H162.068C162.068 242.131 161.937 242.131 161.937 242.263V262.606C161.937 262.606 161.937 262.738 162.068 262.738H174.825C174.825 262.738 174.956 262.737 174.956 262.606L174.825 259.194C174.825 259.194 174.956 259.194 174.825 259.194ZM188.238 242C186.397 242 184.819 242.394 183.241 243.05C180.216 244.625 178.244 248.169 178.244 252.5C178.244 254.731 178.77 256.7 179.69 258.406C181.532 261.425 184.425 263 188.238 263C190.079 263 191.658 262.606 193.236 261.95C196.392 260.375 198.233 256.831 198.233 252.5C198.233 250.269 197.707 248.3 196.786 246.594C195.077 243.575 192.184 242 188.238 242ZM188.238 259.325C186.529 259.325 185.214 258.8 184.03 257.619C182.978 256.438 182.321 254.731 182.321 252.5C182.321 250.269 182.847 248.562 184.03 247.381C185.214 246.2 186.529 245.675 188.238 245.675C189.948 245.675 191.395 246.2 192.447 247.381C193.499 248.562 194.156 250.269 194.156 252.5C194.156 254.731 193.63 256.438 192.447 257.619C191.395 258.8 189.948 259.325 188.238 259.325ZM217.564 242.263H213.356H213.225L209.411 250.006L205.597 242.263H201.258H201.126V242.394L207.438 254.075V262.738C207.438 262.738 207.438 262.869 207.57 262.869H211.515C211.515 262.869 211.647 262.869 211.647 262.738V254.075L217.564 242.263ZM229.137 242.263H222.562C222.562 242.263 222.43 242.263 222.43 242.394V262.738C222.43 262.738 222.43 262.869 222.562 262.869H229.137C233.608 262.869 239 260.244 239 252.631C239 244.888 233.74 242.263 229.137 242.263ZM226.638 245.806H227.953C229.795 245.806 231.373 246.2 232.688 247.119C234.134 248.037 234.923 250.006 234.923 252.5C234.923 254.994 234.134 256.831 232.688 257.881C231.373 258.8 229.926 259.194 227.953 259.194H226.638V245.806Z" fill="white"/>
</g>
<g class="floating-brand away">
  <rect x="25" y="358" width="166" height="86" rx="10" fill="#111111"/>
  <path fill-rule="evenodd" clip-rule="evenodd" d="M162 419H55V382H162V419ZM82.0369 407.827H85.5565L78.8417 393.173H76.1325L69.4165 407.827H72.935L73.9174 405.526H81.0545L82.0369 407.827ZM75.1934 402.537L77.4848 397.169L79.7773 402.537H75.1934ZM140.131 398.65L143.738 393.174H147.583L141.728 402.061V407.827H138.533V402.061L132.677 393.174H136.524L140.131 398.65ZM128.432 407.827H131.951L125.236 393.173H122.526L115.81 407.827H119.33L120.312 405.526H127.449L128.432 407.827ZM121.588 402.537L123.88 397.169L126.171 402.537H121.588ZM106.621 403.83L111.172 393.172H114.691L107.975 407.826H105.266L100.683 397.824L96.0994 407.826H93.3902L86.6743 393.172H90.195L94.7448 403.83L99.2946 393.172H102.04L106.621 403.83Z" fill="white"/>
</g>
<g class="floating-brand casper">
  <rect x="320" y="309" width="166" height="86" rx="10" fill="#1E306E"/>
  <path d="M383.124 344.368C378.045 344.368 374.181 348.168 374.181 353.579C374.181 358.99 378.045 362.789 383.124 362.789C385.553 362.789 387.431 361.638 388.203 360.717V362.559H392.178V344.599H388.203V346.441C387.431 345.52 385.443 344.368 383.124 344.368ZM383.235 358.99C380.253 358.99 378.045 356.572 378.045 353.579C378.045 350.586 380.364 348.168 383.235 348.168C386.106 348.168 388.314 350.586 388.314 353.579C388.314 356.572 386.106 358.99 383.235 358.99ZM417.353 344.368C415.035 344.368 413.268 345.289 412.164 346.441V344.599H408.299V372L412.164 371.539V360.602C413.268 361.868 415.145 362.674 417.353 362.674C422.653 362.674 426.187 359.105 426.187 353.464C426.187 347.937 422.653 344.368 417.353 344.368ZM417.243 358.99C414.151 358.99 412.164 356.687 412.164 353.579C412.164 350.47 414.151 348.168 417.243 348.168C420.335 348.168 422.433 350.47 422.433 353.579C422.322 356.687 420.335 358.99 417.243 358.99ZM455.999 344.368C453.57 344.368 452.245 345.289 451.472 346.441V344.599H447.608V362.559H451.472V352.658C451.472 350.01 453.239 348.168 455.668 348.168H455.999V344.368ZM436.566 344.368C431.487 344.368 427.512 348.513 427.512 353.579C427.512 358.645 431.487 362.789 436.566 362.789C440.762 362.789 444.185 360.372 445.289 357.148H440.651C440.099 358.299 438.664 359.105 436.566 359.105C434.026 359.105 432.039 357.263 431.597 354.961H445.399C445.51 354.5 445.51 354.039 445.51 353.579C445.51 348.513 441.535 344.368 436.566 344.368ZM431.818 351.391C432.37 349.549 434.247 348.053 436.566 348.053C438.774 348.053 440.762 349.549 441.314 351.391H431.818ZM400.46 347.937C399.687 347.937 398.803 348.283 398.803 349.319C398.803 350.47 399.908 350.816 402.006 351.622C404.876 352.773 406.312 354.155 406.312 356.918C406.312 359.796 403.993 362.789 400.018 362.789C396.043 362.789 393.945 359.681 393.835 357.148H397.589C397.81 358.299 398.693 359.22 400.018 359.22C401.453 359.22 402.337 358.184 402.337 357.033C402.337 356.227 402.006 355.306 399.576 354.615C396.926 353.924 395.049 352.428 395.049 349.434C395.049 346.671 397.368 344.484 400.349 344.484C402.999 344.484 404.656 346.441 405.428 347.707L402.226 349.204C401.785 348.283 401.122 347.937 400.46 347.937Z" fill="white"/>
  <path d="M362.477 337C355.41 337 350 342.757 350 349.895C350 357.033 355.41 362.789 362.477 362.789C367.004 362.789 371.2 360.257 373.077 356.688L369.433 354.615C367.998 357.263 365.569 358.76 362.477 358.76C360.269 358.76 358.06 357.839 356.625 356.227C355.079 354.5 354.196 352.312 354.196 350.01C354.196 347.707 355.079 345.52 356.625 343.793C358.06 342.181 360.158 341.26 362.477 341.26C364.906 341.26 366.342 342.066 367.335 342.872C368.44 343.678 369.544 344.484 371.421 344.484C374.844 344.484 376.39 341.605 376.721 340.109L372.856 339.303C372.856 339.418 372.525 340.569 371.421 340.569C370.869 340.569 370.537 340.339 369.765 339.763C368.329 338.382 366.452 337 362.477 337" fill="white"/>
</g>
</svg>
