<svg width="590" height="544" viewBox="0 0 590 544" fill="none" xmlns="http://www.w3.org/2000/svg">
<g filter="url(#filter0_b)" class="floating-brand meundies">
<path d="M348 35H206C200.477 35 196 39.4772 196 45V115C196 120.523 200.477 125 206 125H348C353.523 125 358 120.523 358 115V45C358 39.4772 353.523 35 348 35Z" fill="#7023F0"/>
<path fill-rule="evenodd" clip-rule="evenodd" d="M292.963 86.373C291.36 86.373 290.153 85.118 290.153 83.455C290.153 81.792 291.36 80.5396 292.963 80.5396C294.538 80.5396 295.724 81.793 295.724 83.455C295.724 85.119 294.537 86.372 292.963 86.372V86.373ZM295.56 78.6649C294.501 77.5683 293.107 77.2202 291.969 77.2202C288.449 77.2706 286.55 80.4455 286.55 83.48C286.55 87.546 289.304 89.74 291.895 89.74C294.045 89.74 295.131 88.657 295.588 88.145V89.488H299.204V71.6748H295.562V78.6649H295.56Z" fill="white"/>
<mask id="mask0" mask-type="alpha" maskUnits="userSpaceOnUse" x="219" y="69" width="39" height="22">
<path d="M219 69H257.574V90.065H219V69Z" fill="#242830"/>
</mask>
<g mask="url(#mask0)">
<path fill-rule="evenodd" clip-rule="evenodd" d="M250.442 79.3795C251.517 79.9289 250.809 82.58 247.827 83.894C247.678 81.167 249.368 78.8268 250.442 79.3784V79.3795ZM256.806 83.675C256.03 83.331 255.187 83.642 254.816 84.529C254.018 86.463 251.235 87.744 249.467 86.428C251.13 85.45 252.756 84.145 253.665 82.094C254.573 80.0427 253.8 75.6004 249.682 76.2779C247.462 76.6937 243.925 79.5349 244.851 84.713C241.901 85.352 242.392 81.093 243.698 75.1889C244.065 73.509 244.238 72.2197 243.012 71.2348C241.935 70.3702 240.724 71.0049 239.816 71.7601C237.85 73.5002 235.38 76.685 234.095 78.401C234.652 75.1156 235.524 70.9414 234.862 69.8667C234.204 68.7909 232.963 68.7635 231.843 69.5296C229.313 71.5587 224.843 77.7794 224.843 77.7794C224.843 77.7794 225.053 77.0571 225.13 76.2691C225.205 75.4778 224.828 74.68 223.921 74.4742C223.096 74.2849 222.08 74.7216 221.894 75.6256C220.879 80.5264 220.054 83.081 219.038 87.982C218.864 88.824 219.283 89.805 220.188 90.012C220.611 90.108 221.084 90.088 221.458 89.845C221.805 89.622 222.026 89.279 222.161 88.986C223.981 84.298 228.508 77.8746 231.537 74.46C231.611 74.3834 231.773 74.4272 231.745 74.5727C231.367 76.5909 230.398 81.579 230.355 82.275C230.309 82.971 230.397 83.851 231.277 84.169C232.157 84.486 232.874 84.327 233.869 83.468C234.865 82.61 238.456 78.1657 239.652 76.732C239.754 76.6193 239.934 76.6095 239.861 76.8743C237.446 84.864 240.357 89.356 246.169 87.768C250.177 92.301 256.008 89.295 257.413 85.718C257.737 84.912 257.583 84.022 256.806 83.678" fill="white"/>
</g>
<mask id="mask1" mask-type="alpha" maskUnits="userSpaceOnUse" x="219" y="69" width="112" height="22">
<path d="M219 90.065H330.672V69H219V90.065Z" fill="#242830"/>
</mask>
<g mask="url(#mask1)">
<path fill-rule="evenodd" clip-rule="evenodd" d="M301.427 89.514H305.258V77.9217H301.427V89.514ZM281.03 77.287C279.225 77.287 278.412 77.8451 277.488 78.9067V77.5409H273.823V89.558H277.513V82.915C277.513 81.341 278.253 80.4017 279.493 80.4017C280.757 80.4017 281.424 81.209 281.424 82.738V89.553H285.192V81.805C285.192 79.0173 283.596 77.2848 281.031 77.2848L281.03 77.287ZM268.007 83.451C268.007 85.114 267.037 86.282 265.43 86.282C264.004 86.282 262.903 85.272 262.903 83.45V71.6354H259.019V83.324C259.019 87.712 261.752 89.766 265.43 89.766C270.283 89.766 271.864 86.487 271.864 83.324V71.6354H268.007V83.451ZM303.346 71.6441C302.09 71.6441 301.071 72.6641 301.071 73.9227C301.071 75.1813 302.09 76.2013 303.346 76.2013C304.602 76.2013 305.623 75.1802 305.623 73.9227C305.623 72.6641 304.602 71.6441 303.346 71.6441ZM310.456 82.048C311.012 80.6075 312.225 80.1106 313.312 80.1106C314.863 80.1106 315.746 80.9489 316.089 82.048H310.456ZM313.236 77.1819C309.822 77.1819 306.904 79.7691 306.904 83.488C306.904 87.607 309.943 89.868 313.212 89.868C316.823 89.868 318.492 87.754 319.233 86.049H315.316C314.943 86.48 314.312 86.887 313.262 86.887C311.87 86.887 310.629 86.03 310.353 84.574H319.569V83.549C319.569 79.8337 316.845 77.1819 313.237 77.1819H313.236ZM324.253 80.903C324.253 80.4597 324.575 79.9858 325.496 79.9858C326.594 79.9858 326.78 80.6096 326.823 80.9194H330.508C330.42 79.7899 329.965 78.8914 329.149 78.249C328.252 77.5409 327.022 77.183 325.496 77.183C323.461 77.183 321.774 77.8364 320.924 79.4791C320.704 79.9461 320.592 80.4594 320.597 80.9785C320.597 81.635 320.717 82.178 320.953 82.589C321.428 83.381 322.035 83.886 323.085 84.26C325.064 84.932 326.99 84.749 326.99 85.745C326.99 86.489 326.386 86.737 325.647 86.737C325.227 86.737 324.53 86.639 324.311 86.05H320.501C320.777 88.365 322.15 89.047 323.273 89.454C323.922 89.662 324.722 89.768 325.646 89.768C326.487 89.768 327.227 89.656 327.849 89.432C329.123 88.969 330.673 87.908 330.673 85.695C330.673 85.05 330.566 84.507 330.36 84.082C330.051 83.399 329.37 82.804 328.531 82.471C327.529 82.049 325.473 81.819 324.588 81.423C324.491 81.377 324.408 81.304 324.349 81.213C324.29 81.121 324.257 81.014 324.253 80.904V80.903Z" fill="white"/>
</g>
</g>
<g filter="url(#filter1_b)" class="floating-brand aceandtate">
<path d="M536 126H394C388.477 126 384 130.477 384 136V206C384 211.523 388.477 216 394 216H536C541.523 216 546 211.523 546 206V136C546 130.477 541.523 126 536 126Z" fill="#003399"/>
<path d="M418.25 174.1C418.25 176.758 416.783 177.583 415.042 177.583C413.85 177.583 413.117 176.758 413.117 175.842C413.117 174.742 413.85 174.192 414.858 174.008L418.25 173.55V174.1ZM421.367 170.8C421.367 168.05 419.808 165.758 415.775 165.758C412.567 165.758 410.55 167.867 410.275 170.158L413.117 170.8C413.208 169.517 414.125 168.417 415.775 168.417C417.517 168.417 418.25 169.333 418.25 170.433C418.25 170.892 418.067 171.258 417.242 171.442L413.85 171.992C411.742 172.267 410 173.642 410 176.117C410 178.225 411.65 180.242 414.4 180.242C416.508 180.242 417.792 179.142 418.433 178.133C418.433 179.233 418.525 179.783 418.525 179.875H421.458C421.458 179.692 421.275 178.958 421.275 177.675L421.367 170.8ZM461.517 168.783C461.058 168.233 460.875 167.683 460.875 167.225C460.875 166.675 461.058 166.217 461.425 165.942C461.7 165.667 462.158 165.483 462.617 165.483C463.9 165.483 464.45 166.492 464.633 167.317V167.408L466.833 165.575V165.483C466.1 163.65 464.633 162.642 462.617 162.642C460.508 162.642 458.308 164.108 458.125 166.767V167.133C458.125 168.508 458.95 169.792 459.408 170.433C457.758 171.808 456.658 173.092 456.658 175.292C456.658 176.575 457.208 177.858 458.033 178.775C459.042 179.783 460.417 180.333 462.067 180.333C464.083 180.333 465.825 179.508 466.925 178.042L468.758 179.783H472.608L461.975 169.333C461.792 169.15 461.7 168.967 461.517 168.783ZM461.242 172.358L464.908 175.933C464.45 176.758 463.533 177.767 461.975 177.767C461.608 177.767 461.242 177.675 460.967 177.583C460.142 177.125 459.5 176.3 459.5 175.292C459.5 174.192 459.958 173.275 461.058 172.45L461.242 172.358ZM443.458 165.758C440.158 165.758 437.133 168.6 437.133 172.908C437.133 177.492 440.25 180.242 443.825 180.242C446.942 180.242 449.05 178.317 449.692 175.933L447.033 175.108C446.575 176.483 445.658 177.492 443.733 177.492C441.808 177.492 440.25 176.025 440.158 173.917H449.692C449.692 173.825 449.783 173.458 449.783 172.908C449.875 168.508 447.492 165.758 443.458 165.758ZM440.25 171.442C440.342 169.975 441.533 168.417 443.458 168.417C445.567 168.417 446.667 169.883 446.667 171.442H440.25ZM429.983 177.217C428.058 177.217 426.317 175.658 426.317 172.908C426.317 170.158 427.967 168.692 429.892 168.692C431.908 168.692 432.733 170.067 433.1 171.258L435.85 170.158C435.3 167.958 433.375 165.667 429.892 165.667C426.133 165.667 423.2 168.692 423.2 172.908C423.2 177.033 426.133 180.15 429.983 180.15C433.375 180.15 435.392 177.858 436.033 175.75L433.283 174.742C433.008 175.75 432.092 177.217 429.983 177.217ZM520 172.817C520 168.508 517.617 165.758 513.583 165.758C510.283 165.758 507.258 168.6 507.258 172.908C507.258 177.492 510.375 180.242 513.95 180.242C517.067 180.242 519.175 178.317 519.817 175.933L517.158 175.108C516.7 176.483 515.783 177.492 513.858 177.492C511.933 177.492 510.375 176.025 510.283 173.917H519.817C519.908 173.825 520 173.367 520 172.817ZM510.467 171.442C510.558 169.975 511.658 168.417 513.675 168.417C515.783 168.417 516.883 169.883 516.883 171.442H510.467ZM503.317 175.383V169.058H506.067V166.125H503.317V162H500.475V164.017C500.475 165.208 499.833 166.125 498.458 166.125H497.817V168.967H500.2V175.842C500.2 178.408 501.667 179.875 504.142 179.875C505.242 179.875 505.883 179.692 506.067 179.6V176.942C505.7 177.033 505.333 177.033 504.967 177.033C503.775 177.033 503.317 176.575 503.317 175.383ZM496.442 170.8C496.442 168.05 494.883 165.667 490.85 165.667C487.642 165.667 485.625 167.775 485.35 170.067L488.192 170.708C488.375 169.517 489.292 168.417 490.85 168.417C492.592 168.417 493.325 169.333 493.325 170.525C493.325 170.983 493.142 171.35 492.317 171.533L488.925 172.083C486.725 172.45 484.983 173.733 484.983 176.208C484.983 178.408 486.633 180.333 489.383 180.333C491.492 180.333 492.775 179.233 493.417 178.225C493.417 179.325 493.508 179.875 493.508 179.967H496.442C496.442 179.783 496.258 179.05 496.258 177.767C496.442 177.583 496.442 170.8 496.442 170.8ZM493.325 174.1C493.325 176.758 491.858 177.583 490.117 177.583C488.925 177.583 488.192 176.758 488.192 175.842C488.192 174.742 488.925 174.192 489.933 174.008L493.325 173.458V174.1ZM480.492 175.383V169.058H483.242V166.125H480.492V162H477.65V164.017C477.65 165.208 477.008 166.125 475.633 166.125H474.992V168.967H477.375V175.842C477.375 178.408 478.842 179.875 481.317 179.875C482.417 179.875 483.058 179.692 483.242 179.6V176.942C483.15 176.942 482.6 177.033 482.142 177.033C481.042 177.033 480.492 176.575 480.492 175.383Z" fill="white"/>
</g>
<g filter="url(#filter2_b)" class="floating-brand floyd">
<path d="M255 160H113C107.477 160 103 164.477 103 170V240C103 245.523 107.477 250 113 250H255C260.523 250 265 245.523 265 240V170C265 164.477 260.523 160 255 160Z" fill="#EF4023"/>
<path d="M151.282 195.263H138.132C138.132 195.263 138 195.263 138 195.394V215.738C138 215.738 138 215.869 138.132 215.869H142.077C142.077 215.869 142.208 215.869 142.208 215.738V207.075H149.704C149.704 207.075 149.836 207.075 149.836 206.944V203.4C149.836 203.4 149.836 203.269 149.704 203.269H142.077V198.806H151.414C151.414 198.806 151.545 198.806 151.545 198.675L151.282 195.263C151.414 195.263 151.414 195.263 151.282 195.263ZM169.825 212.194H161.014V195.263C161.014 195.263 161.014 195.131 160.882 195.131H157.068C157.068 195.131 156.937 195.131 156.937 195.263V215.606C156.937 215.606 156.937 215.738 157.068 215.738H169.825C169.825 215.738 169.956 215.737 169.956 215.606L169.825 212.194C169.825 212.194 169.956 212.194 169.825 212.194ZM183.238 195C181.397 195 179.819 195.394 178.241 196.05C175.216 197.625 173.244 201.169 173.244 205.5C173.244 207.731 173.77 209.7 174.69 211.406C176.532 214.425 179.425 216 183.238 216C185.079 216 186.658 215.606 188.236 214.95C191.392 213.375 193.233 209.831 193.233 205.5C193.233 203.269 192.707 201.3 191.786 199.594C190.077 196.575 187.184 195 183.238 195ZM183.238 212.325C181.529 212.325 180.214 211.8 179.03 210.619C177.978 209.437 177.321 207.731 177.321 205.5C177.321 203.269 177.847 201.562 179.03 200.381C180.214 199.2 181.529 198.675 183.238 198.675C184.948 198.675 186.395 199.2 187.447 200.381C188.499 201.562 189.156 203.269 189.156 205.5C189.156 207.731 188.63 209.437 187.447 210.619C186.395 211.8 184.948 212.325 183.238 212.325ZM212.564 195.263H208.356H208.225L204.411 203.006L200.597 195.263H196.258H196.126V195.394L202.438 207.075V215.738C202.438 215.738 202.438 215.869 202.57 215.869H206.515C206.515 215.869 206.647 215.869 206.647 215.738V207.075L212.564 195.263ZM224.137 195.263H217.562C217.562 195.263 217.43 195.263 217.43 195.394V215.738C217.43 215.738 217.43 215.869 217.562 215.869H224.137C228.608 215.869 234 213.244 234 205.631C234 197.888 228.74 195.263 224.137 195.263ZM221.638 198.806H222.953C224.795 198.806 226.373 199.2 227.688 200.119C229.134 201.038 229.923 203.006 229.923 205.5C229.923 207.994 229.134 209.831 227.688 210.881C226.373 211.8 224.926 212.194 222.953 212.194H221.638V198.806Z" fill="white"/>
</g>
<g filter="url(#filter3_b)" class="floating-brand away">
<path d="M186 313H40C34.4772 313 30 317.477 30 323V389C30 394.523 34.4772 399 40 399H186C191.523 399 196 394.523 196 389V323C196 317.477 191.523 313 186 313Z" fill="#111111"/>
<path fill-rule="evenodd" clip-rule="evenodd" d="M167 374H60V337H167V374ZM87.0369 362.827H90.5565L83.8416 348.173H81.1325L74.4165 362.827H77.935L78.9174 360.526H86.0545L87.0369 362.827ZM80.1934 357.537L82.4848 352.169L84.7773 357.537H80.1934ZM145.131 353.65L148.738 348.174H152.583L146.728 357.061V362.827H143.533V357.061L137.677 348.174H141.524L145.131 353.65ZM133.432 362.827H136.951L130.236 348.173H127.526L120.81 362.827H124.33L125.312 360.526H132.449L133.432 362.827ZM126.588 357.537L128.88 352.169L131.171 357.537H126.588ZM111.621 358.83L116.172 348.172H119.691L112.975 362.826H110.266L105.683 352.824L101.099 362.826H98.3902L91.6743 348.172H95.195L99.7448 358.83L104.295 348.172H107.04L111.621 358.83Z" fill="white"/>
</g>
<g filter="url(#filter4_b)" class="floating-brand casper">
<path d="M457 250H311C305.477 250 301 254.477 301 260V326C301 331.523 305.477 336 311 336H457C462.523 336 467 331.523 467 326V260C467 254.477 462.523 250 457 250Z" fill="#1E306E"/>
<path d="M364.124 285.368C359.045 285.368 355.181 289.168 355.181 294.579C355.181 299.99 359.045 303.789 364.124 303.789C366.553 303.789 368.431 302.638 369.203 301.717V303.559H373.178V285.599H369.203V287.441C368.431 286.52 366.443 285.368 364.124 285.368ZM364.235 299.99C361.253 299.99 359.045 297.572 359.045 294.579C359.045 291.586 361.364 289.168 364.235 289.168C367.106 289.168 369.314 291.586 369.314 294.579C369.314 297.572 367.106 299.99 364.235 299.99ZM398.353 285.368C396.035 285.368 394.268 286.289 393.164 287.441V285.599H389.299V313L393.164 312.539V301.602C394.268 302.868 396.145 303.674 398.353 303.674C403.653 303.674 407.187 300.105 407.187 294.464C407.187 288.937 403.653 285.368 398.353 285.368ZM398.243 299.99C395.151 299.99 393.164 297.687 393.164 294.579C393.164 291.47 395.151 289.168 398.243 289.168C401.335 289.168 403.433 291.47 403.433 294.579C403.322 297.687 401.335 299.99 398.243 299.99ZM436.999 285.368C434.57 285.368 433.245 286.289 432.472 287.441V285.599H428.608V303.559H432.472V293.658C432.472 291.01 434.239 289.168 436.668 289.168H436.999V285.368ZM417.566 285.368C412.487 285.368 408.512 289.513 408.512 294.579C408.512 299.645 412.487 303.789 417.566 303.789C421.762 303.789 425.185 301.372 426.289 298.148H421.651C421.099 299.299 419.664 300.105 417.566 300.105C415.026 300.105 413.039 298.263 412.597 295.961H426.399C426.51 295.5 426.51 295.039 426.51 294.579C426.51 289.513 422.535 285.368 417.566 285.368ZM412.818 292.391C413.37 290.549 415.247 289.053 417.566 289.053C419.774 289.053 421.762 290.549 422.314 292.391H412.818ZM381.46 288.937C380.687 288.937 379.803 289.283 379.803 290.319C379.803 291.47 380.908 291.816 383.006 292.622C385.876 293.773 387.312 295.155 387.312 297.918C387.312 300.796 384.993 303.789 381.018 303.789C377.043 303.789 374.945 300.681 374.835 298.148H378.589C378.81 299.299 379.693 300.22 381.018 300.22C382.453 300.22 383.337 299.184 383.337 298.033C383.337 297.227 383.006 296.306 380.576 295.615C377.926 294.924 376.049 293.428 376.049 290.434C376.049 287.671 378.368 285.484 381.349 285.484C383.999 285.484 385.656 287.441 386.428 288.707L383.226 290.204C382.785 289.283 382.122 288.937 381.46 288.937Z" fill="white"/>
<path d="M343.477 278C336.41 278 331 283.757 331 290.895C331 298.033 336.41 303.789 343.477 303.789C348.004 303.789 352.2 301.257 354.077 297.688L350.433 295.615C348.998 298.263 346.569 299.76 343.477 299.76C341.269 299.76 339.06 298.839 337.625 297.227C336.079 295.5 335.196 293.313 335.196 291.01C335.196 288.707 336.079 286.52 337.625 284.793C339.06 283.181 341.158 282.26 343.477 282.26C345.906 282.26 347.342 283.066 348.335 283.872C349.44 284.678 350.544 285.484 352.421 285.484C355.844 285.484 357.39 282.605 357.721 281.109L353.856 280.303C353.856 280.418 353.525 281.569 352.421 281.569C351.869 281.569 351.537 281.339 350.765 280.763C349.329 279.382 347.452 278 343.477 278Z" fill="white"/>
</g>
<g filter="url(#filter5_b)" class="floating-brand bonobos">
<rect x="238" y="399" width="166" height="86" rx="10" fill="#373737"/>
<path fill-rule="evenodd" clip-rule="evenodd" d="M379.633 440.96C380.985 441.72 381.928 442.82 382.317 444.32C382.399 444.6 382.44 444.86 382.481 445.16V446.14C382.463 446.226 382.446 446.31 382.429 446.394L382.429 446.394L382.429 446.394C382.391 446.582 382.354 446.766 382.297 446.96C381.703 449.16 380.186 450.44 377.973 450.88C375.124 451.44 372.542 450.78 370.288 448.96C370.265 448.938 370.237 448.928 370.206 448.918C370.18 448.908 370.152 448.898 370.124 448.88C370.861 447.96 371.558 447.08 372.235 446.22C372.726 446.54 373.218 446.86 373.71 447.14C374.776 447.76 375.944 447.9 377.133 447.7C378.444 447.48 378.915 446.46 378.608 445.34C378.444 444.66 377.993 444.16 377.358 443.84C376.815 443.56 376.272 443.285 375.729 443.01C375.186 442.735 374.643 442.46 374.099 442.18C373.054 441.64 372.091 441 371.435 440C369.837 437.62 370.247 433.28 374.735 432.22C374.978 432.161 375.229 432.122 375.478 432.084C375.649 432.058 375.819 432.032 375.985 432H377.317C377.85 432.08 378.383 432.16 378.895 432.28C380.022 432.56 380.985 433.14 381.928 433.78C381.635 434.209 381.35 434.634 381.068 435.055L381.065 435.059L381.065 435.06C380.717 435.579 380.372 436.093 380.022 436.6C380.014 436.596 380.008 436.593 380.001 436.591C379.995 436.588 379.989 436.586 379.983 436.584C379.966 436.577 379.953 436.572 379.94 436.56C379.909 436.53 379.879 436.505 379.848 436.48C379.817 436.455 379.786 436.43 379.756 436.4C378.711 435.42 377.44 435.1 376.026 435.24C375.329 435.3 374.714 435.58 374.448 436.28C374.161 437.04 374.407 438 375.042 438.52C375.298 438.734 375.604 438.901 375.9 439.062L375.9 439.062L376.005 439.12C376.451 439.348 376.899 439.569 377.347 439.789C378.115 440.166 378.882 440.543 379.633 440.96ZM266.226 447.724H266.226C266.135 447.724 266.044 447.723 265.954 447.723C265.424 447.737 264.894 447.732 264.352 447.728H264.352H264.352H264.352H264.352H264.352C264.077 447.726 263.798 447.723 263.515 447.723V443.303C263.531 443.296 263.543 443.288 263.554 443.282C263.571 443.271 263.584 443.263 263.597 443.263C264.061 443.27 264.526 443.27 264.99 443.27C265.919 443.27 266.849 443.27 267.778 443.323C268.925 443.383 269.704 444.083 269.827 445.043C269.95 446.323 269.458 447.383 267.88 447.643C267.335 447.729 266.775 447.727 266.226 447.724ZM263.494 435.303C263.515 435.283 263.535 435.263 263.556 435.263C263.932 435.27 264.307 435.27 264.683 435.27C265.434 435.27 266.186 435.27 266.937 435.323C268.187 435.423 268.905 436.163 269.007 437.243C269.13 438.543 268.536 439.503 267.327 439.843C266.917 439.963 266.507 440.023 266.077 440.043C265.529 440.057 264.981 440.052 264.439 440.048H264.439H264.439H264.439H264.439H264.439C264.17 440.046 263.903 440.043 263.638 440.043C263.597 440.043 263.576 440.043 263.494 440.023V435.303ZM270.237 441.283C270.052 441.243 269.888 441.223 269.704 441.203C269.798 441.093 269.909 441.05 270.006 441.013L270.032 441.003C270.729 440.743 271.323 440.343 271.835 439.783C273.413 438.023 273.27 434.463 270.339 432.963C269.151 432.363 267.88 432.103 266.568 432.083C265.078 432.053 263.576 432.057 262.071 432.061C261.569 432.062 261.066 432.063 260.564 432.063C260.39 432.063 260.215 432.058 260.041 432.053C259.867 432.048 259.693 432.043 259.519 432.043V450.883C259.59 450.883 259.662 450.878 259.734 450.873L259.734 450.873C259.805 450.868 259.877 450.863 259.949 450.863H266.814C267.983 450.863 269.151 450.723 270.257 450.343C272.655 449.543 274.11 447.623 273.762 444.943C273.577 443.203 272.04 441.603 270.237 441.283ZM327.107 446.62C324.914 448.38 321.922 448.22 319.832 446.28C317.475 444.08 317.127 440.26 319.094 437.72C320.385 436.04 322.148 435.26 324.3 435.48C326.677 435.74 328.255 437.08 329.116 439.24C329.423 440 329.566 440.78 329.546 441.6C329.505 443.64 328.706 445.34 327.107 446.62ZM322.885 432.12C320.385 432.3 318.213 433.26 316.512 435.08C314.278 437.46 313.602 440.3 314.094 443.44C314.688 447.08 317.66 450.16 321.348 450.94C321.683 451.01 322.017 451.06 322.347 451.108C322.584 451.144 322.818 451.178 323.049 451.22H324.32C324.365 451.211 324.41 451.199 324.456 451.186C324.516 451.169 324.579 451.151 324.648 451.14C326.246 451 327.722 450.52 329.054 449.66C331.739 447.88 333.173 445.4 333.358 442.26C333.542 439.3 332.6 436.74 330.407 434.68C328.316 432.72 325.775 431.92 322.885 432.12ZM280.894 446.22C282.963 448.24 285.956 448.38 288.23 446.6C290.813 444.58 291.427 440.74 289.583 438.04C288.456 436.36 286.857 435.5 284.91 435.44C283.189 435.46 281.795 436 280.689 437.14C278.25 439.62 278.332 443.74 280.894 446.22ZM283.332 432.2C286.161 431.82 288.743 432.44 290.977 434.2C293.067 435.86 294.194 438.04 294.481 440.68C294.727 443.34 294.051 445.74 292.329 447.82C290.792 449.66 288.784 450.72 286.386 451.1C286.222 451.12 286.063 451.145 285.904 451.17L285.904 451.17L285.904 451.17L285.904 451.17L285.904 451.17C285.745 451.195 285.587 451.22 285.423 451.24H284.152C283.938 451.201 283.723 451.168 283.51 451.136L283.509 451.136C283.173 451.084 282.839 451.033 282.513 450.96C278.824 450.18 275.934 447.26 275.258 443.62C274.663 440.42 275.36 437.56 277.615 435.12C279.131 433.46 281.078 432.5 283.332 432.2ZM364.181 446.08C361.721 448.6 357.909 448.38 355.717 445.64C354.794 444.48 354.303 443.08 354.303 441.22C354.364 439.42 355.143 437.56 357.09 436.34C359.815 434.6 363.381 435.46 365.082 438.2C366.599 440.68 366.23 444 364.181 446.08ZM366.435 434.26C364.181 432.44 361.557 431.8 358.668 432.2C356.331 432.52 354.364 433.52 352.806 435.26C350.737 437.6 350.081 440.34 350.552 443.36C351.126 447.08 354.098 450.14 357.848 450.94C358.19 451.014 358.533 451.065 358.88 451.117L358.88 451.117C359.094 451.149 359.31 451.182 359.528 451.22H360.799C360.953 451.2 361.106 451.175 361.26 451.15C361.414 451.125 361.568 451.1 361.721 451.08C364.385 450.66 366.537 449.42 368.095 447.26C369.611 445.16 370.124 442.8 369.775 440.26C369.447 437.84 368.341 435.82 366.435 434.26ZM344.076 447.42C343.687 447.58 343.236 447.68 342.826 447.7C341.919 447.73 341 447.726 340.086 447.723H340.086C339.783 447.721 339.48 447.72 339.178 447.72C339.153 447.72 339.131 447.717 339.105 447.713C339.069 447.707 339.025 447.7 338.953 447.7V446.6V443.6C338.953 443.34 339.014 443.24 339.301 443.24C339.775 443.249 340.25 443.246 340.724 443.244C341.356 443.241 341.989 443.237 342.621 443.26C343.113 443.28 343.646 443.38 344.117 443.58C344.978 443.92 345.326 444.62 345.306 445.5C345.265 446.36 344.916 447.06 344.076 447.42ZM338.953 435.32C338.973 435.3 338.994 435.28 339.014 435.28C339.398 435.293 339.782 435.295 340.166 435.298C341.01 435.304 341.851 435.31 342.683 435.42C343.789 435.56 344.384 436.28 344.466 437.24C344.568 438.5 344.076 439.42 343.031 439.8C342.621 439.96 342.17 440.04 341.74 440.06C341.065 440.09 340.378 440.086 339.68 440.083C339.446 440.081 339.21 440.08 338.973 440.08V435.32H338.953ZM345.162 441.14C345.214 441.12 345.26 441.1 345.306 441.08C345.352 441.06 345.398 441.04 345.449 441.02C347.007 440.46 347.97 439.38 348.216 437.78C348.482 436.08 348.011 434.58 346.576 433.48C345.244 432.46 343.666 432.14 342.027 432.1C340.366 432.07 338.694 432.074 337.027 432.078C336.473 432.079 335.919 432.08 335.366 432.08C335.317 432.08 335.268 432.085 335.217 432.089C335.161 432.095 335.103 432.1 335.038 432.1V450.86C335.09 450.86 335.136 450.865 335.182 450.87C335.228 450.875 335.274 450.88 335.325 450.88C336.132 450.88 336.937 450.882 337.74 450.885C339.346 450.889 340.948 450.893 342.56 450.88C343.789 450.88 344.978 450.68 346.126 450.24C349.036 449.1 349.773 446.42 349.118 444.38C348.523 442.52 347.212 441.44 345.162 441.14ZM308.95 432.18C309.954 432.2 310.958 432.2 311.942 432.18C312.229 432.18 312.331 432.22 312.331 432.54C312.311 438.46 312.311 444.4 312.331 450.32C312.331 450.62 312.249 450.72 311.942 450.7C311.777 450.693 311.606 450.704 311.435 450.716C311.096 450.738 310.759 450.76 310.487 450.64C310.223 450.518 310.016 450.259 309.808 449.999C309.709 449.874 309.609 449.75 309.503 449.64C309.219 449.331 308.935 449.022 308.651 448.713C305.878 445.699 303.091 442.669 300.322 439.64C300.268 439.6 300.223 439.552 300.175 439.501C300.15 439.475 300.124 439.447 300.096 439.42C300.086 439.43 300.071 439.435 300.055 439.44C300.04 439.445 300.025 439.45 300.014 439.46V439.84C300.014 440.999 300.012 442.161 300.01 443.323C300.005 445.65 300.001 447.979 300.014 450.3C300.014 450.64 299.912 450.72 299.584 450.72C298.6 450.7 297.617 450.7 296.633 450.72C296.346 450.72 296.243 450.62 296.243 450.34V432.48C296.243 432.22 296.325 432.12 296.612 432.14C296.77 432.147 296.934 432.138 297.098 432.129C297.424 432.111 297.747 432.093 298.006 432.2C298.283 432.328 298.488 432.589 298.694 432.851C298.777 432.956 298.86 433.062 298.949 433.16L308.232 443.3C308.257 443.332 308.282 443.368 308.308 443.406C308.347 443.461 308.388 443.52 308.437 443.58C308.458 443.57 308.473 443.56 308.488 443.55C308.504 443.54 308.519 443.53 308.54 443.52V443.14C308.54 441.967 308.542 440.793 308.544 439.62C308.549 437.273 308.553 434.927 308.54 432.58C308.54 432.28 308.622 432.18 308.95 432.18Z" fill="white"/>
</g>
<defs>
<filter id="filter0_b" x="166" y="5" width="222" height="150" filterUnits="userSpaceOnUse" color-interpolation-filters="sRGB">
<feFlood flood-opacity="0" result="BackgroundImageFix"/>
<feColorMatrix in="SourceAlpha" type="matrix" values="0 0 0 0 0 0 0 0 0 0 0 0 0 0 0 0 0 0 127 0"/>
<feOffset/>
<feGaussianBlur stdDeviation="15"/>
<feColorMatrix type="matrix" values="0 0 0 0 0 0 0 0 0 0 0 0 0 0 0 0 0 0 0.25 0"/>
<feBlend mode="normal" in2="BackgroundImageFix" result="effect1_dropShadow"/>
<feBlend mode="normal" in="SourceGraphic" in2="effect1_dropShadow" result="shape"/>
</filter>
<filter id="filter1_b" x="354" y="96" width="222" height="150" filterUnits="userSpaceOnUse" color-interpolation-filters="sRGB">
<feFlood flood-opacity="0" result="BackgroundImageFix"/>
<feColorMatrix in="SourceAlpha" type="matrix" values="0 0 0 0 0 0 0 0 0 0 0 0 0 0 0 0 0 0 127 0"/>
<feOffset/>
<feGaussianBlur stdDeviation="15"/>
<feColorMatrix type="matrix" values="0 0 0 0 0 0 0 0 0 0 0 0 0 0 0 0 0 0 0.25 0"/>
<feBlend mode="normal" in2="BackgroundImageFix" result="effect1_dropShadow"/>
<feBlend mode="normal" in="SourceGraphic" in2="effect1_dropShadow" result="shape"/>
</filter>
<filter id="filter2_b" x="73" y="130" width="222" height="150" filterUnits="userSpaceOnUse" color-interpolation-filters="sRGB">
<feFlood flood-opacity="0" result="BackgroundImageFix"/>
<feColorMatrix in="SourceAlpha" type="matrix" values="0 0 0 0 0 0 0 0 0 0 0 0 0 0 0 0 0 0 127 0"/>
<feOffset/>
<feGaussianBlur stdDeviation="15"/>
<feColorMatrix type="matrix" values="0 0 0 0 0 0 0 0 0 0 0 0 0 0 0 0 0 0 0.25 0"/>
<feBlend mode="normal" in2="BackgroundImageFix" result="effect1_dropShadow"/>
<feBlend mode="normal" in="SourceGraphic" in2="effect1_dropShadow" result="shape"/>
</filter>
<filter id="filter3_b" x="0" y="283" width="226" height="146" filterUnits="userSpaceOnUse" color-interpolation-filters="sRGB">
<feFlood flood-opacity="0" result="BackgroundImageFix"/>
<feColorMatrix in="SourceAlpha" type="matrix" values="0 0 0 0 0 0 0 0 0 0 0 0 0 0 0 0 0 0 127 0"/>
<feOffset/>
<feGaussianBlur stdDeviation="15"/>
<feColorMatrix type="matrix" values="0 0 0 0 0 0 0 0 0 0 0 0 0 0 0 0 0 0 0.25 0"/>
<feBlend mode="normal" in2="BackgroundImageFix" result="effect1_dropShadow"/>
<feBlend mode="normal" in="SourceGraphic" in2="effect1_dropShadow" result="shape"/>
</filter>
<filter id="filter4_b" x="271" y="220" width="226" height="146" filterUnits="userSpaceOnUse" color-interpolation-filters="sRGB">
<feFlood flood-opacity="0" result="BackgroundImageFix"/>
<feColorMatrix in="SourceAlpha" type="matrix" values="0 0 0 0 0 0 0 0 0 0 0 0 0 0 0 0 0 0 127 0"/>
<feOffset/>
<feGaussianBlur stdDeviation="15"/>
<feColorMatrix type="matrix" values="0 0 0 0 0 0 0 0 0 0 0 0 0 0 0 0 0 0 0.25 0"/>
<feBlend mode="normal" in2="BackgroundImageFix" result="effect1_dropShadow"/>
<feBlend mode="normal" in="SourceGraphic" in2="effect1_dropShadow" result="shape"/>
</filter>
<filter id="filter5_b" x="208" y="369" width="226" height="146" filterUnits="userSpaceOnUse" color-interpolation-filters="sRGB">
<feFlood flood-opacity="0" result="BackgroundImageFix"/>
<feColorMatrix in="SourceAlpha" type="matrix" values="0 0 0 0 0 0 0 0 0 0 0 0 0 0 0 0 0 0 127 0"/>
<feOffset/>
<feGaussianBlur stdDeviation="15"/>
<feColorMatrix type="matrix" values="0 0 0 0 0 0 0 0 0 0 0 0 0 0 0 0 0 0 0.25 0"/>
<feBlend mode="normal" in2="BackgroundImageFix" result="effect1_dropShadow"/>
<feBlend mode="normal" in="SourceGraphic" in2="effect1_dropShadow" result="shape"/>
</filter>
</defs>
</svg>
