<svg fill="none" xmlns="http://www.w3.org/2000/svg" viewBox="0 0 256 189">
  <path d="M144.6 102.25c-.722 0-1.334.611-1.334 1.334a1.352 1.352 0 001.334 1.334c.723 0 1.334-.612 1.334-1.334a1.351 1.351 0 00-1.334-1.334zM153.107 104.919c.723 0 1.335-.611 1.335-1.334 0-.722-.612-1.334-1.334-1.334-.723 0-1.335.611-1.335 1.334 0 .723.611 1.334 1.334 1.334zM161.614 104.92c.723 0 1.335-.611 1.335-1.334 0-.722-.611-1.334-1.334-1.334-.723 0-1.335.612-1.335 1.334 0 .723.611 1.334 1.334 1.334zM170.177 104.921a1.352 1.352 0 001.335-1.333c0-.723-.612-1.334-1.334-1.334-.723 0-1.335.611-1.335 1.334 0 .722.556 1.333 1.334 1.333zM178.684 104.923c.723 0 1.335-.612 1.335-1.334 0-.723-.611-1.334-1.334-1.334-.723 0-1.335.611-1.335 1.334 0 .722.611 1.334 1.334 1.334zM187.248 102.256c-.723 0-1.335.611-1.335 1.334 0 .722.611 1.334 1.334 1.334.723 0 1.335-.611 1.335-1.334 0-.722-.611-1.334-1.334-1.334zM195.754 104.925c.723 0 1.335-.611 1.335-1.334 0-.722-.611-1.334-1.334-1.334-.723 0-1.335.612-1.335 1.334 0 .723.611 1.334 1.334 1.334zM205.652 103.593c0-.723-.611-1.334-1.334-1.334-.723 0-1.335.611-1.335 1.333 0 .723.611 1.334 1.334 1.334.723 0 1.335-.611 1.335-1.333zM212.824 104.928c.723 0 1.335-.612 1.335-1.334 0-.723-.611-1.334-1.334-1.334-.723 0-1.335.611-1.335 1.334 0 .722.612 1.334 1.334 1.334zM222.722 103.595c0-.722-.611-1.334-1.334-1.334-.723 0-1.335.611-1.335 1.334 0 .722.611 1.334 1.334 1.334.723 0 1.335-.611 1.335-1.334zM229.894 104.93c.723 0 1.335-.611 1.335-1.334 0-.722-.611-1.334-1.334-1.334-.723 0-1.335.612-1.335 1.334 0 .723.612 1.334 1.334 1.334zM144.599 108.197c-.722 0-1.334.611-1.334 1.334 0 .722.611 1.334 1.334 1.334.723 0 1.334-.612 1.335-1.334 0-.723-.612-1.334-1.335-1.334zM153.106 110.922c.723 0 1.335-.612 1.335-1.334 0-.723-.611-1.334-1.334-1.334-.723 0-1.335.611-1.335 1.334 0 .722.611 1.333 1.334 1.334zM161.613 110.923c.723 0 1.335-.612 1.335-1.334 0-.723-.611-1.334-1.334-1.334-.723 0-1.335.611-1.335 1.334 0 .722.612 1.334 1.334 1.334zM170.176 110.924c.723 0 1.335-.611 1.335-1.334 0-.722-.611-1.334-1.334-1.334-.723 0-1.335.612-1.335 1.334 0 .723.556 1.334 1.334 1.334zM178.683 110.925c.723 0 1.335-.611 1.335-1.334 0-.722-.611-1.334-1.334-1.334-.723 0-1.335.612-1.335 1.334 0 .723.612 1.334 1.334 1.334zM187.247 108.203c-.723 0-1.335.611-1.335 1.334 0 .722.611 1.334 1.334 1.334.723 0 1.335-.611 1.335-1.334 0-.722-.611-1.334-1.334-1.334zM195.753 110.928c.723 0 1.335-.612 1.335-1.334 0-.723-.611-1.334-1.334-1.334-.723 0-1.335.611-1.335 1.334 0 .722.612 1.334 1.334 1.334zM204.316 110.929c.723 0 1.335-.611 1.335-1.334 0-.722-.611-1.334-1.334-1.334-.723 0-1.335.611-1.335 1.334-.056.723.556 1.334 1.334 1.334zM212.823 110.93c.723 0 1.335-.611 1.335-1.334 0-.722-.611-1.334-1.334-1.334-.723 0-1.335.612-1.335 1.334 0 .723.612 1.334 1.334 1.334zM221.331 110.931c.722 0 1.334-.611 1.334-1.333a1.351 1.351 0 00-1.334-1.334c-.723 0-1.334.611-1.334 1.333a1.351 1.351 0 001.334 1.334zM229.894 110.933c.722 0 1.334-.612 1.334-1.334a1.351 1.351 0 00-1.334-1.334c-.723 0-1.334.611-1.335 1.334 0 .722.612 1.334 1.335 1.334zM144.598 116.867c.723 0 1.335-.611 1.335-1.334 0-.722-.612-1.334-1.334-1.334-.723 0-1.335.612-1.335 1.334 0 .723.556 1.334 1.334 1.334zM153.105 116.868a1.352 1.352 0 001.335-1.333c0-.723-.611-1.334-1.334-1.334-.723 0-1.335.611-1.335 1.334 0 .722.611 1.333 1.334 1.333zM161.613 114.202c-.723 0-1.334.611-1.335 1.334 0 .722.612 1.334 1.335 1.334.722 0 1.334-.612 1.334-1.334 0-.723-.555-1.334-1.334-1.334zM170.175 116.871c.723 0 1.335-.611 1.335-1.334 0-.722-.611-1.334-1.334-1.334-.723 0-1.335.611-1.335 1.334 0 .723.556 1.334 1.334 1.334zM178.683 116.872c.722 0 1.334-.611 1.334-1.334 0-.722-.611-1.334-1.334-1.334-.723 0-1.334.612-1.335 1.334 0 .723.612 1.334 1.335 1.334zM187.245 116.873c.723 0 1.335-.611 1.335-1.333 0-.723-.611-1.334-1.334-1.334-.723 0-1.335.611-1.335 1.333 0 .723.556 1.334 1.334 1.334zM195.753 116.875c.722 0 1.334-.612 1.334-1.334a1.351 1.351 0 00-1.334-1.334c-.723 0-1.334.611-1.335 1.334 0 .722.612 1.334 1.335 1.334zM204.316 114.208c-.723 0-1.335.611-1.335 1.334 0 .722.612 1.334 1.334 1.334.723 0 1.335-.611 1.335-1.334 0-.722-.611-1.334-1.334-1.334zM212.823 116.877c.722 0 1.334-.611 1.334-1.334a1.352 1.352 0 00-1.334-1.334c-.723 0-1.334.612-1.335 1.334 0 .723.612 1.334 1.335 1.334zM221.33 116.878c.723 0 1.334-.611 1.335-1.334 0-.722-.612-1.333-1.335-1.333a1.352 1.352 0 00-1.334 1.333c0 .723.611 1.334 1.334 1.334zM229.893 114.212c-.722 0-1.334.611-1.334 1.334a1.352 1.352 0 001.334 1.334c.723 0 1.334-.612 1.334-1.334a1.351 1.351 0 00-1.334-1.334zM144.597 122.814a1.335 1.335 0 100-2.67 1.335 1.335 0 000 2.67zM153.105 120.148c-.723 0-1.335.611-1.335 1.333 0 .723.612 1.334 1.334 1.334.723 0 1.335-.611 1.335-1.333 0-.723-.611-1.334-1.334-1.334zM161.612 120.149c-.723 0-1.334.611-1.335 1.334 0 .722.612 1.334 1.335 1.334.722 0 1.334-.612 1.334-1.334a1.315 1.315 0 00-1.334-1.334zM170.174 122.818c.723 0 1.335-.611 1.335-1.334 0-.722-.611-1.334-1.334-1.334-.723 0-1.335.611-1.335 1.334 0 .778.556 1.334 1.334 1.334zM178.682 122.819c.722 0 1.334-.611 1.334-1.334a1.352 1.352 0 00-1.334-1.334c-.723 0-1.334.612-1.334 1.334a1.351 1.351 0 001.334 1.334zM187.245 120.153c-.723 0-1.334.611-1.335 1.333 0 .723.612 1.334 1.335 1.334.722 0 1.334-.611 1.334-1.333 0-.723-.611-1.334-1.334-1.334zM195.752 122.822c.723 0 1.334-.612 1.334-1.334a1.351 1.351 0 00-1.334-1.334c-.723 0-1.334.611-1.334 1.334a1.316 1.316 0 001.334 1.334zM204.315 120.155c-.723 0-1.334.611-1.335 1.334 0 .722.612 1.334 1.335 1.334.722 0 1.334-.612 1.334-1.334 0-.723-.611-1.334-1.334-1.334zM212.822 122.824c.723 0 1.334-.611 1.335-1.334 0-.722-.612-1.334-1.335-1.334-.722 0-1.334.612-1.334 1.334a1.316 1.316 0 001.334 1.334zM221.329 122.825c.723 0 1.335-.611 1.335-1.334 0-.722-.612-1.333-1.334-1.334-.723 0-1.335.612-1.335 1.334 0 .778.611 1.334 1.334 1.334zM229.892 122.827a1.335 1.335 0 100-2.667 1.335 1.335 0 000 2.667zM144.596 128.817c.723 0 1.335-.612 1.335-1.334 0-.723-.611-1.334-1.334-1.334-.723 0-1.335.611-1.335 1.334-.056.722.556 1.334 1.334 1.334zM153.103 128.818c.723 0 1.335-.611 1.335-1.334 0-.722-.611-1.334-1.334-1.334-.723 0-1.334.611-1.335 1.334 0 .722.612 1.334 1.334 1.334zM161.611 128.819c.723 0 1.334-.611 1.335-1.334 0-.722-.612-1.334-1.335-1.334-.722 0-1.334.612-1.334 1.334a1.351 1.351 0 001.334 1.334zM170.174 128.82c.722 0 1.334-.611 1.334-1.333a1.351 1.351 0 00-1.334-1.334c-.723 0-1.334.611-1.335 1.333 0 .723.556 1.334 1.335 1.334zM178.681 128.822c.723 0 1.334-.612 1.335-1.334 0-.723-.612-1.334-1.335-1.334-.722 0-1.334.611-1.334 1.334a1.352 1.352 0 001.334 1.334zM187.244 128.823c.722 0 1.334-.611 1.334-1.334a1.352 1.352 0 00-1.334-1.334c-.723 0-1.334.611-1.335 1.334 0 .722.556 1.334 1.335 1.334zM195.751 128.824c.723 0 1.334-.611 1.335-1.334 0-.722-.612-1.334-1.335-1.334-.722 0-1.334.612-1.334 1.334 0 .723.611 1.334 1.334 1.334zM204.314 128.825c.723 0 1.334-.611 1.334-1.333a1.351 1.351 0 00-1.334-1.334c-.723 0-1.334.611-1.334 1.333-.056.723.555 1.334 1.334 1.334zM212.821 128.827c.723 0 1.335-.612 1.335-1.334 0-.723-.612-1.334-1.334-1.334-.723 0-1.335.611-1.335 1.334 0 .722.611 1.334 1.334 1.334zM222.719 127.494c0-.723-.612-1.334-1.335-1.334-.722 0-1.334.611-1.334 1.334a1.352 1.352 0 001.334 1.334c.723 0 1.334-.612 1.335-1.334zM229.892 126.161c-.723 0-1.335.612-1.335 1.334 0 .723.611 1.334 1.334 1.334.723 0 1.335-.611 1.335-1.334 0-.778-.612-1.334-1.334-1.334zM144.595 134.764c.723 0 1.335-.612 1.335-1.334 0-.723-.611-1.334-1.334-1.334-.723 0-1.335.611-1.335 1.334-.055.722.556 1.334 1.334 1.334zM153.103 134.765c.722 0 1.334-.611 1.334-1.334a1.352 1.352 0 00-1.334-1.334c-.723 0-1.334.611-1.334 1.334a1.352 1.352 0 001.334 1.334zM161.61 134.766c.723 0 1.334-.611 1.335-1.334 0-.722-.612-1.334-1.334-1.334-.723 0-1.335.612-1.335 1.334 0 .723.611 1.334 1.334 1.334zM170.173 134.767a1.333 1.333 0 10.001-2.667 1.333 1.333 0 00-.001 2.667zM178.68 134.769c.723 0 1.335-.612 1.335-1.334 0-.723-.612-1.334-1.334-1.334-.723 0-1.335.611-1.335 1.334 0 .722.611 1.334 1.334 1.334zM187.243 134.77c.723 0 1.334-.611 1.335-1.334 0-.723-.612-1.334-1.335-1.334-.722 0-1.334.611-1.334 1.334a1.316 1.316 0 001.334 1.334zM195.75 134.771c.723 0 1.335-.611 1.335-1.334 0-.722-.612-1.334-1.334-1.334-.723 0-1.335.612-1.335 1.334 0 .723.611 1.334 1.334 1.334zM204.313 134.772a1.334 1.334 0 10.001-2.665 1.334 1.334 0 00-.001 2.665zM212.82 134.774c.723 0 1.335-.612 1.335-1.334 0-.723-.611-1.334-1.334-1.334-.723 0-1.335.611-1.335 1.334 0 .722.611 1.333 1.334 1.334zM221.327 134.775c.723 0 1.335-.612 1.335-1.334 0-.723-.611-1.334-1.334-1.334-.723 0-1.335.611-1.335 1.334 0 .722.611 1.334 1.334 1.334zM229.891 132.108c-.723 0-1.335.611-1.335 1.334 0 .723.611 1.334 1.334 1.334.723 0 1.335-.611 1.335-1.334 0-.722-.611-1.334-1.334-1.334zM144.595 140.766a1.334 1.334 0 100-2.667 1.334 1.334 0 000 2.667zM153.102 138.044c-.722 0-1.334.611-1.334 1.334a1.352 1.352 0 001.334 1.334c.723 0 1.334-.611 1.335-1.334 0-.723-.612-1.334-1.335-1.334zM161.61 138.045c-.723 0-1.335.612-1.335 1.334 0 .723.611 1.334 1.334 1.334.723 0 1.335-.611 1.335-1.334 0-.722-.556-1.334-1.334-1.334zM170.172 140.77a1.335 1.335 0 100-2.67 1.335 1.335 0 000 2.67zM178.679 140.771c.723 0 1.335-.611 1.335-1.334 0-.722-.611-1.334-1.334-1.334-.723 0-1.335.612-1.335 1.334 0 .723.611 1.334 1.334 1.334zM187.242 140.772c.723 0 1.335-.611 1.335-1.333 0-.723-.612-1.334-1.334-1.334-.723 0-1.335.611-1.335 1.333 0 .723.555 1.334 1.334 1.334zM195.749 140.774a1.335 1.335 0 100-2.67 1.335 1.335 0 000 2.67zM204.313 138.051c-.723 0-1.335.612-1.335 1.334 0 .723.611 1.334 1.334 1.334.723 0 1.335-.611 1.335-1.334 0-.722-.612-1.334-1.334-1.334zM212.819 140.776c.723 0 1.335-.611 1.335-1.334 0-.722-.611-1.334-1.334-1.334-.723 0-1.335.612-1.335 1.334 0 .723.611 1.334 1.334 1.334zM221.326 140.777c.723 0 1.335-.611 1.335-1.334 0-.722-.611-1.334-1.334-1.334-.723 0-1.335.612-1.335 1.334 0 .723.612 1.334 1.334 1.334zM229.889 140.778a1.334 1.334 0 10.003-2.667 1.334 1.334 0 00-.003 2.667zM144.594 146.713a1.334 1.334 0 100-2.667 1.334 1.334 0 000 2.667zM153.101 146.714a1.334 1.334 0 10.001-2.669 1.334 1.334 0 00-.001 2.669zM161.609 144.048c-.723 0-1.335.611-1.335 1.334 0 .722.611 1.334 1.334 1.334.723 0 1.335-.612 1.335-1.334 0-.723-.556-1.334-1.334-1.334zM170.171 146.717c.723 0 1.335-.611 1.335-1.334 0-.723-.612-1.334-1.334-1.334-.723 0-1.335.611-1.335 1.334 0 .722.555 1.334 1.334 1.334zM178.678 146.718c.723 0 1.335-.611 1.335-1.334 0-.722-.611-1.334-1.334-1.334-.723 0-1.335.612-1.335 1.334 0 .723.611 1.334 1.334 1.334zM187.241 146.719c.723 0 1.335-.611 1.335-1.334 0-.722-.611-1.333-1.334-1.333a1.352 1.352 0 00-1.335 1.333c0 .723.556 1.334 1.334 1.334zM195.748 146.721c.723 0 1.335-.612 1.335-1.334 0-.723-.611-1.334-1.334-1.334-.723 0-1.335.611-1.335 1.334 0 .722.611 1.333 1.334 1.334zM204.312 144.054c-.723 0-1.335.611-1.335 1.334 0 .722.611 1.334 1.334 1.334.723 0 1.335-.612 1.335-1.334 0-.723-.611-1.334-1.334-1.334zM212.818 146.723c.723 0 1.335-.611 1.335-1.334 0-.722-.611-1.334-1.334-1.334-.723 0-1.335.611-1.335 1.334 0 .723.611 1.334 1.334 1.334zM221.326 146.724a1.334 1.334 0 100-2.669 1.334 1.334 0 000 2.669zM229.888 146.725a1.334 1.334 0 10.001-2.669 1.334 1.334 0 00-.001 2.669zM144.593 152.66a1.335 1.335 0 100-2.67 1.335 1.335 0 000 2.67zM153.1 152.661c.723 0 1.335-.611 1.335-1.334 0-.722-.611-1.333-1.334-1.333-.723 0-1.335.611-1.335 1.333 0 .778.611 1.334 1.334 1.334zM161.607 152.663c.723 0 1.335-.612 1.335-1.334 0-.723-.611-1.334-1.334-1.334-.723 0-1.335.611-1.335 1.334 0 .778.611 1.334 1.334 1.334zM170.17 152.664a1.335 1.335 0 100-2.67 1.335 1.335 0 000 2.67zM178.677 152.665a1.335 1.335 0 100-2.67 1.335 1.335 0 000 2.67zM187.241 149.998c-.723 0-1.335.612-1.335 1.334 0 .723.611 1.334 1.334 1.334.723 0 1.335-.611 1.335-1.334 0-.722-.611-1.333-1.334-1.334zM195.747 152.667a1.334 1.334 0 10.003-2.667 1.334 1.334 0 00-.003 2.667zM204.31 152.669a1.335 1.335 0 100-2.67 1.335 1.335 0 000 2.67zM212.817 152.67c.723 0 1.335-.611 1.335-1.334 0-.722-.611-1.334-1.334-1.334-.723 0-1.335.611-1.335 1.334 0 .778.612 1.334 1.334 1.334zM221.325 150.003c-.723 0-1.334.612-1.334 1.334a1.351 1.351 0 001.334 1.334c.723 0 1.334-.611 1.334-1.334.056-.722-.555-1.334-1.334-1.334zM229.888 152.672a1.333 1.333 0 10.001-2.667 1.333 1.333 0 00-.001 2.667zM144.592 158.663a1.335 1.335 0 100-2.67 1.335 1.335 0 000 2.67zM153.099 158.664c.723 0 1.335-.611 1.335-1.334 0-.723-.611-1.334-1.334-1.334-.723 0-1.335.611-1.335 1.334 0 .722.611 1.334 1.334 1.334zM161.606 158.665c.723 0 1.335-.611 1.335-1.334 0-.722-.611-1.334-1.334-1.334-.723 0-1.335.612-1.335 1.334 0 .723.612 1.334 1.334 1.334zM170.169 158.666a1.335 1.335 0 100-2.67 1.335 1.335 0 000 2.67zM178.676 158.668a1.335 1.335 0 00.001-2.668 1.335 1.335 0 00-.001 2.668zM187.239 158.669c.723 0 1.335-.612 1.335-1.334 0-.723-.611-1.334-1.334-1.334-.723 0-1.335.611-1.335 1.334 0 .722.556 1.334 1.334 1.334zM195.746 158.67a1.335 1.335 0 100-2.67 1.335 1.335 0 000 2.67zM204.309 158.671a1.335 1.335 0 100-2.67 1.335 1.335 0 000 2.67zM212.817 158.672c.722 0 1.334-.611 1.334-1.333a1.351 1.351 0 00-1.334-1.334c-.723 0-1.334.611-1.335 1.333 0 .723.612 1.334 1.335 1.334zM221.324 158.674a1.335 1.335 0 100-2.67 1.335 1.335 0 000 2.67zM229.887 158.675a1.334 1.334 0 100-2.667 1.334 1.334 0 000 2.667zM144.591 164.61a1.335 1.335 0 100-2.67 1.335 1.335 0 000 2.67zM153.099 161.943c-.723 0-1.335.611-1.335 1.334 0 .722.611 1.334 1.334 1.334.723 0 1.335-.611 1.335-1.334 0-.723-.611-1.334-1.334-1.334zM160.271 163.278c0 .723.612 1.334 1.335 1.334.722 0 1.334-.611 1.334-1.334a1.352 1.352 0 00-1.334-1.334c-.723 0-1.334.612-1.335 1.334zM170.168 164.613a1.335 1.335 0 100-2.67 1.335 1.335 0 000 2.67zM178.676 164.614a1.333 1.333 0 100-2.667 1.334 1.334 0 100 2.667zM187.238 164.616c.723 0 1.335-.612 1.335-1.334 0-.723-.611-1.334-1.334-1.334-.723 0-1.335.611-1.335 1.334 0 .722.556 1.334 1.334 1.334zM195.746 164.617a1.334 1.334 0 100-2.667 1.334 1.334 0 000 2.667zM204.309 161.95c-.723 0-1.334.612-1.335 1.334 0 .723.612 1.334 1.334 1.334.723 0 1.335-.611 1.335-1.334 0-.722-.611-1.334-1.334-1.334zM212.816 161.952c-.722 0-1.334.611-1.334 1.333a1.351 1.351 0 001.334 1.334c.723 0 1.334-.611 1.335-1.333 0-.723-.612-1.334-1.335-1.334zM221.323 164.621c.723 0 1.335-.612 1.335-1.334 0-.723-.612-1.334-1.334-1.334-.723 0-1.335.611-1.335 1.334 0 .722.611 1.334 1.334 1.334zM229.886 164.622a1.335 1.335 0 100-2.67 1.335 1.335 0 000 2.67zM144.59 170.612a1.335 1.335 0 100-2.67 1.335 1.335 0 000 2.67zM153.098 167.89c-.723 0-1.335.611-1.335 1.334 0 .722.612 1.334 1.334 1.334.723 0 1.335-.612 1.335-1.334 0-.723-.611-1.334-1.334-1.334zM161.605 170.615c.723 0 1.334-.612 1.334-1.334a1.351 1.351 0 00-1.334-1.334c-.722 0-1.334.611-1.334 1.334a1.353 1.353 0 001.334 1.334zM170.167 170.616c.723 0 1.335-.612 1.335-1.334 0-.723-.611-1.334-1.334-1.334-.723 0-1.334.611-1.335 1.334 0 .722.556 1.334 1.334 1.334zM178.675 170.617a1.335 1.335 0 100-2.67 1.335 1.335 0 000 2.67zM187.238 170.618c.722 0 1.334-.611 1.334-1.334a1.353 1.353 0 00-1.334-1.334c-.723 0-1.334.612-1.335 1.334 0 .723.556 1.334 1.335 1.334zM195.745 170.619a1.335 1.335 0 100-2.665 1.335 1.335 0 000 2.665zM204.308 167.897c-.723 0-1.334.612-1.335 1.334 0 .723.612 1.334 1.335 1.334.722 0 1.334-.611 1.334-1.334a1.352 1.352 0 00-1.334-1.334zM212.815 170.622c.723 0 1.334-.611 1.335-1.334 0-.722-.612-1.334-1.335-1.334-.722 0-1.334.611-1.334 1.334a1.352 1.352 0 001.334 1.334zM221.322 170.623a1.335 1.335 0 100-2.67 1.335 1.335 0 000 2.67zM229.885 170.624a1.334 1.334 0 10.001-2.669 1.334 1.334 0 00-.001 2.669zM144.589 176.559a1.335 1.335 0 100-2.67 1.335 1.335 0 000 2.67zM153.097 176.56c.722 0 1.334-.611 1.334-1.334a1.353 1.353 0 00-1.334-1.334c-.723 0-1.334.612-1.335 1.334 0 .723.612 1.334 1.335 1.334zM161.604 176.562c.723 0 1.334-.612 1.335-1.334 0-.723-.612-1.334-1.335-1.334-.722 0-1.334.611-1.334 1.334 0 .722.611 1.333 1.334 1.334zM170.167 176.563a1.334 1.334 0 100-2.667 1.334 1.334 0 000 2.667zM178.675 173.896c-.723 0-1.335.611-1.335 1.334 0 .723.611 1.334 1.334 1.334.723 0 1.335-.611 1.335-1.334 0-.722-.556-1.334-1.334-1.334zM187.237 173.897c-.722 0-1.334.612-1.334 1.334a1.351 1.351 0 001.334 1.334c.723 0 1.334-.611 1.335-1.334 0-.722-.612-1.334-1.335-1.334zM195.744 176.566c.723 0 1.335-.611 1.335-1.333 0-.723-.612-1.334-1.334-1.334-.723 0-1.335.611-1.335 1.333 0 .723.611 1.334 1.334 1.334zM204.307 176.568a1.335 1.335 0 100-2.67 1.335 1.335 0 000 2.67zM212.814 176.569c.723 0 1.335-.611 1.335-1.334 0-.722-.612-1.334-1.334-1.334-.723 0-1.335.611-1.335 1.334 0 .722.611 1.334 1.334 1.334zM221.321 176.57a1.335 1.335 0 100-2.67 1.335 1.335 0 000 2.67zM229.884 176.571a1.334 1.334 0 10.001-2.669 1.334 1.334 0 00-.001 2.669zM144.589 182.506a1.334 1.334 0 100-2.667 1.334 1.334 0 000 2.667zM153.096 182.507c.723 0 1.334-.611 1.335-1.334 0-.722-.612-1.334-1.335-1.334-.722 0-1.334.612-1.334 1.334a1.316 1.316 0 001.334 1.334zM161.603 182.508c.723 0 1.335-.611 1.335-1.333 0-.723-.612-1.334-1.334-1.334-.723 0-1.335.611-1.335 1.333 0 .779.611 1.334 1.334 1.334zM170.166 182.51c.723 0 1.334-.612 1.335-1.334 0-.723-.612-1.334-1.335-1.334-.722 0-1.334.611-1.334 1.334-.001.778.555 1.334 1.334 1.334zM178.674 179.843c-.723 0-1.335.611-1.335 1.334 0 .722.611 1.334 1.334 1.334.723 0 1.335-.611 1.335-1.334 0-.722-.556-1.334-1.334-1.334zM187.236 182.512c.723 0 1.334-.611 1.335-1.334 0-.722-.612-1.334-1.334-1.334-.723 0-1.335.612-1.335 1.334 0 .778.555 1.334 1.334 1.334zM197.078 181.18c0-.723-.611-1.334-1.334-1.334-.723 0-1.335.611-1.335 1.333 0 .723.611 1.334 1.334 1.334.723 0 1.335-.555 1.335-1.333zM204.307 179.847c-.723 0-1.335.611-1.335 1.334 0 .722.611 1.334 1.334 1.334.723 0 1.334-.612 1.335-1.334 0-.723-.612-1.334-1.334-1.334zM212.813 182.516c.723 0 1.335-.611 1.335-1.334 0-.723-.611-1.334-1.334-1.334-.723 0-1.335.611-1.335 1.334 0 .778.611 1.334 1.334 1.334zM221.321 179.849c-.723 0-1.335.612-1.335 1.334 0 .723.612 1.334 1.334 1.334.723 0 1.335-.611 1.335-1.334.056-.722-.556-1.334-1.334-1.334zM229.883 182.518a1.335 1.335 0 100-2.67 1.335 1.335 0 000 2.67zM144.588 188.509c.722 0 1.334-.612 1.334-1.334a1.351 1.351 0 00-1.334-1.334c-.723 0-1.334.611-1.334 1.334-.056.722.555 1.333 1.334 1.334zM153.095 188.51c.723 0 1.334-.612 1.335-1.334 0-.723-.612-1.334-1.335-1.334-.722 0-1.334.611-1.334 1.334 0 .722.611 1.334 1.334 1.334zM161.603 185.843c-.723 0-1.335.611-1.335 1.334 0 .723.611 1.334 1.334 1.334.723 0 1.335-.611 1.335-1.334 0-.778-.556-1.334-1.334-1.334zM168.831 187.178c0 .723.611 1.334 1.334 1.334.723 0 1.335-.611 1.335-1.334 0-.722-.612-1.334-1.334-1.334-.779 0-1.335.556-1.335 1.334zM178.672 188.513c.723 0 1.335-.611 1.335-1.333 0-.723-.611-1.334-1.334-1.334-.723 0-1.335.611-1.335 1.333 0 .723.611 1.334 1.334 1.334zM187.235 188.515c.723 0 1.335-.612 1.335-1.334 0-.723-.612-1.334-1.334-1.334-.723 0-1.335.611-1.335 1.334 0 .722.556 1.334 1.334 1.334zM195.742 188.516c.723 0 1.335-.611 1.335-1.334 0-.722-.611-1.334-1.334-1.334-.723 0-1.335.611-1.335 1.334 0 .722.611 1.334 1.334 1.334zM204.306 185.849c-.723 0-1.335.612-1.335 1.334 0 .723.611 1.334 1.334 1.334.723 0 1.335-.611 1.335-1.334 0-.722-.611-1.334-1.334-1.334zM212.813 185.851c-.723 0-1.335.611-1.335 1.333 0 .723.611 1.334 1.334 1.334.723 0 1.335-.611 1.335-1.333 0-.779-.611-1.334-1.334-1.334zM221.319 188.52c.723 0 1.335-.612 1.335-1.334 0-.723-.611-1.334-1.334-1.334-.723 0-1.334.611-1.335 1.334 0 .722.612 1.334 1.334 1.334zM229.882 188.521c.723 0 1.335-.611 1.335-1.334 0-.723-.611-1.334-1.334-1.334-.723 0-1.335.611-1.335 1.334 0 .722.612 1.334 1.334 1.334z" fill="#56CCF2" fill-opacity=".8"/>
  <g filter="url(#filter0_d)">
    <path d="M200.401 19.737c0-5.378-4.363-9.737-9.745-9.737H19.745C14.363 10 10 14.36 10 19.737v131.627c0 5.378 4.363 9.737 9.745 9.737h170.911c5.382 0 9.745-4.359 9.745-9.737V19.737z" fill="#fff"/>
  </g>
  <circle cx="198.771" cy="45.021" r="21.781" fill="#F1F4FE" stroke="#C1D3FA" stroke-width=".854"/>
  <path d="M206.174 37.618l-13.819 13.819m3.948-12.338a2.468 2.468 0 11-4.935 0 2.468 2.468 0 014.935 0zm10.858 10.857a2.468 2.468 0 11-4.936 0 2.468 2.468 0 014.936 0z" stroke="#242830" stroke-width="1.708" stroke-linecap="round" stroke-linejoin="round"/>
  <path d="M88.583 35.642H63.368" stroke="#D8E4FC" stroke-width="4.672" stroke-linecap="round" stroke-linejoin="round"/>
  <path d="M160.797 67.97c.352 0 .69.058 1.014.176.327.116.619.304.875.564.258.26.462.605.614 1.034.151.427.226.953.226 1.578 0 .772-.114 1.434-.343 1.986-.229.55-.552.97-.968 1.264-.414.292-.903.437-1.468.437-.456 0-.859-.088-1.208-.263a2.273 2.273 0 01-.844-.724 2.264 2.264 0 01-.384-1.035h1.425c.056.25.172.443.35.581.178.136.399.204.661.204.445 0 .783-.194 1.014-.581.232-.39.348-.922.351-1.598h-.047c-.151.3-.383.536-.694.707a2.085 2.085 0 01-1.028.257c-.402 0-.763-.095-1.081-.284a2.048 2.048 0 01-.75-.784 2.3 2.3 0 01-.267-1.138 2.323 2.323 0 01.317-1.23c.213-.361.511-.644.894-.848.385-.205.832-.306 1.341-.304zm.01 1.134c-.336 0-.614.115-.834.347a1.19 1.19 0 00-.327.86c-.002.338.105.623.32.855.218.229.494.343.828.343.22 0 .418-.054.594-.163a1.18 1.18 0 00.42-.437c.105-.183.158-.384.16-.604a1.211 1.211 0 00-.157-.6 1.169 1.169 0 00-.41-.438 1.09 1.09 0 00-.594-.163zM164.527 74.916v-1.041l2.433-2.252a6.35 6.35 0 00.71-.778 1.21 1.21 0 00.244-.737c0-.3-.1-.537-.3-.71a1.085 1.085 0 00-.748-.264c-.311 0-.562.094-.754.283-.189.187-.282.444-.28.771h-1.371c0-.447.101-.835.303-1.165.203-.329.485-.583.848-.764.365-.18.786-.27 1.264-.27.49 0 .916.087 1.278.26.365.172.649.41.851.715.203.302.304.651.304 1.047 0 .258-.051.513-.154.764-.102.252-.282.53-.54.838-.256.305-.619.67-1.088 1.097l-.998.978v.047h2.87v1.18h-4.872zM174.186 73.635v-.36c.002-.274.061-.526.177-.755a1.35 1.35 0 01.51-.554c.225-.14.497-.21.818-.21.327 0 .601.07.824.207.225.138.395.323.51.554.116.229.173.482.171.757v.36c.002.274-.056.527-.174.758-.116.23-.286.413-.51.55-.225.14-.499.21-.821.21-.325 0-.6-.07-.824-.21a1.358 1.358 0 01-.508-.55 1.732 1.732 0 01-.173-.757zm-3.507-3.91v-.361a1.68 1.68 0 01.177-.758c.118-.23.288-.415.511-.553.224-.138.496-.207.814-.207.329 0 .605.069.827.207.225.138.395.322.511.553.115.23.172.482.17.758v.36c.002.276-.056.528-.174.758-.115.229-.285.412-.51.55-.225.136-.5.204-.824.204-.325 0-.599-.07-.821-.207a1.348 1.348 0 01-.507-.55 1.698 1.698 0 01-.174-.755zm.327 5.19l4.698-6.832h.871l-4.698 6.833h-.871zm4.151-1.64v.36a.95.95 0 00.117.447c.075.14.214.21.417.21.204 0 .343-.069.417-.207a.904.904 0 00.11-.45v-.36a.95.95 0 00-.103-.454c-.072-.14-.213-.21-.424-.21-.2 0-.339.07-.417.21a.949.949 0 00-.117.453zm-3.5-3.911v.36a.943.943 0 00.117.45c.075.139.211.207.407.207.204 0 .344-.068.42-.206a.893.893 0 00.11-.45v-.361a.92.92 0 00-.107-.454c-.071-.14-.212-.21-.423-.21-.198 0-.335.071-.411.213a1.003 1.003 0 00-.113.45z" fill="#242830"/>
  <path opacity=".1" d="M58.474 71.943H35.565M108.229 72.046H69.792" stroke="#242830" stroke-width="4.245" stroke-linecap="round" stroke-linejoin="round"/>
  <path d="M35.625 91.69h137.521" stroke="#56CCF2" stroke-opacity=".25" stroke-width="8.542" stroke-linecap="round" stroke-linejoin="round"/>
  <path d="M35.625 91.69h124.708" stroke="#56CCF2" stroke-width="8.542" stroke-linecap="round" stroke-linejoin="round"/>
  <path d="M58.474 115.608H35.565M173.846 115.608h-22.908" stroke="#242830" stroke-opacity=".15" stroke-width="4.245" stroke-linecap="round" stroke-linejoin="round"/>
  <path d="M35.625 135.254h137.521" stroke="#242830" stroke-opacity=".08" stroke-width="8.542" stroke-linecap="round" stroke-linejoin="round"/>
  <path d="M41.604 43.313a8.542 8.542 0 100-17.084 8.542 8.542 0 000 17.084z" fill="#F1F5FE" stroke="#6391F3" stroke-width="1.281" stroke-linecap="round" stroke-linejoin="round"/>
  <path d="M41.604 26.23a12.385 12.385 0 010 17.083 12.386 12.386 0 010-17.084v0z" fill="#F1F5FE" stroke="#6391F3" stroke-width="1.281" stroke-linecap="round" stroke-linejoin="round"/>
  <path d="M33.063 34.771h17.083" stroke="#6391F3" stroke-width="1.281" stroke-linecap="round" stroke-linejoin="round"/>
  <path d="M147.619 176.906c2.235-1.779 5.479-1.416 7.245.81s1.385 5.472-.85 7.25c-2.236 1.778-5.48 1.415-7.246-.81-1.766-2.226-1.385-5.472.851-7.25z" fill="url(#paint0_linear)"/>
  <path d="M107.61 126.605a6.2 6.2 0 00-.016-12.397 6.196 6.196 0 00-6.198 6.191 6.2 6.2 0 006.182 6.206h.032z" fill="url(#paint1_linear)"/>
  <path d="M246.202 72.354a9.823 9.823 0 10-.05 0h.05z" fill="url(#paint2_linear)"/>
  <defs>
    <linearGradient id="paint0_linear" x1="145.417" y1="178.657" x2="155.935" y2="183.462" gradientUnits="userSpaceOnUse">
      <stop stop-color="#3C76F0" stop-opacity="0"/>
      <stop offset="1" stop-color="#3C76F0"/>
    </linearGradient>
    <linearGradient id="paint1_linear" x1="116.374" y1="123.432" x2="102.117" y2="119.44" gradientUnits="userSpaceOnUse">
      <stop stop-color="#66C789"/>
      <stop offset="1" stop-color="#66C789" stop-opacity="0"/>
    </linearGradient>
    <linearGradient id="paint2_linear" x1="260.092" y1="67.327" x2="237.497" y2="61" gradientUnits="userSpaceOnUse">
      <stop stop-color="#66C789"/>
      <stop offset="1" stop-color="#66C789" stop-opacity="0"/>
    </linearGradient>
    <filter id="filter0_d" x=".654" y=".654" width="209.093" height="169.793" filterUnits="userSpaceOnUse" color-interpolation-filters="sRGB">
      <feFlood flood-opacity="0" result="BackgroundImageFix"/>
      <feColorMatrix in="SourceAlpha" values="0 0 0 0 0 0 0 0 0 0 0 0 0 0 0 0 0 0 127 0"/>
      <feOffset/>
      <feGaussianBlur stdDeviation="4.673"/>
      <feColorMatrix values="0 0 0 0 0 0 0 0 0 0 0 0 0 0 0 0 0 0 0.12 0"/>
      <feBlend in2="BackgroundImageFix" result="effect1_dropShadow"/>
      <feBlend in="SourceGraphic" in2="effect1_dropShadow" result="shape"/>
    </filter>
  </defs>
</svg>
