<svg width="250" height="188" viewBox="0 0 250 188" fill="none" xmlns="http://www.w3.org/2000/svg">
<path d="M1.39042 1.70101e-09C0.646143 -3.77837e-05 0.016244 0.629441 0.0160669 1.37341C0.0158899 2.11738 0.645489 2.74693 1.38976 2.74696C2.13404 2.747 2.76397 2.11752 2.76415 1.37355C2.76432 0.62958 2.13469 3.77871e-05 1.39042 1.70101e-09Z" fill="#D09EFF"/>
<path d="M10.1495 2.7482C10.8937 2.74824 11.5237 2.11876 11.5239 1.37479C11.5241 0.630815 10.8944 0.00127253 10.1501 0.00123473C9.40583 0.00119693 8.77592 0.630676 8.77574 1.37465C8.77556 2.11862 9.40517 2.74816 10.1495 2.7482Z" fill="#D09EFF"/>
<path d="M18.9092 2.74949C19.6535 2.74953 20.2834 2.12006 20.2835 1.37608C20.2837 0.632113 19.6541 0.00256813 18.9099 0.0025278C18.1656 0.00248746 17.5356 0.631964 17.5355 1.37594C17.5353 2.11991 18.1649 2.74945 18.9092 2.74949Z" fill="#D09EFF"/>
<path d="M27.7261 2.75078C28.4704 2.75082 29.1003 2.12134 29.1005 1.37737C29.1007 0.633395 28.471 0.00385133 27.7267 0.00381281C26.9825 0.0037743 26.3525 0.633252 26.3524 1.37722C26.3522 2.1212 26.9246 2.75074 27.7261 2.75078Z" fill="#D09EFF"/>
<path d="M36.4858 2.75204C37.2301 2.75208 37.86 2.1226 37.8602 1.37863C37.8604 0.634656 37.2307 0.00511287 36.4865 0.00507435C35.7422 0.00503584 35.1123 0.634514 35.1121 1.37849C35.1119 2.12246 35.7415 2.752 36.4858 2.75204Z" fill="#D09EFF"/>
<path d="M45.3034 0.00630773C44.5591 0.00626993 43.9292 0.635749 43.929 1.37972C43.9288 2.12369 44.5585 2.75323 45.3027 2.75327C46.047 2.75331 46.677 2.12383 46.6771 1.37986C46.6773 0.635888 46.0477 0.00634553 45.3034 0.00630773Z" fill="#D09EFF"/>
<path d="M54.0624 2.75456C54.8067 2.7546 55.4366 2.12513 55.4368 1.38116C55.437 0.637185 54.8073 0.00764003 54.063 0.00760008C53.3187 0.00756013 52.6888 0.637037 52.6887 1.38101C52.6885 2.12498 53.3181 2.75452 54.0624 2.75456Z" fill="#D09EFF"/>
<path d="M64.2538 1.38244C64.2539 0.638468 63.6243 0.00892434 62.88 0.00888582C62.1358 0.0088473 61.5058 0.638325 61.5056 1.3823C61.5055 2.12627 62.1351 2.75581 62.8794 2.75585C63.6237 2.75589 64.2536 2.12641 64.2538 1.38244Z" fill="#D09EFF"/>
<path d="M71.6391 2.75711C72.3833 2.75715 73.0133 2.12767 73.0135 1.3837C73.0137 0.639729 72.384 0.0101859 71.6397 0.0101474C70.8954 0.0101089 70.2655 0.639587 70.2653 1.38356C70.2651 2.12753 70.8948 2.75707 71.6391 2.75711Z" fill="#D09EFF"/>
<path d="M81.8304 1.38496C81.8306 0.640988 81.201 0.0114454 80.4567 0.0114076C79.7124 0.0113698 79.0824 0.640849 79.0823 1.38482C79.0821 2.12879 79.7117 2.75833 80.456 2.75837C81.2003 2.75841 81.8302 2.12893 81.8304 1.38496Z" fill="#D09EFF"/>
<path d="M89.2157 2.75964C89.96 2.75968 90.5899 2.1302 90.5901 1.38623C90.5902 0.642258 89.9606 0.012713 89.2163 0.0126731C88.472 0.0126331 87.8421 0.64211 87.8419 1.38608C87.8417 2.13005 88.4714 2.7596 89.2157 2.75964Z" fill="#D09EFF"/>
<path d="M1.38953 6.12344C0.645261 6.1234 0.0153613 6.75288 0.0151835 7.49685C0.0150057 8.24082 0.644604 8.87036 1.38888 8.8704C2.13315 8.87044 2.76309 8.24096 2.76326 7.49699C2.76344 6.75301 2.13381 6.12347 1.38953 6.12344Z" fill="#D09EFF"/>
<path d="M10.1485 8.92887C10.8928 8.92891 11.5228 8.29945 11.523 7.55547C11.5231 6.8115 10.8935 6.18194 10.1492 6.1819C9.4049 6.18186 8.77499 6.81136 8.77482 7.55533C8.77464 8.2993 9.40426 8.92883 10.1485 8.92887Z" fill="#D09EFF"/>
<path d="M18.9083 8.93012C19.6526 8.93016 20.2825 8.3007 20.2827 7.55673C20.2829 6.81276 19.6533 6.1832 18.909 6.18316C18.1647 6.18312 17.5348 6.81262 17.5346 7.55659C17.5344 8.30056 18.1641 8.93008 18.9083 8.93012Z" fill="#D09EFF"/>
<path d="M27.7252 8.93141C28.4695 8.93145 29.0994 8.30199 29.0996 7.55802C29.0998 6.81404 28.4701 6.18449 27.7258 6.18445C26.9815 6.18441 26.3516 6.81391 26.3514 7.55788C26.3513 8.30185 26.9236 8.93137 27.7252 8.93141Z" fill="#D09EFF"/>
<path d="M36.4849 8.93267C37.2292 8.93271 37.8591 8.30325 37.8593 7.55928C37.8595 6.81531 37.2298 6.18575 36.4855 6.18571C35.7413 6.18567 35.1113 6.81517 35.1112 7.55914C35.111 8.30311 35.7406 8.93264 36.4849 8.93267Z" fill="#D09EFF"/>
<path d="M45.3025 6.12975C44.5582 6.12971 43.9283 6.75919 43.9281 7.50316C43.9279 8.24713 44.5576 8.87667 45.3018 8.87671C46.0461 8.87675 46.6761 8.24727 46.6762 7.5033C46.6764 6.75933 46.0468 6.12979 45.3025 6.12975Z" fill="#D09EFF"/>
<path d="M54.0615 8.9352C54.8058 8.93523 55.4358 8.30577 55.4359 7.5618C55.4361 6.81783 54.8065 6.18827 54.0622 6.18823C53.3179 6.18819 52.688 6.81769 52.6878 7.56166C52.6876 8.30563 53.3172 8.93516 54.0615 8.9352Z" fill="#D09EFF"/>
<path d="M62.8785 8.93649C63.6228 8.93653 64.2527 8.30707 64.2529 7.56309C64.253 6.81912 63.6234 6.18956 62.8791 6.18952C62.1349 6.18948 61.5049 6.81898 61.5047 7.56295C61.4473 8.30692 62.077 8.93645 62.8785 8.93649Z" fill="#D09EFF"/>
<path d="M71.6381 8.93775C72.3824 8.93779 73.0124 8.30833 73.0126 7.56435C73.0127 6.82038 72.3831 6.19082 71.6388 6.19078C70.8945 6.19074 70.2646 6.82024 70.2644 7.56421C70.2642 8.30818 70.8939 8.93771 71.6381 8.93775Z" fill="#D09EFF"/>
<path d="M80.3978 8.93898C81.1421 8.93902 81.772 8.30956 81.7722 7.56559C81.7724 6.82162 81.1427 6.19206 80.3985 6.19202C79.6542 6.19198 79.0243 6.82148 79.0241 7.56545C79.0239 8.30942 79.6535 8.93894 80.3978 8.93898Z" fill="#D09EFF"/>
<path d="M89.2148 8.94027C89.9591 8.94031 90.589 8.31085 90.5892 7.56687C90.5894 6.8229 89.9598 6.19334 89.2155 6.1933C88.4712 6.19327 87.8412 6.82276 87.8411 7.56673C87.8409 8.31071 88.4705 8.94023 89.2148 8.94027Z" fill="#D09EFF"/>
<path d="M1.38796 15.051C2.13223 15.0511 2.76217 14.4216 2.76234 13.6776C2.76252 12.9337 2.13288 12.3041 1.38861 12.3041C0.644335 12.304 0.0144377 12.9335 0.0142621 13.6775C0.0140864 14.4215 0.586435 15.051 1.38796 15.051Z" fill="#D09EFF"/>
<path d="M10.1477 15.0523C10.892 15.0523 11.5219 14.4229 11.5221 13.6789C11.5223 12.9349 10.8926 12.3054 10.1484 12.3053C9.40407 12.3053 8.77416 12.9348 8.77399 13.6788C8.77381 14.4227 9.40342 15.0523 10.1477 15.0523Z" fill="#D09EFF"/>
<path d="M18.9081 12.3066C18.1638 12.3066 17.5339 12.9361 17.5337 13.68C17.5335 14.424 18.1632 15.0535 18.9074 15.0536C19.6517 15.0536 20.2816 14.4241 20.2818 13.6802C20.282 12.9362 19.7096 12.3066 18.9081 12.3066Z" fill="#D09EFF"/>
<path d="M27.7243 15.0548C28.4686 15.0549 29.0985 14.4254 29.0987 13.6815C29.0989 12.9375 28.4692 12.3079 27.7249 12.3079C26.9806 12.3078 26.3507 12.9373 26.3506 13.6813C26.3504 14.4253 26.9227 15.0548 27.7243 15.0548Z" fill="#D09EFF"/>
<path d="M36.484 15.0561C37.2283 15.0561 37.8583 14.4267 37.8584 13.6827C37.8586 12.9387 37.229 12.3092 36.4847 12.3091C35.7404 12.3091 35.1105 12.9386 35.1103 13.6825C35.1101 14.4265 35.7397 15.056 36.484 15.0561Z" fill="#D09EFF"/>
<path d="M45.301 15.0574C46.0453 15.0574 46.6752 14.4279 46.6754 13.684C46.6756 12.94 46.0459 12.3104 45.3016 12.3104C44.5574 12.3104 43.9274 12.9399 43.9272 13.6838C43.9271 14.4278 44.4995 15.0573 45.301 15.0574Z" fill="#D09EFF"/>
<path d="M54.0606 15.0586C54.8049 15.0587 55.4349 14.4292 55.4351 13.6852C55.4352 12.9413 54.8056 12.3117 54.0613 12.3117C53.317 12.3116 52.6871 12.9411 52.6869 13.6851C52.6867 14.4291 53.3164 15.0586 54.0606 15.0586Z" fill="#D09EFF"/>
<path d="M62.8782 12.313C62.1339 12.3129 61.504 12.9424 61.5038 13.6864C61.5036 14.4304 62.1333 15.0599 62.8776 15.0599C63.6219 15.06 64.2518 14.4305 64.252 13.6865C64.2521 12.9426 63.6225 12.313 62.8782 12.313Z" fill="#D09EFF"/>
<path d="M71.6373 15.0612C72.3816 15.0612 73.0115 14.4318 73.0117 13.6878C73.0119 12.9438 72.3822 12.3143 71.6379 12.3142C70.8936 12.3142 70.2637 12.9437 70.2635 13.6876C70.2633 14.4316 70.893 15.0611 71.6373 15.0612Z" fill="#D09EFF"/>
<path d="M80.3969 15.0624C81.1412 15.0625 81.7711 14.433 81.7713 13.689C81.7715 12.9451 81.1418 12.3155 80.3976 12.3155C79.6533 12.3154 79.0234 12.9449 79.0232 13.6889C79.023 14.4329 79.6526 15.0624 80.3969 15.0624Z" fill="#D09EFF"/>
<path d="M89.2146 12.3167C88.4703 12.3167 87.8403 12.9462 87.8402 13.6902C87.84 14.4341 88.4697 15.0637 89.2139 15.0637C89.9582 15.0637 90.5881 14.4343 90.5883 13.6903C90.5885 12.9463 89.9589 12.3168 89.2146 12.3167Z" fill="#D09EFF"/>
<path d="M1.38713 21.1745C2.14599 21.1745 2.76133 20.5596 2.76151 19.801C2.76169 19.0425 2.14664 18.4275 1.38778 18.4275C0.628917 18.4275 0.0136116 19.0423 0.0134311 19.8009C0.0132505 20.5595 0.628263 21.1744 1.38713 21.1745Z" fill="#D09EFF"/>
<path d="M10.1475 18.4288C9.40319 18.4288 8.77328 19.0582 8.7731 19.8022C8.77293 20.5462 9.40254 21.1757 10.1468 21.1758C10.8911 21.1758 11.5211 20.5463 11.5212 19.8023C11.5214 19.0584 10.8918 18.4288 10.1475 18.4288Z" fill="#D09EFF"/>
<path d="M18.9072 18.43C18.1629 18.43 17.533 19.0595 17.5328 19.8034C17.5326 20.5474 18.1623 21.177 18.9065 21.177C19.6508 21.177 20.2807 20.5475 20.2809 19.8036C20.2811 19.0596 19.7087 18.4301 18.9072 18.43Z" fill="#D09EFF"/>
<path d="M27.7234 21.1783C28.4677 21.1783 29.0976 20.5488 29.0978 19.8048C29.098 19.0609 28.4683 18.4313 27.7241 18.4313C26.9798 18.4313 26.3499 19.0607 26.3497 19.8047C26.3495 20.6059 26.9219 21.1782 27.7234 21.1783Z" fill="#D09EFF"/>
<path d="M36.4831 21.1795C37.2274 21.1796 37.8574 20.5501 37.8575 19.8061C37.8577 19.0621 37.2281 18.4326 36.4838 18.4326C35.7395 18.4325 35.1096 19.062 35.1094 19.806C35.1092 20.5499 35.7388 21.1795 36.4831 21.1795Z" fill="#D09EFF"/>
<path d="M45.3008 18.4338C44.5565 18.4338 43.9265 19.0633 43.9264 19.8072C43.9262 20.5512 44.5558 21.1808 45.3001 21.1808C46.0444 21.1808 46.6743 20.5513 46.6745 19.8074C46.6747 19.0634 46.045 18.4339 45.3008 18.4338Z" fill="#D09EFF"/>
<path d="M54.0597 21.1821C54.804 21.1821 55.434 20.5526 55.4342 19.8086C55.4343 19.0647 54.8047 18.4351 54.0604 18.4351C53.3161 18.4351 52.6862 19.0645 52.686 19.8085C52.6858 20.6097 53.3155 21.182 54.0597 21.1821Z" fill="#D09EFF"/>
<path d="M62.8773 18.4364C62.1331 18.4363 61.5031 19.0658 61.5029 19.8098C61.5028 20.5537 62.1324 21.1833 62.8767 21.1833C63.621 21.1834 64.2509 20.5539 64.2511 19.8099C64.2512 19.0659 63.6216 18.4364 62.8773 18.4364Z" fill="#D09EFF"/>
<path d="M71.6364 21.1846C72.3807 21.1846 73.0106 20.5551 73.0108 19.8112C73.011 19.0672 72.3813 18.4377 71.637 18.4376C70.8927 18.4376 70.2628 19.0671 70.2626 19.811C70.2624 20.6122 70.8921 21.1846 71.6364 21.1846Z" fill="#D09EFF"/>
<path d="M80.3961 21.1859C81.1403 21.1859 81.7703 20.5564 81.7704 19.8124C81.7706 19.0685 81.141 18.4389 80.3967 18.4389C79.6524 18.4389 79.0225 19.0683 79.0224 19.8123C79.0222 20.6135 79.6518 21.1858 80.3961 21.1859Z" fill="#D09EFF"/>
<path d="M89.213 21.1871C89.9719 21.1872 90.5872 20.5723 90.5874 19.8137C90.5876 19.0552 89.9726 18.4402 89.2137 18.4402C88.4548 18.4401 87.8395 19.055 87.8393 19.8136C87.8391 20.5721 88.4542 21.1871 89.213 21.1871Z" fill="#D09EFF"/>
<path d="M1.38621 27.3551C2.13048 27.3551 2.76041 26.7257 2.76059 25.9817C2.76076 25.2378 2.13113 24.6082 1.38686 24.6082C0.642595 24.6081 0.0127002 25.2376 0.0125229 25.9816C-0.0449059 26.7256 0.584689 27.3551 1.38621 27.3551Z" fill="#D09EFF"/>
<path d="M10.1459 27.3563C10.8902 27.3564 11.5201 26.7269 11.5203 25.983C11.5205 25.239 10.8908 24.6094 10.1466 24.6094C9.40227 24.6094 8.77236 25.2389 8.77218 25.9828C8.77201 26.7268 9.40162 27.3563 10.1459 27.3563Z" fill="#D09EFF"/>
<path d="M18.9056 27.3576C19.6499 27.3577 20.2798 26.7282 20.28 25.9843C20.2802 25.2403 19.6506 24.6107 18.9063 24.6107C18.162 24.6107 17.5321 25.2401 17.5319 25.9841C17.5317 26.7281 18.1614 27.3576 18.9056 27.3576Z" fill="#D09EFF"/>
<path d="M27.7225 27.3589C28.4668 27.3589 29.0968 26.7295 29.0969 25.9855C29.0971 25.2415 28.4675 24.612 27.7232 24.612C26.9789 24.6119 26.349 25.2414 26.3488 25.9854C26.3486 26.7293 26.921 27.3589 27.7225 27.3589Z" fill="#D09EFF"/>
<path d="M36.4823 27.3602C37.2265 27.3602 37.8565 26.7308 37.8567 25.9868C37.8568 25.2428 37.2272 24.6133 36.4829 24.6132C35.7386 24.6132 35.1087 25.2427 35.1085 25.9867C35.1084 26.7306 35.738 27.3601 36.4823 27.3602Z" fill="#D09EFF"/>
<path d="M45.2992 27.3614C46.0435 27.3615 46.6734 26.732 46.6736 25.988C46.6738 25.2441 46.0441 24.6145 45.2998 24.6145C44.5556 24.6144 43.9256 25.2439 43.9254 25.9879C43.9253 26.7319 44.4977 27.3614 45.2992 27.3614Z" fill="#D09EFF"/>
<path d="M54.0588 27.3627C54.8031 27.3628 55.4331 26.7333 55.4332 25.9893C55.4334 25.2454 54.8038 24.6158 54.0595 24.6158C53.3152 24.6157 52.6853 25.2452 52.6851 25.9892C52.6849 26.7331 53.3146 27.3627 54.0588 27.3627Z" fill="#D09EFF"/>
<path d="M62.8758 27.364C63.6201 27.364 64.25 26.7346 64.2502 25.9906C64.2504 25.2467 63.6208 24.6171 62.8765 24.6171C62.1322 24.617 61.5023 25.2465 61.5021 25.9905C61.4447 26.7344 62.0743 27.364 62.8758 27.364Z" fill="#D09EFF"/>
<path d="M71.6355 27.3653C72.3798 27.3653 73.0097 26.7358 73.0099 25.9919C73.0101 25.2479 72.3804 24.6184 71.6361 24.6183C70.8919 24.6183 70.2619 25.2478 70.2617 25.9917C70.2616 26.7357 70.8912 27.3652 71.6355 27.3653Z" fill="#D09EFF"/>
<path d="M81.8268 25.9931C81.827 25.2491 81.1974 24.6196 80.4531 24.6196C79.7088 24.6195 79.0789 25.249 79.0787 25.993C79.0785 26.7369 79.7082 27.3665 80.4525 27.3665C81.1968 27.3665 81.8267 26.7371 81.8268 25.9931Z" fill="#D09EFF"/>
<path d="M89.2128 24.6208C88.4685 24.6208 87.8386 25.2503 87.8384 25.9943C87.8382 26.7382 88.4678 27.3677 89.2121 27.3678C89.9564 27.3678 90.5863 26.7384 90.5865 25.9944C90.5867 25.1932 89.9571 24.6209 89.2128 24.6208Z" fill="#D09EFF"/>
<path d="M1.38532 33.4785C2.12959 33.4786 2.75952 32.8491 2.7597 32.1051C2.75988 31.3611 2.13025 30.7316 1.38598 30.7316C0.641713 30.7315 0.0118162 31.361 0.0116367 32.105C-0.0457942 32.8489 0.583799 33.4785 1.38532 33.4785Z" fill="#D09EFF"/>
<path d="M10.145 33.4798C10.8893 33.4799 11.5193 32.8504 11.5194 32.1064C11.5196 31.3624 10.89 30.7329 10.1457 30.7329C9.40138 30.7328 8.77148 31.3623 8.7713 32.1063C8.77113 32.8502 9.40074 33.4798 10.145 33.4798Z" fill="#D09EFF"/>
<path d="M18.9047 33.4811C19.649 33.4811 20.2789 32.8516 20.2791 32.1076C20.2793 31.3637 19.6497 30.7341 18.9054 30.7341C18.1611 30.7341 17.5312 31.3635 17.531 32.1075C17.5308 32.8515 18.1605 33.481 18.9047 33.4811Z" fill="#D09EFF"/>
<path d="M27.7217 33.4824C28.4805 33.4824 29.0959 32.8675 29.0961 32.109C29.0962 31.3504 28.4812 30.7355 27.7223 30.7354C26.9634 30.7354 26.3481 31.3503 26.3479 32.1088C26.3477 32.8674 26.9628 33.4823 27.7217 33.4824Z" fill="#D09EFF"/>
<path d="M36.4814 33.4836C37.2256 33.4837 37.8556 32.8542 37.8558 32.1102C37.856 31.3662 37.2263 30.7367 36.482 30.7367C35.7377 30.7366 35.1078 31.3661 35.1076 32.1101C35.1075 32.854 35.7371 33.4836 36.4814 33.4836Z" fill="#D09EFF"/>
<path d="M45.2983 33.4849C46.0426 33.485 46.6725 32.8555 46.6727 32.1115C46.6729 31.3675 46.0432 30.738 45.2989 30.7379C44.5547 30.7379 43.9247 31.3674 43.9245 32.1113C43.9244 32.8553 44.4968 33.4849 45.2983 33.4849Z" fill="#D09EFF"/>
<path d="M54.0579 33.4861C54.8022 33.4862 55.4322 32.8567 55.4323 32.1127C55.4325 31.3687 54.8029 30.7392 54.0586 30.7392C53.3143 30.7391 52.6844 31.3686 52.6842 32.1126C52.684 32.8565 53.3137 33.4861 54.0579 33.4861Z" fill="#D09EFF"/>
<path d="M62.8749 33.4875C63.6338 33.4875 64.2491 32.8726 64.2493 32.114C64.2495 31.3555 63.6345 30.7405 62.8756 30.7405C62.1167 30.7405 61.5014 31.3553 61.5012 32.1139C61.501 32.8724 62.1161 33.4874 62.8749 33.4875Z" fill="#D09EFF"/>
<path d="M71.6346 33.4887C72.3789 33.4887 73.0089 32.8592 73.009 32.1153C73.0092 31.3713 72.3796 30.7418 71.6353 30.7417C70.891 30.7417 70.261 31.3712 70.2609 32.1151C70.2607 32.8591 70.8903 33.4887 71.6346 33.4887Z" fill="#D09EFF"/>
<path d="M80.3942 33.49C81.1385 33.49 81.7685 32.8605 81.7686 32.1165C81.7688 31.3726 81.1392 30.743 80.3949 30.743C79.6506 30.743 79.0207 31.3724 79.0206 32.1164C79.0204 32.8604 79.65 33.4899 80.3942 33.49Z" fill="#D09EFF"/>
<path d="M89.2119 30.7443C88.4676 30.7442 87.8377 31.3737 87.8375 32.1176C87.8373 32.8616 88.467 33.4912 89.2112 33.4912C89.9555 33.4913 90.5854 32.8618 90.5856 32.1178C90.5858 31.3738 89.9562 30.7443 89.2119 30.7443Z" fill="#D09EFF"/>
<path d="M1.38443 39.6592C2.14329 39.6592 2.75863 39.0443 2.75881 38.2858C2.75899 37.5272 2.14394 36.9123 1.38507 36.9122C0.626211 36.9122 0.0109067 37.5271 0.0107276 38.2856C0.0105485 39.0442 0.625563 39.6591 1.38443 39.6592Z" fill="#D09EFF"/>
<path d="M10.1448 36.8563C9.40048 36.8562 8.77057 37.4857 8.77039 38.2297C8.77022 38.9736 9.39983 39.6032 10.1441 39.6032C10.8884 39.6033 11.5183 38.9738 11.5185 38.2298C11.5187 37.4859 10.8891 36.8563 10.1448 36.8563Z" fill="#D09EFF"/>
<path d="M18.9046 36.8576C18.1603 36.8576 17.5303 37.487 17.5302 38.231C17.53 38.975 18.1596 39.6045 18.9039 39.6046C19.6482 39.6046 20.2781 38.9751 20.2782 38.2311C20.2784 37.4872 19.7061 36.8576 18.9046 36.8576Z" fill="#D09EFF"/>
<path d="M27.7207 39.663C28.4796 39.6631 29.095 39.0482 29.0951 38.2896C29.0953 37.5311 28.4803 36.9161 27.7214 36.9161C26.9625 36.916 26.3472 37.5309 26.347 38.2895C26.3468 39.048 26.9618 39.663 27.7207 39.663Z" fill="#D09EFF"/>
<path d="M36.4805 39.6643C37.2247 39.6643 37.8547 39.0348 37.8549 38.2909C37.855 37.5469 37.2254 36.9173 36.4811 36.9173C35.7368 36.9173 35.1069 37.5468 35.1067 38.2907C35.1066 39.0347 35.7362 39.6642 36.4805 39.6643Z" fill="#D09EFF"/>
<path d="M45.2974 39.6655C46.0417 39.6656 46.6716 39.0361 46.6718 38.2922C46.672 37.5482 46.0424 36.9186 45.2981 36.9186C44.5538 36.9185 43.9239 37.548 43.9237 38.292C43.9235 39.036 44.4959 39.6655 45.2974 39.6655Z" fill="#D09EFF"/>
<path d="M54.0571 39.6668C54.816 39.6668 55.4313 39.0519 55.4315 38.2934C55.4317 37.5348 54.8166 36.9199 54.0577 36.9198C53.2989 36.9198 52.6835 37.5347 52.6834 38.2932C52.6832 39.0518 53.2982 39.6667 54.0571 39.6668Z" fill="#D09EFF"/>
<path d="M62.8747 36.8639C62.1304 36.8639 61.5005 37.4933 61.5003 38.2373C61.5001 38.9813 62.1298 39.6108 62.874 39.6109C63.6183 39.6109 64.2482 38.9814 64.2484 38.2374C64.2486 37.4935 63.619 36.8639 62.8747 36.8639Z" fill="#D09EFF"/>
<path d="M71.6337 39.6693C72.378 39.6694 73.0079 39.0399 73.0081 38.2959C73.0083 37.552 72.3786 36.9224 71.6344 36.9224C70.8901 36.9223 70.2601 37.5518 70.2599 38.2958C70.2598 39.0398 70.8894 39.6693 71.6337 39.6693Z" fill="#D09EFF"/>
<path d="M80.3934 39.6706C81.1376 39.6706 81.7676 39.0412 81.7677 38.2972C81.7679 37.5532 81.1383 36.9237 80.394 36.9236C79.6497 36.9236 79.0198 37.5531 79.0197 38.2971C79.0195 39.041 79.6491 39.6706 80.3934 39.6706Z" fill="#D09EFF"/>
<path d="M89.2104 39.6719C89.9692 39.6719 90.5846 39.057 90.5848 38.2985C90.5849 37.5399 89.9699 36.9249 89.211 36.9249C88.4522 36.9248 87.8368 37.5398 87.8366 38.2983C87.8364 39.0569 88.4515 39.6718 89.2104 39.6719Z" fill="#D09EFF"/>
<path d="M1.38357 45.7827C2.14243 45.7827 2.75777 45.1678 2.75795 44.4092C2.75813 43.6507 2.14308 43.0357 1.38422 43.0357C0.625356 43.0357 0.0100503 43.6506 0.00986972 44.4091C0.00968919 45.1677 0.624702 45.7826 1.38357 45.7827Z" fill="#D09EFF"/>
<path d="M10.1433 45.7839C10.9021 45.7839 11.5175 45.169 11.5177 44.4105C11.5179 43.6519 10.9028 43.037 10.1439 43.0369C9.38504 43.0369 8.76972 43.6518 8.76954 44.4103C8.76936 45.1689 9.38438 45.7839 10.1433 45.7839Z" fill="#D09EFF"/>
<path d="M18.9036 43.0382C18.1594 43.0382 17.5294 43.6676 17.5292 44.4116C17.5291 45.1556 18.1587 45.7851 18.903 45.7852C19.6472 45.7852 20.2771 45.1557 20.2773 44.4117C20.2775 43.6678 19.7052 43.0382 18.9036 43.0382Z" fill="#D09EFF"/>
<path d="M27.7198 45.7864C28.4641 45.7865 29.0941 45.157 29.0943 44.413C29.0944 43.669 28.4648 43.0395 27.7205 43.0395C26.9762 43.0394 26.3463 43.6689 26.3461 44.4129C26.3459 45.1568 26.9183 45.7864 27.7198 45.7864Z" fill="#D09EFF"/>
<path d="M36.4796 45.7877C37.2238 45.7877 37.8538 45.1582 37.854 44.4143C37.8541 43.6703 37.2245 43.0408 36.4802 43.0407C35.7359 43.0407 35.106 43.6702 35.1058 44.4141C35.1057 45.1581 35.7353 45.7877 36.4796 45.7877Z" fill="#D09EFF"/>
<path d="M45.2965 45.789C46.0408 45.789 46.6708 45.1595 46.6709 44.4155C46.6711 43.6716 46.0415 43.0421 45.2972 43.042C44.5529 43.042 43.923 43.6714 43.9228 44.4154C43.9226 45.1594 44.495 45.7889 45.2965 45.789Z" fill="#D09EFF"/>
<path d="M54.0562 45.7902C54.8005 45.7903 55.4304 45.1608 55.4306 44.4168C55.4308 43.6728 54.8011 43.0433 54.0568 43.0433C53.3125 43.0432 52.6826 43.6727 52.6825 44.4167C52.6823 45.1606 53.3119 45.7902 54.0562 45.7902Z" fill="#D09EFF"/>
<path d="M62.8738 43.0445C62.1295 43.0445 61.4996 43.674 61.4994 44.4179C61.4992 45.1619 62.1289 45.7915 62.8731 45.7915C63.6174 45.7915 64.2473 45.1621 64.2475 44.4181C64.2477 43.6741 63.6181 43.0446 62.8738 43.0445Z" fill="#D09EFF"/>
<path d="M71.6328 45.7928C72.3771 45.7928 73.0071 45.1633 73.0072 44.4193C73.0074 43.6754 72.3777 43.0458 71.6335 43.0458C70.8892 43.0458 70.2592 43.6752 70.259 44.4192C70.2589 45.1632 70.8885 45.7927 71.6328 45.7928Z" fill="#D09EFF"/>
<path d="M80.3925 45.7941C81.1514 45.7941 81.7667 45.1792 81.7669 44.4207C81.7671 43.6621 81.152 43.0472 80.3932 43.0471C79.6343 43.0471 79.019 43.662 79.0188 44.4205C79.0186 45.1791 79.6336 45.794 80.3925 45.7941Z" fill="#D09EFF"/>
<path d="M89.2095 45.7953C89.9684 45.7954 90.5837 45.1804 90.5839 44.4219C90.584 43.6633 89.969 43.0484 89.2101 43.0484C88.4513 43.0483 87.8359 43.6632 87.8357 44.4217C87.8355 45.1803 88.4506 45.7953 89.2095 45.7953Z" fill="#D09EFF"/>
<path d="M1.38268 51.9061C2.14155 51.9061 2.75689 51.2912 2.75707 50.5326C2.75725 49.7741 2.1422 49.1591 1.38334 49.1591C0.624474 49.1591 0.0091682 49.7739 0.00898767 50.5325C0.00880713 51.2911 0.62382 51.906 1.38268 51.9061Z" fill="#D09EFF"/>
<path d="M10.1424 51.9074C10.8866 51.9074 11.5166 51.2779 11.5168 50.5339C11.5169 49.79 10.8873 49.1604 10.143 49.1604C9.39872 49.1604 8.76881 49.7898 8.76863 50.5338C8.76844 51.335 9.39807 51.9073 10.1424 51.9074Z" fill="#D09EFF"/>
<path d="M18.9021 51.9086C19.6464 51.9086 20.2763 51.2791 20.2764 50.5352C20.2766 49.7912 19.647 49.1617 18.9027 49.1616C18.1585 49.1616 17.5285 49.7911 17.5284 50.535C17.5282 51.3362 18.1578 51.9086 18.9021 51.9086Z" fill="#D09EFF"/>
<path d="M27.7189 51.9099C28.4778 51.9099 29.0932 51.295 29.0933 50.5365C29.0935 49.7779 28.4785 49.163 27.7196 49.1629C26.9607 49.1629 26.3454 49.7778 26.3452 50.5363C26.345 51.2949 26.9601 51.9098 27.7189 51.9099Z" fill="#D09EFF"/>
<path d="M36.4787 51.9111C37.2376 51.9112 37.8529 51.2963 37.8531 50.5377C37.8533 49.7792 37.2382 49.1642 36.4794 49.1642C35.7205 49.1641 35.1052 49.779 35.105 50.5376C35.1048 51.2961 35.7198 51.9111 36.4787 51.9111Z" fill="#D09EFF"/>
<path d="M45.2963 49.1655C44.552 49.1654 43.9221 49.7949 43.9219 50.5389C43.9217 51.2828 44.5514 51.9124 45.2956 51.9124C46.0399 51.9125 46.6699 51.283 46.67 50.539C46.6702 49.795 46.0406 49.1655 45.2963 49.1655Z" fill="#D09EFF"/>
<path d="M54.0553 51.9137C54.8142 51.9137 55.4295 51.2988 55.4297 50.5402C55.4299 49.7817 54.8148 49.1667 54.0559 49.1667C53.2971 49.1667 52.6817 49.7815 52.6816 50.5401C52.6814 51.2987 53.2964 51.9136 54.0553 51.9137Z" fill="#D09EFF"/>
<path d="M62.8722 51.915C63.6311 51.915 64.2464 51.3001 64.2466 50.5415C64.2468 49.783 63.6318 49.168 62.8729 49.168C62.114 49.168 61.4987 49.7828 61.4985 50.5414C61.4983 51.2999 62.1134 51.9149 62.8722 51.915Z" fill="#D09EFF"/>
<path d="M71.632 51.9162C72.3763 51.9163 73.0062 51.2868 73.0064 50.5428C73.0066 49.7988 72.3769 49.1693 71.6326 49.1693C70.8883 49.1692 70.2584 49.7987 70.2582 50.5426C70.258 51.3438 70.8877 51.9162 71.632 51.9162Z" fill="#D09EFF"/>
<path d="M80.3923 49.1705C79.648 49.1705 79.0181 49.8 79.0179 50.5439C79.0178 51.2879 79.6474 51.9175 80.3916 51.9175C81.1359 51.9175 81.7659 51.288 81.766 50.5441C81.8235 49.8001 81.1938 49.1706 80.3923 49.1705Z" fill="#D09EFF"/>
<path d="M89.2086 51.9187C89.9675 51.9188 90.5828 51.3039 90.583 50.5453C90.5832 49.7868 89.9681 49.1718 89.2093 49.1718C88.4504 49.1717 87.835 49.7866 87.8348 50.5452C87.8347 51.3037 88.4497 51.9187 89.2086 51.9187Z" fill="#D09EFF"/>
<path d="M1.38177 58.0867C2.14063 58.0868 2.75597 57.4719 2.75615 56.7133C2.75632 55.9548 2.14127 55.3398 1.38241 55.3398C0.623548 55.3397 0.00824457 55.9546 0.00806628 56.7132C0.00788798 57.4717 0.622903 58.0867 1.38177 58.0867Z" fill="#D09EFF"/>
<path d="M10.1415 58.088C10.8857 58.088 11.5157 57.4585 11.5159 56.7146C11.516 55.9706 10.8864 55.3411 10.1421 55.341C9.39782 55.341 8.76791 55.9704 8.76774 56.7144C8.76756 57.4584 9.39717 58.0879 10.1415 58.088Z" fill="#D09EFF"/>
<path d="M18.9012 58.0892C19.6455 58.0893 20.2754 57.4598 20.2755 56.7158C20.2757 55.9719 19.6461 55.3424 18.9018 55.3423C18.1576 55.3423 17.5276 55.9717 17.5275 56.7157C17.5273 57.4596 18.1569 58.0892 18.9012 58.0892Z" fill="#D09EFF"/>
<path d="M27.7181 58.0905C28.477 58.0905 29.0923 57.4756 29.0925 56.7171C29.0927 55.9585 28.4776 55.3436 27.7187 55.3436C26.9599 55.3435 26.3445 55.9584 26.3444 56.7169C26.3442 57.4755 26.9592 58.0905 27.7181 58.0905Z" fill="#D09EFF"/>
<path d="M36.4778 58.0918C37.2367 58.0918 37.852 57.4769 37.8522 56.7184C37.8524 55.9598 37.2373 55.3449 36.4785 55.3449C35.7196 55.3448 35.1043 55.9597 35.1041 56.7182C35.1039 57.4768 35.7189 58.0918 36.4778 58.0918Z" fill="#D09EFF"/>
<path d="M45.2947 58.093C46.039 58.0931 46.669 57.4636 46.6691 56.7196C46.6693 55.9757 46.0397 55.3461 45.2954 55.3461C44.5511 55.3461 43.9212 55.9755 43.921 56.7195C43.9208 57.4634 44.4932 58.093 45.2947 58.093Z" fill="#D09EFF"/>
<path d="M54.0544 58.0943C54.8133 58.0944 55.4286 57.4795 55.4288 56.7209C55.429 55.9624 54.8139 55.3474 54.055 55.3474C53.2962 55.3473 52.6808 55.9622 52.6807 56.7208C52.6805 57.4793 53.2955 58.0943 54.0544 58.0943Z" fill="#D09EFF"/>
<path d="M62.8714 58.0956C63.6303 58.0956 64.2456 57.4807 64.2458 56.7222C64.2459 55.9636 63.6309 55.3487 62.872 55.3486C62.1132 55.3486 61.4978 55.9635 61.4976 56.722C61.4974 57.4806 62.1125 58.0955 62.8714 58.0956Z" fill="#D09EFF"/>
<path d="M71.6311 58.0969C72.3753 58.0969 73.0053 57.4674 73.0055 56.7234C73.0056 55.9795 72.376 55.35 71.6317 55.3499C70.8874 55.3499 70.2575 55.9793 70.2573 56.7233C70.2571 57.4673 70.8868 58.0968 71.6311 58.0969Z" fill="#D09EFF"/>
<path d="M80.3907 58.0981C81.1496 58.0982 81.7649 57.4833 81.7651 56.7247C81.7653 55.9662 81.1502 55.3512 80.3913 55.3512C79.6325 55.3512 79.0172 55.966 79.017 56.7246C79.0168 57.4831 79.6318 58.0981 80.3907 58.0981Z" fill="#D09EFF"/>
<path d="M89.2077 58.0994C89.9666 58.0994 90.5819 57.4845 90.5821 56.726C90.5822 55.9674 89.9672 55.3525 89.2083 55.3525C88.4494 55.3524 87.8341 55.9673 87.8339 56.7258C87.8337 57.4844 88.4488 58.0994 89.2077 58.0994Z" fill="#D09EFF"/>
<path d="M1.38088 64.2102C2.13974 64.2102 2.75508 63.5953 2.75526 62.8367C2.75544 62.0782 2.14039 61.4632 1.38153 61.4632C0.622666 61.4632 0.00736187 62.078 0.0071828 62.8366C0.00700372 63.5951 0.622018 64.2101 1.38088 64.2102Z" fill="#D09EFF"/>
<path d="M10.1412 61.4645C9.39691 61.4644 8.76701 62.0939 8.76683 62.8379C8.76666 63.5818 9.39627 64.2114 10.1406 64.2114C10.8848 64.2115 11.5148 63.582 11.515 62.838C11.5151 62.094 10.8855 61.4645 10.1412 61.4645Z" fill="#D09EFF"/>
<path d="M17.5266 62.8391C17.5264 63.5831 18.1561 64.2127 18.9003 64.2127C19.6446 64.2127 20.2745 63.5832 20.2747 62.8393C20.2749 62.0953 19.6453 61.4658 18.901 61.4657C18.1567 61.4657 17.5268 62.0952 17.5266 62.8391Z" fill="#D09EFF"/>
<path d="M27.7172 64.214C28.4761 64.214 29.0914 63.5991 29.0916 62.8406C29.0918 62.082 28.4767 61.4671 27.7178 61.467C26.959 61.467 26.3436 62.0819 26.3435 62.8404C26.3433 63.599 26.9583 64.214 27.7172 64.214Z" fill="#D09EFF"/>
<path d="M36.4769 64.2152C37.2358 64.2153 37.8511 63.6004 37.8513 62.8418C37.8515 62.0832 37.2364 61.4683 36.4776 61.4683C35.7187 61.4682 35.1034 62.0831 35.1032 62.8417C35.103 63.6002 35.718 64.2152 36.4769 64.2152Z" fill="#D09EFF"/>
<path d="M45.2938 64.2165C46.0381 64.2166 46.6681 63.5871 46.6682 62.8431C46.6684 62.0991 46.0388 61.4696 45.2945 61.4696C44.5502 61.4695 43.9203 62.099 43.9201 62.8429C43.9199 63.5869 44.4923 64.2165 45.2938 64.2165Z" fill="#D09EFF"/>
<path d="M54.0535 64.2178C54.8124 64.2178 55.4278 63.6029 55.4279 62.8444C55.4281 62.0858 54.8131 61.4708 54.0542 61.4708C53.2953 61.4708 52.68 62.0857 52.6798 62.8442C52.6796 63.6028 53.2947 64.2177 54.0535 64.2178Z" fill="#D09EFF"/>
<path d="M62.8711 61.4721C62.1269 61.4721 61.4969 62.1015 61.4967 62.8455C61.4966 63.5895 62.1262 64.219 62.8705 64.2191C63.6148 64.2191 64.2447 63.5896 64.2449 62.8456C64.245 62.1017 63.6154 61.4721 62.8711 61.4721Z" fill="#D09EFF"/>
<path d="M71.6308 61.4733C70.8865 61.4733 70.2566 62.1028 70.2564 62.8467C70.2562 63.5907 70.8859 64.2203 71.6302 64.2203C72.3744 64.2203 73.0044 63.5908 73.0046 62.8469C73.0048 62.1029 72.3751 61.4734 71.6308 61.4733Z" fill="#D09EFF"/>
<path d="M80.3898 64.2216C81.1341 64.2216 81.764 63.5921 81.7642 62.8481C81.7644 62.1042 81.1347 61.4746 80.3905 61.4746C79.6462 61.4746 79.0163 62.104 79.0161 62.848C79.0159 63.592 79.6455 64.2215 80.3898 64.2216Z" fill="#D09EFF"/>
<path d="M89.2068 64.2229C89.9657 64.2229 90.581 63.608 90.5812 62.8494C90.5814 62.0909 89.9664 61.4759 89.2075 61.4759C88.4486 61.4758 87.8333 62.0907 87.8331 62.8493C87.8329 63.6078 88.448 64.2228 89.2068 64.2229Z" fill="#D09EFF"/>
<path d="M1.38 70.3908C2.13887 70.3908 2.75421 69.7759 2.75439 69.0174C2.75457 68.2588 2.13952 67.6439 1.38066 67.6438C0.621794 67.6438 0.00648895 68.2587 0.00630841 69.0172C0.00612787 69.7758 0.621141 70.3908 1.38 70.3908Z" fill="#D09EFF"/>
<path d="M10.1403 67.5879C9.39603 67.5878 8.76612 68.2173 8.76595 68.9613C8.76577 69.7053 9.39538 70.3348 10.1397 70.3349C10.884 70.3349 11.5139 69.7054 11.5141 68.9614C11.5143 68.2175 10.8846 67.5879 10.1403 67.5879Z" fill="#D09EFF"/>
<path d="M18.8994 70.3933C19.6437 70.3934 20.2736 69.7639 20.2738 69.0199C20.274 68.2759 19.6444 67.6464 18.9001 67.6464C18.1558 67.6463 17.5259 68.2758 17.5257 69.0198C17.5255 69.7637 18.1552 70.3933 18.8994 70.3933Z" fill="#D09EFF"/>
<path d="M27.7163 70.3946C28.4606 70.3947 29.0905 69.7652 29.0907 69.0212C29.0909 68.2772 28.4612 67.6477 27.7169 67.6477C26.9726 67.6476 26.3427 68.2771 26.3426 69.021C26.3424 69.765 26.9147 70.3946 27.7163 70.3946Z" fill="#D09EFF"/>
<path d="M36.476 70.3959C37.2349 70.3959 37.8502 69.781 37.8504 69.0224C37.8506 68.2639 37.2355 67.6489 36.4767 67.6489C35.7178 67.6488 35.1025 68.2637 35.1023 69.0223C35.1021 69.7808 35.7171 70.3958 36.476 70.3959Z" fill="#D09EFF"/>
<path d="M45.293 70.3972C46.0373 70.3972 46.6672 69.7677 46.6674 69.0237C46.6676 68.2798 46.0379 67.6502 45.2936 67.6502C44.5494 67.6502 43.9194 68.2796 43.9192 69.0236C43.9191 69.7676 44.4915 70.3971 45.293 70.3972Z" fill="#D09EFF"/>
<path d="M54.0526 70.3984C54.8115 70.3984 55.4269 69.7835 55.427 69.025C55.4272 68.2664 54.8122 67.6515 54.0533 67.6514C53.2944 67.6514 52.6791 68.2663 52.6789 69.0248C52.6787 69.7834 53.2938 70.3984 54.0526 70.3984Z" fill="#D09EFF"/>
<path d="M62.8703 67.5955C62.126 67.5954 61.496 68.2249 61.4958 68.9689C61.4957 69.7129 62.1253 70.3424 62.8696 70.3425C63.6139 70.3425 64.2438 69.713 64.244 68.969C64.2442 68.2251 63.6145 67.5955 62.8703 67.5955Z" fill="#D09EFF"/>
<path d="M71.6293 70.4009C72.3736 70.401 73.0035 69.7715 73.0037 69.0275C73.0039 68.2835 72.3742 67.654 71.6299 67.654C70.8856 67.6539 70.2557 68.2834 70.2555 69.0274C70.2553 69.7713 70.885 70.4009 71.6293 70.4009Z" fill="#D09EFF"/>
<path d="M80.389 70.4022C81.1478 70.4023 81.7632 69.7873 81.7633 69.0288C81.7635 68.2702 81.1485 67.6553 80.3896 67.6552C79.6307 67.6552 79.0154 68.2701 79.0153 69.0286C79.0151 69.7872 79.6301 70.4022 80.389 70.4022Z" fill="#D09EFF"/>
<path d="M89.2059 70.4035C89.9648 70.4035 90.5801 69.7886 90.5803 69.03C90.5805 68.2715 89.9655 67.6565 89.2066 67.6565C88.4477 67.6565 87.8324 68.2713 87.8322 69.0299C87.832 69.7885 88.4471 70.4034 89.2059 70.4035Z" fill="#D09EFF"/>
<path d="M1.37912 76.5143C2.13799 76.5143 2.75333 75.8994 2.75351 75.1408C2.75369 74.3823 2.13864 73.7673 1.37978 73.7673C0.620912 73.7673 0.00560687 74.3821 0.00542633 75.1407C0.0052458 75.8993 0.620259 76.5142 1.37912 76.5143Z" fill="#D09EFF"/>
<path d="M10.1388 76.5155C10.8831 76.5156 11.5131 75.8861 11.5132 75.1421C11.5134 74.3981 10.8838 73.7686 10.1395 73.7686C9.39519 73.7685 8.76528 74.398 8.7651 75.1419C8.76492 75.8859 9.39453 76.5155 10.1388 76.5155Z" fill="#D09EFF"/>
<path d="M18.8985 76.5168C19.6428 76.5168 20.2727 75.8873 20.2729 75.1434C20.2731 74.3994 19.6435 73.7699 18.8992 73.7698C18.1549 73.7698 17.525 74.3993 17.5248 75.1432C17.5246 75.8872 18.1543 76.5168 18.8985 76.5168Z" fill="#D09EFF"/>
<path d="M27.7154 76.518C28.4743 76.5181 29.0896 75.9032 29.0898 75.1446C29.09 74.386 28.4749 73.7711 27.716 73.7711C26.9572 73.771 26.3419 74.3859 26.3417 75.1445C26.3415 75.903 26.9565 76.518 27.7154 76.518Z" fill="#D09EFF"/>
<path d="M36.4758 73.7724C35.7315 73.7723 35.1016 74.4018 35.1014 75.1458C35.1013 75.8897 35.7309 76.5193 36.4752 76.5193C37.2194 76.5194 37.8494 75.8899 37.8496 75.1459C37.8497 74.4019 37.2773 73.7724 36.4758 73.7724Z" fill="#D09EFF"/>
<path d="M45.2927 73.7736C44.5485 73.7736 43.9185 74.403 43.9183 75.147C43.9182 75.891 44.5478 76.5205 45.2921 76.5206C46.0364 76.5206 46.6663 75.8911 46.6665 75.1472C46.6667 74.4032 46.037 73.7737 45.2927 73.7736Z" fill="#D09EFF"/>
<path d="M54.0517 76.5219C54.796 76.5219 55.426 75.8924 55.4262 75.1484C55.4263 74.4045 54.7967 73.7749 54.0524 73.7749C53.3081 73.7749 52.6782 74.4043 52.678 75.1483C52.6778 75.8923 53.3075 76.5218 54.0517 76.5219Z" fill="#D09EFF"/>
<path d="M62.8687 76.5231C63.6276 76.5232 64.2429 75.9082 64.2431 75.1497C64.2432 74.3911 63.6282 73.7762 62.8693 73.7762C62.1105 73.7761 61.4951 74.391 61.4949 75.1495C61.4948 75.9081 62.1098 76.5231 62.8687 76.5231Z" fill="#D09EFF"/>
<path d="M71.6284 76.5244C72.3727 76.5244 73.0027 75.8949 73.0028 75.151C73.003 74.407 72.3734 73.7775 71.6291 73.7774C70.8848 73.7774 70.2548 74.4069 70.2546 75.1508C70.2545 75.8948 70.8841 76.5244 71.6284 76.5244Z" fill="#D09EFF"/>
<path d="M80.3881 76.5257C81.1469 76.5257 81.7623 75.9108 81.7624 75.1522C81.7626 74.3937 81.1476 73.7787 80.3887 73.7787C79.6298 73.7787 79.0145 74.3935 79.0144 75.1521C79.0142 75.9107 79.6292 76.5256 80.3881 76.5257Z" fill="#D09EFF"/>
<path d="M89.205 76.5269C89.9639 76.527 90.5792 75.9121 90.5794 75.1535C90.5796 74.395 89.9646 73.78 89.2057 73.78C88.4468 73.7799 87.8315 74.3948 87.8313 75.1534C87.8311 75.9119 88.4462 76.5269 89.205 76.5269Z" fill="#D09EFF"/>
<path d="M1.37824 82.6377C2.1371 82.6377 2.75244 82.0228 2.75262 81.2643C2.7528 80.5057 2.13776 79.8908 1.37889 79.8907C0.62003 79.8907 0.0047248 80.5056 0.00454427 81.2641C0.00436373 82.0227 0.619377 82.6376 1.37824 82.6377Z" fill="#D09EFF"/>
<path d="M10.1379 82.6389C10.8822 82.639 11.5121 82.0095 11.5123 81.2655C11.5125 80.5215 10.8829 79.892 10.1386 79.8919C9.39428 79.8919 8.76437 80.5214 8.76419 81.2654C8.764 82.0666 9.39363 82.6389 10.1379 82.6389Z" fill="#D09EFF"/>
<path d="M18.8976 82.6402C19.6419 82.6402 20.2718 82.0108 20.272 81.2668C20.2722 80.5228 19.6426 79.8933 18.8983 79.8932C18.154 79.8932 17.5241 80.5227 17.5239 81.2667C17.5237 82.0678 18.1534 82.6402 18.8976 82.6402Z" fill="#D09EFF"/>
<path d="M27.7145 82.6414C28.4588 82.6415 29.0887 82.012 29.0889 81.268C29.0891 80.5241 28.4594 79.8945 27.7151 79.8945C26.9709 79.8944 26.3409 80.5239 26.3408 81.2679C26.3406 82.0691 26.9129 82.6414 27.7145 82.6414Z" fill="#D09EFF"/>
<path d="M36.4749 79.8958C35.7306 79.8957 35.1007 80.5252 35.1006 81.2692C35.1004 82.0132 35.73 82.6427 36.4743 82.6427C37.2186 82.6428 37.8485 82.0133 37.8487 81.2693C37.8489 80.5254 37.2765 79.8958 36.4749 79.8958Z" fill="#D09EFF"/>
<path d="M45.2912 82.644C46.0355 82.644 46.6654 82.0145 46.6656 81.2706C46.6658 80.5266 46.0361 79.8971 45.2919 79.897C44.5476 79.897 43.9176 80.5265 43.9175 81.2704C43.9173 82.0716 44.4897 82.6439 45.2912 82.644Z" fill="#D09EFF"/>
<path d="M55.4253 81.2719C55.4254 80.5279 54.7958 79.8984 54.0515 79.8983C53.3072 79.8983 52.6773 80.5278 52.6771 81.2717C52.6769 82.0157 53.3066 82.6452 54.0508 82.6453C54.7951 82.6453 55.4251 82.0731 55.4253 81.2719Z" fill="#D09EFF"/>
<path d="M62.8685 79.8996C62.1242 79.8995 61.4942 80.529 61.494 81.273C61.4939 82.0169 62.1235 82.6465 62.8678 82.6465C63.6121 82.6466 64.242 82.0171 64.2422 81.2731C64.2424 80.5291 63.6127 79.8996 62.8685 79.8996Z" fill="#D09EFF"/>
<path d="M71.6275 82.6478C72.3718 82.6479 73.0018 82.0184 73.0019 81.2744C73.0021 80.5304 72.3725 79.9009 71.6282 79.9009C70.8839 79.9008 70.2539 80.5303 70.2538 81.2743C70.2536 82.0755 70.8832 82.6478 71.6275 82.6478Z" fill="#D09EFF"/>
<path d="M80.3878 79.9021C79.6436 79.9021 79.0137 80.5315 79.0135 81.2755C79.0133 82.0195 79.6429 82.649 80.3872 82.6491C81.1315 82.6491 81.7614 82.0196 81.7616 81.2756C81.819 80.5317 81.1894 79.9021 80.3878 79.9021Z" fill="#D09EFF"/>
<path d="M89.2041 82.6504C89.963 82.6504 90.5783 82.0355 90.5785 81.2769C90.5787 80.5184 89.9637 79.9034 89.2048 79.9034C88.4459 79.9033 87.8306 80.5183 87.8304 81.2768C87.8302 82.0353 88.4453 82.6503 89.2041 82.6504Z" fill="#D09EFF"/>
<path d="M1.37733 88.8183C2.1216 88.8184 2.75153 88.1889 2.7517 87.4449C2.75188 86.701 2.12225 86.0714 1.37798 86.0714C0.633708 86.0714 0.00381459 86.7008 0.00363872 87.4448C-0.0537886 88.1887 0.575808 88.8183 1.37733 88.8183Z" fill="#D09EFF"/>
<path d="M10.137 88.8196C10.8813 88.8196 11.5113 88.1901 11.5114 87.4462C11.5116 86.7022 10.882 86.0727 10.1377 86.0726C9.39338 86.0726 8.76347 86.7021 8.76329 87.446C8.76312 88.19 9.39273 88.8195 10.137 88.8196Z" fill="#D09EFF"/>
<path d="M18.8974 86.0739C18.1532 86.0739 17.5232 86.7033 17.523 87.4473C17.5229 88.1913 18.1525 88.8208 18.8968 88.8209C19.6411 88.8209 20.2709 88.1914 20.2711 87.4475C20.2713 86.6463 19.699 86.074 18.8974 86.0739Z" fill="#D09EFF"/>
<path d="M26.3399 87.4486C26.3397 88.1925 26.9694 88.8221 27.7136 88.8221C28.4579 88.8222 29.0879 88.1927 29.0881 87.4487C29.0882 86.7047 28.4586 86.0752 27.7143 86.0752C26.9128 86.0751 26.3401 86.6474 26.3399 87.4486Z" fill="#D09EFF"/>
<path d="M36.4733 88.8234C37.2176 88.8234 37.8476 88.194 37.8478 87.45C37.8479 86.706 37.2183 86.0765 36.474 86.0765C35.7297 86.0764 35.0998 86.7059 35.0996 87.4498C35.0994 88.1938 35.7291 88.8234 36.4733 88.8234Z" fill="#D09EFF"/>
<path d="M45.2903 88.8246C46.0346 88.8247 46.6645 88.1952 46.6647 87.4512C46.6649 86.7073 46.0352 86.0777 45.2909 86.0777C44.5467 86.0777 43.9167 86.7071 43.9166 87.4511C43.9164 88.1951 44.4888 88.8246 45.2903 88.8246Z" fill="#D09EFF"/>
<path d="M54.05 88.8259C54.7943 88.826 55.4242 88.1965 55.4244 87.4525C55.4246 86.7086 54.7949 86.079 54.0506 86.079C53.3063 86.079 52.6764 86.7084 52.6763 87.4524C52.6761 88.1963 53.3057 88.8259 54.05 88.8259Z" fill="#D09EFF"/>
<path d="M62.8676 86.0802C62.1233 86.0802 61.4933 86.7097 61.4932 87.4536C61.493 88.1976 62.1226 88.8271 62.8669 88.8272C63.6112 88.8272 64.2411 88.1977 64.2413 87.4538C64.2415 86.7098 63.6119 86.0803 62.8676 86.0802Z" fill="#D09EFF"/>
<path d="M71.6272 86.0815C70.883 86.0815 70.253 86.711 70.2528 87.4549C70.2527 88.1989 70.8823 88.8284 71.6266 88.8285C72.3709 88.8285 73.0008 88.199 73.001 87.4551C73.0012 86.6539 72.3715 86.0816 71.6272 86.0815Z" fill="#D09EFF"/>
<path d="M80.3863 88.8297C81.1305 88.8298 81.7605 88.2003 81.7606 87.4563C81.7608 86.7124 81.1312 86.0828 80.3869 86.0828C79.6426 86.0828 79.0127 86.7122 79.0126 87.4562C79.0124 88.2001 79.642 88.8297 80.3863 88.8297Z" fill="#D09EFF"/>
<path d="M89.2033 88.831C89.9476 88.8311 90.5775 88.2016 90.5777 87.4576C90.5778 86.7136 89.9482 86.0841 89.2039 86.0841C88.4597 86.0841 87.8297 86.7135 87.8295 87.4575C87.8293 88.2014 88.459 88.831 89.2033 88.831Z" fill="#D09EFF"/>
<g filter="url(#filter0_d)">
<path d="M232.132 32.8935C232.132 27.3563 227.64 22.8674 222.098 22.8674L130.138 22.8674L37.2993 22.8674C31.7575 22.8674 27.265 27.3563 27.265 32.8935V168.427C27.265 173.964 31.7575 178.453 37.2993 178.453H222.098C227.64 178.453 232.132 173.964 232.132 168.427V32.8935Z" fill="white"/>
</g>
<path opacity="0.1" d="M102.039 94.6533L51.2381 94.6947" stroke="#242830" stroke-width="4.94164" stroke-linecap="round" stroke-linejoin="round"/>
<path d="M50.6736 81.186L50.6795 80.4074C49.968 80.3478 49.4029 80.1302 48.9841 79.7548C48.5676 79.3771 48.35 78.8494 48.3314 78.1715L49.7375 78.17C49.758 78.4497 49.8533 78.6733 50.0235 78.8409C50.1959 79.0085 50.4187 79.1179 50.6917 79.1691L50.7066 77.3938L50.3843 77.3136C49.8047 77.1755 49.347 76.9556 49.0111 76.6539C48.6752 76.3522 48.5081 75.9486 48.5098 75.443C48.5071 75.0626 48.6008 74.7247 48.7906 74.4292C48.9805 74.1337 49.2431 73.8951 49.5785 73.7136C49.9139 73.532 50.3008 73.4197 50.7393 73.3768L50.7452 72.5948L51.5372 72.594L51.5313 73.3826C52.1779 73.4513 52.6939 73.6711 53.0791 74.0421C53.4642 74.4109 53.6616 74.8727 53.6711 75.4275L52.2784 75.429C52.2355 74.9972 51.9824 74.7268 51.5192 74.6176L51.5075 76.2956L51.7055 76.3424C52.1039 76.4314 52.4575 76.5608 52.7664 76.7305C53.0776 76.9002 53.3217 77.1192 53.4987 77.3875C53.6779 77.6536 53.7678 77.9779 53.7682 78.3605C53.7666 78.9421 53.5646 79.4155 53.1622 79.7806C52.7622 80.1435 52.1986 80.3533 51.4715 80.41L51.4656 81.1852L50.6736 81.186ZM51.4837 79.1683C51.7364 79.1165 51.9354 79.0201 52.0807 78.879C52.226 78.7357 52.2996 78.5622 52.3016 78.3586C52.2992 78.1685 52.2286 78.0153 52.0897 77.8991C51.9531 77.7807 51.755 77.6813 51.4954 77.601L51.4837 79.1683ZM50.7153 76.0917L50.7272 74.6084C50.4923 74.6578 50.3123 74.7486 50.1871 74.8808C50.062 75.0107 49.9995 75.1651 49.9997 75.3441C49.9954 75.5365 50.0616 75.6919 50.1982 75.8103C50.3348 75.9265 50.5071 76.0203 50.7153 76.0917Z" fill="#3C76F0"/>
<path d="M57.2479 80.414C56.7445 80.4145 56.2981 80.3288 55.9086 80.157C55.5191 79.9851 55.2124 79.746 54.9883 79.4398C54.7643 79.1335 54.6476 78.7801 54.6382 78.3797L56.1014 78.3781C56.1151 78.6287 56.2294 78.8311 56.4443 78.9852C56.6615 79.1393 56.9301 79.2163 57.25 79.2159C57.5833 79.2156 57.8551 79.1303 58.0652 78.96C58.2776 78.7875 58.3825 78.5648 58.38 78.2919C58.3819 78.0144 58.2687 77.7886 58.0403 77.6143C57.8141 77.4378 57.5064 77.3498 57.1171 77.3502L56.4762 77.3508L56.4751 76.2837L57.116 76.283C57.4471 76.2827 57.7166 76.1996 57.9245 76.0338C58.1324 75.8658 58.2351 75.6464 58.2326 75.3757C58.2346 75.1162 58.1448 74.906 57.9635 74.7451C57.7843 74.5842 57.5482 74.5039 57.2551 74.5042C56.9576 74.5045 56.7037 74.5831 56.4936 74.7399C56.2834 74.8968 56.174 75.1061 56.1654 75.3678L54.7727 75.3693C54.779 74.9733 54.8916 74.6242 55.1105 74.3219C55.3294 74.0174 55.6245 73.7799 55.9957 73.6095C56.3692 73.4391 56.7908 73.3536 57.2606 73.3531C57.7349 73.3526 58.15 73.4383 58.5059 73.6102C58.8618 73.7821 59.1384 74.0145 59.3356 74.3074C59.535 74.598 59.6338 74.9246 59.6319 75.287C59.6346 75.6718 59.5152 75.993 59.2738 76.2505C59.0347 76.5081 58.7228 76.6717 58.3381 76.7415L58.3381 76.7952C58.8438 76.8573 59.2288 77.0314 59.4931 77.3175C59.7596 77.6036 59.892 77.9603 59.8902 78.3876C59.8929 78.7791 59.7802 79.1271 59.5524 79.4316C59.3267 79.7361 59.0149 79.9759 58.6168 80.1508C58.2188 80.3257 57.7625 80.4134 57.2479 80.414Z" fill="#3C76F0"/>
<path d="M63.4773 80.4075C62.9739 80.408 62.5275 80.3223 62.138 80.1504C61.7485 79.9786 61.4418 79.7395 61.2177 79.4333C60.9937 79.127 60.877 78.7736 60.8676 78.3732L62.3308 78.3716C62.3445 78.6222 62.4588 78.8245 62.6737 78.9787C62.8909 79.1328 63.1594 79.2097 63.4794 79.2094C63.8127 79.209 64.0845 79.1237 64.2946 78.9535C64.5069 78.781 64.6119 78.5583 64.6093 78.2853C64.6113 78.0079 64.4981 77.7821 64.2697 77.6078C64.0435 77.4313 63.7358 77.3432 63.3465 77.3437L62.7056 77.3443L62.7044 76.2771L63.3454 76.2765C63.6765 76.2761 63.946 76.1931 64.1539 76.0273C64.3618 75.8593 64.4645 75.6399 64.462 75.3692C64.4639 75.1097 64.3742 74.8995 64.1928 74.7386C64.0137 74.5777 63.7776 74.4974 63.4845 74.4977C63.1869 74.498 62.9331 74.5766 62.723 74.7334C62.5128 74.8902 62.4034 75.0995 62.3947 75.3613L61.002 75.3628C61.0083 74.9668 61.121 74.6176 61.3399 74.3154C61.5588 74.0109 61.8539 73.7734 62.2251 73.603C62.5985 73.4326 63.0202 73.3471 63.49 73.3466C63.9643 73.3461 64.3794 73.4318 64.7353 73.6037C65.0912 73.7756 65.3678 74.008 65.565 74.3009C65.7644 74.5915 65.8632 74.9181 65.8613 75.2805C65.8639 75.6653 65.7446 75.9865 65.5032 76.244C65.2641 76.5015 64.9522 76.6652 64.5674 76.735L64.5675 76.7886C65.0732 76.8508 65.4582 77.0249 65.7225 77.311C65.989 77.5971 66.1214 77.9538 66.1196 78.3811C66.1222 78.7726 66.0096 79.1206 65.7817 79.4251C65.5561 79.7296 65.2442 79.9693 64.8462 80.1443C64.4481 80.3192 63.9918 80.4069 63.4773 80.4075Z" fill="#3C76F0"/>
<path d="M67.6923 80.3963C67.4708 80.3966 67.2805 80.3185 67.1215 80.162C66.9625 80.0056 66.884 79.8155 66.886 79.5918C66.8835 79.3725 66.9616 79.1845 67.1203 79.0277C67.279 78.8709 67.4691 78.7924 67.6906 78.7922C67.9054 78.792 68.0923 78.8701 68.2513 79.0265C68.4125 79.183 68.4944 79.3708 68.4968 79.5901C68.4948 79.8138 68.4134 80.004 68.2525 80.1608C68.0938 80.3176 67.907 80.3961 67.6923 80.3963Z" fill="#3C76F0"/>
<path d="M71.9745 80.4556C71.3972 80.454 70.9004 80.3124 70.484 80.031C70.0698 79.7495 69.7506 79.3415 69.5263 78.8071C69.3042 78.2726 69.1939 77.6295 69.1954 76.8778C69.1964 75.7524 69.4427 74.8819 69.9343 74.2661C70.4281 73.6481 71.1057 73.3386 71.967 73.3377C72.542 73.3371 73.0366 73.4753 73.4507 73.7523C73.8672 74.0293 74.1875 74.4317 74.4118 74.9594C74.6361 75.485 74.7475 76.1225 74.746 76.872C74.745 78.004 74.4987 78.8846 74.0071 79.5138C73.5156 80.1408 72.838 80.4547 71.9745 80.4556ZM71.9732 79.2508C72.367 79.2504 72.6811 79.0521 72.9156 78.6559C73.1501 78.2596 73.2658 77.6655 73.2627 76.8735C73.2619 76.0927 73.1438 75.5067 72.9085 75.1154C72.6732 74.7241 72.3598 74.5287 71.9683 74.5291C71.5767 74.5295 71.2637 74.7256 71.0292 75.1174C70.7947 75.5091 70.6768 76.0954 70.6753 76.8762C70.6739 77.6682 70.7909 78.2621 71.0262 78.6578C71.2638 79.0536 71.5794 79.2512 71.9732 79.2508Z" fill="#3C76F0"/>
<path d="M78.4807 80.4488C77.9035 80.4472 77.4067 80.3056 76.9902 80.0242C76.576 79.7427 76.2568 79.3347 76.0325 78.8003C75.8105 78.2658 75.7002 77.6227 75.7016 76.871C75.7027 75.7456 75.949 74.8751 76.4405 74.2593C76.9343 73.6413 77.6119 73.3318 78.4732 73.3309C79.0482 73.3303 79.5428 73.4685 79.957 73.7455C80.3734 74.0225 80.6938 74.4249 80.918 74.9526C81.1423 75.4782 81.2537 76.1157 81.2523 76.8651C81.2512 77.9972 81.0049 78.8778 80.5134 79.507C80.0219 80.134 79.3443 80.4479 78.4807 80.4488ZM78.4794 79.244C78.8732 79.2436 79.1873 79.0453 79.4218 78.649C79.6563 78.2528 79.772 77.6587 79.769 76.8667C79.7682 76.0859 79.6501 75.4998 79.4148 75.1086C79.1794 74.7173 78.866 74.5219 78.4745 74.5223C78.083 74.5227 77.77 74.7188 77.5355 75.1105C77.301 75.5023 77.183 76.0886 77.1816 76.8694C77.1802 77.6614 77.2971 78.2553 77.5325 78.651C77.77 79.0468 78.0857 79.2444 78.4794 79.244Z" fill="#3C76F0"/>
<path d="M85.2914 73.0956L83.0851 81.3266L81.8535 81.3279L84.0597 73.0969L85.2914 73.0956Z" fill="#3C76F0"/>
<path d="M85.9877 80.2899L85.9823 75.1353L87.3448 75.1338L87.3457 76.0433L87.4061 76.0432C87.5132 75.7388 87.6919 75.5004 87.9423 75.3278C88.195 75.1531 88.4947 75.0655 88.8414 75.0651C89.1949 75.0648 89.4959 75.1528 89.7445 75.3293C89.993 75.5036 90.1588 75.7405 90.2419 76.0402L90.2956 76.0402C90.4004 75.7448 90.5903 75.5085 90.8653 75.3315C91.1426 75.1522 91.4702 75.0624 91.8483 75.062C92.3293 75.0615 92.7199 75.2143 93.02 75.5205C93.3224 75.8245 93.4738 76.2561 93.4744 76.8154L93.478 80.2821L92.0518 80.2836L92.0485 77.0988C92.0482 76.8124 91.9719 76.5977 91.8196 76.4547C91.6673 76.3117 91.4771 76.2403 91.2489 76.2405C90.9893 76.2408 90.7869 76.3238 90.6417 76.4895C90.4964 76.6552 90.424 76.8712 90.4242 77.1374L90.4275 80.2853L89.0415 80.2867L89.0382 77.0718C89.0379 76.819 88.965 76.6177 88.8194 76.4679C88.6761 76.3182 88.4869 76.2434 88.252 76.2437C88.0149 76.2439 87.8159 76.3314 87.655 76.5061C87.4941 76.6785 87.4138 76.9079 87.4141 77.1943L87.4173 80.2884L85.9877 80.2899Z" fill="#3C76F0"/>
<path d="M96.9364 80.3791C96.4151 80.3797 95.9642 80.2694 95.5836 80.0483C95.2053 79.825 94.913 79.5143 94.7068 79.1163C94.5005 78.716 94.3971 78.2519 94.3966 77.7239C94.396 77.1914 94.4984 76.726 94.7038 76.3275C94.9093 75.9268 95.2009 75.6156 95.5788 75.3937C95.9589 75.1696 96.4095 75.0572 96.9308 75.0567C97.4521 75.0561 97.9019 75.1675 98.2803 75.3908C98.6608 75.6119 98.9542 75.9226 99.1605 76.3229C99.3667 76.7209 99.4701 77.1861 99.4707 77.7186C99.4712 78.2466 99.3688 78.7109 99.1634 79.1116C98.958 79.5101 98.6652 79.8214 98.2851 80.0455C97.9073 80.2674 97.4577 80.3786 96.9364 80.3791ZM96.942 79.2717C97.2954 79.2713 97.5626 79.1234 97.7436 78.8279C97.9267 78.5323 98.018 78.1597 98.0176 77.7101C98.0171 77.2604 97.925 76.888 97.7412 76.5928C97.5597 76.2955 97.2922 76.147 96.9387 76.1473C96.5785 76.1477 96.3068 76.2968 96.1237 76.5945C95.9405 76.89 95.8492 77.2626 95.8497 77.7123C95.8501 78.162 95.9422 78.5344 96.126 78.8295C96.3098 79.1247 96.5818 79.272 96.942 79.2717Z" fill="#3C76F0"/>
<path d="M101.829 77.2933L101.833 80.2733L100.403 80.2748L100.398 75.1202L101.76 75.1187L101.761 76.0282L101.821 76.0281C101.937 75.7282 102.128 75.4909 102.395 75.3161C102.663 75.139 102.988 75.0503 103.371 75.0499C103.908 75.0494 104.339 75.2223 104.663 75.5687C104.988 75.9129 105.151 76.386 105.151 76.9878L105.155 80.2698L103.725 80.2713L103.722 77.2443C103.724 76.9289 103.643 76.6828 103.48 76.5063C103.316 76.3275 103.091 76.2382 102.805 76.2385C102.516 76.2388 102.281 76.3319 102.1 76.5178C101.922 76.7014 101.831 76.9599 101.829 77.2933Z" fill="#3C76F0"/>
<path d="M109.018 75.1111L109.019 76.185L108.049 76.186L108.052 78.6828C108.052 78.8797 108.097 79.0128 108.187 79.082C108.276 79.1513 108.392 79.1859 108.536 79.1857C108.603 79.1856 108.67 79.18 108.737 79.1687C108.804 79.1552 108.856 79.1451 108.891 79.1383L109.117 80.2019C109.046 80.2244 108.945 80.2502 108.815 80.2794C108.686 80.3109 108.528 80.3301 108.342 80.337C107.823 80.3599 107.406 80.2485 107.09 80.0027C106.777 79.7547 106.621 79.3779 106.622 78.8723L106.62 76.1875L105.915 76.1883L105.914 75.1144L106.619 75.1136L106.617 73.8787L108.047 73.8772L108.048 75.1121L109.018 75.1111Z" fill="#3C76F0"/>
<path d="M111.492 77.2832L111.495 80.2632L110.065 80.2647L110.058 73.3918L111.448 73.3904L111.45 76.018L111.511 76.018C111.629 75.7136 111.817 75.4751 112.074 75.3026C112.333 75.1278 112.659 75.0402 113.05 75.0398C113.587 75.0392 114.019 75.211 114.346 75.5552C114.673 75.8994 114.836 76.3736 114.834 76.9776L114.837 80.2597L113.408 80.2612L113.405 77.2342C113.407 76.9165 113.326 76.6694 113.162 76.4928C113.001 76.3162 112.775 76.2281 112.484 76.2284C112.193 76.2287 111.955 76.3218 111.77 76.5077C111.586 76.6913 111.494 76.9498 111.492 77.2832Z" fill="#3C76F0"/>
<rect x="160.462" y="72.1992" width="48.8629" height="13.9608" rx="3.35135" fill="#6391F3"/>
<path d="M169.707 82.0524C169.34 82.0528 169.013 81.9902 168.726 81.8646C168.441 81.739 168.214 81.5643 168.045 81.3405C167.878 81.1148 167.787 80.8529 167.772 80.5549L168.472 80.5541C168.493 80.8281 168.619 81.0446 168.85 81.2035C169.084 81.3625 169.365 81.4418 169.695 81.4415C170.06 81.4411 170.359 81.3482 170.594 81.1628C170.831 80.9756 170.949 80.7311 170.949 80.4294C170.949 80.1146 170.832 79.8584 170.598 79.6605C170.367 79.4627 170.035 79.364 169.604 79.3644L169.148 79.3649L169.148 78.754L169.603 78.7535C169.94 78.7532 170.215 78.6631 170.428 78.4833C170.64 78.3035 170.747 78.0636 170.746 77.7637C170.746 77.4768 170.652 77.2464 170.465 77.0726C170.278 76.8969 170.027 76.8092 169.712 76.8095C169.516 76.8098 169.331 76.846 169.157 76.9184C168.985 76.989 168.844 77.0918 168.735 77.2271C168.626 77.3605 168.567 77.5216 168.558 77.7105L167.891 77.7112C167.902 77.4131 167.992 77.152 168.16 76.9278C168.328 76.7018 168.548 76.5257 168.82 76.3995C169.094 76.2733 169.395 76.2101 169.723 76.2097C170.074 76.2093 170.376 76.2803 170.628 76.4226C170.88 76.563 171.074 76.7489 171.209 76.9801C171.345 77.2114 171.412 77.4613 171.413 77.7297C171.413 78.05 171.329 78.3231 171.161 78.5492C170.994 78.7752 170.768 78.9319 170.481 79.0192L170.481 79.0636C170.84 79.1225 171.121 79.2749 171.323 79.5209C171.525 79.7651 171.626 80.0676 171.626 80.4286C171.627 80.7378 171.543 81.0156 171.375 81.262C171.208 81.5065 170.981 81.6993 170.692 81.8403C170.403 81.9813 170.075 82.052 169.707 82.0524Z" fill="white"/>
<path d="M174.974 81.9691L174.97 77.7038L175.603 77.7031L175.604 78.3696L175.659 78.3695C175.748 78.1417 175.891 77.9648 176.089 77.8387C176.287 77.7107 176.525 77.6466 176.803 77.6463C177.084 77.646 177.318 77.7096 177.505 77.8372C177.694 77.9629 177.842 78.1395 177.947 78.3671L177.992 78.3671C178.101 78.1466 178.264 77.9715 178.483 77.8417C178.701 77.71 178.963 77.644 179.268 77.6437C179.65 77.6433 179.962 77.7624 180.205 78.001C180.447 78.2377 180.569 78.6069 180.57 79.1086L180.573 81.9632L179.917 81.9639L179.914 79.1093C179.914 78.7945 179.828 78.5697 179.655 78.4347C179.483 78.2998 179.28 78.2324 179.047 78.2327C178.747 78.233 178.515 78.3239 178.35 78.5055C178.186 78.6853 178.103 78.9131 178.104 79.1889L178.107 81.9658L177.44 81.9665L177.437 79.0452C177.437 78.8027 177.358 78.6075 177.2 78.4595C177.043 78.3097 176.84 78.235 176.592 78.2352C176.422 78.2354 176.263 78.2809 176.115 78.3718C175.968 78.4627 175.85 78.5887 175.76 78.7498C175.671 78.9091 175.627 79.0934 175.627 79.3026L175.63 81.9684L174.974 81.9691Z" fill="white"/>
<path d="M183.504 82.049C183.119 82.0494 182.781 81.9582 182.49 81.7752C182.201 81.5922 181.975 81.336 181.811 81.0067C181.65 80.6773 181.569 80.2923 181.569 79.8517C181.568 79.4074 181.648 79.0195 181.809 78.688C181.972 78.3564 182.197 78.0988 182.486 77.9153C182.776 77.7317 183.114 77.6397 183.499 77.6393C183.884 77.6389 184.221 77.7302 184.51 77.9131C184.801 78.0961 185.027 78.3532 185.189 78.6844C185.352 79.0156 185.434 79.4034 185.434 79.8477C185.435 80.2883 185.354 80.6735 185.191 81.0032C185.03 81.3328 184.805 81.5895 184.514 81.7731C184.226 81.9566 183.889 82.0486 183.504 82.049ZM183.503 81.4603C183.796 81.46 184.036 81.3848 184.225 81.2346C184.414 81.0845 184.553 80.8872 184.644 80.6427C184.734 80.3983 184.779 80.1335 184.779 79.8484C184.778 79.5633 184.733 79.2977 184.642 79.0515C184.551 78.8054 184.411 78.6066 184.222 78.455C184.033 78.3033 183.792 78.2277 183.5 78.228C183.207 78.2283 182.967 78.3045 182.778 78.4565C182.589 78.6085 182.45 78.8076 182.359 79.0539C182.269 79.3003 182.224 79.566 182.224 79.8511C182.224 80.1362 182.27 80.4008 182.361 80.6451C182.452 80.8894 182.592 81.0864 182.781 81.2362C182.97 81.3859 183.211 81.4606 183.503 81.4603Z" fill="white"/>
<path d="M187.089 79.3905L187.092 81.9564L186.437 81.9571L186.432 77.6918L187.065 77.6911L187.066 78.3576L187.122 78.3575C187.221 78.1408 187.373 77.9666 187.577 77.835C187.78 77.7015 188.043 77.6345 188.365 77.6342C188.796 77.6337 189.144 77.7657 189.409 78.0302C189.676 78.2947 189.81 78.699 189.811 79.2433L189.813 81.9536L189.158 81.9543L189.155 79.2884C189.155 78.9533 189.068 78.6924 188.893 78.5056C188.719 78.3169 188.48 78.2228 188.177 78.2231C187.864 78.2234 187.604 78.3255 187.397 78.5294C187.191 78.7314 187.089 79.0184 187.089 79.3905Z" fill="white"/>
<path d="M192.862 77.685L192.862 78.2404L191.951 78.2414L191.954 80.7295C191.954 80.9146 191.981 81.0534 192.035 81.1459C192.09 81.2366 192.161 81.2976 192.246 81.329C192.333 81.3585 192.425 81.3732 192.521 81.3731C192.593 81.3731 192.652 81.3693 192.699 81.3618C192.745 81.3525 192.782 81.3451 192.81 81.3395L192.944 81.9281C192.899 81.9448 192.837 81.9615 192.758 81.9783C192.678 81.9969 192.577 82.0062 192.455 82.0063C192.27 82.0065 192.088 81.9669 191.911 81.8875C191.735 81.8081 191.588 81.687 191.472 81.5242C191.357 81.3614 191.299 81.156 191.299 80.9079L191.296 78.2421L190.652 78.2427L190.651 77.6873L191.295 77.6867L191.294 76.6648L191.95 76.6641L191.951 77.686L192.862 77.685Z" fill="white"/>
<path d="M194.596 79.3827L194.599 81.9486L193.943 81.9492L193.937 76.2621L194.593 76.2614L194.595 78.3497L194.651 78.3496C194.75 78.1292 194.9 77.9541 195.1 77.8243C195.302 77.6927 195.57 77.6267 195.905 77.6263C196.342 77.6258 196.694 77.7569 196.961 78.0195C197.227 78.2821 197.361 78.6874 197.362 79.2354L197.365 81.9457L196.709 81.9464L196.706 79.2805C196.706 78.9417 196.618 78.6799 196.442 78.4949C196.268 78.3081 196.026 78.2149 195.717 78.2152C195.393 78.2155 195.124 78.3176 194.912 78.5215C194.701 78.7235 194.596 79.0106 194.596 79.3827Z" fill="white"/>
<path d="M201.581 78.6312L200.993 78.7984C200.935 78.6503 200.839 78.5116 200.704 78.3822C200.568 78.2527 200.357 78.1881 200.07 78.1884C199.809 78.1887 199.592 78.2491 199.418 78.3696C199.246 78.4883 199.16 78.6392 199.16 78.8225C199.16 78.9854 199.22 79.114 199.338 79.2083C199.457 79.3026 199.642 79.3811 199.894 79.4438L200.527 79.5986C201.283 79.783 201.661 80.1676 201.661 80.7526C201.662 80.997 201.591 81.2155 201.451 81.4082C201.312 81.6009 201.118 81.7529 200.868 81.8642C200.619 81.9756 200.328 82.0314 199.997 82.0318C199.561 82.0322 199.201 81.9382 198.916 81.7497C198.631 81.5611 198.45 81.2855 198.374 80.9227L198.996 80.7665C199.113 81.2255 199.442 81.4548 199.985 81.4542C200.29 81.4539 200.533 81.3888 200.712 81.259C200.893 81.1274 200.984 80.97 200.984 80.7867C200.983 80.4849 200.772 80.2852 200.35 80.1875L199.639 80.0217C199.248 79.9295 198.961 79.7863 198.778 79.5921C198.596 79.3961 198.505 79.1509 198.505 78.8565C198.505 78.6159 198.572 78.4029 198.707 78.2176C198.844 78.0324 199.03 77.8868 199.265 77.7811C199.501 77.6753 199.77 77.6223 200.07 77.6219C200.492 77.6215 200.823 77.7137 201.064 77.8986C201.307 78.0835 201.479 78.3277 201.581 78.6312Z" fill="white"/>
<g opacity="0.5">
<path opacity="0.1" d="M102.039 131.779L51.2381 131.82" stroke="#242830" stroke-width="4.94164" stroke-linecap="round" stroke-linejoin="round"/>
<path opacity="0.1" d="M102.039 119.465L51.2381 119.507" stroke="#242830" stroke-width="4.94164" stroke-linecap="round" stroke-linejoin="round"/>
<rect x="170.037" y="111.031" width="39.2878" height="11.2251" rx="2.69462" fill="#EDEDED"/>
<path d="M177.47 118.914C177.175 118.914 176.913 118.864 176.682 118.763C176.452 118.662 176.27 118.521 176.134 118.341C176 118.16 175.927 117.949 175.915 117.709L176.477 117.709C176.494 117.929 176.595 118.103 176.782 118.231C176.969 118.359 177.196 118.423 177.461 118.422C177.754 118.422 177.995 118.347 178.184 118.198C178.374 118.048 178.469 117.851 178.469 117.609C178.469 117.356 178.375 117.149 178.187 116.99C178.001 116.831 177.734 116.752 177.387 116.752L177.021 116.753L177.021 116.262L177.387 116.261C177.658 116.261 177.879 116.188 178.05 116.044C178.221 115.899 178.306 115.706 178.306 115.465C178.306 115.235 178.23 115.049 178.08 114.91C177.929 114.768 177.728 114.698 177.475 114.698C177.317 114.698 177.168 114.727 177.028 114.786C176.89 114.842 176.777 114.925 176.689 115.034C176.601 115.141 176.554 115.271 176.547 115.422L176.011 115.423C176.019 115.183 176.091 114.973 176.227 114.793C176.362 114.611 176.539 114.47 176.758 114.368C176.978 114.267 177.22 114.216 177.483 114.216C177.766 114.216 178.009 114.273 178.211 114.387C178.414 114.5 178.569 114.649 178.678 114.835C178.787 115.021 178.842 115.222 178.842 115.438C178.842 115.695 178.775 115.915 178.639 116.097C178.506 116.279 178.323 116.405 178.093 116.475L178.093 116.51C178.382 116.558 178.607 116.68 178.77 116.878C178.932 117.074 179.013 117.318 179.014 117.608C179.014 117.857 178.947 118.08 178.811 118.278C178.678 118.475 178.495 118.63 178.263 118.743C178.03 118.856 177.766 118.913 177.47 118.914Z" fill="white"/>
<path d="M181.706 118.847L181.702 115.417L182.211 115.417L182.212 115.952L182.256 115.952C182.327 115.769 182.443 115.627 182.602 115.526C182.761 115.423 182.952 115.371 183.176 115.371C183.402 115.371 183.59 115.422 183.741 115.524C183.893 115.625 184.011 115.767 184.096 115.95L184.132 115.95C184.219 115.773 184.351 115.632 184.527 115.528C184.702 115.422 184.913 115.369 185.158 115.369C185.465 115.368 185.716 115.464 185.911 115.656C186.106 115.846 186.204 116.143 186.204 116.547L186.207 118.842L185.68 118.842L185.677 116.547C185.677 116.294 185.608 116.113 185.469 116.005C185.331 115.896 185.168 115.842 184.98 115.842C184.739 115.843 184.552 115.916 184.42 116.062C184.288 116.206 184.222 116.389 184.222 116.611L184.224 118.844L183.688 118.845L183.686 116.496C183.686 116.301 183.622 116.144 183.495 116.025C183.369 115.904 183.206 115.844 183.006 115.844C182.869 115.845 182.741 115.881 182.622 115.954C182.505 116.027 182.41 116.129 182.337 116.258C182.266 116.386 182.23 116.534 182.23 116.703L182.232 118.846L181.706 118.847Z" fill="white"/>
<path d="M188.564 118.911C188.254 118.911 187.982 118.838 187.748 118.691C187.516 118.544 187.334 118.338 187.203 118.073C187.073 117.808 187.008 117.498 187.008 117.144C187.007 116.787 187.072 116.475 187.201 116.208C187.332 115.942 187.513 115.735 187.745 115.587C187.979 115.44 188.25 115.366 188.56 115.365C188.869 115.365 189.14 115.438 189.373 115.585C189.607 115.733 189.788 115.939 189.918 116.206C190.049 116.472 190.115 116.784 190.116 117.141C190.116 117.495 190.051 117.805 189.92 118.07C189.791 118.335 189.61 118.541 189.376 118.689C189.144 118.837 188.873 118.911 188.564 118.911ZM188.563 118.438C188.798 118.437 188.992 118.377 189.143 118.256C189.295 118.135 189.407 117.977 189.48 117.78C189.553 117.584 189.589 117.371 189.589 117.141C189.588 116.912 189.552 116.699 189.479 116.501C189.406 116.303 189.293 116.143 189.141 116.021C188.989 115.899 188.795 115.838 188.56 115.839C188.325 115.839 188.132 115.9 187.98 116.022C187.828 116.145 187.716 116.305 187.643 116.503C187.571 116.701 187.534 116.914 187.535 117.144C187.535 117.373 187.572 117.586 187.645 117.782C187.718 117.978 187.83 118.137 187.982 118.257C188.134 118.378 188.328 118.438 188.563 118.438Z" fill="white"/>
<path d="M191.447 116.773L191.449 118.836L190.922 118.837L190.918 115.407L191.427 115.407L191.428 115.943L191.472 115.943C191.553 115.768 191.675 115.628 191.838 115.523C192.002 115.415 192.213 115.361 192.472 115.361C192.819 115.361 193.099 115.467 193.312 115.68C193.527 115.892 193.634 116.217 193.635 116.655L193.637 118.834L193.11 118.835L193.108 116.691C193.107 116.422 193.037 116.212 192.897 116.062C192.757 115.91 192.565 115.834 192.321 115.835C192.069 115.835 191.86 115.917 191.694 116.081C191.529 116.243 191.446 116.474 191.447 116.773Z" fill="white"/>
<path d="M196.088 115.402L196.088 115.849L195.356 115.849L195.358 117.85C195.358 117.999 195.38 118.11 195.423 118.185C195.468 118.258 195.524 118.307 195.593 118.332C195.663 118.356 195.736 118.367 195.814 118.367C195.872 118.367 195.92 118.364 195.957 118.358C195.994 118.351 196.024 118.345 196.046 118.34L196.154 118.814C196.118 118.827 196.068 118.84 196.004 118.854C195.94 118.869 195.859 118.876 195.761 118.877C195.612 118.877 195.466 118.845 195.323 118.781C195.182 118.717 195.064 118.62 194.97 118.489C194.878 118.358 194.831 118.193 194.831 117.993L194.829 115.85L194.311 115.85L194.31 115.404L194.828 115.403L194.827 114.582L195.354 114.581L195.355 115.403L196.088 115.402Z" fill="white"/>
<path d="M197.482 116.767L197.484 118.83L196.957 118.831L196.953 114.258L197.48 114.257L197.481 115.936L197.526 115.936C197.606 115.759 197.727 115.618 197.887 115.514C198.049 115.408 198.265 115.355 198.535 115.355C198.886 115.354 199.169 115.46 199.383 115.671C199.598 115.882 199.706 116.208 199.706 116.649L199.708 118.828L199.181 118.828L199.179 116.685C199.179 116.412 199.108 116.202 198.966 116.053C198.826 115.903 198.632 115.828 198.383 115.828C198.123 115.829 197.907 115.911 197.736 116.075C197.567 116.237 197.482 116.468 197.482 116.767Z" fill="white"/>
<path d="M203.099 116.163L202.625 116.297C202.579 116.178 202.502 116.067 202.393 115.963C202.284 115.858 202.114 115.807 201.884 115.807C201.674 115.807 201.499 115.856 201.359 115.952C201.221 116.048 201.152 116.169 201.152 116.317C201.152 116.448 201.2 116.551 201.295 116.627C201.39 116.703 201.539 116.766 201.742 116.816L202.251 116.941C202.859 117.089 203.163 117.398 203.163 117.869C203.163 118.065 203.107 118.241 202.994 118.396C202.882 118.551 202.726 118.673 202.525 118.762C202.325 118.852 202.091 118.897 201.824 118.897C201.475 118.897 201.185 118.822 200.956 118.67C200.726 118.519 200.581 118.297 200.52 118.005L201.02 117.88C201.114 118.249 201.379 118.433 201.815 118.433C202.061 118.432 202.256 118.38 202.4 118.276C202.546 118.17 202.618 118.043 202.618 117.896C202.618 117.653 202.448 117.493 202.109 117.414L201.537 117.281C201.223 117.207 200.992 117.092 200.844 116.935C200.698 116.778 200.625 116.581 200.625 116.344C200.625 116.15 200.679 115.979 200.787 115.83C200.897 115.681 201.047 115.564 201.236 115.479C201.426 115.394 201.642 115.352 201.883 115.351C202.223 115.351 202.489 115.425 202.683 115.574C202.878 115.722 203.017 115.919 203.099 116.163Z" fill="white"/>
</g>
<path d="M86.9044 48.6977L86.8973 41.9415L89.6024 41.9386C90.348 41.9379 90.9079 42.1 91.2821 42.4251C91.6585 42.748 91.847 43.1624 91.8475 43.6682C91.8479 44.0663 91.7328 44.3886 91.5021 44.6352C91.2715 44.8795 90.9802 45.0415 90.6284 45.121L90.6285 45.187C90.8858 45.1977 91.1267 45.2701 91.3512 45.404C91.5778 45.5379 91.7617 45.7246 91.9027 45.9642C92.0437 46.2038 92.1144 46.4907 92.1147 46.825C92.1151 47.1835 92.0264 47.5036 91.8485 47.7853C91.6729 48.067 91.4125 48.2894 91.0674 48.4525C90.7222 48.6134 90.2968 48.6941 89.7909 48.6946L86.9044 48.6977ZM88.3316 47.5283L89.4961 47.5271C89.8964 47.5267 90.1866 47.4494 90.3668 47.2953C90.5492 47.1411 90.6402 46.9376 90.64 46.6847C90.6397 46.4054 90.5394 46.1768 90.339 45.9988C90.1409 45.8209 89.8703 45.7321 89.5272 45.7325L88.3297 45.7337L88.3316 47.5283ZM88.3287 44.7671L89.3877 44.766C89.6802 44.7657 89.9231 44.6896 90.1165 44.5377C90.3098 44.3835 90.4064 44.1734 90.4061 43.9073C90.4059 43.6631 90.3188 43.4664 90.1449 43.317C89.9732 43.1677 89.729 43.0931 89.4123 43.0935L88.3269 43.0946L88.3287 44.7671Z" fill="#242830"/>
<path d="M96.2669 46.5304L96.2639 43.6207L97.6692 43.6192L97.6745 48.6864L96.3253 48.6878L96.3243 47.7674L96.2715 47.7674C96.1575 48.0645 95.9675 48.3033 95.7016 48.4839C95.4378 48.6645 95.1157 48.755 94.7353 48.7554C94.225 48.756 93.8114 48.5871 93.4943 48.2487C93.1795 47.9081 93.0206 47.4421 93.0178 46.8505L93.0144 43.6241L94.4198 43.6226L94.4229 46.5983C94.4254 46.8974 94.5059 47.1337 94.6645 47.3073C94.823 47.4809 95.0353 47.5675 95.3014 47.5672C95.5543 47.567 95.7786 47.4788 95.9741 47.3026C96.1719 47.1265 96.2695 46.869 96.2669 46.5304Z" fill="#242830"/>
<path d="M99.6188 50.6571C99.4187 50.6573 99.2471 50.6399 99.1041 50.6048C98.9633 50.572 98.8533 50.538 98.7741 50.5029L99.0897 49.414C99.3383 49.4885 99.5472 49.508 99.7165 49.4727C99.8881 49.4373 100.023 49.3041 100.122 49.0731L100.214 48.8289L98.3909 43.6185L99.8688 43.6169L100.922 47.337L100.974 47.337L102.03 43.6147L103.517 43.6131L101.544 49.2629C101.401 49.6678 101.173 50.0012 100.859 50.2632C100.547 50.5253 100.133 50.6566 99.6188 50.6571Z" fill="#242830"/>
<path d="M107.794 45.7463L107.797 48.6758L106.392 48.6772L106.387 43.6101L107.726 43.6087L107.727 44.5027L107.786 44.5027C107.9 44.2078 108.088 43.9745 108.35 43.8027C108.613 43.6287 108.933 43.5415 109.309 43.5411C109.837 43.5405 110.261 43.7105 110.58 44.0511C110.899 44.3894 111.059 44.8544 111.06 45.446L111.063 48.6724L109.658 48.6738L109.655 45.6982C109.657 45.3881 109.577 45.1463 109.416 44.9727C109.256 44.7969 109.035 44.7092 108.753 44.7095C108.469 44.7098 108.239 44.8013 108.061 44.984C107.885 45.1645 107.796 45.4186 107.794 45.7463Z" fill="#242830"/>
<path d="M114.46 48.7678C113.948 48.7683 113.505 48.6599 113.131 48.4426C112.759 48.223 112.471 47.9176 112.269 47.5264C112.066 47.1329 111.964 46.6767 111.964 46.1576C111.963 45.6342 112.064 45.1767 112.266 44.785C112.468 44.3911 112.754 44.0851 113.126 43.867C113.499 43.6466 113.942 43.5362 114.455 43.5357C114.967 43.5351 115.409 43.6446 115.781 43.8642C116.155 44.0815 116.444 44.3869 116.647 44.7804C116.849 45.1716 116.951 45.629 116.952 46.1524C116.952 46.6714 116.851 47.1279 116.65 47.5218C116.448 47.9135 116.16 48.2195 115.786 48.4398C115.415 48.6579 114.973 48.7672 114.46 48.7678ZM114.466 47.6791C114.813 47.6788 115.076 47.5333 115.254 47.2428C115.434 46.9523 115.524 46.5861 115.523 46.144C115.523 45.702 115.432 45.3359 115.251 45.0458C115.073 44.7534 114.81 44.6075 114.463 44.6078C114.108 44.6082 113.841 44.7547 113.661 45.0474C113.481 45.3379 113.392 45.7042 113.392 46.1462C113.393 46.5883 113.483 46.9544 113.664 47.2445C113.844 47.5346 114.112 47.6795 114.466 47.6791Z" fill="#242830"/>
<path d="M118.741 48.6643L117.356 43.5986L118.778 43.5971L119.567 47.0008L119.613 47.0007L120.428 43.5954L121.823 43.5939L122.658 46.9778L122.701 46.9777L123.469 43.5922L124.888 43.5907L123.517 48.6593L122.03 48.6609L121.155 45.475L121.093 45.4751L120.225 48.6628L118.741 48.6643Z" fill="#242830"/>
<path d="M126.48 47.7325L126.444 48.0954C126.416 48.3858 126.361 48.675 126.28 48.9632C126.201 49.2536 126.118 49.5165 126.03 49.7519C125.944 49.9873 125.875 50.1721 125.823 50.3064L124.912 50.3073C124.945 50.1775 124.99 49.9971 125.047 49.7661C125.104 49.5352 125.157 49.2745 125.208 48.9841C125.258 48.696 125.289 48.4023 125.302 48.1032L125.318 47.7337L126.48 47.7325Z" fill="#242830"/>
<path d="M129.6 50.5531L129.593 43.5858L130.978 43.5844L130.979 44.4355L131.042 44.4354C131.106 44.2968 131.196 44.157 131.312 44.0162C131.428 43.8753 131.582 43.7575 131.773 43.6627C131.965 43.5657 132.201 43.5171 132.483 43.5168C132.854 43.5164 133.195 43.6128 133.506 43.806C133.816 43.9971 134.065 44.286 134.252 44.6729C134.442 45.0575 134.537 45.5402 134.537 46.1208C134.538 46.686 134.447 47.1634 134.265 47.5528C134.083 47.9401 133.837 48.2339 133.527 48.4344C133.217 48.6327 132.87 48.732 132.485 48.7324C132.212 48.7327 131.98 48.6878 131.789 48.5979C131.599 48.5079 131.444 48.3948 131.323 48.2586C131.204 48.1201 131.112 47.9806 131.046 47.8399L131.003 47.8399L131.005 50.5517L129.6 50.5531ZM130.971 46.1179C130.972 46.5688 131.064 46.9316 131.249 47.2063C131.437 47.4788 131.7 47.6149 132.038 47.6145C132.384 47.6142 132.647 47.4753 132.83 47.198C133.012 46.9185 133.103 46.5578 133.102 46.1157C133.102 45.6759 133.01 45.3197 132.827 45.0471C132.647 44.7724 132.383 44.6352 132.035 44.6356C131.694 44.636 131.432 44.7704 131.247 45.0389C131.063 45.3052 130.971 45.6649 130.971 46.1179Z" fill="#242830"/>
<path d="M136.922 48.7409C136.438 48.7415 136.036 48.6154 135.717 48.3628C135.398 48.1102 135.238 47.7332 135.238 47.2318C135.237 46.8535 135.326 46.5565 135.504 46.3408C135.682 46.1251 135.915 45.9676 136.203 45.8683C136.493 45.7669 136.805 45.7006 137.14 45.6694C137.579 45.625 137.894 45.5785 138.083 45.5299C138.272 45.4813 138.367 45.3756 138.366 45.2129L138.366 45.1931C138.366 44.9842 138.3 44.8226 138.168 44.7084C138.038 44.5941 137.853 44.5371 137.613 44.5374C137.361 44.5377 137.159 44.5929 137.01 44.703C136.861 44.8131 136.762 44.9529 136.714 45.1222L135.414 45.018C135.51 44.5561 135.749 44.1897 136.132 43.9188C136.516 43.6478 137.012 43.5121 137.619 43.5114C137.995 43.511 138.347 43.57 138.675 43.6885C139.003 43.8069 139.267 43.9924 139.467 44.2452C139.67 44.4957 139.771 44.8221 139.772 45.2246L139.775 48.6423L138.443 48.6437L138.442 47.941L138.402 47.9411C138.279 48.1765 138.095 48.3691 137.849 48.5189C137.605 48.6666 137.296 48.7406 136.922 48.7409ZM137.323 47.7706C137.631 47.7703 137.884 47.681 138.082 47.5026C138.279 47.3221 138.378 47.0988 138.378 46.8326L138.377 46.2949C138.322 46.3324 138.237 46.3654 138.12 46.3942C138.006 46.4229 137.883 46.4483 137.751 46.4704C137.621 46.4903 137.504 46.5081 137.401 46.5236C137.155 46.559 136.956 46.6285 136.804 46.732C136.655 46.8355 136.58 46.9863 136.58 47.1842C136.581 47.3777 136.65 47.5239 136.789 47.6228C136.93 47.7216 137.108 47.7709 137.323 47.7706Z" fill="#242830"/>
<path d="M141.504 50.6132C141.304 50.6134 141.133 50.596 140.99 50.561C140.849 50.5281 140.739 50.4942 140.66 50.4591L140.975 49.3701C141.224 49.4446 141.433 49.4642 141.602 49.4288C141.774 49.3934 141.909 49.2603 142.007 49.0292L142.1 48.785L140.276 43.5746L141.754 43.5731L142.807 47.2932L142.86 47.2931L143.915 43.5708L145.403 43.5693L143.429 49.2191C143.287 49.6239 143.059 49.9573 142.744 50.2194C142.432 50.4814 142.019 50.6127 141.504 50.6132Z" fill="#242830"/>
<path d="M149.676 41.8757L149.683 48.6319L148.277 48.6334L148.27 41.8772L149.676 41.8757Z" fill="#242830"/>
<path d="M152.254 48.7249C151.77 48.7254 151.368 48.5994 151.049 48.3468C150.73 48.0942 150.57 47.7172 150.57 47.2157C150.569 46.8375 150.658 46.5405 150.836 46.3248C151.014 46.109 151.247 45.9516 151.535 45.8523C151.825 45.7508 152.137 45.6845 152.471 45.6534C152.911 45.6089 153.226 45.5624 153.415 45.5138C153.604 45.4652 153.698 45.3596 153.698 45.1968L153.698 45.177C153.698 44.9681 153.632 44.8065 153.5 44.6923C153.37 44.5781 153.185 44.5211 152.945 44.5213C152.692 44.5216 152.491 44.5768 152.342 44.6869C152.192 44.797 152.093 44.9368 152.045 45.1062L150.745 45.002C150.842 44.54 151.081 44.1736 151.463 43.9027C151.848 43.6318 152.344 43.496 152.951 43.4954C153.327 43.495 153.679 43.554 154.007 43.6724C154.334 43.7908 154.598 43.9764 154.799 44.2291C155.001 44.4796 155.103 44.8061 155.103 45.2086L155.107 48.6262L153.774 48.6276L153.773 47.925L153.734 47.925C153.611 48.1605 153.426 48.3531 153.18 48.5029C152.936 48.6505 152.627 48.7245 152.254 48.7249ZM152.655 47.7546C152.963 47.7543 153.216 47.6649 153.413 47.4866C153.611 47.306 153.71 47.0827 153.71 46.8166L153.709 46.2789C153.654 46.3163 153.568 46.3494 153.452 46.3781C153.338 46.4068 153.214 46.4322 153.082 46.4544C152.953 46.4743 152.836 46.492 152.733 46.5075C152.487 46.543 152.288 46.6124 152.136 46.716C151.987 46.8195 151.912 46.9702 151.912 47.1682C151.912 47.3617 151.982 47.5079 152.12 47.6067C152.261 47.7055 152.439 47.7548 152.655 47.7546Z" fill="#242830"/>
<path d="M158.887 43.5551L158.888 44.6108L157.935 44.6118L157.937 47.0662C157.938 47.2597 157.982 47.3905 158.07 47.4586C158.158 47.5267 158.272 47.5607 158.413 47.5605C158.479 47.5604 158.545 47.5549 158.611 47.5438C158.677 47.5306 158.728 47.5206 158.763 47.514L158.985 48.5595C158.914 48.5816 158.816 48.607 158.688 48.6357C158.56 48.6666 158.405 48.6855 158.223 48.6922C157.713 48.7148 157.302 48.6052 156.992 48.3636C156.684 48.1198 156.531 47.7494 156.532 47.2524L156.53 44.6133L155.837 44.614L155.836 43.5583L156.528 43.5576L156.527 42.3436L157.933 42.3421L157.934 43.5561L158.887 43.5551Z" fill="#242830"/>
<path d="M162.063 48.7179C161.544 48.7185 161.096 48.6134 160.72 48.4026C160.344 48.1897 160.054 47.8887 159.851 47.4996C159.649 47.1084 159.547 46.6455 159.546 46.1111C159.546 45.5899 159.646 45.1323 159.848 44.7384C160.05 44.3446 160.335 44.0375 160.702 43.8171C161.071 43.5968 161.504 43.4864 162.001 43.4859C162.448 43.4854 162.85 43.5796 163.209 43.7683C163.57 43.9571 163.856 44.2427 164.068 44.6252C164.279 45.0054 164.385 45.4825 164.386 46.0566L164.386 46.4425L160.936 46.4461L160.936 46.4494C160.936 46.8277 161.04 47.1256 161.247 47.3431C161.454 47.5606 161.733 47.6692 162.085 47.6688C162.32 47.6686 162.524 47.6189 162.695 47.5197C162.866 47.4206 162.987 47.2742 163.057 47.0806L164.357 47.165C164.259 47.6358 164.008 48.0121 163.606 48.294C163.204 48.576 162.69 48.7173 162.063 48.7179ZM160.935 45.5752L163.062 45.573C163.06 45.2717 162.963 45.0233 162.771 44.8277C162.58 44.6322 162.331 44.5346 162.025 44.5349C161.713 44.5353 161.457 44.6367 161.257 44.8392C161.057 45.0418 160.95 45.2871 160.935 45.5752Z" fill="#242830"/>
<path d="M165.306 48.6156L165.3 43.5484L166.663 43.547L166.664 44.4311L166.716 44.431C166.808 44.1165 166.962 43.8788 167.178 43.718C167.395 43.555 167.647 43.4734 167.933 43.4731C168.069 43.4729 168.196 43.4893 168.312 43.5222C168.429 43.555 168.533 43.6 168.626 43.6571L168.205 44.8188C168.139 44.7858 168.066 44.7584 167.987 44.7365C167.91 44.7124 167.823 44.7004 167.726 44.7005C167.442 44.7008 167.202 44.7978 167.004 44.9916C166.809 45.1853 166.71 45.4372 166.708 45.7473L166.711 48.6141L165.306 48.6156Z" fill="#242830"/>
<path d="M56.6886 125.884H14.2362C11.7169 125.884 9.67467 127.926 9.67467 130.445V151.276C9.67467 153.795 11.7169 155.837 14.2362 155.837H56.6886C59.2078 155.837 61.2501 153.795 61.2501 151.276V130.445C61.2501 127.926 59.2078 125.884 56.6886 125.884Z" fill="#D8E4FC"/>
<path d="M119.029 125.884H76.5767C74.0575 125.884 72.0152 127.926 72.0152 130.445V151.276C72.0152 153.795 74.0575 155.837 76.5767 155.837H119.029C121.548 155.837 123.591 153.795 123.591 151.276V130.445C123.591 127.926 121.548 125.884 119.029 125.884Z" fill="#D8E4FC"/>
<path d="M28.7736 135.871C29.2236 135.338 29.4472 134.651 29.3967 133.955C28.7098 134.026 28.0767 134.359 27.6296 134.885C27.4046 135.137 27.2326 135.431 27.1239 135.751C27.0152 136.07 26.9721 136.409 26.9972 136.745C27.3408 136.747 27.6802 136.67 27.9886 136.518C28.2969 136.366 28.5657 136.145 28.7736 135.871V135.871Z" fill="#6391F3"/>
<path d="M30.2803 140.344C30.2824 139.887 30.4025 139.438 30.6289 139.04C30.8554 138.642 31.1806 138.31 31.573 138.075C31.3248 137.72 30.9972 137.427 30.6162 137.22C30.2352 137.014 29.8113 136.899 29.3781 136.884C28.448 136.791 27.5645 137.433 27.0902 137.433C26.6158 137.433 25.8904 136.903 25.1184 136.912C24.6122 136.928 24.1186 137.075 23.6853 137.337C23.2519 137.599 22.8935 137.969 22.6445 138.41C21.5842 140.27 22.3748 142.958 23.3978 144.437C23.9001 145.162 24.5046 145.98 25.258 145.953C26.0113 145.925 26.3089 145.469 27.2204 145.469C28.1318 145.469 28.3922 145.953 29.1921 145.943C29.9919 145.934 30.5314 145.199 31.0522 144.474C31.4096 143.95 31.6884 143.376 31.88 142.772C31.4051 142.568 31.0004 142.229 30.7161 141.798C30.4318 141.366 30.2802 140.861 30.2803 140.344V140.344Z" fill="#6391F3"/>
<path d="M36.7813 137.554H34.1028V144.399H35.1723V142.093H36.7534C37.0557 142.109 37.3579 142.061 37.6407 141.953C37.9236 141.846 38.1809 141.68 38.3962 141.468C38.6115 141.255 38.7801 141 38.8912 140.718C39.0023 140.437 39.0534 140.135 39.0414 139.833C39.0587 139.531 39.0123 139.228 38.9051 138.945C38.7979 138.662 38.6323 138.405 38.4192 138.19C38.206 137.975 37.9501 137.807 37.6679 137.698C37.3857 137.588 37.0837 137.539 36.7813 137.554ZM36.5023 141.172H35.1723V138.484H36.5023C36.6907 138.469 36.8803 138.492 37.0591 138.554C37.2379 138.615 37.402 138.713 37.541 138.841C37.6801 138.969 37.7911 139.124 37.867 139.298C37.943 139.471 37.9822 139.658 37.9822 139.847C37.9822 140.036 37.943 140.223 37.867 140.396C37.7911 140.569 37.6801 140.724 37.541 140.852C37.402 140.981 37.2379 141.078 37.0591 141.14C36.8803 141.201 36.6907 141.225 36.5023 141.209V141.172Z" fill="#6391F3"/>
<path d="M41.5618 139.21C41.0823 139.157 40.6008 139.292 40.2191 139.587C39.8373 139.882 39.5851 140.314 39.5157 140.791H40.4457C40.4932 140.557 40.6287 140.35 40.8244 140.214C41.02 140.077 41.2607 140.02 41.4967 140.056C42.1756 140.056 42.5756 140.382 42.5756 140.986V141.377L41.1898 141.451C39.9156 141.544 39.2181 142.056 39.2181 142.958C39.2199 143.178 39.2686 143.395 39.361 143.594C39.4533 143.793 39.5872 143.971 39.7536 144.114C39.92 144.258 40.1151 144.364 40.3259 144.426C40.5367 144.488 40.7583 144.504 40.9759 144.474C41.305 144.482 41.63 144.4 41.9154 144.236C42.2008 144.072 42.4356 143.832 42.5942 143.544V143.544V144.409H43.58V140.875C43.6265 139.88 42.8174 139.21 41.5618 139.21ZM42.6035 142.493C42.5941 142.658 42.5517 142.82 42.479 142.969C42.4063 143.118 42.3046 143.251 42.1799 143.36C42.0552 143.469 41.91 143.552 41.7527 143.605C41.5955 143.657 41.4294 143.677 41.2642 143.665C40.6783 143.665 40.3341 143.386 40.3341 142.939C40.3341 142.493 40.6969 142.223 41.4037 142.177L42.65 142.093L42.6035 142.493Z" fill="#6391F3"/>
<path d="M47.9792 139.265L46.6585 143.469L45.3285 139.265H44.2032L46.0633 144.427L45.9889 144.697C45.9587 144.917 45.8458 145.118 45.673 145.258C45.5002 145.398 45.2806 145.467 45.0588 145.45C44.9508 145.465 44.8413 145.465 44.7333 145.45V146.297C44.8696 146.306 45.0063 146.306 45.1425 146.297C46.1935 146.297 46.6771 145.897 47.1236 144.66L49.0488 139.275L47.9792 139.265Z" fill="#6391F3"/>
<path d="M97.2087 141.888V145.019H96.2116V137.281H98.8639C99.1783 137.274 99.491 137.329 99.7838 137.444C100.077 137.558 100.344 137.73 100.569 137.95C100.795 138.158 100.975 138.411 101.099 138.692C101.222 138.974 101.286 139.277 101.286 139.585C101.286 139.892 101.222 140.196 101.099 140.478C100.975 140.759 100.795 141.012 100.569 141.22C100.344 141.439 100.077 141.61 99.7836 141.723C99.4906 141.836 99.1778 141.889 98.8639 141.878H97.2187L97.2087 141.888ZM97.2087 138.229V140.931H98.8639C99.049 140.94 99.2337 140.908 99.4057 140.84C99.5777 140.771 99.733 140.666 99.861 140.532C100.097 140.287 100.229 139.96 100.229 139.62C100.229 139.28 100.097 138.953 99.861 138.707V138.707C99.7343 138.571 99.5795 138.464 99.4074 138.393C99.2352 138.323 99.0498 138.291 98.8639 138.299L97.2087 138.229Z" fill="#6391F3"/>
<path d="M103.57 139.545C104.204 139.511 104.827 139.726 105.305 140.143C105.523 140.35 105.692 140.602 105.803 140.88C105.913 141.159 105.961 141.459 105.943 141.759V145.019H104.996V144.281H104.946C104.776 144.562 104.536 144.793 104.249 144.952C103.962 145.111 103.639 145.193 103.311 145.189C102.78 145.211 102.261 145.033 101.855 144.69C101.665 144.533 101.514 144.334 101.412 144.11C101.31 143.885 101.26 143.64 101.267 143.394C101.256 143.142 101.306 142.892 101.414 142.664C101.522 142.436 101.684 142.238 101.885 142.088C102.366 141.743 102.949 141.571 103.54 141.599C104.049 141.582 104.554 141.695 105.006 141.928V141.699C105.008 141.53 104.971 141.364 104.898 141.212C104.826 141.059 104.719 140.926 104.587 140.821C104.316 140.572 103.958 140.44 103.59 140.452C103.328 140.447 103.07 140.509 102.839 140.633C102.608 140.757 102.414 140.939 102.274 141.16L101.397 140.602C101.636 140.252 101.962 139.971 102.344 139.786C102.725 139.6 103.147 139.517 103.57 139.545ZM102.284 143.394C102.281 143.521 102.31 143.646 102.367 143.759C102.424 143.872 102.509 143.969 102.613 144.042C102.828 144.22 103.102 144.312 103.381 144.301C103.798 144.298 104.199 144.134 104.498 143.843C104.654 143.705 104.779 143.537 104.865 143.348C104.951 143.159 104.996 142.953 104.996 142.746C104.617 142.483 104.161 142.353 103.7 142.377C103.346 142.368 102.998 142.469 102.703 142.666C102.581 142.745 102.481 142.853 102.412 142.98C102.342 143.107 102.305 143.249 102.304 143.394H102.284Z" fill="#6391F3"/>
<path d="M111.398 139.704L108.077 147.332H107.08L108.287 144.69L106.103 139.704H107.19L108.765 143.503L110.321 139.704H111.398Z" fill="#6391F3"/>
<path d="M93.1903 141.21C93.1923 140.906 93.1689 140.603 93.1205 140.303H88.8928V142.018H91.2958C91.2463 142.29 91.1422 142.55 90.9897 142.782C90.8372 143.013 90.6394 143.211 90.4084 143.364V144.481H91.8841C92.3169 144.056 92.6566 143.546 92.8815 142.983C93.1064 142.42 93.2116 141.816 93.1903 141.21Z" fill="#6391F3"/>
<path d="M88.8928 145.558C89.9914 145.597 91.0629 145.212 91.8841 144.481L90.4483 143.364C89.9998 143.661 89.4701 143.81 88.9327 143.793C88.3774 143.786 87.8381 143.606 87.3909 143.277C86.9437 142.948 86.611 142.486 86.4399 141.958H84.9641V143.105C85.3322 143.834 85.8931 144.448 86.5857 144.88C87.2784 145.313 88.0763 145.547 88.8928 145.558Z" fill="#6391F3"/>
<path d="M86.4299 141.958C86.2407 141.405 86.2407 140.805 86.4299 140.253V139.106H84.9542C84.6459 139.726 84.4855 140.408 84.4855 141.1C84.4855 141.792 84.6459 142.475 84.9542 143.095L86.4299 141.958Z" fill="#6391F3"/>
<path d="M88.8928 138.418C89.527 138.407 90.1399 138.647 90.5978 139.086L91.8841 137.82C91.0686 137.076 89.9958 136.68 88.8928 136.713C88.0669 136.711 87.2566 136.938 86.5524 137.369C85.8481 137.801 85.2775 138.419 84.9043 139.156L86.38 140.303C86.5449 139.763 86.8772 139.289 87.3289 138.95C87.7806 138.612 88.3282 138.425 88.8928 138.418Z" fill="#6391F3"/>
<path d="M182.001 125.884H139.548C137.029 125.884 134.987 127.926 134.987 130.445V151.276C134.987 153.795 137.029 155.837 139.548 155.837H182.001C184.52 155.837 186.562 153.795 186.562 151.276V130.445C186.562 127.926 184.52 125.884 182.001 125.884Z" stroke="#6391F3" stroke-width="0.94519" stroke-miterlimit="10"/>
<path opacity="0.5" d="M244.341 125.884H201.889C199.37 125.884 197.327 127.926 197.327 130.445V151.276C197.327 153.795 199.37 155.837 201.889 155.837H244.341C246.861 155.837 248.903 153.795 248.903 151.276V130.445C248.903 127.926 246.861 125.884 244.341 125.884Z" stroke="#6391F3" stroke-width="0.94519" stroke-miterlimit="10"/>
<path d="M244.341 125.884H201.889C199.37 125.884 197.327 127.926 197.327 130.445V151.276C197.327 153.795 199.37 155.837 201.889 155.837H244.341C246.861 155.837 248.903 153.795 248.903 151.276V130.445C248.903 127.926 246.861 125.884 244.341 125.884Z" fill="white"/>
<path opacity="0.1" d="M239.029 139.091H228.148" stroke="#6391F3" stroke-width="2.91271" stroke-linecap="round" stroke-linejoin="round"/>
<path opacity="0.1" d="M233.773 144.34H228.148" stroke="#6391F3" stroke-width="2.91271" stroke-linecap="round" stroke-linejoin="round"/>
<path opacity="0.25" d="M213.598 146.879C216.405 146.879 218.681 144.603 218.681 141.795C218.681 138.988 216.405 136.712 213.598 136.712C210.79 136.712 208.514 138.988 208.514 141.795C208.514 144.603 210.79 146.879 213.598 146.879Z" fill="#6391F3"/>
<path opacity="0.15" d="M218.437 146.878C221.244 146.878 223.52 144.602 223.52 141.795C223.52 138.987 221.244 136.711 218.437 136.711C215.629 136.711 213.353 138.987 213.353 141.795C213.353 144.602 215.629 146.878 218.437 146.878Z" fill="#6391F3"/>
<g opacity="0.8">
<path d="M182.001 125.884H139.548C137.029 125.884 134.987 127.926 134.987 130.445V151.276C134.987 153.795 137.029 155.837 139.548 155.837H182.001C184.52 155.837 186.562 153.795 186.562 151.276V130.445C186.562 127.926 184.52 125.884 182.001 125.884Z" fill="white"/>
<g opacity="0.8">
<path fill-rule="evenodd" clip-rule="evenodd" d="M146.33 137.926H148.785C150.101 137.926 150.595 138.587 150.519 139.568C150.397 141.187 149.416 142.084 148.116 142.084H147.463C147.288 142.084 147.166 142.198 147.12 142.518L146.839 144.373C146.838 144.422 146.82 144.469 146.788 144.507C146.756 144.544 146.713 144.569 146.664 144.578H145.144C144.999 144.578 144.946 144.464 144.984 144.221L145.927 138.276C145.93 138.226 145.942 138.177 145.964 138.133C145.986 138.088 146.017 138.048 146.055 138.016C146.092 137.983 146.136 137.958 146.183 137.943C146.23 137.928 146.28 137.922 146.33 137.926V137.926Z" fill="#7DA5FA"/>
<path fill-rule="evenodd" clip-rule="evenodd" d="M156.981 137.811C157.192 137.78 157.407 137.8 157.609 137.869C157.811 137.937 157.993 138.052 158.142 138.205C158.29 138.358 158.4 138.544 158.463 138.748C158.525 138.952 158.539 139.168 158.501 139.378C158.372 140.708 157.665 141.445 156.54 141.453H155.536C155.4 141.453 155.331 141.567 155.293 141.803L155.103 143.012C155.103 143.194 154.981 143.278 154.845 143.278H153.932C153.78 143.278 153.735 143.186 153.765 142.981L154.525 138.138C154.563 137.903 154.655 137.811 154.814 137.811H156.981ZM155.46 140.404H156.221C156.692 140.404 156.981 140.062 157.026 139.484C157.036 139.401 157.027 139.318 157 139.239C156.973 139.161 156.928 139.089 156.87 139.03C156.812 138.971 156.741 138.926 156.663 138.898C156.584 138.87 156.501 138.86 156.418 138.868H155.719L155.483 140.389L155.46 140.404ZM160.919 142.913C161.003 142.837 161.086 142.799 161.071 142.913V143.133C161.071 143.255 161.109 143.316 161.215 143.316H162.029C162.166 143.316 162.227 143.262 162.265 143.05L162.766 139.91C162.766 139.75 162.766 139.674 162.63 139.674H161.74C161.656 139.674 161.618 139.72 161.596 139.841V140.031C161.596 140.138 161.535 140.153 161.489 140.031C161.337 139.666 160.949 139.507 160.41 139.522C159.832 139.534 159.282 139.769 158.874 140.179C158.467 140.589 158.235 141.141 158.228 141.719C158.205 141.932 158.228 142.147 158.294 142.35C158.36 142.553 158.469 142.74 158.612 142.899C158.756 143.058 158.931 143.184 159.127 143.27C159.323 143.356 159.534 143.4 159.748 143.399C159.981 143.414 160.215 143.379 160.433 143.295C160.651 143.211 160.848 143.08 161.01 142.913H160.919ZM160.235 142.426C160.113 142.432 159.991 142.409 159.879 142.361C159.766 142.313 159.666 142.24 159.586 142.148C159.506 142.056 159.447 141.947 159.415 141.83C159.382 141.712 159.377 141.588 159.398 141.468C159.449 141.204 159.588 140.965 159.792 140.791C159.997 140.617 160.255 140.518 160.524 140.51C160.645 140.506 160.766 140.529 160.878 140.578C160.989 140.627 161.089 140.699 161.169 140.791C161.249 140.883 161.308 140.991 161.341 141.108C161.374 141.225 161.38 141.348 161.36 141.468C161.312 141.734 161.174 141.974 160.969 142.149C160.764 142.324 160.504 142.422 160.235 142.426V142.426ZM164.325 139.644H163.496C163.329 139.644 163.261 139.765 163.314 139.925L164.34 142.913L163.337 144.342C163.253 144.464 163.337 144.57 163.435 144.57H164.355C164.41 144.576 164.466 144.566 164.515 144.542C164.565 144.518 164.607 144.48 164.637 144.433L167.776 139.925C167.875 139.788 167.83 139.636 167.67 139.636H166.796C166.644 139.636 166.583 139.697 166.499 139.826L165.184 141.727L164.659 139.818C164.659 139.704 164.545 139.644 164.386 139.644H164.325Z" fill="#6391F3"/>
<path fill-rule="evenodd" clip-rule="evenodd" d="M171.084 137.811C171.294 137.78 171.51 137.8 171.711 137.869C171.913 137.937 172.096 138.052 172.244 138.205C172.393 138.358 172.503 138.544 172.566 138.748C172.628 138.952 172.641 139.168 172.604 139.378C172.475 140.708 171.768 141.445 170.643 141.453H169.662C169.517 141.453 169.449 141.567 169.411 141.803L169.221 143.012C169.221 143.194 169.099 143.278 168.962 143.278H168.05C167.906 143.278 167.852 143.186 167.883 142.981L168.643 138.138C168.681 137.903 168.765 137.811 168.932 137.811H171.084ZM169.601 140.404H170.361C170.825 140.404 171.122 140.062 171.167 139.484C171.174 139.401 171.163 139.318 171.134 139.24C171.106 139.162 171.061 139.092 171.002 139.033C170.944 138.975 170.873 138.929 170.795 138.901C170.717 138.872 170.634 138.861 170.551 138.868H169.852L169.616 140.389L169.601 140.404ZM175.06 142.913C175.143 142.837 175.227 142.799 175.219 142.913V143.133C175.219 143.255 175.265 143.316 175.356 143.316H176.17C176.306 143.316 176.375 143.262 176.405 143.05L176.907 139.91C176.907 139.75 176.907 139.674 176.77 139.674H175.881C175.797 139.674 175.759 139.72 175.744 139.841V140.031C175.744 140.138 175.683 140.153 175.637 140.031C175.485 139.666 175.098 139.507 174.565 139.522C173.987 139.534 173.436 139.769 173.028 140.179C172.619 140.589 172.386 141.141 172.376 141.719C172.353 141.932 172.376 142.147 172.442 142.35C172.509 142.553 172.617 142.74 172.761 142.899C172.904 143.058 173.079 143.184 173.275 143.27C173.471 143.356 173.683 143.4 173.896 143.399C174.128 143.415 174.361 143.379 174.578 143.295C174.794 143.211 174.99 143.081 175.151 142.913H175.06ZM174.383 142.426C174.261 142.431 174.139 142.409 174.026 142.361C173.914 142.313 173.813 142.24 173.733 142.149C173.652 142.057 173.592 141.948 173.559 141.83C173.525 141.713 173.519 141.589 173.539 141.468C173.589 141.204 173.728 140.965 173.933 140.791C174.138 140.617 174.396 140.518 174.664 140.51C174.786 140.506 174.907 140.529 175.019 140.578C175.13 140.627 175.23 140.699 175.31 140.791C175.39 140.883 175.448 140.991 175.481 141.108C175.514 141.225 175.521 141.348 175.501 141.468C175.453 141.732 175.316 141.972 175.113 142.146C174.909 142.321 174.651 142.42 174.383 142.426ZM178.123 143.3H177.188C177.159 143.3 177.131 143.29 177.11 143.27C177.089 143.25 177.076 143.223 177.074 143.194V143.194L177.895 137.979C177.903 137.942 177.922 137.909 177.952 137.885C177.981 137.861 178.017 137.849 178.055 137.849H178.99C179.019 137.849 179.047 137.86 179.068 137.88C179.089 137.9 179.102 137.927 179.104 137.956V137.956L178.283 143.171C178.276 143.208 178.256 143.241 178.227 143.265C178.198 143.289 178.161 143.301 178.123 143.3V143.3Z" fill="#7DA5FA"/>
<path fill-rule="evenodd" clip-rule="evenodd" d="M144.794 135.873H147.25C147.975 135.79 148.707 135.971 149.31 136.383C149.5 136.557 149.646 136.774 149.735 137.016C149.825 137.258 149.857 137.518 149.827 137.774C149.675 139.652 148.557 140.701 147.052 140.701H145.836C145.63 140.701 145.493 140.838 145.44 141.21L145.098 143.347C145.098 143.483 145.015 143.567 144.908 143.575H143.388C143.22 143.575 143.16 143.453 143.205 143.172L144.292 136.269C144.297 136.209 144.314 136.15 144.342 136.097C144.37 136.044 144.409 135.998 144.456 135.961C144.503 135.923 144.558 135.896 144.616 135.881C144.674 135.866 144.735 135.864 144.794 135.873Z" fill="#6391F3"/>
</g>
</g>
<path d="M201.608 166.905C199.306 165.074 195.965 165.448 194.147 167.74C192.329 170.032 192.721 173.374 195.023 175.205C197.325 177.036 200.665 176.662 202.483 174.37C204.301 172.078 203.909 168.736 201.608 166.905Z" fill="url(#paint0_linear)"/>
<path d="M218.329 62.0169C216.638 62.0126 215.017 61.3372 213.824 60.1391C212.63 58.9409 211.961 57.318 211.963 55.6268C211.965 53.9356 212.639 52.3144 213.835 51.1193C215.032 49.9242 216.654 49.2529 218.345 49.2529C220.036 49.2529 221.658 49.9242 222.855 51.1193C224.052 52.3144 224.725 53.9356 224.727 55.6268C224.729 57.318 224.06 58.9409 222.867 60.1391C221.673 61.3372 220.053 62.0126 218.361 62.0169H218.329Z" fill="url(#paint1_linear)"/>
<path d="M123.546 27.2647C120.866 27.2579 118.298 26.1875 116.406 24.2886C114.515 22.3897 113.454 19.8177 113.457 17.1374C113.461 14.4571 114.528 11.8878 116.424 9.99377C118.321 8.09974 120.892 7.03589 123.572 7.03589C126.252 7.03589 128.823 8.09974 130.719 9.99377C132.616 11.8878 133.683 14.4571 133.686 17.1374C133.69 19.8177 132.629 22.3897 130.738 24.2886C128.846 26.1875 126.278 27.2579 123.598 27.2647H123.546Z" fill="url(#paint2_linear)"/>
<defs>
<filter id="filter0_d" x="18.0248" y="13.6273" width="223.348" height="174.066" filterUnits="userSpaceOnUse" color-interpolation-filters="sRGB">
<feFlood flood-opacity="0" result="BackgroundImageFix"/>
<feColorMatrix in="SourceAlpha" type="matrix" values="0 0 0 0 0 0 0 0 0 0 0 0 0 0 0 0 0 0 127 0"/>
<feOffset/>
<feGaussianBlur stdDeviation="4.62009"/>
<feColorMatrix type="matrix" values="0 0 0 0 0 0 0 0 0 0 0 0 0 0 0 0 0 0 0.12 0"/>
<feBlend mode="normal" in2="BackgroundImageFix" result="effect1_dropShadow"/>
<feBlend mode="normal" in="SourceGraphic" in2="effect1_dropShadow" result="shape"/>
</filter>
<linearGradient id="paint0_linear" x1="203.874" y1="168.708" x2="193.044" y2="173.656" gradientUnits="userSpaceOnUse">
<stop stop-color="#3C76F0" stop-opacity="0"/>
<stop offset="1" stop-color="#3C76F0"/>
</linearGradient>
<linearGradient id="paint1_linear" x1="209.304" y1="58.7505" x2="223.985" y2="54.6399" gradientUnits="userSpaceOnUse">
<stop stop-color="#66C789"/>
<stop offset="1" stop-color="#66C789" stop-opacity="0"/>
</linearGradient>
<linearGradient id="paint2_linear" x1="109.244" y1="22.088" x2="132.51" y2="15.5734" gradientUnits="userSpaceOnUse">
<stop stop-color="#66C789"/>
<stop offset="1" stop-color="#66C789" stop-opacity="0"/>
</linearGradient>
</defs>
</svg>
