<svg width="545" height="521" viewBox="0 0 545 521" xmlns="http://www.w3.org/2000/svg"><defs><linearGradient x1="10.111%" y1="33.282%" x2="109.61%" y2="55.418%" id="a"><stop stop-color="#24282F" offset="0%"/><stop stop-color="#1C1C1C" offset="100%"/></linearGradient><linearGradient x1="10.332%" y1="33.235%" x2="72.604%" y2="102.97%" id="b"><stop stop-color="#A7BFE8" offset="0%"/><stop stop-color="#9AB6E8" offset="25.29%"/><stop stop-color="#79A0E8" offset="71.67%"/><stop stop-color="#6190E8" offset="100%"/></linearGradient><linearGradient x1="25.438%" y1="2.211%" x2="89.806%" y2="60.732%" id="c"><stop stop-color="#485563" offset="0%"/><stop stop-color="#43505D" offset="30.58%"/><stop stop-color="#36404C" offset="71.35%"/><stop stop-color="#29323C" offset="100%"/></linearGradient><linearGradient x1="2.849%" y1="9.91%" x2="82.842%" y2="101.157%" id="d"><stop stop-color="#29323C" offset="0%"/><stop stop-color="#36404C" offset="28.65%"/><stop stop-color="#43505D" offset="69.42%"/><stop stop-color="#485563" offset="100%"/></linearGradient><linearGradient x1="-1.308%" y1="49.919%" x2="100.657%" y2="49.919%" id="e"><stop stop-color="#6190E8" offset="0%"/><stop stop-color="#79A0E8" offset="28.33%"/><stop stop-color="#9AB6E8" offset="74.72%"/><stop stop-color="#A7BFE8" offset="100%"/></linearGradient><linearGradient x1="73.08%" y1="-5.764%" x2="45.669%" y2="83.433%" id="f"><stop stop-color="#485563" offset="0%"/><stop stop-color="#43505D" offset="30.58%"/><stop stop-color="#36404C" offset="71.35%"/><stop stop-color="#29323C" offset="100%"/></linearGradient><linearGradient x1="94.096%" y1="88.978%" x2="46.007%" y2="19.637%" id="g"><stop stop-color="#ACCBEE" offset="0%"/><stop stop-color="#E7F0FD" offset="100%"/></linearGradient><linearGradient x1="-.043%" y1="50.049%" x2="99.934%" y2="50.049%" id="h"><stop stop-color="#6190E8" offset="0%"/><stop stop-color="#79A0E8" offset="28.33%"/><stop stop-color="#9AB6E8" offset="74.72%"/><stop stop-color="#A7BFE8" offset="100%"/></linearGradient></defs><g fill="none" fill-rule="evenodd"><path fill="url(#a)" fill-rule="nonzero" d="M494.4 513.7L.5 400.9 390.3 73z"/><path stroke="#3C76F0" d="M338.1 280.3l114.8-97.9 16.2 72.7z"/><path stroke="url(#b)" d="M388.4 133.6l-50.3 146.7 131-25.2z"/><path d="M544.4 387.4c-3.9 0-206.8 82.9-206.3 80.6.5-2.4 0-187.7 0-187.7l206.3 107.1z" stroke="#3C76F0"/><path stroke="url(#c)" d="M410.7 374.2l58.4-119.1-131 25.2z"/><path stroke="url(#d)" d="M338.1 280.3l-61-78.1-8.6 88.8-57.6-167.6-50.5-35.1"/><path d="M280.9 203.9c0 1.7-1.4 3.1-3.1 3.1-1.7 0-3.1-1.4-3.1-3.1 0-1.7 1.4-3.1 3.1-3.1 1.7.1 3.1 1.4 3.1 3.1z" fill="#A1C0F7" fill-rule="nonzero"/><path stroke="url(#e)" d="M130.4 268.8l88-49.1-4.2 81.1z"/><circle fill="#3C76F0" fill-rule="nonzero" transform="rotate(-49.291 129.874 269.41)" cx="129.874" cy="269.41" r="3.1"/><path d="M272 291.2c0 1.7-1.4 3.1-3.1 3.1-1.7 0-3.1-1.4-3.1-3.1 0-1.7 1.4-3.1 3.1-3.1 1.7 0 3.1 1.4 3.1 3.1z" fill="#A1C0F7" fill-rule="nonzero"/><path d="M343.4 280.6c0 2.6-2.1 4.6-4.6 4.6-2.6 0-4.6-2.1-4.6-4.6 0-2.6 2.1-4.6 4.6-4.6 2.5-.1 4.6 2 4.6 4.6z" fill="#3C76F0" fill-rule="nonzero"/><path stroke="#3C76F0" d="M221.4 405.8l34.7-94.6 49.7 64.2z"/><path fill="#333941" fill-rule="nonzero" d="M269.5 181.4l-12.9 12-3.4-14.8zM450.7 121.5c.2.4.9 25.3 1.1 25.2.2-.2 19.5-8.6 19.5-8.6l-20.6-16.6zM120.6 194.9l10.9-19.7 8.7 34.6zM170.6 157.1l17-4.7-3.8 14.7zM502.4 208.4c-.2.4-19.3 16.4-19 16.5.3.1 18.9 9.9 18.9 9.9l.1-26.4z"/><g fill-rule="nonzero"><path d="M326.5 419.2c-2.5-4 2.2-5.3 10.4-.6 1.4.8 2.6 1.5 3.7 2.1 0-5.2.1-10.4.1-15.5 0-12.1-.1-23.9-.2-35.5l-.4-33.9c-9.9 4.4-20.2 9.2-30.8 14-10.6 4.9-21.4 9.9-32.3 15.2-10.9 5.3-21.9 10.7-32.6 16.7-10.8 6-21.2 12.3-31.6 18.4l-3.4 2 3.2 1.8c10.3 5.8 20.4 12 30.4 18.5 9.9 6.5 19.7 13.2 29.4 20l14.5 10.3c4.9 3.4 9.7 6.8 14.7 10.1l14.8 9.9 14.8 9.8 7 4.6.5-8.5c.7-12.2 1.4-24.5 1.7-36.7.1-3.7.2-7.4.2-11.1-4.9-3.3-12-8.2-14.1-11.6zm7.2-48.8l-.1 2c-.4-.1-.8-.6-.8-1 .1-.5.4-.9.9-1zm-.5 12.1l-.1 2c-.4-.1-.8-.6-.8-1 .1-.5.4-.9.9-1zm-.5 12l-.1 2c-.4-.1-.8-.6-.8-1 0-.5.4-.9.9-1zm-.6 12l-.1 2c-.4-.1-.8-.6-.8-1 .1-.5.5-.8.9-1zm-95.6 11l-1.5-1c.2-.1.3-.1.5-.1.6 0 1.1.5 1 1.1zm11.5 7.3l-1.7-1.1c.1-.5.6-.8 1-.8.6 0 1 .5 1 1.1 0 .3-.1.6-.3.8zm-.3-11.8c-.6 0-1-.5-1-1.1 0-.6.5-1 1.1-1 .6 0 1 .5 1 1.1 0 .6-.5 1.1-1.1 1zm11.3 18.6c-.6 0-1-.5-1-1.1 0-.6.5-1 1.1-1 .6 0 1 .5 1 1.1 0 .6-.5 1-1.1 1zm.5-12c-.6 0-1-.5-1-1.1 0-.6.5-1 1.1-1 .6 0 1 .5 1 1.1 0 .5-.5 1-1.1 1zm.6-14c-.6 0-1-.5-1-1.1 0-.6.5-1 1.1-1 .6 0 1 .5 1 1.1 0 .5-.5 1-1.1 1zm10.7 32.5c-.6 0-1-.5-1-1.1 0-.6.5-1 1.1-1 .6 0 1 .5 1 1.1 0 .6-.5 1.1-1.1 1zm.5-12c-.6 0-1-.5-1-1.1 0-.6.5-1 1.1-1 .6 0 1 .5 1 1.1 0 .6-.5 1-1.1 1zm.5-12c-.6 0-1-.5-1-1.1 0-.6.5-1 1.1-1 .6 0 1 .5 1 1.1 0 .5-.5 1-1.1 1zm.6-14c-.6 0-1-.5-1-1.1 0-.6.5-1 1.1-1 .6 0 1 .5 1 1.1 0 .5-.5 1-1.1 1zm10.2 44.6c-.6 0-1-.5-1-1.1 0-.6.5-1 1.1-1 .6 0 1 .5 1 1.1-.1.5-.6 1-1.1 1zm.5-12.1c-.6 0-1-.5-1-1.1 0-.6.5-1 1.1-1 .6 0 1 .5 1 1.1 0 .6-.5 1.1-1.1 1zm.5-12c-.6 0-1-.5-1-1.1 0-.6.5-1 1.1-1 .6 0 1 .5 1 1.1 0 .6-.5 1-1.1 1zm.6-14c-.6 0-1-.5-1-1.1 0-.6.5-1 1.1-1 .6 0 1 .5 1 1.1 0 .6-.5 1-1.1 1zm.5-12.1c-.6 0-1-.5-1-1.1 0-.6.5-1 1.1-1 .6 0 1 .5 1 1.1 0 .6-.5 1.1-1.1 1zm9.6 56.7c-.6 0-1-.5-1-1.1 0-.6.5-1 1.1-1 .6 0 1 .5 1 1.1 0 .6-.5 1-1.1 1zm.5-12c-.6 0-1-.5-1-1.1 0-.6.5-1 1.1-1 .6 0 1 .5 1 1.1 0 .5-.5 1-1.1 1zm.6-12.1c-.6 0-1-.5-1-1.1 0-.6.5-1 1.1-1 .6 0 1 .5 1 1.1 0 .6-.5 1-1.1 1zm.5-12c-.6 0-1-.5-1-1.1 0-.6.5-1 1.1-1 .6 0 1 .5 1 1.1 0 .6-.5 1-1.1 1zm.6-14c-.6 0-1-.5-1-1.1 0-.6.5-1 1.1-1 .6 0 1 .5 1 1.1 0 .5-.5 1-1.1 1zm.5-12.1c-.6 0-1-.5-1-1.1 0-.6.5-1 1.1-1 .6 0 1 .5 1 1.1 0 .6-.5 1.1-1.1 1zm9.1 68.7c-.6 0-1-.5-1-1.1 0-.6.5-1 1.1-1 .6 0 1 .5 1 1.1 0 .6-.5 1.1-1.1 1zm.5-12c-.6 0-1-.5-1-1.1 0-.6.5-1 1.1-1 .6 0 1 .5 1 1.1 0 .6-.5 1-1.1 1zm.5-12c-.6 0-1-.5-1-1.1 0-.6.5-1 1.1-1 .6 0 1 .5 1 1.1 0 .5-.5 1-1.1 1zm.6-12.1c-.6 0-1-.5-1-1.1 0-.6.5-1 1.1-1 .6 0 1 .5 1 1.1-.1.6-.6 1-1.1 1zm.6-14c-.6 0-1-.5-1-1.1 0-.6.5-1 1.1-1 .6 0 1 .5 1 1.1-.1.6-.6 1-1.1 1zm.5-12c-.6 0-1-.5-1-1.1 0-.6.5-1 1.1-1 .6 0 1 .5 1 1.1 0 .5-.5 1-1.1 1zm.5-12.1c-.6 0-1-.5-1-1.1 0-.6.5-1 1.1-1 .6 0 1 .5 1 1.1 0 .6-.5 1.1-1.1 1zm8.6 80.8c-.6 0-1-.5-1-1.1 0-.6.5-1 1.1-1 .6 0 1 .5 1 1.1 0 .5-.5 1-1.1 1zm.5-12.1c-.6 0-1-.5-1-1.1 0-.6.5-1 1.1-1 .6 0 1 .5 1 1.1 0 .6-.5 1.1-1.1 1zm.5-12c-.6 0-1-.5-1-1.1 0-.6.5-1 1.1-1 .6 0 1 .5 1 1.1 0 .6-.5 1-1.1 1zm.5-12c-.6 0-1-.5-1-1.1 0-.6.5-1 1.1-1 .6 0 1 .5 1 1.1 0 .5-.5 1-1.1 1zm.6-12.1c-.6 0-1-.5-1-1.1 0-.6.5-1 1.1-1 .6 0 1 .5 1 1.1-.1.6-.6 1-1.1 1zm.5-14c-.6 0-1-.5-1-1.1 0-.6.5-1 1.1-1 .6 0 1 .5 1 1.1 0 .6-.5 1-1.1 1zm.6-12c-.6 0-1-.5-1-1.1 0-.6.5-1 1.1-1 .6 0 1 .5 1 1.1 0 .5-.5 1-1.1 1zm.5-12.1c-.6 0-1-.5-1-1.1 0-.6.5-1 1.1-1 .6 0 1 .5 1 1.1 0 .6-.5 1.1-1.1 1zm9.4 54.6l-.1 2c-.4-.1-.8-.6-.8-1 .1-.5.5-.9.9-1zm-.5 12l-.1 2c-.4-.1-.8-.6-.8-1 .1-.5.5-.9.9-1zm-.5 12.1l-.1 2c-.4-.1-.8-.6-.8-1s.4-.9.9-1zm-.5 12l-.1 2c-.4-.1-.8-.6-.8-1 .1-.5.4-.9.9-1z" fill="url(#f)" transform="translate(89)"/><path d="M419.9 434.6l.1-2c-.5.1-.8.5-.8 1s.3.9.7 1zM419.4 446.7l.1-2c-.5.1-.8.5-.8 1 0 .4.3.8.7 1zM418.9 458.7l.1-2c-.5.1-.8.5-.8 1s.3.9.7 1zM418.4 470.7l.1-2c-.5.1-.8.5-.8 1-.1.5.3.9.7 1zM409 414c-.6 0-1.1.4-1.1 1s.4 1.1 1 1.1 1.1-.4 1.1-1c.1-.6-.4-1.1-1-1.1zM408.5 426c-.6 0-1.1.4-1.1 1s.4 1.1 1 1.1 1.1-.4 1.1-1c.1-.6-.4-1.1-1-1.1zM408 438.1c-.6 0-1.1.4-1.1 1s.4 1.1 1 1.1 1.1-.4 1.1-1c.1-.6-.4-1.1-1-1.1zM407.5 450.1c-.6 0-1.1.4-1.1 1s.4 1.1 1 1.1 1.1-.4 1.1-1-.4-1.1-1-1.1zM407 462.1c-.6 0-1.1.4-1.1 1s.4 1.1 1 1.1 1.1-.4 1.1-1c0-.5-.4-1-1-1.1zM396.7 419.5c-.6 0-1.1.4-1.1 1s.4 1.1 1 1.1 1.1-.4 1.1-1c.1-.6-.4-1.1-1-1.1zM396.2 431.5c-.6 0-1.1.4-1.1 1s.4 1.1 1 1.1 1.1-.4 1.1-1c.1-.6-.4-1.1-1-1.1zM395.7 443.6c-.6 0-1.1.4-1.1 1s.4 1.1 1 1.1 1.1-.4 1.1-1c.1-.6-.4-1.1-1-1.1zM395.2 455.6c-.6 0-1.1.4-1.1 1s.4 1.1 1 1.1 1.1-.4 1.1-1c.1-.6-.4-1.1-1-1.1zM385 412.9c-.6 0-1.1.4-1.1 1s.4 1.1 1 1.1 1.1-.4 1.1-1c0-.5-.4-1-1-1.1zM384.5 425c-.6 0-1.1.4-1.1 1s.4 1.1 1 1.1 1.1-.4 1.1-1-.5-1.1-1-1.1zM383.9 437c-.6 0-1.1.4-1.1 1s.4 1.1 1 1.1 1.1-.4 1.1-1c.1-.6-.4-1-1-1.1zM383.4 449.1c-.6 0-1.1.4-1.1 1s.4 1.1 1 1.1 1.1-.4 1.1-1c.1-.6-.4-1.1-1-1.1zM372.7 418.5c-.6 0-1.1.4-1.1 1s.4 1.1 1 1.1 1.1-.4 1.1-1-.4-1.1-1-1.1zM372.2 430.5c-.6 0-1.1.4-1.1 1s.4 1.1 1 1.1 1.1-.4 1.1-1-.5-1.1-1-1.1zM371.6 442.5c-.6 0-1.1.4-1.1 1s.4 1.1 1 1.1 1.1-.4 1.1-1c.1-.5-.4-1-1-1.1zM360.9 411.9c-.6 0-1.1.4-1.1 1s.4 1.1 1 1.1 1.1-.4 1.1-1-.4-1.1-1-1.1zM360.4 424c-.6 0-1.1.4-1.1 1s.4 1.1 1 1.1 1.1-.4 1.1-1-.4-1.1-1-1.1zM359.9 436c-.6 0-1.1.4-1.1 1s.4 1.1 1 1.1 1.1-.4 1.1-1-.4-1.1-1-1.1zM348.6 417.4c-.6 0-1.1.4-1.1 1s.4 1.1 1 1.1 1.1-.4 1.1-1c0-.5-.4-1-1-1.1zM348.1 429.5c-.6 0-1.1.4-1.1 1s.4 1.1 1 1.1 1.1-.4 1.1-1-.4-1.1-1-1.1zM336.8 410.9c-.6 0-1.1.4-1.1 1s.4 1.1 1 1.1 1.1-.4 1.1-1c.1-.6-.4-1.1-1-1.1zM336.3 422.9c-.5 0-.9.3-1 .8l1.7 1.1c.2-.2.3-.4.3-.7.1-.6-.4-1.1-1-1.2zM324.5 416.4c-.2 0-.4 0-.5.1l1.5 1c.1-.6-.4-1.1-1-1.1zM422.6 372.5l.1-2c-.5.1-.8.5-.8 1-.1.4.3.8.7 1zM422.1 384.5l.1-2c-.5.1-.8.5-.8 1-.1.4.2.9.7 1zM421.6 396.5l.1-2c-.5.1-.8.5-.8 1-.1.5.2.9.7 1zM421.1 408.6l.1-2c-.5.1-.8.5-.8 1-.1.4.2.8.7 1zM410.7 375.9c-.6 0-1.1.4-1.1 1s.4 1.1 1 1.1 1.1-.4 1.1-1-.4-1.1-1-1.1zM410.2 387.9c-.6 0-1.1.4-1.1 1s.4 1.1 1 1.1 1.1-.4 1.1-1c0-.5-.5-1-1-1.1zM409.6 400c-.6 0-1.1.4-1.1 1s.4 1.1 1 1.1 1.1-.4 1.1-1c.1-.6-.4-1.1-1-1.1zM398.4 381.4c-.6 0-1.1.4-1.1 1s.4 1.1 1 1.1 1.1-.4 1.1-1-.4-1.1-1-1.1zM397.9 393.4c-.6 0-1.1.4-1.1 1s.4 1.1 1 1.1 1.1-.4 1.1-1c0-.5-.5-1-1-1.1zM397.3 405.5c-.6 0-1.1.4-1.1 1s.4 1.1 1 1.1 1.1-.4 1.1-1c.1-.6-.4-1.1-1-1.1zM386.1 386.9c-.6 0-1.1.4-1.1 1s.4 1.1 1 1.1 1.1-.4 1.1-1-.4-1.1-1-1.1zM385.6 398.9c-.6 0-1.1.4-1.1 1s.4 1.1 1 1.1 1.1-.4 1.1-1c0-.5-.4-1-1-1.1zM373.8 392.4c-.6 0-1.1.4-1.1 1s.4 1.1 1 1.1 1.1-.4 1.1-1-.4-1.1-1-1.1zM373.3 404.4c-.6 0-1.1.4-1.1 1s.4 1.1 1 1.1 1.1-.4 1.1-1c0-.5-.4-1-1-1.1zM361.5 397.9c-.6 0-1.1.4-1.1 1s.4 1.1 1 1.1 1.1-.4 1.1-1-.4-1.1-1-1.1zM349.2 403.4c-.6 0-1.1.4-1.1 1s.4 1.1 1 1.1 1.1-.4 1.1-1-.4-1.1-1-1.1z" fill="#C1D3FA"/><path d="M456.1 439.7c.6-5 2.2-22-3.3-29.5-4.8-6.6-17.1-22.6-23.3-26.7l.3 10.8c3 5.7 5.5 9.8 5.5 9.8-.6 8.9-1.5 14.6-2.4 18.3-.9-.4-2-1-3.4-1.8-1.1-.6-2.3-1.3-3.7-2.1-8.2-4.7-12.8-3.4-10.4.6 2.1 3.4 9.2 8.3 14 11.4 2.1 1.4 3.8 2.4 4.4 2.7l12.3 14.5.7 1.3c3-2.7 6.4-7.4 9.3-9.3z" fill="#FFF"/><path d="M460.2 439.9c-1.1-1.4-2.5-1.2-4.1-.2-2.9 1.9-6.3 6.5-9.2 9.4-.4.4-.8.8-1.2 1.1 0 0 24 46.4 28.4 63.4.5 1.8 1 4.3 1.5 7.3h37.3c-14.5-28.4-33.8-58.1-52.7-81z" fill="#8AADF6"/><path d="M225.5 150.4c-.9 4.6-5.2 2.4-8-6.6-.6-1.8-1.1-3.4-1.5-4.6-4.1 2.5-8.2 5-12.2 7.5-5.3 3.3-10.4 6.6-15.5 9.8l-14.7 9.4 14.5 9.7c5 3.3 10.2 6.7 15.4 10 5.3 3.3 10.6 6.7 16.2 9.8 5.6 3.1 11.2 5.9 16.7 8.8l1.8.9-.1-1.9c-.2-6.1-.3-12.2-.2-18.3.1-6.1.4-12.2.8-18.3.4-6.1.8-12.2 1-18.3l.6-18.3.1-4.3-3.9 2.1c-4.3 2.3-8.6 4.7-12.9 7.2 1.2 5.1 2.5 12 1.9 15.4z" fill="url(#g)" transform="translate(89)"/><path d="M294.5 111.4c-5.2 5-12.8 13.4-13.6 20.4-.6 4.9-1.4 14.3-1.6 22.6l10.5-6.3c6.5-6.1 11-9.7 14.1-11.9.3.8.7 1.8 1.1 3 .4 1.3.9 2.8 1.5 4.6 2.8 9 7.2 11.2 8 6.6.7-3.5-.7-10.3-2-15.6-.9-3.5-1.7-6.4-2-7.2l.6-16.1c-4.9-.2-13.7 2.1-16.6-.1z" fill="#A1C0F7"/><path d="M293.6 109.3c0 1 .3 1.7.9 2.1 2.8 2.2 11.6-.2 16.6.1h.2s13.7-50.4 21.9-66c4.1-7.7 17.6-27.3 30.2-45.1h-49.9c-10.6 33.9-18.2 74.9-19.9 108.9z" fill="#3C76F0"/><path d="M56.8 352.6c-.8 4.3-6.3 12.2-9.6 16.7.4 1.1.8 2.2 1.2 3.2l4.4 11.8 4.4 11.8 2.1 5.6 3.9-4.7c5.5-6.7 11-13.5 16.3-20.4 5.3-6.9 10.4-13.9 15.4-20.8s9.9-13.8 14.6-20.5l13.9-19.6c-7.5-1.6-15.4-3.2-23.5-4.8-8.1-1.6-16.4-3.2-24.9-4.7s-17-3-25.7-4-17.3-1.7-25.8-2.6l-2.8-.3 1.1 2.4c3.5 7.7 6.7 15.4 9.8 23.3 3 7.9 5.8 15.8 8.5 23.7l3.7 10.9c.9-1.1 1.9-2.3 3.2-3.9 5.8-7.2 10.7-7.7 9.8-3.1z" fill="url(#h)" transform="translate(89)"/><path d="M127.7 390.4l6.2-18c.3-.4 1.2-1.6 2.4-3.1 3.3-4.5 8.8-12.4 9.6-16.7.9-4.6-4-4.1-9.9 3.2-1.2 1.5-2.3 2.8-3.2 3.9-.8.9-1.5 1.7-2 2.3-2.1-3.1-5-8.1-8.8-16.2 0 0 .8-4.8 1.5-11.1l-3.6-10.2c-4.3 6.1-10 25.4-12.1 33.3-2.3 8.9 5.3 24.3 7.6 28.7 3.4.7 8.2 3.8 12 5.4l.3-1.5z" fill="#FFF"/><path d="M125.5 461.9c-2-17.5 3.5-69.4 3.5-69.4l-1.5-.6c-3.8-1.6-8.6-4.7-12-5.4-1.8-.4-3.2 0-3.8 1.6C98.4 428.2 89.6 481.5 90 521h48.9c-5.8-22.6-12.3-49.6-13.4-59.1z" fill="#6391F3"/></g></g></svg>