<?xml version="1.0" encoding="utf-8"?>
<!-- Generator: Adobe Illustrator 23.0.2, SVG Export Plug-In . SVG Version: 6.00 Build 0)  -->
<svg version="1.1" id="Livello_1" xmlns="http://www.w3.org/2000/svg" xmlns:xlink="http://www.w3.org/1999/xlink" x="0px" y="0px"
	 viewBox="0 0 545 540" style="enable-background:new 0 0 545 540;" xml:space="preserve">
<style type="text/css">
	.st0{fill:#FFFFFF;}
	.st1{fill:#F1F5FE;}
	.st2{fill:none;}
	.st3{fill:#D4E2FC;}
	.st4{opacity:0.6;fill:none;stroke:url(#SVGID_1_);stroke-miterlimit:10;enable-background:new    ;}
	.st5{fill:#8AADF6;}
	.st6{fill:#C1D3FA;}
	.st7{fill:none;stroke:#3E4B56;stroke-width:1.0619;stroke-linecap:round;stroke-linejoin:round;stroke-miterlimit:10;}
	.st8{fill:none;stroke:#8AADF6;stroke-width:0.7964;stroke-miterlimit:10;}
	.st9{fill:none;stroke:#D8D8D8;stroke-width:0.7964;stroke-miterlimit:10;}
	.st10{fill:none;stroke:#3E4B56;stroke-width:0.7964;stroke-miterlimit:10;}
	.st11{fill:none;stroke:#C1D3FA;stroke-width:0.7964;stroke-miterlimit:10;}
	.st12{fill:none;stroke:#F1F5FE;stroke-width:0.7964;stroke-miterlimit:10;}
	.st13{fill:#FFFFFF;stroke:#A1C0F7;stroke-width:0.7964;stroke-miterlimit:10;}
	.st14{fill:#B1C8F9;}
	.st15{fill:#D8E4FC;}
	.st16{fill:url(#SVGID_2_);}
	.st17{fill:#FFFFFF;stroke:#C1D3FA;stroke-width:0.7964;stroke-miterlimit:10;}
	.st18{fill:#E7F0FD;}
	.st19{fill:#C1D3FA;stroke:#3E4B56;stroke-width:0.75;stroke-miterlimit:10;}
	.st20{fill:url(#SVGID_3_);}
	.st21{fill:url(#SVGID_4_);}
	.st22{fill:#FCF36A;}
	.st23{fill:url(#SVGID_5_);}
	.st24{fill:url(#SVGID_6_);}
	.st25{fill:url(#SVGID_7_);}
	.st26{fill:url(#SVGID_8_);}
	.st27{fill:#FFFFFF;stroke:#8AADF6;stroke-width:0.75;stroke-miterlimit:10;}
	.st28{fill:none;stroke:#8AADF6;stroke-width:0.75;stroke-miterlimit:10;}
	.st29{fill:#FFFFFF;stroke:#3C76F0;stroke-width:0.75;stroke-miterlimit:10;}
	.st30{fill:none;stroke:#C1D3FA;stroke-width:0.75;stroke-miterlimit:10;}
	.st31{fill:#FFFFFF;stroke:#8AADF6;stroke-width:0.7937;stroke-miterlimit:10;}
	.st32{fill:none;stroke:#8AADF6;stroke-width:0.9258;stroke-miterlimit:10;}
	.st33{fill:none;stroke:#8AADF6;stroke-width:0.9258;stroke-miterlimit:10;stroke-dasharray:0.924,0.924;}
	.st34{fill:none;stroke:#8AADF6;stroke-width:0.9009;stroke-miterlimit:10;}
	.st35{fill:none;stroke:#8AADF6;stroke-width:0.9009;stroke-miterlimit:10;stroke-dasharray:0.8919,0.8919;}
	.st36{fill:none;stroke:#C1D3FA;stroke-miterlimit:10;}
	.st37{fill:url(#SVGID_9_);}
	.st38{fill:url(#SVGID_10_);}
	.st39{fill:url(#SVGID_11_);}
	.st40{fill:url(#SVGID_12_);}
	.st41{fill:#A1C0F7;}
	.st42{fill:#A1C0F7;stroke:#A1C0F7;stroke-width:1.5079;stroke-miterlimit:10;}
	.st43{fill:#6391F3;}
	.st44{fill:none;stroke:#3C76F0;stroke-width:0.5;stroke-linecap:round;stroke-linejoin:round;stroke-miterlimit:10;}
	.st45{fill:none;stroke:#FFFFFF;stroke-width:0.7964;stroke-miterlimit:10;}
	.st46{fill:#3C76F0;}
	.st47{fill:url(#SVGID_13_);}
	.st48{fill:none;stroke:#222222;stroke-width:0.75;stroke-linecap:round;stroke-linejoin:round;stroke-miterlimit:10;}
	.st49{fill:none;stroke:#3C76F0;stroke-width:0.75;stroke-miterlimit:10;}
</style>
<g>
	<polygon class="st0" points="2.6,29.7 0,345.2 501.1,306.4 498.3,58.8 	"/>
	<polygon class="st1" points="2.9,62.8 1.9,245.8 498,229.2 498,84.9 	"/>
	<g>
		<polygon class="st2" points="77.1,167.9 78,164.9 14,108.2 8.4,132.3 41.7,161.3 		"/>
		<polygon class="st2" points="76.9,168.7 42.9,162.3 71.4,187 		"/>
		<polygon class="st2" points="82.8,169 78.7,165.4 77.9,168.1 		"/>
		<polygon class="st2" points="71.8,188.5 71.4,188.1 41.4,162 15,157 71.5,205.5 112,194.8 83.9,170.1 77.6,168.8 		"/>
		<polygon class="st0" points="153.8,183.2 112.7,240.7 113.7,240.6 155.1,182.7 84.2,169.3 85.4,170.3 		"/>
		<path class="st0" d="M15,157l26.4,5l30,26.1l0.5,0.4l5.8-19.6l6.2,1.2l-1.2-1l-4.9-0.9l0.8-2.6L78,165l-0.9,3.1l-35.5-6.7
			l-33.4-29l-0.2,0.9l32,27.9l-28-5.3L70.5,206l0.9-0.2L15,157z M76.9,168.7L71.5,187l-28.6-24.7L76.9,168.7z"/>
		<polygon class="st0" points="111.2,240.8 112.4,240.7 72.3,206.2 71.3,206.4 		"/>
		<polygon class="st0" points="2.3,127 2.3,128.1 7.5,132.6 7.7,131.7 		"/>
		<polygon class="st0" points="2.3,86.8 80.3,60.7 78.2,60.5 2.3,85.9 		"/>
		<polygon class="st0" points="109.6,62.1 108.8,62 78.3,164 78.9,164.6 		"/>
		<polygon class="st3" points="78.3,164 14,107.3 13.5,106.8 7.7,131.7 7.5,132.6 2.3,154.3 2.3,157.6 8.2,133.2 8.4,132.3 
			14,108.2 78,164.9 78.7,165.4 82.8,169 83.9,170.1 112,194.8 71.5,205.5 70.6,205.8 2.3,223.9 2.3,224.7 71.3,206.4 72.3,206.2 
			113.6,195.2 85.4,170.3 84.2,169.3 78.9,164.6 		"/>
	</g>
	
		<linearGradient id="SVGID_1_" gradientUnits="userSpaceOnUse" x1="7015.2539" y1="-5733.3564" x2="7177.6851" y2="-5570.9253" gradientTransform="matrix(0.9029 -0.4298 -0.4298 -0.9029 -8624.2148 -1770.9539)">
		<stop  offset="0" style="stop-color:#E7F0FD"/>
		<stop  offset="1" style="stop-color:#ACCBEE"/>
	</linearGradient>
	<polyline class="st4" points="397.4,230.3 424.6,236.1 302.9,363.7 95.4,268.2 0,328.1 	"/>
	<polygon class="st1" points="498.3,58.8 2.6,29.7 2.6,7.2 498.3,41 	"/>
	<path class="st5" d="M21.1,20.7c0,1.9-1.6,3.3-3.4,3.1c-1.9-0.1-3.4-1.8-3.4-3.6c0-1.9,1.6-3.3,3.4-3.1
		C19.7,17.2,21.1,18.8,21.1,20.7z"/>
	<path class="st6" d="M32.4,21.4c0,1.9-1.5,3.2-3.3,3.1c-1.9-0.1-3.4-1.8-3.4-3.6s1.6-3.2,3.4-3.1C30.9,18,32.4,19.5,32.4,21.4z"/>
	<path class="st6" d="M43.5,22c0,1.9-1.5,3.2-3.3,3.1s-3.3-1.7-3.3-3.5c0-1.9,1.5-3.2,3.3-3.1C42.1,18.6,43.5,20.2,43.5,22z"/>
	<path class="st0" d="M43,32.2c7.8,0.5,6.3-7.3,6.3-7.3v-1.3c0-4.2,3.4-7.4,7.5-7.1l86.1,5.6c3.8,0.3,6.9,3.7,6.9,7.7V31
		c0,0-2.4,7.8,4.6,8.2"/>
	<path class="st7" d="M47.7,48c-3.5,10.5-11.6,4.5-14.4-0.8c-1.3-2.4,1.9-4.6,3.4-2.3c2.7,4-7.5,10.9-11.7,5
		c-1.3-1.8,0.6-4.1,2.5-3.1c3.1,1.8-1.9,8.5-4.8,7.6"/>
	<path class="st5" d="M148.4,223.6c1.3,0,2.3-1.2,2.3-2.4c0-1.4-1.1-2.4-2.3-2.3c-1.3,0-2.3,1.2-2.3,2.4S147.2,223.6,148.4,223.6z"
		/>
	<path class="st8" d="M161.1,223.3c1.3,0,2.2-1.2,2.2-2.4s-1-2.3-2.2-2.3c-1.3,0-2.2,1.2-2.2,2.4
		C158.8,222.3,159.8,223.3,161.1,223.3z"/>
	<path class="st8" d="M173.5,223c1.3,0,2.2-1.2,2.2-2.4c0-1.4-1-2.3-2.2-2.3c-1.3,0-2.2,1.2-2.2,2.4C171.2,222,172.2,223,173.5,223z
		"/>
	<path class="st5" d="M192.4,216c-0.1-0.1-0.4-0.1-0.5,0s-0.1,0.4,0,0.5l2.4,2.5l-8,0.2c-0.2,0-0.3,0.2-0.3,0.4s0.2,0.4,0.3,0.4
		l8-0.2l-2.4,2.6c-0.1,0.1-0.1,0.4,0,0.5s0.4,0.1,0.5,0l3-3.3c0.1-0.1,0.1-0.4,0-0.5L192.4,216z"/>
	<g>
		<polygon class="st5" points="178.8,53.6 177.9,58.3 182.2,56.9 		"/>
		<path class="st5" d="M178.8,53.6l-0.4,2.4c-0.1,0.8-0.3,1.5-0.5,2.2l-0.1-0.1c1.5-0.4,2.8-1,4.3-1.4L182,57
			C181,55.9,180,54.9,178.8,53.6z M178.8,53.5c1.1,1,2.3,2.1,3.5,3.3l0.2,0.2l-0.2,0.1c-1.5,0.4-2.9,0.8-4.3,1.3h-0.1v-0.1
			c0.1-0.8,0.2-1.7,0.4-2.4C178.5,55.1,178.7,54.3,178.8,53.5z"/>
	</g>
	<line class="st9" x1="58.4" y1="25.8" x2="92.6" y2="27.9"/>
	<line class="st10" x1="54.6" y1="49.2" x2="76.7" y2="50.4"/>
	<line class="st11" x1="135.8" y1="54.1" x2="173.9" y2="56"/>
	<g>
		<polygon class="st5" points="239.2,56.7 238.3,61.3 242.4,60 		"/>
		<path class="st5" d="M239.2,56.7l-0.4,2.3c-0.1,0.8-0.3,1.5-0.5,2.2l-0.1-0.1c1.4-0.4,2.7-0.9,4-1.4l-0.1,0.2
			C241.2,59.1,240.3,58,239.2,56.7z M239.2,56.7c1.1,1,2.2,2,3.3,3.2l0.2,0.2l-0.2,0.1c-1.4,0.4-2.7,0.7-4.1,1.2h-0.1v-0.1
			c0.1-0.8,0.2-1.6,0.4-2.3C238.8,58.2,239,57.4,239.2,56.7z"/>
	</g>
	<line class="st11" x1="198.5" y1="57.2" x2="234.6" y2="59.1"/>
	<g>
		<polygon class="st5" points="296.3,59.7 295.4,64.1 299.3,62.8 		"/>
		<path class="st5" d="M296.3,59.7L296,62c-0.1,0.8-0.3,1.5-0.5,2.1l-0.1-0.1c1.3-0.4,2.5-0.9,3.8-1.4l-0.1,0.2
			C298.1,62,297.2,60.9,296.3,59.7z M296.3,59.6c1,1,2.1,1.9,3.1,3.1l0.2,0.2l-0.2,0.1c-1.3,0.4-2.6,0.7-3.9,1.2h-0.1v-0.1
			c0.1-0.8,0.2-1.6,0.4-2.2C295.9,61.1,296.1,60.3,296.3,59.6z"/>
	</g>
	<line class="st11" x1="257.7" y1="60.3" x2="291.9" y2="62"/>
	<g>
		<polygon class="st12" points="177.4,315 69.5,322.3 69.5,282.8 177.4,277.3 		"/>
		<line class="st11" x1="81.2" y1="310" x2="132.3" y2="306.8"/>
		<line class="st11" x1="143.2" y1="306.1" x2="164.5" y2="304.8"/>
		<g>
			<polygon class="st11" points="85.6,292.1 86.9,294.5 89.6,294.8 87.7,296.9 88.1,299.7 85.6,298.5 83.2,300 83.7,297.2 
				81.7,295.2 84.4,294.7 			"/>
			<polygon class="st11" points="95.7,291.5 96.9,294 99.6,294.3 97.7,296.3 98.2,299.1 95.7,298 93.3,299.3 93.8,296.6 91.7,294.7 
				94.5,294.2 			"/>
			<polygon class="st11" points="105.7,291 106.9,293.5 109.6,293.7 107.6,295.7 108.1,298.5 105.7,297.4 103.3,298.7 103.7,296 
				101.8,294.2 104.5,293.6 			"/>
			<polygon class="st11" points="115.6,290.5 116.8,292.9 119.4,293.2 117.6,295.2 117.9,298 115.6,296.8 113.2,298.1 113.7,295.4 
				111.7,293.6 114.4,293 			"/>
		</g>
		<polygon class="st12" points="293,307.1 196.6,313.6 196.6,276.3 293,271.5 		"/>
		<line class="st11" x1="207.1" y1="302" x2="252.6" y2="299.2"/>
		<line class="st11" x1="262.4" y1="298.5" x2="281.6" y2="297.4"/>
		<g>
			<polygon class="st11" points="211,285.2 212.1,287.5 214.6,287.7 212.8,289.7 213.2,292.3 211,291.2 208.8,292.6 209.2,290 
				207.4,288.1 209.9,287.6 			"/>
			<polygon class="st11" points="220,284.7 221.1,287 223.5,287.2 221.8,289.2 222.1,291.8 220,290.6 217.8,292 218.3,289.4 
				216.5,287.6 218.9,287.1 			"/>
			<polygon class="st11" points="228.9,284.2 229.9,286.5 232.4,286.8 230.6,288.7 231,291.2 228.9,290.2 226.7,291.5 227.1,288.9 
				225.4,287.1 227.8,286.7 			"/>
			<polygon class="st11" points="237.7,283.7 238.8,286 241.1,286.3 239.5,288.2 239.9,290.7 237.7,289.7 235.6,291 236,288.4 
				234.2,286.7 236.7,286.2 			"/>
		</g>
		<polygon class="st12" points="397.1,300 310.3,305.9 310.3,270.6 397.1,266.1 		"/>
		<line class="st11" x1="319.6" y1="294.9" x2="360.5" y2="292.4"/>
		<line class="st11" x1="369.3" y1="291.8" x2="386.5" y2="290.7"/>
		<g>
			<polygon class="st11" points="323.1,279 324.2,281.2 326.4,281.4 324.8,283.2 325.2,285.8 323.1,284.7 321.2,286 321.6,283.4 
				320,281.8 322.2,281.3 			"/>
			<polygon class="st11" points="331.2,278.6 332.2,280.7 334.4,281 332.8,282.9 333.2,285.3 331.2,284.2 329.3,285.5 329.7,283.1 
				328.1,281.3 330.3,280.8 			"/>
			<polygon class="st11" points="339.2,278.1 340.2,280.3 342.3,280.5 340.8,282.4 341.2,284.8 339.2,283.7 337.4,285 337.7,282.6 
				336.1,280.9 338.3,280.4 			"/>
			<polygon class="st11" points="347.2,277.7 348.2,279.8 350.3,280 348.8,281.9 349.1,284.3 347.2,283.3 345.3,284.6 345.6,282.1 
				344.1,280.4 346.2,279.9 			"/>
		</g>
	</g>
	<polygon class="st13" points="372.9,217.8 276.5,220.4 276.5,88.8 372.9,92.3 	"/>
	<path class="st5" d="M316.6,180c-2.4,0-4.4-2.2-4.4-5c0-2.7,1.9-5,4.4-5.1c2.4,0,4.4,2.2,4.4,5C321,177.7,319.1,180,316.6,180z"/>
	<path class="st14" d="M302.8,180.1c-2.4,0-4.5-2.2-4.5-5c0-2.7,2-5.1,4.5-5.1s4.5,2.2,4.5,5C307.2,177.9,305.2,180.1,302.8,180.1z"
		/>
	<path class="st15" d="M289,180.2c-2.5,0-4.6-2.2-4.6-5.1c0-2.8,2-5.1,4.6-5.1s4.6,2.2,4.6,5.1C293.5,178,291.4,180.2,289,180.2z"/>
	
		<linearGradient id="SVGID_2_" gradientUnits="userSpaceOnUse" x1="291.9187" y1="272.1238" x2="357.5596" y2="226.1616" gradientTransform="matrix(1 0 0 1 0 -48)">
		<stop  offset="0" style="stop-color:#485563"/>
		<stop  offset="0.3058" style="stop-color:#43505D"/>
		<stop  offset="0.7135" style="stop-color:#36404C"/>
		<stop  offset="1" style="stop-color:#29323C"/>
	</linearGradient>
	<polygon class="st16" points="366.3,210.3 283.6,212.2 283.6,191.7 366.3,190.6 	"/>
	<line class="st10" x1="283.5" y1="98.7" x2="343.3" y2="100.5"/>
	<line class="st10" x1="283.5" y1="108.3" x2="359.7" y2="110.4"/>
	<g>
		<g>
			<path class="st0" d="M320.8,195.8h1.4l1.9,7.9c0.1,0.2,0.3,0.4,0.5,0.4l5.9-0.1c0.2,0,0.4-0.1,0.4-0.3l2.1-5.6
				c0.1-0.2,0-0.4,0-0.5s-0.2-0.2-0.4-0.2l-6.5,0.1c-0.3,0-0.5,0.3-0.5,0.6s0.2,0.5,0.5,0.5l5.8-0.1l-1.8,4.6l-5.3,0.1l-1.9-7.9
				c-0.1-0.2-0.3-0.4-0.5-0.4h-1.8c-0.3,0-0.5,0.3-0.5,0.6C320.3,195.7,320.5,195.8,320.8,195.8z"/>
			<path class="st0" d="M324.1,207.9c0.6,0,1.1-0.6,1.1-1.3c0-0.7-0.5-1.2-1.1-1.2s-1.1,0.6-1.1,1.3
				C323,207.4,323.5,207.9,324.1,207.9z"/>
			<path class="st0" d="M330.8,207.8L330.8,207.8c0.4,0,0.6-0.2,0.8-0.4c0.2-0.3,0.3-0.6,0.3-0.9c0-0.7-0.6-1.2-1.2-1.1
				s-1.1,0.7-1,1.4C329.8,207.3,330.3,207.8,330.8,207.8z"/>
		</g>
	</g>
	<polygon class="st12" points="322.9,127.7 358.2,165.4 367.3,119.7 	"/>
	<g>
		<polygon class="st17" points="297.9,154.9 283.6,154.8 283.6,138.8 297.9,139 		"/>
		<polygon class="st17" points="315.2,155 301.1,154.9 301.1,139 315.2,139.2 		"/>
		<polygon class="st17" points="332.3,155 318.5,155 318.5,139.2 332.3,139.4 		"/>
		<polygon class="st17" points="348.9,155.1 335.3,155.1 335.3,139.5 348.9,139.6 		"/>
	</g>
	<polyline class="st12" points="3.9,285.8 48.2,283.5 48.2,323.5 2.7,326.5 	"/>
	<line class="st11" x1="9.6" y1="314.2" x2="33.7" y2="312.7"/>
	<polygon class="st18" points="449.6,524.5 545,512.8 365.8,511.8 	"/>
	<path class="st19" d="M436.9,511.1l-2.5-9.4l0.2-7.6l-10.7-1l0.2,8.9c-3.9,2.9-13.7,6.4-13.7,6.4c-3.2,1.3-5.6,1.9-12.8,3.2
		c-1.9,0.3-0.2,3.6,1.7,3.6l35-0.6C435.9,514.5,437.3,512.9,436.9,511.1z"/>
	<path class="st19" d="M529.4,283.4l3.9,14.1c0,0,1.5,9.7,0,14.6c-1.5,4.9-6.8-2.9-6.8-2.9l-4.9-17l1.9-14.1L529.4,283.4z"/>
	<g>
		
			<linearGradient id="SVGID_3_" gradientUnits="userSpaceOnUse" x1="486.7602" y1="377.3111" x2="541.8197" y2="377.3111" gradientTransform="matrix(1 0 0 1 0 -48)">
			<stop  offset="0" style="stop-color:#485563"/>
			<stop  offset="0.3058" style="stop-color:#43505D"/>
			<stop  offset="0.7135" style="stop-color:#36404C"/>
			<stop  offset="1" style="stop-color:#29323C"/>
		</linearGradient>
		<polygon class="st20" points="486.8,318.1 528.9,357.4 541.9,301.3 		"/>
		
			<linearGradient id="SVGID_4_" gradientUnits="userSpaceOnUse" x1="483.0122" y1="376.7267" x2="544.5236" y2="376.7267" gradientTransform="matrix(1 0 0 1 0 -48)">
			<stop  offset="0" style="stop-color:#485563"/>
			<stop  offset="0.3058" style="stop-color:#43505D"/>
			<stop  offset="0.7135" style="stop-color:#36404C"/>
			<stop  offset="1" style="stop-color:#29323C"/>
		</linearGradient>
		<path class="st21" d="M487,318.2l11.6,9.7c3.7,3.1,7.4,6.2,10.9,9.3c3.5,3.1,7,6.1,10.3,9.4c3.3,3.2,6.4,6.6,9.7,10l-1.5,0.5
			c1.3-4.6,2.5-9.3,3.5-13.9c1.1-4.7,1.9-9.4,2.8-14.1c0.9-4.8,1.7-9.4,2.6-14.1c1-4.7,1.9-9.3,2.9-14.1l2.5,2.3
			c-4.4,1.5-8.9,2.8-13.2,4.1c-4.5,1.3-9,2.4-13.5,3.6L487,318.2z M486.7,318.1c8.4-3,17.2-6.3,26.4-9.6c4.6-1.7,9.3-3.2,14-4.8
			c4.8-1.6,9.5-3,14.2-4.3l3.3-1l-0.8,3.2c-1.2,4.7-2.3,9.3-3.5,13.9c-1.2,4.7-2.5,9.3-3.8,13.9c-1.3,4.7-2.6,9.3-3.7,13.9
			c-1.2,4.7-2.1,9.3-2.9,14.1l-0.3,1.5l-1.2-1c-3.7-3.1-7.6-6.2-11.3-9.5c-3.8-3.3-7.3-6.7-10.8-10.2c-3.5-3.4-6.9-6.9-10.1-10.3
			L486.7,318.1z"/>
	</g>
	<g>
		<path class="st22" d="M520.6,310c0.2-0.1,0.3-0.2,0.3-0.4l-0.8,0.2C520.3,310,520.5,310.1,520.6,310z"/>
		<path class="st22" d="M525.2,308.7c0.2-0.1,0.3-0.2,0.3-0.4l-0.8,0.2C524.8,308.6,525,308.7,525.2,308.7z"/>
		<path class="st22" d="M529.9,307.2c0.2-0.1,0.3-0.2,0.3-0.4l-0.8,0.2C529.5,307.2,529.7,307.3,529.9,307.2z"/>
		<path class="st22" d="M534.6,305.7c0.2-0.1,0.3-0.2,0.3-0.4l-0.8,0.2C534.2,305.7,534.4,305.8,534.6,305.7z"/>
		<path class="st22" d="M539.3,304.4c0.2-0.1,0.3-0.2,0.3-0.4l-0.8,0.2C538.9,304.3,539.1,304.4,539.3,304.4z"/>
		<path class="st22" d="M520,314.9c-0.1-0.2-0.3-0.4-0.6-0.3c-0.2,0.1-0.4,0.3-0.3,0.6c0.1,0.2,0.3,0.4,0.6,0.3
			C520,315.4,520.1,315.1,520,314.9z"/>
		<path class="st22" d="M524.4,314c0.2-0.1,0.4-0.3,0.3-0.6c-0.1-0.2-0.3-0.4-0.6-0.3c-0.2,0.1-0.4,0.3-0.3,0.6
			C523.9,313.9,524.2,314.1,524.4,314z"/>
		<path class="st22" d="M529,312.6c0.2-0.1,0.4-0.3,0.3-0.6c-0.1-0.2-0.3-0.4-0.6-0.3c-0.2,0.1-0.4,0.3-0.3,0.6
			C528.5,312.6,528.8,312.7,529,312.6z"/>
		<path class="st22" d="M533.7,311.2c0.2-0.1,0.4-0.3,0.3-0.6c-0.1-0.2-0.3-0.4-0.6-0.3c-0.2,0.1-0.4,0.3-0.3,0.6
			C533.2,311.1,533.5,311.2,533.7,311.2z"/>
		<path class="st22" d="M538.1,308.9c-0.2,0.1-0.4,0.3-0.3,0.6c0.1,0.3,0.3,0.4,0.6,0.3c0.2-0.1,0.4-0.3,0.3-0.6
			C538.6,309,538.4,308.9,538.1,308.9z"/>
		<path class="st22" d="M523.8,318.9c-0.1-0.2-0.3-0.4-0.6-0.3c-0.2,0.1-0.4,0.3-0.3,0.6c0.1,0.2,0.3,0.4,0.6,0.3
			C523.7,319.3,523.9,319.1,523.8,318.9z"/>
		<path class="st22" d="M528.2,318c0.2-0.1,0.4-0.3,0.3-0.6c-0.1-0.2-0.3-0.4-0.6-0.3c-0.2,0.1-0.4,0.3-0.3,0.6
			C527.7,317.9,527.9,318,528.2,318z"/>
		<path class="st22" d="M532.5,315.7c-0.2,0.1-0.4,0.3-0.3,0.6c0.1,0.2,0.3,0.4,0.6,0.3c0.2-0.1,0.4-0.3,0.3-0.6
			C533,315.8,532.7,315.7,532.5,315.7z"/>
		<path class="st22" d="M537.2,314.3c-0.2,0.1-0.4,0.3-0.3,0.6c0.1,0.2,0.3,0.4,0.6,0.3c0.2-0.1,0.4-0.3,0.3-0.6
			C537.7,314.3,537.4,314.2,537.2,314.3z"/>
		<path class="st22" d="M522.3,324c-0.2,0.1-0.4,0.3-0.3,0.6c0.1,0.2,0.3,0.4,0.6,0.3c0.3-0.1,0.4-0.3,0.3-0.6
			C522.8,324,522.5,323.9,522.3,324z"/>
		<path class="st22" d="M527,322.5c-0.2,0.1-0.4,0.3-0.3,0.6c0.1,0.2,0.3,0.4,0.6,0.3c0.2-0.1,0.4-0.3,0.3-0.6
			C527.5,322.6,527.2,322.5,527,322.5z"/>
		<path class="st22" d="M531.7,321.1c-0.2,0.1-0.4,0.3-0.3,0.6c0.1,0.2,0.3,0.4,0.6,0.3c0.2-0.1,0.4-0.3,0.3-0.6
			C532.1,321.1,531.9,321,531.7,321.1z"/>
		<path class="st22" d="M536.3,319.7c-0.2,0.1-0.4,0.3-0.3,0.6c0.1,0.2,0.3,0.4,0.6,0.3c0.2-0.1,0.4-0.3,0.3-0.6
			C536.8,319.7,536.5,319.6,536.3,319.7z"/>
		<path class="st22" d="M526.1,327.9c-0.2,0.1-0.4,0.3-0.3,0.6c0.1,0.2,0.3,0.4,0.6,0.3c0.2-0.1,0.4-0.3,0.3-0.6
			C526.5,327.9,526.3,327.9,526.1,327.9z"/>
		<path class="st22" d="M530.7,326.5c-0.2,0.1-0.4,0.3-0.3,0.6c0.1,0.3,0.3,0.4,0.6,0.3c0.2-0.1,0.4-0.3,0.3-0.6
			C531.2,326.5,531,326.4,530.7,326.5z"/>
		<path class="st22" d="M535.4,325c-0.2,0.1-0.4,0.3-0.3,0.6c0.1,0.2,0.3,0.4,0.6,0.3c0.2-0.1,0.4-0.3,0.3-0.6
			C535.8,325.1,535.7,324.9,535.4,325z"/>
		<path class="st22" d="M525.1,333.3c-0.2,0.1-0.4,0.3-0.3,0.6c0.1,0.2,0.3,0.4,0.6,0.3c0.2-0.1,0.4-0.3,0.3-0.6
			S525.4,333.2,525.1,333.3z"/>
		<path class="st22" d="M529.8,331.8c-0.2,0.1-0.4,0.3-0.3,0.6c0.1,0.3,0.3,0.4,0.6,0.3c0.2-0.1,0.4-0.3,0.3-0.6
			C530.3,331.9,530.1,331.7,529.8,331.8z"/>
		<path class="st22" d="M534.5,330.4c-0.2,0.1-0.4,0.3-0.3,0.6c0.1,0.2,0.3,0.4,0.6,0.3c0.2-0.1,0.4-0.3,0.3-0.6
			C535,330.5,534.7,330.4,534.5,330.4z"/>
		<path class="st22" d="M529.2,338.1c0.2-0.1,0.4-0.3,0.3-0.6c-0.1-0.3-0.3-0.4-0.6-0.3c-0.2,0.1-0.4,0.3-0.3,0.6
			C528.7,338,528.9,338.2,529.2,338.1z"/>
		<path class="st22" d="M533.8,336.6c0.2-0.1,0.4-0.3,0.3-0.6c-0.1-0.2-0.3-0.4-0.6-0.3c-0.2,0.1-0.4,0.3-0.3,0.6
			C533.4,336.6,533.6,336.7,533.8,336.6z"/>
		<path class="st22" d="M528.2,343.4c0.2-0.1,0.4-0.3,0.3-0.6c-0.1-0.3-0.3-0.4-0.6-0.3c-0.2,0.1-0.4,0.3-0.3,0.6
			C527.8,343.4,528.1,343.5,528.2,343.4z"/>
		<path class="st22" d="M532.7,341.2c-0.2,0.1-0.4,0.3-0.3,0.6c0.1,0.2,0.2,0.3,0.4,0.3l0.2-0.8
			C532.9,341.2,532.8,341.2,532.7,341.2z"/>
		<path class="st22" d="M531.5,347.1c0,0.1,0.1,0.1,0.1,0.2l0.2-0.7l0,0C531.6,346.6,531.5,346.8,531.5,347.1z"/>
		<path class="st22" d="M501.2,316c0.2-0.1,0.3-0.2,0.3-0.4l-0.8,0.2C500.8,316,501,316.1,501.2,316z"/>
		<path class="st22" d="M505.8,314.6c0.2-0.1,0.3-0.2,0.3-0.4l-0.8,0.2C505.5,314.6,505.7,314.6,505.8,314.6z"/>
		<path class="st22" d="M510.5,313.1c0.2-0.1,0.3-0.2,0.3-0.4l-0.8,0.2C510.1,313.1,510.3,313.2,510.5,313.1z"/>
		<path class="st22" d="M515.2,311.7c0.2-0.1,0.3-0.2,0.3-0.4l-0.8,0.2C514.8,311.7,515,311.8,515.2,311.7z"/>
		<path class="st22" d="M504.7,319.2c-0.2,0.1-0.4,0.3-0.3,0.6c0.1,0.3,0.3,0.4,0.6,0.3c0.2-0.1,0.4-0.3,0.3-0.6
			C505.2,319.2,504.9,319.1,504.7,319.2z"/>
		<path class="st22" d="M509.4,317.7c-0.2,0.1-0.4,0.3-0.3,0.6c0.1,0.2,0.3,0.4,0.6,0.3c0.2-0.1,0.4-0.3,0.3-0.6
			C509.8,317.7,509.5,317.6,509.4,317.7z"/>
		<path class="st22" d="M514,316.3c-0.2,0.1-0.4,0.3-0.3,0.6c0.1,0.3,0.3,0.4,0.6,0.3c0.2-0.1,0.4-0.3,0.3-0.6
			C514.5,316.4,514.2,316.2,514,316.3z"/>
		<path class="st22" d="M508.5,323.1c-0.2,0.1-0.4,0.3-0.3,0.6c0.1,0.2,0.3,0.4,0.6,0.3c0.2-0.1,0.4-0.3,0.3-0.6
			C508.9,323.2,508.7,323,508.5,323.1z"/>
		<path class="st22" d="M513.2,321.6c-0.2,0.1-0.4,0.3-0.3,0.6c0.1,0.2,0.3,0.4,0.6,0.3c0.2-0.1,0.4-0.3,0.3-0.6
			C513.5,321.7,513.3,321.6,513.2,321.6z"/>
		<path class="st22" d="M517.7,320.3c-0.2,0.1-0.4,0.3-0.3,0.6c0.1,0.2,0.3,0.4,0.6,0.3c0.2-0.1,0.4-0.3,0.3-0.6
			C518.2,320.3,518,320.2,517.7,320.3z"/>
		<path class="st22" d="M512.2,327.1c-0.2,0.1-0.4,0.3-0.3,0.6c0.1,0.2,0.3,0.4,0.6,0.3c0.2-0.1,0.4-0.3,0.3-0.6
			C512.7,327.1,512.5,327,512.2,327.1z"/>
		<path class="st22" d="M516.9,325.6c-0.2,0.1-0.4,0.3-0.3,0.6c0.1,0.3,0.3,0.4,0.6,0.3c0.2-0.1,0.4-0.3,0.3-0.6
			C517.3,325.7,517.1,325.5,516.9,325.6z"/>
		<path class="st22" d="M516,331c-0.2,0.1-0.4,0.3-0.3,0.6c0.1,0.2,0.3,0.4,0.6,0.3c0.2-0.1,0.4-0.3,0.3-0.6
			C516.5,331,516.2,331,516,331z"/>
		<path class="st22" d="M520.7,329.6c-0.2,0.1-0.4,0.3-0.3,0.6c0.1,0.2,0.3,0.4,0.6,0.3c0.2-0.1,0.4-0.3,0.3-0.6
			C521.1,329.6,520.8,329.5,520.7,329.6z"/>
		<path class="st22" d="M520,335.7c0.2-0.1,0.4-0.3,0.3-0.6c-0.1-0.2-0.3-0.4-0.6-0.3c-0.2,0.1-0.4,0.3-0.3,0.6
			C519.5,335.7,519.8,335.8,520,335.7z"/>
		<path class="st22" d="M523.8,339.7c0.2-0.1,0.4-0.3,0.3-0.6c-0.1-0.2-0.3-0.4-0.6-0.3c-0.2,0.1-0.4,0.3-0.3,0.6
			C523.3,339.6,523.5,339.8,523.8,339.7z"/>
	</g>
	<path class="st19" d="M522.1,284.9l-1,16.6l1,14.1c0,0,3.9-1.5,4.4-6.3c0,0-1.9-7.3,0.5-7.3"/>
	<polygon class="st6" points="231.3,406.3 240.9,478.3 254.7,478.3 260.7,407.9 258.1,394 243.7,392.4 228.8,399.7 	"/>
	<g>
		
			<linearGradient id="SVGID_5_" gradientUnits="userSpaceOnUse" x1="206.0793" y1="482.6882" x2="267.016" y2="482.6882" gradientTransform="matrix(1 0 0 1 0 -48)">
			<stop  offset="0" style="stop-color:#485563"/>
			<stop  offset="0.3058" style="stop-color:#43505D"/>
			<stop  offset="0.7135" style="stop-color:#36404C"/>
			<stop  offset="1" style="stop-color:#29323C"/>
		</linearGradient>
		<polygon class="st23" points="206.1,408.3 236.5,461.1 266.9,408.3 		"/>
		
			<linearGradient id="SVGID_6_" gradientUnits="userSpaceOnUse" x1="202.4684" y1="482.4568" x2="270.5456" y2="482.4568" gradientTransform="matrix(1 0 0 1 0 -48)">
			<stop  offset="0" style="stop-color:#485563"/>
			<stop  offset="0.3058" style="stop-color:#43505D"/>
			<stop  offset="0.7135" style="stop-color:#36404C"/>
			<stop  offset="1" style="stop-color:#29323C"/>
		</linearGradient>
		<path class="st24" d="M206.2,408.4l8.7,13.4c2.8,4.4,5.6,8.6,8.2,12.9c2.6,4.2,5.2,8.4,7.5,12.8c2.3,4.3,4.5,8.8,6.8,13.2h-1.7
			c2.7-4.3,5.4-8.6,7.9-13.1c2.5-4.4,4.9-8.9,7.2-13.4c2.3-4.5,4.7-9.1,7-13.5l7.3-13.3l1.9,3.1c-5,0.1-9.8,0.1-14.7,0
			c-4.9-0.1-9.8-0.3-14.8-0.5L206.2,408.4z M205.9,408.2c9.3-0.5,19.4-1.1,29.7-1.6c5.2-0.2,10.4-0.4,15.7-0.5
			c5.3-0.1,10.5-0.1,15.8,0l3.7,0.1l-1.9,3l-7.9,13.1c-2.6,4.4-5.5,8.6-8.2,12.9c-2.7,4.3-5.5,8.6-8.1,13c-2.6,4.4-5.1,8.9-7.4,13.3
			l-0.7,1.4l-0.9-1.4c-2.8-4.3-5.7-8.7-8.5-13.1c-2.8-4.5-5.3-9.1-7.8-13.6c-2.4-4.6-4.8-9.2-7.1-13.5L205.9,408.2z"/>
	</g>
	<g>
		
			<linearGradient id="SVGID_7_" gradientUnits="userSpaceOnUse" x1="352.7502" y1="187.5935" x2="375.1501" y2="187.5935" gradientTransform="matrix(1 0 0 1 0 -48)">
			<stop  offset="0" style="stop-color:#6190E8"/>
			<stop  offset="0.2833" style="stop-color:#79A0E8"/>
			<stop  offset="0.7472" style="stop-color:#9AB6E8"/>
			<stop  offset="1" style="stop-color:#A7BFE8"/>
		</linearGradient>
		<polygon class="st25" points="375.2,126.6 352.8,139.6 375.2,152.5 		"/>
		
			<linearGradient id="SVGID_8_" gradientUnits="userSpaceOnUse" x1="350.9812" y1="188.3726" x2="375.9997" y2="188.3726" gradientTransform="matrix(1 0 0 1 0 -48)">
			<stop  offset="0" style="stop-color:#6190E8"/>
			<stop  offset="0.2833" style="stop-color:#79A0E8"/>
			<stop  offset="0.7472" style="stop-color:#9AB6E8"/>
			<stop  offset="1" style="stop-color:#A7BFE8"/>
		</linearGradient>
		<path class="st26" d="M375.1,126.7c-3.9,2.5-7.6,5-11.2,7.1c-1.8,1.1-3.6,2.2-5.4,3.2c-1.9,1-3.7,1.9-5.6,2.9v-0.7
			c1.9,1.2,3.7,2.3,5.6,3.3c1.9,1.1,3.8,2,5.7,3s3.8,1.9,5.7,3c1.9,1,3.8,2,5.6,3.1l-1.4,0.8c-0.1-4.2,0-8.3,0.2-12.6L375.1,126.7z
			 M375.2,126.6l0.7,12.6c0.2,4.4,0.3,8.9,0.2,13.3v1.6l-1.3-0.8c-1.9-1.1-3.7-2.2-5.6-3.3c-1.9-1.2-3.7-2.3-5.5-3.5
			c-1.9-1.2-3.6-2.3-5.5-3.4c-1.9-1.1-3.7-2.1-5.6-3.1l-0.6-0.3l0.6-0.4c1.9-1.2,3.7-2.4,5.6-3.6c1.9-1.2,3.9-2.2,5.8-3.3
			C367.8,130.3,371.6,128.4,375.2,126.6z"/>
	</g>
	<polygon class="st18" points="202.7,532.8 284.4,521.2 167.9,519 	"/>
	<g>
		<path class="st22" d="M242.7,410.6c0.2,0,0.4-0.2,0.4-0.4h-0.9C242.3,410.5,242.5,410.6,242.7,410.6z"/>
		<path class="st22" d="M247.9,410.6c0.2,0,0.4-0.2,0.4-0.4h-0.9C247.5,410.5,247.7,410.6,247.9,410.6z"/>
		<path class="st22" d="M253,410.6c0.2,0,0.4-0.2,0.4-0.4h-0.9C252.6,410.5,252.8,410.6,253,410.6z"/>
		<path class="st22" d="M258.2,410.6c0.2,0,0.4-0.2,0.4-0.4h-0.9C257.9,410.5,258,410.6,258.2,410.6z"/>
		<path class="st22" d="M263.3,410.6c0.2,0,0.4-0.2,0.4-0.4H263C263.1,410.5,263.2,410.6,263.3,410.6z"/>
		<path class="st22" d="M240.2,414.9c-0.3,0-0.5,0.2-0.5,0.5c0,0.3,0.2,0.5,0.5,0.5s0.5-0.2,0.5-0.5
			C240.7,415.1,240.4,414.9,240.2,414.9z"/>
		<path class="st22" d="M245.3,414.9c-0.3,0-0.5,0.2-0.5,0.5c0,0.3,0.2,0.5,0.5,0.5c0.3,0,0.5-0.2,0.5-0.5
			C245.8,415.1,245.5,414.9,245.3,414.9z"/>
		<path class="st22" d="M250.5,414.9c-0.3,0-0.5,0.2-0.5,0.5c0,0.3,0.2,0.5,0.5,0.5s0.5-0.2,0.5-0.5
			C251,415.1,250.7,414.9,250.5,414.9z"/>
		<path class="st22" d="M255.7,414.9c-0.3,0-0.5,0.2-0.5,0.5c0,0.3,0.2,0.5,0.5,0.5s0.5-0.2,0.5-0.5
			C256.1,415.1,255.9,414.9,255.7,414.9z"/>
		<path class="st22" d="M260.3,415.4c0,0.3,0.2,0.5,0.5,0.5s0.5-0.2,0.5-0.5c0-0.3-0.2-0.5-0.5-0.5S260.3,415.1,260.3,415.4z"/>
		<circle class="st22" cx="242.7" cy="420.6" r="0.5"/>
		<circle class="st22" cx="247.9" cy="420.6" r="0.5"/>
		<path class="st22" d="M253,420.1c-0.3,0-0.5,0.2-0.5,0.5c0,0.3,0.2,0.5,0.5,0.5s0.5-0.2,0.5-0.5
			C253.5,420.3,253.3,420.1,253,420.1z"/>
		<circle class="st22" cx="258.2" cy="420.6" r="0.5"/>
		<path class="st22" d="M240.2,426.1c0.3,0,0.5-0.2,0.5-0.5s-0.2-0.5-0.5-0.5s-0.5,0.2-0.5,0.5C239.7,425.9,239.9,426.1,240.2,426.1
			z"/>
		<path class="st22" d="M245.3,425.2c-0.3,0-0.5,0.2-0.5,0.5c0,0.3,0.2,0.5,0.5,0.5c0.3,0,0.5-0.2,0.5-0.5
			C245.8,425.4,245.5,425.2,245.3,425.2z"/>
		<path class="st22" d="M250.5,425.2c-0.3,0-0.5,0.2-0.5,0.5c0,0.3,0.2,0.5,0.5,0.5s0.5-0.2,0.5-0.5
			C251,425.4,250.7,425.2,250.5,425.2z"/>
		<path class="st22" d="M255.7,425.2c-0.3,0-0.5,0.2-0.5,0.5c0,0.3,0.2,0.5,0.5,0.5s0.5-0.2,0.5-0.5
			C256.1,425.4,255.9,425.2,255.7,425.2z"/>
		<circle class="st22" cx="242.7" cy="430.9" r="0.5"/>
		<circle class="st22" cx="247.9" cy="430.9" r="0.5"/>
		<path class="st22" d="M253,430.4c-0.3,0-0.5,0.2-0.5,0.5c0,0.3,0.2,0.5,0.5,0.5s0.5-0.2,0.5-0.5
			C253.5,430.6,253.3,430.4,253,430.4z"/>
		<path class="st22" d="M240.2,436.4c0.3,0,0.5-0.2,0.5-0.5c0-0.3-0.2-0.5-0.5-0.5s-0.5,0.2-0.5,0.5
			C239.7,436.2,239.9,436.4,240.2,436.4z"/>
		<path class="st22" d="M245.3,435.6c-0.3,0-0.5,0.2-0.5,0.5c0,0.3,0.2,0.5,0.5,0.5c0.3,0,0.5-0.2,0.5-0.5
			C245.8,435.8,245.5,435.6,245.3,435.6z"/>
		<path class="st22" d="M250.5,435.6c-0.3,0-0.5,0.2-0.5,0.5c0,0.3,0.2,0.5,0.5,0.5s0.5-0.2,0.5-0.5
			C251,435.8,250.7,435.6,250.5,435.6z"/>
		<path class="st22" d="M242.7,440.7c-0.3,0-0.5,0.2-0.5,0.5c0,0.3,0.2,0.5,0.5,0.5s0.5-0.2,0.5-0.5
			C243.2,440.9,243,440.7,242.7,440.7z"/>
		<path class="st22" d="M247.9,440.7c-0.3,0-0.5,0.2-0.5,0.5c0,0.3,0.2,0.5,0.5,0.5s0.5-0.2,0.5-0.5
			C248.3,440.9,248.2,440.7,247.9,440.7z"/>
		<path class="st22" d="M240.2,446.8c0.3,0,0.5-0.2,0.5-0.5c0-0.3-0.2-0.5-0.5-0.5s-0.5,0.2-0.5,0.5
			C239.7,446.6,239.9,446.8,240.2,446.8z"/>
		<path class="st22" d="M244.8,446.4c0,0.2,0.2,0.4,0.4,0.4l0.5-0.8c-0.1-0.1-0.2-0.1-0.3-0.1C245,445.9,244.8,446.1,244.8,446.4z"
			/>
		<path class="st22" d="M242.3,451.5c0,0.1,0,0.2,0.1,0.2l0.4-0.7l0,0C242.5,451,242.3,451.2,242.3,451.5z"/>
		<path class="st22" d="M221.3,410.6c0.2,0,0.4-0.2,0.4-0.4h-0.9C220.9,410.5,221,410.6,221.3,410.6z"/>
		<path class="st22" d="M226.4,410.6c0.2,0,0.4-0.2,0.4-0.4h-0.9C226,410.5,226.1,410.6,226.4,410.6z"/>
		<path class="st22" d="M231.6,410.6c0.2,0,0.4-0.2,0.4-0.4h-0.9C231.2,410.5,231.3,410.6,231.6,410.6z"/>
		<path class="st22" d="M236.8,410.6c0.2,0,0.4-0.2,0.4-0.4h-0.9C236.4,410.5,236.5,410.6,236.8,410.6z"/>
		<path class="st22" d="M223.3,415.4c0,0.3,0.2,0.5,0.5,0.5s0.5-0.2,0.5-0.5c0-0.3-0.2-0.5-0.5-0.5S223.3,415.1,223.3,415.4z"/>
		<path class="st22" d="M229,414.9c-0.3,0-0.5,0.2-0.5,0.5c0,0.3,0.2,0.5,0.5,0.5s0.5-0.2,0.5-0.5
			C229.5,415.1,229.3,414.9,229,414.9z"/>
		<path class="st22" d="M234.1,414.9c-0.3,0-0.5,0.2-0.5,0.5c0,0.3,0.2,0.5,0.5,0.5s0.5-0.2,0.5-0.5
			C234.6,415.1,234.4,414.9,234.1,414.9z"/>
		<path class="st22" d="M226.4,420.1c-0.3,0-0.5,0.2-0.5,0.5c0,0.3,0.2,0.5,0.5,0.5s0.5-0.2,0.5-0.5
			C226.9,420.3,226.6,420.1,226.4,420.1z"/>
		<circle class="st22" cx="231.6" cy="420.6" r="0.5"/>
		<circle class="st22" cx="236.8" cy="420.6" r="0.5"/>
		<path class="st22" d="M229,425.2c-0.3,0-0.5,0.2-0.5,0.5c0,0.3,0.2,0.5,0.5,0.5s0.5-0.2,0.5-0.5
			C229.5,425.4,229.3,425.2,229,425.2z"/>
		<path class="st22" d="M234.1,425.2c-0.3,0-0.5,0.2-0.5,0.5c0,0.3,0.2,0.5,0.5,0.5s0.5-0.2,0.5-0.5
			C234.6,425.4,234.4,425.2,234.1,425.2z"/>
		<circle class="st22" cx="231.6" cy="430.9" r="0.5"/>
		<circle class="st22" cx="236.8" cy="430.9" r="0.5"/>
		<path class="st22" d="M234.1,435.6c-0.3,0-0.5,0.2-0.5,0.5c0,0.3,0.2,0.5,0.5,0.5s0.5-0.2,0.5-0.5
			C234.6,435.8,234.4,435.6,234.1,435.6z"/>
		<path class="st22" d="M236.8,440.7c-0.3,0-0.5,0.2-0.5,0.5c0,0.3,0.2,0.5,0.5,0.5s0.5-0.2,0.5-0.5
			C237.1,440.9,237,440.7,236.8,440.7z"/>
	</g>
	<path class="st27" d="M263.6,406.4c6.5,0.1,13-2.9,16.8-8.2c4.5-6.2,3.6-30.3-6.2-30.5l-53.3-7.7l-14.4,2c0,0-48.1,27-67.8,43.3
		c-5.2,4.3-6.3,11.6-2.8,17.3l69.6,66.5l11.7-6.6c-23.9-60-41.9-62.4-41.9-62.4l30.3-12.2C205.8,408,246.6,406.3,263.6,406.4z"/>
	<path class="st28" d="M240.8,405.8c9.3-1.9,12.3-7.8,12.3-7.8"/>
	<path class="st29" d="M255.4,499c-0.2-2-1.5-3.8-3-5.1l-0.9-0.6l3.2-14.9h-12.8l3.3,15.5c-2,2.2-2.7,6.5-1.3,9.3
		c0,0,2.9,11,5.4,11.5l3.4-0.5C252.8,514.3,256.8,512.4,255.4,499z"/>
	<path class="st29" d="M222.5,499.9l-6.5-17.7l-10.5,7.1l12.6,14.9C215.8,511.8,205,522,205,522c-0.3,1.4,4.1,2.5,5,1.6
		c0,0,18.3-6.9,19-14.1C229.5,505.4,225.3,501.5,222.5,499.9z"/>
	<path class="st30" d="M165.4,287.8c-3.9,4.7-7.4,9.8-9.3,14.7"/>
	<path class="st31" d="M240.8,479.5c2.2,0,16.1-1.1,16.1-1.1l0.7-5.6l-18.3,1L240.8,479.5z"/>
	<path class="st27" d="M205.6,493.7c2.2-1.2,15.4-9.3,15.4-9.3l-2.1-5.8l-17.7,10.1L205.6,493.7z"/>
	<path class="st19" d="M501,511.4l-1.7-9.5l0.2-7.8l-9.7-1l0.2,7.6c-2.9,2.9-11.6,9.1-11.6,9.1c-2.5,1.1-7,1.8-8.2,1.9
		c-1.6,0.3-0.2,3.3,1.3,3.2l27.4-0.5C500.2,514.5,501.3,513.1,501,511.4z"/>
	<path class="st27" d="M502.7,270.4c-0.6,0.9,10.9,21.1,1.9,60.4c0,0-2.9,66-2.6,67.2c0,0,3.4,19.3,3.9,32.6
		c0.2,6.4,0.9,62.7-0.8,63.7c-5.5,3.1-19,0.2-19,0.2l-16.6-159.8c0,0-6.7,11.5-24.8,52.4l-1.5,106.2c0,0-20.3,2.9-23.4,0
		c-1-0.9-4-90.3-4.9-104.8c-0.1-1.2,0.3-14.4,0.7-15.6l23.4-95.4L502.7,270.4z"/>
	<path class="st5" d="M469.6,334.7c0,0,4.2-7.9,6.5-11.4c0.2-0.3,0.7-0.1,0.7,0.3c-1.3,5.6-4.7,21.3-5.2,22.4
		C470.9,347.2,470,340.9,469.6,334.7z"/>
	<g>
		<g>
			<path class="st32" d="M487.7,310.3c8.4,0,13.3-3.9,13.3-3.9l0.4,14.6l-7.1,6.8l-7.5-5.4L487.7,310.3z"/>
			<ellipse class="st32" cx="499" cy="319.1" rx="0.9" ry="1"/>
			<ellipse class="st32" cx="490.3" cy="320.5" rx="0.9" ry="1"/>
			<g>
				<g>
					<path class="st32" d="M487.1,313.4c0,0,0.2,0,0.5,0"/>
					<path class="st33" d="M488.4,313.3c2.7-0.3,8.8-1.2,11.7-3"/>
					<path class="st32" d="M500.5,310c0.1-0.1,0.2-0.2,0.4-0.3"/>
				</g>
			</g>
		</g>
		<path class="st34" d="M454.7,311.8c7.6,2.3,15.8,1,15.8,1l-3.4,14.1l-8.2,4.6l-8.6-8.5L454.7,311.8z"/>
		
			<ellipse transform="matrix(0.1852 -0.9827 0.9827 0.1852 60.5536 721.5501)" class="st34" cx="465.4" cy="324.3" rx="1" ry="0.8"/>
		<ellipse transform="matrix(0.1852 -0.9827 0.9827 0.1852 53.6183 708.5779)" class="st34" cx="454.1" cy="322" rx="1" ry="0.8"/>
		<g>
			<g>
				<path class="st34" d="M454,314.9c0,0,0.2,0,0.4,0.1"/>
				<path class="st35" d="M455.3,315.2c2.9,0.6,10,1.9,13.3,1.1"/>
				<path class="st34" d="M469,316.1c0.1-0.1,0.3-0.1,0.4-0.2"/>
			</g>
		</g>
	</g>
	<path class="st5" d="M178.4,418.4l-5.6,2.9c0,0,37.9,48,34.9,40.8C191,422.2,178.4,418.4,178.4,418.4z"/>
	<path class="st36" d="M208,312.7c0,0,7.1,35.7-6.5,54.5"/>
	<path class="st6" d="M303.9,361.5c1.2,0.5,1.8,1.9,1.2,3.1c-0.5,1.2-1.9,1.8-3.1,1.2c-1.2-0.5-1.8-1.9-1.2-3.1
		C301.2,361.5,302.7,361.1,303.9,361.5z"/>
	<path class="st6" d="M425.6,234c1.2,0.5,1.8,1.9,1.2,3.1c-0.5,1.2-1.9,1.8-3.1,1.2c-1.2-0.5-1.8-1.9-1.2-3.1
		C423,234,424.4,233.5,425.6,234z"/>
	<path class="st6" d="M96.4,266.1c1.2,0.5,1.8,1.9,1.2,3.1c-0.5,1.2-1.9,1.8-3.1,1.2c-1.2-0.5-1.8-1.9-1.2-3.1
		C93.8,266.1,95.2,265.6,96.4,266.1z"/>
	
		<linearGradient id="SVGID_9_" gradientUnits="userSpaceOnUse" x1="324.3474" y1="410.8136" x2="340.2713" y2="410.8136" gradientTransform="matrix(1 0 0 1 0 -48)">
		<stop  offset="0" style="stop-color:#ACCBEE"/>
		<stop  offset="1" style="stop-color:#E7F0FD"/>
	</linearGradient>
	<polygon class="st37" points="324.3,358.4 337,370 340.3,355.6 	"/>
	
		<linearGradient id="SVGID_10_" gradientUnits="userSpaceOnUse" x1="304.639" y1="370.0069" x2="324.7313" y2="370.0069" gradientTransform="matrix(1 0 0 1 0 -48)">
		<stop  offset="0" style="stop-color:#6190E8"/>
		<stop  offset="0.2833" style="stop-color:#79A0E8"/>
		<stop  offset="0.7472" style="stop-color:#9AB6E8"/>
		<stop  offset="1" style="stop-color:#A7BFE8"/>
	</linearGradient>
	<path class="st38" d="M324.7,309.7c-0.2,0.4-0.9,24.6-1.1,24.5c-0.2-0.1-19-8.4-19-8.4L324.7,309.7z"/>
	<polygon class="st1" points="429.2,283.8 418.6,264.6 410,298.3 	"/>
	
		<linearGradient id="SVGID_11_" gradientUnits="userSpaceOnUse" x1="18754.9082" y1="-4485.8965" x2="18769.6797" y2="-4491.6191" gradientTransform="matrix(-0.8886 0.4586 -0.4586 -0.8886 14983.5908 -12345.8105)">
		<stop  offset="0" style="stop-color:#ACCBEE"/>
		<stop  offset="1" style="stop-color:#E7F0FD"/>
	</linearGradient>
	<polygon class="st39" points="380.5,247 364,242.4 367.7,256.8 	"/>
	
		<linearGradient id="SVGID_12_" gradientUnits="userSpaceOnUse" x1="90.1431" y1="438.6674" x2="106.067" y2="438.6674" gradientTransform="matrix(1 0 0 1 0 -48)">
		<stop  offset="0" style="stop-color:#6190E8"/>
		<stop  offset="0.2833" style="stop-color:#79A0E8"/>
		<stop  offset="0.7472" style="stop-color:#9AB6E8"/>
		<stop  offset="1" style="stop-color:#A7BFE8"/>
	</linearGradient>
	<polygon class="st40" points="90.2,386.2 102.7,397.9 106.1,383.5 	"/>
	<path class="st1" d="M76.8,336.6c-0.2,0.4-0.9,24.6-1.1,24.5c-0.2-0.2-19-8.4-19-8.4L76.8,336.6z"/>
	<path class="st5" d="M124.8,220.8c-0.1,0.1-0.1,0.4,0,0.5l3.2,3.2c0.1,0.1,0.4,0.1,0.5,0s0.1-0.4,0-0.5l-2.5-2.6l8.5-0.2
		c0.2,0,0.4-0.2,0.4-0.4s-0.2-0.4-0.4-0.4l-8.5,0.2l2.5-2.7c0.1-0.1,0.1-0.4,0-0.5s-0.4-0.1-0.5,0L124.8,220.8z"/>
	<path class="st6" d="M133.3,193.4l64.7-1v-67.3l17.3,0.3v-22.2l-38.5-1.1c0,6.2-4.8,11.2-10.7,11.1s-10.8-5.4-10.8-11.7l-40.6-1.1
		v23.3l18.7,0.3L133.3,193.4L133.3,193.4z"/>
	<g>
		<polygon class="st41" points="160.7,133.4 155.8,158.2 178.5,150.3 		"/>
		<g>
			<path class="st41" d="M160.7,133.5l-1,6.5c-0.3,2.1-0.7,4.2-1,6.2c-0.3,2-0.7,4.1-1.2,6l-1.5,6l-0.4-0.4
				c3.8-1.2,7.6-2.5,11.3-4.1c1.9-0.8,3.7-1.5,5.6-2.1l5.6-2l-0.3,1.3c-2.9-2.7-5.7-5.5-8.6-8.4L160.7,133.5z M160.7,133.4l9.1,7.9
				c3.1,2.7,6.3,5.6,9.3,8.6l0.9,0.9l-1.2,0.4l-5.7,1.9c-1.9,0.6-3.8,1.2-5.7,1.8c-3.8,1.2-7.7,2.3-11.4,3.8l-0.5,0.2l0.1-0.6l1-6.4
				c0.4-2.1,0.8-4.3,1.3-6.3c0.5-2.1,1-4.2,1.5-6.1L160.7,133.4z"/>
		</g>
	</g>
	<g>
		<polygon class="st41" points="167.5,166.6 158.8,172.3 167.9,177.3 		"/>
		<g>
			<path class="st41" d="M167.5,166.7c-1.6,1.3-2.9,2.4-4.2,3.4c-0.7,0.5-1.3,1-1.9,1.4c-0.7,0.4-1.5,0.8-2.1,1.2V172
				c0.7,0.5,1.5,1,2.2,1.4c0.8,0.4,1.6,0.8,2.3,1.1c0.8,0.3,1.6,0.7,2.3,1.1c0.8,0.4,1.6,0.8,2.3,1.2l-1.1,0.7
				c-0.1-0.9-0.1-1.7-0.1-2.5s0-1.7,0.1-2.5C167.2,170.6,167.4,168.7,167.5,166.7z M167.5,166.5c0.2,1.5,0.5,3.2,0.8,5.1
				c0.1,0.9,0.2,1.9,0.3,2.8s0.1,1.9,0.1,2.8v1.3l-1.1-0.7c-0.8-0.5-1.5-0.9-2.2-1.4c-0.7-0.5-1.5-1-2.1-1.5s-1.5-1-2.1-1.4
				c-0.8-0.4-1.6-0.8-2.3-1.2l-0.5-0.2l0.5-0.4c0.7-0.6,1.4-1.2,2.1-1.8s1.6-1.1,2.3-1.5C164.7,167.9,166.2,167.2,167.5,166.5z"/>
		</g>
	</g>
	<polygon class="st42" points="173.4,173.4 169,158 176.3,159.6 	"/>
	<g>
		<path class="st29" d="M131.5,241.7c0,0,0.5-3.9,6.8-11.2c0,0-1.9-8.8-1.5-10.7c1-4.4,6.8,11.2,8.3,16.1c1.5,4.9-3.4,14.1-3.4,14.1
			l16.6,27.3l-15.6,8.3l-6.3-34.1L131.5,241.7z"/>
		<path class="st18" d="M263.7,303c14.9,39,26.1,68.2,26.1,68.2s-18.5,13.9-46.3,14.4c-27.8,0.5-54.4-15.6-54.4-15.6
			s11.6-8,12.9-27.5c0,0,2.4-34.5-5.9-33.7c-4.9,0.5-12.7,5.8-31.2,13.4c-6.9-4.4-23.7-17.2-27-45.1l16.1-9.7l8.8,16.1l5.8,12"/>
		<path class="st18" d="M160.9,294.7c0,0,50.6-72.1,106.6-16.1l25.1,30.4c4.3,5.2,4,12.7-0.6,17.5l-10.9,11.5"/>
		<path class="st29" d="M206.2,197.2c-10.8-2.2-20.4,5.6-23.2,19.6l-0.6,1.8c-0.1,0.5-1.8,3.6-2.7,5.3c-1.3,2,1.6,4,1.6,4
			c-1.9,18.8,6.3,19.9,10,20c11,0.3,27.3-11.7,29.2-21.2C223.4,212.4,217,199.3,206.2,197.2z"/>
		<path class="st43" d="M184.4,202.8c-3.3,5.8-2.8,8.3,0.1,9.9c0.7,0.4,3.6-7.3,4.5-6.9c0.8,0.4,0.8,11.1,1.9,11.5
			c0.9,0.4,3.8,2.1,7.9,4.8c0,0,8.1-3.9,4.2,7l-2.4,2.4c0,0-18,24.9-8.9,44.1c11.8,24.7,49.5,34.9,65.3,11.7
			c13-19.2,12.7-30.2,39.9-33.1c17.1-1.9,0.9-36.2-13.6-41.9c-22.4-8.8-41.2,19.5-47.9,1.8c-2.3-6.1-4-14.8-16.8-20.2
			c-0.7-0.3-1.4-0.5-2.1-0.7C211,192,192.2,189,184.4,202.8z"/>
		<path class="st44" d="M199.7,263.2c0,0,20.5,47,77.9,7.1"/>
		<path class="st44" d="M235.7,228.7c0,0,7.4,11.2,22.1,5.2"/>
		<polygon class="st6" points="263.7,303 285.9,332.8 281.2,338.1 276.1,335.6 		"/>
	</g>
	<polygon class="st45" points="382.6,196 421.9,87.2 460.4,129.5 	"/>
	<path class="st19" d="M481.3,129.8c1.3-14.2-6.6-26.5-17.5-27.5s-19.6,7.9-20.8,22.1l-0.3,1.8c0,0.5-1.3,3.8-2.1,5.6
		c-1.1,2.1,1.9,3.8,1.9,3.8c0.2,18.2,8,19,11.8,18.8l-0.7,11.3l19.7,0.8l-6.2-17.2C474.5,143.9,480.8,136,481.3,129.8z"/>
	<path class="st19" d="M371.1,159.5l-2.9-8.4c0-1.1-0.1-8.4-1.4-10.8c-1-1.9-2.6-0.4-2.7,4.1c0,1.8-0.1,2.9-0.1,3.8
		c-1.7-0.5-4.2-1.6-7.9-3.4c0,0-4.3-7.9-5.8-9.2c-3.6-2.7,2,13,4.1,17.6c2,4.7,11.7,8.6,11.7,8.6l9.8,31.7l12.4-3.9L371.1,159.5z"/>
	<g>
		<path class="st43" d="M493.5,178.5c13.4,47.9,12.1,89.2,15,119.4c0,0-17.3,9.5-32.2,9.4c-14.8-0.1-27.7-3.8-42.3-8.5
			c0,0,2.8-27.1,3.5-42c0.3-7.9-3.1-38.2-4.9-42.9l-18.7,4.1c-7.1,2-17.8-2.1-25.8-8.3c-14.9-11.4-20.5-26.1-23.6-46.7
			c2.2-1.3,5-2.4,7.6-3.4c0,0,13.1,20.6,18.9,26.5c5.8,5.8,7.5,7.1,12.9,12.1"/>
	</g>
	<path class="st46" d="M414.6,218c0,0,16.4-8.7,24.8-16.9c0.8-0.7,0.5,2.4,0.5,3.5c-0.1,11.2,2.8,48.4,1.2,50.3
		c-1.9,2.1-2.9,2.1-2.9,2.1s-0.7-23.5-4.8-43.2L414.6,218z"/>
	<path class="st43" d="M444.3,201.4H398c0,0,15.1-14.3,32-28.1c13.1-10.7,52.1-13.6,68.7,2.4c0,0,22,25.8,26.3,52.6
		c2.9,18.3,2.9,15.5,2.9,15.5l4.7,45.8c0,0-16.1,1-16.1,0.2s-3.1-29-3.1-29s-4.9-26.2-13.1-44.2c0,0-7.2-20.5-8-20.8
		c-0.8-0.3-28.7,4.4-29.7,4.4S444.3,201.4,444.3,201.4z"/>
	
		<linearGradient id="SVGID_13_" gradientUnits="userSpaceOnUse" x1="437.838" y1="170.2281" x2="494.8263" y2="170.2281" gradientTransform="matrix(1 0 0 1 0 -48)">
		<stop  offset="0" style="stop-color:#485563"/>
		<stop  offset="0.3058" style="stop-color:#43505D"/>
		<stop  offset="0.7135" style="stop-color:#36404C"/>
		<stop  offset="1" style="stop-color:#29323C"/>
	</linearGradient>
	<path class="st47" d="M459,93.3c0.9,0.6,1.9,1.3,2.7,2c2.5,2.3,5.6,3.9,9.1,4.4c1.8,0.3,4,0.6,6.6,1.1c0,0,17.9,1.9,11.1,16.9
		c-0.1,0.2,5.2,4.9,5.8,8.3c1.5,6.8,0.5,24.8-20,23.4c-0.1,0,0.1,0,0,0c-1,0.6-1.2,1.4-4.4,2.9c-0.7,0.3-3.9,1-4.4,0.5
		c-1.3-1.1-7.8-4.1-7.7-12.8c0-0.7,2.2-2.1,2.7-2.6c1.5-1.9,4.6-6.6,1.1-10c-0.3-0.3-0.6-0.4-1-0.5c-0.6-0.1-1.5-0.2-2.4-0.1
		c-1.1,0.2-1.9-0.6-2-1.7c-0.1-1.3-0.4-2.8-1.2-4.4c-0.7-1.5-1.8-2.6-3.2-3.4c-3-1.8-13.1-1.7-14.1-11.9S450.8,87.8,459,93.3z"/>
	<path class="st46" d="M501.7,223.1l-1.9-16.1c0,0,9.7,17,10.7,35.1L501.7,223.1z"/>
	<path class="st48" d="M450,108.1c0,0-9.3,8.4-22.5-0.7"/>
	<path class="st49" d="M383.4,177.9c0,0,13.8,24.5,18.8,20.3"/>
</g>
</svg>
