<svg xmlns="http://www.w3.org/2000/svg" xmlns:xlink="http://www.w3.org/1999/xlink" viewBox="0 0 398.84 743.6">
  <defs>
    <linearGradient id="b" x1="-82.07" y1="653.69" x2="480.66" y2="90.95" gradientUnits="userSpaceOnUse">
      <stop offset="0" stop-color="#66c789" stop-opacity="0"/>
      <stop offset="1" stop-color="#66c789" stop-opacity=".5"/>
    </linearGradient>
    <linearGradient id="a" x1="249.58" y1="40.24" x2="574.87" y2="365.53" gradientUnits="userSpaceOnUse">
      <stop offset="0" stop-color="#66c789" stop-opacity="0"/>
      <stop offset="1" stop-color="#66c789" stop-opacity=".35"/>
    </linearGradient>
    <linearGradient id="e" x1="87.43" y1="202.39" x2="412.72" y2="527.68" xlink:href="#a"/>
    <linearGradient id="f" x1="-71.71" y1="361.53" x2="253.58" y2="686.82" xlink:href="#a"/>
    <linearGradient id="g" x1="160.72" y1="71.69" x2="481.77" y2="392.75" xlink:href="#b"/>
    <linearGradient id="h" x1=".71" y1="231.7" x2="321.76" y2="552.76" xlink:href="#b"/>
    <linearGradient id="i" x1="-156.34" y1="388.75" x2="164.72" y2="709.8" xlink:href="#b"/>
    <linearGradient id="j" x1="-1901.63" y1="2374.39" x2="-1899.77" y2="2374.3" gradientTransform="translate(23461.56 -28479.17) scale(12.14)" gradientUnits="userSpaceOnUse">
      <stop offset="0" stop-color="#c1d3fa" stop-opacity="0"/>
      <stop offset=".02" stop-color="#bdd0fa" stop-opacity=".03"/>
      <stop offset=".18" stop-color="#9bb8f7" stop-opacity=".29"/>
      <stop offset=".33" stop-color="#7ea4f5" stop-opacity=".5"/>
      <stop offset=".48" stop-color="#6694f3" stop-opacity=".68"/>
      <stop offset=".63" stop-color="#5487f2" stop-opacity=".82"/>
      <stop offset=".76" stop-color="#477df1" stop-opacity=".92"/>
      <stop offset=".89" stop-color="#3f78f0" stop-opacity=".98"/>
      <stop offset="1" stop-color="#3c76f0"/>
    </linearGradient>
    <linearGradient id="c" x1="-1946.99" y1="2381.26" x2="-1945.72" y2="2380.9" gradientTransform="matrix(16 0 0 16 31237.61 -38073.44)" gradientUnits="userSpaceOnUse">
      <stop offset="0" stop-color="#66c789"/>
      <stop offset="1" stop-color="#66c789" stop-opacity="0"/>
    </linearGradient>
    <linearGradient id="k" x1="-1912.39" y1="2403.58" x2="-1911.46" y2="2403.54" gradientTransform="translate(23461.56 -28479.17) scale(12.14)" gradientUnits="userSpaceOnUse">
      <stop offset="0" stop-color="#c1d3fa"/>
      <stop offset="1" stop-color="#3c76f0"/>
    </linearGradient>
    <linearGradient id="l" x1="-1955.15" y1="2276.52" x2="-1952.94" y2="2275.9" gradientTransform="rotate(90 2497.5 34011) scale(16)" xlink:href="#c"/>
    <linearGradient id="m" x1="60.03" y1="626.28" x2="150.37" y2="716.61" xlink:href="#b"/>
    <linearGradient id="d" x1="90.05" y1="548.53" x2="181.84" y2="640.32" gradientUnits="userSpaceOnUse">
      <stop offset="0" stop-color="#3c76f0" stop-opacity="0"/>
      <stop offset="1" stop-color="#3c76f0" stop-opacity=".5"/>
    </linearGradient>
    <linearGradient id="n" x1="290.74" y1="533.71" x2="341.2" y2="584.16" xlink:href="#b"/>
    <linearGradient id="o" x1="230.45" y1="414.79" x2="284.8" y2="469.13" xlink:href="#b"/>
    <linearGradient id="p" x1="59.57" y1="496.42" x2="131.91" y2="568.75" xlink:href="#b"/>
    <linearGradient id="q" x1="245.15" y1="613.78" x2="294.76" y2="663.39" xlink:href="#d"/>
  </defs>
  <path fill="none" stroke-miterlimit="10" stroke-width="2" stroke="url(#b)" d="M388.71 669.67L8.84 742.39V76.01L388.71 1.22v668.45z"/>
  <path fill="none" stroke-miterlimit="10" stroke-width="2" stroke="url(#a)" d="M251.58 39.24v6"/>
  <path fill="none" stroke-miterlimit="10" stroke-width="2" stroke-dasharray="12.01 12.01" stroke="url(#e)" d="M251.58 57.25v618.57"/>
  <path fill="none" stroke-miterlimit="10" stroke-width="2" stroke="url(#f)" d="M251.58 681.82v6"/>
  <path fill="none" stroke-miterlimit="10" stroke-width="2" stroke="url(#g)" d="M162.72 70.69v6"/>
  <path fill="none" stroke-miterlimit="10" stroke-width="2" stroke-dasharray="11.85 11.85" stroke="url(#h)" d="M162.72 88.54v610.34"/>
  <path fill="none" stroke-miterlimit="10" stroke-width="2" stroke="url(#i)" d="M162.72 704.8v6"/>
  <path d="M379.52 341.06a10.13 10.13 0 11-.3 7.76 10.11 10.11 0 01.3-7.76z" fill="url(#j)"/>
  <path d="M98.33 31.15a7.94 7.94 0 10-5.67-2.07 7.93 7.93 0 005.67 2.07z" fill="url(#c)"/>
  <path d="M247 697.88a5.06 5.06 0 11-.15 3.88 5.05 5.05 0 01.15-3.88z" fill="url(#k)"/>
  <path d="M76.32 252.83a15.37 15.37 0 110 .09z" fill="url(#l)"/>
  <path fill="none" stroke-linecap="round" stroke-linejoin="round" stroke-width="18" stroke="url(#m)" d="M9 690.03l192.4-37.18"/>
  <path fill="none" stroke-linecap="round" stroke-linejoin="round" stroke-width="18" stroke="url(#d)" d="M37.94 613.36l196.01-37.87"/>
  <path fill="none" stroke-linecap="round" stroke-linejoin="round" stroke-width="18" stroke="url(#n)" d="M269.21 567.97l93.52-18.07"/>
  <path fill="none" stroke-linecap="round" stroke-linejoin="round" stroke-width="18" stroke="url(#o)" d="M206.04 451.93l103.17-19.94"/>
  <path fill="none" stroke-linecap="round" stroke-linejoin="round" stroke-width="18" stroke="url(#p)" d="M21.85 546.86l147.77-28.55"/>
  <path fill="none" stroke-linecap="round" stroke-linejoin="round" stroke-width="18" stroke="url(#q)" d="M224.23 647.42l91.44-17.67"/>
</svg>
