<svg xmlns="http://www.w3.org/2000/svg" xmlns:xlink="http://www.w3.org/1999/xlink" viewBox="0 0 661.41 596.77">
  <defs>
    <linearGradient id="a" x1="129.04" y1="78.54" x2="540.65" y2="490.15" gradientUnits="userSpaceOnUse">
      <stop offset="0" stop-color="#66c789" stop-opacity="0"/>
      <stop offset="1" stop-color="#66c789" stop-opacity=".5"/>
    </linearGradient>
    <linearGradient id="d" x1="96.76" y1="353.28" x2="236.76" y2="493.28" xlink:href="#a"/>
    <linearGradient id="b" x1="214.83" y1="283.8" x2="354.83" y2="423.8" gradientUnits="userSpaceOnUse">
      <stop offset="0" stop-color="#3c76f0" stop-opacity="0"/>
      <stop offset="1" stop-color="#3c76f0" stop-opacity=".5"/>
    </linearGradient>
    <linearGradient id="e" x1="509.49" y1="259.87" x2="588.99" y2="339.37" xlink:href="#a"/>
    <linearGradient id="f" x1="305.03" y1="220.19" x2="364.38" y2="279.54" xlink:href="#a"/>
    <linearGradient id="g" x1="66.42" y1="302.66" x2="145.92" y2="382.17" xlink:href="#a"/>
    <linearGradient id="h" x1="400.89" y1="330.62" x2="480.39" y2="410.12" xlink:href="#b"/>
    <linearGradient id="c" x1="-2490.64" y1="3230.22" x2="-2488.18" y2="3229.52" gradientTransform="matrix(16 0 0 16 39889.13 -51095.51)" gradientUnits="userSpaceOnUse">
      <stop offset="0" stop-color="#66c789"/>
      <stop offset="1" stop-color="#66c789" stop-opacity="0"/>
    </linearGradient>
    <linearGradient id="i" x1="-2464.63" y1="3207.31" x2="-2462.56" y2="3206.72" xlink:href="#c"/>
    <linearGradient id="j" x1="-2446.64" y1="3155.89" x2="-2444.55" y2="3155.79" gradientTransform="translate(29886.76 -38150.22) scale(12.14)" gradientUnits="userSpaceOnUse">
      <stop offset="0" stop-color="#c1d3fa" stop-opacity="0"/>
      <stop offset=".02" stop-color="#bdd0fa" stop-opacity=".03"/>
      <stop offset=".18" stop-color="#9bb8f7" stop-opacity=".29"/>
      <stop offset=".33" stop-color="#7ea4f5" stop-opacity=".5"/>
      <stop offset=".48" stop-color="#6694f3" stop-opacity=".68"/>
      <stop offset=".63" stop-color="#5487f2" stop-opacity=".82"/>
      <stop offset=".76" stop-color="#477df1" stop-opacity=".92"/>
      <stop offset=".89" stop-color="#3f78f0" stop-opacity=".98"/>
      <stop offset="1" stop-color="#3c76f0"/>
    </linearGradient>
    <linearGradient id="k" x1="-2425.68" y1="3188.41" x2="-2424.2" y2="3186.93" gradientTransform="translate(29886.76 -38150.22) scale(12.14)" gradientUnits="userSpaceOnUse">
      <stop offset="0" stop-color="#c1d3fa" stop-opacity="0"/>
      <stop offset="1" stop-color="#3c76f0"/>
    </linearGradient>
    <linearGradient id="l" x1="-2475.31" y1="3194.26" x2="-2473.89" y2="3193.86" xlink:href="#c"/>
  </defs>
  <path fill="none" stroke-miterlimit="10" stroke-width="2" stroke="url(#a)" d="M9 494.45l651.41-125.88V73.96L9 200.41v294.04z"/>
  <path fill="none" stroke-linecap="round" stroke-linejoin="round" stroke-width="18" stroke="url(#d)" d="M9 453.77l315.52-60.98"/>
  <path fill="none" stroke-linecap="round" stroke-linejoin="round" stroke-width="18" stroke="url(#b)" d="M127.07 384.29l315.52-60.97"/>
  <path fill="none" stroke-linecap="round" stroke-linejoin="round" stroke-width="18" stroke="url(#e)" d="M466.47 315.61l165.54-31.99"/>
  <path fill="none" stroke-linecap="round" stroke-linejoin="round" stroke-width="18" stroke="url(#f)" d="M276.91 261.04l115.58-22.34"/>
  <path fill="none" stroke-linecap="round" stroke-linejoin="round" stroke-width="18" stroke="url(#g)" d="M23.4 358.41l165.54-31.99"/>
  <path fill="none" stroke-linecap="round" stroke-linejoin="round" stroke-width="18" stroke="url(#h)" d="M357.87 386.37l165.54-31.99"/>
  <path d="M63.11 596.75a17.25 17.25 0 11.1 0z" fill="url(#c)"/>
  <path d="M475.4 228.7a14.43 14.43 0 11.08 0z" fill="url(#i)"/>
  <path d="M188.77 156.85a11.36 11.36 0 11-.33 8.7 11.35 11.35 0 01.33-8.7z" fill="url(#j)"/>
  <path d="M439 542.06a11.36 11.36 0 11-.33 8.69 11.35 11.35 0 01.33-8.69z" fill="url(#k)"/>
  <path d="M298.22 17.76a8.9 8.9 0 10-6.35-2.32 8.88 8.88 0 006.35 2.32z" fill="url(#l)"/>
</svg>
