<svg fill="none" xmlns="http://www.w3.org/2000/svg" viewBox="0 0 521 412">
  <path d="M19.672 68.808c9.995-.425 17.745-8.837 17.31-18.789-.434-9.951-8.89-17.675-18.884-17.25C8.103 33.194.352 41.606.788 51.56c.434 9.95 8.889 17.674 18.884 17.249z" fill="url(#paint0_linear)"/>
  <path d="M508.825 23.997c6.516-.277 11.569-5.761 11.286-12.25C519.827 5.26 514.315.226 507.799.503c-6.516.277-11.569 5.76-11.286 12.249.284 6.488 5.796 11.523 12.312 11.246z" fill="url(#paint1_linear)"/>
  <path d="M277.271 393.457c2.359-5.223 8.476-7.548 13.663-5.192 5.186 2.355 7.478 8.498 5.119 13.721-2.359 5.223-8.475 7.548-13.662 5.192-5.186-2.355-7.478-8.498-5.12-13.721z" fill="url(#paint2_linear)"/>
  <path d="M149.601 79.512c1.624-3.596 5.837-5.197 9.408-3.575 3.572 1.622 5.151 5.853 3.526 9.45-1.624 3.596-5.837 5.197-9.408 3.575-3.572-1.622-5.151-5.853-3.526-9.45z" fill="url(#paint3_linear)"/>
  <g filter="url(#filter0_d)">
    <path d="M157.001 177.96v-39.374c0-5.414.49-5.906 5.786-6.005 27.067-.787 51.977-7.875 73.847-24.412 3.138-2.362 5.982-5.118 8.826-7.776 1.962-1.772 4.119-1.87 5.884-.197 14.221 13.978 31.481 22.739 50.507 27.857 8.728 2.363 17.652 3.839 26.773 4.036 2.354.098 4.707.295 7.061.394 3.04.098 4.315 1.279 4.315 4.429v75.993c-.098 23.624-7.65 44.689-21.772 63.392-7.355 9.745-16.672 17.423-26.381 24.707-13.435 10.041-26.675 20.377-39.914 30.515-2.452 1.871-4.119 1.969-6.473.296-16.181-12.403-32.461-24.609-48.447-37.209-20.006-15.75-32.559-36.421-37.953-61.325-2.157-9.942-2.059-20.081-2.059-30.22V177.96z" fill="#3C76F0"/>
  </g>
  <g filter="url(#filter1_d)" fill="#fff">
    <path d="M218.755 258.433l59.651-.469-.755-95.964-59.651.469.755 95.964zm7.689-87.398l42.391-.333.619 78.7-42.39.334-.62-78.701z"/>
    <path d="M252.503 223.386l-.212-26.911c-.064-8.124-4.149-11.138-12.812-15.132l-3.501 6.628 4.589 2.503c2.294 1.252 3.322 2.767 3.354 6.829l.213 27.164c.064 8.124 4.149 11.139 12.812 15.133l3.502-6.629-4.589-2.503c-2.297-1.505-3.324-3.02-3.356-7.082z"/>
  </g>
  <defs>
    <linearGradient id="paint0_linear" x1="-6.367" y1="67.93" x2="39.906" y2="54.681" gradientUnits="userSpaceOnUse">
      <stop stop-color="#66C789"/>
      <stop offset="1" stop-color="#66C789" stop-opacity="0"/>
    </linearGradient>
    <linearGradient id="paint1_linear" x1="491.849" y1="23.424" x2="522.016" y2="14.787" gradientUnits="userSpaceOnUse">
      <stop stop-color="#66C789"/>
      <stop offset="1" stop-color="#66C789" stop-opacity="0"/>
    </linearGradient>
    <linearGradient id="paint2_linear" x1="274.948" y1="398.6" x2="298.103" y2="397.542" gradientUnits="userSpaceOnUse">
      <stop stop-color="#C1D3FA"/>
      <stop offset="1" stop-color="#3C76F0"/>
    </linearGradient>
    <linearGradient id="paint3_linear" x1="148.001" y1="83.055" x2="163.947" y2="82.326" gradientUnits="userSpaceOnUse">
      <stop stop-color="#C1D3FA"/>
      <stop offset="1" stop-color="#3C76F0"/>
    </linearGradient>
    <filter id="filter0_d" x="150" y="92" width="203" height="254" filterUnits="userSpaceOnUse" color-interpolation-filters="sRGB">
      <feFlood flood-opacity="0" result="BackgroundImageFix"/>
      <feColorMatrix in="SourceAlpha" values="0 0 0 0 0 0 0 0 0 0 0 0 0 0 0 0 0 0 127 0"/>
      <feOffset dx="3" dy="3"/>
      <feGaussianBlur stdDeviation="5"/>
      <feColorMatrix values="0 0 0 0 0 0 0 0 0 0 0 0 0 0 0 0 0 0 0.15 0"/>
      <feBlend in2="BackgroundImageFix" result="effect1_dropShadow"/>
      <feBlend in="SourceGraphic" in2="effect1_dropShadow" result="shape"/>
    </filter>
    <filter id="filter1_d" x="207.481" y="151.481" width="87.456" height="123.483" filterUnits="userSpaceOnUse" color-interpolation-filters="sRGB">
      <feFlood flood-opacity="0" result="BackgroundImageFix"/>
      <feColorMatrix in="SourceAlpha" values="0 0 0 0 0 0 0 0 0 0 0 0 0 0 0 0 0 0 127 0"/>
      <feOffset dx="3.006" dy="3.006"/>
      <feGaussianBlur stdDeviation="6.763"/>
      <feColorMatrix values="0 0 0 0 0 0 0 0 0 0 0 0 0 0 0 0 0 0 0.15 0"/>
      <feBlend in2="BackgroundImageFix" result="effect1_dropShadow"/>
      <feBlend in="SourceGraphic" in2="effect1_dropShadow" result="shape"/>
    </filter>
  </defs>
</svg>
