<svg xmlns="http://www.w3.org/2000/svg" xmlns:xlink="http://www.w3.org/1999/xlink" width="90px" viewBox="0 0 120 47.88"><defs><mask id="b4a6bac1-1f60-4fe9-af7b-732223811cff" x="0" y="26.97" width="18.34" height="20.91" maskUnits="userSpaceOnUse"><g transform="translate(0.16 -0.81)"><g id="f1096a58-889b-4a77-b63a-6a301d155955" data-name="mask-2"><polygon id="e9d19ebb-551d-41f8-8094-31dee29af6c9" data-name="path-1" points="-0.16 27.78 18.18 27.78 18.18 48.69 -0.16 48.69 -0.16 27.78" fill="#fff" fill-rule="evenodd"/></g></g></mask><mask id="b4739f32-b54a-4c66-9c92-ef09ac0d27f2" x="0" y="0" width="120" height="47.88" maskUnits="userSpaceOnUse"><g transform="translate(0.16 -0.81)"><g id="e991b168-c486-42a3-8d8d-b0675745861a" data-name="mask-4"><polygon id="faea9c2b-21e5-414e-ac66-255360146589" data-name="path-3" points="-0.16 48.69 119.84 48.69 119.84 0.81 -0.16 0.81 -0.16 48.69" fill="#fff" fill-rule="evenodd"/></g></g></mask></defs><g id="b4dca3b6-b0e4-41bb-aab6-77f4feb6bbd9" data-name="black logo-white bg"><g id="ef6ca8f7-1da0-45ca-8eca-3d1c54aa95d8" data-name="Group-13"><g id="ff7e4689-5509-4394-99b1-ad12d0ac7c79" data-name="Group-3"><g mask="url(#b4a6bac1-1f60-4fe9-af7b-732223811cff)"><path id="fe797f08-d903-4f4f-b7a4-7afed7ccb803" data-name="Fill-1" d="M7.71,44.57c-1.49,0-2.23-.73-2.23-1.94,0-2.23,2.5-3,7-3.47,0,3-2,5.41-4.82,5.41m2-16.79a16.11,16.11,0,0,0-9,3.15L2.5,34.84a10.68,10.68,0,0,1,6.64-2.77c2.26,0,3.51.76,3.51,2.28,0,1-.83,1.54-2.39,1.74C4.42,36.85-.16,38.46-.16,43c0,3.57,2.54,5.73,6.51,5.73A7.66,7.66,0,0,0,12.9,45v3.07h5.28V35.25c0-5.32-3.69-7.47-8.51-7.47" transform="translate(0.16 -0.81)" fill="#060809" fill-rule="evenodd"/></g></g><path id="b23fea48-5f18-4012-bd01-52d5441ada05" data-name="Fill-4" d="M62.67,28.36V48.11h5.65V38.59c0-4.52,2.74-5.85,4.65-5.85a4.39,4.39,0,0,1,2.42.71l1-5.22a6.54,6.54,0,0,0-2.54-.45A6,6,0,0,0,68,31.68V28.36Z" transform="translate(0.16 -0.81)" fill="#060809" fill-rule="evenodd"/><path id="acccb4b3-e8c3-43ab-98f8-f429dc0e2925" data-name="Fill-6" d="M102.61,27.78a7.83,7.83,0,0,0-6.39,3.47,7,7,0,0,0-12.11.1v-3H78.66V48.11h5.66V37.94c0-3.65,1.91-5.4,3.69-5.4,1.62,0,3.1,1.05,3.1,3.74V48.11h5.65V37.94c0-3.69,1.86-5.4,3.73-5.4,1.49,0,3.07,1.09,3.07,3.7V48.11h5.64V34.46c0-4.44-3-6.68-6.59-6.68" transform="translate(0.16 -0.81)" fill="#060809" fill-rule="evenodd"/><path id="b1f09924-071e-4a65-9eca-c550adcf52d8" data-name="Fill-8" d="M48.92,28.36H43.8v-2c0-2.61,1.5-3.36,2.78-3.36a5.65,5.65,0,0,1,2.53.63l1.74-4a9.6,9.6,0,0,0-5-1.16c-3.61,0-7.72,2-7.72,8.43v1.45H29.59v-2c0-2.61,1.49-3.36,2.78-3.36a5.4,5.4,0,0,1,2.53.63l1.74-4a9.91,9.91,0,0,0-5-1.16c-3.61,0-7.71,2-7.71,8.43v1.45H20.67v4.35H24v15.4h5.64V32.71h8.57v15.4H43.8V32.71h5.12Z" transform="translate(0.16 -0.81)" fill="#060809" fill-rule="evenodd"/><g mask="url(#b4739f32-b54a-4c66-9c92-ef09ac0d27f2)"><polygon id="ec64b05a-69ee-43e9-8b9a-e92d5d55e708" data-name="Fill-10" points="52.45 47.3 58.09 47.3 58.09 27.55 52.45 27.55 52.45 47.3" fill="#060809" fill-rule="evenodd"/></g><g mask="url(#b4739f32-b54a-4c66-9c92-ef09ac0d27f2)"><path id="aaefa63c-94c2-4145-b0af-6b8c926a83ea" data-name="Fill-12" d="M85.19.81C70,.81,56.35,11.39,52.5,25H58C61.25,14.87,72.18,6,85.19,6,101,6,114.68,18,114.68,36.75a38.64,38.64,0,0,1-1.58,11.36h5.36l.05-.19a45.3,45.3,0,0,0,1.33-11.17c0-20.9-15.23-35.94-34.65-35.94" transform="translate(0.16 -0.81)" fill="#0fa0ea" fill-rule="evenodd"/></g></g></g></svg>