<svg id="b5630f2b-9f38-4226-90b3-5976baf00531" data-name="Livello 1" xmlns="http://www.w3.org/2000/svg" viewBox="0 0 120 26.08" width="90"><path d="M12.2,20.1s-1.27-1.55-2-2.4l-1,2.48c1.51,2.26,2.51,4.19,3.06,5.12A46.81,46.81,0,0,1,21.3,13.05l-.6-1.41a46.21,46.21,0,0,0-8.5,8.46" transform="translate(0 -0.46)" fill="#059bd2"/><path d="M66.37,20.61A2.27,2.27,0,0,0,68.54,23v3.52c-4-.05-6.12-2-6.12-5.64V.46h4Z" transform="translate(0 -0.46)" fill="#fc6600" fill-rule="evenodd"/><path d="M78.76,8.07a9,9,0,0,0-8.86,9.17c0,5.12,3.78,9.18,8.5,9.18a7.15,7.15,0,0,0,5.48-2.23l.21.07v1.8h4V8.43h-4V9.66l-.18.07a7.58,7.58,0,0,0-5.15-1.66m.5,15a5.62,5.62,0,0,1-5.4-5.86,5.6,5.6,0,0,1,5.4-5.85,7.93,7.93,0,0,1,4.83,1.48v7.55a5.09,5.09,0,0,1-4.83,2.68" transform="translate(0 -0.46)" fill="#fc6600" fill-rule="evenodd"/><path d="M91.34,26.09h4V13.75a6.8,6.8,0,0,1,5-2.08h.85V8.07h-.49A6.62,6.62,0,0,0,95.5,10.5l-.21-.07v-2h-4Z" transform="translate(0 -0.46)" fill="#fc6600" fill-rule="evenodd"/><path d="M49.9,8.07A9,9,0,0,0,41,17.24c0,5.12,3.77,9.18,8.51,9.18A7.14,7.14,0,0,0,55,24.19l.21.07v1.8h4V8.43h-4V9.66l-.18.07A7.58,7.58,0,0,0,49.9,8.07m.49,15A5.62,5.62,0,0,1,45,17.24a5.6,5.6,0,0,1,5.39-5.85,7.94,7.94,0,0,1,4.84,1.48v7.55a5.11,5.11,0,0,1-4.84,2.68" transform="translate(0 -0.46)" fill="#fc6600" fill-rule="evenodd"/><path d="M110.72,8.07a9,9,0,0,0-8.86,9.17c0,5.12,3.77,9.18,8.5,9.18a7.18,7.18,0,0,0,5.48-2.23l.21.07v1.8h4V8.43h-4V9.66l-.17.07a7.6,7.6,0,0,0-5.15-1.66m.49,15a5.62,5.62,0,0,1-5.4-5.86,5.6,5.6,0,0,1,5.4-5.85A7.89,7.89,0,0,1,116,12.87v7.55a5.09,5.09,0,0,1-4.83,2.68" transform="translate(0 -0.46)" fill="#fc6600" fill-rule="evenodd"/><path d="M20.09,26h4.29L20.59,17a41.4,41.4,0,0,0-2.89,3.44Z" transform="translate(0 -0.46)" fill="#fc6600"/><polygon points="37.18 7.98 31.67 20.88 31.62 20.88 31.59 20.88 31.57 20.88 31.55 20.88 31.53 20.88 31.5 20.88 31.45 20.88 25.94 7.98 21.68 7.98 29.55 25.58 29.55 25.58 29.59 25.58 33.52 25.58 33.57 25.58 33.57 25.58 41.44 7.98 37.18 7.98" fill="#fc6600"/><path d="M14.09,1.4H10.3L0,26H4.29L11.74,8.48l.35-1h.2l.35,1,2.21,5.21A41,41,0,0,1,18,10.83Z" transform="translate(0 -0.46)" fill="#fc6600"/></svg>
