<svg xmlns="http://www.w3.org/2000/svg" width="90px" viewBox="0 0 120 27.78"><path d="M58.78,25l-.55,1.07h-.69L60,21.43h.62l1,4.67H61L60.79,25Zm1.44-2.76-1.15,2.21h1.6Z"/><path d="M101.53,25.69a1.25,1.25,0,0,0,.61-.14.89.89,0,0,0,.36-.36,1,1,0,0,0,.11-.44.52.52,0,0,0-.11-.35,1,1,0,0,0-.38-.28l-.59-.25a2,2,0,0,1-.72-.49,1,1,0,0,1-.22-.64,1.28,1.28,0,0,1,.21-.73,1.31,1.31,0,0,1,.58-.48,2,2,0,0,1,.87-.17,2.2,2.2,0,0,1,.71.11,1.48,1.48,0,0,1,.53.31l-.1.63a1.83,1.83,0,0,0-1.21-.48,1.09,1.09,0,0,0-.69.21.65.65,0,0,0-.27.54.43.43,0,0,0,.14.31,2,2,0,0,0,.48.29l.58.26a1.82,1.82,0,0,1,.66.49,1.15,1.15,0,0,1,.19.64,1.73,1.73,0,0,1-.18.79,1.43,1.43,0,0,1-.59.58,2,2,0,0,1-1,.23,2,2,0,0,1-1.37-.44l.11-.67a2,2,0,0,0,1.34.53"/><path d="M106.57,23.08a1.38,1.38,0,0,1,.33,1,1.47,1.47,0,0,1,0,.32,2.37,2.37,0,0,1-.06.31h-2.55a1,1,0,0,0,.26.78,1.09,1.09,0,0,0,.78.27,2.31,2.31,0,0,0,.61-.08,2.12,2.12,0,0,0,.55-.26l-.08.51a2.12,2.12,0,0,1-1.23.35,1.52,1.52,0,0,1-.81-.2,1.26,1.26,0,0,1-.52-.55,1.7,1.7,0,0,1-.18-.79,2.18,2.18,0,0,1,.21-.9,2,2,0,0,1,.66-.77,1.84,1.84,0,0,1,1.08-.32,1.23,1.23,0,0,1,1,.37m-1.78.42a1.39,1.39,0,0,0-.44.68h2V24a.89.89,0,0,0-.2-.6.78.78,0,0,0-.58-.21,1.08,1.08,0,0,0-.75.28"/><path d="M109,23.33a.93.93,0,0,0-.68.28,1.59,1.59,0,0,0-.36.84l-.26,1.67h-.61l.52-3.3h.59l-.09.56a1.16,1.16,0,0,1,1-.58l.27,0-.08.53a1.18,1.18,0,0,0-.27,0"/><polygon points="110.8 26.12 110.24 26.12 109.45 22.82 110.06 22.82 110.62 25.4 111.99 22.82 112.62 22.82 110.8 26.12"/><path d="M113,26.12h-.6l.5-3.3h.61Zm.07-3.94A.32.32,0,0,1,113,22a.42.42,0,0,1,.13-.31.48.48,0,0,1,.32-.13.29.29,0,0,1,.23.1.32.32,0,0,1,.09.23.42.42,0,0,1-.13.31.48.48,0,0,1-.32.13.29.29,0,0,1-.23-.1"/><path d="M114.4,26a1.45,1.45,0,0,1-.52-.55,1.54,1.54,0,0,1-.19-.77,2.13,2.13,0,0,1,.24-1,1.91,1.91,0,0,1,.7-.74,2,2,0,0,1,1.07-.28,1.5,1.5,0,0,1,1,.3l-.1.61a1.19,1.19,0,0,0-.9-.36,1.25,1.25,0,0,0-.7.2,1.33,1.33,0,0,0-.48.52,1.54,1.54,0,0,0-.17.7,1,1,0,0,0,.26.73.89.89,0,0,0,.7.29,1.59,1.59,0,0,0,.56-.11,1.44,1.44,0,0,0,.49-.29l-.1.62a1.77,1.77,0,0,1-.52.25,2.1,2.1,0,0,1-.56.07,1.36,1.36,0,0,1-.75-.2"/><path d="M119.66,23.08a1.34,1.34,0,0,1,.34,1,2,2,0,0,1-.09.63h-2.54a.94.94,0,0,0,.26.78,1.08,1.08,0,0,0,.77.27,2.39,2.39,0,0,0,.62-.08,2.28,2.28,0,0,0,.55-.26l-.08.51a2.13,2.13,0,0,1-1.24.35,1.52,1.52,0,0,1-.81-.2,1.32,1.32,0,0,1-.52-.55,1.7,1.7,0,0,1-.18-.79,2.2,2.2,0,0,1,.22-.9,1.87,1.87,0,0,1,.66-.77,1.8,1.8,0,0,1,1.08-.32,1.21,1.21,0,0,1,1,.37m-1.78.42a1.37,1.37,0,0,0-.43.68h2a.66.66,0,0,0,0-.15.84.84,0,0,0-.21-.6.74.74,0,0,0-.57-.21,1.12,1.12,0,0,0-.76.28"/><path d="M87,19H84.39a.35.35,0,0,0-.35.3l-1,6.56a.22.22,0,0,0,.21.25h1.32a.24.24,0,0,0,.24-.21l.3-1.86a.35.35,0,0,1,.35-.3h.81a2.64,2.64,0,0,0,2.92-2.44,2,2,0,0,0-.33-1.65A2.38,2.38,0,0,0,87,19m.3,2.39c-.14.92-.84.92-1.52.92h-.39l.27-1.71a.21.21,0,0,1,.21-.18H86c.46,0,.9,0,1.12.26a.83.83,0,0,1,.13.71"/><path d="M68.68,19H66.12a.35.35,0,0,0-.35.3l-1,6.56a.22.22,0,0,0,.21.25h1.23a.36.36,0,0,0,.35-.3l.28-1.77a.36.36,0,0,1,.35-.3H68a2.64,2.64,0,0,0,2.92-2.44,2,2,0,0,0-.33-1.65A2.36,2.36,0,0,0,68.68,19M69,21.4c-.14.92-.84.92-1.52.92h-.39l.27-1.71a.21.21,0,0,1,.21-.18h.18c.46,0,.9,0,1.12.26a.83.83,0,0,1,.13.71"/><path d="M76.34,21.38H75.11a.21.21,0,0,0-.21.18l-.05.34-.09-.13a1.76,1.76,0,0,0-1.45-.51,2.83,2.83,0,0,0-2.74,2.47A2.32,2.32,0,0,0,71,25.61a1.94,1.94,0,0,0,1.55.63,2.31,2.31,0,0,0,1.69-.71l0,.34a.22.22,0,0,0,.21.25h1.11a.36.36,0,0,0,.35-.3l.66-4.2a.21.21,0,0,0-.21-.24m-1.71,2.38a1.37,1.37,0,0,1-1.38,1.17.95.95,0,0,1-1-1.19,1.37,1.37,0,0,1,1.37-1.18,1,1,0,0,1,1,1.2"/><path d="M94.61,21.38H93.38a.21.21,0,0,0-.21.18l0,.34L93,21.77a1.76,1.76,0,0,0-1.45-.51,2.83,2.83,0,0,0-2.74,2.47,2.32,2.32,0,0,0,.46,1.88,1.94,1.94,0,0,0,1.55.63,2.31,2.31,0,0,0,1.69-.71l-.05.34a.22.22,0,0,0,.21.25h1.1a.37.37,0,0,0,.36-.3l.66-4.2a.21.21,0,0,0-.21-.24M92.9,23.76a1.37,1.37,0,0,1-1.39,1.17,1,1,0,0,1-.82-.33,1,1,0,0,1-.19-.86,1.37,1.37,0,0,1,1.37-1.18,1,1,0,0,1,1,1.2"/><path d="M82.87,21.38H81.64a.36.36,0,0,0-.3.15L79.64,24l-.72-2.41a.35.35,0,0,0-.34-.25H77.37a.21.21,0,0,0-.2.28l1.36,4-1.28,1.8a.21.21,0,0,0,.17.34h1.23a.38.38,0,0,0,.3-.15l4.1-5.92a.21.21,0,0,0-.18-.33"/><path d="M96.05,19.19l-1,6.68a.22.22,0,0,0,.21.25h1.06a.35.35,0,0,0,.35-.3l1-6.57a.21.21,0,0,0-.21-.24H96.26a.21.21,0,0,0-.21.18"/><path d="M0,15.73V13.65H1.64V3.58H0V1.5H6.58c3,0,4.86,1.4,4.86,3.83a3.15,3.15,0,0,1-2.11,3,3.53,3.53,0,0,1,2.89,3.31c0,2.6-2,4.05-5.3,4.05ZM3.9,3.58V7.46H6.36c1.84,0,2.79-.69,2.79-1.94s-1-1.94-2.82-1.94Zm0,10.07H6.7c2.16,0,3.24-.72,3.24-2.09S8.79,9.47,6.53,9.47H3.9Z"/><path d="M24.15,8.32A1.71,1.71,0,0,0,22.48,7a3.69,3.69,0,0,0-3.68,4v2.7h3.63v2.08h-8.1V13.65h2.31V7.36H14.82V5.28h3.95V7a4.21,4.21,0,0,1,3.81-2.11,3.47,3.47,0,0,1,3.63,2.8Z"/><path d="M35.19,9.64V9.06C35.19,7.58,34,7,32.74,7a4.52,4.52,0,0,0-3.07,1.25L28.25,6.68a6.32,6.32,0,0,1,4.49-1.75c2.63,0,4.66,1.4,4.66,4.05v4.67h1.52v2.08H35.19v-1.1c-.56.9-2.08,1.44-3.58,1.44-2.16,0-4-1.1-4-3.28,0-2.58,2.52-3.56,4.83-3.56A10.41,10.41,0,0,1,35.19,9.64Zm0,1.87a8.37,8.37,0,0,0-2.67-.44c-1.38,0-2.7.44-2.7,1.69,0,.93.83,1.38,2,1.38,1.59,0,3.38-.86,3.38-2.34Z"/><path d="M52,13.65v2.08H41.48V13.65h4.37V7.36H42.51V5.28H48v8.37ZM48,3.19H45.58V0H48Z"/><path d="M54.63,13.65h1.6V7.36h-1.5V5.28h3.63V6.63A4.12,4.12,0,0,1,62,4.93a3.72,3.72,0,0,1,4,3.86v4.86h1.59v2.08H62.12V13.65h1.67V9.37A2,2,0,0,0,61.68,7a3.2,3.2,0,0,0-3.29,3.12v3.49h1.67v2.08H54.63Z"/><path d="M71,7.36H68.29V5.28H71V1.5h2.16V5.28h5.08V7.36H73.17v4.4A2.17,2.17,0,0,0,75.6,14a4.38,4.38,0,0,0,3-1.45l1.45,1.5a6,6,0,0,1-4.47,2C73,16.07,71,14.63,71,11.83Z"/><path d="M91.85,8.32A1.71,1.71,0,0,0,90.18,7a3.69,3.69,0,0,0-3.68,4v2.7h3.63v2.08H82V13.65h2.31V7.36H82.52V5.28h4V7a4.21,4.21,0,0,1,3.81-2.11,3.47,3.47,0,0,1,3.63,2.8Z"/><path d="M106.38,14.14a7.29,7.29,0,0,1-5.13,1.93c-3.51,0-6-2.35-6-5.57A5.45,5.45,0,0,1,101,4.93c3.29,0,5.59,2.53,5.59,6v.36h-9a3.54,3.54,0,0,0,3.7,2.8,5,5,0,0,0,3.66-1.45ZM97.67,9.42h6.43A3.18,3.18,0,0,0,101,6.92,3.29,3.29,0,0,0,97.67,9.42Z"/><path d="M119.8,14.14a7.27,7.27,0,0,1-5.13,1.93c-3.51,0-6-2.35-6-5.57a5.45,5.45,0,0,1,5.69-5.57c3.29,0,5.6,2.53,5.6,6v.36h-9a3.55,3.55,0,0,0,3.71,2.8,5,5,0,0,0,3.66-1.45Zm-8.71-4.72h6.43a3.18,3.18,0,0,0-3.12-2.5A3.3,3.3,0,0,0,111.09,9.42Z"/></svg>