<svg id="a05c8063-5f68-4977-a021-9d47377d2f4a" data-name="Livello 1" xmlns="http://www.w3.org/2000/svg" viewBox="0 0 120 42.86" width="90"><g id="b9315f8c-db8f-43df-9157-f11c7a03b955" data-name="logomark"><path id="b500c31e-59a7-41b8-a921-1f8b0e719d78" data-name="logo-mouth" d="M25.71,20.71H21.86v.43a9.08,9.08,0,0,1-9,9.15,9.07,9.07,0,0,1-9-9.15v-.43H0v.43a12.86,12.86,0,1,0,25.71,0Z" transform="translate(0)" fill="#f224f2"/><path id="f472a8a2-2681-4684-967a-8afd2e28dcd9" data-name="logo-hat" d="M12.86,4.86l2.71,3.71h4.86A62,62,0,0,0,12.86,0,60.72,60.72,0,0,0,5.29,8.57h4.85Z" transform="translate(0)" fill="#f224f2"/><g id="bcd41362-c1d8-413a-8585-04fcd8fe74cc" data-name="logo-eyes"><circle id="f059af5b-002f-48d9-9dda-e9339e48b7e4" data-name="logo-eye-left" cx="5.14" cy="14.71" r="2.57" fill="#f224f2"/><circle id="bd1bf9de-0307-4a66-9ff2-54f18cebc48a" data-name="logo-eye-center" cx="12.86" cy="14.71" r="2.57" fill="#f224f2"/><circle id="a7865034-e828-4346-a9e0-38effc8f527f" data-name="logo-eye-right" cx="20.57" cy="14.71" r="2.57" fill="#f224f2"/></g></g><g id="b2396eb8-38d0-4299-a74f-15102bb93335" data-name="wordmark"><path id="b115a023-0c7a-4194-a6d5-ca4216e2d15e" data-name="wordmark-d" d="M58.29,33.57H53.71V29.86a11.76,11.76,0,0,1-9.57,4.43,13.41,13.41,0,0,1-9.57-3.58,13.15,13.15,0,0,1-3.71-9.42,12.35,12.35,0,0,1,3.71-9.43,13.64,13.64,0,0,1,9.57-3.57,11.75,11.75,0,0,1,9.57,4.14V0h4.58ZM44.57,12.29c-5.57,0-9,3.28-9,9s3.43,8.85,9,8.85,9.14-3.28,9.14-8.85S50.29,12.29,44.57,12.29Z" transform="translate(0)" fill="#f224f2"/><polygon id="a26d9314-5e37-4182-80d0-fe58b4675c4e" data-name="wordmark-r" points="78.86 12.71 67.86 12.71 67.86 34.29 63.43 34.29 63.43 8.57 78.86 8.57 78.86 12.71" fill="#f224f2"/><path id="fe9320c4-fb75-4929-b9aa-b53b5d6e2eec" data-name="wordmark-i" d="M82.29,2.71A2.41,2.41,0,0,1,83.57.43a2.14,2.14,0,0,1,2.57,0,2.41,2.41,0,0,1,1.29,2.28,2.65,2.65,0,0,1-1.29,2.43,2.14,2.14,0,0,1-2.57,0A2.64,2.64,0,0,1,82.29,2.71Zm.42,6.15H87V34.29H82.71Z" transform="translate(0)" fill="#f224f2"/><path id="afc2338a-ae38-4347-962a-da59a4a84cfe" data-name="wordmark-p" d="M92.57,9.14h4.57v3.72a11.72,11.72,0,0,1,9.57-4.29,13.69,13.69,0,0,1,9.58,3.57A12.62,12.62,0,0,1,120,21.57,12.4,12.4,0,0,1,116.29,31a13.76,13.76,0,0,1-9.72,3.57,11.67,11.67,0,0,1-9.43-4.14V42.86H92.57Zm13.57,21.43c5.72,0,9.15-3.28,9.15-9s-3.43-8.86-9.15-8.86-9,3.29-9,8.86S100.57,30.57,106.14,30.57Z" transform="translate(0)" fill="#f224f2"/></g></svg>
