<svg xmlns="http://www.w3.org/2000/svg" viewBox="0 0 120.11 27.72" width="90"><g id="acc0fe80-910c-461f-9248-d365e8e70470" data-name="Page-1"><g id="f7bffafa-d3f8-44ff-b67f-fd79b313d72c" data-name="easypost-logo-dark"><g id="e0950dfd-72ec-4776-ba8f-4d46b5ad74d4" data-name="logo"><circle id="a54091b5-0ffe-41b9-8da5-0f1d0c407da3" data-name="dot" cx="117.63" cy="18.78" r="2.48" fill="#2396fb"/><path id="abdad850-12a4-4970-991b-283ced4773d7" data-name="letter-t" d="M109.77,21.67h2.88V17.53H109.9a2,2,0,0,1-2-2V9.38h4.81V5.77h-3.61a1.2,1.2,0,0,1-1.2-1.2V.72h-4.08V15.51C103.79,19.59,106.1,21.67,109.77,21.67Z" transform="translate(0.11 -0.72)" fill="#303f9f"/><path id="ff95b2c8-e79a-4566-9555-b3b65e1421af" data-name="letter-s" d="M44.08,7.06,42.34,10A7,7,0,0,0,39.5,9C38.64,9,38,9.4,38,10s.85,1,2.44,1.61c2.43.88,4.58,2.56,4.58,5.22s-2.24,5.06-5.75,5.06a10,10,0,0,1-5.45-1.78l1.55-3.25a9.53,9.53,0,0,0,3.86,1.2c1.08,0,1.55-.6,1.55-1.2,0-.76-.76-1.2-2.72-2C36.74,14.37,34,13.23,34,10.19c0-2.78,2.37-4.58,5.38-4.58A9.56,9.56,0,0,1,44.08,7.06Z" transform="translate(0.11 -0.72)" fill="#303f9f"/><path id="f8a61ee3-3994-48a4-96f5-08e66a2383cd" data-name="letter-o" d="M83.83,5.61a8.16,8.16,0,1,1-8.16,8.16A8.18,8.18,0,0,1,83.83,5.61Zm0,4.17a4,4,0,1,0,4,4A4,4,0,0,0,83.83,9.78Z" transform="translate(0.11 -0.72)" fill="#303f9f"/><path id="ad48b93c-7f6f-4c98-9a10-4b0bc4b3fdeb" data-name="letter-p" d="M75,13.74c0,4.49-3.31,8.13-7.41,8.13a6.05,6.05,0,0,1-4.51-1.81V28a.49.49,0,0,1-.48.48H59.05V13.74a8,8,0,1,1,15.92,0Zm-4,0a4.13,4.13,0,0,0-4-4.37,4.18,4.18,0,0,0-4,4.37,4,4,0,1,0,7.94,0Z" transform="translate(0.11 -0.72)" fill="#303f9f"/><path id="ab6268d4-4638-465d-a11a-f10177f0728c" data-name="letter-y" d="M60.23,5.77l-6.54,16c-1.56,3.7-4.18,5.88-7.53,6.54l-1.33-3.7A6.78,6.78,0,0,0,50,19.9L44.23,5.77h4.52l3,7.45c.25.62.65.62.9,0l3-7.45Z" transform="translate(0.11 -0.72)" fill="#303f9f"/><path id="a8b03696-8f4f-4b0a-80b1-e961c5a7c67f" data-name="letter-s" d="M102.36,7.06,100.62,10a7.09,7.09,0,0,0-2.85-1c-.86,0-1.49.41-1.49,1s.86,1,2.44,1.61c2.43.88,4.58,2.56,4.58,5.22s-2.24,5.06-5.75,5.06a10,10,0,0,1-5.44-1.78l1.55-3.25a9.43,9.43,0,0,0,3.86,1.2c1.07,0,1.55-.6,1.55-1.2,0-.76-.76-1.2-2.73-2-1.32-.54-4.11-1.68-4.11-4.72,0-2.78,2.37-4.58,5.38-4.58A9.63,9.63,0,0,1,102.36,7.06Z" transform="translate(0.11 -0.72)" fill="#303f9f"/><path id="aa5b062d-dc56-48be-b81e-a4c9b51c2ea1" data-name="letter-a" d="M33.08,5.77V21.64h-3.6V20.31a7.66,7.66,0,0,1-4.68,1.62,8.16,8.16,0,1,1,0-16.32,7.47,7.47,0,0,1,4.65,1.61V5.77Zm-8.18,12a4,4,0,1,0-4-4.05A4,4,0,0,0,24.9,17.78Z" transform="translate(0.11 -0.72)" fill="#303f9f"/><path id="f54b68c2-f51a-482e-85b7-2fd6ca3c5791" data-name="letter-e" d="M16.09,15.15h-12A4.39,4.39,0,0,0,8.37,18a6.76,6.76,0,0,0,4.27-1.71l2.43,2.94A10.28,10.28,0,0,1,8.3,21.93,8.31,8.31,0,0,1-.11,13.61,8,8,0,0,1,8,5.61C12.64,5.61,16.09,9.36,16.09,15.15ZM4.16,11.9h7.43A3.65,3.65,0,0,0,7.92,9,3.69,3.69,0,0,0,4.16,11.9Z" transform="translate(0.11 -0.72)" fill="#303f9f"/></g></g></g></svg>
