<svg xmlns="http://www.w3.org/2000/svg" viewBox="0 0 120 44.52"><path d="M45.17,27.33l2.63,6.9H42.7l2.47-6.9Zm-1-2.32L38.43,40.14h2.13L42,36h6.42l1.48,4.11h2.13L46.32,25ZM75.26,40.15h2V25h-2V40.15ZM55,31.26a4.18,4.18,0,0,1,3.28-1.81c2.64,0,4,1.81,4,4.44v6.42h-2V34.22c0-2.14-1.15-3-2.63-3a3.07,3.07,0,0,0-2.8,3.13v5.75h-2V29.63h2L55,31.28ZM63.92,37c0-2.31,2.13-3.62,4.6-3.62a4.49,4.49,0,0,1,2.8.66v-.33a2.46,2.46,0,0,0-2.63-2.47,2.41,2.41,0,0,0-2.47,1.48l-1.81-.82c.33-1,1.64-2.47,4.27-2.47,2.47,0,4.61,1.48,4.61,4.44v6.25H71.48V38.67h-.16a4,4,0,0,1-3.46,1.81c-2.13,0-3.94-1.32-3.94-3.45m7.4-1.32a4.16,4.16,0,0,0-2.47-.66c-2,0-2.8,1.15-2.8,2,0,1.15,1.15,1.64,2.14,1.64a3.2,3.2,0,0,0,3.12-3" transform="translate(0 -0.24)" fill="#757575"/><path d="M80,44.76l2.31-5.43-4.11-9.54h2L83.35,37l3.12-7.24h2L82,44.76H80ZM109,33.25a3.11,3.11,0,0,0-2.79-2.14,3.36,3.36,0,0,0-3.13,3.62,3.36,3.36,0,0,0,3.13,3.61,3.17,3.17,0,0,0,2.79-2l1.65,1a4.83,4.83,0,0,1-4.44,3,5.35,5.35,0,0,1-5.1-5.59c0-3.29,2.31-5.59,5.1-5.59a4.82,4.82,0,0,1,4.44,3L109,33.24Z" transform="translate(0 -0.24)" fill="#757575" fill-rule="evenodd"/><path d="M116.05,40.48c2.63,0,4-1.48,4-3.29,0-3.94-5.76-2.47-5.76-4.77,0-.82.66-1.31,1.81-1.31a3.28,3.28,0,0,1,2.8,1.31L120,31.27a6.14,6.14,0,0,0-4.11-2c-2.47,0-3.78,1.48-3.78,3.29,0,3.78,5.92,2.47,5.92,4.44,0,1-.66,1.64-2,1.64A3.24,3.24,0,0,1,113.41,37L112,38.18c1,1,2.47,2.32,4.11,2.32ZM97.3,40.15h2V29.63h-2Z" transform="translate(0 -0.24)" fill="#757575"/><path d="M98.13,24.54a1.32,1.32,0,0,1,0,2.63,1.32,1.32,0,1,1,0-2.63Zm-2.8,14L95.66,40h-2c-1.81,0-2.63-1.32-2.63-3.29V31.59h-2v-2h2V26.5h2v3.13h2.31v2H93V37c0,1.48,1.15,1.48,2.31,1.48Z" transform="translate(0 -0.24)" fill="#757575" fill-rule="evenodd"/><path d="M48.43,8.3v2.46h5.75a5,5,0,0,1-1.31,3,5.93,5.93,0,0,1-4.44,1.8,6.28,6.28,0,0,1-6.25-6.41A6.29,6.29,0,0,1,52.7,4.35l1.65-1.64A8.54,8.54,0,0,0,48.43.24,8.93,8.93,0,0,0,39.54,9a8.92,8.92,0,0,0,8.89,8.7,7.67,7.67,0,0,0,6.08-2.47,7.74,7.74,0,0,0,2.14-5.59,4,4,0,0,0-.17-1.48H48.42Zm14.63-2a5.46,5.46,0,0,0-5.59,5.59,5.46,5.46,0,0,0,5.59,5.6A5.54,5.54,0,0,0,68.65,12v-.1A5.45,5.45,0,0,0,63.06,6.31Zm0,9a3.31,3.31,0,0,1-3.12-3.46,3.3,3.3,0,0,1,3.12-3.44,3.21,3.21,0,0,1,3.13,3.45,3.21,3.21,0,0,1-3.13,3.45ZM90,7.46A4.27,4.27,0,0,0,86.9,6.15a5.48,5.48,0,0,0-5.26,5.59,5.48,5.48,0,0,0,5.26,5.59,3.9,3.9,0,0,0,3-1.31H90v.82c0,2.14-1.16,3.29-3,3.29a3.13,3.13,0,0,1-2.79-2L82.13,19a5.45,5.45,0,0,0,4.94,3.28c3,0,5.42-1.64,5.42-5.92V6.14H90.18V7.45Zm-2.79,7.9a3.19,3.19,0,0,1-3-3.46,3,3,0,1,1,5.92,0A3.19,3.19,0,0,1,87.23,15.36Zm-12-9a5.46,5.46,0,0,0-5.59,5.59,5.46,5.46,0,0,0,5.59,5.6A5.55,5.55,0,0,0,80.81,12v-.1A5.34,5.34,0,0,0,75.22,6.32Zm0,9A3.31,3.31,0,0,1,72.1,11.9a3.31,3.31,0,0,1,3.12-3.45,3.21,3.21,0,0,1,3.13,3.45A3.22,3.22,0,0,1,75.22,15.36ZM94.32.4h2.47V17.51H94.32Zm9.21,15a3.17,3.17,0,0,1-2.79-1.65l7.56-3.12L108,9.94a5.14,5.14,0,0,0-10,2,5.55,5.55,0,0,0,5.49,5.6h.1A6,6,0,0,0,108.3,15l-2-1.32a3.19,3.19,0,0,1-2.8,1.65Zm-.16-6.91a2.19,2.19,0,0,1,2.13,1.31l-5.1,2.14C100.4,9.44,102.05,8.46,103.37,8.46Z" transform="translate(0 -0.24)" fill="#757575"/><path d="M24.07,5.78V34.67a4.66,4.66,0,0,0,4.6,5c2.19,0,4.6-1.53,4.6-5V6a4.6,4.6,0,0,0-4.6-4.82A4.67,4.67,0,0,0,24.07,5.78Z" transform="translate(0 -0.24)" fill="#f9ab00"/><path d="M12,20.44V34.67c0,3.23,2.23,5,4.59,5,2.19,0,4.6-1.53,4.6-5v-14a4.61,4.61,0,0,0-4.6-4.82A4.68,4.68,0,0,0,12,20.44Z" transform="translate(0 -0.24)" fill="#e37400"/><circle cx="4.6" cy="34.86" r="4.6" fill="#e37400"/></svg>