<svg width="91" height="21" viewBox="0 0 91 21" fill="none" xmlns="http://www.w3.org/2000/svg">
<path d="M1.44415 9.65391L15.2145 0.53366C15.8146 0.18865 16.5496 0.18865 17.1496 0.53366L30.92 9.65391C31.46 9.92392 31.7 10.5689 31.43 11.124C31.325 11.349 31.145 11.529 30.92 11.634L29.0749 12.849C24.5598 5.7238 15.1395 3.60874 8.01434 8.10887C6.10928 9.3239 4.48924 10.9289 3.2742 12.849L1.41415 11.634C0.874137 11.349 0.664131 10.6889 0.934139 10.1489C1.05414 9.93892 1.23415 9.75891 1.44415 9.65391ZM16.1596 9.54891C12.2145 9.56391 8.53935 11.589 6.43929 14.9341L9.60438 17.0341C11.7794 13.419 16.4746 12.264 20.0747 14.439C21.1397 15.0841 22.0247 15.9691 22.6697 17.0341L25.8348 14.9341C23.7648 11.574 20.1047 9.53391 16.1596 9.54891ZM16.1596 17.1691C14.7645 17.1841 13.4895 17.9341 12.7995 19.1492L14.9295 20.5442C15.2745 20.8442 15.7096 20.9942 16.1596 20.9942C16.6096 20.9942 17.0596 20.8292 17.3896 20.5442L19.5197 19.1492C18.8446 17.9191 17.5546 17.1691 16.1596 17.1691V17.1691Z" fill="url(#paint0_linear)"/>
<path d="M40.0701 10.5837L43.5202 15.5338H41.0901L38.4801 11.6937V15.5338H36.5V5.72357H38.4801V9.63868L40.9551 5.72357H43.2352L40.0701 10.5837ZM46.9253 5.75356H44.9452V15.5638H50.0004V13.5838H46.8803L46.9253 5.75356ZM55.8505 5.39355L59.9757 15.5488H57.7556L57.3656 14.4838H54.1105L53.7205 15.5488H51.4854L55.6105 5.39355H55.8505ZM56.6456 12.6538L55.7605 10.1187L54.8455 12.6538H56.6456ZM62.7507 11.1987L60.7257 5.75356H58.5056L62.6307 15.9088H62.8257L66.9508 5.75356H64.7158L62.7507 11.1987ZM68.4659 15.5638H70.4459V5.75356H68.4659V15.5638ZM78.2762 5.75356L76.2811 9.14366L74.2861 5.75356H71.901L75.3061 11.1387V15.5638H77.2561V11.1387L80.6912 5.75356H78.2762ZM90.8165 10.4787C90.8165 13.2838 88.5365 15.5638 85.7314 15.5638C82.9263 15.5638 80.6462 13.2838 80.6462 10.4787C80.6462 7.67362 82.9263 5.39355 85.7314 5.39355C88.5515 5.40856 90.8165 7.67362 90.8165 10.4787V10.4787ZM88.9115 10.4787C88.9115 8.72365 87.4864 7.31361 85.7464 7.31361C83.9913 7.31361 82.5813 8.73865 82.5813 10.4787C82.5813 12.2187 84.0063 13.6438 85.7464 13.6438C87.4864 13.6438 88.9115 12.2337 88.9115 10.4937V10.4787Z" fill="#171A1D"/>
<defs>
<linearGradient id="paint0_linear" x1="16.1722" y1="20.989" x2="16.1722" y2="0.277401" gradientUnits="userSpaceOnUse">
<stop stop-color="#EFC119"/>
<stop offset="0.331" stop-color="#92C84E"/>
<stop offset="0.486" stop-color="#71BF5B"/>
<stop offset="0.751" stop-color="#15B158"/>
<stop offset="0.903" stop-color="#23AC69"/>
<stop offset="1" stop-color="#23AC69"/>
</linearGradient>
</defs>
</svg>
