<svg width="150" height="37" viewBox="0 0 150 37" fill="none" xmlns="http://www.w3.org/2000/svg">
<g clip-path="url(#clip0)">
<path fill-rule="evenodd" clip-rule="evenodd" d="M13.0888 8.55371H23.3387C28.8421 8.55371 30.9137 11.3398 30.5936 15.4329C30.0644 22.1903 25.9793 25.9289 20.5606 25.9289H17.8248C17.0814 25.9289 16.5813 26.421 16.3802 27.7545L15.2187 35.5068C15.142 36.0095 14.8774 36.3005 14.4805 36.3402H8.04056C7.43466 36.3402 7.22035 35.8772 7.3791 34.8744L11.3055 10.0222C11.459 9.02732 12.004 8.55371 13.0888 8.55371Z" fill="#009EE3"/>
<path fill-rule="evenodd" clip-rule="evenodd" d="M57.5892 8.09375C61.0473 8.09375 64.2382 9.96965 63.8016 14.6448C63.2724 20.2011 60.2959 23.2755 55.5995 23.2887H51.4959C50.9058 23.2887 50.6201 23.7703 50.4666 24.7572L49.6729 29.8028C49.5538 30.5648 49.1622 30.9405 48.5854 30.9405H44.7675C44.159 30.9405 43.9473 30.5515 44.0822 29.6811L47.2334 9.459C47.3895 8.46417 47.7626 8.09375 48.4426 8.09375H57.5813H57.5892ZM51.3715 18.9205H54.4804C56.425 18.8464 57.7162 17.4997 57.8458 15.0708C57.9252 13.5706 56.9119 12.4964 55.3006 12.5043L52.3743 12.5176L51.3715 18.9205ZM74.1812 29.3927C74.5304 29.0752 74.885 28.9111 74.8347 29.3027L74.7104 30.2393C74.6469 30.7288 74.84 30.9881 75.2951 30.9881H78.687C79.2585 30.9881 79.5364 30.7579 79.6766 29.8742L81.7668 16.7562C81.8726 16.0974 81.7112 15.7746 81.2112 15.7746H77.4805C77.1445 15.7746 76.9805 15.9624 76.8932 16.4757L76.7556 17.2827C76.6841 17.7034 76.491 17.7775 76.3111 17.3542C75.6787 15.8566 74.0648 15.1846 71.8132 15.2375C66.5824 15.346 63.0555 19.3174 62.6771 24.4079C62.3861 28.3449 65.2065 31.4379 68.9266 31.4379C71.6253 31.4379 72.8318 30.6442 74.1918 29.4006L74.1812 29.3927ZM71.3396 27.3739C69.088 27.3739 67.519 25.5774 67.8444 23.3761C68.1699 21.1747 70.276 19.3782 72.5276 19.3782C74.7792 19.3782 76.3481 21.1747 76.0227 23.3761C75.6973 25.5774 73.5938 27.3739 71.3396 27.3739ZM88.4052 15.7323H84.9656C84.2565 15.7323 83.9681 16.2614 84.193 16.9123L88.4634 29.4165L84.275 35.367C83.9231 35.8644 84.1957 36.3168 84.6904 36.3168H88.556C88.7813 36.3429 89.0093 36.3036 89.2129 36.2037C89.4165 36.1037 89.5871 35.9474 89.7043 35.7533L102.838 16.9149C103.243 16.3355 103.052 15.727 102.388 15.727H98.7292C98.1021 15.727 97.8508 15.9757 97.491 16.4969L92.0141 24.4344L89.5667 16.4784C89.4238 15.9968 89.0666 15.7323 88.4078 15.7323H88.4052Z" fill="#113984"/>
<path fill-rule="evenodd" clip-rule="evenodd" d="M116.501 8.09416C119.959 8.09416 123.15 9.97006 122.714 14.6452C122.184 20.2015 119.208 23.2759 114.511 23.2892H110.41C109.82 23.2892 109.535 23.7707 109.381 24.7576L108.587 29.8032C108.468 30.5652 108.077 30.9409 107.5 30.9409H103.682C103.074 30.9409 102.862 30.552 102.997 29.6815L106.153 9.45412C106.309 8.45928 106.682 8.08887 107.362 8.08887H116.501V8.09416ZM110.283 18.9209H113.392C115.337 18.8468 116.628 17.5001 116.758 15.0712C116.837 13.571 115.824 12.4968 114.212 12.5048L111.286 12.518L110.283 18.9209V18.9209ZM133.093 29.3931C133.442 29.0756 133.797 28.9116 133.747 29.3031L133.622 30.2398C133.559 30.7292 133.752 30.9885 134.207 30.9885H137.599C138.17 30.9885 138.448 30.7583 138.588 29.8746L140.679 16.7566C140.785 16.0978 140.623 15.775 140.123 15.775H136.398C136.062 15.775 135.898 15.9629 135.81 16.4762L135.673 17.2831C135.601 17.7038 135.408 17.7779 135.228 17.3546C134.596 15.857 132.982 15.185 130.73 15.2379C125.5 15.3464 121.973 19.3178 121.594 24.4084C121.303 28.3453 124.124 31.4383 127.844 31.4383C130.543 31.4383 131.749 30.6446 133.109 29.401L133.093 29.3931ZM130.254 27.3743C128.003 27.3743 126.434 25.5778 126.759 23.3765C127.084 21.1751 129.19 19.3786 131.442 19.3786C133.694 19.3786 135.263 21.1751 134.937 23.3765C134.612 25.5778 132.506 27.3743 130.254 27.3743ZM145.899 31.0097H141.983C141.915 31.0127 141.847 31.0007 141.784 30.9745C141.721 30.9482 141.665 30.9084 141.619 30.8578C141.573 30.8073 141.539 30.7472 141.519 30.682C141.5 30.6168 141.494 30.548 141.504 30.4805L144.944 8.68948C144.977 8.54076 145.059 8.40752 145.177 8.31145C145.295 8.21537 145.442 8.1621 145.595 8.16031H149.51C149.579 8.15726 149.646 8.16929 149.709 8.19555C149.772 8.2218 149.829 8.26162 149.874 8.31217C149.92 8.36272 149.954 8.42276 149.974 8.48798C149.994 8.5532 149.999 8.62201 149.989 8.68948L146.55 30.4805C146.518 30.6302 146.436 30.7647 146.318 30.8618C146.2 30.9589 146.052 31.0129 145.899 31.015V31.0097Z" fill="#009EE3"/>
<path fill-rule="evenodd" clip-rule="evenodd" d="M6.67787 0H16.9384C19.8276 0 23.2566 0.092604 25.5479 2.11666C27.0799 3.46868 27.8842 5.61974 27.699 7.93749C27.0693 15.7718 22.3835 20.1612 16.097 20.1612H11.0382C10.1757 20.1612 9.6068 20.7327 9.36339 22.2779L7.95051 31.2737C7.85791 31.8558 7.60656 32.1997 7.15677 32.2421H0.825298C0.124154 32.2421 -0.124557 31.7129 0.0580054 30.5435L4.60883 1.7092C4.79139 0.55033 5.42904 0 6.67787 0Z" fill="#113984"/>
<path fill-rule="evenodd" clip-rule="evenodd" d="M9.51172 21.3655L11.3029 10.0228C11.4591 9.02801 12.0041 8.55176 13.0889 8.55176H23.3388C25.0348 8.55176 26.408 8.81634 27.4822 9.30582C26.453 16.2802 21.9418 20.1537 16.0363 20.1537H10.9854C10.3081 20.1564 9.8107 20.495 9.51172 21.3655Z" fill="#172C70"/>
</g>
<defs>
<clipPath id="clip0">
<rect width="150" height="36.3405" fill="white"/>
</clipPath>
</defs>
</svg>
