<svg xmlns="http://www.w3.org/2000/svg" xmlns:xlink="http://www.w3.org/1999/xlink" viewBox="0 0 120 25.81" width="90"><defs><mask id="e9e5974f-4440-4035-b7a9-d04a7bfc66d8" x="0" y="14.96" width="26.3" height="10.83" maskUnits="userSpaceOnUse"><g transform="translate(0 -0.1)"><g id="ea8d080a-c4ec-442e-9601-c19695999ebd" data-name="b"><path id="b2d1680a-f9b7-4af0-a80a-0f845ed4f99f" data-name="a" d="M26.3,25.88H0V15.06H26.3Z" fill="#fff" fill-rule="evenodd"/></g></g></mask><mask id="a1d9874e-07bb-4154-bb28-aadaebec37e8" x="0" y="14.96" width="26.3" height="10.85" maskUnits="userSpaceOnUse"><g transform="translate(0 -0.1)"><g id="a97f7558-a7fa-4283-b2e5-ca3639da104f" data-name="b"><path id="af62e6cb-7bba-4acd-b364-c5d51feb082b" data-name="a" d="M26.3,25.88H0V15.06H26.3Z" fill="#fff" fill-rule="evenodd"/></g></g></mask></defs><path d="M44.7,12.42l-2.19-.48A1.88,1.88,0,0,1,40.82,10a2.37,2.37,0,0,1,2.59-2.2,2.74,2.74,0,0,1,2.79,2,.56.56,0,0,0,.29.35.54.54,0,0,0,.45,0l1.15-.4a.58.58,0,0,0,.36-.71c-.3-1-1.39-3.47-5.09-3.47a4.9,4.9,0,0,0-5,4.58c0,2.13,1.4,3.71,3.74,4.22l2.09.45c1.25.26,2,1,2,2,0,1.3-1.07,2.1-2.78,2.1a3.07,3.07,0,0,1-3.22-2.56.58.58,0,0,0-.67-.46l-.07,0-1.27.41a.57.57,0,0,0-.39.64c.4,2.05,2.08,4.24,5.64,4.24,3,0,5.28-2,5.28-4.55,0-2.2-1.45-3.77-4-4.33m12.93,2a.08.08,0,0,1,0,.09.11.11,0,0,1-.09.05H52.86a.12.12,0,0,1-.09-.05.16.16,0,0,1,0-.09,2.44,2.44,0,0,1,2.42-1.94,2.26,2.26,0,0,1,2.46,1.94ZM55.14,10.3a5.17,5.17,0,0,0-5,5.46,5.54,5.54,0,0,0,1.57,4.07,5.13,5.13,0,0,0,3.65,1.46,4.72,4.72,0,0,0,4.54-2.93.61.61,0,0,0,0-.46.65.65,0,0,0-.34-.31l-1-.35a.57.57,0,0,0-.71.32,2.46,2.46,0,0,1-2.46,1.56,2.68,2.68,0,0,1-2.73-2.42.08.08,0,0,1,0-.09.1.1,0,0,1,.09,0h6.77a.58.58,0,0,0,.57-.54c0-.1,0-.21,0-.31,0-3.35-1.91-5.42-5-5.42Zm11.53,8.12c-1.63,0-2.64-1.13-2.64-3a2.63,2.63,0,1,1,5.23,0c0,1.76-1,3-2.59,3ZM71,10.61H69.78a.58.58,0,0,0-.58.59.12.12,0,0,1-.07.11.1.1,0,0,1-.11,0,3.82,3.82,0,0,0-2.64-.87,4.77,4.77,0,0,0-4.78,5.06,4.75,4.75,0,0,0,4.78,5,3.82,3.82,0,0,0,2.61-1,.11.11,0,0,1,.12,0,.11.11,0,0,1,.07.11v.42c0,2-.89,3-2.8,3A2.39,2.39,0,0,1,64,21.14a.57.57,0,0,0-.25-.36.61.61,0,0,0-.44-.07l-1.2.28a.59.59,0,0,0-.44.69,4.6,4.6,0,0,0,4.75,3.52,5,5,0,0,0,4.05-1.62A5.44,5.44,0,0,0,71.57,20V11.19a.57.57,0,0,0-.57-.57Zm14.56-.29a3.84,3.84,0,0,0-3.19,1.48.11.11,0,0,1-.11.06.1.1,0,0,1-.08,0,3.35,3.35,0,0,0-2.9-1.49,3.86,3.86,0,0,0-2.59.95.11.11,0,0,1-.12,0,.11.11,0,0,1-.07-.11.58.58,0,0,0-.58-.57H74.76a.57.57,0,0,0-.57.57v9.23a.58.58,0,0,0,.57.57H76a.58.58,0,0,0,.57-.58V14.78a2.07,2.07,0,0,1,2.08-2.28,1.79,1.79,0,0,1,1.87,2v5.87a.58.58,0,0,0,.58.58h1.24a.58.58,0,0,0,.58-.58V14.76A2.07,2.07,0,0,1,85,12.5a1.79,1.79,0,0,1,1.87,2v5.88a.57.57,0,0,0,.57.57h1.23a.58.58,0,0,0,.57-.58V14.33c0-2.76-1.83-4-3.65-4m8.28,4.22a.11.11,0,0,1-.09,0,.1.1,0,0,1,0-.09,2.42,2.42,0,0,1,2.41-1.94,2.26,2.26,0,0,1,2.46,1.94.09.09,0,0,1,0,.09.13.13,0,0,1-.09,0Zm2.28-4.24a5.17,5.17,0,0,0-5,5.46,5.54,5.54,0,0,0,1.57,4.07,5.11,5.11,0,0,0,3.65,1.45,4.7,4.7,0,0,0,4.53-2.92.59.59,0,0,0,0-.47.55.55,0,0,0-.33-.3l-1-.36a.58.58,0,0,0-.72.32,2.46,2.46,0,0,1-2.46,1.56,2.68,2.68,0,0,1-2.73-2.42.14.14,0,0,1,0-.09.1.1,0,0,1,.09,0h6.77a.57.57,0,0,0,.57-.54c0-.1,0-.21,0-.31,0-3.35-1.91-5.43-5-5.43Zm12.27,0a3.65,3.65,0,0,0-2.62,1,.11.11,0,0,1-.12,0,.09.09,0,0,1-.07-.1v-.08a.58.58,0,0,0-.58-.57h-1.2a.58.58,0,0,0-.58.57v9.22a.58.58,0,0,0,.58.58H105a.58.58,0,0,0,.58-.58V15c0-1.2.54-2.49,2.08-2.49,1.38,0,2.07.76,2.07,2.26v5.61a.57.57,0,0,0,.58.57h1.24a.58.58,0,0,0,.58-.57V14.47c0-2.55-1.45-4.14-3.78-4.14m9.58,2.5h1.45a.57.57,0,0,0,.57-.58V11.19a.57.57,0,0,0-.57-.57H118a.12.12,0,0,1-.12-.12h0V8.06a.57.57,0,0,0-.57-.57h-1.09a.57.57,0,0,0-.57.57V9.32a1.17,1.17,0,0,1-1.3,1.3h-.18a.58.58,0,0,0-.58.57v1.06a.57.57,0,0,0,.58.57h1.2a.12.12,0,0,1,.12.12V18a2.81,2.81,0,0,0,3,3.05,5.46,5.46,0,0,0,1.11-.12.57.57,0,0,0,.44-.56v-1a.58.58,0,0,0-.58-.58h-.06l-.35,0c-.84,0-1.15-.31-1.15-1.13V12.94a.11.11,0,0,1,.11-.11" transform="translate(0 -0.1)" fill="#43af79" fill-rule="evenodd"/><g mask="url(#e9e5974f-4440-4035-b7a9-d04a7bfc66d8)"><path d="M17.33,17.73h-16a1.34,1.34,0,0,1,0-2.67h16a1.34,1.34,0,0,1,0,2.67" transform="translate(0 -0.1)" fill="#93c8a2" fill-rule="evenodd"/></g><g mask="url(#a1d9874e-07bb-4154-bb28-aadaebec37e8)"><path d="M13.9,25.9a13,13,0,0,1-3.82-.57,1.33,1.33,0,1,1,.79-2.55A10.27,10.27,0,0,0,23.69,16a1.33,1.33,0,0,1,1.66-.89h0a1.33,1.33,0,0,1,.89,1.67A12.83,12.83,0,0,1,13.9,25.9" transform="translate(0 -0.1)" fill="#43af79" fill-rule="evenodd"/></g><path d="M26.47,10.94h-16a1.34,1.34,0,0,1,0-2.67h16a1.34,1.34,0,0,1,0,2.67" transform="translate(0 -0.1)" fill="#93c8a2" fill-rule="evenodd"/><path d="M2.84,10.94A1.33,1.33,0,0,1,1.5,9.61a1.27,1.27,0,0,1,.06-.39A12.94,12.94,0,0,1,17.72.67a1.33,1.33,0,0,1,.88,1.67h0a1.32,1.32,0,0,1-1.66.88h0A10.27,10.27,0,0,0,4.11,10,1.33,1.33,0,0,1,2.84,11" transform="translate(0 -0.1)" fill="#43af79" fill-rule="evenodd"/><path d="M23.16,4.52a1.34,1.34,0,1,1-1.34-1.33,1.34,1.34,0,0,1,1.34,1.33m-15.85,17A1.34,1.34,0,1,1,6,20.15a1.34,1.34,0,0,1,1.33,1.33" transform="translate(0 -0.1)" fill="#93c8a2" fill-rule="evenodd"/></svg>
