<svg xmlns="http://www.w3.org/2000/svg" width="90px" viewBox="0 0 119.93 20.13"><path d="M11.56,15.75,14.86,0h3.39L17,6.19l0,0a4.77,4.77,0,0,1,3.59-1.63,2.55,2.55,0,0,1,2.78,2.79,10.29,10.29,0,0,1-.25,2l-1.32,6.37H18.4l1.27-6.16a6.39,6.39,0,0,0,.15-1.37c0-.67-.29-1.14-1.06-1.14-1.08,0-2.23,1.25-2.68,3.29L15,15.75Z" transform="translate(-0.07)" fill="#1c272c"/><path d="M29.83,20.13,32.19,8.85c.27-1.27.54-3,.68-4.09h3l-.19,1.65h0a4.6,4.6,0,0,1,3.58-1.83c2.49,0,3.49,1.85,3.49,3.93,0,3.76-2.6,7.47-6.58,7.47a4.32,4.32,0,0,1-2-.41h-.08l-.93,4.56Zm4.84-6.92a2.29,2.29,0,0,0,1.4.44c1.89,0,3.19-2.84,3.19-4.82,0-.83-.32-1.7-1.35-1.7s-2.28,1.27-2.68,3.19Z" transform="translate(-0.07)" fill="#1c272c"/><path d="M60.92,1.9l-.61,2.93h2.48l-.49,2.3H59.81l-.88,4.09a6,6,0,0,0-.17,1.25c0,.58.29.91,1,.91a7,7,0,0,0,.91,0l-.39,2.39a7.44,7.44,0,0,1-2,.22c-2,0-3-1-3-2.37a8.71,8.71,0,0,1,.24-1.92l1-4.53H55l.49-2.3H57l.42-2Z" transform="translate(-0.07)" fill="#1c272c"/><path d="M69.51,15.75c0-.62.1-1.32.15-2.05h-.07A4.35,4.35,0,0,1,65.85,16c-2,0-3.34-1.48-3.34-3.65,0-4.13,1.95-7.59,8.1-7.59a14.38,14.38,0,0,1,3.71.51l-1.24,5.68a24.34,24.34,0,0,0-.49,4.82Zm1-8.58a4,4,0,0,0-.86-.09C67.15,7.08,66,9.5,66,11.71c0,1,.37,1.76,1.28,1.76S69.44,12.33,70,9.85Z" transform="translate(-0.07)" fill="#1c272c"/><path d="M81.45,1.9l-.61,2.93h2.48l-.49,2.3H80.35l-.89,4.09a6,6,0,0,0-.17,1.25c0,.58.29.91,1,.91a7.16,7.16,0,0,0,.91,0l-.4,2.39a7.44,7.44,0,0,1-2,.22c-2,0-3-1-3-2.37a8.22,8.22,0,0,1,.25-1.92l1-4.53H75.5l.5-2.3h1.5l.41-2Z" transform="translate(-0.07)" fill="#1c272c"/><path d="M103.08,15.75l1.55-7.37c.29-1.34.47-2.55.64-3.55h3l-.19,1.67h0A4.9,4.9,0,0,1,112,4.58a2.6,2.6,0,0,1,2.88,2.82,11.31,11.31,0,0,1-.22,1.92l-1.35,6.43h-3.4l1.31-6.28a6.78,6.78,0,0,0,.12-1.2c0-.69-.27-1.19-1.06-1.19-1,0-2.26,1.21-2.73,3.53l-1,5.14Z" transform="translate(-0.07)" fill="#1c272c"/><path d="M28.46,3.42h.05a1.82,1.82,0,0,0,2-1.77A1.53,1.53,0,0,0,28.8.13,1.83,1.83,0,0,0,26.88,1.9,1.47,1.47,0,0,0,28.46,3.42Z" transform="translate(-0.07)" fill="#1c272c"/><path d="M29.67,4.75h-3.3L25,11.51a8.55,8.55,0,0,0-.24,1.9c0,1.4,1,2.35,3,2.35a7.78,7.78,0,0,0,2-.22l.39-2.37a5.68,5.68,0,0,1-.9.05c-.71,0-1-.34-1-.91a6,6,0,0,1,.17-1.24Z" transform="translate(-0.07)" fill="#1c272c"/><path d="M87.29,3.42h0a1.83,1.83,0,0,0,2-1.77A1.53,1.53,0,0,0,87.63.13,1.83,1.83,0,0,0,85.71,1.9,1.47,1.47,0,0,0,87.29,3.42Z" transform="translate(-0.07)" fill="#1c272c"/><path d="M88.5,4.75H85.2l-1.42,6.76a8.55,8.55,0,0,0-.24,1.9c0,1.4,1,2.35,3,2.35a7.78,7.78,0,0,0,2-.22l.39-2.37a5.68,5.68,0,0,1-.9.05c-.71,0-1-.34-1-.91a6,6,0,0,1,.17-1.24Z" transform="translate(-0.07)" fill="#1c272c"/><path d="M7.52,7.19C6.15,6.36,5.34,5.67,5.34,4.85s.88-1.68,2.43-1.68a6.71,6.71,0,0,1,3.1.91l.65-2.67V1.34A7.4,7.4,0,0,0,8,.49c-3.9,0-6.17,1.78-6.17,4.85,0,1.77,1.38,3.1,3,4,1.38.78,2.07,1.19,2.07,2.08,0,1.19-1.18,1.83-2.56,1.81a8,8,0,0,1-3.55-1.2L.07,14.88a8.17,8.17,0,0,0,4,1.07c3.71,0,6.36-1.39,6.36-5C10.42,9.29,9.34,8.2,7.52,7.19Z" transform="translate(-0.07)" fill="#1c272c"/><path d="M50.41,7.19C49,6.36,48.22,5.67,48.22,4.85s.89-1.68,2.43-1.68a6.75,6.75,0,0,1,3.11.91l.64-2.67,0-.07A7.44,7.44,0,0,0,50.88.49c-3.9,0-6.17,1.78-6.17,4.85,0,1.77,1.37,3.1,3,4,1.38.78,2.06,1.19,2.06,2.08,0,1.19-1.17,1.83-2.55,1.81a8,8,0,0,1-3.55-1.2L43,14.88a8.12,8.12,0,0,0,4,1.07c3.72,0,6.37-1.39,6.37-5C53.31,9.29,52.23,8.2,50.41,7.19Z" transform="translate(-0.07)" fill="#1c272c"/><path d="M116.09,3.93a1.89,1.89,0,0,1,.57-1.39A1.88,1.88,0,0,1,118,2a2,2,0,0,1,1,.26,1.86,1.86,0,0,1,.71.71,2,2,0,0,1,.26,1,2,2,0,1,1-3.91,0Zm.25,0a1.64,1.64,0,0,0,.5,1.2,1.69,1.69,0,0,0,2.4,0,1.66,1.66,0,0,0,.49-1.2,1.7,1.7,0,0,0-3.39,0Zm1,1.13V2.81h.92a.69.69,0,0,1,.5.19.64.64,0,0,1,.21.49.61.61,0,0,1-.21.5.64.64,0,0,1-.36.17l.6.9h-.37L118,4.17h-.41v.89Zm.3-1.16h.62a.39.39,0,0,0,.28-.12.41.41,0,0,0,.13-.29.42.42,0,0,0-.13-.3.39.39,0,0,0-.28-.12h-.62Z" transform="translate(-0.07)" fill="#1c272c"/><path id="a8d19501-2b4e-4f16-856f-c3f3a0cb9cff" data-name="Gear" d="M97.25,17H95.1l-.28-1.87a5.43,5.43,0,0,1-1.34-.56L92,15.73l-1.51-1.51,1.12-1.53A5.4,5.4,0,0,1,91,11.35l-1.88-.28V8.92L91,8.64a5.4,5.4,0,0,1,.55-1.34L90.44,5.78,92,4.26l1.53,1.12a5.4,5.4,0,0,1,1.34-.55L95.1,3h2.15l.28,1.87a5.4,5.4,0,0,1,1.34.55l1.52-1.12,1.52,1.52L100.79,7.3a5.4,5.4,0,0,1,.55,1.34l1.88.28v2.15l-1.88.28a5.4,5.4,0,0,1-.55,1.34l1.12,1.53-1.51,1.51-1.53-1.12a5.43,5.43,0,0,1-1.34.56L97.25,17Zm-1.08-9.4A2.36,2.36,0,1,0,98.53,10a2.36,2.36,0,0,0-2.36-2.36Z" transform="translate(-0.07)" fill="#6cbe45"/></svg>
