<svg xmlns="http://www.w3.org/2000/svg" width="80px" viewBox="0 0 119 49.52"><path d="M119.5,26.33c0-8.47-4.1-15.14-11.93-15.14S94.94,17.86,94.94,26.26c0,10,5.62,15,13.68,15a18.51,18.51,0,0,0,9.16-2.14V32.47a17.5,17.5,0,0,1-8.1,1.82c-3.2,0-6.05-1.12-6.41-5h16.16C119.43,28.84,119.5,27.12,119.5,26.33Zm-16.33-3.14c0-3.74,2.28-5.29,4.36-5.29s4.17,1.55,4.17,5.29Z" transform="translate(-0.5 -0.74)" fill="#32325d" fill-rule="evenodd"/><path d="M82.18,11.19a9.34,9.34,0,0,0-6.48,2.58l-.43-2H68V50.26l8.26-1.75,0-9.36a9.3,9.3,0,0,0,5.85,2.08c5.91,0,11.3-4.76,11.3-15.23C93.42,16.41,88,11.19,82.18,11.19ZM80.2,34a4.93,4.93,0,0,1-3.9-1.55l0-12.26a4.92,4.92,0,0,1,3.94-1.62c3,0,5.09,3.37,5.09,7.7S83.24,34,80.2,34Z" transform="translate(-0.5 -0.74)" fill="#32325d" fill-rule="evenodd"/><polygon points="56.13 8.49 64.42 6.71 64.42 0 56.13 1.75 56.13 8.49" fill="#32325d" fill-rule="evenodd"/><rect x="56.13" y="11.01" width="8.3" height="28.92" fill="#32325d"/><path d="M47.74,14.19l-.53-2.44H40.07V40.67h8.26V21.07c2-2.54,5.26-2.08,6.28-1.72v-7.6C53.55,11.35,49.69,10.62,47.74,14.19Z" transform="translate(-0.5 -0.74)" fill="#32325d" fill-rule="evenodd"/><path d="M31.21,4.58,23.14,6.29l0,26.48a8.31,8.31,0,0,0,8.56,8.5,12.86,12.86,0,0,0,5.79-1.09V33.47c-1.06.43-6.28,2-6.28-2.95V18.79h6.28v-7H31.18Z" transform="translate(-0.5 -0.74)" fill="#32325d" fill-rule="evenodd"/><path d="M8.86,20.14c0-1.28,1.06-1.78,2.81-1.78a18.36,18.36,0,0,1,8.2,2.12V12.71a21.79,21.79,0,0,0-8.2-1.52C5,11.19.5,14.69.5,20.54c0,9.12,12.56,7.67,12.56,11.6,0,1.52-1.32,2-3.17,2a20.59,20.59,0,0,1-9-2.64v7.86a22.85,22.85,0,0,0,9,1.89c6.87,0,11.6-3.41,11.6-9.32C21.46,22.1,8.86,23.85,8.86,20.14Z" transform="translate(-0.5 -0.74)" fill="#32325d" fill-rule="evenodd"/></svg>