<svg id="aec930e2-cf5d-47a3-a1cd-5ef003bc005f" data-name="Livello 1" xmlns="http://www.w3.org/2000/svg" viewBox="0 0 119.83 75.53"><path d="M0,43.85V70.27c0,3.49,2.16,5.49,5.57,5.49H114.5a5.45,5.45,0,0,0,5.32-5.29V39.79a20,20,0,0,0-8.47-8,16.18,16.18,0,0,0,1.12-6c0-9.52-8.17-17.24-18.26-17.24A18.31,18.31,0,0,0,77.53,18.81a49.7,49.7,0,0,0-19.65-3.92C40.64,14.89,26,23.14,21,34.54h-.2C11.63,34.54,3.7,38.35,0,43.85Z" transform="translate(0 -0.24)" fill="#fff"/><polygon points="13.63 54.85 13.63 70.6 10.28 70.6 10.28 54.85 4.26 54.85 4.26 51.9 19.92 51.9 19.92 54.85 13.63 54.85" fill="#ff7200"/><path d="M26.84,64.38a6.81,6.81,0,0,0-1.24-.16q-3.81,0-3.81,2.49,0,1.86,2.16,1.86a2.56,2.56,0,0,0,2.89-2.9V64.38Zm.31,5.09a3,3,0,0,1-1.53,1.18,5.86,5.86,0,0,1-2.27.45,5.14,5.14,0,0,1-3.5-1.1,4,4,0,0,1-1.28-3.14,4.37,4.37,0,0,1,1.8-3.72,8.37,8.37,0,0,1,5.1-1.34,6,6,0,0,1,1.34.18c0-1.6-1-2.4-3.07-2.4a6.94,6.94,0,0,0-3,.6L20,57.7a9.11,9.11,0,0,1,4-.79,6.47,6.47,0,0,1,4.63,1.43q1.47,1.42,1.47,5.4v2.93c0,1.82.37,3,1.11,3.44a1.73,1.73,0,0,1-.89.86,3.78,3.78,0,0,1-1.12.16,1.85,1.85,0,0,1-1.25-.51A2.85,2.85,0,0,1,27.15,69.47Z" transform="translate(0 -0.24)" fill="#ff7200"/><polygon points="42.39 70.6 39.02 66.06 35.65 70.6 31.82 70.6 37.14 63.53 32.24 56.92 35.94 56.92 39.04 61.01 42.12 56.92 45.79 56.92 40.92 63.5 46.3 70.6 42.39 70.6" fill="#ff7200"/><path d="M0,11V43.54C3.7,38,11.63,34.9,20.82,34.9H21c5-11.4,19.63-19.66,36.87-19.66a49.65,49.65,0,0,1,19.64,3.92A18.35,18.35,0,0,1,94.21,8.94c10.09,0,18.26,7.72,18.26,17.25a16.33,16.33,0,0,1-1.11,5.94,20,20,0,0,1,8.47,8V11.07a10.86,10.86,0,0,0-11-10.83H10.94C5.53.24,0,4.16,0,11Z" transform="translate(0 -0.24)" fill="#06f"/><path d="M61,53.13l-1.38,2.74a5,5,0,0,0-3.61-1.1,4.71,4.71,0,0,0-3.88,2,7.82,7.82,0,0,0-1.5,5,7.39,7.39,0,0,0,1.4,4.76,4.53,4.53,0,0,0,3.74,1.76A5,5,0,0,0,60,66.3L61.55,69a7.87,7.87,0,0,1-6,2.17,7.65,7.65,0,0,1-6.16-2.58,10.51,10.51,0,0,1-2.2-7,10.19,10.19,0,0,1,2.44-6.94,7.89,7.89,0,0,1,6.23-2.79A9.27,9.27,0,0,1,61,53.13Z" transform="translate(0 -0.24)" fill="#06f"/><path d="M64.82,52.06l3.23-.76V66.67c0,1.69.51,2.69,1.53,3A2.65,2.65,0,0,1,67,71.1c-1.46,0-2.19-1-2.19-3v-16Z" transform="translate(0 -0.24)" fill="#06f"/><path d="M74.41,64q0,4.52,3.29,4.52a2.83,2.83,0,0,0,2.38-1.17A5.5,5.5,0,0,0,81,64q0-4.45-3.27-4.45a2.85,2.85,0,0,0-2.4,1.17A5.33,5.33,0,0,0,74.41,64Zm-3.35,0a7.26,7.26,0,0,1,1.82-5.11,7,7,0,0,1,9.69-.08A7.38,7.38,0,0,1,84.31,64a7.43,7.43,0,0,1-1.77,5.21,6.29,6.29,0,0,1-4.86,1.93,6.21,6.21,0,0,1-4.88-1.95A7.48,7.48,0,0,1,71.06,64Z" transform="translate(0 -0.24)" fill="#06f"/><path d="M95.91,70.84V69.69a5.7,5.7,0,0,1-1.88,1,6.75,6.75,0,0,1-2.21.42Q87,71.1,87,66V57.16h3.22v8.63c0,1.76.8,2.64,2.39,2.64a3.88,3.88,0,0,0,2-.57,2.86,2.86,0,0,0,1.25-1.3v-9.4h3.22V70.84Z" transform="translate(0 -0.24)" fill="#06f"/><path d="M111.29,60.43a3.41,3.41,0,0,0-2.15-.82,3.77,3.77,0,0,0-3,1.18,4.9,4.9,0,0,0-1,3.35q0,4.27,4.15,4.27a3,3,0,0,0,1.14-.28,2.09,2.09,0,0,0,.89-.55V60.43Zm0,10.41V70a3.33,3.33,0,0,1-1.36.76,6,6,0,0,1-2,.33,5.87,5.87,0,0,1-4.55-1.81,7.26,7.26,0,0,1-1.66-5.06,7.44,7.44,0,0,1,1.91-5.29,6.64,6.64,0,0,1,7.63-1.4V52.07l3.22-.76V70.85h-3.22Z" transform="translate(0 -0.24)" fill="#06f"/><path d="M116.05,70.71h.37a.5.5,0,0,0,.18,0,.25.25,0,0,0,.1-.08.23.23,0,0,0,0-.11.2.2,0,0,0-.06-.15.27.27,0,0,0-.21-.06h-.41v.42Zm-.17.72V70.14h.57a.64.64,0,0,1,.27,0,.27.27,0,0,1,.14.12.36.36,0,0,1,0,.42.48.48,0,0,1-.27.12.2.2,0,0,1,.1.07.61.61,0,0,1,.14.17l.23.35h-.21l-.17-.27a1.06,1.06,0,0,0-.13-.18l-.08-.09-.08,0h-.29v.57h-.18Z" transform="translate(0 -0.24)" fill="#06f"/><circle cx="116.34" cy="70.6" r="0.9" fill="none" stroke="#06f" stroke-linecap="round" stroke-linejoin="round" stroke-width="3"/></svg>