<svg id="a9ebc711-5f5e-4d54-a407-410a6bb6bf12" data-name="Livello 1" xmlns="http://www.w3.org/2000/svg" viewBox="0 0 119.31 31.35" width="90"><path d="M5.07,15.66a3.29,3.29,0,0,0,3.48,3.05A3.29,3.29,0,0,0,12,15.66,3.29,3.29,0,0,0,8.55,12.6,3.32,3.32,0,0,0,5.07,15.66Zm1.95,0A1.47,1.47,0,0,1,8.59,14.3a1.47,1.47,0,0,1,1.57,1.36A1.47,1.47,0,0,1,8.59,17,1.42,1.42,0,0,1,7,15.66Zm5,7.67a3.29,3.29,0,0,0,3.47,3.06A3.29,3.29,0,0,0,19,23.33a3.29,3.29,0,0,0-3.48-3A3.26,3.26,0,0,0,12,23.33Zm1.91,0A1.47,1.47,0,0,1,15.5,22a1.5,1.5,0,0,1,1.57,1.35,1.47,1.47,0,0,1-1.57,1.36A1.42,1.42,0,0,1,13.94,23.33Z" transform="translate(-0.1 -0.7)" fill="#3fae2a" stroke="#3fae2a" stroke-miterlimit="10"/><path d="M23.39,11.5c0-.76-1-1.06-1.65-.59C15.38,15.78,9,20.66,2.61,25.54V13.45A2.86,2.86,0,0,1,3.55,11a3.58,3.58,0,0,1,1.06-.51c.08,0,.89-.17.5-.13H5.2A23.81,23.81,0,0,0,12,11.2c4.66,0,9.67-1.06,9.67-3.39V4.59c0-2.33-5-3.39-9.67-3.39S2.36,2.26,2.36,4.59V7.77a1.82,1.82,0,0,0,.76,1.44,5.15,5.15,0,0,0-1.74,1.4C.2,12.09.7,14.68.7,16.42v11c0,.77,1,1.06,1.66.6,6.36-4.88,12.76-9.76,19.12-14.63V24.1a6.85,6.85,0,0,1-.17,2.63c-.42,1.18-2.12,1.95-3.3,2.37a18.62,18.62,0,0,1-13.19-.51c-1.1-.51-2,1.06-1,1.44a24,24,0,0,0,13.23,1.06c2.46-.42,6.15-2.16,6.28-4.83C23.6,21.34,23.39,16.42,23.39,11.5ZM12,2.89c5.09,0,7.76,1.27,7.76,1.7S17.12,6.28,12,6.28,4.27,5,4.27,4.59,6.94,2.89,12,2.89ZM4.27,6.75A20.55,20.55,0,0,0,12,8a20.62,20.62,0,0,0,7.76-1.27V7.81c0,.43-2.67,1.7-7.76,1.7S4.27,8.24,4.27,7.81ZM33.7,7.94H25.77V5h19V7.94H36.88V28.38H33.7Z" transform="translate(-0.1 -0.7)" fill="#3fae2a" stroke="#3fae2a" stroke-miterlimit="10"/><path d="M49.52,26.43a5.21,5.21,0,0,1-2.29,1.82,7.75,7.75,0,0,1-2.93.6,7.38,7.38,0,0,1-1.91-.26,4.8,4.8,0,0,1-1.74-.89,5.07,5.07,0,0,1-1.27-1.57,5,5,0,0,1-.47-2.37,5.49,5.49,0,0,1,1.74-4.2A7.21,7.21,0,0,1,45.7,18c.34,0,.72,0,1.14,0s.77,0,1.15.09.68,0,.93.08a2.52,2.52,0,0,1,.55.09v-.6a3.06,3.06,0,0,0-1.06-2.63,4.69,4.69,0,0,0-2.84-.8,6.34,6.34,0,0,0-2.8.51,13.89,13.89,0,0,0-1.74,1l-1.4-2.12c.26-.21.6-.46,1-.72a8,8,0,0,1,1.31-.63,9.13,9.13,0,0,1,1.74-.51,11.29,11.29,0,0,1,2.21-.21,6.84,6.84,0,0,1,4.71,1.52,5.49,5.49,0,0,1,1.69,4.33v9.5c0,.55,0,1.06,0,1.44H49.52Zm0-5.77a3.4,3.4,0,0,0-.51-.08,4.61,4.61,0,0,0-.89-.09c-.34,0-.68,0-1.06-.08A8.63,8.63,0,0,0,46,20.36a5.47,5.47,0,0,0-2,.3,3.18,3.18,0,0,0-1.23.81,2.22,2.22,0,0,0-.6,1.06,3.69,3.69,0,0,0-.17,1.1,2.55,2.55,0,0,0,.85,2,3.74,3.74,0,0,0,2.38.67,4.42,4.42,0,0,0,1.65-.29,4.82,4.82,0,0,0,1.36-.85,4.51,4.51,0,0,0,1-1.23,2.89,2.89,0,0,0,.39-1.44ZM60.63,20l-5.56-7.89H58.8l3.74,5.39,3.64-5.39h3.31L64.1,19.73l6.15,8.65H66.52l-4.28-6.15L58,28.38H54.65Z" transform="translate(-0.1 -0.7)" fill="#3fae2a" stroke="#3fae2a" stroke-miterlimit="10"/><path d="M73.26,23.67a7,7,0,0,0,2,1.7,5,5,0,0,0,2.33.51A4.14,4.14,0,0,0,79,25.62a3.78,3.78,0,0,0,1.23-.8,4.29,4.29,0,0,0,.85-1.44,6.36,6.36,0,0,0,.3-2.13V5h3.18v16.5A9.1,9.1,0,0,1,84,24.94a7,7,0,0,1-1.53,2.34,6.24,6.24,0,0,1-2.21,1.31,9,9,0,0,1-2.67.43,8.15,8.15,0,0,1-4-.89A7.63,7.63,0,0,1,71,25.79l2.24-2.12Zm23.8,2.76a5.21,5.21,0,0,1-2.29,1.82,7.71,7.71,0,0,1-2.89.6A7.44,7.44,0,0,1,90,28.59a4.88,4.88,0,0,1-1.74-.89A5.22,5.22,0,0,1,87,26.13a5,5,0,0,1-.46-2.37,5.48,5.48,0,0,1,1.73-4.2,7.23,7.23,0,0,1,5-1.57c.34,0,.72,0,1.15,0s.76,0,1.14.09.68,0,.93.08a2.78,2.78,0,0,1,.56.09v-.6A3,3,0,0,0,96,15.06a4.67,4.67,0,0,0-2.84-.8,6.37,6.37,0,0,0-2.8.51,13.71,13.71,0,0,0-1.73,1l-1.4-2.12c.25-.21.59-.46,1-.72a7.74,7.74,0,0,1,1.32-.63,8.92,8.92,0,0,1,1.74-.51,11.1,11.1,0,0,1,2.2-.21,6.84,6.84,0,0,1,4.71,1.52,5.49,5.49,0,0,1,1.69,4.33v9.5a12.3,12.3,0,0,0,.05,1.44H97.1Zm0-5.77a3.4,3.4,0,0,0-.51-.08,4.69,4.69,0,0,0-.89-.09c-.34,0-.68,0-1.06-.08a8.63,8.63,0,0,0-1.11-.05,5.43,5.43,0,0,0-2,.3,3.18,3.18,0,0,0-1.23.81,2.22,2.22,0,0,0-.6,1.06,3.69,3.69,0,0,0-.17,1.1,2.55,2.55,0,0,0,.85,2,3.74,3.74,0,0,0,2.38.67,4.42,4.42,0,0,0,1.65-.29,4.82,4.82,0,0,0,1.36-.85,4.51,4.51,0,0,0,1-1.23,2.89,2.89,0,0,0,.39-1.44Zm5.3,7.72V13.66c0-.5,0-1.06,0-1.57h2.85l.08,2.63a10.23,10.23,0,0,1,.68-.93,5.74,5.74,0,0,1,1.06-.93,6.25,6.25,0,0,1,1.44-.72,5.13,5.13,0,0,1,1.87-.3,5.43,5.43,0,0,1,.93.09,2.87,2.87,0,0,1,.76.21l-.68,2.92a3.79,3.79,0,0,0-1.52-.25,4.24,4.24,0,0,0-1.78.38,3.86,3.86,0,0,0-1.4,1.06,5.33,5.33,0,0,0-.94,1.61,5.72,5.72,0,0,0-.34,1.91v8.57h-3Z" transform="translate(-0.1 -0.7)" fill="#55565a" stroke="#55565a" stroke-miterlimit="10"/><path d="M116.56,6.33a2.4,2.4,0,0,1,.94.17,2.79,2.79,0,0,1,.8.42,3,3,0,0,1,.81,1,3,3,0,0,1,.29,1.23,3.3,3.3,0,0,1-.21,1.1,2.57,2.57,0,0,1-.59.89,5.14,5.14,0,0,1-.93.64,3.12,3.12,0,0,1-1.06.21,3,3,0,0,1-1.06-.21,2.67,2.67,0,0,1-.94-.64,2.57,2.57,0,0,1-.59-.89,2.9,2.9,0,0,1-.21-1.06,2.14,2.14,0,0,1,.17-.89,2.28,2.28,0,0,1,.46-.85,3.22,3.22,0,0,1,1-.81A2,2,0,0,1,116.56,6.33ZM119,9.17a2.47,2.47,0,0,0-.17-1,2.85,2.85,0,0,0-.51-.8,2.61,2.61,0,0,0-.8-.51,2.39,2.39,0,0,0-.93-.17,2.28,2.28,0,0,0-.94.17,2.54,2.54,0,0,0-.76.51,2.3,2.3,0,0,0-.55.8,2.46,2.46,0,0,0-.21.94,2.33,2.33,0,0,0,.67,1.69,3.31,3.31,0,0,0,.81.55,2.23,2.23,0,0,0,.93.17,2.6,2.6,0,0,0,1-.17,1.92,1.92,0,0,0,.8-.55,2.12,2.12,0,0,0,.51-.76A1.94,1.94,0,0,0,119,9.17Zm-1.78.08L118,10.7h-.68l-.63-1.36h-.6V10.7h-.59V7.51h1.19a2.27,2.27,0,0,1,1,.22.73.73,0,0,1,.33.63.78.78,0,0,1-.21.55A.79.79,0,0,1,117.24,9.25ZM116.56,9a1.25,1.25,0,0,0,.64-.13.41.41,0,0,0,.17-.38.56.56,0,0,0-.21-.43,1.27,1.27,0,0,0-.64-.12H116V9Z" transform="translate(-0.1 -0.7)" fill="#55565a"/></svg>
