<?xml version="1.0" encoding="utf-8"?>
<!-- Generator: Adobe Illustrator 21.0.0, SVG Export Plug-In . SVG Version: 6.00 Build 0)  -->
<svg version="1.1" id="Capa_1" xmlns="http://www.w3.org/2000/svg" xmlns:xlink="http://www.w3.org/1999/xlink" x="0px" y="0px"
	 viewBox="0 0 281.8 109.7" style="enable-background:new 0 0 281.8 109.7;" xml:space="preserve">
<style type="text/css">
	.st0{fill:#3C3C3B;}
	.st1{fill:url(#SVGID_1_);}
	.st2{fill:#FFFFFF;}
</style>
<g>
	<g>
		<path class="st0" d="M113.8,33.9c0-9.6,7.3-16.6,16.3-16.6c9,0,17.1,5.5,15.8,18.1h-28.9c0.7,7.5,6.4,11.9,13.1,11.9
			c4.2,0,9.2-1.7,11.6-4.9l2.3,1.8c-3.1,4.1-8.7,6.2-13.8,6.2C121.1,50.4,113.8,44.1,113.8,33.9z M143.1,32.6
			c-0.1-7.9-5.3-12.3-13-12.3c-6.6,0-12.3,4.5-13.1,12.3H143.1z"/>
		<path class="st0" d="M159,4.5V50h-3.2V4.5H159z"/>
		<path class="st0" d="M172.7,4.5V50h-3.2V4.5H172.7z"/>
		<path class="st0" d="M181.4,33.9c0-9.6,7.3-16.6,16.3-16.6c9,0,17.1,5.5,15.8,18.1h-28.9c0.6,7.5,6.4,11.9,13.1,11.9
			c4.2,0,9.2-1.7,11.6-4.9l2.3,1.8c-3.1,4.1-8.7,6.2-13.8,6.2C188.7,50.4,181.4,44.1,181.4,33.9z M210.7,32.6
			c-0.1-7.9-5.3-12.3-13-12.3c-6.6,0-12.3,4.5-13.1,12.3H210.7z"/>
		<path class="st0" d="M245.5,23.7c-3.2-2.9-6.4-3.4-10-3.4c-5-0.1-9.8,1.8-9.7,5.9c0.1,4.3,5.7,5.1,9.7,5.8
			c5.7,1,13.6,1.9,13.2,9.4c-0.2,7.1-7.5,9-13.2,9c-5.6,0-11.2-2.1-14-6.4l2.3-2.1c2.7,3.8,7.5,5.5,11.8,5.5c3.9,0,9.8-1,10-6.1
			c0.1-4.6-5.2-5.5-10.5-6.4c-6.2-1-12.4-2.2-12.5-8.6c-0.1-6.3,6.2-9,12.7-9c4.7,0,8.8,1.3,12,4.3L245.5,23.7z"/>
		<path class="st0" d="M123.3,59.1c0,6.2-9.4,6.2-9.4,0C114,52.9,123.3,52.9,123.3,59.1z M114.7,68v32.1h7.9V68H114.7z"/>
		<path class="st0" d="M164.6,54.8v45.4h-7.4l-0.5-4.4c-2.5,3.8-6.4,5.1-10.3,5.1c-9.4,0-16.5-6.2-16.5-16.8c0-11,7-16.8,16.3-16.8
			c3.4,0,8.6,1.8,10.5,5.1V54.8H164.6z M137.8,84.1c0,5.6,4,9.4,9.1,9.4c5,0,9.3-3.6,9.3-9.4c0-5.6-4.3-9.4-9.3-9.4
			C141.8,74.8,137.8,78.3,137.8,84.1z"/>
		<path class="st0" d="M180.6,87c0.5,4,4,6.8,9.5,6.8c2.9,0,6.8-1.1,8.6-3l5.1,5c-3.4,3.5-8.9,5.2-13.8,5.2
			c-11,0-17.6-6.8-17.6-17.1c0-9.7,6.6-16.8,17-16.8c10.7,0,17.4,6.6,16.2,19.8H180.6z M198,80.4c-0.5-4.2-3.8-6.2-8.3-6.2
			c-4.3,0-7.8,2.1-9,6.2H198z"/>
		<path class="st0" d="M238.7,68.1h7.6v32h-7.5l-0.4-4.7c-1.8,3.8-6.8,5.6-10.4,5.7c-9.5,0.1-16.5-5.8-16.5-17
			c0-11,7.3-16.8,16.7-16.8c4.3,0,8.4,2,10.2,5.2L238.7,68.1z M219.5,84.1c0,6.1,4.2,9.7,9.5,9.7c12.5,0,12.5-19.4,0-19.4
			C223.7,74.4,219.5,78,219.5,84.1z"/>
		<path class="st0" d="M275.6,76.7c-2.3-2.1-4.9-2.9-7.9-2.9c-3.8,0-5.8,1.2-5.8,3.2c0,2.1,1.9,3.2,6,3.5c6,0.4,13.7,1.8,13.7,10.3
			c0,5.6-4.6,10.5-13.8,10.5c-5.1,0-10.1-0.8-14.8-5.7l3.9-5.7c2.3,2.5,7.5,4.4,11,4.5c3,0.1,5.8-1.5,5.8-3.8c0-2.2-1.8-3.1-6.4-3.4
			c-6-0.5-13.2-2.7-13.2-9.9c0-7.4,7.7-10,13.5-10c5,0,8.8,1,12.5,4.2L275.6,76.7z"/>
	</g>
	<linearGradient id="SVGID_1_" gradientUnits="userSpaceOnUse" x1="49.556" y1="-15.8012" x2="56.5292" y2="146.3268">
		<stop  offset="0" style="stop-color:#00B0EB"/>
		<stop  offset="0.1994" style="stop-color:#03A9E4"/>
		<stop  offset="0.4909" style="stop-color:#0A95D1"/>
		<stop  offset="0.8373" style="stop-color:#1676B3"/>
		<stop  offset="1" style="stop-color:#1D64A2"/>
	</linearGradient>
	<path class="st1" d="M104.9,92.4c0,9.4-7.6,16.9-16.9,16.9H17.2c-9.4,0-16.9-7.6-16.9-16.9V17.3c0-9.4,7.6-16.9,16.9-16.9H88
		c9.4,0,16.9,7.6,16.9,16.9V92.4z"/>
	<g>
		<path class="st2" d="M54.8,89.1c-12,0-21.2-4.5-28.9-13.9l9.4-9.4c4.2,5.9,11.5,10.6,19,10.6c6.2,0,11.9-3.5,11.9-10.1
			c0-8.7-11.2-9.4-17.8-9.4V47c6.3,0,16.5-0.9,16.5-9.1c0-6-5-8.8-10.5-8.8c-7.1,0-12.7,3-16.7,8.9l-9.4-9.4
			c7-8.4,14.7-12.2,25.6-12.2c11.6,0,25.1,7.3,25.1,20.2c0,6.6-4.6,12-10.2,14.8c6.3,2.4,11.5,8.1,11.5,15
			C80.3,81.3,68.5,89.1,54.8,89.1z"/>
	</g>
</g>
</svg>
