<?xml version="1.0" encoding="utf-8"?>
<!-- Generator: Adobe Illustrator 23.0.4, SVG Export Plug-In . SVG Version: 6.00 Build 0)  -->
<svg version="1.1" id="Layer_1" xmlns="http://www.w3.org/2000/svg" xmlns:xlink="http://www.w3.org/1999/xlink" x="0px" y="0px"
	 viewBox="0 0 1471.4 301.7" style="enable-background:new 0 0 1471.4 301.7;" xml:space="preserve">
<g>
	<g>
		<path d="M131.3,229.9c-5.5,1.9-12.5,3.7-21.1,5.4c-8.5,1.7-19.4,2.6-32.4,2.6c-10.8,0-20.6-1.8-29.5-5.3
			c-8.8-3.5-16.4-8.6-22.8-15.2c-6.4-6.6-11.3-14.7-14.8-24.2C7.3,183.7,5.5,173,5.5,161c0-11.2,1.5-21.5,4.4-30.9
			c2.9-9.4,7.3-17.5,12.9-24.3c5.7-6.8,12.7-12.1,20.9-15.9c8.3-3.8,17.7-5.7,28.3-5.7c9.7,0,18.1,1.4,25.2,4.1
			c7.1,2.8,12.3,5.4,15.5,7.8V17l18.5-3.4V229.9L131.3,229.9z M112.8,114.1c-1.7-1.3-3.8-2.8-6.4-4.3c-2.6-1.5-5.5-2.9-9-4.3
			c-3.4-1.3-7.1-2.4-11.1-3.3c-4-0.9-8.2-1.3-12.5-1.3c-9.1,0-16.7,1.6-22.9,4.8c-6.2,3.2-11.1,7.5-14.9,12.9
			c-3.8,5.4-6.5,11.8-8.3,19.1c-1.7,7.3-2.6,15-2.6,23.2c0,19.4,4.8,34.2,14.5,44.5c9.7,10.3,22.5,15.5,38.4,15.5
			c9.1,0,16.5-0.4,22.1-1.3c5.6-0.9,9.8-1.8,12.7-2.7V114.1L112.8,114.1z"/>
		<path d="M131.3,229.9c-5.5,1.9-12.5,3.7-21.1,5.4c-8.5,1.7-19.4,2.6-32.4,2.6c-10.8,0-20.6-1.8-29.5-5.3
			c-8.8-3.5-16.4-8.6-22.8-15.2c-6.4-6.6-11.3-14.7-14.8-24.2C7.3,183.7,5.5,173,5.5,161c0-11.2,1.5-21.5,4.4-30.9
			c2.9-9.4,7.3-17.5,12.9-24.3c5.7-6.8,12.7-12.1,20.9-15.9c8.3-3.8,17.7-5.7,28.3-5.7c9.7,0,18.1,1.4,25.2,4.1
			c7.1,2.8,12.3,5.4,15.5,7.8V17l18.5-3.4V229.9L131.3,229.9z M112.8,114.1c-1.7-1.3-3.8-2.8-6.4-4.3c-2.6-1.5-5.5-2.9-9-4.3
			c-3.4-1.3-7.1-2.4-11.1-3.3c-4-0.9-8.2-1.3-12.5-1.3c-9.1,0-16.7,1.6-22.9,4.8c-6.2,3.2-11.1,7.5-14.9,12.9
			c-3.8,5.4-6.5,11.8-8.3,19.1c-1.7,7.3-2.6,15-2.6,23.2c0,19.4,4.8,34.2,14.5,44.5c9.7,10.3,22.5,15.5,38.4,15.5
			c9.1,0,16.5-0.4,22.1-1.3c5.6-0.9,9.8-1.8,12.7-2.7V114.1L112.8,114.1z"/>
		<path d="M177.5,234.4H159V87.3h18.5V234.4L177.5,234.4z M181.8,42.9c0,4.4-1.3,7.8-4,10.4c-2.7,2.6-5.9,3.8-9.7,3.8
			c-3.8,0-7-1.3-9.7-3.8c-2.7-2.6-4-6-4-10.4c0-4.4,1.3-7.8,4-10.4c2.7-2.6,5.9-3.8,9.7-3.8c3.8,0,7,1.3,9.7,3.8
			C180.5,35.1,181.8,38.6,181.8,42.9L181.8,42.9z"/>
		<path d="M177.5,234.4H159V87.3h18.5V234.4L177.5,234.4z M181.8,42.9c0,4.4-1.3,7.8-4,10.4c-2.7,2.6-5.9,3.8-9.7,3.8
			c-3.8,0-7-1.3-9.7-3.8c-2.7-2.6-4-6-4-10.4c0-4.4,1.3-7.8,4-10.4c2.7-2.6,5.9-3.8,9.7-3.8c3.8,0,7,1.3,9.7,3.8
			C180.5,35.1,181.8,38.6,181.8,42.9L181.8,42.9z"/>
		<path d="M301.2,217.4c-1.1,0.9-2.8,2-5.1,3.3c-2.3,1.2-5.1,2.5-8.4,3.8c-3.3,1.3-7.1,2.4-11.4,3.3c-4.3,0.9-9.1,1.3-14.4,1.3
			c-8.5,0-16.8-1.3-24.8-4c-8-2.7-14.9-6.8-20.9-12.5c-6-5.7-10.8-13-14.4-22.1c-3.6-9-5.4-20-5.4-32.9c0-10.4,1.6-20.1,4.8-29
			c3.2-8.9,7.8-16.6,13.8-23.2c6-6.5,13.3-11.7,21.9-15.4c8.6-3.7,18.4-5.5,29.2-5.5c13.7,0,24.6,0.9,32.9,2.7
			c8.3,1.8,15,3.6,20.3,5.3v134.3c0,22-5.7,37.7-17.1,47.1c-11.4,9.4-28.6,14.1-51.5,14.1c-9.5,0-18.1-0.7-25.8-2.1
			c-7.7-1.4-14.3-3.1-19.8-5L209,264c4.6,2.1,10.8,3.9,18.6,5.4c7.9,1.5,15.8,2.3,23.8,2.3c17.5,0,30.1-3.4,38-10.1
			c7.9-6.7,11.8-18.3,11.8-34.6V217.4L301.2,217.4z M300.9,105.2c-3.2-0.9-7.4-1.8-12.5-2.7c-5.1-0.9-12.4-1.3-21.9-1.3
			c-8,0-15,1.4-21.2,4.1c-6.2,2.8-11.4,6.6-15.8,11.7c-4.4,5-7.7,11-10,17.9c-2.3,6.9-3.4,14.6-3.4,22.9c0,9.7,1.3,18,4,24.9
			c2.7,6.9,6.1,12.6,10.4,16.9c4.3,4.4,9.2,7.5,14.7,9.5c5.5,2,11.1,3,16.8,3c8.3,0,16-1.2,22.9-3.7c6.9-2.5,12.3-5.3,16.1-8.5
			V105.2L300.9,105.2z"/>
		<path d="M301.2,217.4c-1.1,0.9-2.8,2-5.1,3.3c-2.3,1.2-5.1,2.5-8.4,3.8c-3.3,1.3-7.1,2.4-11.4,3.3c-4.3,0.9-9.1,1.3-14.4,1.3
			c-8.5,0-16.8-1.3-24.8-4c-8-2.7-14.9-6.8-20.9-12.5c-6-5.7-10.8-13-14.4-22.1c-3.6-9-5.4-20-5.4-32.9c0-10.4,1.6-20.1,4.8-29
			c3.2-8.9,7.8-16.6,13.8-23.2c6-6.5,13.3-11.7,21.9-15.4c8.6-3.7,18.4-5.5,29.2-5.5c13.7,0,24.6,0.9,32.9,2.7
			c8.3,1.8,15,3.6,20.3,5.3v134.3c0,22-5.7,37.7-17.1,47.1c-11.4,9.4-28.6,14.1-51.5,14.1c-9.5,0-18.1-0.7-25.8-2.1
			c-7.7-1.4-14.3-3.1-19.8-5L209,264c4.6,2.1,10.8,3.9,18.6,5.4c7.9,1.5,15.8,2.3,23.8,2.3c17.5,0,30.1-3.4,38-10.1
			c7.9-6.7,11.8-18.3,11.8-34.6V217.4L301.2,217.4z M300.9,105.2c-3.2-0.9-7.4-1.8-12.5-2.7c-5.1-0.9-12.4-1.3-21.9-1.3
			c-8,0-15,1.4-21.2,4.1c-6.2,2.8-11.4,6.6-15.8,11.7c-4.4,5-7.7,11-10,17.9c-2.3,6.9-3.4,14.6-3.4,22.9c0,9.7,1.3,18,4,24.9
			c2.7,6.9,6.1,12.6,10.4,16.9c4.3,4.4,9.2,7.5,14.7,9.5c5.5,2,11.1,3,16.8,3c8.3,0,16-1.2,22.9-3.7c6.9-2.5,12.3-5.3,16.1-8.5
			V105.2L300.9,105.2z"/>
		<path d="M365.7,234.4h-18.5V87.3h18.5V234.4L365.7,234.4z M369.9,42.9c0,4.4-1.3,7.8-4,10.4c-2.7,2.6-5.9,3.8-9.7,3.8
			c-3.8,0-7-1.3-9.7-3.8c-2.7-2.6-4-6-4-10.4c0-4.4,1.3-7.8,4-10.4c2.7-2.6,5.9-3.8,9.7-3.8c3.8,0,7,1.3,9.7,3.8
			S369.9,38.6,369.9,42.9L369.9,42.9z"/>
		<path d="M365.7,234.4h-18.5V87.3h18.5V234.4L365.7,234.4z M369.9,42.9c0,4.4-1.3,7.8-4,10.4c-2.7,2.6-5.9,3.8-9.7,3.8
			c-3.8,0-7-1.3-9.7-3.8c-2.7-2.6-4-6-4-10.4c0-4.4,1.3-7.8,4-10.4c2.7-2.6,5.9-3.8,9.7-3.8c3.8,0,7,1.3,9.7,3.8
			S369.9,38.6,369.9,42.9L369.9,42.9z"/>
		<path d="M410.8,87.3h58.6V103h-58.6v78.3c0,8.3,0.7,15.1,2.1,20.3c1.4,5.2,3.5,9.2,6.1,12.1c2.7,2.8,5.9,4.7,9.7,5.7
			c3.8,0.9,8,1.4,12.5,1.4c7.8,0,14-0.9,18.8-2.7c4.7-1.8,8.4-3.5,11.1-5l4.6,15.4c-2.7,1.7-7.3,3.7-13.9,5.8
			c-6.6,2.2-13.8,3.3-21.6,3.3c-9.1,0-16.7-1.2-22.9-3.6c-6.2-2.4-11.1-6-14.8-10.8c-3.7-4.8-6.3-10.9-7.8-18.1
			c-1.5-7.2-2.3-15.7-2.3-25.6V44.1l18.5-3.4V87.3L410.8,87.3z"/>
		<path d="M410.8,87.3h58.6V103h-58.6v78.3c0,8.3,0.7,15.1,2.1,20.3c1.4,5.2,3.5,9.2,6.1,12.1c2.7,2.8,5.9,4.7,9.7,5.7
			c3.8,0.9,8,1.4,12.5,1.4c7.8,0,14-0.9,18.8-2.7c4.7-1.8,8.4-3.5,11.1-5l4.6,15.4c-2.7,1.7-7.3,3.7-13.9,5.8
			c-6.6,2.2-13.8,3.3-21.6,3.3c-9.1,0-16.7-1.2-22.9-3.6c-6.2-2.4-11.1-6-14.8-10.8c-3.7-4.8-6.3-10.9-7.8-18.1
			c-1.5-7.2-2.3-15.7-2.3-25.6V44.1l18.5-3.4V87.3L410.8,87.3z"/>
		<path d="M528.7,221.1c7.2,0,13.5-0.2,18.9-0.7c5.4-0.5,10-1.1,13.8-1.9v-51.8c-2.1-0.9-5.4-1.9-10-3c-4.6-1-10.8-1.6-18.8-1.6
			c-4.6,0-9.3,0.3-14.2,1c-4.9,0.7-9.5,2.1-13.7,4.3c-4.2,2.2-7.6,5.2-10.2,9c-2.7,3.8-4,8.8-4,15.1c0,5.5,0.9,10.1,2.7,13.9
			c1.8,3.8,4.4,6.8,7.7,9.1c3.3,2.3,7.3,3.9,12,5C517.6,220.5,522.9,221.1,528.7,221.1L528.7,221.1z M527,83.9
			c9.7,0,17.9,1.4,24.6,4.1c6.7,2.8,12.2,6.5,16.4,11.4c4.2,4.8,7.2,10.6,9.1,17.2c1.9,6.6,2.8,13.8,2.8,21.6V231
			c-1.9,0.6-4.6,1.2-8.3,1.9c-3.6,0.7-7.8,1.4-12.5,2.1c-4.7,0.8-10,1.4-15.8,1.8c-5.8,0.5-11.7,0.7-17.8,0.7
			c-7.8,0-14.9-0.9-21.5-2.6c-6.5-1.7-12.2-4.4-17.1-8.1c-4.8-3.7-8.6-8.4-11.4-14.2c-2.8-5.8-4.1-12.9-4.1-21.2
			c0-8,1.5-14.8,4.6-20.5c3-5.7,7.3-10.4,12.8-14.1c5.5-3.7,12-6.4,19.6-8.1c7.6-1.7,15.8-2.6,24.8-2.6c2.7,0,5.5,0.1,8.4,0.4
			c2.9,0.3,5.8,0.7,8.5,1.1c2.7,0.5,5.1,0.9,7.1,1.4c2,0.5,3.4,0.9,4.1,1.3v-9.1c0-5.1-0.4-10.1-1.1-14.9c-0.8-4.8-2.4-9.2-5-13.1
			c-2.6-3.9-6.2-7-10.8-9.4c-4.6-2.4-10.8-3.6-18.4-3.6c-10.8,0-18.9,0.8-24.2,2.3c-5.3,1.5-9.2,2.8-11.7,3.7l-2.6-16.2
			c3.2-1.5,8.2-2.9,14.9-4.3C509.4,84.6,517.5,83.9,527,83.9L527,83.9z"/>
		<path d="M528.7,221.1c7.2,0,13.5-0.2,18.9-0.7c5.4-0.5,10-1.1,13.8-1.9v-51.8c-2.1-0.9-5.4-1.9-10-3c-4.6-1-10.8-1.6-18.8-1.6
			c-4.6,0-9.3,0.3-14.2,1c-4.9,0.7-9.5,2.1-13.7,4.3c-4.2,2.2-7.6,5.2-10.2,9c-2.7,3.8-4,8.8-4,15.1c0,5.5,0.9,10.1,2.7,13.9
			c1.8,3.8,4.4,6.8,7.7,9.1c3.3,2.3,7.3,3.9,12,5C517.6,220.5,522.9,221.1,528.7,221.1L528.7,221.1z M527,83.9
			c9.7,0,17.9,1.4,24.6,4.1c6.7,2.8,12.2,6.5,16.4,11.4c4.2,4.8,7.2,10.6,9.1,17.2c1.9,6.6,2.8,13.8,2.8,21.6V231
			c-1.9,0.6-4.6,1.2-8.3,1.9c-3.6,0.7-7.8,1.4-12.5,2.1c-4.7,0.8-10,1.4-15.8,1.8c-5.8,0.5-11.7,0.7-17.8,0.7
			c-7.8,0-14.9-0.9-21.5-2.6c-6.5-1.7-12.2-4.4-17.1-8.1c-4.8-3.7-8.6-8.4-11.4-14.2c-2.8-5.8-4.1-12.9-4.1-21.2
			c0-8,1.5-14.8,4.6-20.5c3-5.7,7.3-10.4,12.8-14.1c5.5-3.7,12-6.4,19.6-8.1c7.6-1.7,15.8-2.6,24.8-2.6c2.7,0,5.5,0.1,8.4,0.4
			c2.9,0.3,5.8,0.7,8.5,1.1c2.7,0.5,5.1,0.9,7.1,1.4c2,0.5,3.4,0.9,4.1,1.3v-9.1c0-5.1-0.4-10.1-1.1-14.9c-0.8-4.8-2.4-9.2-5-13.1
			c-2.6-3.9-6.2-7-10.8-9.4c-4.6-2.4-10.8-3.6-18.4-3.6c-10.8,0-18.9,0.8-24.2,2.3c-5.3,1.5-9.2,2.8-11.7,3.7l-2.6-16.2
			c3.2-1.5,8.2-2.9,14.9-4.3C509.4,84.6,517.5,83.9,527,83.9L527,83.9z"/>
		<path d="M643.3,237c-6.3-0.2-11.7-1-16.4-2.4c-4.6-1.4-8.5-3.6-11.7-6.5c-3.1-2.9-5.5-6.7-7.1-11.4c-1.6-4.6-2.4-10.5-2.4-17.5V17
			l18.5-3.4v185c0,4.6,0.4,8.2,1.3,11c0.9,2.8,2.1,4.9,3.8,6.5c1.7,1.6,3.9,2.8,6.7,3.6c2.8,0.8,6,1.4,9.8,2L643.3,237L643.3,237z"
			/>
		<path d="M643.3,237c-6.3-0.2-11.7-1-16.4-2.4c-4.6-1.4-8.5-3.6-11.7-6.5c-3.1-2.9-5.5-6.7-7.1-11.4c-1.6-4.6-2.4-10.5-2.4-17.5V17
			l18.5-3.4v185c0,4.6,0.4,8.2,1.3,11c0.9,2.8,2.1,4.9,3.8,6.5c1.7,1.6,3.9,2.8,6.7,3.6c2.8,0.8,6,1.4,9.8,2L643.3,237L643.3,237z"
			/>
		<path d="M773.8,121.2c-3.8-0.9-7.5-1.8-11.2-2.7c-3.7-0.9-9.2-1.3-16.4-1.3c-2.7,0-5.6,0.2-8.8,0.7c-3.2,0.5-5.9,1-8,1.6
			l-27.6,115h-42.4l34.1-141.7c8.2-2.7,17.3-5.2,27.5-7.5c10.1-2.4,21.6-3.6,34.3-3.6c4.7,0,10,0.4,15.8,1.3
			c5.8,0.9,10.9,2.2,15.2,4.1L773.8,121.2L773.8,121.2z"/>
		<path d="M773.8,121.2c-3.8-0.9-7.5-1.8-11.2-2.7c-3.7-0.9-9.2-1.3-16.4-1.3c-2.7,0-5.6,0.2-8.8,0.7c-3.2,0.5-5.9,1-8,1.6
			l-27.6,115h-42.4l34.1-141.7c8.2-2.7,17.3-5.2,27.5-7.5c10.1-2.4,21.6-3.6,34.3-3.6c4.7,0,10,0.4,15.8,1.3
			c5.8,0.9,10.9,2.2,15.2,4.1L773.8,121.2L773.8,121.2z"/>
		<path d="M772.6,175.8c0-12.1,2.1-23.9,6.4-35.3c4.3-11.4,10.3-21.5,18.1-30.3c7.8-8.8,17.2-15.9,28.3-21.3
			c11.1-5.4,23.4-8.1,36.8-8.1c6.6,0,12.8,0.9,18.5,2.8c5.7,1.9,10.7,4.6,14.9,8.3c4.3,3.6,7.6,8,10,13.2c2.4,5.2,3.6,11.1,3.6,17.8
			c0,10.6-2.4,19.6-7.1,27c-4.7,7.4-11.3,13.4-19.8,18.1c-8.4,4.6-18.4,8-30,10.1c-11.6,2.1-24.2,3.1-37.8,3.1
			c1.3,8,4.2,13.6,8.7,16.9c4.5,3.3,11.5,5,21.2,5c6.1,0,12.2-0.5,18.5-1.6c6.3-1,12.1-2.6,17.6-4.7l3.1,33.3
			c-5.3,2.1-12.1,4-20.3,5.7c-8.3,1.7-17.2,2.6-26.9,2.6c-11.8,0-21.7-1.7-29.7-5c-8.1-3.3-14.6-7.8-19.6-13.5
			c-5-5.7-8.7-12.3-11-19.9C773.7,192.4,772.6,184.4,772.6,175.8L772.6,175.8z M855.4,114.4c-9.7,0-18.2,3.5-25.5,10.4
			c-7.3,6.9-12.1,16.1-14.4,27.5c11.8-0.4,21.2-1.4,28.5-3c7.2-1.6,12.8-3.6,16.8-5.8c4-2.3,6.6-4.7,8-7.4c1.3-2.7,2-5.3,2-8
			C870.8,118.9,865.6,114.4,855.4,114.4L855.4,114.4z"/>
		<path d="M1011.8,13.6c8.5,0,16,0.9,22.3,2.7c6.4,1.8,11.1,3.5,14.4,5l-14.2,33.3c-3.4-1.7-7.4-3-11.8-3.8
			c-4.5-0.9-8.6-1.3-12.4-1.3c-10.4,0-18.2,2.7-23.2,8c-5,5.3-8.5,12-10.4,19.9l-1.7,7.4h50.1l-8.5,34.7h-49.8L949.2,192
			c-6.4,27.1-13.5,48.2-21.1,63.3c-7.6,15.1-15.9,26-25,32.9l-37.8-5.4c4.9-4.6,9.5-10.1,13.7-16.8c4.2-6.6,7.9-13.7,11.2-21.1
			c3.3-7.4,6.2-14.9,8.5-22.6c2.4-7.7,4.3-14.8,5.8-21.5l29.6-124.1c4.7-20.1,13.3-35.7,25.6-46.7C972,19.1,989.4,13.6,1011.8,13.6
			L1011.8,13.6z"/>
		<path d="M1011.8,13.6c8.5,0,16,0.9,22.3,2.7c6.4,1.8,11.1,3.5,14.4,5l-14.2,33.3c-3.4-1.7-7.4-3-11.8-3.8
			c-4.5-0.9-8.6-1.3-12.4-1.3c-10.4,0-18.2,2.7-23.2,8c-5,5.3-8.5,12-10.4,19.9l-1.7,7.4h50.1l-8.5,34.7h-49.8L949.2,192
			c-6.4,27.1-13.5,48.2-21.1,63.3c-7.6,15.1-15.9,26-25,32.9l-37.8-5.4c4.9-4.6,9.5-10.1,13.7-16.8c4.2-6.6,7.9-13.7,11.2-21.1
			c3.3-7.4,6.2-14.9,8.5-22.6c2.4-7.7,4.3-14.8,5.8-21.5l29.6-124.1c4.7-20.1,13.3-35.7,25.6-46.7C972,19.1,989.4,13.6,1011.8,13.6
			L1011.8,13.6z"/>
		<path d="M1075.5,237.3c-13.5,0-24-1.8-31.7-5.3c-7.7-3.5-13.2-8.3-16.5-14.4c-3.3-6.1-4.9-13-4.8-20.9c0.1-7.9,1.2-16.3,3.3-25.2
			l36.1-151.1l44.1-6.8l-39.6,163.9c-0.8,3.4-1.2,6.5-1.3,9.4c-0.1,2.8,0.4,5.4,1.6,7.5c1.1,2.2,3.1,3.9,5.8,5.3
			c2.8,1.3,6.6,2.2,11.5,2.6L1075.5,237.3L1075.5,237.3z"/>
		<path d="M1075.5,237.3c-13.5,0-24-1.8-31.7-5.3c-7.7-3.5-13.2-8.3-16.5-14.4c-3.3-6.1-4.9-13-4.8-20.9c0.1-7.9,1.2-16.3,3.3-25.2
			l36.1-151.1l44.1-6.8l-39.6,163.9c-0.8,3.4-1.2,6.5-1.3,9.4c-0.1,2.8,0.4,5.4,1.6,7.5c1.1,2.2,3.1,3.9,5.8,5.3
			c2.8,1.3,6.6,2.2,11.5,2.6L1075.5,237.3L1075.5,237.3z"/>
		<path d="M1153.5,238.4c-10.1,0-18.8-1.5-26.2-4.6c-7.4-3-13.5-7.3-18.4-12.8c-4.8-5.5-8.5-12-11-19.5c-2.5-7.5-3.7-15.8-3.7-24.9
			c0-11.4,1.8-22.8,5.5-34.1c3.7-11.4,9.2-21.6,16.4-30.7c7.2-9.1,16-16.6,26.5-22.3c10.4-5.8,22.4-8.7,35.9-8.7
			c9.9,0,18.5,1.5,26,4.6c7.5,3,13.7,7.3,18.5,12.8c4.8,5.5,8.5,12,11,19.5c2.5,7.5,3.7,15.8,3.7,24.9c0,11.4-1.8,22.8-5.4,34.1
			c-3.6,11.4-8.9,21.6-15.9,30.7c-7,9.1-15.8,16.6-26.3,22.3C1179.5,235.5,1167.3,238.4,1153.5,238.4L1153.5,238.4z M1174.5,116.6
			c-6.3,0-11.8,1.8-16.5,5.4c-4.7,3.6-8.7,8.2-12,13.7c-3.2,5.5-5.6,11.5-7.3,18.1c-1.6,6.5-2.4,12.8-2.4,18.6
			c0,9.7,1.5,17.1,4.6,22.3c3,5.2,8.5,7.8,16.5,7.8c6.3,0,11.8-1.8,16.5-5.4c4.7-3.6,8.7-8.2,12-13.7c3.2-5.5,5.6-11.5,7.3-18.1
			c1.6-6.5,2.4-12.8,2.4-18.6c0-9.7-1.5-17.1-4.6-22.3C1188,119.2,1182.5,116.6,1174.5,116.6L1174.5,116.6z"/>
		<path d="M1153.5,238.4c-10.1,0-18.8-1.5-26.2-4.6c-7.4-3-13.5-7.3-18.4-12.8c-4.8-5.5-8.5-12-11-19.5c-2.5-7.5-3.7-15.8-3.7-24.9
			c0-11.4,1.8-22.8,5.5-34.1c3.7-11.4,9.2-21.6,16.4-30.7c7.2-9.1,16-16.6,26.5-22.3c10.4-5.8,22.4-8.7,35.9-8.7
			c9.9,0,18.5,1.5,26,4.6c7.5,3,13.7,7.3,18.5,12.8c4.8,5.5,8.5,12,11,19.5c2.5,7.5,3.7,15.8,3.7,24.9c0,11.4-1.8,22.8-5.4,34.1
			c-3.6,11.4-8.9,21.6-15.9,30.7c-7,9.1-15.8,16.6-26.3,22.3C1179.5,235.5,1167.3,238.4,1153.5,238.4L1153.5,238.4z M1174.5,116.6
			c-6.3,0-11.8,1.8-16.5,5.4c-4.7,3.6-8.7,8.2-12,13.7c-3.2,5.5-5.6,11.5-7.3,18.1c-1.6,6.5-2.4,12.8-2.4,18.6
			c0,9.7,1.5,17.1,4.6,22.3c3,5.2,8.5,7.8,16.5,7.8c6.3,0,11.8-1.8,16.5-5.4c4.7-3.6,8.7-8.2,12-13.7c3.2-5.5,5.6-11.5,7.3-18.1
			c1.6-6.5,2.4-12.8,2.4-18.6c0-9.7-1.5-17.1-4.6-22.3C1188,119.2,1182.5,116.6,1174.5,116.6L1174.5,116.6z"/>
		<path d="M1346.9,146.8c-3.6,7.8-7.6,15.7-12.1,23.8c-4.5,8.1-9,15.9-13.7,23.6c-4.6,7.7-9.2,15-13.5,21.9
			c-4.4,6.9-8.3,13-11.7,18.4h-33c-1.5-8-3.1-17.5-4.7-28.5c-1.6-11-3.2-23-4.7-36c-1.5-13-2.9-26.7-4.1-41.3
			c-1.2-14.5-2.1-29.2-2.7-44h41.5c0,6.8,0,14.2,0.1,22.2c0.1,8,0.3,16.2,0.6,24.8c0.3,8.5,0.7,17.3,1.3,26.2
			c0.6,8.9,1.3,17.7,2.3,26.5c4.7-8,9.4-16.3,14.1-24.9c4.6-8.6,9.1-17.3,13.4-25.9c4.3-8.6,8.3-17.1,12-25.5
			c3.7-8.3,7-16.1,9.8-23.3h35.3c0,13.7,0.2,28.9,0.7,45.8c0.5,16.9,1.7,34.8,3.6,53.8c5.1-8.5,9.9-17.3,14.2-26.3
			c4.4-9,8.4-17.9,12.1-26.6c3.7-8.7,7-17.1,10-25c2.9-8,5.5-15.2,7.8-21.6h45c-3.8,9.5-8.3,20.2-13.5,32
			c-5.2,11.9-11.2,24.3-18.1,37.4c-6.8,13.1-14.5,26.5-23.1,40.1c-8.5,13.7-18,27-28.5,40.1h-33c-2.3-15.6-4-30.4-5.1-44.7
			C1348,175.5,1347.2,161.2,1346.9,146.8L1346.9,146.8z"/>
		<path d="M1346.9,146.8c-3.6,7.8-7.6,15.7-12.1,23.8c-4.5,8.1-9,15.9-13.7,23.6c-4.6,7.7-9.2,15-13.5,21.9
			c-4.4,6.9-8.3,13-11.7,18.4h-33c-1.5-8-3.1-17.5-4.7-28.5c-1.6-11-3.2-23-4.7-36c-1.5-13-2.9-26.7-4.1-41.3
			c-1.2-14.5-2.1-29.2-2.7-44h41.5c0,6.8,0,14.2,0.1,22.2c0.1,8,0.3,16.2,0.6,24.8c0.3,8.5,0.7,17.3,1.3,26.2
			c0.6,8.9,1.3,17.7,2.3,26.5c4.7-8,9.4-16.3,14.1-24.9c4.6-8.6,9.1-17.3,13.4-25.9c4.3-8.6,8.3-17.1,12-25.5
			c3.7-8.3,7-16.1,9.8-23.3h35.3c0,13.7,0.2,28.9,0.7,45.8c0.5,16.9,1.7,34.8,3.6,53.8c5.1-8.5,9.9-17.3,14.2-26.3
			c4.4-9,8.4-17.9,12.1-26.6c3.7-8.7,7-17.1,10-25c2.9-8,5.5-15.2,7.8-21.6h45c-3.8,9.5-8.3,20.2-13.5,32
			c-5.2,11.9-11.2,24.3-18.1,37.4c-6.8,13.1-14.5,26.5-23.1,40.1c-8.5,13.7-18,27-28.5,40.1h-33c-2.3-15.6-4-30.4-5.1-44.7
			C1348,175.5,1347.2,161.2,1346.9,146.8L1346.9,146.8z"/>
	</g>
</g>
</svg>
