<svg xmlns="http://www.w3.org/2000/svg" width="150" viewBox="0 0 260.56 71.94"><defs><style>.cls-1{fill:#404041;}.cls-2{fill:#009dff;}</style></defs><title>Asset 1</title><g id="Layer_2" data-name="Layer 2"><g id="Layer_1-2" data-name="Layer 1"><path class="cls-1" d="M123.48,46.71a19.94,19.94,0,0,1-2.15,9.78,16.1,16.1,0,0,1-5.92,6.09,25.76,25.76,0,0,1-9,3.14,66.28,66.28,0,0,1-11.3.9q-4.83,0-8.69-.36t-8.34-.9V1.26q3.4-.54,7.44-.9T95,0a50.38,50.38,0,0,1,9.54.85,23.38,23.38,0,0,1,7.76,2.87,15,15,0,0,1,5.25,5.38,16.9,16.9,0,0,1,1.92,8.47,15.7,15.7,0,0,1-1.88,7.67,14.58,14.58,0,0,1-4.75,5.34,20.64,20.64,0,0,1,4,2.1,14.88,14.88,0,0,1,3.41,3.23,15.82,15.82,0,0,1,2.37,4.62A19.43,19.43,0,0,1,123.48,46.71Zm-29.86-21h2.51a10,10,0,0,0,6-1.57q2.14-1.56,2.15-5.42a5.94,5.94,0,0,0-.76-3.14,5.87,5.87,0,0,0-1.93-2,7.55,7.55,0,0,0-2.6-1,15,15,0,0,0-2.78-.27h-1.3a8,8,0,0,0-1.3.09Zm0,12.73V53.53c.42.06.94.1,1.57.13s1.45.05,2.47.05a17.14,17.14,0,0,0,3.45-.36,10.24,10.24,0,0,0,3.18-1.21,6.4,6.4,0,0,0,2.29-2.33,7.47,7.47,0,0,0,.85-3.72q0-4.31-2.83-6a14.24,14.24,0,0,0-7.3-1.67Z"/><path class="cls-1" d="M128.45,42.59a32,32,0,0,1,1.48-10,21.29,21.29,0,0,1,4.39-7.75,19.34,19.34,0,0,1,7.22-5,29.42,29.42,0,0,1,20,0,19.34,19.34,0,0,1,7.22,5,21.31,21.31,0,0,1,4.4,7.75,32.24,32.24,0,0,1,1.48,10,31.09,31.09,0,0,1-1.48,9.82,21,21,0,0,1-4.4,7.62,19.26,19.26,0,0,1-7.22,4.89,30.23,30.23,0,0,1-20,0A19.26,19.26,0,0,1,134.32,60a21,21,0,0,1-4.39-7.62A30.8,30.8,0,0,1,128.45,42.59Zm30.84,0q0-5.75-1.92-8.79a6.5,6.5,0,0,0-5.88-3,6.38,6.38,0,0,0-5.83,3q-1.87,3-1.88,8.79c0,3.77.63,6.66,1.88,8.7a6.38,6.38,0,0,0,5.83,3.05,6.5,6.5,0,0,0,5.88-3.05C158.65,49.25,159.29,46.36,159.29,42.59Z"/><path class="cls-1" d="M194.75,52.9H211.7a22.78,22.78,0,0,1,.58,3.32c.09,1,.13,2,.13,3s0,2-.13,3a22.37,22.37,0,0,1-.58,3.36H179.6l.09-46.35a29.84,29.84,0,0,1,3.9-.63q1.92-.18,3.72-.18c1.13,0,2.36.06,3.67.18a27,27,0,0,1,3.86.63Z"/><path class="cls-2" d="M71,54c-.72,2.34-2.52,7.13-5.5,7.13-2.53,0-3.7-2.26-3.7-6.86,0-10.11,4.78-23.73,5.5-32.94.27-2.89-3.88-4.51-6.32-4.51-.81,0-1.62,0-2,.81C54,27.36,51,38.91,47.56,48.93H47.2c.18-7.13,1.62-17.15,2.16-23.56.27-2.89-3.34-4.06-5.77-4.06-.81,0-1.63,0-2,.81-2.8,6.68-6,16-9.38,26h-.36c0-5.86,2.79-17.41,4.6-26.35.27-1.35-2.62-3.16-5.42-3.16-1.6,0-4.5,13-5.73,26.16h0v0c-.05.6-.11,1.21-.16,1.81-1,6.58-6.92,18.13-13.23,18.13-4.6,0-6.22-3.16-6.22-7.4A41.22,41.22,0,0,1,7.31,45.23S8.66,49,12.54,49c7.13,0,10.29-10.47,10.29-22,0-8.31-4-11-7.4-11C7.49,16,0,39.18,0,54.25,0,65.53,6.5,71.94,13.45,71.94c5.62,0,9.63-4.19,12.06-9.25.92,3.22,2.66,5,5.26,5a4.34,4.34,0,0,0,3.07-1.36c-.09-8.48,4.24-21.93,7-29.87h.81c-.63,7.13-1,15.62-.9,23.1.09,6.86.81,10.74,4.87,10.74A4.35,4.35,0,0,0,48.73,69c-.09-8.48,4.15-25.36,7.85-33.39h1.09c-.91,4.6-2.71,14-2.71,17.87,0,7.31,1.71,13.8,7.85,13.8,6.32,0,10.2-6.94,10.2-10.82A2.28,2.28,0,0,0,71,54ZM14.08,22.48c.54-1.26,1-1.62,1.35-1.62s1.08.45,1.08,4.24c0,8.3-2.7,18.5-5.86,18.5-1.81,0-2.26-2.25-2.26-2.25A80.34,80.34,0,0,1,14.08,22.48Z"/><path class="cls-1" d="M233.3,18.11a39.67,39.67,0,0,1,12.42,1.71,22.64,22.64,0,0,1,8.48,4.79A18.29,18.29,0,0,1,259,32.1a29.85,29.85,0,0,1,1.52,9.77A31.23,31.23,0,0,1,259,52.09a19.26,19.26,0,0,1-4.93,7.8,22.22,22.22,0,0,1-8.7,5,41.38,41.38,0,0,1-12.86,1.75c-2.93,0-5.55-.11-7.85-.31s-4.71-.5-7.22-.86V19.37c2.51-.3,5.17-.59,8-.85S230.85,18.11,233.3,18.11Zm-.71,35.69a6.45,6.45,0,0,1,.94.09,12.47,12.47,0,0,0,1.75.09c3.34,0,5.84-.95,7.48-2.83s2.47-5,2.47-9.28c0-3.82-.81-6.62-2.42-8.38a8.92,8.92,0,0,0-6.91-2.65c-.71,0-1.37,0-2,.09s-1,.12-1.34.18Z"/></g></g></svg>