<svg xmlns="http://www.w3.org/2000/svg" width="150px" height="42px" viewBox="0 0 150 42"><g id="a933812c-c9cd-4483-acab-58e08518b4d7" data-name="Layer 2"><g id="bf6da5c6-c59b-4db1-86bb-a38a0323d922" data-name="Layer 1-2"><path d="M71.09,27.18a11.57,11.57,0,0,1-1.24,5.63,9.2,9.2,0,0,1-3.41,3.51,15,15,0,0,1-5.18,1.81,37.36,37.36,0,0,1-6.51.51c-1.85,0-3.52-.06-5-.2s-3.08-.31-4.8-.52V1C46.25.81,47.68.64,49.23.5S52.6.29,54.69.29a29.73,29.73,0,0,1,5.49.49,13.47,13.47,0,0,1,4.47,1.65,8.71,8.71,0,0,1,3,3.1,9.73,9.73,0,0,1,1.11,4.88,8.93,8.93,0,0,1-1.09,4.41A8.35,8.35,0,0,1,65,17.9a11.23,11.23,0,0,1,2.3,1.21,8.7,8.7,0,0,1,2,1.86,9,9,0,0,1,1.36,2.66A11.25,11.25,0,0,1,71.09,27.18ZM53.9,15.09h1.44a5.67,5.67,0,0,0,3.45-.9A3.59,3.59,0,0,0,60,11.07a3.38,3.38,0,0,0-.44-1.81,3.3,3.3,0,0,0-1.11-1.15A4.23,4.23,0,0,0,57,7.54a7.89,7.89,0,0,0-1.6-.16h-.75a4.73,4.73,0,0,0-.75,0Zm0,7.33v8.69c.24,0,.54.06.9.07s.83,0,1.42,0a10.25,10.25,0,0,0,2-.2,6.08,6.08,0,0,0,1.83-.7A3.77,3.77,0,0,0,61.36,29a4.43,4.43,0,0,0,.49-2.14,3.7,3.7,0,0,0-1.63-3.46,8.2,8.2,0,0,0-4.21-1Z" fill="#404041"/><path d="M74,24.81a18.2,18.2,0,0,1,.85-5.76,12.38,12.38,0,0,1,2.53-4.46,11.13,11.13,0,0,1,4.15-2.88,17,17,0,0,1,11.52,0,11.21,11.21,0,0,1,4.15,2.88,12.47,12.47,0,0,1,2.54,4.46,18.78,18.78,0,0,1,.85,5.76,18,18,0,0,1-.85,5.65,12.09,12.09,0,0,1-2.54,4.39A11,11,0,0,1,93,37.67a17.5,17.5,0,0,1-11.52,0,11.19,11.19,0,0,1-4.15-2.84,11.89,11.89,0,0,1-2.53-4.38A17.43,17.43,0,0,1,74,24.81Zm17.75,0a9.6,9.6,0,0,0-1.1-5.06A3.76,3.76,0,0,0,87.21,18a3.7,3.7,0,0,0-3.36,1.73,9.84,9.84,0,0,0-1.08,5.06,9.61,9.61,0,0,0,1.08,5,3.69,3.69,0,0,0,3.36,1.76,3.78,3.78,0,0,0,3.39-1.76A9.5,9.5,0,0,0,91.7,24.81Z" fill="#404041"/><path d="M112.11,30.75h9.76a13.38,13.38,0,0,1,.34,1.91c.05.57.07,1.15.07,1.72a13.92,13.92,0,0,1-.41,3.67H103.39l0-26.69a17,17,0,0,1,2.25-.36c.74-.07,1.45-.1,2.14-.1s1.36,0,2.11.1a16.71,16.71,0,0,1,2.23.36Z" fill="#404041"/><path d="M40.87,31.38c-.41,1.35-1.45,4.1-3.16,4.1-1.46,0-2.13-1.3-2.13-3.94,0-5.82,2.75-13.67,3.16-19C38.9,10.91,36.51,10,35.11,10c-.47,0-.94,0-1.16.46-2.86,5.6-4.59,12.25-6.57,18h-.21c.11-4.1.93-9.87,1.25-13.56.15-1.67-1.93-2.34-3.33-2.34-.46,0-.93,0-1.15.47-1.61,3.84-3.45,9.21-5.4,15h-.2c0-3.37,1.6-10,2.64-15.16.16-.78-1.5-1.82-3.12-1.82-.92,0-2.59,7.48-3.3,15.06h0c0,.34-.06.69-.09,1-.57,3.79-4,10.44-7.61,10.44-2.65,0-3.58-1.82-3.58-4.26a23.38,23.38,0,0,1,.93-7,3.36,3.36,0,0,0,3,2.17c4.1,0,5.92-6,5.92-12.66,0-4.79-2.3-6.34-4.26-6.34C4.31,9.5,0,22.85,0,31.52,0,38,3.74,41.71,7.74,41.71c3.24,0,5.55-2.41,7-5.33.53,1.86,1.53,2.88,3,2.88a2.48,2.48,0,0,0,1.77-.78c-.05-4.88,2.44-12.63,4-17.2H24c-.37,4.11-.58,9-.52,13.3.05,4,.47,6.18,2.8,6.18A2.49,2.49,0,0,0,28.05,40c-.05-4.89,2.39-14.6,4.52-19.23h.63a80,80,0,0,0-1.56,10.29c0,4.21,1,7.94,4.52,7.94S42,35,42,32.8A1.31,1.31,0,0,0,40.87,31.38ZM8.11,13.23c.31-.72.57-.93.77-.93s.62.26.62,2.44C9.5,19.52,8,25.39,6.13,25.39c-1,0-1.3-1.29-1.3-1.29A46,46,0,0,1,8.11,13.23Z" fill="#009dff"/><path d="M134.31,10.72a23.09,23.09,0,0,1,7.15,1,13.23,13.23,0,0,1,4.88,2.76,10.54,10.54,0,0,1,2.76,4.31A17.4,17.4,0,0,1,150,24.4a18.08,18.08,0,0,1-.88,5.88,11.07,11.07,0,0,1-2.84,4.49,12.8,12.8,0,0,1-5,2.88,24.11,24.11,0,0,1-7.41,1c-1.68,0-3.19-.07-4.52-.18s-2.71-.29-4.15-.5V11.44c1.44-.17,3-.34,4.6-.49S132.9,10.72,134.31,10.72Zm-.41,20.54a5,5,0,0,1,.54.06,8.44,8.44,0,0,0,1,.05,5.41,5.41,0,0,0,4.3-1.63c.95-1.08,1.42-2.88,1.42-5.34q0-3.3-1.39-4.83a5.13,5.13,0,0,0-4-1.52,8.47,8.47,0,0,0-1.15.05l-.77.1Z" fill="#404041"/></g></g></svg>