<svg width="1091" height="278" viewBox="0 0 1091 278" fill="none" xmlns="http://www.w3.org/2000/svg">
<rect width="1091" height="278" fill="white"/>
<path d="M468.96 144H485.132V119.567H508.521V108.09H485.132V94.787H509.565V83.3098H468.96V144ZM526.404 144H567.617V132.001H542.576V83.3098H526.404V144ZM578.457 144H594.89L599.672 131.045H622.453L626.974 144H644.712L621.322 83.3098H601.498L578.457 144ZM618.627 119.567H603.411L611.236 95.8304H611.41L618.627 119.567ZM664.272 144H680.444V95.3087H695.399V83.3098H649.317V95.3087H664.272V144ZM711.63 144H727.802V83.3098H711.63V144ZM748.147 144H764.319V120.002H767.71C773.71 120.002 775.796 122.611 779.1 133.044L782.578 144H799.446L793.534 127.48C790.491 120.089 790.143 115.481 784.926 114.09V113.916C792.751 112.09 796.577 106.699 796.577 98.6128C796.577 88.1789 787.795 83.3098 777.014 83.3098H748.147V144ZM764.319 94.787H768.58C774.753 94.787 780.405 95.8304 780.405 101.482C780.405 108.351 773.797 108.525 768.58 108.525H764.319V94.787ZM813.01 113.655C813.01 132.958 823.618 145.043 843.442 145.043C863.266 145.043 873.874 132.958 873.874 113.655C873.874 94.1784 863.44 82.2664 843.442 82.2664C823.444 82.2664 813.01 94.1784 813.01 113.655ZM829.704 113.655C829.704 103.134 833.617 94.2653 843.442 94.2653C853.267 94.2653 857.18 103.134 857.18 113.655C857.18 123.654 853.267 133.044 843.442 133.044C833.617 133.044 829.704 123.654 829.704 113.655ZM891.9 144H906.768L906.247 102.525H906.421L927.636 144H947.721V83.3098H932.94L933.201 124.523H933.027L912.507 83.3098H891.9V144ZM966.791 142.435C972.182 144.174 979.225 145.043 984.876 145.043C998.353 145.043 1011.57 140.783 1011.57 125.045C1011.57 103.134 982.876 109.742 982.876 99.917C982.876 94.6131 989.658 94.2653 993.745 94.2653C998.353 94.2653 1003.05 95.1348 1007.22 97.0477L1008.27 84.5271C1004.18 83.1359 998.44 82.2664 992.615 82.2664C980.442 82.2664 966.182 86.266 966.182 100.873C966.182 122.958 994.875 115.829 994.875 127.132C994.875 132.001 990.006 133.044 984.876 133.044C978.181 133.044 972.356 131.305 968.182 129.045L966.791 142.435Z" fill="#244A9A"/>
<path d="M468.692 209.571H484.796C499.886 209.571 510.982 203.802 510.982 187.253C510.982 170.134 500.203 165.316 484.796 165.316H468.692V209.571ZM480.485 174.065H485.05C493.673 174.065 498.808 178.63 498.808 187.443C498.808 196.257 493.863 200.822 485.05 200.822H480.485V174.065ZM524.063 209.571H555.955V201.202H535.856V191.184H554.18V182.815H535.856V173.685H555.258V165.316H524.063V209.571ZM580.83 209.571H595.413L610.503 165.316H598.393L588.502 200.061H588.375L578.548 165.316H565.994L580.83 209.571ZM621.261 209.571H653.153V201.202H633.054V191.184H651.378V182.815H633.054V173.685H652.456V165.316H621.261V209.571ZM666.679 209.571H696.732V200.822H678.472V165.316H666.679V209.571ZM706.602 187.443C706.602 201.519 714.337 210.332 728.793 210.332C743.249 210.332 750.985 201.519 750.985 187.443C750.985 173.241 743.376 164.555 728.793 164.555C714.21 164.555 706.602 173.241 706.602 187.443ZM718.776 187.443C718.776 179.772 721.629 173.304 728.793 173.304C735.958 173.304 738.811 179.772 738.811 187.443C738.811 194.735 735.958 201.582 728.793 201.582C721.629 201.582 718.776 194.735 718.776 187.443ZM763.305 209.571H775.098V194.101H779.663C790.695 194.101 797.226 188.775 797.226 179.835C797.226 169.881 790.886 165.316 777.381 165.316H763.305V209.571ZM775.098 173.685H778.142C782.199 173.685 785.433 175.143 785.433 179.645C785.433 184.273 782.199 185.732 778.142 185.732H775.098V173.685ZM808.723 209.571H820.262L820.009 175.587H820.136L830.914 209.571H841.756L853.042 175.587H853.169L852.979 209.571H864.518V165.316H846.638L836.811 194.735H836.684L827.3 165.316H808.723V209.571ZM878.467 209.571H910.359V201.202H890.26V191.184H908.583V182.815H890.26V173.685H909.661V165.316H878.467V209.571ZM924.075 209.571H934.917L934.536 179.328H934.663L950.134 209.571H964.78V165.316H954.001L954.191 195.369H954.065L939.101 165.316H924.075V209.571ZM987.182 209.571H998.975V174.065H1009.88V165.316H976.276V174.065H987.182V209.571Z" fill="#6F8CC6"/>
<path d="M306.23 62.7731C306.504 62.2949 307.013 62 307.565 62H353.933C355.116 62 355.857 63.2792 355.268 64.3053L271.834 209.69C271.559 210.169 271.05 210.463 270.499 210.463H225.016C223.439 210.463 222.451 208.758 223.236 207.39L306.23 62.7731Z" fill="#244A9A"/>
<path d="M355.674 62.7732C355.4 62.2949 354.891 62 354.339 62H307.953C306.77 62 306.029 63.2791 306.618 64.3052L390.034 209.69C390.309 210.168 390.818 210.463 391.369 210.463H437.756C438.939 210.463 439.68 209.184 439.091 208.158L355.674 62.7732Z" fill="#223E7F"/>
<path d="M312.083 139.367L306.13 63.46L331.152 107.068L312.083 139.367Z" fill="#0D2454"/>
<path d="M161.447 103.635C161.722 103.161 162.229 102.87 162.777 102.87H209.204C210.391 102.87 211.132 104.157 210.535 105.183L149.716 209.699C149.44 210.173 148.934 210.464 148.386 210.464H102.851C101.268 210.464 100.281 208.748 101.077 207.379L161.447 103.635Z" fill="#4466B0"/>
<path d="M169.393 174.983L161.419 103.704L186.441 147.311L169.393 174.983Z" fill="#2A4889"/>
<path d="M211.019 103.642C210.744 103.164 210.235 102.87 209.684 102.87H163.245C162.062 102.87 161.321 104.149 161.91 105.175L221.918 209.691C222.193 210.169 222.702 210.464 223.253 210.464H269.692C270.875 210.464 271.616 209.184 271.027 208.158L211.019 103.642Z" fill="#385BA9"/>
<path d="M110.53 145.541C110.155 144.94 109.497 144.574 108.788 144.574H65.666C64.4811 144.574 63.7406 145.857 64.333 146.883L100.599 209.696C100.874 210.172 101.382 210.465 101.932 210.465H148.221C149.429 210.465 150.166 209.137 149.527 208.112L110.53 145.541Z" fill="#6F8CC7"/>
</svg>
