<svg width="109" height="140" viewBox="0 0 109 140" xmlns="http://www.w3.org/2000/svg"><g fill-rule="nonzero" fill="none"><path fill="#21A002" d="M85.579 31.138L72.48 44.236l7.708 7.705 5.39-5.389 7.866 7.864-5.39 5.389-2.476 2.473-7.71 7.708-2.473 2.475-2.915 2.913 7.71 7.708 2.915-2.914 2.473-2.475 7.71-7.707 2.476-2.474 13.098-13.096z"/><path fill="#106601" d="M93.445 85.554L85.58 93.42l-5.39-5.39-2.474-2.475-7.71-7.707-7.708 7.707 7.708 7.708 2.476 2.473 13.098 13.097 23.284-23.278-13.098-13.093-7.71 7.705 5.39 5.388z"/><path fill="#0F7F00" d="M59.822 51.94l2.475 2.476 7.708 7.707 2.476 2.473 2.915 2.914 7.71-7.705-2.915-2.914-2.476-2.475-7.71-7.708-2.473-2.472-2.915-2.914-7.71 7.705 2.915 2.914z"/><path fill="#2AC100" d="M56.907 90.944l-2.476 2.475-7.71 7.705-2.473 2.475-13.1 13.095L54.43 139.97l23.284-23.276-13.1-13.095-7.708 7.705 5.39 5.39-7.866 7.863-7.866-7.863 5.39-5.39 2.476-2.472 7.71-7.708 2.476-2.473 2.915-2.913-7.71-7.708-2.915 2.914z"/><path fill="#38E200" d="M46.722 69.986l7.71-7.708 7.71 7.708-7.71 7.707z"/><path fill="#0E6000" d="M54.431 0L31.147 23.277l13.1 13.094 7.708-7.705-5.39-5.39 7.866-7.863 7.866 7.864-5.39 5.39-2.476 2.471-7.71 7.708-2.473 2.476-2.915 2.914 7.708 7.705 2.914-2.914 2.476-2.475 7.71-7.706 2.474-2.475 13.1-13.094L54.43 0"/><path fill="#38E200" d="M49.04 88.03l-2.475-2.476-7.708-7.707-2.476-2.473-2.914-2.913-7.708 7.707 2.915 2.914 2.473 2.472 7.71 7.708 2.476 2.476 2.915 2.913 7.707-7.707z"/><path fill="#6AE83A" d="M15.417 54.416l7.866-7.864 5.391 5.389 2.473 2.475 7.71 7.707 7.708-7.707-7.708-7.708-2.476-2.472-13.098-13.098L0 54.416l13.1 13.096 7.708-7.707z"/><path fill="#168200" d="M23.283 93.419l-7.866-7.865 5.391-5.388 2.475-2.473 7.71-7.707 2.474-2.476 2.914-2.914-7.707-7.705-2.915 2.914-2.476 2.473-7.709 7.708L13.1 72.46 0 85.554l23.283 23.278 13.098-13.097-7.707-7.705z"/></g></svg>