<svg id="a7fcf51b-9e91-4841-9d7c-fc62c584cc0e" data-name="Layer 1" xmlns="http://www.w3.org/2000/svg" width="220" viewBox="0 0 150 26.42"><polygon points="112.31 13.76 110.99 13.76 110.99 25.81 117.83 25.81 117.83 24.47 112.31 24.47 112.31 13.76" fill="#1e1919"/><path d="M149,20a5.7,5.7,0,0,0-1-.72,14,14,0,0,0-1.35-.68,9.24,9.24,0,0,1-1.54-.82,1.55,1.55,0,0,1,0-2.42,2.06,2.06,0,0,1,1.38-.45,2.47,2.47,0,0,1,1.31.31,2,2,0,0,1,.66.68l.15.25,1.24-.54-.18-.33a3.74,3.74,0,0,0-5.48-.86,2.72,2.72,0,0,0-1,2.17,2.73,2.73,0,0,0,1,2.17,8,8,0,0,0,2,1.13c.47.21.87.4,1.17.56a3.47,3.47,0,0,1,.64.43,2.09,2.09,0,0,1,.75,1.65,2,2,0,0,1-.62,1.59,2.6,2.6,0,0,1-1.74.53,2.27,2.27,0,0,1-2.44-1.82l-.09-.34-1.32.44.1.31a3.57,3.57,0,0,0,3.75,2.74,4.91,4.91,0,0,0,1.61-.24A3.1,3.1,0,0,0,150,22.48,3.42,3.42,0,0,0,149,20Z" fill="#1e1919"/><path d="M125.55,13.77h-.87l-4.69,12h1.37l1.14-2.91h5.24l1.12,2.91h1.39l-4.67-12Zm-.44,2.41,2.1,5.38H123Z" fill="#1e1919"/><path d="M139,19.82a3.51,3.51,0,0,0-1.45-1,2.59,2.59,0,0,0,.82-2,3,3,0,0,0-.94-2.29,3.47,3.47,0,0,0-2.34-.76H132v12h3.91a4.07,4.07,0,0,0,2.78-1,3.49,3.49,0,0,0,1.15-2.69A3.42,3.42,0,0,0,139,19.82Zm-5.73-4.74h1.87a2,2,0,0,1,1.38.5h0a1.62,1.62,0,0,1,.05,2.38l-.05,0a1.82,1.82,0,0,1-1.31.48h-2Zm4.47,8.76a2.7,2.7,0,0,1-1.85.65H133.3V19.81h2.62a2.75,2.75,0,0,1,1.84.62,2.08,2.08,0,0,1,.76,1.68A2.18,2.18,0,0,1,137.77,23.84Z" fill="#1e1919"/><polygon points="41.96 19.73 36.77 13.82 35.97 13.82 35.97 25.81 38.37 25.81 38.37 18.86 41.96 22.85 45.56 18.86 45.56 25.81 47.96 25.81 47.96 13.82 47.16 13.82 41.96 19.73" fill="#1e1919"/><path d="M55.75,13.82,51,25.81h2.55L54.23,24h5.43l.72,1.84h2.55l-4.78-12Zm-.56,7.75L57,17l1.77,4.55Z" fill="#1e1919"/><polygon points="86.98 19.73 81.78 13.82 80.98 13.82 80.98 25.81 83.38 25.81 83.38 18.86 86.98 22.85 90.57 18.86 90.58 25.81 92.98 25.81 92.98 13.82 92.18 13.82 86.98 19.73" fill="#1e1919"/><path d="M103.19,13.82h-2.4L96,25.81h2.55L99.27,24h5.44l.71,1.84H108Zm-3,7.75L102.05,17l1.78,4.55Z" fill="#1e1919"/><path d="M71.77,19.07v2.45h3.37a4.15,4.15,0,1,1-.42-4.17l2-1.44a6.42,6.42,0,0,0-5.32-2.74c-4.79,0-6.63,4.44-6.63,6.62a6.62,6.62,0,0,0,11.44,4.55,6.57,6.57,0,0,0,1.77-5.27Z" fill="#1e1919"/><polygon points="12.48 12.94 9.98 8.62 -0.01 25.87 4.99 25.87 12.48 12.94" fill="#ff5c5c"/><polygon points="24.98 17.25 22.48 21.56 24.98 25.88 29.98 25.88 24.98 17.25" fill="#cb3737"/><polygon points="19.98 8.62 12.48 21.56 14.98 25.87 22.48 12.94 19.98 8.62" fill="#f84848"/><polygon points="14.98 8.62 17.48 4.31 14.98 0 12.48 4.31 14.98 8.62" fill="#cb3737"/></svg>