<?xml version="1.0" encoding="UTF-8"?>
<svg width="496px" height="80px" viewBox="0 0 496 80" version="1.1" xmlns="http://www.w3.org/2000/svg" xmlns:xlink="http://www.w3.org/1999/xlink">
    <!-- Generator: Sketch 52.5 (67469) - http://www.bohemiancoding.com/sketch -->
    <title>Logo horizontal</title>
    <desc>Created with Sketch.</desc>
    <g id="Logo-horizontal" stroke="none" stroke-width="1" fill="none" fill-rule="evenodd">
        <path d="M176.96,74 L176.96,27.12 L176.72,27.12 L164.08,74 L157.6,74 L145.12,27.12 L144.88,27.12 L144.88,74 L138.24,74 L138.24,17.36 L148.8,17.36 L160.88,62.32 L161.2,62.32 L173.04,17.36 L184.08,17.36 L184.08,74 L176.96,74 Z M232.88,45.6 C232.88,50.0266888 232.440004,54.0666484 231.56,57.72 C230.679996,61.3733516 229.400008,64.5066536 227.72,67.12 C226.039992,69.7333464 224.013345,71.7599928 221.64,73.2 C219.266655,74.6400072 216.560015,75.36 213.52,75.36 C210.479985,75.36 207.760012,74.6400072 205.36,73.2 C202.959988,71.7599928 200.920008,69.7333464 199.24,67.12 C197.559992,64.5066536 196.280004,61.3733516 195.4,57.72 C194.519996,54.0666484 194.08,50.0266888 194.08,45.6 C194.08,41.1733112 194.506662,37.1333516 195.36,33.48 C196.213338,29.8266484 197.466658,26.7066796 199.12,24.12 C200.773342,21.5333204 202.813321,19.5333404 205.24,18.12 C207.666679,16.7066596 210.426651,16 213.52,16 C216.560015,16 219.266655,16.7066596 221.64,18.12 C224.013345,19.5333404 226.039992,21.5333204 227.72,24.12 C229.400008,26.7066796 230.679996,29.8266484 231.56,33.48 C232.440004,37.1333516 232.88,41.1733112 232.88,45.6 Z M225.28,45.6 C225.28,42.399984 225.026669,39.3866808 224.52,36.56 C224.013331,33.7333192 223.266672,31.2800104 222.28,29.2 C221.293328,27.1199896 220.066674,25.480006 218.6,24.28 C217.133326,23.079994 215.44001,22.48 213.52,22.48 C211.546657,22.48 209.813341,23.079994 208.32,24.28 C206.826659,25.480006 205.586672,27.1199896 204.6,29.2 C203.613328,31.2800104 202.880002,33.7333192 202.4,36.56 C201.919998,39.3866808 201.68,42.399984 201.68,45.6 C201.68,48.800016 201.919998,51.8133192 202.4,54.64 C202.880002,57.4666808 203.613328,59.9199896 204.6,62 C205.586672,64.0800104 206.826659,65.719994 208.32,66.92 C209.813341,68.120006 211.546657,68.72 213.52,68.72 C215.44001,68.72 217.133326,68.120006 218.6,66.92 C220.066674,65.719994 221.293328,64.0800104 222.28,62 C223.266672,59.9199896 224.013331,57.4666808 224.52,54.64 C225.026669,51.8133192 225.28,48.800016 225.28,45.6 Z M266.08,74 L256.48,48.72 L249.92,48.72 L249.92,74 L242.88,74 L242.88,17.36 L257.52,17.36 C259.60001,17.36 261.559991,17.6399972 263.4,18.2 C265.240009,18.7600028 266.853326,19.6533272 268.24,20.88 C269.626674,22.1066728 270.719996,23.7066568 271.52,25.68 C272.320004,27.6533432 272.72,30.0266528 272.72,32.8 C272.72,35.0933448 272.42667,37.0933248 271.84,38.8 C271.25333,40.5066752 270.493338,41.959994 269.56,43.16 C268.626662,44.360006 267.600006,45.3066632 266.48,46 C265.359994,46.6933368 264.266672,47.1466656 263.2,47.36 L273.76,74 L266.08,74 Z M265.6,33.12 C265.6,31.1999904 265.333336,29.6266728 264.8,28.4 C264.266664,27.1733272 263.573338,26.1866704 262.72,25.44 C261.866662,24.6933296 260.880006,24.1733348 259.76,23.88 C258.639994,23.5866652 257.520006,23.44 256.4,23.44 L249.92,23.44 L249.92,43.12 L256.56,43.12 C259.280014,43.12 261.466658,42.253342 263.12,40.52 C264.773342,38.786658 265.6,36.320016 265.6,33.12 Z M311.6,33.28 C311.6,36.0000136 311.200004,38.3999896 310.4,40.48 C309.599996,42.5600104 308.520007,44.2799932 307.16,45.64 C305.799993,47.0000068 304.253342,48.0266632 302.52,48.72 C300.786658,49.4133368 298.96001,49.76 297.04,49.76 L289.36,49.76 L289.36,74 L282.24,74 L282.24,17.36 L296.56,17.36 C298.266675,17.36 300.013324,17.6133308 301.8,18.12 C303.586676,18.6266692 305.199993,19.4933272 306.64,20.72 C308.080007,21.9466728 309.266662,23.5866564 310.2,25.64 C311.133338,27.6933436 311.6,30.2399848 311.6,33.28 Z M304.48,33.36 C304.48,29.9466496 303.680008,27.4533412 302.08,25.88 C300.479992,24.3066588 298.400013,23.52 295.84,23.52 L289.36,23.52 L289.36,43.76 L295.84,43.76 C298.400013,43.76 300.479992,42.893342 302.08,41.16 C303.680008,39.426658 304.48,36.826684 304.48,33.36 Z M347.2,74 L347.2,47.84 L327.44,47.84 L327.44,74 L320.24,74 L320.24,17.36 L327.44,17.36 L327.44,41.44 L347.2,41.44 L347.2,17.36 L354.4,17.36 L354.4,74 L347.2,74 Z M403.2,45.6 C403.2,50.0266888 402.760004,54.0666484 401.88,57.72 C400.999996,61.3733516 399.720008,64.5066536 398.04,67.12 C396.359992,69.7333464 394.333345,71.7599928 391.96,73.2 C389.586655,74.6400072 386.880015,75.36 383.84,75.36 C380.799985,75.36 378.080012,74.6400072 375.68,73.2 C373.279988,71.7599928 371.240008,69.7333464 369.56,67.12 C367.879992,64.5066536 366.600004,61.3733516 365.72,57.72 C364.839996,54.0666484 364.4,50.0266888 364.4,45.6 C364.4,41.1733112 364.826662,37.1333516 365.68,33.48 C366.533338,29.8266484 367.786658,26.7066796 369.44,24.12 C371.093342,21.5333204 373.133321,19.5333404 375.56,18.12 C377.986679,16.7066596 380.746651,16 383.84,16 C386.880015,16 389.586655,16.7066596 391.96,18.12 C394.333345,19.5333404 396.359992,21.5333204 398.04,24.12 C399.720008,26.7066796 400.999996,29.8266484 401.88,33.48 C402.760004,37.1333516 403.2,41.1733112 403.2,45.6 Z M395.6,45.6 C395.6,42.399984 395.346669,39.3866808 394.84,36.56 C394.333331,33.7333192 393.586672,31.2800104 392.6,29.2 C391.613328,27.1199896 390.386674,25.480006 388.92,24.28 C387.453326,23.079994 385.76001,22.48 383.84,22.48 C381.866657,22.48 380.133341,23.079994 378.64,24.28 C377.146659,25.480006 375.906672,27.1199896 374.92,29.2 C373.933328,31.2800104 373.200002,33.7333192 372.72,36.56 C372.239998,39.3866808 372,42.399984 372,45.6 C372,48.800016 372.239998,51.8133192 372.72,54.64 C373.200002,57.4666808 373.933328,59.9199896 374.92,62 C375.906672,64.0800104 377.146659,65.719994 378.64,66.92 C380.133341,68.120006 381.866657,68.72 383.84,68.72 C385.76001,68.72 387.453326,68.120006 388.92,66.92 C390.386674,65.719994 391.613328,64.0800104 392.6,62 C393.586672,59.9199896 394.333331,57.4666808 394.84,54.64 C395.346669,51.8133192 395.6,48.800016 395.6,45.6 Z M438.8,58.96 C438.8,61.5200128 438.400004,63.8266564 437.6,65.88 C436.799996,67.9333436 435.720007,69.6533264 434.36,71.04 C432.999993,72.4266736 431.386676,73.4933296 429.52,74.24 C427.653324,74.9866704 425.653344,75.36 423.52,75.36 C420.639986,75.36 417.90668,74.760006 415.32,73.56 C412.73332,72.359994 410.666674,70.7733432 409.12,68.8 L413.36,63.6 C414.586673,65.200008 416.119991,66.4533288 417.96,67.36 C419.800009,68.2666712 421.653324,68.72 423.52,68.72 C425.920012,68.72 427.893326,67.920008 429.44,66.32 C430.986674,64.719992 431.76,62.4000152 431.76,59.36 C431.76,57.9199928 431.520002,56.6533388 431.04,55.56 C430.559998,54.4666612 429.893338,53.4800044 429.04,52.6 C428.186662,51.7199956 427.213339,50.9200036 426.12,50.2 C425.026661,49.4799964 423.840006,48.8000032 422.56,48.16 C421.013326,47.4133296 419.560007,46.573338 418.2,45.64 C416.839993,44.706662 415.626672,43.6266728 414.56,42.4 C413.493328,41.1733272 412.653336,39.7200084 412.04,38.04 C411.426664,36.3599916 411.12,34.3733448 411.12,32.08 C411.12,29.3599864 411.546662,26.9866768 412.4,24.96 C413.253338,22.9333232 414.38666,21.25334 415.8,19.92 C417.21334,18.58666 418.826658,17.6000032 420.64,16.96 C422.453342,16.3199968 424.293324,16 426.16,16 C428.880014,16 431.319989,16.4533288 433.48,17.36 C435.640011,18.2666712 437.439993,19.6266576 438.88,21.44 L434.56,26.56 C432.533323,23.89332 429.81335,22.56 426.4,22.56 C425.386662,22.56 424.386672,22.7333316 423.4,23.08 C422.413328,23.4266684 421.520004,23.9866628 420.72,24.76 C419.919996,25.5333372 419.280002,26.5066608 418.8,27.68 C418.319998,28.8533392 418.08,30.2666584 418.08,31.92 C418.08,33.3600072 418.306664,34.5999948 418.76,35.64 C419.213336,36.6800052 419.826663,37.6133292 420.6,38.44 C421.373337,39.2666708 422.266662,40.01333 423.28,40.68 C424.293338,41.34667 425.386661,41.9733304 426.56,42.56 C428.053341,43.3066704 429.519993,44.146662 430.96,45.08 C432.400007,46.013338 433.706661,47.1199936 434.88,48.4 C436.053339,49.6800064 436.999996,51.186658 437.72,52.92 C438.440004,54.653342 438.8,56.6666552 438.8,58.96 Z M448.4,74 L448.4,17.36 L455.6,17.36 L455.6,74 L448.4,74 Z M493.68,58.96 C493.68,61.5200128 493.280004,63.8266564 492.48,65.88 C491.679996,67.9333436 490.600007,69.6533264 489.24,71.04 C487.879993,72.4266736 486.266676,73.4933296 484.4,74.24 C482.533324,74.9866704 480.533344,75.36 478.4,75.36 C475.519986,75.36 472.78668,74.760006 470.2,73.56 C467.61332,72.359994 465.546674,70.7733432 464,68.8 L468.24,63.6 C469.466673,65.200008 470.999991,66.4533288 472.84,67.36 C474.680009,68.2666712 476.533324,68.72 478.4,68.72 C480.800012,68.72 482.773326,67.920008 484.32,66.32 C485.866674,64.719992 486.64,62.4000152 486.64,59.36 C486.64,57.9199928 486.400002,56.6533388 485.92,55.56 C485.439998,54.4666612 484.773338,53.4800044 483.92,52.6 C483.066662,51.7199956 482.093339,50.9200036 481,50.2 C479.906661,49.4799964 478.720006,48.8000032 477.44,48.16 C475.893326,47.4133296 474.440007,46.573338 473.08,45.64 C471.719993,44.706662 470.506672,43.6266728 469.44,42.4 C468.373328,41.1733272 467.533336,39.7200084 466.92,38.04 C466.306664,36.3599916 466,34.3733448 466,32.08 C466,29.3599864 466.426662,26.9866768 467.28,24.96 C468.133338,22.9333232 469.26666,21.25334 470.68,19.92 C472.09334,18.58666 473.706658,17.6000032 475.52,16.96 C477.333342,16.3199968 479.173324,16 481.04,16 C483.760014,16 486.199989,16.4533288 488.36,17.36 C490.520011,18.2666712 492.319993,19.6266576 493.76,21.44 L489.44,26.56 C487.413323,23.89332 484.69335,22.56 481.28,22.56 C480.266662,22.56 479.266672,22.7333316 478.28,23.08 C477.293328,23.4266684 476.400004,23.9866628 475.6,24.76 C474.799996,25.5333372 474.160002,26.5066608 473.68,27.68 C473.199998,28.8533392 472.96,30.2666584 472.96,31.92 C472.96,33.3600072 473.186664,34.5999948 473.64,35.64 C474.093336,36.6800052 474.706663,37.6133292 475.48,38.44 C476.253337,39.2666708 477.146662,40.01333 478.16,40.68 C479.173338,41.34667 480.266661,41.9733304 481.44,42.56 C482.933341,43.3066704 484.399993,44.146662 485.84,45.08 C487.280007,46.013338 488.586661,47.1199936 489.76,48.4 C490.933339,49.6800064 491.879996,51.186658 492.6,52.92 C493.320004,54.653342 493.68,56.6666552 493.68,58.96 Z" id="MORPHOSIS" fill="#2D2E36"></path>
        <g id="Group" transform="translate(4.000000, 4.000000)">
            <polygon id="Rectangle-788-Copy-10_4_" fill="#5823B5" fill-rule="nonzero" points="106 72.5595238 71.9285714 38.1892231 71.9285714 72.5595238"></polygon>
            <polygon id="Rectangle-788-Copy-10_4_" fill="#431594" fill-rule="nonzero" points="86.8206134 53.2823129 71.9285714 38.1892231 71.9285714 72.5595238"></polygon>
            <polygon id="Path-9" fill="#7D3BF2" points="71.9285714 0 71.9285714 72.5595238 35.9642857 36.11793"></polygon>
            <polygon id="Path-9" fill="#4D90FC" transform="translate(35.964286, 18.139881) scale(1, -1) rotate(90.000000) translate(-35.964286, -18.139881) " points="54.1041667 -17.8244048 54.1041667 54.1041667 17.8244048 17.9794563"></polygon>
            <polygon id="Path-9" fill="#37D1B7" transform="translate(17.982143, 36.279762) scale(-1, 1) translate(-17.982143, -36.279762) " points="35.9642857 0 35.9642857 72.5595238 0 36.11793"></polygon>
        </g>
    </g>
</svg>