<svg width="296" height="91" viewBox="0 0 296 91" xmlns="http://www.w3.org/2000/svg"><g fill-rule="nonzero" fill="none"><g fill="#3E3E3E"><path d="M112.3 62.8V38.4h6.3v2c1.9-1.5 4.2-2.5 6.9-2.5 3.4 0 6.4 1.5 8.4 3.9 1.6 1.9 2.5 4.4 2.5 8.5v12.4h-6.5V49.9c0-2.4-.6-3.7-1.5-4.6-.9-.9-2.2-1.4-3.7-1.4-2.8 0-5 1.8-5.9 3v15.8h-6.5v.1zM163.1 58.9c-2.4 2.8-6.2 4.4-10 4.4-7.3 0-12.8-5-12.8-12.7 0-6.8 4.6-12.7 11.8-12.7 6.7 0 11.5 5.7 11.5 12.4 0 .7-.1 1.3-.2 1.9h-16.9c.4 3.4 3.1 5.8 6.6 5.8 2.8 0 5-1.6 6.1-2.8l3.9 3.7zM157 47.5c-.2-2.2-2.2-4.3-4.8-4.3-2.7 0-4.9 2.1-5.2 4.3h10zM168.2 62.8V27.2h6.5v13.1c1.9-1.5 4.2-2.3 6.9-2.3 6.6 0 11.9 5.5 11.9 12.7 0 3.3-1.2 6.3-3.1 8.5-2.2 2.5-5.6 4.1-9.2 4.1-2.5 0-4.8-.8-6.8-2.5v2h-6.2zm6.6-8.5c1.3 1.8 3.4 3 5.9 3 3.7 0 6.4-2.8 6.4-6.6 0-3.5-2.5-6.7-6.3-6.7-2.5 0-4.7 1.2-6 3v7.3zM221.2 38.4v24.3h-6.3v-2c-1.9 1.7-4.2 2.5-6.6 2.5-3.4 0-6.4-1.6-8.3-3.9-1.6-1.9-2.5-4.4-2.5-8V38.4h6.5v13.2c0 2.2.5 3.3 1.2 4.2 1 1.1 2.4 1.5 3.7 1.5 2.8 0 4.8-1.9 5.7-3V38.4h6.6zM234.2 62.8h-6.5V27.2h6.5zM264.1 62.8h-6.3v-2c-2 1.7-4.3 2.5-6.8 2.5-3.6 0-7-1.6-9.2-4.1-1.9-2.2-3.1-5.2-3.1-8.5 0-7.2 5.3-12.7 11.9-12.7 2.8 0 5.2.9 7.1 2.5v-2h6.3v24.3h.1zM257.6 47c-1.4-1.8-3.5-3-6-3-3.8 0-6.3 3.2-6.3 6.7 0 3.8 2.8 6.6 6.4 6.6 2.5 0 4.6-1.2 5.9-3V47zM270.6 62.8V27.2h6.5v13.1c1.9-1.5 4.2-2.3 6.9-2.3 6.6 0 11.9 5.5 11.9 12.7 0 3.3-1.2 6.3-3.1 8.5-2.2 2.5-5.6 4.1-9.2 4.1-2.5 0-4.8-.8-6.8-2.5v2h-6.2zm6.6-8.5c1.3 1.8 3.4 3 5.9 3 3.7 0 6.4-2.8 6.4-6.6 0-3.5-2.5-6.7-6.3-6.7-2.5 0-4.7 1.2-6 3v7.3z"/></g><path d="M0 45.2C0 20.2 20.3 0 45.3 0c25 0 45.3 20.3 45.3 45.3 0 25-20.4 45.2-45.3 45.2S0 70.2 0 45.2" fill="#5DBEFD"/><g fill="#FFF"><path d="M36.8 53.5L21.6 68.7l20.1-5.4z"/><path d="M27 48.6l-5.4 20.1 15.2-15.2z" opacity=".8"/><path d="M68.9 21.7L42.3 48.3l10.2 19.9z"/><path d="M22.4 38.1l19.9 10.2 26.6-26.6z" opacity=".8"/></g></g></svg>