<svg width="296" height="90" viewBox="0 0 296 90" xmlns="http://www.w3.org/2000/svg"><g transform="translate(0 -.531)" fill-rule="nonzero" fill="none"><path d="M112 63.916v-24.19h6.247v2a11.362 11.362 0 0 1 6.852-2.4 10.879 10.879 0 0 1 8.463 3.799 11.927 11.927 0 0 1 2.418 8.396v12.395h-6.247V51.12a6.561 6.561 0 0 0-1.41-4.598 5.405 5.405 0 0 0-3.627-1.399 7.475 7.475 0 0 0-5.844 2.999v15.793H112zm50.984-3.799a13.45 13.45 0 0 1-10.076 4.398 12.145 12.145 0 0 1-9.17-3.497 11.942 11.942 0 0 1-3.526-9.097c0-6.797 4.635-12.594 11.89-12.594 6.65 0 11.486 5.597 11.486 12.394a5.496 5.496 0 0 1-.201 1.8h-16.928c.309 3.38 3.232 5.928 6.65 5.797a8.229 8.229 0 0 0 6.046-2.8l3.829 3.6zm-6.046-11.395c-.306-2.413-2.384-4.217-4.836-4.198-2.517.023-4.688 1.762-5.24 4.198h10.076zm11.285 15.194V28.53h6.449v12.995a11.224 11.224 0 0 1 6.851-2.2c3.28.05 6.397 1.42 8.64 3.795a11.94 11.94 0 0 1 3.25 8.8 13.348 13.348 0 0 1-3.023 8.396 12.804 12.804 0 0 1-9.27 3.999 10.997 10.997 0 0 1-6.851-2.4v2h-6.046zm6.449-8.397a7.07 7.07 0 0 0 5.844 3 6.434 6.434 0 0 0 4.645-1.932 6.33 6.33 0 0 0 1.803-4.666 6.288 6.288 0 0 0-1.72-4.606 6.391 6.391 0 0 0-4.527-1.991 7.76 7.76 0 0 0-6.045 2.999v7.196zm46.55-15.793v24.19h-6.247v-2a10.125 10.125 0 0 1-6.65 2.4 10.797 10.797 0 0 1-8.262-3.799 11.53 11.53 0 0 1-2.418-7.996V39.726h6.448v12.995a5.824 5.824 0 0 0 1.21 4.198 5.202 5.202 0 0 0 3.627 1.4 7.048 7.048 0 0 0 5.642-3V39.526h6.65v.2zm13.099 24.19h-6.449V28.53h6.449v35.385zm29.824 0h-6.247v-2a10.592 10.592 0 0 1-6.851 2.4 12.804 12.804 0 0 1-9.27-3.999 13.348 13.348 0 0 1-3.023-8.396 11.94 11.94 0 0 1 3.25-8.8 12.135 12.135 0 0 1 8.64-3.794 10.39 10.39 0 0 1 7.053 2.398v-1.999h6.247v24.19h.201zm-6.448-15.593a7.456 7.456 0 0 0-6.046-3 6.391 6.391 0 0 0-4.527 1.992 6.288 6.288 0 0 0-1.72 4.606 6.33 6.33 0 0 0 1.803 4.666 6.434 6.434 0 0 0 4.646 1.931 7.07 7.07 0 0 0 5.844-2.999v-7.196zm13.098 15.593V28.53h6.449v12.995a11.224 11.224 0 0 1 6.851-2.2c3.28.05 6.397 1.42 8.64 3.795a11.94 11.94 0 0 1 3.25 8.8 13.348 13.348 0 0 1-3.023 8.396 12.804 12.804 0 0 1-9.27 3.999 10.997 10.997 0 0 1-6.851-2.4v2h-6.046zm6.449-8.397a7.07 7.07 0 0 0 5.844 3 6.434 6.434 0 0 0 4.645-1.932 6.33 6.33 0 0 0 1.803-4.666 6.288 6.288 0 0 0-1.72-4.606 6.391 6.391 0 0 0-4.527-1.991 7.76 7.76 0 0 0-6.045 2.999v7.196z" fill="#3E3E3E"/><circle fill="#5DBEFD" cx="45" cy="45.531" r="45"/><path fill="#FFF" d="M36.802 54.531L21 69.531l21-5.329z"/><path fill="#FFF" opacity=".8" d="M26.526 49.531l-5.526 20 15-15.2-9.474-4.8z"/><path fill="#FFF" d="M68 22.531L41 48.817l10.227 19.714z"/><path fill="#FFF" opacity=".8" d="M22 39.304l19.714 10.227 26.286-27z"/></g></svg>