<svg width="142" height="34" viewBox="0 0 142 34" fill="none" xmlns="http://www.w3.org/2000/svg">
<path fill-rule="evenodd" clip-rule="evenodd" d="M119.337 2.36377H114.903L114.904 27.259H119.337V2.36377Z" fill="#0F0033"/>
<path fill-rule="evenodd" clip-rule="evenodd" d="M127.396 16.7213C127.805 14.0268 129.647 12.3221 132.272 12.3221C135.035 12.3221 136.843 14.0268 136.944 16.7213H127.396ZM132.238 8.87754C126.781 8.87754 122.962 12.629 122.962 18.1881C122.962 23.6782 126.68 27.4297 132.341 27.4297C135.546 27.4297 138.206 26.2698 140.014 24.2921L137.627 21.8028C136.331 23.1322 134.591 23.8484 132.716 23.8484C130.055 23.8484 128.077 22.2804 127.498 19.6882H140.969C141.411 13.0727 138.649 8.87754 132.238 8.87754Z" fill="#0F0033"/>
<path fill-rule="evenodd" clip-rule="evenodd" d="M38.2399 8.84367C35.273 8.87705 32.9878 10.0024 31.6922 12.4239V9.01382H27.2585V27.2591H31.6922V18.2904C31.6922 15.2891 33.4654 13.0727 36.4668 13.0383C38.9905 13.0383 40.5246 14.6068 40.5246 17.1651V27.2591H44.9922V15.869C44.9922 11.5381 42.4345 8.84367 38.2399 8.84367Z" fill="#0F0033"/>
<path fill-rule="evenodd" clip-rule="evenodd" d="M49.0247 27.2591H53.4578V9.01388H49.0247V27.2591Z" fill="#0F0033"/>
<path fill-rule="evenodd" clip-rule="evenodd" d="M81.3963 8.84367C78.1903 8.87705 75.8027 10.2421 74.6095 13.2084C73.7566 10.4467 71.5403 8.84367 68.3343 8.84367C65.4352 8.87705 63.185 9.96905 61.9234 12.39V9.01382H57.4902V27.2591H61.9234V18.256C61.9234 15.2891 63.6626 13.1061 66.5611 13.0044C69.0165 13.0044 70.5172 14.5729 70.5172 17.1651V27.2591H74.9848V18.256C74.9848 15.2891 76.7235 13.1061 79.5887 13.0044C82.0435 13.0044 83.5787 14.5729 83.5787 17.1651V27.2591H88.0468V15.869C88.0468 11.5381 85.5225 8.84367 81.3963 8.84367Z" fill="#0F0033"/>
<path fill-rule="evenodd" clip-rule="evenodd" d="M101.661 23.6104C98.6258 23.6104 96.5118 21.3591 96.5118 18.0852C96.5118 14.8798 98.6258 12.5951 101.661 12.5951C104.662 12.5951 106.776 14.8798 106.776 18.0852C106.776 21.3252 104.662 23.6104 101.661 23.6104ZM102.65 8.87754C99.9224 8.87754 97.8074 10.0029 96.5118 12.0152V2.36377H92.0781V27.259H96.5118V24.2921C97.8418 26.3043 99.9558 27.4297 102.718 27.4297C107.902 27.4297 111.278 23.7122 111.278 18.2215C111.278 12.629 107.8 8.87754 102.65 8.87754Z" fill="#0F0033"/>
<path fill-rule="evenodd" clip-rule="evenodd" d="M49.0247 6.79705H53.4578V2.36389H49.0247V6.79705Z" fill="#E20041"/>
<path fill-rule="evenodd" clip-rule="evenodd" d="M0 13.6296H6.81477V6.81482H0V13.6296Z" fill="#F14321"/>
<path fill-rule="evenodd" clip-rule="evenodd" d="M6.8147 6.81494L13.6295 13.6297H6.8147V6.81494Z" fill="#F86410"/>
<path fill-rule="evenodd" clip-rule="evenodd" d="M0 20.4449H6.81477V13.6301H0V20.4449Z" fill="#E92131"/>
<path fill-rule="evenodd" clip-rule="evenodd" d="M0 34H6.81477V27H0V34Z" fill="#E20041"/>
<path fill-rule="evenodd" clip-rule="evenodd" d="M6.8147 20.4449H13.6295V13.6301H6.8147V20.4449Z" fill="#F14321"/>
<path fill-rule="evenodd" clip-rule="evenodd" d="M13.6296 20.4449H20.4439V13.6301H13.6296V20.4449Z" fill="#F86410"/>
<path fill-rule="evenodd" clip-rule="evenodd" d="M13.6296 7H20.4439V0H13.6296V7Z" fill="#FF8500"/>
<path fill-rule="evenodd" clip-rule="evenodd" d="M6.8147 20.4448H13.6295V27.2591L6.8147 20.4448Z" fill="#E92131"/>
<path fill-rule="evenodd" clip-rule="evenodd" d="M13.6296 27.2591H20.4439V20.4448H13.6296V27.2591Z" fill="#F14321"/>
</svg>
