<svg xmlns="http://www.w3.org/2000/svg" width="70" height="100" viewBox="0 0 0 0 70 0 100"><g fill="#1A1919"><path d="M13.424 38.274c3.387-.339 2.71 2.202 2.202 5.081-1.185 7.451-2.71 15.918-3.895 20.999 2.371-5.758 6.265-16.427 10.669-20.661 3.387-3.387 7.112.339 6.266 5.758 1.321-.944 5.058-1.833 7.789-1.646 2.41-9.225 5.365-19.363 8.486-27.595-3.883-1.762-8.191-2.752-12.734-2.752-17.036 0-30.847 13.81-30.847 30.847 0 7.078 2.389 13.595 6.399 18.8.366-1.472.731-2.951 1.093-4.445 2.032-8.806 3.556-16.765 4.572-24.386"/><path d="M17.827 64.184c.508 1.863 5.081-5.08 5.081-7.621-1.863 1.864-5.588 5.928-5.081 7.621M24.432 51.653c.846-1.525 2.201-6.943 1.185-7.452-1.016 0-6.435 9.315-8.467 14.226 2.371-3.388 6.266-5.589 7.282-6.774M48.043 21.832c-3.743 10.211-7.136 22.184-7.358 24.063 5.196-6.191 9.812-11.887 13.853-18.858-1.916-2.012-4.098-3.768-6.495-5.205M54.741 43.524c-5.08 1.523-8.298 6.096-10.838 10.16 2.71-3.725 6.774-6.604 11.346-7.959-.17-.847 0-1.863-.508-2.201"/><path d="M38.145 56.902c1.863-2.709 9.314-16.088 15.749-15.919 2.541.17 3.388 1.524 4.573 3.727.993-.111 2.633-.274 4.335-.293-.712-5.653-2.95-10.826-6.292-15.099-4.93 8.081-10.77 14.691-16.841 22.335-.338.846-.677 2.031-1.524 5.249M43.056 63.507c2.879 2.879 10.838-12.193 11.516-14.225-5.758 2.709-11.178 7.621-11.516 14.225"/><path d="M45.935 65.877c-4.403 1.017-6.604-1.862-5.758-5.588-2.709 3.895-3.386 4.742-5.419 7.959-1.354 0-2.032-.677-2.879-1.354.907-4.178 2.248-9.991 3.885-16.408-2.878.218-6.209 1.354-8.284 3.199-1.016 1.523-2.709 12.871-8.128 13.378-4.234.339-4.573-4.911-2.71-7.451-.906.518-2.755 5.574-4.768 11.88 5.43 4.765 12.541 7.661 20.333 7.661 17.037 0 30.848-13.811 30.848-30.848 0-.309-.015-.615-.024-.921-1.806.035-3.455.249-4.225.712-.339 2.54-5.928 16.088-12.871 17.781M7.758 67.105C5.382 76.651 2.947 85.807.893 95.344c-.508 2.54 2.032 3.557 3.218 2.71.836-2.929 4.513-16.379 7.763-26.561-1.51-1.326-2.888-2.794-4.116-4.388"/><path d="M62.802 44.416c.123.976.2 1.966.229 2.968 2.163-.043 4.551.174 5.935.543 1.142-2.969-2.642-3.55-6.164-3.511M53.894 8.807c2.371-3.556 4.573-5.249 6.096-4.741 2.033.678 2.541 5.249.509 10.499-1.822 4.703-3.812 8.765-5.961 12.472.693.728 1.351 1.489 1.971 2.281 2.498-4.092 4.764-8.556 6.7-13.737C65.41 9.654 65.41 4.405 61.685 2.203c-2.71-1.524-7.282 0-11.177 6.097-1.861 2.935-3.742 7.098-5.567 11.91 1.068.485 2.105 1.024 3.102 1.622 1.994-5.437 4.086-10.376 5.851-13.025"/></g></svg>