<svg xmlns="http://www.w3.org/2000/svg" width="170" height="102" viewBox="0 0 150 45"><g style="isolation:isolate"><path d="M1.18,30a6.52,6.52,0,0,0,6.06,3.72c3.65,0,5.17-2.47,5.17-4.84,0-3.21-2.77-4.5-5.44-5.68C4,21.87.78,20.34.78,16.52c0-3.28,2.37-5.85,6.39-5.85a6.28,6.28,0,0,1,6.29,4.26l-1.22.58A5.28,5.28,0,0,0,7.1,12c-3,0-5,2-5,4.53,0,3,2.84,4.36,5.28,5.44,3.28,1.46,6.36,3,6.36,6.87,0,3.35-2.2,6.26-6.53,6.22A7.86,7.86,0,0,1,0,30.73Z" fill="#333"/><path d="M17.42,34.68V11H28.55V12.3H18.77v11h8.42v1.29H18.77V33.4h9.78v1.28Z" fill="#333"/><path d="M33.11,34.68V11H44.24V12.3H34.47v11h8.42v1.29H34.47V33.4h9.77v1.28Z" fill="#333"/><path d="M48.44,30a6.51,6.51,0,0,0,6.05,3.72c3.65,0,5.17-2.47,5.17-4.84,0-3.21-2.77-4.5-5.44-5.68-3-1.35-6.19-2.88-6.19-6.7,0-3.28,2.37-5.85,6.39-5.85a6.28,6.28,0,0,1,6.29,4.26l-1.21.58A5.29,5.29,0,0,0,54.35,12c-3,0-5,2-5,4.53,0,3,2.84,4.36,5.28,5.44,3.28,1.46,6.36,3,6.36,6.87,0,3.35-2.2,6.26-6.53,6.22a7.86,7.86,0,0,1-7.24-4.29Z" fill="#333"/><path d="M75.77,34.68,73.9,28.26H65.59l-1.87,6.42H62.3L69.24,11h1l6.94,23.67ZM70.49,16.35c-.34-1.21-.71-2.7-.71-2.7h-.07s-.37,1.49-.71,2.7L66,27h7.57Z" fill="#333"/><path d="M93.66,34.68,89.19,16.79c-.4-1.65-.61-3.21-.61-3.21h-.06s-.21,1.56-.61,3.21L83.48,34.68h-1L76.31,11h1.42l4.56,17.92c.27,1.12.65,3.15.65,3.15H83s.34-2,.61-3.15L88,11h1l4.47,17.92c.3,1.19.64,3.15.64,3.15h.07s.34-2,.64-3.15L99.34,11h1.45L94.67,34.68Z" fill="#333"/></g><path d="M107.13,2l-.21,15.49c0,.5,0,1.35,0,1.77l1.12.41,15.26,5.05c.38.11,1.27.32,1.66.41h0L107.15,0C107.14.69,107.13,1.71,107.13,2Z" fill="#e59827"/><path d="M134,13.89,109,1l-1.87-1V0L125,25.11c.3-.31,1-1,1.3-1.36l8-7.92c.26-.28.76-.78,1.1-1.11C135,14.48,134.38,14.11,134,13.89Z" fill="#f7b33e"/><path d="M124.13,27.46,122.64,27l-9.25-2.84-1.85-.54-.87,1.72-5.58,10.85c-.16.29-.41.78-.57,1.12l19.61-9.81Z" fill="#5bacbc"/><path d="M127,42.08l-2.63-13c-.08-.4-.22-1.24-.28-1.65l-19.61,9.81h0c.88.33,2.17.8,2.46.88l18.32,5.48,2.18.67C127.35,43.63,127.15,42.53,127,42.08Z" fill="#5093a1"/><path d="M150,28.08c-.34-.22-.77-.49-1-.61l-12.55-7.91L135,18.5c-.32.28-.89.79-1.21,1.12l-6.11,6.21-1,1h0L150,28.1Z" fill="#74a56e"/><path d="M126.68,26.8c0,.23.11.59.13.7L129,37.71c.1.4.29,1.32.41,1.9.46-.27,1.15-.66,1.39-.78l17.67-9.89L150,28.1Z" fill="#83ba7b"/></svg>