<?xml version="1.0" encoding="UTF-8"?>
<svg width="142px" height="69px" viewBox="0 0 142 69" version="1.1" xmlns="http://www.w3.org/2000/svg" xmlns:xlink="http://www.w3.org/1999/xlink">
    <!-- Generator: Sketch 53.2 (72643) - https://sketchapp.com -->
    <title>svgexport-0</title>
    <desc>Created with Sketch.</desc>
    <g id="Web" stroke="none" stroke-width="1" fill="none" fill-rule="evenodd">
        <g id="Partners" transform="translate(-214.000000, -2219.000000)" fill="#4C24EA" fill-rule="nonzero">
            <g id="Find-a-Partner" transform="translate(0.000000, 1121.000000)">
                <g id="Gold" transform="translate(167.000000, 803.000000)">
                    <g id="1" transform="translate(2.000000, 163.000000)">
                        <g id="svgexport-0" transform="translate(45.000000, 132.000000)">
                            <path d="M20.24835,9.84760967 C18.9841903,8.98381893 16.6738296,7.68813281 14.3198772,7.68813281 C13.6139073,7.6555886 12.9146183,7.8363288 12.3146585,8.20640725 C11.9691146,8.4373244 11.7706856,8.83052114 11.7915579,9.24295615 C11.7915579,9.84760967 11.8787414,10.4090737 13.4916347,10.75459 L16.8481965,11.4888121 C19.4201074,12.0502761 20.9458173,13.086825 21.8176516,13.9506157 C23.3215983,15.4651924 24.1262647,17.5286437 24.0408289,19.6516346 C24.0408289,22.1134383 23.3869532,24.4024838 21.4253262,26.432392 C19.7688411,28.116784 16.6302379,30.1035027 11.181274,30.1035027 C6.73491942,30.1035027 3.77068304,28.8510061 1.28595549,27.8576467 L0.326937836,27.4689409 L3.50913277,19.3493079 L4.64251727,20.2130986 C5.73231005,21.0336998 7.95548734,22.329386 10.5273983,22.329386 C11.9659248,22.329386 12.5762087,21.9838697 12.7941673,21.8111115 C13.1833102,21.495335 13.3944088,21.0126787 13.3608596,20.5154254 C13.3798728,20.1519088 13.2547244,19.7954267 13.0121259,19.522066 C12.6633922,19.1765497 12.0966999,19.0469811 11.0069071,18.8310334 L8.43499616,18.3559485 C6.77851113,18.0536218 4.99125096,17.5353473 3.37835764,15.8941449 C1.97973581,14.481124 1.2307199,12.5594612 1.30775134,10.5818318 C1.24671635,8.00614776 2.26450556,5.52032658 4.11941673,3.71469537 C6.34259401,1.46883943 9.61197237,0.000395162217 14.2326938,0.000395162217 C17.3704637,-0.0212659097 20.4488389,0.848014232 23.1036071,2.50538833 L20.24835,9.84760967 Z M28.5743668,0.648238222 L39.0363776,0.648238222 L39.0363776,17.3625892 C39.0363776,18.2263799 39.123561,19.435687 39.9518035,20.2994777 C40.4968066,20.8556398 41.264486,21.1408636 42.0442057,21.0768894 C43.1339985,21.0768894 43.7878741,20.7745626 44.1801995,20.3858568 C44.9648503,19.6084451 44.9648503,18.0968113 44.9648503,17.3625892 L44.9648503,0.648238222 L55.4704528,0.648238222 L55.4704528,18.312759 C55.4704528,20.5586149 55.0345357,23.8410198 52.419033,26.5187711 C49.4547966,29.5420387 45.2699923,30.1035027 42.0442057,30.1035027 C39.3851113,30.1035027 34.5464313,29.8443655 31.2334612,26.3028234 C28.9666922,23.8842093 28.5743668,21.1632685 28.5743668,19.0469811 L28.5743668,0.648238222 Z M61.307383,29.4556596 L61.307383,0.648238222 L75.2567306,0.648238222 C79.877452,0.648238222 82.5365464,2.50538833 83.7571144,3.67150584 C86.1546585,6.00374085 86.7213507,8.94062939 86.7213507,11.2296749 C86.7213507,13.6050994 86.1982502,16.3260403 83.8442978,18.4423276 C81.4903454,20.5586149 78.9184344,20.7745626 76.6952571,20.7745626 L71.5950269,20.7745626 L71.5950269,29.4556596 L61.307383,29.4556596 Z M71.599386,13.5187203 L73.3866462,13.5187203 C73.9097467,13.5187203 74.9995395,13.4755308 75.7405986,12.7413087 C76.2251484,12.281754 76.4803651,11.6337951 76.438066,10.9705376 C76.4728017,10.2907476 76.1820186,9.63451884 75.6534152,9.19976661 C75.0270318,8.76840027 74.2801874,8.54188372 73.5174213,8.55192355 L71.599386,8.55192355 L71.599386,13.5187203 Z M90.3830545,29.4556596 L90.3830545,0.648238222 L109.999325,0.648238222 L109.999325,8.55192355 L100.932249,8.55192355 L100.932249,11.2296749 L109.171082,11.2296749 L109.171082,18.7878439 L100.932249,18.7878439 L100.932249,21.5519743 L110.28703,21.5519743 L110.28703,29.4556596 L90.3830545,29.4556596 Z M114.794413,29.4556596 L114.794413,0.648238222 L127.919877,0.648238222 C130.971297,0.648238222 134.153492,0.993754521 136.812586,3.6283163 C138.294705,5.09676057 139.558864,7.29942697 139.558864,10.7114004 C139.558864,13.2595831 138.774213,14.857596 137.945971,15.8509554 C136.912686,17.0458941 135.49721,17.8538084 133.935533,18.1400008 L133.935533,18.3991381 C134.550121,18.7105272 135.075032,19.1711589 135.461243,19.7380137 L142,29.4556596 L129.837913,29.4556596 L125.653108,21.0336998 C125.488977,20.7460746 125.356009,20.4420569 125.256424,20.1267196 L125.082057,20.2130986 L125.082057,29.4556596 L114.794413,29.4556596 Z M125.082057,13.4755308 L126.306984,13.4755308 C127.101203,13.5194445 127.886407,13.2906328 128.530161,12.8276877 C129.028746,12.3746476 129.299957,11.7265851 129.27122,11.0569167 C129.2989,10.4321739 129.097627,9.81858673 128.704528,9.32933523 C128.2543,8.82084615 127.5998,8.53615569 126.917268,8.55192355 L125.082057,8.55192355 L125.082057,13.4755308 Z M16.1289332,50.8992649 L33.1297007,50.8992649 L33.1297007,51.5730217 C33.1297007,55.2570892 32.8114812,60.2411618 29.2064467,64.0979875 C26.2116961,67.2853754 21.3599386,68.9913621 16.377406,68.9913621 C10.0260936,68.9913621 6.17258634,66.477731 3.90581734,64.050479 C1.0418419,61.0056166 0,57.3690576 0,53.412896 C0,47.9407816 2.13163469,44.4856186 4.17172678,42.4082019 C6.6172218,39.8945708 10.7889486,37.6919044 16.8656332,37.6919044 C19.9604397,37.6323844 23.0190247,38.359494 25.7496239,39.8038728 C28.1885586,41.0531387 30.2065177,42.9804319 31.5560399,45.3494094 L21.3076285,49.1241749 C20.43812,47.6688901 18.8422833,46.7932473 17.1359018,46.8351294 C15.7207114,46.8028163 14.3450618,47.2992783 13.2823945,48.2258325 C12.0618266,49.3487605 11.0635764,51.2793328 11.0635764,53.8836619 C11.0635764,55.9092512 11.7436071,57.9737111 13.0557176,59.2305267 C14.0248858,60.128951 15.3121907,60.6130552 16.6389563,60.5780402 C18.2692863,60.5780402 20.400921,59.9949815 21.1289025,58.0169007 L16.1289332,58.0169007 L16.1289332,50.8992649 Z M65.7798926,64.1973234 C63.1992632,66.7886957 58.9795856,69 53.2254797,69 C47.4713738,69 43.2473369,66.8016525 40.6667076,64.1973234 C38.308396,61.813261 36.4470299,58.1507882 36.4470299,53.3265169 C36.4470299,48.5022456 38.308396,44.8786434 40.6667076,42.4988999 C43.2473369,39.9075277 47.4670146,37.6919044 53.2254797,37.6919044 C58.9839447,37.6919044 63.2079816,39.8945708 65.7798926,42.4988999 C68.1382041,44.8786434 69.9995702,48.5454351 69.9995702,53.3265169 C69.9995702,58.1075987 68.1382041,61.813261 65.7798926,64.1973234 L65.7798926,64.1973234 Z M49.2804298,48.8779946 C48.1594959,50.1106367 47.5384167,51.7105443 47.5367613,53.3697064 C47.5138166,55.0204577 48.1390127,56.615485 49.2804298,57.8182288 C51.5083941,59.8516592 54.9382061,59.8516592 57.1661704,57.8182288 C58.3155812,56.6204938 58.9420941,55.0221071 58.9098388,53.3697064 C58.9762271,51.6986956 58.3456247,50.074256 57.1661704,48.8779946 C56.1173548,47.869127 54.7043944,47.31849 53.2429163,47.3490849 C51.7631669,47.2798269 50.3231663,47.8354454 49.2804298,48.8779946 L49.2804298,48.8779946 Z M103.591343,64.1973234 C101.006355,66.7886957 96.7910361,69 91.032571,69 C85.2741059,69 81.0805833,66.8016525 78.4650806,64.1973234 C76.106769,61.813261 74.2497621,58.1507882 74.2497621,53.3265169 C74.2497621,48.5022456 76.106769,44.8786434 78.4650806,42.4988999 C81.0500691,39.9075277 85.2653876,37.6919044 91.0238526,37.6919044 C96.7823177,37.6919044 100.997636,39.8945708 103.582625,42.4988999 C105.940936,44.8786434 107.797943,48.5454351 107.797943,53.3265169 C107.797943,58.1075987 105.949655,61.813261 103.591343,64.1973234 L103.591343,64.1973234 Z M87.0875211,48.8779946 C85.9762772,50.1149107 85.363365,51.7137659 85.3656485,53.3697064 C85.338634,55.0171474 85.9556106,56.6111295 87.0875211,57.8182288 C89.3177446,59.8501737 92.7473973,59.8501737 94.9776209,57.8182288 C96.1270317,56.6204938 96.7535446,55.0221071 96.7212893,53.3697064 C96.7856066,51.6990356 96.155308,50.0753786 94.9776209,48.8779946 C93.9282679,47.8699531 92.5156702,47.3194575 91.0543668,47.3490849 C89.5731262,47.2785853 88.1312918,47.8343 87.0875211,48.8779946 L87.0875211,48.8779946 Z M112.518926,68.3262432 L112.518926,38.3656612 L124.17099,38.3656612 C126.712387,38.3656612 133.150883,38.5902468 137.544927,42.9048815 C139.497836,44.8354539 141.62947,48.2042378 141.62947,53.7281796 C141.62947,56.8291884 141.036623,60.8285395 137.728012,64.0936686 C135.914597,65.9335428 132.379309,68.3132864 126.891113,68.3132864 L112.518926,68.3262432 Z M123.416853,59.1657424 L124.236378,59.1657424 C125.504896,59.1657424 127.361903,59.1182339 128.90505,57.7707203 C130.0954,56.6508846 130.740431,55.0767967 130.674873,53.4517666 C130.715135,51.7802468 130.077689,50.162445 128.90505,48.9600547 C127.597299,47.7464287 125.85363,47.5218431 124.598189,47.5218431 L123.421213,47.5218431 L123.416853,59.1657424 Z" id="Shape"></path>
                        </g>
                    </g>
                </g>
            </g>
        </g>
    </g>
</svg>