<svg xmlns="http://www.w3.org/2000/svg" xmlns:xlink="http://www.w3.org/1999/xlink" width="150px" height="70px" viewBox="0 0 150 70"><defs><clipPath id="a5c34a2a-9dae-4fbd-8588-c802b263c863"><path id="b514a83e-545e-4d1c-adf9-32a9c7bccc45" data-name="SVGID" d="M0,34.94A34.94,34.94,0,1,0,34.94,0,34.94,34.94,0,0,0,0,34.94" fill="none"/></clipPath><linearGradient id="f4c33f47-2f38-4445-b5a1-796081e1d259" x1="-5660.58" y1="-2012.01" x2="-5654.67" y2="-2012.01" gradientTransform="translate(12883.38 69881.53) rotate(60) scale(11.83)" gradientUnits="userSpaceOnUse"><stop offset="0" stop-color="#008ed9"/><stop offset="1" stop-color="#126bbb"/></linearGradient></defs><title>Tavola disegno 1</title><g clip-path="url(#a5c34a2a-9dae-4fbd-8588-c802b263c863)"><path d="M52.42-30.26l47.74,82.68L17.48,100.16-30.26,17.48Z" fill="url(#f4c33f47-2f38-4445-b5a1-796081e1d259)"/></g><path d="M71.17,47.39c0,3.12.76,5.36,2.26,6.74a8.6,8.6,0,0,0,6,2.08c.62,0,1.29,0,2-.09a8.63,8.63,0,0,0,1.88-.35,3.21,3.21,0,0,0,.09-.71v-.71a15.82,15.82,0,0,0-.53-3.9,8.64,8.64,0,0,1-.91.15c-.31,0-.6,0-.85,0a4.32,4.32,0,0,1-1.46-.2,1.87,1.87,0,0,1-1-.71,3.32,3.32,0,0,1-.53-1.44A12.58,12.58,0,0,1,78,45.86V20.33A20.13,20.13,0,0,0,74.63,20a20.45,20.45,0,0,0-3.46.29Z" fill="#1d1d1b"/><path d="M94.85,50.8,93.58,51a9,9,0,0,1-1.46.12c-.42,0-.92,0-1.48-.07a5.29,5.29,0,0,1-1.61-.4,3.12,3.12,0,0,1-1.29-1,3.07,3.07,0,0,1-.53-1.94A3,3,0,0,1,88.61,45a7,7,0,0,1,3.77-.85c.35,0,.76,0,1.21.07s.88.11,1.28.17V50.8Zm0-10.86c-1.14-.09-2.18-.15-3.12-.15a19.14,19.14,0,0,0-3.9.41,11.05,11.05,0,0,0-3.53,1.37,7.61,7.61,0,0,0-2.58,2.53,7.27,7.27,0,0,0-1,3.92A8.85,8.85,0,0,0,81.53,52a6.81,6.81,0,0,0,2.29,2.62A9.53,9.53,0,0,0,87.38,56a22.12,22.12,0,0,0,4.56.44,28.51,28.51,0,0,0,5.5-.48,41.15,41.15,0,0,0,4.14-1V40.38c0-3.56-1-6.17-2.85-7.79s-4.55-2.44-7.91-2.44a26.55,26.55,0,0,0-4,.34,25.63,25.63,0,0,0-4.29,1.07,9.17,9.17,0,0,0,.33,2.68,12.43,12.43,0,0,0,1,2.38,17.26,17.26,0,0,1,5.6-1,13.76,13.76,0,0,1,2.22.15,4.44,4.44,0,0,1,1.68.56,2.83,2.83,0,0,1,1.08,1.14,4.12,4.12,0,0,1,.39,1.89v.59Z" fill="#1d1d1b"/><path d="M102.75,55.91a21,21,0,0,0,3.36.29,21.34,21.34,0,0,0,3.42-.29V30.74h-10a11.16,11.16,0,0,0-.3,2.58c0,.42,0,.86.07,1.33A9.36,9.36,0,0,0,99.49,36h3.26Zm.77-29.2c.65,0,1.23.05,1.76.05s1.15,0,1.77-.05a12,12,0,0,0,1.78-.2,15.15,15.15,0,0,0,.19-1.65c0-.54,0-1.09,0-1.61s0-1.09,0-1.63a16.19,16.19,0,0,0-.19-1.64,17.73,17.73,0,0,0-1.81-.21c-.65-.05-1.25-.08-1.8-.08s-1.09,0-1.73.08a17.22,17.22,0,0,0-1.77.21,18.86,18.86,0,0,0-.29,3.26,20.25,20.25,0,0,0,.29,3.26,17.52,17.52,0,0,0,1.8.21m7,29.2a20.12,20.12,0,0,0,3.41.29,21,21,0,0,0,3.46-.29V20.33A20,20,0,0,0,114,20a19.14,19.14,0,0,0-3.41.29Zm15.14,0a24.65,24.65,0,0,0,3.61.29,27.11,27.11,0,0,0,3.85-.29l-7.5-13.54,6.43-11.64a21.37,21.37,0,0,0-3.61-.29,24.67,24.67,0,0,0-3.85.29l-6.23,12Z" fill="#1d1d1b"/><path d="M143.28,50.8,142,51a9,9,0,0,1-1.46.12c-.42,0-.92,0-1.48-.07a5.36,5.36,0,0,1-1.61-.4,3.12,3.12,0,0,1-1.29-1,3.07,3.07,0,0,1-.53-1.94A3,3,0,0,1,137.05,45a7.11,7.11,0,0,1,3.78-.85c.36,0,.76,0,1.21.07s.88.11,1.26.17V50.8Zm0-10.86c-1.13-.09-2.16-.15-3.12-.15a19,19,0,0,0-3.89.41,11.11,11.11,0,0,0-3.54,1.37,7.49,7.49,0,0,0-2.57,2.53,7.18,7.18,0,0,0-1,3.92A8.85,8.85,0,0,0,130,52a6.81,6.81,0,0,0,2.29,2.62A9.46,9.46,0,0,0,135.81,56a22.19,22.19,0,0,0,4.56.44,28.69,28.69,0,0,0,5.51-.48A41.85,41.85,0,0,0,150,55V40.38c0-3.56-1-6.17-2.85-7.79s-4.54-2.44-7.92-2.44a26.66,26.66,0,0,0-4,.34A26.12,26.12,0,0,0,131,31.56a9.12,9.12,0,0,0,.35,2.68,11.9,11.9,0,0,0,1,2.38,17.32,17.32,0,0,1,5.61-1,13.63,13.63,0,0,1,2.21.15,4.38,4.38,0,0,1,1.68.56,2.83,2.83,0,0,1,1.08,1.14,4,4,0,0,1,.39,1.89v.59Z" fill="#1d1d1b"/><path d="M87.85,63.44a8,8,0,0,1,1-.07h.43a1.85,1.85,0,0,1,.42.06l.17,4.43,1.83-4.43a5.38,5.38,0,0,1,.84-.07,6.54,6.54,0,0,1,.89.07l.35,4.44L95,65.11a8.64,8.64,0,0,0,.29-.85,4.18,4.18,0,0,0,.07-.62.34.34,0,0,0,0-.11v-.09a6.23,6.23,0,0,1,.94-.07,6.91,6.91,0,0,1,.94.07v.05a2.82,2.82,0,0,1-.14.82,8.26,8.26,0,0,1-.44,1l-2.29,4.47a2.6,2.6,0,0,1-.5,0l-.51,0a5.62,5.62,0,0,1-.85-.07l-.37-4-1.74,4-.49,0a4.19,4.19,0,0,1-.5,0l-.44,0-.44,0Z" fill="#008ed9"/><path d="M97.64,67.4a1.47,1.47,0,0,0,.39.89,1.44,1.44,0,0,0,.94.29,2.79,2.79,0,0,0,.87-.11,6.42,6.42,0,0,0,.8-.28,1.27,1.27,0,0,1,.26.6,4.21,4.21,0,0,1,.08.75l-.49.18c-.18,0-.36.09-.56.12s-.39.07-.59.09a3.45,3.45,0,0,1-.53,0,4.05,4.05,0,0,1-1.29-.18,2.84,2.84,0,0,1-.9-.52,2.23,2.23,0,0,1-.51-.82,3.41,3.41,0,0,1-.17-1.09,4.44,4.44,0,0,1,.26-1.48,4,4,0,0,1,.73-1.29,3.55,3.55,0,0,1,1.15-.93,3.25,3.25,0,0,1,1.55-.36,2.31,2.31,0,0,1,.75.11,1.67,1.67,0,0,1,.63.3,1.83,1.83,0,0,1,.4.48,1.54,1.54,0,0,1,.16.7,1.74,1.74,0,0,1-.26,1,2.31,2.31,0,0,1-.7.69,4.23,4.23,0,0,1-1,.47,7.25,7.25,0,0,1-1.14.26Zm.7-1.26A4.27,4.27,0,0,0,99.1,66a2.54,2.54,0,0,0,.47-.26.69.69,0,0,0,.22-.3.69.69,0,0,0,.06-.31.53.53,0,0,0-.16-.38.56.56,0,0,0-.41-.15,1.2,1.2,0,0,0-.59.15,2,2,0,0,0-.46.37,2.39,2.39,0,0,0-.35.54,3.39,3.39,0,0,0-.21.61Z" fill="#008ed9" fill-rule="evenodd"/><path d="M102.54,68.43a1.2,1.2,0,0,0,.24.06h.32a1.62,1.62,0,0,0,.92-.24,2.31,2.31,0,0,0,1-1.5,3.74,3.74,0,0,0,.12-.91,1.45,1.45,0,0,0-.18-.74.64.64,0,0,0-.6-.32,1.24,1.24,0,0,0-1,.49,3.23,3.23,0,0,0-.6,1.59l-.25,1.56Zm-.82-5.23a12.78,12.78,0,0,0,.23-2,.72.72,0,0,0,0-.22,1.77,1.77,0,0,0,0-.22,2.27,2.27,0,0,1,.48,0l.47,0a5.91,5.91,0,0,1,.79.07,1.53,1.53,0,0,1,.06.47,7,7,0,0,1-.15,1.32l-.31,1.72c.1-.13.22-.25.32-.37a2.12,2.12,0,0,1,.43-.33,1.91,1.91,0,0,1,.54-.23,2.63,2.63,0,0,1,.72-.09,1.56,1.56,0,0,1,1.31.59,2.66,2.66,0,0,1,.47,1.71,5.58,5.58,0,0,1-.22,1.55,3.8,3.8,0,0,1-2.14,2.43,5.38,5.38,0,0,1-2.14.39,5.82,5.82,0,0,1-1.06-.09,4.56,4.56,0,0,1-.91-.27Z" fill="#008ed9" fill-rule="evenodd"/><path d="M113,64.08l0-.12a4.7,4.7,0,0,0,.08-.58c0-.18,0-.35,0-.47a2,2,0,0,1,.79-.29,4.78,4.78,0,0,1,.88-.09,1.25,1.25,0,0,1,.06.47,3.34,3.34,0,0,1,0,.43,3.66,3.66,0,0,1-.08.5l0,.16h1a6.81,6.81,0,0,1-.09.69,5.79,5.79,0,0,1-.15.65h-1l-.26,1.5a4,4,0,0,1-.55,1.48,2.89,2.89,0,0,1-.91,1,3.31,3.31,0,0,1-1.19.48,5.8,5.8,0,0,1-1.41.16,4.73,4.73,0,0,1-1.16-.14,2.87,2.87,0,0,1-.94-.43,2,2,0,0,1-.62-.74,2.44,2.44,0,0,1-.22-1.09,3.07,3.07,0,0,1,.16-1,3.23,3.23,0,0,1,.44-.8,2.76,2.76,0,0,1,.62-.61,3.32,3.32,0,0,1,.69-.37,1.91,1.91,0,0,1-.6-.6,1.73,1.73,0,0,1-.22-.89,2.28,2.28,0,0,1,.26-1.09,2.16,2.16,0,0,1,.68-.79,2.94,2.94,0,0,1,1-.48,3.77,3.77,0,0,1,1.1-.17,4.82,4.82,0,0,1,.84.06,2.89,2.89,0,0,1,.77.21,2.21,2.21,0,0,1-.11.65,1.77,1.77,0,0,1-.28.66,2.21,2.21,0,0,0-.66-.17,2.89,2.89,0,0,0-.53,0,2.14,2.14,0,0,0-.5.06,1.48,1.48,0,0,0-.42.2,1,1,0,0,0-.29.33,1,1,0,0,0-.1.49.92.92,0,0,0,.21.61,1,1,0,0,0,.73.22h2Zm-.23,1.32h-1.54a3.53,3.53,0,0,0-.73.07,2.23,2.23,0,0,0-.44.15,1.8,1.8,0,0,0-.71.66,1.84,1.84,0,0,0-.27,1,1,1,0,0,0,.36.85,1.48,1.48,0,0,0,1,.3,2.18,2.18,0,0,0,.89-.15,1.72,1.72,0,0,0,.63-.41,2.56,2.56,0,0,0,.42-.63,3.4,3.4,0,0,0,.23-.82Z" fill="#1d1d1b" fill-rule="evenodd"/><path d="M116.09,63.44a1.39,1.39,0,0,1,.35,0,2.25,2.25,0,0,1,.38,0,2,2,0,0,1,.36,0l.33,0a.48.48,0,0,1,.06.18,1.49,1.49,0,0,1,.07.25,1.75,1.75,0,0,1,0,.24,1.77,1.77,0,0,1,0,.21A2,2,0,0,1,118,64a2.54,2.54,0,0,1,.38-.34,2.1,2.1,0,0,1,.5-.24,2,2,0,0,1,.62-.09,1.79,1.79,0,0,1,1.91,1.14,2.59,2.59,0,0,1,.69-.79,1.83,1.83,0,0,1,1.15-.35,1.92,1.92,0,0,1,1.59.61,2.74,2.74,0,0,1,.52,1.86v4a6.93,6.93,0,0,1-.88.07,6.65,6.65,0,0,1-.88-.07V66.22a2.47,2.47,0,0,0-.17-1,.66.66,0,0,0-.67-.36,1.29,1.29,0,0,0-.42.06.84.84,0,0,0-.36.22,1.3,1.3,0,0,0-.28.47,2.74,2.74,0,0,0-.1.78v3.44a6.79,6.79,0,0,1-.88.07,6.65,6.65,0,0,1-.88-.07V66.22a2.47,2.47,0,0,0-.17-1,.66.66,0,0,0-.67-.36,1.29,1.29,0,0,0-.42.06.82.82,0,0,0-.38.24,1.12,1.12,0,0,0-.26.5,3.08,3.08,0,0,0-.09.83v3.34a6.65,6.65,0,0,1-.88.07,6.79,6.79,0,0,1-.88-.07V63.44Z" fill="#1d1d1b"/><path d="M128.63,70a3.46,3.46,0,0,1-1.35-.24,2.84,2.84,0,0,1-1-.7,3.07,3.07,0,0,1-.56-1.06,4.56,4.56,0,0,1-.18-1.31,4.61,4.61,0,0,1,.18-1.31,3.62,3.62,0,0,1,.56-1.07,2.73,2.73,0,0,1,1-.71,3.45,3.45,0,0,1,1.35-.26,3.4,3.4,0,0,1,1.34.26,2.42,2.42,0,0,1,1,.71,2.88,2.88,0,0,1,.56,1.07,4.61,4.61,0,0,1,.18,1.31,4.56,4.56,0,0,1-.18,1.31,3.07,3.07,0,0,1-.56,1.06,2.71,2.71,0,0,1-1,.7,3.34,3.34,0,0,1-1.34.24m0-1.33a1.06,1.06,0,0,0,1-.5,3.8,3.8,0,0,0,0-3,1,1,0,0,0-1-.52,1.06,1.06,0,0,0-1,.52,2.88,2.88,0,0,0-.3,1.47,2.94,2.94,0,0,0,.3,1.49,1.1,1.1,0,0,0,1,.5m3.44-7.83a6.36,6.36,0,0,1,.86-.07,6.65,6.65,0,0,1,.88.07v3.26a1.28,1.28,0,0,1,.62-.54,2.13,2.13,0,0,1,1-.23,2.56,2.56,0,0,1,1,.2,2.1,2.1,0,0,1,.82.6,2.88,2.88,0,0,1,.54,1,4.37,4.37,0,0,1,.2,1.43,4.1,4.1,0,0,1-.24,1.44,3.06,3.06,0,0,1-.72,1.07,3,3,0,0,1-1.15.7,4.78,4.78,0,0,1-1.53.23l-.58,0-.6-.08-.59-.1a5.3,5.3,0,0,1-.52-.17V60.8Zm1.74,7.63a1.14,1.14,0,0,0,.3.06h.35a1.65,1.65,0,0,0,1.26-.47,2.05,2.05,0,0,0,.45-1.47,2.61,2.61,0,0,0-.28-1.35,1.05,1.05,0,0,0-1-.47,1.08,1.08,0,0,0-.82.34,1.4,1.4,0,0,0-.3,1Zm4.91-3.65h-.82a3.43,3.43,0,0,1-.06-.34c0-.12,0-.24,0-.35a3.5,3.5,0,0,1,.07-.65h2.55v6.37a6.63,6.63,0,0,1-.86.07,6.09,6.09,0,0,1-.85-.07v-5Zm-.26-2.42a5.78,5.78,0,0,1-.07-.81,6.05,6.05,0,0,1,.07-.82,2.12,2.12,0,0,1,.44,0l.44,0,.46,0,.45,0a1.86,1.86,0,0,1,.05.42c0,.14,0,.27,0,.41s0,.27,0,.41,0,.27-.05.43a2.09,2.09,0,0,1-.45,0,3.39,3.39,0,0,1-.44,0,3.47,3.47,0,0,1-.44,0c-.17,0-.32,0-.46-.08" fill="#1d1d1b" fill-rule="evenodd"/><path d="M141.13,60.8a6.79,6.79,0,0,1,.88-.07,6.92,6.92,0,0,1,.87.07v6.48a5.34,5.34,0,0,0,0,.62,1,1,0,0,0,.13.36.51.51,0,0,0,.24.17,1.4,1.4,0,0,0,.37,0h.21l.23,0a3.78,3.78,0,0,1,.13,1v.19a.55.55,0,0,1,0,.16,1.52,1.52,0,0,1-.48.09l-.5,0a2.18,2.18,0,0,1-1.53-.51,2.24,2.24,0,0,1-.56-1.71V60.8Z" fill="#1d1d1b"/><path d="M145.57,67.17a1.41,1.41,0,0,0,.52,1.08,2.13,2.13,0,0,0,1.23.33,5.08,5.08,0,0,0,.85-.08,6.26,6.26,0,0,0,.83-.22,2.5,2.5,0,0,1,.23.59,2.88,2.88,0,0,1,.1.74,6.08,6.08,0,0,1-2.16.36,4.19,4.19,0,0,1-1.54-.24,2.77,2.77,0,0,1-1-.68,3.36,3.36,0,0,1-.59-1,4.61,4.61,0,0,1-.18-1.31,4.06,4.06,0,0,1,.2-1.32,3.18,3.18,0,0,1,.57-1.08,2.62,2.62,0,0,1,1-.71,3.13,3.13,0,0,1,1.35-.28,2.65,2.65,0,0,1,1.18.25,2.45,2.45,0,0,1,.88.63,2.84,2.84,0,0,1,.56,1,3.91,3.91,0,0,1,.18,1.2,3.71,3.71,0,0,1,0,.47,3.25,3.25,0,0,1,0,.37h-4.08Zm2.5-1.23a1.46,1.46,0,0,0-.33-1,1,1,0,0,0-.83-.37A1.22,1.22,0,0,0,146,65a1.65,1.65,0,0,0-.38,1Z" fill="#1d1d1b" fill-rule="evenodd"/><path d="M22.91,9.91a2.65,2.65,0,1,0,1.57-3.39,2.64,2.64,0,0,0-1.57,3.39M54.3,37.84a13.71,13.71,0,0,0-.94,2.67l2.8-.43a16.48,16.48,0,0,0,3.35-.83,7.59,7.59,0,0,0,2.05-1.14,3.19,3.19,0,0,0,1.31-2.56,2.24,2.24,0,0,0-.67-1.67,2.57,2.57,0,0,0-1.81-.65,5.38,5.38,0,0,0-2.56.62,7,7,0,0,0-2,1.65,10.08,10.08,0,0,0-1.5,2.34M67.37,51.65a28.24,28.24,0,0,1-2,4.09c-.76.21-1.53.39-2.35.55s-1.73.28-2.6.37a20,20,0,0,1-2.31.14,17.62,17.62,0,0,1-5.64-.8,10.43,10.43,0,0,1-3.88-2.29,9,9,0,0,1-2.28-3.62,14.8,14.8,0,0,1-.73-4.73A18.94,18.94,0,0,1,46,41.45l-7.53,14.7c-.65.11-1.38.18-2.18.24s-1.58.08-2.29.08a21.57,21.57,0,0,1-3.73-.32L28.7,38.4,21.09,56.15c-.69.08-1.41.14-2.16.21a21,21,0,0,1-2.21.11c-.61,0-1.26,0-1.94-.08a19,19,0,0,1-1.89-.24L10,28.26a28.68,28.68,0,0,1,4.43-.32c.6,0,1.22,0,1.86.06a9.92,9.92,0,0,1,1.87.27l.75,19.38,8-19.38A19.82,19.82,0,0,1,30.64,28a24.73,24.73,0,0,1,3.94.32l1.51,19.44,5.23-12.15a19.39,19.39,0,0,0,1.25-3.73,14.6,14.6,0,0,0,.32-2.69,3.34,3.34,0,0,0,0-.49c0-.14,0-.27,0-.38A23.22,23.22,0,0,1,46.87,28a22.78,22.78,0,0,1,4,.32v.21a11.91,11.91,0,0,1-.53,3.63c-.09.27-.12.56-.22.86A16,16,0,0,1,55,29.17a14.41,14.41,0,0,1,6.71-1.53,13,13,0,0,1,3.32.42,7.68,7.68,0,0,1,2.67,1.32,6.14,6.14,0,0,1,1.77,2.18,1.78,1.78,0,0,1,.17.4,34,34,0,0,1,.43,3.51A7.23,7.23,0,0,1,69,38.79a10,10,0,0,1-3,3,18.09,18.09,0,0,1-4.29,2,31.26,31.26,0,0,1-5,1.17l-3.62.59a5.19,5.19,0,0,0,5.83,5.14,14.05,14.05,0,0,0,3.81-.46,30.93,30.93,0,0,0,3.48-1.21,5.41,5.41,0,0,1,1.19,2.58" fill="#fff"/></svg>