<svg xmlns="http://www.w3.org/2000/svg" xmlns:xlink="http://www.w3.org/1999/xlink" width="150" viewBox="0 0 989.5 461.5"><defs><path id="a" d="M0 230.5C0 357.8 103.2 461 230.5 461S461 357.8 461 230.5C461.1 103.2 357.9 0 230.5 0S0 103.2 0 230.5"/></defs><clipPath id="b"><use xlink:href="#a" overflow="visible"/></clipPath><linearGradient id="c" gradientUnits="userSpaceOnUse" x1="-5680.4" y1="2059.903" x2="-5674.489" y2="2059.903" gradientTransform="scale(78.0193 -78.0193) rotate(-60 -4623.732 -3890.896)"><stop offset="0" stop-color="#008ed9"/><stop offset="1" stop-color="#126bbb"/></linearGradient><path clip-path="url(#b)" fill="url(#c)" d="M345.8-199.6l314.9 545.4-545.4 314.9-314.9-545.4z"/><path fill="#1D1D1B" d="M469.5 312.6c0 20.6 5 35.4 14.9 44.5 10 9.1 23.2 13.7 39.7 13.7 4.1 0 8.5-.2 13.3-.6 4.8-.4 8.9-1.2 12.4-2.3.4-1.7.6-3.3.6-4.7v-4.7c0-8.3-1.2-16.9-3.5-25.7-1.9.4-3.9.8-6 1-2 .2-3.9.3-5.6.3-3.9 0-7.1-.4-9.6-1.3-2.6-.9-4.7-2.4-6.3-4.7-1.6-2.2-2.8-5.4-3.5-9.5-.8-4.1-1.1-9.4-1.1-16.1V134.1c-7.7-1.3-15.2-1.9-22.5-1.9-7.5 0-15.1.6-22.8 1.9v178.5z"/><path fill="#1D1D1B" d="M625.7 335.1c-2.4.4-5.1.9-8.4 1.4-3.2.5-6.4.8-9.6.8-2.8 0-6.1-.2-9.8-.5-3.8-.3-7.3-1.2-10.6-2.6-3.3-1.4-6.2-3.6-8.5-6.6-2.4-3-3.5-7.3-3.5-12.8 0-8.4 3.1-14.4 9.2-18.1 6.1-3.8 14.4-5.6 24.9-5.6 2.3 0 5 .2 8 .5s5.8.7 8.4 1.1v42.4zm0-71.6c-7.5-.6-14.4-1-20.6-1-8.6 0-17.1.9-25.7 2.7-8.6 1.8-16.4 4.8-23.3 9-7 4.2-12.6 9.7-17 16.7s-6.6 15.6-6.6 25.9c0 10.3 1.8 18.9 5.3 26 3.5 7.1 8.6 12.8 15.1 17.3s14.4 7.7 23.5 9.6c9.1 1.9 19.1 2.9 30.1 2.9 13.5 0 25.6-1.1 36.3-3.2 10.7-2.1 19.8-4.4 27.3-6.7v-96.3c0-23.5-6.3-40.7-18.8-51.4-12.5-10.7-30-16.1-52.2-16.1-8.2 0-16.9.8-26.4 2.2-9.4 1.5-18.9 3.9-28.3 7.1 0 6.9.7 12.7 2.2 17.7 1.5 4.9 3.7 10.2 6.7 15.7 13.1-4.5 25.4-6.7 37-6.7 5.4 0 10.2.3 14.6 1 4.4.6 8.1 1.9 11.1 3.7 3 1.8 5.4 4.3 7.1 7.5 1.7 3.2 2.6 7.4 2.6 12.5v3.9z"/><path fill="#1D1D1B" d="M677.8 368.8c7.7 1.3 15.1 1.9 22.2 1.9 7.3 0 14.8-.6 22.5-1.9v-166h-66.2c-1.3 5.6-2 11.2-2 17 0 2.8.2 5.7.5 8.8.3 3.1.8 6 1.5 8.8h21.5v131.4zm5.1-192.6c4.3.2 8.1.3 11.6.3 3.6 0 7.6-.1 11.7-.3 4.2-.2 8.1-.6 11.7-1.3.6-3.6 1.1-7.3 1.3-10.9.2-3.6.3-7.2.3-10.6 0-3.6-.1-7.2-.3-10.8-.2-3.5-.7-7.1-1.3-10.8-3.6-.6-7.6-1.1-11.9-1.4-4.3-.3-8.3-.5-11.9-.5-3.4 0-7.2.2-11.4.5s-8.1.8-11.7 1.4c-1.3 7.5-1.9 14.7-1.9 21.5 0 7.1.7 14.2 1.9 21.5 3.6.7 7.6 1.1 11.9 1.4M729.2 368.8c7.3 1.3 14.8 1.9 22.5 1.9 7.7 0 15.3-.6 22.8-1.9V134.1c-7.5-1.3-15.1-1.9-22.8-1.9-7.7 0-15.2.6-22.5 1.9v234.7zm99.9 0c8.4 1.3 16.3 1.9 23.8 1.9 8.2 0 16.6-.6 25.4-1.9l-49.5-89.3 42.4-76.8c-7.7-1.3-15.6-1.9-23.8-1.9-8.6 0-17 .6-25.4 1.9l-41.1 79 48.2 87.1z"/><path fill="#1D1D1B" d="M945.2 335.1c-2.4.4-5.1.9-8.3 1.4-3.2.5-6.4.8-9.6.8-2.8 0-6.1-.2-9.8-.5-3.7-.3-7.3-1.2-10.6-2.6-3.3-1.4-6.2-3.6-8.5-6.6-2.4-3-3.5-7.3-3.5-12.8 0-8.4 3.1-14.4 9.2-18.1 6.1-3.8 14.4-5.6 24.9-5.6 2.4 0 5 .2 8 .5s5.8.7 8.3 1.1v42.4zm0-71.6c-7.5-.6-14.3-1-20.6-1-8.6 0-17.1.9-25.7 2.7-8.6 1.8-16.3 4.8-23.3 9s-12.6 9.7-17 16.7-6.6 15.6-6.6 25.9c0 10.3 1.8 18.9 5.3 26 3.5 7.1 8.6 12.8 15.1 17.3s14.3 7.7 23.5 9.6c9.1 1.9 19.1 2.9 30.1 2.9 13.5 0 25.6-1.1 36.3-3.2 10.7-2.1 19.8-4.4 27.3-6.7v-96.3c0-23.5-6.3-40.7-18.8-51.4-12.5-10.7-29.9-16.1-52.2-16.1-8.1 0-16.9.8-26.4 2.2-9.4 1.5-18.9 3.9-28.3 7.1 0 6.9.8 12.7 2.3 17.7 1.5 4.9 3.7 10.2 6.8 15.7 13.1-4.5 25.4-6.7 37-6.7 5.4 0 10.2.3 14.6 1 4.4.6 8.1 1.9 11.1 3.7 3 1.8 5.4 4.3 7.1 7.5 1.7 3.2 2.6 7.4 2.6 12.5v3.9z"/><path fill="#008ED9" d="M579.5 418.5c2.1-.3 4.3-.5 6.7-.5.9 0 1.8 0 2.8.1 1 0 1.9.2 2.8.4l1.1 29.2 12.1-29.2c1.7-.3 3.5-.5 5.5-.5s4 .2 5.9.5l2.3 29.3 7.9-18.3c.9-2.1 1.5-4 1.9-5.6.3-1.6.5-3 .5-4.1 0-.3 0-.5-.1-.7v-.6c1.8-.3 3.8-.5 6.2-.5 2.2 0 4.3.2 6.2.5v.3c0 1.7-.3 3.5-.9 5.4-.6 1.9-1.6 4.1-2.9 6.8l-15.1 29.5c-1 .2-2.1.3-3.3.3-1.2.1-2.3.2-3.4.2-2 0-3.8-.2-5.6-.5l-2.4-26.7-11.5 26.7c-1 .1-2.1.2-3.2.3-1.1.1-2.3.2-3.3.2-.9 0-1.9-.1-2.9-.2s-2-.2-2.9-.3l-4.4-42z"/><path fill-rule="evenodd" clip-rule="evenodd" fill="#008ED9" d="M644.1 444.6c.3 2.6 1.2 4.5 2.6 5.9 1.4 1.2 3.5 1.9 6.2 1.9 2.2 0 4.1-.2 5.7-.7 1.7-.5 3.4-1.1 5.3-1.9.9 1.1 1.4 2.4 1.7 4 .3 1.5.5 3.1.5 4.9-.9.4-2 .8-3.2 1.2-1.2.3-2.4.6-3.7.8-1.3.3-2.6.5-3.9.6-1.3.2-2.5.2-3.5.2-3.3 0-6.2-.4-8.5-1.2-2.3-.8-4.3-2-5.9-3.4-1.5-1.5-2.7-3.3-3.4-5.4-.7-2.2-1.1-4.6-1.1-7.2 0-3.3.6-6.6 1.7-9.8 1.1-3.2 2.7-6 4.8-8.5 2.1-2.6 4.7-4.6 7.6-6.1 3-1.6 6.4-2.4 10.2-2.4 1.8 0 3.4.2 5 .7 1.6.4 2.9 1.1 4.1 2 1.1.9 2 2 2.7 3.2.6 1.3 1 2.8 1 4.6 0 2.4-.6 4.6-1.7 6.3-1.1 1.8-2.7 3.3-4.6 4.6-1.9 1.2-4.1 2.3-6.5 3.1-2.4.8-4.9 1.3-7.5 1.7l-5.6.9zm4.6-8.3c2.1-.3 3.7-.7 5-1.2 1.3-.5 2.3-1.1 3.1-1.7.8-.7 1.3-1.3 1.5-2 .3-.7.4-1.3.4-2 0-1-.4-1.9-1.1-2.5-.7-.7-1.5-1-2.7-1-1.4 0-2.7.3-3.9 1-1.1.6-2.1 1.4-3 2.4-.9 1-1.6 2.2-2.3 3.6-.6 1.3-1.1 2.6-1.4 4l4.4-.6z"/><path fill-rule="evenodd" clip-rule="evenodd" fill="#008ED9" d="M676.4 451.4c.4.2 1 .3 1.6.4.7.1 1.4.1 2.1.1 2.4 0 4.4-.5 6.1-1.6 1.7-1.1 3.1-2.6 4.2-4.2 1.1-1.7 2-3.6 2.4-5.7.5-2.1.8-4.1.8-6 0-1.9-.4-3.5-1.2-4.9-.8-1.4-2.1-2.1-4-2.1-2.5 0-4.6 1.1-6.4 3.2-1.8 2.1-3.1 5.6-3.9 10.5l-1.7 10.3zm-5.4-34.5c1-5.7 1.5-10 1.5-12.9 0-.6 0-1.1-.1-1.5 0-.4 0-.9-.1-1.4.9-.2 2-.3 3.2-.3 1.2-.1 2.2-.2 3.1-.2 1.6 0 3.3.2 5.2.5.3.8.4 1.8.4 3.1 0 2.4-.3 5.3-1 8.7l-2 11.3c.6-.8 1.4-1.6 2.1-2.4.8-.8 1.7-1.5 2.8-2.2 1-.6 2.2-1.2 3.6-1.5 1.4-.4 2.9-.6 4.7-.6 3.8 0 6.7 1.3 8.7 3.9 2.1 2.6 3.1 6.4 3.1 11.3 0 3.4-.5 6.7-1.5 10.2-1 3.4-2.6 6.5-5 9.3-2.3 2.8-5.3 5-9.1 6.7-3.8 1.7-8.5 2.6-14.1 2.6-2.5 0-4.9-.2-7-.6-2.1-.4-4.1-1-6-1.8l7.5-42.2z"/><path fill-rule="evenodd" clip-rule="evenodd" fill="#1D1D1B" d="M745.5 422.7l.2-.8c.3-1.4.4-2.6.5-3.8.1-1.2.1-2.3.1-3.1 1.4-.9 3.1-1.6 5.2-1.9 2.1-.4 4-.6 5.8-.6.3.8.4 1.8.4 3.1 0 .9-.1 1.8-.2 2.8-.1 1-.3 2.1-.5 3.3l-.2 1.1h6.5c-.1 1.6-.3 3.1-.6 4.5-.2 1.3-.5 2.7-1 4.3h-6.4l-1.7 9.9c-.7 3.9-1.9 7.2-3.6 9.8-1.6 2.6-3.6 4.7-6 6.3-2.3 1.5-5 2.6-7.9 3.2-2.9.7-6 1-9.3 1-2.7 0-5.3-.3-7.6-.9-2.3-.6-4.4-1.5-6.2-2.8-1.7-1.2-3.1-2.9-4.1-4.9-1-2-1.5-4.4-1.5-7.2 0-2.4.4-4.6 1.1-6.5.8-2 1.7-3.8 2.9-5.3 1.2-1.6 2.5-2.9 4.1-4 1.5-1.1 3-1.9 4.5-2.5-1.5-.9-2.8-2.2-3.9-3.9-1-1.7-1.5-3.7-1.5-5.9 0-2.7.6-5.1 1.7-7.2 1.1-2.1 2.6-3.8 4.5-5.2 1.9-1.4 4-2.5 6.4-3.2 2.4-.7 4.8-1.1 7.3-1.1 1.8 0 3.6.1 5.5.4 1.9.3 3.6.7 5.1 1.4-.1 1.5-.3 3-.7 4.3-.3 1.4-.9 2.8-1.9 4.3-1.7-.6-3.1-1-4.3-1.1-1.1-.2-2.3-.3-3.5-.3-1.1 0-2.3.1-3.3.4-1 .3-2 .7-2.8 1.3-.8.5-1.4 1.3-1.9 2.2-.5.9-.7 1.9-.7 3.2 0 1.6.5 2.9 1.4 4 1 1 2.6 1.5 4.8 1.5h13.3zm-1.5 8.7h-10.2c-2 0-3.5.2-4.8.5-1.2.3-2.2.6-2.9 1-2 1-3.5 2.4-4.7 4.3-1.2 1.9-1.8 4.1-1.8 6.7 0 2.4.8 4.3 2.4 5.6 1.6 1.4 3.8 2 6.6 2 2.3 0 4.2-.3 5.9-1 1.6-.7 3-1.5 4.1-2.7 1.1-1.2 2.1-2.6 2.8-4.2.7-1.6 1.2-3.4 1.5-5.4l1.1-6.8z"/><path fill="#1D1D1B" d="M765.8 418.5c.8-.2 1.5-.3 2.3-.3.8-.1 1.6-.2 2.5-.2.9 0 1.7.1 2.4.2s1.4.2 2.2.3c.2.3.3.7.4 1.2.2.5.3 1 .4 1.6.1.5.2 1.1.2 1.6.1.5.2 1 .2 1.4.4-.8 1-1.6 1.7-2.4.7-.8 1.5-1.5 2.5-2.2 1-.7 2.1-1.2 3.3-1.6 1.2-.4 2.6-.6 4.1-.6 6.6 0 10.8 2.5 12.6 7.5 1.1-2 2.6-3.7 4.5-5.2 2-1.5 4.5-2.3 7.6-2.3 4.8 0 8.3 1.3 10.5 4 2.3 2.6 3.4 6.7 3.4 12.3v26.7c-2 .3-3.9.5-5.8.5s-3.8-.2-5.8-.5v-23.7c0-2.9-.4-5.2-1.1-6.7-.7-1.6-2.2-2.4-4.4-2.4-.9 0-1.8.1-2.8.4-.9.3-1.7.8-2.4 1.5s-1.3 1.7-1.8 3.1c-.4 1.3-.7 3-.7 5.1v22.7c-2 .3-3.9.5-5.8.5s-3.8-.2-5.8-.5v-23.7c0-2.9-.4-5.2-1.1-6.7-.7-1.6-2.2-2.4-4.4-2.4-.9 0-1.8.1-2.8.4-.9.3-1.8.8-2.5 1.6s-1.3 1.8-1.7 3.3c-.4 1.4-.6 3.2-.6 5.5v22c-2 .3-3.9.5-5.8.5s-3.8-.2-5.8-.5v-42z"/><path fill-rule="evenodd" clip-rule="evenodd" fill="#1D1D1B" d="M848.5 461.5c-3.4 0-6.4-.5-8.9-1.6s-4.6-2.7-6.3-4.6c-1.6-2-2.9-4.3-3.7-7-.8-2.6-1.2-5.5-1.2-8.6 0-3.1.4-6 1.2-8.7.9-2.7 2.1-5 3.7-7 1.7-2 3.8-3.6 6.3-4.7s5.5-1.7 8.9-1.7c3.4 0 6.4.6 8.9 1.7 2.6 1.1 4.7 2.7 6.3 4.7 1.7 2 2.9 4.3 3.7 7 .8 2.7 1.2 5.6 1.2 8.7 0 3.1-.4 6-1.2 8.6-.8 2.7-2.1 5-3.7 7-1.7 2-3.8 3.5-6.3 4.6-2.5 1.1-5.4 1.6-8.9 1.6m0-8.8c3 0 5.2-1.1 6.5-3.3 1.4-2.3 2-5.5 2-9.8 0-4.2-.7-7.5-2-9.7-1.3-2.3-3.5-3.4-6.5-3.4s-5.1 1.1-6.5 3.4c-1.3 2.2-2 5.4-2 9.7 0 4.2.6 7.5 2 9.8 1.4 2.2 3.6 3.3 6.5 3.3M871.2 401.1c2-.3 3.8-.5 5.7-.5 1.9 0 3.8.2 5.8.5v21.5c.8-1.5 2.2-2.7 4.1-3.6 1.9-1 4.1-1.5 6.5-1.5s4.7.4 6.8 1.3c2.1.9 3.9 2.2 5.4 4 1.5 1.7 2.7 3.9 3.6 6.6.9 2.6 1.3 5.8 1.3 9.4 0 3.5-.5 6.7-1.6 9.5s-2.7 5.1-4.7 7.1c-2.1 2-4.6 3.5-7.6 4.6-3 1-6.3 1.5-10.1 1.5-1.2 0-2.5-.1-3.8-.2-1.3-.1-2.6-.3-4-.5s-2.7-.4-3.9-.7c-1.2-.3-2.4-.7-3.4-1.1v-57.9zm11.5 50.3c.7.2 1.3.4 2 .4.8.1 1.5.1 2.3.1 3.5 0 6.3-1 8.3-3.1 2-2.1 3-5.3 3-9.7 0-3.9-.6-6.9-1.9-8.9-1.2-2.1-3.4-3.1-6.3-3.1-2.2 0-4 .7-5.4 2.2-1.4 1.4-2 3.7-2 6.7v15.4zM915.1 427.3h-5.4c-.2-.7-.3-1.4-.4-2.2-.1-.8-.1-1.6-.1-2.3 0-1.5.2-2.9.5-4.3h16.8v42c-2 .3-3.9.5-5.7.5-1.8 0-3.7-.2-5.6-.5v-33.2zm-1.7-15.9c-.3-1.8-.5-3.7-.5-5.4 0-1.7.2-3.5.5-5.4.9-.2 1.9-.3 2.9-.3 1.1-.1 2.1-.2 2.9-.2.9 0 1.9.1 3 .2s2.1.2 3 .3c.2.9.3 1.8.3 2.8.1.9.1 1.8.1 2.7 0 .9 0 1.8-.1 2.7-.1.9-.2 1.8-.3 2.8-.9.2-1.9.3-3 .3-1 .1-2 .1-2.9.1-.9 0-1.8 0-2.9-.1-1.1-.2-2.1-.3-3-.5"/><path fill="#1D1D1B" d="M931 401.1c2-.3 3.9-.5 5.8-.5 1.8 0 3.7.2 5.7.5v42.7c0 1.7.1 3 .2 4.1.2 1 .5 1.8.9 2.4.4.5 1 .9 1.6 1.1.7.2 1.5.3 2.4.3.4 0 .9 0 1.4-.1.5-.1 1.1-.1 1.5-.2.6 2.2.9 4.4.9 6.5v1.2c0 .3-.1.7-.2 1.1-.9.3-1.9.5-3.2.6-1.2.1-2.3.2-3.3.2-4.2 0-7.5-1.1-10.1-3.4-2.5-2.3-3.7-6.1-3.7-11.3v-45.2z"/><path fill-rule="evenodd" clip-rule="evenodd" fill="#1D1D1B" d="M960.3 443.1c.2 3.2 1.4 5.6 3.4 7.1 2.1 1.5 4.8 2.2 8.1 2.2 1.8 0 3.7-.2 5.6-.5 2-.4 3.8-.9 5.5-1.5.6 1.1 1.1 2.4 1.5 3.9.4 1.5.7 3.1.7 4.9-4.2 1.6-9 2.4-14.3 2.4-3.9 0-7.3-.5-10.1-1.6s-5-2.6-6.8-4.5c-1.7-2-3-4.3-3.9-6.9-.8-2.7-1.2-5.6-1.2-8.7 0-3.1.4-6 1.3-8.7.9-2.7 2.1-5.1 3.8-7.1 1.7-2 3.8-3.6 6.3-4.7 2.5-1.2 5.5-1.8 8.9-1.8 2.9 0 5.5.5 7.8 1.6 2.3 1 4.2 2.4 5.8 4.2 1.6 1.8 2.9 3.9 3.7 6.4.8 2.4 1.2 5.1 1.2 7.9 0 1-.1 2.1-.2 3.1s-.1 1.8-.2 2.4h-26.9zm16.5-8.1c-.1-2.6-.8-4.7-2.2-6.3-1.3-1.6-3.1-2.4-5.5-2.4-2.7 0-4.8.8-6.2 2.3-1.4 1.5-2.2 3.7-2.5 6.4h16.4z"/><path fill="#FFF" d="M151.1 65.4c3.3 9.1 13.3 13.7 22.4 10.4 9.1-3.3 13.7-13.3 10.4-22.4-3.3-9.1-13.3-13.7-22.4-10.4-9 3.4-13.7 13.4-10.4 22.4M358.2 249.6c-2.7 5.8-4.8 11.7-6.2 17.6l18.5-2.8c9-1.4 16.4-3.3 22.1-5.5 5.7-2.3 10.2-4.7 13.5-7.5 3.3-2.7 5.6-5.5 6.8-8.4 1.2-2.8 1.8-5.7 1.8-8.5 0-4.5-1.5-8.2-4.4-11-3-2.8-6.9-4.3-11.9-4.3-6.2 0-11.8 1.4-16.9 4.1-5.1 2.7-9.6 6.4-13.4 10.9-3.9 4.4-7.1 9.6-9.9 15.4m86.2 91.1c-3.8 9.8-8.2 18.6-13.2 27-5 1.4-10.1 2.6-15.5 3.6-5.7 1.1-11.4 1.9-17.1 2.5-5.7.6-10.8.9-15.3.9-14.5 0-26.9-1.8-37.2-5.3-10.3-3.6-18.9-8.6-25.6-15.1-6.8-6.5-11.7-14.5-15-23.9-3.2-9.4-4.8-19.8-4.8-31.2 0-8.7.9-17.3 2.7-25.8l-49.7 97c-4.3.7-9.1 1.2-14.4 1.6-5.3.4-10.4.5-15.1.5-8.5 0-16.7-.7-24.6-2.1l-10.3-117.1-50.2 117.1c-4.5.5-9.3.9-14.2 1.4-5 .5-9.9.7-14.6.7-4 0-8.3-.2-12.8-.5-4.5-.4-8.7-.9-12.5-1.6l-18.9-184c9.3-1.4 19-2.1 29.2-2.1 4 0 8.1.1 12.3.4 4.2.2 8.2.8 12.3 1.8l5 127.8 53-127.8c7.4-1.4 15.4-2.1 24.2-2.1 8.8 0 17.4.7 26 2.1l10 128.2 34.5-80.1c4-9.3 6.8-17.5 8.2-24.6 1.4-7.1 2.1-13.1 2.1-17.8 0-1.2-.1-2.3-.2-3.2-.1-.9-.3-1.8-.3-2.5 7.8-1.4 16.6-2.1 26.8-2.1 9.7 0 19.3.7 26.6 2.1v1.4c0 7.6-.9 15.5-3.5 23.9-.6 1.8-.8 3.7-1.5 5.7 8.9-10.3 19.5-18.6 32-25.1 13.2-6.8 27.9-10.1 44.3-10.1 7.8 0 15.1 1 21.9 2.8 6.8 1.9 12.6 4.8 17.6 8.7 5 3.9 8.9 8.7 11.7 14.4.4.8.8 1.7 1.1 2.6 1.3 7.6 2.3 15.4 2.8 23.2-.8 8.3-3.1 15.6-7.2 21.9-5 7.8-11.6 14.5-19.9 19.9-8.3 5.5-17.7 9.9-28.3 13.4-10.6 3.4-21.5 6-32.9 7.7l-23.9 3.9c1.4 11.4 5.2 19.9 11.4 25.5 6.2 5.6 15.2 8.4 27.1 8.4 9.5 0 17.9-1 25.1-3 7.2-2 14.9-4.7 23-8 3.9 4.5 6.5 10.3 7.8 17"/></svg>