<svg id="b7efe522-f553-4c01-a2eb-37e765c87c0b" data-name="Layer 1" xmlns="http://www.w3.org/2000/svg" width="150" viewBox="0 0 150 24.87"><g id="b02a1c42-d37a-4d7f-8c36-a9f456b8f891" data-name="g14"><polygon id="efb4408f-5db2-4d98-a986-6d186872163d" data-name="polygon2" points="17.91 8.05 18 8.05 22.31 24.39 29.32 24.39 35.81 0.47 29.42 0.47 25.82 18.47 25.72 18.47 21.5 0.47 14.59 0.47 9.99 18.47 9.9 18.47 6.63 0.47 0 0.47 5.97 24.39 13.07 24.39 17.91 8.05"/><path id="a360d7e9-f77f-4381-a6c0-9b99f6ae7018" data-name="path4" d="M42.36,9.76c0-2,0-5.64,3-5.64s3.08,3.32,3.08,5.64ZM55.15,13.5C55.39,5.83,54.39,0,45.39,0c-8.81,0-9.75,5.59-9.75,12.13,0,7.48,1.13,12.74,9.75,12.74,3.13,0,5.5-.85,7.06-2.32A8.54,8.54,0,0,0,55,16.34H48.24c0,2-.48,4.27-2.85,4.27-2.93,0-3-4.27-3-7.11Z" fill-rule="evenodd"/><path id="eb0fa5e7-076e-452a-b379-30cf2d472cb8" data-name="path6" d="M67.52.47H60.84L55.75,24.39h6.68L65.94,7.91c.45-2.13,1.18-3.79,3.32-3.79S71.41,5.78,71,7.91L67.45,24.39H74L77.5,7.91c.45-2.13,1.18-3.79,3.31-3.79S83,5.78,82.52,7.91L79,24.39h6.68L89.77,5.21C90.48,1.89,88.08,0,84.91,0a8.91,8.91,0,0,0-6.85,3,4.64,4.64,0,0,0-4.71-3A7.47,7.47,0,0,0,67.1,2.89H67Z"/><path id="ad8c78d2-b755-4b6b-977e-83fa8950f4c8" data-name="path8" d="M98.53,20.61c-2.46,0-2.74-1.57-1.19-8.86,1.06-5,1.83-7.49,4.67-7.49s2.54,2.51,1.49,7.49C101.94,19,101,20.61,98.53,20.61Zm-.9,4.26c8.62,0,10.87-5.26,12.46-12.74C111.49,5.59,111.73,0,102.92,0S92,5.59,90.58,12.13C89,19.61,89,24.87,97.63,24.87Z" fill-rule="evenodd"/><polygon id="ac2104c2-a36b-421c-a133-ce4d8d68f6c9" data-name="polygon10" points="132.54 0.47 126 0.47 118.67 18.43 118.58 18.43 119.03 0.47 112.26 0.47 113.52 24.39 120.86 24.39 132.54 0.47"/><path id="ae5840bf-bd3e-4cf6-925c-78d52324b35c" data-name="path12" d="M137,9.76c.43-2,1.15-5.64,4.23-5.64s2.37,3.32,1.88,5.64Zm12,3.74C150.82,5.83,151.07,0,142.07,0c-8.81,0-10.95,5.59-12.34,12.13-1.59,7.48-1.57,12.74,7.05,12.74a12,12,0,0,0,7.55-2.32,10.94,10.94,0,0,0,3.88-6.21h-6.78c-.42,2-1.38,4.27-3.75,4.27-2.93,0-2.12-4.27-1.52-7.11Z" fill-rule="evenodd"/></g></svg>