<?xml version="1.0" encoding="UTF-8" standalone="no"?>
<svg
   xmlns:dc="http://purl.org/dc/elements/1.1/"
   xmlns:cc="http://creativecommons.org/ns#"
   xmlns:rdf="http://www.w3.org/1999/02/22-rdf-syntax-ns#"
   xmlns:svg="http://www.w3.org/2000/svg"
   xmlns="http://www.w3.org/2000/svg"
   xml:space="preserve"
   enable-background="new 0 0 595.28 841.89"
   viewBox="0 0 439.00437 72.782996"
   width="150"
   height="100"
   y="0px"
   x="0px"
   id="Layer_1"
   version="1.1"><metadata
     id="metadata21"><rdf:RDF><cc:Work
         rdf:about=""><dc:format>image/svg+xml</dc:format><dc:type
           rdf:resource="http://purl.org/dc/dcmitype/StillImage" /><dc:title></dc:title></cc:Work></rdf:RDF></metadata><defs
     id="defs19" /><g
     transform="translate(-77,-384.889)"
     id="g14"><polygon
       id="polygon2"
       points="129.403,408.458 129.681,408.458 142.296,456.287 162.814,456.287 181.807,386.276 163.091,386.276 152.555,438.957 152.278,438.957 139.939,386.276 119.699,386.276 106.251,438.957 105.974,438.957 96.408,386.276 77,386.276 94.468,456.287 115.263,456.287 " /><path
       style="clip-rule:evenodd;fill-rule:evenodd"
       id="path4"
       d="m 200.979,413.449 c 0,-5.961 -0.138,-16.498 8.873,-16.498 9.288,0 9.011,9.704 9.011,16.498 z m 37.431,10.952 c 0.693,-22.459 -2.218,-39.511 -28.558,-39.511 -25.786,0 -28.559,16.359 -28.559,35.49 0,21.904 3.327,37.292 28.559,37.292 9.149,0 16.081,-2.495 20.656,-6.793 4.713,-4.298 7.209,-10.536 7.486,-18.161 H 218.17 c 0,5.822 -1.387,12.478 -8.318,12.478 -8.595,0 -8.873,-12.478 -8.873,-20.795 z" /><path
       id="path6"
       d="m 274.612,386.276 h -19.547 l -14.897,70.01 h 19.547 l 10.266,-48.245 c 1.328,-6.239 3.469,-11.091 9.708,-11.091 6.239,0 6.315,4.852 4.988,11.091 l -10.266,48.245 h 19.131 l 10.267,-48.245 c 1.326,-6.239 3.469,-11.091 9.707,-11.091 6.238,0 6.314,4.852 4.986,11.091 l -10.266,48.245 h 19.549 l 11.947,-56.147 c 2.064,-9.705 -4.936,-15.25 -14.225,-15.25 -8.041,0 -14.176,2.772 -20.047,8.872 -2.01,-5.545 -6.848,-8.872 -13.779,-8.872 -7.348,0 -13.088,2.218 -18.297,8.457 h -0.277 z" /><path
       style="clip-rule:evenodd;fill-rule:evenodd"
       id="path8"
       d="m 365.375,445.196 c -7.209,0 -8.037,-4.575 -3.494,-25.925 3.098,-14.557 5.354,-21.904 13.672,-21.904 8.318,0 7.447,7.347 4.35,21.904 -4.544,21.35 -7.32,25.925 -14.528,25.925 z m -2.655,12.476 c 25.23,0 31.832,-15.388 36.494,-37.292 4.07,-19.131 4.779,-35.49 -21.008,-35.49 -25.785,0 -32.039,16.359 -36.109,35.49 -4.662,21.905 -4.609,37.292 20.623,37.292 z" /><polygon
       id="polygon10"
       points="464.892,386.276 445.759,386.276 424.322,438.818 424.042,438.818 425.38,386.276 405.556,386.276 409.236,456.287 430.724,456.287 " /><path
       style="clip-rule:evenodd;fill-rule:evenodd"
       id="path12"
       d="m 477.841,413.449 c 1.268,-5.961 3.371,-16.498 12.383,-16.498 9.287,0 6.945,9.704 5.5,16.498 z m 35.1,10.952 c 5.473,-22.459 6.189,-39.511 -20.15,-39.511 -25.787,0 -32.039,16.359 -36.111,35.49 -4.66,21.904 -4.607,37.292 20.623,37.292 9.15,0 16.613,-2.495 22.104,-6.793 5.627,-4.298 9.449,-10.536 11.35,-18.161 h -19.824 c -1.24,5.822 -4.041,12.478 -10.973,12.478 -8.596,0 -6.219,-12.478 -4.447,-20.795 z" /></g></svg>