<svg width="131" height="22" viewBox="0 0 131 22" xmlns="http://www.w3.org/2000/svg">
  <g fill="none" fill-rule="evenodd">
    <g class="inherit-fill" fill="#000" fill-rule="nonzero">
      <path d="M9.825 14.41c0 3.166-1.747 4.148-3.82 4.148-1.42 0-2.293-.982-2.293-2.074 0-1.31.873-1.965 2.074-2.183l4.039-.546v.655zm3.712-3.93c0-3.275-1.856-6.004-6.66-6.004-3.82 0-6.222 2.51-6.55 5.24l3.385.764c.109-1.528 1.2-2.838 3.166-2.838 2.074 0 2.947 1.091 2.947 2.401 0 .546-.218.983-1.2 1.201l-4.04.655C2.075 12.227 0 13.864 0 16.812c0 2.51 1.965 4.912 5.24 4.912 2.51 0 4.04-1.31 4.803-2.51 0 1.31.11 1.964.11 2.074h3.493c0-.219-.219-1.092-.219-2.62l.11-8.188zm47.815-2.402c-.546-.655-.764-1.31-.764-1.855 0-.655.218-1.201.654-1.529.328-.327.874-.546 1.42-.546 1.528 0 2.183 1.201 2.401 2.184v.109l2.62-2.183v-.11C66.81 1.965 65.063.764 62.662.764c-2.511 0-5.131 1.747-5.35 4.913v.436c0 1.638.983 3.166 1.529 3.93-1.965 1.638-3.275 3.166-3.275 5.786 0 1.529.655 3.057 1.637 4.148 1.201 1.201 2.839 1.856 4.804 1.856 2.401 0 4.476-.982 5.786-2.729l2.183 2.074h4.585L61.897 8.733c-.218-.218-.327-.436-.545-.655zm-.328 4.258l4.367 4.257c-.546.983-1.638 2.184-3.494 2.184-.436 0-.873-.11-1.2-.219-.983-.546-1.747-1.528-1.747-2.729 0-1.31.546-2.402 1.856-3.384l.218-.11zm-21.178-7.86c-3.93 0-7.533 3.384-7.533 8.515 0 5.458 3.712 8.733 7.97 8.733 3.711 0 6.222-2.292 6.986-5.13l-3.166-.983c-.546 1.637-1.637 2.838-3.93 2.838-2.292 0-4.148-1.747-4.257-4.257h11.353c0-.11.11-.546.11-1.201.108-5.24-2.73-8.515-7.533-8.515zm-3.821 6.768c.11-1.746 1.528-3.602 3.82-3.602 2.512 0 3.822 1.746 3.822 3.602h-7.642zm-12.227 6.878c-2.292 0-4.366-1.856-4.366-5.131 0-3.275 1.965-5.022 4.257-5.022 2.402 0 3.384 1.638 3.821 3.057l3.275-1.31c-.655-2.62-2.948-5.35-7.096-5.35-4.476 0-7.969 3.603-7.969 8.625 0 4.912 3.493 8.624 8.078 8.624 4.04 0 6.441-2.73 7.205-5.24l-3.275-1.2c-.327 1.2-1.419 2.947-3.93 2.947zM131 12.882c0-5.131-2.838-8.406-7.642-8.406-3.93 0-7.532 3.384-7.532 8.515 0 5.458 3.712 8.733 7.969 8.733 3.712 0 6.223-2.292 6.987-5.13l-3.166-.983c-.546 1.637-1.638 2.838-3.93 2.838-2.293 0-4.149-1.747-4.258-4.257h11.354c.109-.11.218-.655.218-1.31zm-11.353-1.638c.109-1.746 1.419-3.602 3.82-3.602 2.511 0 3.821 1.746 3.821 3.602h-7.641zm-8.515 4.694V8.406h3.275V4.912h-3.275V0h-3.385v2.402c0 1.419-.764 2.51-2.401 2.51h-.764v3.385h2.838v8.187c0 3.057 1.747 4.803 4.694 4.803 1.31 0 2.074-.218 2.293-.327v-3.166c-.437.11-.874.11-1.31.11-1.42 0-1.965-.546-1.965-1.966zm-8.188-5.458c0-3.275-1.856-6.113-6.659-6.113-3.82 0-6.222 2.51-6.55 5.24l3.384.764c.219-1.42 1.31-2.73 3.166-2.73 2.074 0 2.948 1.092 2.948 2.511 0 .546-.219.983-1.201 1.201l-4.04.655c-2.62.437-4.694 1.965-4.694 4.913 0 2.62 1.965 4.912 5.24 4.912 2.511 0 4.04-1.31 4.804-2.51 0 1.31.109 1.965.109 2.074h3.493c0-.219-.218-1.092-.218-2.62.218-.219.218-8.297.218-8.297zm-3.712 3.93c0 3.166-1.746 4.148-3.82 4.148-1.42 0-2.293-.982-2.293-2.074 0-1.31.874-1.965 2.074-2.183l4.04-.655v.764zM83.95 15.938V8.406h3.275V4.912H83.95V0h-3.384v2.402c0 1.419-.764 2.51-2.402 2.51H77.4v3.385h2.838v8.187c0 3.057 1.747 4.803 4.695 4.803 1.31 0 2.074-.218 2.292-.327v-3.166c-.109 0-.764.11-1.31.11-1.31 0-1.965-.546-1.965-1.966z"/>
    </g>
  </g>
</svg>
