<?xml version="1.0" encoding="utf-8"?>
<!-- Generator: Adobe Illustrator 18.0.0, SVG Export Plug-In . SVG Version: 6.00 Build 0)  -->
<!DOCTYPE svg PUBLIC "-//W3C//DTD SVG 1.1//EN" "http://www.w3.org/Graphics/SVG/1.1/DTD/svg11.dtd">
<svg version="1.1" id="Слой_1" xmlns="http://www.w3.org/2000/svg" xmlns:xlink="http://www.w3.org/1999/xlink" x="0px" y="0px" width="120" height="20" 
	 viewBox="0 0 120 20" enable-background="new 0 0 120 20" xml:space="preserve">
<path d="M9,13.2c0,2.9-1.6,3.8-3.5,3.8c-1.3,0-2.1-0.9-2.1-1.9c0-1.2,0.8-1.8,1.9-2L9,12.6L9,13.2L9,13.2L9,13.2z M12.4,9.6
	c0-3-1.7-5.5-6.1-5.5c-3.5,0-5.7,2.3-6,4.8l3.1,0.7C3.5,8.2,4.5,7,6.3,7C8.2,7,9,8,9,9.2c0,0.5-0.2,0.9-1.1,1.1l-3.7,0.6
	C1.9,11.2,0,12.7,0,15.4c0,2.3,1.8,4.5,4.8,4.5c2.3,0,3.7-1.2,4.4-2.3c0,1.2,0.1,1.8,0.1,1.9h3.2c0-0.2-0.2-1-0.2-2.4L12.4,9.6
	L12.4,9.6z M56.2,7.4c-0.5-0.6-0.7-1.2-0.7-1.7c0-0.6,0.2-1.1,0.6-1.4c0.3-0.3,0.8-0.5,1.3-0.5c1.4,0,2,1.1,2.2,2l0,0.1l2.4-2l0-0.1
	c-0.8-2-2.4-3.1-4.6-3.1c-2.3,0-4.7,1.6-4.9,4.5c0,0.1,0,0.1,0,0.2l0,0.1c0,0,0,0.1,0,0.1c0,1.5,0.9,2.9,1.4,3.6
	c-1.8,1.5-3,2.9-3,5.3c0,1.4,0.6,2.8,1.5,3.8c1.1,1.1,2.6,1.7,4.4,1.7c2.2,0,4.1-0.9,5.3-2.5l2,1.9l4.2,0L56.7,8
	C56.5,7.8,56.4,7.6,56.2,7.4L56.2,7.4L56.2,7.4z M55.9,11.3l4,3.9c-0.5,0.9-1.5,2-3.2,2c-0.4,0-0.8-0.1-1.1-0.2
	c-0.9-0.5-1.6-1.4-1.6-2.5c0-1.2,0.5-2.2,1.7-3.1L55.9,11.3C55.9,11.3,55.9,11.3,55.9,11.3z M36.5,4.1c-3.6,0-6.9,3.1-6.9,7.8
	c0,5,3.4,8,7.3,8c3.4,0,5.7-2.1,6.4-4.7l-2.9-0.9c-0.5,1.5-1.5,2.6-3.6,2.6c-2.1,0-3.8-1.6-3.9-3.9h10.4c0-0.1,0.1-0.5,0.1-1.1
	C43.5,7.1,40.9,4.1,36.5,4.1C36.5,4.1,36.5,4.1,36.5,4.1z M33,10.3C33.1,8.7,34.4,7,36.5,7c2.3,0,3.5,1.6,3.5,3.3H33L33,10.3z
	 M21.8,16.6c-2.1,0-4-1.7-4-4.7c0-3,1.8-4.6,3.9-4.6c2.2,0,3.1,1.5,3.5,2.8l3-1.2c-0.6-2.4-2.7-4.9-6.5-4.9c-4.1,0-7.3,3.3-7.3,7.9
	c0,4.5,3.2,7.9,7.4,7.9c3.7,0,5.9-2.5,6.6-4.8l-3-1.1C25.1,15,24.1,16.6,21.8,16.6L21.8,16.6L21.8,16.6z M120,11.8
	c0-4.7-2.6-7.7-7-7.7c-3.6,0-6.9,3.1-6.9,7.8c0,5,3.4,8,7.3,8c3.4,0,5.7-2.1,6.4-4.7l-2.9-0.9c-0.5,1.5-1.5,2.6-3.6,2.6
	c-2.1,0-3.8-1.6-3.9-3.9h10.4C119.9,12.9,120,12.4,120,11.8L120,11.8z M109.6,10.3c0.1-1.6,1.3-3.3,3.5-3.3c2.3,0,3.5,1.6,3.5,3.3
	H109.6z M101.8,14.6V7.7h3V4.5h-3V0h-3.1v2.2c0,1.3-0.7,2.3-2.2,2.3h-0.7v3.1h2.6v7.5c0,2.8,1.6,4.4,4.3,4.4c1.2,0,1.9-0.2,2.1-0.3
	v-2.9c-0.4,0.1-0.8,0.1-1.2,0.1C102.3,16.4,101.8,15.9,101.8,14.6L101.8,14.6L101.8,14.6z M94.3,9.6c0-3-1.7-5.6-6.1-5.6
	c-3.5,0-5.7,2.3-6,4.8l3.1,0.7C85.5,8.2,86.5,7,88.2,7c1.9,0,2.7,1,2.7,2.3c0,0.5-0.2,0.9-1.1,1.1l-3.7,0.6
	c-2.4,0.4-4.3,1.8-4.3,4.5c0,2.4,1.8,4.5,4.8,4.5c2.3,0,3.7-1.2,4.4-2.3c0,1.2,0.1,1.8,0.1,1.9h3.2c0-0.2-0.2-1-0.2-2.4
	C94.3,17,94.3,9.6,94.3,9.6z M90.9,13.2c0,2.9-1.6,3.8-3.5,3.8c-1.3,0-2.1-0.9-2.1-1.9c0-1.2,0.8-1.8,1.9-2l3.7-0.6L90.9,13.2
	L90.9,13.2z M76.9,14.6V7.7h3V4.5h-3V0h-3.1v2.2c0,1.3-0.7,2.3-2.2,2.3h-0.7v3.1h2.6v7.5c0,2.8,1.6,4.4,4.3,4.4
	c1.2,0,1.9-0.2,2.1-0.3v-2.9c-0.1,0-0.7,0.1-1.2,0.1C77.5,16.4,76.9,15.9,76.9,14.6L76.9,14.6z"/>
</svg>
