<svg xmlns="http://www.w3.org/2000/svg" width="120" height="20"><path d="M9 13.2C9 16.1 7.4 17 5.5 17c-1.3 0-2.1-.9-2.1-1.9 0-1.2.8-1.8 1.9-2l3.7-.5v.6zm3.4-3.6c0-3-1.7-5.5-6.1-5.5-3.5 0-5.7 2.3-6 4.8l3.1.7C3.5 8.2 4.5 7 6.3 7 8.2 7 9 8 9 9.2c0 .5-.2.9-1.1 1.1l-3.7.6c-2.3.3-4.2 1.8-4.2 4.5 0 2.3 1.8 4.5 4.8 4.5 2.3 0 3.7-1.2 4.4-2.3 0 1.2.1 1.8.1 1.9h3.2c0-.2-.2-1-.2-2.4l.1-7.5zm43.8-2.2c-.5-.6-.7-1.2-.7-1.7 0-.6.2-1.1.6-1.4.3-.3.8-.5 1.3-.5 1.4 0 2 1.1 2.2 2v.1l2.4-2v-.1c-.8-2-2.4-3.1-4.6-3.1-2.3 0-4.7 1.6-4.9 4.5v.4c0 1.5.9 2.9 1.4 3.6-1.8 1.5-3 2.9-3 5.3 0 1.4.6 2.8 1.5 3.8 1.1 1.1 2.6 1.7 4.4 1.7 2.2 0 4.1-.9 5.3-2.5l2 1.9h4.2L56.7 8c-.2-.2-.3-.4-.5-.6zm-.3 3.9l4 3.9c-.5.9-1.5 2-3.2 2-.4 0-.8-.1-1.1-.2-.9-.5-1.6-1.4-1.6-2.5 0-1.2.5-2.2 1.7-3.1l.2-.1zM36.5 4.1c-3.6 0-6.9 3.1-6.9 7.8 0 5 3.4 8 7.3 8 3.4 0 5.7-2.1 6.4-4.7l-2.9-.9c-.5 1.5-1.5 2.6-3.6 2.6S33 15.3 32.9 13h10.4c0-.1.1-.5.1-1.1.1-4.8-2.5-7.8-6.9-7.8zM33 10.3c.1-1.6 1.4-3.3 3.5-3.3 2.3 0 3.5 1.6 3.5 3.3h-7zm-11.2 6.3c-2.1 0-4-1.7-4-4.7s1.8-4.6 3.9-4.6c2.2 0 3.1 1.5 3.5 2.8l3-1.2C27.6 6.5 25.5 4 21.7 4c-4.1 0-7.3 3.3-7.3 7.9 0 4.5 3.2 7.9 7.4 7.9 3.7 0 5.9-2.5 6.6-4.8l-3-1.1c-.3 1.1-1.3 2.7-3.6 2.7zm98.2-4.8c0-4.7-2.6-7.7-7-7.7-3.6 0-6.9 3.1-6.9 7.8 0 5 3.4 8 7.3 8 3.4 0 5.7-2.1 6.4-4.7l-2.9-.9c-.5 1.5-1.5 2.6-3.6 2.6s-3.8-1.6-3.9-3.9h10.4c.1-.1.2-.6.2-1.2zm-10.4-1.5c.1-1.6 1.3-3.3 3.5-3.3 2.3 0 3.5 1.6 3.5 3.3h-7zm-7.8 4.3V7.7h3V4.5h-3V0h-3.1v2.2c0 1.3-.7 2.3-2.2 2.3h-.7v3.1h2.6v7.5c0 2.8 1.6 4.4 4.3 4.4 1.2 0 1.9-.2 2.1-.3v-2.9c-.4.1-.8.1-1.2.1-1.3 0-1.8-.5-1.8-1.8zm-7.5-5c0-3-1.7-5.6-6.1-5.6-3.5 0-5.7 2.3-6 4.8l3.1.7c.2-1.3 1.2-2.5 2.9-2.5 1.9 0 2.7 1 2.7 2.3 0 .5-.2.9-1.1 1.1l-3.7.6c-2.4.4-4.3 1.8-4.3 4.5 0 2.4 1.8 4.5 4.8 4.5 2.3 0 3.7-1.2 4.4-2.3 0 1.2.1 1.8.1 1.9h3.2c0-.2-.2-1-.2-2.4.2-.2.2-7.6.2-7.6zm-3.4 3.6c0 2.9-1.6 3.8-3.5 3.8-1.3 0-2.1-.9-2.1-1.9 0-1.2.8-1.8 1.9-2l3.7-.6v.7zm-14 1.4V7.7h3V4.5h-3V0h-3.1v2.2c0 1.3-.7 2.3-2.2 2.3h-.7v3.1h2.6v7.5c0 2.8 1.6 4.4 4.3 4.4 1.2 0 1.9-.2 2.1-.3v-2.9c-.1 0-.7.1-1.2.1-1.2 0-1.8-.5-1.8-1.8z"/></svg>