<svg width="132" height="23" viewBox="0 0 132 23" fill="none" xmlns="http://www.w3.org/2000/svg">
<path class="inherit-fill" d="M9.9 14.52C9.9 17.7102 8.13966 18.6997 6.05084 18.6997C4.62 18.6997 3.74034 17.7102 3.74034 16.6098C3.74034 15.2898 4.62 14.6298 5.83017 14.4102L9.9 13.86V14.52V14.52ZM13.6403 10.56C13.6403 7.26 11.7702 4.51017 6.9295 4.51017C3.08034 4.51017 0.66 7.03933 0.329496 9.79017L3.74034 10.56C3.85017 9.02034 4.9495 7.70034 6.9305 7.70034C9.02034 7.70034 9.9 8.79966 9.9 10.1197C9.9 10.6698 9.68034 11.1102 8.69084 11.3298L4.62 11.9898C2.09084 12.3203 0 13.9698 0 16.9403C0 19.4695 1.98 21.8898 5.28 21.8898C7.80916 21.8898 9.35084 20.5698 10.1197 19.3607C10.1197 20.6807 10.2305 21.3397 10.2305 21.4505H13.7502C13.7502 21.2298 13.5295 20.3502 13.5295 18.8105L13.6403 10.56V10.56ZM61.8203 8.13966C61.2702 7.47966 61.0505 6.81966 61.0505 6.2705C61.0505 5.6105 61.2702 5.06034 61.7095 4.72983C62.04 4.40034 62.5902 4.17966 63.1403 4.17966C64.68 4.17966 65.34 5.38983 65.5597 6.38034V6.49017L68.1997 4.2905V4.17966C67.32 1.98 65.5597 0.769832 63.1403 0.769832C60.6102 0.769832 57.9702 2.53017 57.7495 5.72034V6.15966C57.7495 7.81017 58.74 9.34983 59.2902 10.1197C57.3102 11.7702 55.9902 13.3098 55.9902 15.9498C55.9902 17.4905 56.6502 19.0302 57.6397 20.1295C58.8498 21.3397 60.5003 21.9997 62.4803 21.9997C64.8997 21.9997 66.9905 21.0102 68.3105 19.2498L70.5102 21.3397H75.1302L62.3695 8.79966C62.1498 8.58 62.04 8.36034 61.8203 8.13966V8.13966ZM61.4898 12.4302L65.8902 16.7197C65.34 17.7102 64.2397 18.9203 62.3695 18.9203C61.9302 18.9203 61.4898 18.8095 61.1603 18.6997C60.1698 18.1495 59.4 17.16 59.4 15.9498C59.4 14.6298 59.9502 13.5295 61.2702 12.54L61.4898 12.4292V12.4302ZM40.1502 4.51017C36.1902 4.51017 32.5597 7.92 32.5597 13.0902C32.5597 18.5898 36.3 21.8898 40.5905 21.8898C44.3298 21.8898 46.86 19.5803 47.6298 16.7207L44.4397 15.7302C43.8895 17.3797 42.7902 18.5898 40.4797 18.5898C38.1702 18.5898 36.3 16.8295 36.1902 14.3003H47.6298C47.6298 14.1895 47.7407 13.7502 47.7407 13.0902C47.8495 7.81017 44.9898 4.51017 40.1502 4.51017V4.51017ZM36.3 11.3298C36.4108 9.5705 37.8397 7.70034 40.1492 7.70034C42.6803 7.70034 44.0003 9.45966 44.0003 11.3298H36.3ZM23.9797 18.2603C21.6702 18.2603 19.5803 16.3902 19.5803 13.0902C19.5803 9.79017 21.5603 8.02983 23.8698 8.02983C26.2902 8.02983 27.2797 9.68034 27.72 11.1102L31.02 9.79017C30.36 7.15017 28.0495 4.39933 23.8698 4.39933C19.3597 4.39933 15.84 8.02983 15.84 13.0902C15.84 18.0397 19.3597 21.78 23.9797 21.78C28.0505 21.78 30.4698 19.0292 31.2397 16.5L27.9397 15.2908C27.6102 16.5 26.5098 18.2603 23.9797 18.2603V18.2603ZM132 12.9803C132 7.81017 129.14 4.51017 124.3 4.51017C120.34 4.51017 116.71 7.92 116.71 13.0902C116.71 18.5898 120.45 21.8898 124.74 21.8898C128.48 21.8898 131.01 19.5803 131.78 16.7207L128.59 15.7302C128.04 17.3797 126.94 18.5898 124.63 18.5898C122.32 18.5898 120.449 16.8295 120.34 14.3003H131.78C131.89 14.1895 132 13.6403 132 12.9803V12.9803ZM120.56 11.3298C120.67 9.5705 121.99 7.70034 124.409 7.70034C126.94 7.70034 128.26 9.45966 128.26 11.3298H120.56V11.3298ZM111.98 16.0597V8.47017H115.28V4.9495H111.98V0H108.569V2.42034C108.569 3.85017 107.8 4.9495 106.15 4.9495H105.38V8.36034H108.24V16.6098C108.24 19.6902 110 21.4495 112.97 21.4495C114.29 21.4495 115.06 21.2298 115.28 21.12V17.9298C114.84 18.0407 114.4 18.0407 113.96 18.0407C112.529 18.0407 111.98 17.4905 111.98 16.0597V16.0597ZM103.73 10.56C103.73 7.26 101.86 4.40034 97.02 4.40034C93.1708 4.40034 90.7505 6.9295 90.42 9.68034L93.8298 10.4502C94.0505 9.01933 95.1498 7.69933 97.02 7.69933C99.1098 7.69933 99.9905 8.79966 99.9905 10.2295C99.9905 10.7797 99.7698 11.22 98.7803 11.4397L94.7095 12.0997C92.0695 12.54 89.9797 14.0797 89.9797 17.0502C89.9797 19.6902 91.9597 21.9997 95.2597 21.9997C97.7898 21.9997 99.3305 20.6797 100.1 19.4705C100.1 20.7905 100.21 21.4505 100.21 21.5603H103.73C103.73 21.3397 103.51 20.46 103.51 18.9203C103.73 18.6997 103.73 10.56 103.73 10.56V10.56ZM99.9895 14.52C99.9895 17.7102 98.2302 18.6997 96.1403 18.6997C94.7095 18.6997 93.8298 17.7102 93.8298 16.6098C93.8298 15.2898 94.7105 14.6298 95.9197 14.4102L99.9905 13.7502V14.52H99.9895ZM84.5908 16.0597V8.47017H87.8908V4.9495H84.5908V0H81.181V2.42034C81.181 3.85017 80.4112 4.9495 78.7607 4.9495H77.9908V8.36034H80.8505V16.6098C80.8505 19.6902 82.6108 21.4495 85.5813 21.4495C86.9013 21.4495 87.6712 21.2298 87.8908 21.12V17.9298C87.781 17.9298 87.121 18.0407 86.5708 18.0407C85.2508 18.0407 84.5908 17.4905 84.5908 16.0597V16.0597Z" fill="black"/>
</svg>
