<svg xmlns="http://www.w3.org/2000/svg" viewBox="0 0 117 23" width="117" height="23">
  <path class="inherit-fill" d="M85.9 7.4c3.8 0 6.5 2.7 6.5 6.9 0 .2 0 .5-.2.7-.2.2-.4.3-.6.3h-5.7c-.2 0-.3-.1-.3-.3v-.2c0-.2.1-.3.3-.3H88v-3.9c0-1.3-.9-2.2-2.2-2.2s-2.3.9-2.3 2.2v8.2c0 1.5.8 2.5 2.3 2.6h.4c3.3 0 4.8-2.2 5.3-2.9.1-.1.3-.2.4-.1l.1.1.2.2c0 .1 0 .2-.1.3-.6.8-2.4 3.2-6 3.2-4 0-7.1-2.6-7.1-7.3-.1-4.9 3-7.5 6.9-7.5zm-10.8 0c.2 0 .3.2.3.3v13.4c0 .2-.2.3-.3.3h-3.7c-.2 0-.3-.1-.3-.3V7.8c0-.2.2-.3.3-.3h3.7zM23.6.2c.3-.1.4 0 .4.2v20.9c0 .2-.2.3-.3.3H20c-.2 0-.3-.1-.3-.3V2.6c0-.2.1-.4.3-.5L23.6.2zm26.2 7.2c.2 0 .3.2.3.3 0 0 .2 2.7.2 6.7v6.7c0 .2-.2.3-.3.3h-3.7c-.2 0-.3-.1-.3-.3V7.8c0-.2.2-.3.3-.3-.1-.1 3.4-.1 3.5-.1zm50 0c.2 0 .3.2.3.3 0 0 .2 2.7.2 6.7v6.7c0 .2-.2.3-.3.3h-3.6c-.2 0-.3-.1-.3-.3V7.8c0-.2.2-.3.3-.3h3.4zm-26.7-6c1.3 0 2.4 1.1 2.4 2.3 0 1.2-1.1 2.3-2.4 2.3s-2.4-1-2.4-2.2c0-1.3 1.1-2.4 2.4-2.4zm31.1 6c1.3 0 2.2.8 2.2 2.1 0 1.1-.9 2-2 2-1.2 0-2.1-1-2.4-2.7-.1-.5 0-.7.4-.9.6-.3 1.2-.5 1.8-.5zm-52.9 2c-.2.1-.3 0-.3-.2v-.1c0-.3.1-.3.2-.5.7-.5 1.9-1.2 3-1.2 3 0 4.2 1.8 4.2 4.6v9.4c0 .2-.2.3-.3.3h-3.6c-.2 0-.3-.2-.3-.3V11.3c0-1.9-.9-2.5-2.9-1.9zM17.2 21.3v.3c-.1.1-.2.1-.3.1h-3.8c-.1 0-.3-.1-.3-.2l-6.3-15v-.2L8 2.1c.1-.1.2-.2.3-.2h.4c.1 0 .3 0 .3.2l8.2 19.2zm-7.8-4.9l.1.3c.1.2 0 .3-.2.3H2.8L1 21.3c-.1.1-.2.2-.3.2H.3c-.1 0-.2-.1-.3-.1V21L5.6 8c0-.1.1-.1.2-.1s.1 0 .2.1l.2.5s0 .1.1.2v.1c0 .1-3 7.3-3 7.3h5.8c.2 0 .2.2.3.3zm107.6-9V9l-4.3 1.8 4.3 1.8v1.6h-6.8v-1.3h4.2l-4.2-1.7v-.7l4.2-1.7h-4.2V7.4h6.8zm-6.8 11v-2.8h6.8v2.8c0 2-1.4 3.5-3.4 3.5s-3.4-1.4-3.4-3.5zm3.4 2.2c1.3 0 2.2-.9 2.2-2.2v-1.5h-4.4v1.5c0 1.5 1.1 2.2 2.2 2.2zM58.8 9.4l-.1-.1c-.1-.3.1-.3.3-.5.7-.6 2.3-1.3 3.4-1.3 2.9 0 4.1 1.8 4.1 4.6v9.4c0 .2-.2.3-.3.3h-3.6c-.2 0-.3-.2-.3-.3v-9.9c0-2.2-1-2.9-3.1-2-.2 0-.3-.1-.4-.2zm-21 12.1c-.2 0-.3-.2-.3-.3 0 0-.2-2.7-.2-6.7V7.8c0-.2.2-.3.3-.3h3.7c.2 0 .3.2.3.3v13.4c0 .2-.2.3-.3.3h-3.5zm-1.9-1.7c.2-.1.3 0 .3.2v.1c0 .3-.1.3-.2.5-.7.5-2.4 1.2-3.5 1.2-3 0-4.2-1.8-4.2-4.6V7.8c0-.2.1-.3.3-.3h3.6c.2 0 .3.2.3.3v10.1c.1 1.9 1.5 2.5 3.4 1.9z" fill-rule="evenodd" clip-rule="evenodd"/>
</svg>
