<svg width="120" height="41" viewBox="0 0 120 41" xmlns="http://www.w3.org/2000/svg">
  <g fill="none" fill-rule="evenodd">
    <g class="inherit-fill" fill="#505359">
      <path d="M120 40.148H0V.442h120v39.706zm-89.678-11.99h3.947l-7.53-15.726H23.7l-7.532 15.726h3.946l1.102-2.469h8.004l1.102 2.47v-.001zm-7.675-5.677l2.57-5.76 2.57 5.76h-5.14zm72.827-4.171l4.046-5.877h4.312l-6.567 9.537v6.188h-3.583V21.97l-6.567-9.537h4.314l4.045 5.877zm-13.12 9.848H86.3l-7.53-15.726h-3.04l-7.532 15.726h3.948l1.101-2.469h8.004l1.102 2.47.001-.001zm-7.676-5.677l2.57-5.76 2.57 5.76h-5.14zM57.892 23.87l5.104-11.438h3.947l-7.532 15.726h-3.038l-5.14-10.733-5.14 10.733h-3.039l-7.531-15.726h3.948l5.103 11.438 5.102-11.438h3.08l5.136 11.438z"/>
    </g>
  </g>
</svg>
