<svg width="109" height="37" viewBox="0 0 109 37" fill="none" xmlns="http://www.w3.org/2000/svg">
<g class="inherit-fill" fill="black">
<path fill-rule="evenodd" clip-rule="evenodd" d="M108.293 36.2312H0V0.398926H108.293V36.2312ZM27.3638 25.4109H30.9257L24.1303 11.2192H21.3878L14.5906 25.4109H18.1517L19.1461 23.1828H26.3693L27.3638 25.4118V25.4109V25.4109ZM20.4375 20.2878L22.7568 15.0897L25.0761 20.2878H20.4375ZM86.1594 16.5237L89.8107 11.2201H93.702L87.7757 19.8266V25.4109H84.5423V19.8266L78.616 11.2201H82.5091L86.1594 16.5237V16.5237ZM74.3194 25.4109H77.8805L71.0851 11.2192H68.3417L61.5445 25.4109H65.1074L66.1009 23.1828H73.3241L74.3185 25.4118L74.3194 25.4109V25.4109ZM67.3923 20.2878L69.7116 15.0897L72.0309 20.2878H67.3923V20.2878ZM52.244 21.5413L56.85 11.2192H60.412L53.6148 25.4109H50.8732L46.2347 15.725L41.5961 25.4109H38.8536L32.0573 11.2192H35.6202L40.2253 21.5413L44.8296 11.2192H47.6091L52.244 21.5413Z" />
</g>
</svg>
