<svg width="83" height="28" viewBox="0 0 83 28" fill="none" xmlns="http://www.w3.org/2000/svg">
  <g class="inherit-fill" fill="black">
    <path d="M0.0952148 27.3208V0.594238H11.0675C15.557 0.594238 18.4372 3.20015 18.4372 7.40619C18.4874 8.81262 18.0482 10.1929 17.1945 11.3117C16.3408 12.4306 15.1255 13.2186 13.7557 13.5415C16.5993 13.9804 18.9584 16.9429 18.9584 20.1066C18.9584 24.5595 16.0781 27.3208 11.3052 27.3208H0.0952148ZM16.0507 7.64392C16.0507 4.90085 14.222 2.67897 10.8023 2.67897H2.3811V12.5723H10.8115C14.2403 12.5723 16.0507 10.4144 16.0507 7.64392ZM16.5719 19.9511C16.5719 17.2081 14.6883 14.657 10.9578 14.657H2.3811V25.2361H10.9578C14.4689 25.2361 16.5719 23.1971 16.5719 19.9511Z" />
    <path d="M23.6128 17.6196C23.6128 12.0146 27.5445 7.48853 32.9118 7.48853C38.8002 7.48853 42.0553 12.1335 42.0553 17.7476V18.2871H25.8164C26.0175 22.4931 28.8246 25.9768 33.3964 25.9768C34.5795 25.9956 35.7534 25.7669 36.843 25.3056C37.9326 24.8442 38.9138 24.1603 39.7237 23.2977L40.8027 24.6876C39.8339 25.7149 38.6581 26.5249 37.353 27.064C36.0479 27.6031 34.6432 27.8589 33.2318 27.8146C27.5811 27.8055 23.6128 23.5903 23.6128 17.6196ZM32.8661 9.28981C28.2943 9.28981 26.0175 13.2947 25.853 16.6595H39.8883C39.8426 13.377 37.6847 9.28981 32.8295 9.28981H32.8661Z" />
    <path d="M52.5796 27.321L44.4053 7.96411H46.7369L53.7866 24.8797L60.7539 7.96411H63.1221L54.9478 27.321H52.5796Z" />
    <path d="M71.854 27.321L63.6797 7.96411H66.0022L73.0518 24.8797L80.0284 7.96411H82.3874L74.2222 27.321H71.854Z" />
  </g>
</svg>
