<svg xmlns="http://www.w3.org/2000/svg" viewBox="0 0 91.28 32.81" width="91" height="32"><path class="inherit-fill" d="M1.28,29.88V.65h12c4.91,0,8.06,2.85,8.06,7.45a6.65,6.65,0,0,1-5.12,6.71c3.11.48,5.69,3.72,5.69,7.18,0,4.87-3.15,7.89-8.37,7.89ZM18.73,8.36c0-3-2-5.43-5.74-5.43H3.78V13.75H13C16.75,13.75,18.73,11.39,18.73,8.36Zm.57,13.46c0-3-2.06-5.79-6.14-5.79H3.78V27.6h9.38C17,27.6,19.3,25.37,19.3,21.82Z"/><path class="inherit-fill" d="M27,19.27c0-6.13,4.3-11.08,10.17-11.08,6.44,0,10,5.08,10,11.22V20H29.41c.22,4.6,3.29,8.41,8.29,8.41a9.29,9.29,0,0,0,6.92-2.93L45.8,27a10.91,10.91,0,0,1-8.28,3.42C31.34,30.41,27,25.8,27,19.27Zm10.12-9.11c-5,0-7.49,4.38-7.67,8.06H44.8C44.75,14.63,42.39,10.16,37.08,10.16Z"/><path class="inherit-fill" d="M58.68,29.88,49.74,8.71h2.55L60,27.21l7.62-18.5h2.59L61.27,29.88Z"/><path class="inherit-fill" d="M79.76,29.88,70.82,8.71h2.54l7.71,18.5L88.7,8.71h2.58L82.35,29.88Z"/></svg>
