<svg xmlns:xlink="http://www.w3.org/1999/xlink" xmlns="http://www.w3.org/2000/svg" height="44" width="105" viewBox="0 0 66 30"><path d="M64.94 24.31v-3.42c0-.902-.203-1.622-.612-2.162-.41-.54-1.005-.81-1.79-.81-.772 0-1.55.346-2.334 1.035-.235-.667-.695-1-1.378-1h-.992l-.117.116v8.326c.19.034.397.06.622.076.222.016.452.025.688.025.235 0 .464-.01.688-.025.224-.017.43-.042.622-.076v-5.574c.224-.2.442-.344.655-.433.213-.09.403-.135.572-.135.29 0 .487.09.588.267.1.18.15.456.15.835v3.554c0 .546.107.952.32 1.22.213.266.61.4 1.193.4.594 0 1.103-.19 1.53-.568-.27-.367-.405-.918-.405-1.652zm-11.006-.26c-.157.43-.484.644-.98.644-.25 0-.45-.056-.6-.167-.153-.11-.272-.28-.356-.51-.085-.227-.142-.51-.17-.85-.028-.34-.042-.743-.042-1.21 0-.3.017-.58.05-.843.034-.26.096-.492.187-.692.09-.2.212-.36.364-.475.152-.118.352-.176.6-.176.474 0 .79.21.947.627.158.417.238 1.026.238 1.828 0 .79-.08 1.4-.238 1.826zm-.956-6.23c-.627 0-1.18.104-1.662.316-.482.21-.886.51-1.21.9-.325.39-.57.855-.74 1.394-.168.54-.252 1.144-.252 1.81 0 .657.084 1.258.252 1.803.17.545.418 1.01.748 1.394.33.383.733.682 1.21.892.476.21 1.027.316 1.654.316.628 0 1.182-.102 1.664-.308.48-.206.888-.5 1.218-.885.33-.384.583-.848.756-1.393.174-.545.26-1.152.26-1.82 0-1.49-.402-2.636-1.21-3.437-.682-.656-1.58-.984-2.688-.984zm-4.905.132c-.974 0-1.675.5-2.1 1.502-.404-.935-1.12-1.44-2.15-1.52-.16.124-.315.32-.472.594-.155.273-.262.52-.318.742.425.323.64.9.64 1.736v5.39c.38.067.82.1 1.318.1.498 0 .932-.033 1.302-.1v-5.19c.358-.568.817-.85 1.378-.85.38.043.666.1.856.166.202-.334.362-.737.48-1.21.117-.472.176-.882.176-1.226-.45-.09-.818-.134-1.11-.134zm-9.24 6.675c-.304 0-.667-.127-1.093-.383v-3.672c.347-.445.756-.668 1.226-.668.672 0 1.01.734 1.01 2.203 0 1.68-.383 2.52-1.144 2.52zm3.05-5.624c-.25-.378-.555-.67-.912-.876-.356-.206-.77-.308-1.238-.308-.916 0-1.692.316-2.33.95-.312-.545-.79-.818-1.427-.818h-.69l-.116.117v11.814l.116.117h1.008c.538 0 .913-.116 1.127-.35.213-.233.32-.64.32-1.218v-2.22c.513.234 1.026.35 1.54.35.48 0 .925-.102 1.33-.308.41-.205.764-.497 1.065-.875.3-.38.538-.842.71-1.387.174-.545.26-1.15.26-1.82 0-.667-.063-1.267-.19-1.8-.13-.535-.32-.99-.57-1.37zM30.324 21.9c-.14-.007-.24-.01-.295-.01H28.8l-.67.017.386-1.285c.448-1.646.717-2.71.806-3.187h.1c.348 1.357.656 2.503.925 3.437l.285 1.035c-.066 0-.17-.003-.31-.008zm-.833-7.002c-.582 0-1.092.033-1.53.1l-3.695 11.198.083.133c.337.122.773.183 1.31.183.482 0 .858-.034 1.127-.1l.722-2.42c.146.01.37.017.672.017h2.386c.29 0 .51-.006.654-.017l.32 1.102c.168.567.37.95.605 1.15.235.2.644.302 1.226.302.494 0 .937-.106 1.33-.318l-3.63-11.215c-.393-.078-.92-.117-1.58-.117zm20.32-8.6c.172-.25.436-.374.79-.374.368 0 .643.133.827.4.183.266.275.606.275 1.018v.184h-2.2c.033-.568.135-.977.307-1.227zm-2.15 5.332c.298.4.684.713 1.16.935.476.222 1.068.334 1.773.334 1.3 0 2.397-.318 3.293-.952-.09-.645-.318-1.157-.686-1.536-.457.172-.862.296-1.213.372-.352.075-.662.112-.93.112-.535 0-.92-.137-1.155-.413-.234-.275-.362-.66-.384-1.155h4.37c.144-.468.217-1.04.217-1.72 0-.51-.082-.984-.244-1.418-.162-.434-.394-.807-.696-1.118-.303-.31-.67-.556-1.1-.734-.432-.178-.916-.267-1.454-.267-.64 0-1.196.112-1.672.335-.476.222-.868.528-1.176.917-.308.39-.537.85-.69 1.377-.15.528-.226 1.103-.226 1.726 0 .645.062 1.24.185 1.786.124.545.334 1.018.63 1.418zM38.75 9.828c0 .9.204 1.622.613 2.16.41.54 1.007.81 1.79.81.784 0 1.62-.394 2.504-1.184.403.745 1.064 1.134 1.983 1.168.168-.122.33-.314.487-.576.156-.26.263-.503.32-.725-.315-.21-.47-.617-.47-1.218v-5.94c-.394-.068-.836-.1-1.328-.1-.494 0-.925.032-1.294.1v5.573c-.38.378-.757.567-1.126.567-.38 0-.617-.088-.706-.266-.09-.18-.134-.462-.134-.852V5.806c0-.545-.107-.95-.32-1.218-.213-.267-.615-.4-1.21-.4-.593 0-1.097.183-1.51.55.267.39.402.946.402 1.67v3.42zm-.42 2.736c.034-.112.05-.354.05-.724s-.067-.74-.2-1.11h-.455c-.493 0-.74-.262-.74-.784V1.932c0-.577-.106-.983-.318-1.216-.214-.234-.583-.35-1.11-.35H34.53l-.1.116v9.93c0 .8.16 1.388.48 1.76.318.373.858.56 1.62.56.527 0 1.126-.056 1.798-.168zM28.062 7.626h1.386c.59 0 1.023.16 1.296.483.273.322.41.7.41 1.134 0 .456-.107.812-.32 1.068-.21.256-.47.417-.783.484-.31.067-.648.095-1.01.084-.363-.012-.69-.012-.978 0V7.626zm0-4.59c.144.01.314.017.51.017h.675c.523 0 .896.125 1.12.375.22.25.333.565.333.943 0 .38-.11.7-.326.96-.216.262-.592.393-1.127.393h-1.185V3.036zm-.067 9.696c.683.01 1.232.016 1.646.016 1.345 0 2.384-.275 3.118-.825.734-.55 1.1-1.4 1.1-2.545 0-.323-.053-.637-.16-.943-.105-.306-.247-.59-.426-.852-.18-.26-.394-.49-.646-.684-.25-.196-.517-.337-.796-.426.436-.19.793-.495 1.072-.918.28-.423.42-.878.42-1.368 0-1.013-.35-1.772-1.05-2.278-.7-.506-1.662-.76-2.883-.76-.393 0-.91.006-1.555.017-.644.01-1.42.028-2.327.05l-.118.117v11.23l.118.118c.975.022 1.803.04 2.487.05zM13 0l-.296 4.924H7.812L7.518 0c-.76.113-1.502.27-2.227.475C4.987 3.627 6.004 11.42 0 15.14v10.293s3.644 3.892 10.26 3.892c6.613 0 10.258-4.143 10.258-4.143v-10.04c-6.005-3.723-4.99-11.516-5.29-14.67C14.5.27 13.757.113 12.997 0z" class="inherit-fill" fill="black"" data-optly-34913E77-4B98-4ED2-8998-39C374A94085=""></path></svg>