<svg width="131" height="29" viewBox="0 0 131 29" fill="none" xmlns="http://www.w3.org/2000/svg">
<g>
<path class="inherit-fill" fill-rule="evenodd" clip-rule="evenodd" d="M24.5356 21.7198C24.1983 22.1505 23.7805 22.5117 23.3056 22.7833C23.1727 22.8651 23.0335 22.9362 22.8894 22.996C21.8186 23.3421 20.6928 23.4863 19.5693 23.4214H4.8555C4.76849 23.4214 4.68234 23.4041 4.60207 23.3706C4.5218 23.337 4.449 23.2878 4.3879 23.2258C4.32681 23.1639 4.27863 23.0904 4.24618 23.0097C4.21374 22.9289 4.19766 22.8425 4.19888 22.7555V16.0229C4.16281 15.7443 4.19781 15.4612 4.30061 15.1998C4.3583 15.1034 4.43942 15.0232 4.53644 14.9666C4.63346 14.91 4.74322 14.8789 4.8555 14.8761H18.811C19.6803 14.8761 20.5681 14.8761 21.4374 14.9409C22.3238 15.0183 23.1716 15.3383 23.8882 15.8657C24.1289 16.0585 24.3461 16.2789 24.5356 16.5223C25.1543 17.2345 25.5044 18.1408 25.5251 19.084C25.5163 20.0407 25.1652 20.9625 24.5356 21.6828V21.7198ZM4.18963 11.0566V5.48001C4.18841 5.393 4.20449 5.30662 4.23694 5.22589C4.26939 5.14515 4.31756 5.07167 4.37865 5.00972C4.43975 4.94776 4.51255 4.89857 4.59282 4.86499C4.67309 4.83142 4.75924 4.81413 4.84625 4.81414H20.4664C21.5694 4.78665 22.6573 5.07547 23.6015 5.64647C24.4846 6.24779 25.1369 7.13161 25.4511 8.15272C25.5491 8.4737 25.602 8.80674 25.6083 9.14227C25.5675 10.0681 25.2119 10.9523 24.6003 11.6485C24.2612 12.0836 23.8402 12.448 23.361 12.7213C22.3139 13.1712 21.1799 13.3828 20.041 13.3409H4.8555C4.76437 13.3362 4.67507 13.3135 4.59272 13.2742C4.51036 13.2349 4.43657 13.1798 4.37557 13.1119C4.31458 13.044 4.26757 12.9648 4.23725 12.8787C4.20693 12.7926 4.19389 12.7014 4.19888 12.6103V11.0936L4.18963 11.0566ZM26.9401 18.3719C26.8824 17.9503 26.7737 17.5373 26.6164 17.1419C26.4682 16.7514 26.2758 16.379 26.043 16.0321C25.803 15.6977 25.5304 15.3879 25.2292 15.1073L24.6558 14.6264L24.3228 14.386L23.9992 14.1455C24.3876 13.8866 24.776 13.6091 25.1367 13.3132C25.4414 13.0361 25.7144 12.7259 25.9505 12.3884C26.1884 12.0498 26.3899 11.6872 26.5516 11.3063C26.6829 11.0086 26.7851 10.6989 26.8568 10.3815C26.9631 9.70129 26.9631 9.00867 26.8568 8.32844C26.8196 8.03924 26.7546 7.75431 26.6626 7.47761C26.4849 6.91834 26.2196 6.3908 25.8765 5.91467C25.7377 5.71455 25.5831 5.5259 25.4141 5.35053C24.9909 4.89577 24.4976 4.51173 23.9529 4.21301C23.6065 3.98561 23.2298 3.80815 22.8339 3.68587C21.8418 3.42423 20.8167 3.30895 19.7913 3.34368H0.277668C0.24287 3.34366 0.208425 3.35065 0.176389 3.36424C0.144354 3.37783 0.115386 3.39774 0.0912152 3.42277C0.0670447 3.4478 0.0481678 3.47745 0.035712 3.50994C0.0232562 3.54244 0.0174771 3.57711 0.0187199 3.61188V4.58294C0.0187199 4.86038 0.286916 4.87888 0.490375 4.87888H2.15504C2.24205 4.87887 2.3282 4.89615 2.40847 4.92973C2.48875 4.9633 2.56155 5.0125 2.62264 5.07445C2.68374 5.13641 2.73191 5.20989 2.76436 5.29063C2.79681 5.37136 2.81289 5.45774 2.81166 5.54474V12.7121C2.8115 12.896 2.73832 13.0723 2.6082 13.2022C2.54611 13.2652 2.47008 13.3127 2.38625 13.3409C2.2822 13.3589 2.17585 13.3589 2.07181 13.3409H0.490375C0.39842 13.327 0.304886 13.327 0.212931 13.3409C0.136676 13.3694 0.0739388 13.4255 0.0372162 13.4982C0.0187798 13.5741 0.0187798 13.6534 0.0372162 13.7294V14.5524C0.0288691 14.6107 0.0288691 14.6699 0.0372162 14.7282C0.0634141 14.7735 0.101192 14.8111 0.146687 14.8371C0.192183 14.8631 0.243766 14.8766 0.296164 14.8761H2.03482C2.13876 14.8647 2.24394 14.8744 2.34405 14.9046C2.44417 14.9347 2.53716 14.9848 2.61745 15.0518C2.69928 15.1425 2.76064 15.2497 2.79734 15.3662C2.83404 15.4827 2.84524 15.6057 2.83016 15.727V22.7463C2.83138 22.8333 2.8153 22.9197 2.78285 23.0004C2.7504 23.0812 2.70223 23.1546 2.64114 23.2166C2.58004 23.2785 2.50724 23.3277 2.42697 23.3613C2.3467 23.3949 2.26055 23.4122 2.17354 23.4122H0.323909C0.25475 23.4081 0.18626 23.4276 0.129698 23.4677C0.104303 23.4853 0.0834998 23.5088 0.0690219 23.5362C0.0545439 23.5635 0.04681 23.5939 0.0464643 23.6249V24.6699C0.0451365 24.7006 0.0502052 24.7313 0.0613492 24.7599C0.0724932 24.7886 0.0894693 24.8146 0.111201 24.8364C0.193778 24.9051 0.300156 24.9383 0.407142 24.9289H20.4479C20.955 24.9352 21.462 24.9043 21.9646 24.8364C22.2784 24.7878 22.5877 24.7136 22.8894 24.6144C23.2736 24.4815 23.6426 24.3079 23.9899 24.0965C24.5336 23.7849 25.0264 23.392 25.4511 22.9313C26.2984 22.0586 26.843 20.9369 27.0048 19.7314C27.0605 19.28 27.0605 18.8234 27.0048 18.3719" fill="black"/>
<path class="inherit-fill" d="M47.9981 16.6332C47.9981 19.2135 45.8895 20.6747 42.1625 20.6747H35.4761V20.5175C36.7616 20.3602 37.1222 20.0088 37.1222 18.4089V7.21862C37.1222 5.88689 36.7616 5.44298 35.4761 5.29501V5.13779H41.9498C45.4086 5.13779 47.249 6.35855 47.249 8.83705C47.249 11.0566 45.3993 12.4808 42.7266 12.6565V12.7213C45.8895 12.7213 47.9981 14.0807 47.9981 16.6332V16.6332ZM39.5823 5.53546V12.5363H41.025C43.559 12.5363 44.6687 11.3803 44.6687 8.93878C44.6687 6.67298 43.4017 5.53546 41.0712 5.53546H39.5823ZM45.3161 16.6332C45.3161 14.1177 43.9381 12.934 41.4966 12.934H39.5823V20.2123H41.6446C43.9381 20.2493 45.3161 18.9915 45.3161 16.661V16.6332ZM49.4778 15.1258C49.4778 11.7317 51.5494 9.21622 54.8787 9.21622C58.208 9.21622 60.2981 11.7317 60.2981 15.1258C60.2981 18.5199 58.1803 21.0446 54.8787 21.0446C51.5771 21.0446 49.4778 18.5014 49.4778 15.1258V15.1258ZM57.8751 15.1258C57.8751 11.6392 56.9503 9.73412 54.8787 9.73412C52.8071 9.73412 51.8545 11.6392 51.8545 15.1258C51.8545 18.6123 52.7794 20.499 54.8787 20.499C56.978 20.499 57.8751 18.5846 57.8751 15.1258ZM61.6668 15.1258C61.6668 11.7317 63.7292 9.21622 67.0585 9.21622C70.3878 9.21622 72.4317 11.7317 72.4317 15.1258C72.4317 18.5199 70.3693 21.0446 67.0585 21.0446C63.7477 21.0446 61.6668 18.5014 61.6668 15.1258V15.1258ZM70.0549 15.1258C70.0549 11.6392 69.1301 9.73412 67.0585 9.73412C64.9869 9.73412 64.0436 11.6392 64.0436 15.1258C64.0436 18.6123 64.9684 20.499 67.0585 20.499C69.1486 20.499 70.0549 18.5846 70.0549 15.1258ZM73.523 20.5175C74.6512 20.3602 75.0951 20.1198 75.0951 19.2782V7.04291C75.0951 5.80366 74.7622 5.5817 73.5414 5.66493V5.48922L77.2407 4.47192V19.3429C77.2407 20.1845 77.6199 20.388 78.7944 20.5175V20.6747H73.523V20.5175ZM77.3794 14.7929L80.9307 11.9259C81.8555 11.1953 82.0405 10.8439 82.0405 10.4647C82.0405 10.0855 81.7076 9.75262 80.8012 9.70637V9.5584H84.8889V9.70637C83.8983 10.0766 82.9856 10.6286 82.1977 11.334L79.34 13.7293L83.4185 18.8805C84.3433 20.0088 84.8982 20.4342 85.638 20.5452V20.6747H82.0867L77.3794 14.7929ZM86.1929 19.9903L86.5906 16.6332H86.7663C87.0067 18.9453 88.5419 20.4065 90.4656 20.4065C91.9545 20.4065 92.7313 19.5649 92.7313 18.4736C92.7313 17.3823 92.1117 16.9662 90.8817 16.5223L88.4865 15.5974C87.8666 15.4026 87.3273 15.0109 86.9501 14.4819C86.5729 13.9528 86.3785 13.3153 86.3964 12.6658C86.3964 10.8162 87.7743 9.26246 90.5025 9.26246C91.6415 9.25182 92.7667 9.51173 93.7856 10.0208L93.388 13.0357H93.1938C92.8608 10.6867 91.5476 9.81735 89.9754 9.81735C88.4032 9.81735 87.8206 10.5757 87.8206 11.556C87.8206 12.3051 88.2368 12.971 89.4205 13.4056L91.788 14.3859C93.3047 14.9871 94.1001 15.8286 94.1001 17.3361C94.1001 19.5094 92.4539 21.0354 89.9014 21.0354C88.5946 21.0207 87.3151 20.6601 86.1929 19.9903V19.9903ZM95.3393 20.5175C96.4676 20.3602 96.893 20.1383 96.893 19.2782V7.04291C96.893 5.80366 96.5601 5.5817 95.3393 5.66493V5.48922L99.0941 4.47192V11.6392C99.3221 10.9101 99.7851 10.2769 100.411 9.83858C101.036 9.40025 101.79 9.18141 102.553 9.21622C104.791 9.21622 105.817 10.6404 105.817 12.749V19.2782C105.817 20.1383 106.234 20.3602 107.371 20.5175V20.6747H102.174V20.5175C103.265 20.388 103.598 20.1845 103.598 19.3429V13.0357C103.598 11.1861 102.867 10.2613 101.397 10.2613C100.889 10.264 100.395 10.43 99.989 10.7347C99.5827 11.0395 99.2851 11.4668 99.1403 11.9537V19.3522C99.1403 20.1938 99.464 20.3972 100.555 20.5267V20.6839H95.3856L95.3393 20.5175ZM108.148 15.1258C108.148 11.7317 110.21 9.21622 113.54 9.21622C116.869 9.21622 118.913 11.7317 118.913 15.1258C118.913 18.5199 116.841 21.0446 113.54 21.0446C110.238 21.0446 108.148 18.5014 108.148 15.1258V15.1258ZM116.536 15.1258C116.536 11.6392 115.611 9.73412 113.54 9.73412C111.468 9.73412 110.516 11.6392 110.516 15.1258C110.516 18.6123 111.44 20.499 113.54 20.499C115.639 20.499 116.536 18.5846 116.536 15.1258ZM119.662 24.9566C120.799 24.7994 121.216 24.5774 121.216 23.7173V11.8797C121.216 10.5757 120.91 10.3722 119.662 10.4647V10.3075L123.417 9.3087V11.334C123.706 10.6862 124.181 10.139 124.782 9.76189C125.384 9.38481 126.083 9.19487 126.792 9.21622C129.141 9.21622 131.009 11.2878 131.009 14.5894C131.009 18.3904 128.651 21.0076 125.877 21.0076C124.986 21.0064 124.121 20.7105 123.417 20.166V23.7173C123.417 24.6421 123.796 24.8456 125.414 24.9566V25.1138H119.662V24.9566ZM128.633 15.2553C128.633 12.2219 127.366 10.3537 125.572 10.3537C125.131 10.3278 124.692 10.4313 124.309 10.6515C123.926 10.8717 123.616 11.1989 123.417 11.593V19.3892C123.647 19.7635 123.971 20.0708 124.358 20.2802C124.744 20.4896 125.178 20.5937 125.618 20.5822C127.282 20.5822 128.633 18.7233 128.633 15.2553Z" fill="black"/>
</g>
</svg>
