<svg width="151" height="26" viewBox="0 0 151 26" fill="none" xmlns="http://www.w3.org/2000/svg">
<path class="inherit-fill" fill-rule="evenodd" clip-rule="evenodd" d="M28.0939 21.87C27.7077 22.3633 27.2294 22.7768 26.6855 23.0878C26.5333 23.1814 26.374 23.2629 26.209 23.3313C24.9828 23.7276 23.6938 23.8928 22.4073 23.8185H5.55948C5.45985 23.8185 5.36121 23.7987 5.26929 23.7602C5.17738 23.7218 5.09402 23.6655 5.02406 23.5945C4.95411 23.5236 4.89895 23.4394 4.86179 23.347C4.82464 23.2545 4.80623 23.1556 4.80763 23.056V15.3469C4.76633 15.0279 4.8064 14.7037 4.92411 14.4044C4.99017 14.2941 5.08306 14.2022 5.19415 14.1374C5.30524 14.0726 5.43091 14.037 5.55948 14.0338H21.539C22.5344 14.0338 23.551 14.0338 24.5464 14.1079C25.5613 14.1966 26.5322 14.563 27.3526 15.1668C27.6282 15.3877 27.877 15.64 28.0939 15.9187C28.8024 16.7342 29.2032 17.7719 29.227 18.852C29.2169 19.9474 28.8149 21.0029 28.0939 21.8276V21.87ZM4.79704 9.66032V3.27486C4.79564 3.17524 4.81405 3.07633 4.8512 2.98389C4.88836 2.89144 4.94352 2.8073 5.01347 2.73636C5.08343 2.66542 5.16679 2.60909 5.25871 2.57065C5.35062 2.5322 5.44926 2.51241 5.54889 2.51242H23.4345C24.6976 2.48095 25.9432 2.81165 27.0244 3.46547C28.0355 4.154 28.7824 5.16602 29.1423 6.33522C29.2544 6.70276 29.315 7.08409 29.3223 7.4683C29.2755 8.52841 28.8683 9.54081 28.168 10.338C27.7797 10.8362 27.2977 11.2535 26.749 11.5664C25.55 12.0816 24.2515 12.3239 22.9474 12.2759H5.55948C5.45514 12.2705 5.35288 12.2446 5.25859 12.1995C5.16429 12.1545 5.07979 12.0914 5.00995 12.0137C4.94011 11.9359 4.88628 11.8452 4.85156 11.7467C4.81685 11.6481 4.80192 11.5437 4.80763 11.4394V9.70268L4.79704 9.66032ZM30.8472 18.0366C30.7811 17.5539 30.6567 17.0809 30.4765 16.6282C30.3068 16.181 30.0865 15.7547 29.82 15.3575C29.5451 14.9745 29.233 14.6198 28.8881 14.2985L28.2316 13.7479L27.8503 13.4725L27.4797 13.1972C27.9245 12.9007 28.3692 12.583 28.7822 12.2442C29.1312 11.9269 29.4437 11.5717 29.7141 11.1852C29.9865 10.7976 30.2172 10.3823 30.4024 9.94623C30.5527 9.60531 30.6697 9.25069 30.7519 8.88729C30.8736 8.10839 30.8736 7.31532 30.7519 6.53642C30.7092 6.20528 30.6348 5.87902 30.5295 5.56219C30.326 4.92181 30.0222 4.31776 29.6294 3.77257C29.4705 3.54342 29.2934 3.32741 29.0999 3.12661C28.6153 2.60589 28.0504 2.16615 27.4268 1.8241C27.0301 1.56372 26.5988 1.36052 26.1454 1.2205C25.0094 0.920915 23.8357 0.788917 22.6615 0.828691H0.317691C0.277846 0.828666 0.238404 0.836671 0.201723 0.85223C0.165041 0.867789 0.131871 0.890581 0.104195 0.919246C0.076519 0.94791 0.0549042 0.981859 0.0406419 1.01906C0.0263795 1.05627 0.0197622 1.09597 0.0211853 1.13579V2.24768C0.0211853 2.56537 0.32828 2.58655 0.561249 2.58655H2.46736C2.56699 2.58654 2.66563 2.60633 2.75754 2.64477C2.84946 2.68322 2.93282 2.73955 3.00277 2.81049C3.07273 2.88143 3.12789 2.96557 3.16504 3.05801C3.2022 3.15046 3.22061 3.24937 3.21921 3.34899V11.5558C3.21902 11.7664 3.13523 11.9683 2.98624 12.1171C2.91515 12.1892 2.82809 12.2436 2.73209 12.2759C2.61296 12.2965 2.49118 12.2965 2.37205 12.2759H0.561249C0.455956 12.2599 0.348857 12.2599 0.243564 12.2759C0.15625 12.3085 0.084413 12.3728 0.0423642 12.4559C0.0212538 12.5429 0.0212538 12.6337 0.0423642 12.7207V13.6631C0.0328065 13.7299 0.0328065 13.7976 0.0423642 13.8643C0.0723618 13.9163 0.115618 13.9594 0.167713 13.9891C0.219808 14.0189 0.278872 14.0343 0.33887 14.0338H2.32969C2.44871 14.0207 2.56915 14.0318 2.68378 14.0663C2.79842 14.1009 2.90489 14.1583 2.99683 14.235C3.09053 14.3388 3.16079 14.4616 3.20281 14.595C3.24484 14.7283 3.25765 14.8692 3.24039 15.008V23.0454C3.24179 23.145 3.22338 23.244 3.18622 23.3364C3.14907 23.4288 3.09391 23.513 3.02395 23.5839C2.954 23.6549 2.87064 23.7112 2.77872 23.7496C2.68681 23.7881 2.58817 23.8079 2.48853 23.8079H0.370638C0.291449 23.8032 0.213025 23.8256 0.148259 23.8714C0.119181 23.8916 0.0953608 23.9185 0.078783 23.9499C0.0622052 23.9812 0.0533495 24.016 0.0529537 24.0514V25.248C0.0514333 25.2832 0.0572372 25.3183 0.0699974 25.3511C0.0827577 25.3839 0.102196 25.4137 0.12708 25.4386C0.221633 25.5173 0.34344 25.5553 0.465943 25.5445H23.4133C23.9941 25.5518 24.5745 25.5164 25.15 25.4386C25.5094 25.3831 25.8635 25.2981 26.209 25.1845C26.6489 25.0323 27.0714 24.8335 27.4691 24.5915C28.0916 24.2347 28.6559 23.7847 29.1423 23.2572C30.1124 22.2579 30.736 20.9736 30.9213 19.5933C30.9851 19.0763 30.9851 18.5535 30.9213 18.0366" fill="black"/>
<path class="inherit-fill" d="M54.9593 16.0458C54.9593 19.0002 52.5448 20.6734 48.2773 20.6734H40.6211V20.4934C42.093 20.3133 42.506 19.9109 42.506 18.079V5.26568C42.506 3.7408 42.093 3.2325 40.6211 3.06307V2.88305H48.0337C51.9942 2.88305 54.1015 4.28086 54.1015 7.11884C54.1015 9.66032 51.9836 11.2911 48.9232 11.4923V11.5664C52.5449 11.5664 54.9593 13.1231 54.9593 16.0458V16.0458ZM45.3228 3.3384V11.3546H46.9748C49.8763 11.3546 51.147 10.0309 51.147 7.23532C51.147 4.6409 49.6963 3.3384 47.0277 3.3384H45.3228ZM51.8883 16.0458C51.8883 13.1654 50.3105 11.81 47.5148 11.81H45.3228V20.1439H47.6843C50.3105 20.1863 51.8883 18.7461 51.8883 16.0775V16.0458ZM56.6536 14.3197C56.6536 10.4333 59.0256 7.55301 62.8378 7.55301C66.65 7.55301 69.0433 10.4333 69.0433 14.3197C69.0433 18.206 66.6183 21.097 62.8378 21.097C59.0574 21.097 56.6536 18.1848 56.6536 14.3197V14.3197ZM66.2688 14.3197C66.2688 10.3275 65.2099 8.14602 62.8378 8.14602C60.4658 8.14602 59.3751 10.3275 59.3751 14.3197C59.3751 18.3119 60.434 20.4722 62.8378 20.4722C65.2416 20.4722 66.2688 18.2802 66.2688 14.3197ZM70.6105 14.3197C70.6105 10.4333 72.972 7.55301 76.7842 7.55301C80.5964 7.55301 82.9367 10.4333 82.9367 14.3197C82.9367 18.206 80.5752 21.097 76.7842 21.097C72.9931 21.097 70.6105 18.1848 70.6105 14.3197V14.3197ZM80.2152 14.3197C80.2152 10.3275 79.1562 8.14602 76.7842 8.14602C74.4121 8.14602 73.332 10.3275 73.332 14.3197C73.332 18.3119 74.391 20.4722 76.7842 20.4722C79.1774 20.4722 80.2152 18.2802 80.2152 14.3197ZM84.1862 20.4934C85.4781 20.3133 85.9864 20.038 85.9864 19.0744V5.06448C85.9864 3.64549 85.6052 3.39134 84.2074 3.48665V3.28545L88.4432 2.12061V19.1485C88.4432 20.1121 88.8774 20.3451 90.2222 20.4934V20.6734H84.1862V20.4934ZM88.602 13.9385L92.6684 10.6557C93.7273 9.81916 93.9391 9.41676 93.9391 8.98259C93.9391 8.54842 93.5579 8.1672 92.5201 8.11425V7.94482H97.2007V8.11425C96.0664 8.53815 95.0213 9.17025 94.1192 9.978L90.847 12.7207L95.517 18.619C96.5759 19.9109 97.2113 20.398 98.0584 20.5251V20.6734H93.9921L88.602 13.9385ZM98.6938 19.8898L99.1492 16.0458H99.3504C99.6257 18.6931 101.384 20.3663 103.586 20.3663C105.291 20.3663 106.181 19.4026 106.181 18.1531C106.181 16.9035 105.471 16.427 104.063 15.9187L101.32 14.8598C100.61 14.6366 99.9927 14.1882 99.5608 13.5824C99.1289 12.9766 98.9063 12.2466 98.9268 11.5029C98.9268 9.38499 100.505 7.60596 103.629 7.60596C104.933 7.59377 106.221 7.89137 107.388 8.47429L106.932 11.9265H106.71C106.329 9.23674 104.825 8.24132 103.025 8.24132C101.225 8.24132 100.558 9.10966 100.558 10.2321C100.558 11.0899 101.034 11.8523 102.39 12.35L105.1 13.4725C106.837 14.1608 107.748 15.1245 107.748 16.8506C107.748 19.3391 105.863 21.0864 102.94 21.0864C101.444 21.0695 99.9787 20.6567 98.6938 19.8898V19.8898ZM109.167 20.4934C110.459 20.3133 110.946 20.0592 110.946 19.0744V5.06448C110.946 3.64549 110.565 3.39134 109.167 3.48665V3.28545L113.466 2.12061V10.3275C113.727 9.49254 114.257 8.76754 114.974 8.26564C115.69 7.76373 116.553 7.51315 117.427 7.55301C119.989 7.55301 121.165 9.18379 121.165 11.5982V19.0744C121.165 20.0592 121.641 20.3133 122.944 20.4934V20.6734H116.992V20.4934C118.242 20.3451 118.623 20.1121 118.623 19.1485V11.9265C118.623 9.80857 117.787 8.74962 116.103 8.74962C115.521 8.75274 114.956 8.94281 114.491 9.29176C114.026 9.64072 113.685 10.1301 113.519 10.6875V19.1591C113.519 20.1227 113.89 20.3557 115.139 20.5039V20.684H109.22L109.167 20.4934ZM123.833 14.3197C123.833 10.4333 126.195 7.55301 130.007 7.55301C133.819 7.55301 136.159 10.4333 136.159 14.3197C136.159 18.206 133.787 21.097 130.007 21.097C126.226 21.097 123.833 18.1848 123.833 14.3197V14.3197ZM133.438 14.3197C133.438 10.3275 132.379 8.14602 130.007 8.14602C127.635 8.14602 126.544 10.3275 126.544 14.3197C126.544 18.3119 127.603 20.4722 130.007 20.4722C132.411 20.4722 133.438 18.2802 133.438 14.3197ZM137.017 25.5763C138.32 25.3963 138.796 25.1421 138.796 24.1573V10.6028C138.796 9.10966 138.447 8.87669 137.017 8.98259V8.80257L141.316 7.6589V9.978C141.648 9.23619 142.192 8.6096 142.88 8.17782C143.569 7.74604 144.37 7.52856 145.182 7.55301C147.871 7.55301 150.01 9.92505 150.01 13.7055C150.01 18.0578 147.31 21.0546 144.133 21.0546C143.114 21.0532 142.123 20.7144 141.316 20.091V24.1573C141.316 25.2163 141.751 25.4492 143.604 25.5763V25.7563H137.017V25.5763ZM147.289 14.4679C147.289 10.9946 145.838 8.85551 143.784 8.85551C143.279 8.82585 142.777 8.94435 142.338 9.19645C141.9 9.44855 141.545 9.82326 141.316 10.2745V19.2014C141.58 19.6301 141.951 19.9819 142.394 20.2217C142.836 20.4615 143.334 20.5807 143.837 20.5675C145.743 20.5675 147.289 18.439 147.289 14.4679Z" fill="black"/>
</svg>
