<svg xmlns="http://www.w3.org/2000/svg" viewBox="0 0 141.65 23.62" width="120" height="26">
  <path class="inherit-fill" d="M26.53 19.95a4.57 4.57 0 01-1.33 1.15 3.19 3.19 0 01-.45.23 9.83 9.83 0 01-3.59.46H5.25a.71.71 0 01-.71-.72v-7.28a1.8 1.8 0 01.11-.89.72.72 0 01.6-.35h15.09c.94 0 1.9 0 2.84.07a5.24 5.24 0 012.65 1 4.27 4.27 0 01.7.71 4.37 4.37 0 011.07 2.77 4.33 4.33 0 01-1.07 2.81m-22-11.49V2.39a.71.71 0 01.71-.72h16.89a6.25 6.25 0 013.39.9 5.09 5.09 0 012 2.71 3.92 3.92 0 01.17 1.07 4.4 4.4 0 01-1.09 2.71 4.57 4.57 0 01-1.34 1.16 8.32 8.32 0 01-3.59.67H5.25a.75.75 0 01-.71-.79V8.46m24.59 7.87a5.68 5.68 0 00-.35-1.33 5.93 5.93 0 00-.62-1.2 6.73 6.73 0 00-.88-1l-.62-.52-.36-.26-.35-.26c.42-.28.84-.58 1.23-.9a6 6 0 00.88-1 6.36 6.36 0 00.65-1.17 5.47 5.47 0 00.33-1 7.19 7.19 0 000-2.22 4.9 4.9 0 00-.21-.92 6 6 0 00-.85-1.69 4.92 4.92 0 00-.5-.61 6.29 6.29 0 00-1.58-1.23 4.77 4.77 0 00-1.21-.57A11.39 11.39 0 0021.4.08H.3a.28.28 0 00-.28.29v1.05c0 .3.29.32.51.32h1.8a.71.71 0 01.71.72v7.75a.75.75 0 01-.22.53.61.61 0 01-.24.15 1 1 0 01-.34 0H.53a1 1 0 00-.3 0 .35.35 0 00-.19.17.53.53 0 000 .25v.89a.67.67 0 000 .19.32.32 0 00.28.16H2.2a.84.84 0 01.63.19.92.92 0 01.23.73v7.59a.71.71 0 01-.71.72h-2a.33.33 0 00-.21.06.21.21 0 00-.09.17v1.13a.24.24 0 00.07.18.44.44 0 00.32.1h21.67a11.2 11.2 0 001.64-.1 6.27 6.27 0 001-.24 6.17 6.17 0 001.19-.56 6.64 6.64 0 001.58-1.26 6.14 6.14 0 001.68-3.46 6 6 0 000-1.47" fill-rule="evenodd"/>
  <path class="inherit-fill" d="M51.9 14.45c0 2.79-2.28 4.37-6.31 4.37h-7.23v-.17c1.39-.17 1.78-.55 1.78-2.28V4.27c0-1.44-.39-1.92-1.78-2.08v-.17h7c3.74 0 5.73 1.32 5.73 4 0 2.4-2 3.94-4.89 4.13v.07c3.42 0 5.7 1.47 5.7 4.23zm-9.1-12v7.57h1.56c2.74 0 3.94-1.25 3.94-3.89 0-2.45-1.37-3.68-3.89-3.68zm6.2 12c0-2.72-1.49-4-4.13-4H42.8v7.87h2.23C47.51 18.36 49 17 49 14.48zM53.5 12.82c0-3.67 2.24-6.39 5.84-6.39s5.86 2.72 5.86 6.39-2.29 6.4-5.86 6.4-5.84-2.75-5.84-6.4zm9.08 0c0-3.77-1-5.83-3.24-5.83s-3.27 2.06-3.27 5.83 1 5.81 3.27 5.81 3.24-2.07 3.24-5.81zM66.68 12.82c0-3.67 2.23-6.39 5.83-6.39s5.81 2.72 5.81 6.39-2.23 6.4-5.81 6.4-5.83-2.75-5.83-6.4zm9.07 0c0-3.77-1-5.83-3.24-5.83s-3.26 2.06-3.26 5.83 1 5.81 3.26 5.81 3.24-2.07 3.24-5.81zM79.5 18.65c1.22-.17 1.7-.43 1.7-1.34V4.08c0-1.34-.36-1.58-1.68-1.49V2.4l4-1.1v16.08c0 .91.41 1.13 1.68 1.27v.17h-5.7zm4.17-6.19l3.84-3.1c1-.79 1.2-1.17 1.2-1.58s-.36-.77-1.34-.82V6.8h4.42v.16a9.18 9.18 0 00-2.91 1.76l-3.09 2.59 4.41 5.57c1 1.22 1.6 1.68 2.4 1.8v.14h-3.84zM93.2 18.08l.43-3.63h.19c.26 2.5 1.92 4.08 4 4.08 1.61 0 2.45-.91 2.45-2.09s-.67-1.63-2-2.11l-2.59-1a3.23 3.23 0 01-2.26-3.17c0-2 1.49-3.68 4.44-3.68a7.78 7.78 0 013.55.82l-.43 3.26h-.21c-.36-2.54-1.78-3.48-3.48-3.48s-2.33.82-2.33 1.88c0 .81.45 1.53 1.73 2l2.56 1.06c1.64.65 2.5 1.56 2.5 3.19 0 2.35-1.78 4-4.54 4a8 8 0 01-4.01-1.13zM103.09 18.65c1.22-.17 1.68-.41 1.68-1.34V4.08c0-1.34-.36-1.58-1.68-1.49V2.4l4.06-1.1v7.75a3.74 3.74 0 013.74-2.62c2.42 0 3.53 1.54 3.53 3.82v7.06c0 .93.45 1.17 1.68 1.34v.17h-5.62v-.17c1.18-.14 1.54-.36 1.54-1.27v-6.82c0-2-.79-3-2.38-3a2.56 2.56 0 00-2.44 1.83v8c0 .91.35 1.13 1.53 1.27v.17h-5.59zM116.94 12.82c0-3.67 2.23-6.39 5.83-6.39s5.81 2.72 5.81 6.39-2.24 6.4-5.81 6.4-5.83-2.75-5.83-6.4zm9.07 0c0-3.77-1-5.83-3.24-5.83s-3.27 2.06-3.27 5.83 1 5.81 3.27 5.81 3.24-2.07 3.24-5.81zM129.39 23.45c1.23-.17 1.68-.41 1.68-1.34V9.31c0-1.41-.33-1.63-1.68-1.53v-.17l4.06-1.08v2.19a3.87 3.87 0 013.65-2.29c2.54 0 4.56 2.24 4.56 5.81 0 4.11-2.55 6.94-5.55 6.94a4.36 4.36 0 01-2.66-.91v3.84c0 1 .41 1.22 2.16 1.34v.17h-6.22zm9.7-10.49c0-3.28-1.37-5.3-3.31-5.3A2.45 2.45 0 00133.45 9v8.43a2.71 2.71 0 002.38 1.29c1.8 0 3.26-2.01 3.26-5.76z"/>
</svg>
