<svg width="120" height="27" viewBox="0 0 120 27" fill="none" xmlns="http://www.w3.org/2000/svg">
<path class="inherit-fill" d="M45.1374 10.4V8.10534H41.6089V25.5576H45.1374V16.9441C45.1374 13.9414 46.1542 11.3911 51.9124 11.3911V7.99175C48.5533 7.99175 46.8311 8.38839 45.1374 10.4ZM75.0605 25.8122H78.5597L85.0534 7.93496H81.5542L75.0595 25.8122H75.0605ZM97.6708 7.76458C92.5896 7.76458 88.5536 11.9298 88.5536 16.9157C88.5536 21.9594 92.6464 26.0394 97.6708 26.0394C102.724 26.0394 106.873 21.931 106.873 16.9157C106.873 11.9014 102.724 7.76458 97.6708 7.76458V7.76458ZM97.6992 22.7234C94.5096 22.7234 92.0253 20.0889 92.0253 16.9441C92.0253 13.8571 94.4528 11.1081 97.6992 11.1081C100.861 11.1081 103.373 13.7142 103.373 16.8882C103.373 20.0046 100.917 22.7234 97.6992 22.7234ZM33.1127 10.3441C31.6159 8.61557 29.6409 7.76549 27.2968 7.76549C22.2156 7.76549 18.0944 11.7319 18.0944 16.9166C18.0944 22.0162 22.1313 26.0403 27.2968 26.0403C29.64 26.0403 31.6443 25.2186 33.1127 23.4901V25.5576H36.6403V8.10534H33.1118V10.3432L33.1127 10.3441ZM27.2684 22.7536C23.9945 22.7536 21.5386 20.2034 21.5386 16.946C21.5386 13.7151 23.9936 11.1374 27.2684 11.1374C30.5716 11.1374 33.0275 13.7719 33.0275 16.945C33.0275 20.0898 30.6275 22.7527 27.2684 22.7527V22.7536ZM13.2403 20.9957C12.2235 22.0437 10.8128 22.7243 9.20336 22.7243C5.98534 22.7243 3.50107 20.0889 3.50107 16.9441C3.50107 13.8278 5.95695 11.1081 9.14656 11.1081C10.6992 11.1081 12.1392 11.7594 13.1551 12.7798L15.5267 10.4C13.8297 8.71615 11.5372 7.76922 9.14656 7.76458C4.03695 7.76458 0 11.9298 0 16.9157C0 21.9594 4.09282 26.0394 9.11817 26.0394C10.3205 26.0428 11.5115 25.8064 12.6215 25.3442C13.7314 24.8819 14.7381 24.203 15.5826 23.3472L13.2962 21.0525L13.2394 20.9957H13.2403ZM62.3853 7.76458C57.1914 7.76458 53.4934 12.015 53.4934 16.9157C53.4934 22.073 57.5579 26.0394 62.6107 26.0394C65.2928 26.0394 67.7496 24.9337 69.3857 23.0641L67.2128 20.8821L67.1276 20.8263C65.9982 22.1005 64.3053 22.8095 62.5832 22.8095C59.6189 22.8095 57.4168 20.7411 56.9368 18.134H71.1939C71.2214 17.709 71.2782 17.3408 71.2782 16.8589C71.3056 11.9856 67.5518 7.76458 62.3863 7.76458H62.3853ZM57.0779 15.2165C57.6989 12.8366 59.7032 10.9945 62.4137 10.9945C65.1518 10.9945 67.2971 12.865 67.6919 15.2165H57.0779ZM119.097 3.57191C119.351 3.57191 119.661 3.57191 120 3.59939V0.0882435C120 0.0882435 115.624 -0.56397 113.31 1.75908C112.238 2.83633 111.701 4.4229 111.701 6.4913V8.10626H109.132V11.4498H111.701V25.5576H115.258V11.4479H119.577V8.10443H115.258V7.14259C115.229 4.56397 116.443 3.57282 119.097 3.57282V3.57191Z" fill="black"/>
</svg>
