<svg width="131" height="38" viewBox="0 0 131 38" fill="none" xmlns="http://www.w3.org/2000/svg">
  <path d="M49.275 11.353V8.848h-3.852V27.9h3.852v-9.403c0-3.278 1.11-6.062 7.396-6.062V8.724c-3.667 0-5.547.433-7.396 2.629zm32.666 16.825h3.82L92.85 8.662h-3.82L81.94 28.178zm24.683-19.702c-5.547 0-9.953 4.547-9.953 9.99 0 5.506 4.468 9.96 9.953 9.96 5.516 0 10.046-4.485 10.046-9.96 0-5.474-4.53-9.99-10.046-9.99zm.031 16.33c-3.482 0-6.194-2.876-6.194-6.309 0-3.37 2.65-6.371 6.194-6.371 3.452 0 6.194 2.845 6.194 6.31 0 3.402-2.681 6.37-6.194 6.37zM36.148 11.292c-1.634-1.887-3.79-2.815-6.349-2.815-5.547 0-10.046 4.33-10.046 9.99 0 5.567 4.407 9.96 10.046 9.96 2.558 0 4.746-.897 6.349-2.784V27.9h3.851V8.848h-3.852v2.443zm-6.38 13.547c-3.574 0-6.255-2.784-6.255-6.34 0-3.527 2.68-6.341 6.255-6.341 3.606 0 6.287 2.876 6.287 6.34 0 3.433-2.62 6.34-6.287 6.34zM14.454 22.92c-1.11 1.144-2.65 1.887-4.407 1.887-3.513 0-6.225-2.877-6.225-6.31 0-3.402 2.681-6.371 6.163-6.371 1.695 0 3.267.711 4.376 1.825l2.589-2.598a9.916 9.916 0 00-6.965-2.877C4.407 8.476 0 13.023 0 18.466c0 5.506 4.468 9.96 9.954 9.96a9.875 9.875 0 007.057-2.939l-2.496-2.505-.062-.062zM68.104 8.476c-5.67 0-9.707 4.64-9.707 9.99 0 5.63 4.437 9.96 9.953 9.96 2.928 0 5.61-1.207 7.396-3.248l-2.372-2.382-.093-.061C72.048 24.126 70.2 24.9 68.32 24.9c-3.236 0-5.64-2.258-6.164-5.104H77.72c.03-.464.092-.866.092-1.392.03-5.32-4.068-9.928-9.707-9.928zm-5.794 8.135c.678-2.598 2.866-4.609 5.825-4.609 2.989 0 5.331 2.042 5.762 4.609H62.31zm67.704-12.712c.277 0 .616 0 .986.03V.096s-4.777-.712-7.303 1.824c-1.171 1.176-1.757 2.908-1.757 5.166v1.763h-2.804v3.65h2.804V27.9h3.883V12.497h4.715v-3.65h-4.715V7.797c-.031-2.815 1.294-3.897 4.191-3.897z" fill="#505359"/>
</svg>
