<svg width="80" height="26" viewBox="0 0 80 26" fill="none" xmlns="http://www.w3.org/2000/svg">
  <g clip-path="url(#clip0)" fill="#000000">
    <path d="M25 5.333c-3.833 0-6.75 2.75-6.75 6.667s2.917 6.667 6.75 6.667c1.833 0 3.25-.834 3.833-1.5V18.5h3v-13h-3v1.333c-.583-.666-2.083-1.5-3.833-1.5zm.083 10.584c-2.25 0-3.916-1.75-3.916-3.917a3.912 3.912 0 013.916-3.917c2.167 0 3.834 1.75 3.834 3.917s-1.667 3.917-3.834 3.917zm25.75-10.584c-1.75 0-3.083.667-3.916 1.5V5.5H44v19.833L46.917 25v-7.917c.833.917 2.25 1.5 3.916 1.5 4 0 6.667-2.583 6.667-6.666 0-4-2.667-6.584-6.667-6.584zm-.083 10.584c-2.333 0-3.833-1.667-3.833-3.917s1.5-3.917 3.833-3.917S54.667 9.75 54.667 12c-.084 2.25-1.584 3.917-3.917 3.917zM80 5.333c-1.833 0-2.833.667-3.417 1.5V5.5h-2.916v13h2.916v-7.167c0-1.916 1.334-3.25 3.167-3.25H80v-2.75zm-14.667 0c-3.833 0-6.833 3-6.833 6.667s3 6.667 6.833 6.667c3.167 0 5.75-1.75 6.584-4.084h-3.5C68 15.417 66.917 16 65.333 16c-1.916 0-3.416-1.333-3.75-3H72c.083-.333.083-.667.083-1 0-3.667-3-6.667-6.75-6.667zm-3.583 5.084C62.167 9.083 63.583 8 65.333 8 67 8 68.5 9.083 68.917 10.417H61.75zm-23.667-2.5c-.583 0-1.25.25-1.25 1 0 .833.834 1.083 2.417 1.666 2.167.834 3.25 1.834 3.25 3.834 0 2.083-1.75 4.25-4.75 4.25s-4.583-2.25-4.667-4.084h2.834c.166.834.833 1.5 1.833 1.5 1.083 0 1.75-.75 1.75-1.583 0-.583-.25-1.25-2.083-1.75-2-.5-3.417-1.583-3.417-3.75 0-2 1.75-3.583 4-3.583 2 0 3.25 1.416 3.833 2.333l-2.416 1.083c-.334-.666-.834-.916-1.334-.916z"/>
    <path d="M9.417 0C4.083 0 0 4.167 0 9.333c0 5.167 4.083 9.334 9.417 9.334 3.416 0 6.583-1.834 8-4.417l-2.75-1.5c-1.084 1.917-2.917 3-5.25 3-1.667 0-3.334-.667-4.417-1.833-1.167-1.25-1.833-2.834-1.833-4.5 0-1.667.666-3.25 1.833-4.5C6.083 3.75 7.667 3.083 9.417 3.083c1.833 0 2.916.584 3.666 1.167.834.583 1.667 1.167 3.084 1.167 2.583 0 3.75-2.084 4-3.167l-2.917-.583c0 .083-.25.916-1.083.916-.417 0-.667-.166-1.25-.583-1.084-1-2.5-2-5.5-2"/>
  </g>
  <defs>
    <clipPath id="clip0">
      <path fill="#fff" d="M0 0h80v25.333H0z"/>
    </clipPath>
  </defs>
</svg>
