<svg width="120" height="39" viewBox="0 0 120 39" xmlns="http://www.w3.org/2000/svg">
  <g fill="none" fill-rule="evenodd">
    <g class="inherit-fill" fill="#000" fill-rule="nonzero">
      <path d="M37.494 8.199c2.62 0 4.879 1.24 5.739 2.24v-2h4.499v19.496h-4.5v-2c-.86 1-2.979 2.26-5.738 2.26-5.74 0-10.119-4.119-10.119-9.998s4.36-9.998 10.119-9.998zm.12 15.877c3.26 0 5.739-2.62 5.739-5.879 0-3.26-2.48-5.879-5.74-5.879a5.863 5.863 0 00-5.878 5.879c0 3.26 2.5 5.879 5.879 5.879zM76.227 8.199c6.02 0 9.999 3.879 10.019 9.898 0 6.119-4 9.998-9.999 9.998-2.5 0-4.619-.88-5.879-2.26v11.879l-4.379.5V8.459h4.36v2c1.26-1.26 3.259-2.26 5.878-2.26zm-.12 15.877c3.5 0 5.76-2.5 5.88-5.879 0-3.38-2.38-5.879-5.88-5.879-3.48 0-5.739 2.5-5.739 5.879 0 3.38 2.24 5.879 5.74 5.879zM119.98 8.199s0 4.119.02 4.119h-.38c-2.76 0-4.76 2-4.76 4.88v10.757h-4.378V8.46h4.379v2c.86-1.26 2.38-2.26 5.119-2.26zm-21.996 0c5.619 0 10.118 4.499 10.118 9.998 0 .5 0 1-.12 1.5H92.365c.5 2.5 2.74 4.499 5.619 4.499 2.36 0 3.999-.86 4.619-2.12h5.259c-1.26 3.5-5.12 6.12-9.878 6.12-5.74 0-10.239-4.5-10.239-9.999 0-5.5 4.5-9.998 10.239-9.998zm-5.38 7.618h10.759c-.62-2-2.88-3.619-5.38-3.619-2.619 0-4.759 1.62-5.378 3.62zM57.11 12.078c-.88 0-1.88.38-1.88 1.5 0 1.26 1.26 1.62 3.62 2.5 3.24 1.26 4.88 2.759 4.88 5.758 0 3.12-2.62 6.38-7.12 6.38-4.499 0-6.878-3.38-6.998-6.12h4.259c.26 1.26 1.26 2.26 2.76 2.26 1.62 0 2.62-1.12 2.62-2.38 0-.88-.38-1.88-3.12-2.62-3-.76-5.12-2.379-5.12-5.618 0-3 2.62-5.38 6-5.38 2.999 0 4.879 2.12 5.739 3.5l-3.62 1.62c-.52-1.04-1.26-1.4-2.02-1.4zM14.118.2c4.499 0 6.639 1.5 8.238 2.96.88.62 1.26.88 1.88.88 1.24 0 1.62-1.26 1.62-1.38l4.379.88c-.38 1.64-2.12 4.759-5.999 4.759-2.12 0-3.36-.88-4.62-1.76-1.12-.88-2.739-1.76-5.498-1.76-2.62 0-5 1-6.62 2.76-1.739 1.88-2.739 4.26-2.739 6.759 0 2.5.98 4.879 2.74 6.759 1.62 1.76 4.12 2.76 6.619 2.76 3.5 0 6.259-1.62 7.878-4.5l4.12 2.26c-2.12 3.859-6.88 6.618-11.998 6.618C6.119 28.195 0 21.956 0 14.198 0 6.439 6.119.2 14.118.2z"/>
    </g>
  </g>
</svg>
