<svg width="131" height="34" xmlns="http://www.w3.org/2000/svg" viewBox="0 0 131 34">
  <switch>
    <g class="inherit-fill">
      <path d="M83.3 18.5c.5 2.4 2.9 4.3 5.4 4.3 2.1 0 4-.5 5.7-1.6.3-.2.5-.2.7.1.8.9 1.6 1.8 2.5 2.7-.5.6-1.4 1.1-2.3 1.6-2.5 1.3-5.1 1.9-7.8 1.5-3.5-.5-6-2.5-7.6-5.7-2.4-4.9-.7-10.8 3.8-13.7 3.7-2.4 8.6-1.9 11.8 1.1 2.7 2.5 3.7 5.6 3.4 9.3 0 .4-.2.4-.5.4H83.3zm.1-3.8h10.9c-.5-2.2-2.9-4-5.3-4-2.6-.1-5 1.7-5.6 4zM33.5 7.7v-1H37.8c.4 0 .5.1.5.5V26.4c0 .3-.1.5-.5.5h-4.4v-1.4c-.4.2-.7.4-1 .5-4 1.9-8.9.8-11.7-2.7-3.4-4.3-3-10.4.8-14.2 3-3 7.8-3.7 11.5-1.6.3 0 .4.1.5.2zm.5 9c0-.7.1-1.4 0-1.9-.5-1.9-2-3.8-4.5-4.1-2.8-.4-5.5 1.3-6.4 3.9-.9 2.6.1 5.5 2.5 7s5.5 1.1 7.3-1.1c.9-1.1 1.4-2.4 1.1-3.8z"/>
      <path d="M19.4 9.3c-1.3 1.2-2.5 2.4-3.7 3.6-2.9-2.8-6.8-2.3-8.9-.2-2.1 2.2-2.2 5.5-.2 7.8 1.8 2.1 5.9 3.1 9.1 0 1.2 1.2 2.4 2.4 3.7 3.6-.7.8-1.6 1.4-2.5 1.9-4.1 2.4-9.3 2-13-1-5.5-4.5-5.3-12.8.4-17C8.8 4.8 15 5.2 19 8.9c.1.1.3.2.4.4zM41.7 20.1c1.5 1.5 3.4 2.3 5.4 2.7 1.1.2 2.2.2 3.2-.4.6-.4 1.1-.9 1.1-1.6 0-.8-.2-1.3-1-1.6-.8-.3-1.6-.4-2.4-.5-1.7-.2-3.3-.4-4.8-1.2-2.1-1-3.2-2.6-3.2-5 0-2.3 1-3.9 3-5.1 3.1-1.8 8.9-1.8 12 1.1l.3.3c-.9 1.1-1.8 2.2-2.6 3.3l-1.2-.9c-1.7-1-3.5-1.1-5.4-.6-1 .3-1.5 1-1.4 1.9.1.7.5 1.2 1.1 1.3.9.2 1.8.4 2.7.5 1.2.2 2.4.3 3.5.7 2.9.9 4.3 3 4.1 6-.2 2.7-1.6 4.6-4.1 5.5-3.4 1.2-6.8 1.1-10.1-.6-.9-.5-1.7-1.3-2.5-2-.1-.1-.1-.3-.1-.4.9-1.1 1.7-2.3 2.4-3.4zM122 15.8c.5-1.2.9-2.3 1.4-3.4.7-1.8 1.5-3.6 2.2-5.4.1-.3.3-.4.6-.4h4.8c-.2.5-.3.9-.5 1.3-2.2 5.2-4.3 10.4-6.5 15.6-1.4 3.3-2.7 6.5-4 9.8-.1.3-.3.5-.7.4h-4.8c.3-.6.5-1.2.7-1.8 1.3-3.1 2.6-6.3 3.9-9.4.1-.2.1-.6 0-.8-2-5-4.1-9.9-6.2-14.9v-.2h4.7c.4 0 .6.2.7.5l3.3 8.1c.2.2.3.4.4.6zM56.4 6.7h4.2V.2h4.8v6.4H70.2c.3 0 .5.1.5.4V11.1h-5.2v7.6c0 2.3 1.7 3.6 3.9 3 .4 1.4.9 2.9 1.3 4.3-.8.4-1.7.6-2.6.7-4 .2-7.4-2.8-7.5-6.7-.1-2.7 0-5.5-.1-8.3v-.6h-3.8c-.2 0-.4 0-.4-.3V6.7c0 .1.1.1.1 0zM77.1.2v26.6h-4.8v-.5V.8c0-.6 0-.6.6-.6h4.2zM105.3 26.8h-4.8v-.3V7.1c0-.3.1-.4.4-.4h4c.4 0 .5.1.5.5v.6c.9-.3 1.7-.8 2.5-1 1-.3 2-.4 3.1-.5.1 0 .4.1.4.2.5 1.2 1.1 2.4 1.6 3.6h-.5c-2.5.1-4.8.9-6.9 2.5-.2.1-.3.4-.3.6v13.6z"/>
    </g>
  </switch>
</svg>
