<svg width="127" height="28" viewBox="0 0 127 28" fill="none" xmlns="http://www.w3.org/2000/svg">
<path class="inherit-fill" d="M22.6022 0.133613C25.452 0.971084 26.6854 2.26029 26.6934 5.26342C26.437 8.16156 22.7582 12.8905 20.2054 12.7418C18.6806 12.6646 17.5141 12.1684 17.3102 11.4422C19.7882 9.38317 22.7519 5.41691 23.0592 3.16457C22.9119 3.08822 22.7606 3.01187 22.341 3.01187C19.6664 3.01187 15.6914 5.3 11.8025 9.4969C8.10861 13.5037 5.27153 18.2343 4.98248 20.9789C4.8519 22.5807 5.57809 23.6496 6.79876 23.687C8.89771 23.7267 13.1537 19.9895 15.4613 17.3538C16.256 17.5081 17.3046 19.226 17.2083 19.7971C16.4606 23.7267 10.9584 28.1511 7.06869 27.961C2.90981 27.8473 -0.38353 23.7267 0.0361004 19.3771C0.393622 15.7155 3.59141 10.5252 7.85779 6.48264C11.6082 2.922 16.1015 0.162245 21.3751 0L22.6022 0.133613Z" fill="black"/>
<path class="inherit-fill" d="M85.5076 2.13306C86.3946 2.27383 87.667 2.67546 87.7403 3.73721C87.2864 4.44902 86.7704 5.12027 86.268 5.79868C89.4857 5.93547 92.709 6.10249 95.898 6.57411C96.8344 6.71329 97.9563 6.88667 98.802 7.39806C99.1372 7.66449 97.0502 8.35404 96.6218 8.5807C95.9338 8.5807 92.4223 8.50435 91.5823 8.50435C89.3503 8.49242 86.7919 8.52105 84.212 8.57434C84.4103 8.29995 84.6094 8.02239 84.8108 7.74164C85.7743 6.45641 85.2886 7.1038 86.2664 5.79947H86.2656C85.2886 7.1038 85.7735 6.45641 84.81 7.74084C84.6086 8.02159 84.4095 8.29995 84.2113 8.57434C81.3965 8.64353 82.7995 8.60536 80.0014 8.68807L80.0006 8.68886C82.7995 8.60615 81.3957 8.64433 84.2113 8.57513C79.3612 15.3441 75.9803 20.1367 73.9649 23.438H73.9641C73.7452 23.7983 73.8344 23.6504 73.6974 23.8794C73.8344 23.6512 73.7452 23.7983 73.9649 23.438C75.2732 23.2026 79.7482 21.2032 82.5248 19.6181C82.9293 19.3819 82.7859 19.4686 82.9587 19.3636L82.5248 19.6181C82.2381 18.7473 82.039 17.4827 82.2118 16.5156C82.5248 14.1901 89.3583 10.9857 94.3692 10.7559C95.3605 10.7559 95.5986 13.8075 94.5507 14.2664C92.4104 14.3436 86.096 15.7926 86.053 16.9753C86.0196 17.9273 88.9434 17.3181 90.6076 16.7454C91.2892 16.8989 91.4222 18.5771 90.8999 19.2634C86.9958 20.5988 82.473 22.1616 82.4475 22.8877C82.4388 23.1175 82.8568 23.1907 83.5838 23.1907C85.9997 23.1907 92.2997 21.4609 96.1552 19.4646C96.1727 19.4893 96.1894 19.5139 96.2069 19.5386V19.5378L96.156 19.4646C96.7261 19.1616 96.4976 19.2905 96.8456 19.0892C96.4976 19.2905 96.7253 19.1616 96.1552 19.4646C96.0158 19.2205 95.6782 18.3925 95.7491 17.128C95.9593 13.351 104.173 11.0629 107.954 11.0629C108.909 11.0629 109.147 14.1137 108.137 14.5702C106.24 14.2275 99.732 15.7529 99.6532 16.8989C99.6189 17.8509 102.157 17.3547 103.821 16.782C104.502 16.9355 104.635 18.6144 104.113 19.3008C99.9486 20.4461 93.8954 23.2305 96.8344 23.2305C101.839 23.2305 108.585 19.2236 111.486 16.0193C111.228 15.7529 111.086 15.4093 111.101 15.0291C110.802 13.7312 114.201 10.4895 117.219 10.4497C117.747 10.6032 118.777 11.7485 118.698 11.8256C118.646 12.1684 118.119 13.0846 117.522 13.8075C117.866 13.8075 118.206 13.8473 118.55 13.8839C119.084 13.8839 119.58 13.9236 119.845 13.9976C120.302 14.0374 121.446 15.1803 121.418 15.9827C121.381 17.0516 117.446 20.3697 117.477 21.5889C117.522 22.5449 124.396 18.1579 125.532 17.3547C125.688 17.2417 125.765 17.2783 125.875 17.3952C126.205 17.7746 126.602 18.4609 126.991 19.3008C127.315 19.8734 118.466 26.1684 114.53 26.1684C113.383 26.1684 112.397 24.9094 112.239 23.9566C112.071 23.2678 114.297 19.7597 116.336 17.128C116.225 17.0119 116.112 16.9753 115.348 16.9753C114.731 17.1646 104.684 27.0074 96.2826 27.0074C94.2099 26.9693 92.8873 26.3513 92.7679 24.1475H92.7663C89.4937 25.486 86.0992 26.8245 82.5335 27.0448C80.2331 27.0448 79.2625 26.3584 79.1574 24.6461L79.1582 24.6453V24.6318H79.1574V24.6461C76.2072 26.1342 72.542 27.3454 70.7584 27.3112C69.7455 27.1609 69.3506 25.4629 69.5783 24.2206L69.5791 24.2198L69.5823 24.2087H69.5815L69.5783 24.2206C65.9641 26.1604 62.412 27.351 60.0646 27.351C57.878 27.351 56.9042 26.4324 56.9385 24.4386C57.2848 24.266 57.628 24.0902 57.9688 23.9168C57.2832 24.2644 57.6272 24.091 56.9385 24.4378V24.4386C54.2407 25.7858 51.5127 27.0504 50.8685 27.0846C50.0731 26.8913 49.2322 25.7858 49.0483 24.5666C48.9233 23.7641 50.8996 20.7125 52.2341 18.6542C53.4429 16.7852 53.5655 16.6317 53.2956 16.6317C53.0288 16.6317 44.2898 24.1069 42.8733 26.3982C41.4281 27.2747 40.1047 25.8256 39.8435 24.5268C39.6707 24.0306 45.3066 16.8218 44.3153 16.8218C44.0486 16.7852 35.2355 24.1833 33.1891 26.9685C32.1954 26.9685 30.0662 25.6323 30.2079 24.8696C30.2955 24.5268 38.583 11.4423 38.6626 11.3659C39.7248 11.5186 41.3206 12.9311 41.2975 13.5411C41.1693 13.9236 40.1222 15.4865 39.0321 17.1646L37.6036 18.6908C39.6197 16.7852 44.7357 12.4348 46.3139 12.0523C47.2312 12.0523 48.7784 13.654 48.5912 14.6864C48.4973 15.4522 47.4725 17.7404 46.5552 18.9373C50.4338 14.6132 54.2328 12.5597 55.0927 12.205C56.0498 12.205 57.7817 14 57.9322 15.1063C57.9887 15.7163 54.3833 21.6287 53.2024 22.5815C54.0026 22.4821 57.8382 21.1777 60.2007 19.7088C60.2063 19.7287 60.2111 19.7454 60.2143 19.7597C60.2119 19.7454 60.2063 19.7287 60.2007 19.7088L60.0956 19.2809C59.887 17.4636 59.9014 18.2963 59.9754 16.7852C60.2851 14.4565 67.1593 11.2522 72.1702 11.0223C73.1607 11.0223 73.3996 14.0374 72.3151 14.5337C70.2082 14.6466 63.8572 16.0591 63.8174 17.2417C63.7919 17.9273 66.3216 17.6982 68.4078 17.0119C69.0902 17.1646 69.2232 18.8435 68.7009 19.5298C64.7601 20.866 60.3003 22.7739 60.2764 23.4603C60.2716 23.6106 60.4985 23.6504 60.8816 23.6504C63.7067 23.6504 69.3912 21.6653 72.1734 19.6833C74.676 15.9438 77.314 12.298 80.0006 8.68886C76.5297 8.81691 73.0532 8.92507 69.5951 9.26706C69.4422 9.26706 69.2941 9.15333 69.3403 8.96325C69.6946 7.55156 70.6206 6.13907 71.4328 5.87264C72.8518 5.71915 75.3759 5.6428 78.2775 5.6428C80.933 5.65711 79.5913 5.64359 82.3026 5.68256L84.1428 5.72789C83.5296 5.71119 82.9165 5.69767 82.3034 5.68256C83.454 4.22554 84.4756 2.99757 85.2337 2.21179L85.5076 2.13306ZM73.6074 23.4205L73.5835 24.0703L73.5843 24.0687L73.6074 23.4205ZM94.1144 23.5367L94.0921 23.547L94.1144 23.5367ZM45.6411 19.9959L45.6156 20.0261L45.6196 20.0214L45.6411 19.9959ZM46.5385 18.9572C46.302 19.2475 46.4246 19.1083 46.1722 19.3764L45.6411 19.9959L46.173 19.3771C46.4238 19.1083 46.302 19.2483 46.5385 18.9572ZM61.1571 19.0336L60.2851 19.9124C60.2573 19.8997 60.2716 19.9092 60.2493 19.875C60.2716 19.91 60.2573 19.8997 60.2851 19.9132L61.1571 19.0336ZM46.1101 19.4416C46.075 19.4813 46.0926 19.4615 46.0583 19.5012L46.1101 19.4416ZM97.137 18.9206L97.1274 18.9262L96.2006 19.4925V19.4933L97.137 18.9206ZM83.6172 18.9572L83.2263 19.2022C83.3776 19.1107 83.2462 19.1902 83.6172 18.9572ZM46.5528 18.9397L46.4875 19.0137L46.552 18.9405L46.5528 18.9397ZM84.431 5.73585L85.1349 5.75971C84.5083 5.73823 84.7432 5.74539 84.431 5.73585Z" fill="black"/>
<path class="inherit-fill" d="M28.3541 11.2156C30.989 11.2522 33.107 14.0366 32.9852 16.4384C32.763 20.5987 26.7298 27.1211 22.5287 27.1211C19.78 27.1211 17.5178 24.0695 17.8721 21.5913C18.4741 17.431 24.2685 11.2156 28.3541 11.2156ZM28.5699 14.913C25.3618 14.913 21.5947 19.9887 21.4641 22.6204C21.4434 23.2304 21.7388 23.4603 22.2364 23.4603C25.0632 23.4603 29.2738 18.7671 29.453 15.9056C29.4753 15.2566 29.1432 14.913 28.5699 14.913Z" fill="black"/>
</svg>
