<svg width="180" height="47" viewBox="0 0 180 47" xmlns="http://www.w3.org/2000/svg"><g fill-rule="nonzero" fill="none"><path d="M37.28.456a2.589 2.589 0 0 1 2.758-.111 2.543 2.543 0 0 1 1.263 2.436c-.171 1.815-1.135 4.525-3.261 8.145-1.599 2.724-3.619 5.418-5.486 7.427a7.647 7.647 0 0 0-4.607-2.665c.84-2.604 2.205-5.676 3.803-8.402 2.125-3.62 4.026-5.788 5.53-6.832v.002zm-9.397 30.24a7.684 7.684 0 0 0 4.63-2.628c1.851 2.025 3.85 4.735 5.427 7.471 2.096 3.64 3.037 6.357 3.194 8.174a2.54 2.54 0 0 1-1.282 2.427 2.578 2.578 0 0 1-2.757-.136c-1.497-1.054-3.378-3.236-5.476-6.876-1.577-2.736-2.916-5.822-3.734-8.433l-.002.002zm-26.388-9.92c1.642-.747 4.424-1.27 8.539-1.27h.196c3.175.014 6.534.404 9.221 1.006a7.563 7.563 0 0 0-.018 5.293c-2.692.58-6.056.944-9.234.93-4.22-.017-7.062-.565-8.723-1.34A2.544 2.544 0 0 1 0 23.081a2.545 2.545 0 0 1 1.494-2.304l.001-.002zm21.176.121c1.274-2.17 4.08-2.905 6.266-1.64a4.531 4.531 0 0 1 1.652 6.221c-1.28 2.16-4.076 2.885-6.256 1.624a4.531 4.531 0 0 1-1.662-6.205z" fill="#F0703B"/><path d="M123.484 3.43a3.944 3.944 0 0 1 3.466-1.954 3.943 3.943 0 0 1 3.408 2.053 3.9 3.9 0 0 1-.136 3.96 3.952 3.952 0 0 1-5.37 1.257 3.907 3.907 0 0 1-1.368-5.317zm-.305 8.956h7.35v23.398h-7.35V12.386zm49.645 9.428h-7.392c.405-2.825 1.68-4.24 3.826-4.24 1.158 0 2.05.322 2.674.963.623.643.92 1.546.89 2.716v.561h.002zm7.174 1.73c0-3.647-.956-6.492-2.87-8.53-1.912-2.042-4.523-3.062-7.827-3.062-2.348 0-4.378.501-6.088 1.504-1.71 1-3.01 2.418-3.902 4.25-.89 1.83-1.338 3.943-1.338 6.335v.606c0 3.431 1.117 6.218 3.349 8.358 2.231 2.142 5.152 3.212 8.763 3.212 1.927 0 3.727-.372 5.402-1.115 1.674-.742 2.967-1.74 3.882-2.993l-3.35-3.937c-1.304 1.614-3.117 2.422-5.436 2.422-1.407 0-2.55-.376-3.434-1.125-.885-.75-1.457-1.78-1.718-3.091H180v-2.835h-.002zm-38.756-11.156l.238 2.746c1.621-2.12 3.862-3.18 6.718-3.18 2.45 0 4.279.728 5.49 2.184 1.211 1.456 1.838 3.65 1.88 6.574v15.074h-7.348v-14.77c0-1.182-.239-2.052-.718-2.605-.479-.556-1.348-.833-2.61-.833-1.435 0-2.5.562-3.195 1.687v16.521h-7.327v-23.4h6.87l.002.002zm-29.45 16.63c-.724 1.051-1.876 1.578-3.456 1.578-1.304 0-2.32-.558-3.046-1.676-.723-1.116-1.086-2.635-1.086-4.553 0-2.206.37-3.889 1.11-5.049.738-1.16 1.76-1.741 3.064-1.741 1.568 0 2.704.533 3.415 1.601v9.84zm.719-16.63l-.262 2.032c-1.377-1.644-3.29-2.466-5.739-2.466-1.943 0-3.646.496-5.112 1.483-1.462.986-2.586 2.39-3.368 4.205-.783 1.816-1.175 3.906-1.175 6.271v.26c0 3.663.885 6.586 2.654 8.77 1.768 2.182 4.087 3.275 6.957 3.275 2.144 0 3.92-.77 5.327-2.313v.735c0 3.315-1.625 4.975-4.871 4.975-2.232 0-4.03-.801-5.392-2.4l-3.065 4.28c.855 1.037 2.09 1.882 3.706 2.53 1.616.649 3.286.975 5.012.975 2.405 0 4.524-.41 6.35-1.222 1.826-.815 3.22-1.984 4.186-3.504.961-1.522 1.444-3.313 1.444-5.375V12.388h-6.652zm-32.651 0l.238 2.746c1.625-2.12 3.863-3.18 6.718-3.18 2.451 0 4.28.728 5.492 2.184 1.21 1.456 1.836 3.65 1.88 6.574v15.074H86.84v-14.77c0-1.182-.24-2.052-.718-2.605-.48-.556-1.348-.833-2.61-.833-1.435 0-2.5.562-3.197 1.687v16.521H72.99v-23.4h6.87v.002zm-16.322 9.428h-7.392c.406-2.826 1.681-4.24 3.826-4.24 1.16 0 2.052.321 2.675.963.623.643.919 1.546.89 2.715v.562zm7.176 1.729c0-3.646-.957-6.491-2.872-8.53-1.912-2.04-4.522-3.061-7.826-3.061-2.349 0-4.378.501-6.087 1.504-1.71 1-3.012 2.418-3.905 4.25-.89 1.83-1.335 3.943-1.335 6.335v.606c0 3.431 1.114 6.218 3.348 8.358 2.232 2.141 5.153 3.211 8.761 3.211 1.927 0 3.728-.372 5.402-1.114 1.675-.742 2.97-1.74 3.883-2.994l-3.348-3.936c-1.306 1.614-3.117 2.422-5.436 2.422-1.407 0-2.553-.376-3.436-1.125-.883-.75-1.457-1.78-1.717-3.092h14.568v-2.834z" fill="#5F5F5F"/></g></svg>