<svg width="141" height="26" viewBox="0 0 141 26" fill="none" xmlns="http://www.w3.org/2000/svg">
  <path d="M20.352 2.995c-.777.762-1.514 1.455-2.22 2.181-1.137 1.166-1.133 1.89-.02 3.045 2.374 2.462 2.525 6.538.342 9.234-1.317 1.628-1.292 2.54.103 4.093.547.608 1.08 1.229 1.623 1.849-4.938 3.425-11.819 3.484-16.575-1.421-4.651-4.795-4.817-12.445-.4-17.43 4.348-4.91 11.29-5.815 17.147-1.551zm-4.09 10.087c.027-1.985-1.62-3.683-3.585-3.697-1.973-.013-3.623 1.643-3.633 3.647-.01 1.947 1.607 3.622 3.549 3.675 1.934.052 3.643-1.637 3.67-3.625zM72.284 17.238v5.322h-4.71V3.315c.114-.025.247-.082.379-.08 3.566.033 7.133.052 10.698.126.8.016 1.612.167 2.394.357 3.14.765 4.96 3.666 4.554 7.205-.042.365-.097.728-.154 1.09-.576 3.65-3.311 5.092-6.366 5.243-2.038.1-4.088-.005-6.133-.018h-.662zm-.062-4.156h2.332c.736 0 1.473.02 2.21-.006.71-.025 1.427-.045 2.127-.158 1.494-.237 2.198-1.137 2.167-2.672-.035-1.724-.683-2.52-2.32-2.633-1.68-.115-3.368-.115-5.052-.16-.464-.011-.93-.001-1.464-.001v5.63zM65.674 5.815L62.83 9.102c-1.666-1.659-3.592-2.528-5.896-2.21-1.423.196-2.594.917-3.503 2.067-1.977 2.503-1.729 6.523.494 8.722 2.13 2.106 6.153 2.316 8.99-.776l2.682 3.065c-1.45 1.538-3.337 2.757-5.69 3.136-3.167.51-6.145.062-8.685-2.06-3.229-2.698-4.315-6.272-3.409-10.387.914-4.144 3.567-6.694 7.562-7.583 3.642-.809 7.044-.155 9.955 2.424.107.094.207.188.345.315zM31.42 3.433h15.255v4.311h-10.44v4.04h8.359v4.142h-8.285v6.793h-4.888L31.42 3.433z" fill="#000" class="inherit-fill"/>
  <path d="M27.68 12.786c-.095 3.96-1.553 7.445-4.286 10.373-.738.791-.85.77-1.569-.017-.552-.607-1.125-1.194-1.664-1.813-1.134-1.302-1.168-2.404-.075-3.713.946-1.133 1.477-2.432 1.66-3.9.272-2.166-.373-4.006-1.862-5.536-1.005-1.033-1.062-1.847-.102-2.903.828-.91 1.71-1.771 2.546-2.673.344-.37.6-.33.95.003 2.861 2.71 4.345 6.052 4.402 10.179zM115.568 7.955c2.544.081 5.055-.03 7.513.292 2.466.325 3.72 2.475 3.249 4.955-.258 1.362-1.095 2.246-2.3 2.786-.386.174-.798.292-1.27.462l4.156 5.722c-.673 0-1.208.038-1.733-.02-.187-.022-.386-.249-.519-.429a273.253 273.253 0 01-3.279-4.535c-.268-.38-.554-.525-1.006-.512-1.064.032-2.127.01-3.275.01v5.447h-1.538c.002-4.666.002-9.328.002-14.178zm1.593 7.25c1.615 0 3.176.014 4.737-.01.324-.004.655-.115.968-.22 1.289-.438 2.038-1.51 1.975-2.797-.062-1.315-.858-2.374-2.264-2.498-1.781-.157-3.586-.038-5.417-.038l.001 5.564zM126.95 15.141c-.011-4.147 3.072-7.376 7.044-7.38 3.96-.003 6.998 3.127 7.006 7.222.01 4.242-3.013 7.456-7.023 7.466-3.955.01-7.015-3.176-7.027-7.308zm12.406-.052c-.004-3.279-2.327-5.816-5.356-5.85-3.04-.034-5.394 2.528-5.391 5.87.001 3.313 2.348 5.826 5.436 5.822 3.044-.006 5.315-2.503 5.311-5.842zM91.849 8.067h9.833V9.46h-8.3v4.853h7.399v1.409h-7.395v4.954h8.4v1.442H91.85l-.001-14.05zM112.468 8.066h1.538c.014.243.037.456.037.67.003 2.45.016 4.9-.007 7.348a10.022 10.022 0 01-.197 1.966c-.63 2.965-2.981 4.646-6.036 4.358-3.166-.298-5.028-2.155-5.172-5.434-.126-2.86-.041-5.73-.047-8.595 0-.092.034-.183.06-.307h1.432c.013.29.034.572.037.854.021 2.62-.037 5.244.075 7.859.143 3.309 3.084 5.106 6.031 3.749 1.707-.787 2.208-2.341 2.237-4.099.04-2.497.01-4.997.01-7.495.002-.265.002-.53.002-.874z" fill="#000" class="inherit-fill"/>
</svg>
