<svg xmlns="http://www.w3.org/2000/svg" viewBox="0 0 292.57 60.98" width="120" height="21">
  <path class="inherit-fill" d="M6.9 12.35C6.9 5.94 0 9.07 0 6.82c0-.65.33-1 1.62-1 4.07 0 7.92.17 11.14.17 10 0 17.25-.07 26.8-.16l3.71 12.83a.75.75 0 01-1.15.68C41.37 18.68 36.88 7.7 23 7.7h-4.39v23.1h2c5.62 0 9.7-4.16 10-9.94.07-1.61.31-2 1.12-2a.92.92 0 01.8 1.12v24.54a.91.91 0 01-.8 1.12c-.8 0-1-.39-1.12-2-.33-7.13-4.41-10.91-10-10.91h-2v21.18c0 6.41 6.9 3.29 6.9 5.54 0 .64-.31 1-1.61 1-4.09 0-7.94-.17-11.14-.17C.33 60.5 0 60.09 0 59.45c0-2.25 6.9.88 6.9-5.54V12.35zM56.62 53.91c0 6.41 6.59 3.53 6.59 5.61a.83.83 0 01-1 1c-2.56 0-6.41-.17-10.67-.17s-8.09.17-10.66.17a.83.83 0 01-1-1c0-2.09 6.59.8 6.59-5.61V34.1c0-5.54-6.42-4.34-6.42-6s3.21-.57 16.52-4.82v30.63zM81.46 33.69h.15c3.05-7.37 6.5-10.43 10.74-10.43 3.62 0 6.44 2.09 6.44 5.7 0 3.28-1.69 5.52-5 5.52-4.33 0-3.53-4.48-6.33-4.48-3.61 0-6 6.11-6 8.5v15.41c0 6.41 5.61 3.53 5.61 5.61a.82.82 0 01-1 1c-2.07 0-5.46-.17-9.71-.17s-7.62.17-9.71.17a.82.82 0 01-1-1c0-2.09 5.61.8 5.61-5.61V33.76c0-5.53-5.61-4.65-5.61-6 0-1.53 2.42-.56 15.73-4.5v10.43zM101.55 46.78a.62.62 0 01.64-.73c.71 0 .54.89 1.84 3.62 2.09 4.49 5.3 9.86 11.87 9.86 5 0 7.31-2.42 7.31-6 0-9.09-21.5-5.62-21.5-19.51 0-5.61 5.14-10.74 13.87-10.74 4.67 0 9.63 1.53 12 3.05v9.23a.49.49 0 01-.49.56c-.64 0-.71-1.46-2.17-4.08-1.84-3.39-4.57-7.31-10.34-7.31-3.29 0-5.62 1.6-5.62 5 0 8 21.5 4.81 21.5 18.3 0 8.5-6.43 13-15.32 13a42.26 42.26 0 01-13.56-2.32V46.78zM159.22 23.9l-1.93 3.86h-9.14v22.45c0 5 2.16 6.9 5.13 6.9a6.69 6.69 0 005.54-2.71c.71-.8.79-1.61 1.27-1.61a.58.58 0 01.57.64c0 1.2-3.21 7.55-12.12 7.55-7 0-10.51-4-10.51-10.28V27.76h-5A58 58 0 00148 10.1h.16v13.8h11.07zM178.26 53.91c0 6.41 6.57 3.53 6.57 5.61a.82.82 0 01-1 1c-2.58 0-6.44-.17-10.68-.17s-8.1.17-10.67.17a.82.82 0 01-1-1c0-2.09 6.59.8 6.59-5.61V12.59c0-5.53-6.43-4.33-6.43-6 0-1.52 3.2-.56 16.53-4.81v52.13zM195.46 40.12c.15 9.78 6.4 14.59 13.07 14.59 4.89 0 7.53-1.68 9.79-4.16 1.68-1.85 1.6-3.14 2.33-3.14a.54.54 0 01.48.57c0 2.41-3.69 13-16.93 13-10.82 0-17.88-7.71-17.88-19.12 0-10.58 7.53-18.59 17.88-18.59 9 0 16.62 5.77 16.93 16.85h-25.67zm16-1.94c-.17-10.58-2.89-13.47-7.38-13.47-5.14 0-8.51 5-8.66 13.47h16zM257.83 55.35c0 1.52.72 2.24 2 2.24A5 5 0 00263 56c.48-.4.8-1.12 1.28-1.12a.57.57 0 01.56.64c0 1.21-4.33 5.47-9.63 5.47-4.58 0-6.33-1.7-7.53-5.63-4.1 3.2-8.34 5.63-13.64 5.63-4.18 0-8.18-1.77-8.18-7.39 0-4.89 2.56-7.62 12.75-11.73l9.07-3.6v-9.15c0-2.64-.81-4.08-3.13-4.08a6.86 6.86 0 00-7 6c-.95 5.86-2.32 8.1-6.49 8.1-2.4 0-4.1-1.84-4.1-4.5 0-5.77 11.71-11.38 21.1-11.38 6.26 0 9.71 2.73 9.71 10.26v21.83zm-10.11-15.47c-7.86 3.05-11.23 5.45-11.23 10.51 0 4.65 1.6 6.25 4.33 6.25 2.32 0 5.05-1.53 6.9-3.21V39.88zM289 27.76h-7.71v26.15c0 6.41 5.6 3.53 5.6 5.61a.82.82 0 01-1 1c-2.06 0-5.45-.17-9.71-.17s-7.61.17-9.69.17a.83.83 0 01-1-1c0-2.09 5.62.8 5.62-5.61V27.76h-5c4.65-4 5.93-9.24 7.71-15.89C276.75 1.44 280.37 0 284.86 0c4.34 0 7.71 3.7 7.71 7.14s-2.42 5.54-5 5.54c-2.9 0-4.67-1.93-4.67-4.9 0-3.93-.47-4.89-1.59-4.89-1.29 0-2.73 1-2.73 5.22 0 3.76 1.84 10.58 2.57 15.79h9z"/>
</svg>
