<?xml version="1.0" encoding="utf-8"?>
<!-- Generator: Adobe Illustrator 18.0.0, SVG Export Plug-In . SVG Version: 6.00 Build 0)  -->
<!DOCTYPE svg PUBLIC "-//W3C//DTD SVG 1.1//EN" "http://www.w3.org/Graphics/SVG/1.1/DTD/svg11.dtd">
<svg version="1.1" id="Слой_1" xmlns="http://www.w3.org/2000/svg" xmlns:xlink="http://www.w3.org/1999/xlink" x="0px" y="0px" width="73" height="16"
	 viewBox="0 0 73 16" enable-background="new 0 0 73 16" xml:space="preserve">
<path d="M10.1,0.2H0.1c0,0-0.1,0-0.1,0.1v15.5c0,0,0,0.1,0.1,0.1h3c0,0,0.1,0,0.1-0.1V9.2h5.7c0,0,0.1,0,0.1-0.1V6.4
	c0,0,0-0.1-0.1-0.1H3.1V2.9h7.1c0,0,0.1,0,0.1-0.1L10.1,0.2C10.2,0.2,10.2,0.2,10.1,0.2z M24.2,13.1h-6.7V0.2c0,0,0-0.1-0.1-0.1
	h-2.9c0,0-0.1,0-0.1,0.1v15.5c0,0,0,0.1,0.1,0.1h9.7c0,0,0.1,0,0.1-0.1L24.2,13.1C24.3,13.1,24.2,13.1,24.2,13.1L24.2,13.1z M34.4,0
	c-1.4,0-2.6,0.3-3.8,0.8C28.3,2,26.8,4.7,26.8,8c0,1.7,0.4,3.2,1.1,4.5c1.4,2.3,3.6,3.5,6.5,3.5c1.4,0,2.6-0.3,3.8-0.8
	C40.6,14,42,11.3,42,8c0-1.7-0.4-3.2-1.1-4.5C39.6,1.2,37.4,0,34.4,0z M34.4,13.2c-1.3,0-2.3-0.4-3.2-1.3C30.4,11,29.9,9.7,29.9,8
	s0.4-3,1.3-3.9c0.9-0.9,1.9-1.3,3.2-1.3c1.3,0,2.4,0.4,3.2,1.3C38.4,5,38.9,6.3,38.9,8c0,1.7-0.4,3-1.3,3.9
	C36.8,12.8,35.7,13.2,34.4,13.2z M56.7,0.2h-3.2c0,0-0.1,0-0.1,0l-2.9,5.9l-2.9-5.9c0,0,0,0-0.1,0h-3.2c0,0,0,0-0.1,0v0.1L49,9.2
	v6.6c0,0,0,0.1,0.1,0.1h3c0,0,0.1,0,0.1-0.1V9.2L56.7,0.2L56.7,0.2L56.7,0.2L56.7,0.2z M65.5,0.2h-5c0,0-0.1,0-0.1,0.1v15.5
	c0,0,0,0.1,0.1,0.1h5c3.4,0,7.5-2,7.5-7.8C73,2.2,69,0.2,65.5,0.2L65.5,0.2z M63.6,2.9h1c1.4,0,2.6,0.3,3.6,1
	c1.1,0.7,1.7,2.2,1.7,4.1s-0.6,3.3-1.7,4.1c-1,0.7-2.1,1-3.6,1h-1V2.9L63.6,2.9z"/>
</svg>
