<svg width="116" height="27" viewBox="0 0 116 27" fill="none" xmlns="http://www.w3.org/2000/svg">
<path class="inherit-fill" d="M16.0496 0.318033H0.158533C0.158533 0.318033 0 0.318033 0 0.476567V25.1072C0 25.1072 0 25.2658 0.158533 25.2658H4.92613C4.92613 25.2658 5.08467 25.2658 5.08467 25.1072V14.6189H14.1423C14.1423 14.6189 14.3018 14.6189 14.3018 14.4604V10.1693C14.3018 10.1693 14.3018 10.0098 14.1423 10.0098H4.92613V4.6081H16.2081C16.2081 4.6081 16.3676 4.6081 16.3676 4.44957L16.0486 0.318033C16.2081 0.318033 16.2081 0.318033 16.0486 0.318033H16.0496ZM38.454 20.8162H27.8081V0.319C27.8081 0.319 27.8081 0.1595 27.6496 0.1595H23.0415C23.0415 0.1595 22.882 0.1595 22.882 0.319V24.9497C22.882 24.9497 22.882 25.1082 23.0415 25.1082H38.454C38.454 25.1082 38.6125 25.1082 38.6125 24.9487L38.454 20.8172C38.6125 20.8172 38.454 20.8172 38.454 20.8172V20.8162ZM54.6631 0C52.4388 0 50.5315 0.476567 48.6243 1.27117C44.9703 3.1784 42.5865 7.46847 42.5865 12.7126C42.5865 15.4135 43.2216 17.7973 44.3342 19.8631C46.5585 23.5171 50.055 25.4243 54.6631 25.4243C56.8874 25.4243 58.7946 24.9477 60.7018 24.1531C64.5153 22.2469 66.7396 17.9568 66.7396 12.7126C66.7396 10.0108 66.1045 7.62797 64.9919 5.56123C62.9261 1.90723 59.4297 0 54.6631 0ZM54.6631 20.9757C52.5973 20.9757 51.0091 20.3396 49.5784 18.9099C48.3072 17.4793 47.5126 15.4135 47.5126 12.7126C47.5126 10.0108 48.1477 7.94503 49.5784 6.51533C51.0091 5.08467 52.5973 4.44957 54.6631 4.44957C56.7288 4.44957 58.4766 5.08467 59.7477 6.51533C61.0189 7.946 61.8135 10.0108 61.8135 12.7117C61.8135 15.4135 61.1784 17.4793 59.7477 18.9099C58.4766 20.3406 56.7288 20.9757 54.6631 20.9757ZM90.0982 0.318033H84.855L80.2469 9.69277L75.6388 0.319H70.2351V0.477533L77.8621 14.6199V25.1082C77.8621 25.1082 77.8621 25.2667 78.0216 25.2667H82.7892C82.7892 25.2667 82.9477 25.2667 82.9477 25.1082V14.6199L90.0982 0.319V0.318033ZM104.082 0.318033H96.1369C96.1369 0.318033 95.9784 0.318033 95.9784 0.476567V25.1072C95.9784 25.1072 95.9784 25.2658 96.1369 25.2658H104.083C109.485 25.2658 116 22.0874 116 12.8712C116 3.49547 109.644 0.319 104.082 0.319V0.318033ZM101.063 4.6081H102.652C104.877 4.6081 106.784 5.08467 108.373 6.1973C110.121 7.30897 111.074 9.69277 111.074 12.7126C111.074 15.7315 110.121 17.9558 108.373 19.228C106.784 20.3396 105.036 20.8162 102.652 20.8162H101.063V4.6081V4.6081Z" fill="black"/>
</svg>
