<svg xmlns="http://www.w3.org/2000/svg" width="73" height="16"><path d="M10.1.2H.1S0 .2 0 .3v15.5s0 .1.1.1h3s.1 0 .1-.1V9.2h5.7s.1 0 .1-.1V6.4s0-.1-.1-.1H3.1V2.9h7.1s.1 0 .1-.1L10.1.2c.1 0 .1 0 0 0zm14.1 12.9h-6.7V.2s0-.1-.1-.1h-2.9s-.1 0-.1.1v15.5s0 .1.1.1h9.7s.1 0 .1-.1l-.1-2.6c.1 0 0 0 0 0zM34.4 0c-1.4 0-2.6.3-3.8.8C28.3 2 26.8 4.7 26.8 8c0 1.7.4 3.2 1.1 4.5 1.4 2.3 3.6 3.5 6.5 3.5 1.4 0 2.6-.3 3.8-.8C40.6 14 42 11.3 42 8c0-1.7-.4-3.2-1.1-4.5C39.6 1.2 37.4 0 34.4 0zm0 13.2c-1.3 0-2.3-.4-3.2-1.3-.8-.9-1.3-2.2-1.3-3.9s.4-3 1.3-3.9c.9-.9 1.9-1.3 3.2-1.3 1.3 0 2.4.4 3.2 1.3.8.9 1.3 2.2 1.3 3.9 0 1.7-.4 3-1.3 3.9-.8.9-1.9 1.3-3.2 1.3zM56.7.2h-3.2-.1l-2.9 5.9L47.6.2H44.3h-.1v.1L49 9.2v6.6s0 .1.1.1h3s.1 0 .1-.1V9.2l4.5-9zm8.8 0h-5s-.1 0-.1.1v15.5s0 .1.1.1h5c3.4 0 7.5-2 7.5-7.8 0-5.9-4-7.9-7.5-7.9zm-1.9 2.7h1c1.4 0 2.6.3 3.6 1 1.1.7 1.7 2.2 1.7 4.1s-.6 3.3-1.7 4.1c-1 .7-2.1 1-3.6 1h-1V2.9z"/></svg>