<svg width="200" height="26" viewBox="0 0 200 26" fill="none" xmlns="http://www.w3.org/2000/svg">
<path class="inherit-fill" d="M114.845 18.7544C115.863 18.7544 116.63 19.9253 116.63 21.4759C116.63 23.024 115.863 24.1886 114.845 24.1886C113.811 24.1886 113.061 23.0481 113.061 21.4759C113.061 19.9253 113.826 18.7544 114.845 18.7544ZM114.845 23.8051C115.391 23.8051 115.481 23.119 115.481 21.4759C115.481 19.8266 115.391 19.138 114.845 19.138C114.352 19.138 114.209 19.6354 114.209 21.357C114.209 23.1633 114.308 23.8051 114.845 23.8051ZM93.286 18.8835L93.2847 18.8823H95.3607L95.4354 20.7608H95.1176C95.024 19.7608 94.524 19.2329 94.11 19.2329C93.867 19.2329 93.8088 19.4127 93.8088 19.8734V23.2367C93.8088 23.5481 93.8809 23.6367 94.1265 23.6367H94.5873V24.0165H91.9835V23.638H92.4455C92.6911 23.638 92.7619 23.5468 92.7619 23.2367V19.8747C92.7619 19.4127 92.7037 19.2342 92.4607 19.2342C92.048 19.2342 91.5468 19.762 91.4518 20.762H91.1354L91.2088 18.8835H93.286ZM87.1202 20.7785C88.1012 21.1949 88.705 21.5025 88.7037 22.4709C88.7037 23.4506 88.0506 24.1342 87.1176 24.1342C86.305 24.1342 85.867 23.6089 85.743 23.6089C85.6366 23.6089 85.5531 23.8835 85.4898 24.0177H85.1417L85.1771 21.9291H85.5328C85.748 23.0063 86.3873 23.6861 87.1113 23.6861C87.5354 23.6861 87.8303 23.3949 87.8303 22.9747C87.8303 22.3924 87.3556 22.162 86.5176 21.8076C85.6176 21.4278 85.129 21.0696 85.129 20.2582C85.129 19.4215 85.7847 18.7671 86.6202 18.7671C87.3417 18.7671 87.8328 19.2127 87.9138 19.2127C87.9885 19.2127 88.0797 18.9468 88.1214 18.8582H88.4417V20.7228H88.1151C87.8392 19.757 87.3075 19.1924 86.7227 19.1924C86.3037 19.1924 86.0113 19.4544 86.0113 19.8342C86.0113 20.3089 86.3366 20.4468 86.9822 20.7203L87.1202 20.7785V20.7785ZM80.4417 23.6203C81.3708 23.6203 81.9771 23.1633 82.1265 22.2721H82.5316L82.3911 24.0165H78.1923V23.6405H78.5733C78.7657 23.6405 78.8189 23.5962 78.8189 23.3114V19.5684C78.8189 19.2835 78.7619 19.238 78.5721 19.238H78.1923V18.8848H82.3733L82.4936 20.5203H82.0797C81.9544 19.5835 81.4923 19.2797 80.3961 19.2797C79.8847 19.2797 79.8847 19.3013 79.8847 19.6456V21.1266H80.0189C80.748 21.1266 81.067 20.8797 81.0733 20.1772H81.4898V22.4962H81.0746C81.067 21.7823 80.7506 21.5443 80.0189 21.5443H79.8847V23.1772C79.8847 23.5266 79.8847 23.6203 80.4417 23.6203V23.6203ZM104.98 23.1848V23.1835C104.98 23.5684 105.04 23.6266 105.442 23.6266H105.729V24.0152H103.14V23.6266H103.466C103.868 23.6266 103.929 23.5684 103.929 23.1848V20.9152C103.929 20.4405 103.849 20.3582 103.401 20.3582H103.161V19.9582C103.81 19.9013 104.425 19.5595 104.629 18.8557H104.98V23.1848ZM107.821 20.6278C107.821 20.6278 107.949 19.4443 107.963 18.8557H110.786C110.814 20.0532 110.478 20.7392 110.128 21.3519C109.802 21.919 109.6 22.2721 109.6 22.8089C109.6 22.9835 109.67 23.2709 109.67 23.3987C109.67 23.8228 109.424 24.0873 109.028 24.0873C108.625 24.0873 108.357 23.7557 108.357 23.262C108.357 22.6203 108.711 21.9506 109.41 21.2684C109.875 20.8139 110.156 20.4316 110.223 19.8684H108.859C108.518 19.8684 108.337 20.0519 108.249 20.6278H107.821ZM118.843 20.6278C118.843 20.6278 118.971 19.4443 118.985 18.8557H121.808C121.835 20.0532 121.502 20.7392 121.151 21.3519C120.823 21.919 120.62 22.2721 120.62 22.8089C120.62 22.9835 120.691 23.2709 120.691 23.3987C120.691 23.8228 120.445 24.0873 120.048 24.0873C119.648 24.0873 119.377 23.7557 119.377 23.262C119.377 22.6203 119.733 21.9506 120.432 21.2684C120.895 20.8139 121.178 20.4316 121.242 19.8684H119.881C119.537 19.8684 119.357 20.0519 119.271 20.6278H118.843ZM80.4493 0.329114V0.326582H85.0138V0.941772C83.4607 0.941772 83.3164 1.70127 83.3164 3.96709V9.66329C83.3164 12.6506 81.9417 14.043 78.9873 14.043C75.6797 14.043 74.4506 12.757 74.4506 9.30126V2.64051C74.4506 1.32532 74.386 0.946835 72.9619 0.946835H72.7012V0.329114H78.7366V0.946835H78.3898C76.948 0.946835 76.8835 1.32405 76.8835 2.64051V8.73418C76.8835 11.3772 77.2784 12.5544 79.6189 12.5544C81.9746 12.5544 82.3733 11.3759 82.3733 8.73418V4.00633C82.3733 1.89114 82.3341 0.941772 80.4493 0.941772V0.329114ZM19.3835 0C22.6619 0 25.1354 3.01772 25.1354 7.02152C25.1354 11.0253 22.6619 14.043 19.3835 14.043C16.0873 14.043 13.6493 10.9835 13.6493 7.02152C13.6493 2.77468 16.2797 0 19.3835 0V0ZM19.3835 13.2544C21.3759 13.2544 22.224 11.3835 22.224 7.0038C22.224 2.60759 21.3746 0.731646 19.3835 0.731646C17.4037 0.731646 16.5607 2.60759 16.5607 7.0038C16.5607 11.3848 17.405 13.2544 19.3835 13.2544V13.2544ZM39.8392 11.143V10.9392H40.6025V11.3532C40.6025 13.2139 39.8873 14.0443 38.2809 14.0443C36.6493 14.0443 35.8556 12.9658 35.8556 10.7443L35.8721 9.49114C35.8721 7.49114 35.1949 6.95949 32.7202 6.95949C32.7202 6.95949 32.1556 6.95696 32.0797 6.95949V12.0165C32.0797 12.8203 32.2784 13.0646 32.929 13.0646H33.7771V13.7392H27.8518V13.0646H28.7189C29.3632 13.0646 29.5493 12.8304 29.5493 12.0177V1.9924C29.5493 1.17722 29.3619 0.941772 28.7189 0.941772H27.8518V0.324051H34.2619C37.7025 0.324051 39.2341 1.27089 39.2341 3.39494C39.2341 5.31392 38.1581 6.24304 35.5506 6.53544C37.5797 6.8481 38.3847 7.66582 38.5746 9.52278C38.6341 10.0595 38.6392 10.5506 38.6468 10.9835C38.6632 12.0684 38.6961 12.5899 39.2506 12.5899C39.6746 12.5899 39.8392 12.1848 39.8392 11.143V11.143ZM33.7759 6.15316H33.7771C35.5265 6.15316 36.3417 5.30759 36.3417 3.48987C36.3417 1.64684 35.6759 1.05443 33.6037 1.05443C32.1265 1.05443 32.0797 1.20886 32.0797 2.02911V6.15316H33.7759ZM43.4252 0.324051H54.2847L54.4797 5.23291H53.7227C53.2379 2.54557 51.943 1.03671 51.0126 1.03671C50.3771 1.03671 50.129 1.50633 50.129 2.71266V11.9975C50.129 12.8114 50.3151 13.0468 50.9594 13.0468H52.2607V13.7392H45.4506V13.0481H46.7506C47.3949 13.0481 47.5809 12.8114 47.5809 11.9975V2.71266C47.5809 1.50506 47.3341 1.03671 46.6987 1.03671C45.7657 1.03671 44.4987 2.51013 43.9873 5.23291H43.2316L43.4252 0.324051V0.324051ZM65.3632 0.936709V0.324051H69.9088V0.935443C68.2923 0.935443 68.2126 1.83038 68.2126 3.96456V13.7392H66.5809L60.1151 2.84684V9.91013C60.1151 12.2405 60.2151 13.0658 62.0379 13.0658V13.7392H57.4936V13.0658H57.6835C59.0543 13.0658 59.1898 12.1911 59.1898 10.043V1.9924C59.1898 1.17722 59.0037 0.941772 58.3581 0.941772H57.51V0.324051H61.548L67.3024 10.1139V4.11772C67.3024 2.04304 67.2721 0.905063 65.3632 0.936709V0.936709ZM0.17334 0.325316H10.9632L11.267 4.37975H10.4721C10.1202 1.9962 8.82777 1.05696 5.94296 1.05696C4.42018 1.05696 4.42018 1.27595 4.42018 2.2V5.90759H4.78093C6.85435 5.90759 7.68726 5.23671 7.78093 3.36329H8.57714V9.24177H7.7822C7.70372 7.42278 6.83663 6.6962 4.7822 6.6962H4.42018V12.019C4.42018 12.8316 4.60625 13.0671 5.24929 13.0671H6.09992V13.7405H0.17334V13.0671H1.03916C1.68473 13.0671 1.87081 12.8329 1.87081 12.019V1.99367C1.87081 1.17848 1.68473 0.943038 1.03916 0.943038H0.17334V0.325316ZM156.161 10.7658C156.687 12.4025 156.943 13.0646 157.963 13.0646H158.311V13.7392H152.558V13.0646H152.991C153.737 13.0646 154.014 12.9 154.014 12.4532C154.014 12.2671 153.442 10.4823 153.419 10.4152H148.939C148.866 10.6291 148.449 11.8392 148.449 12.3013C148.449 12.7734 148.632 13.0646 149.54 13.0646H149.801V13.7392H145.637V13.0646H145.758C147.049 13.0646 147.466 11.9962 148.151 9.94937L151.409 0.246835H152.651L156.161 10.7658ZM149.267 9.43797H153.115L151.257 3.4481L149.267 9.43797ZM166.004 5.37848C168.681 6.50253 170.195 7.26076 170.194 9.75569C170.194 12.281 168.497 14.0418 166.07 14.0418C163.91 14.0418 162.748 12.6367 162.344 12.6367C161.942 12.6367 161.749 13.262 161.548 13.738H160.889L160.976 8.46962H161.642C162.285 11.362 164.005 13.1785 166.053 13.1785C167.296 13.1785 168.164 12.3253 168.164 11.1038C168.164 9.4443 166.843 8.80886 164.506 7.83038C162.138 6.84177 160.853 5.91139 160.853 3.83038C160.853 1.68354 162.551 0 164.72 0C166.676 0 167.89 1.1962 168.216 1.1962C168.538 1.1962 168.711 0.616456 168.892 0.246835H169.483V4.90886H168.889C168.124 2.32911 166.658 0.807595 164.996 0.807595C163.761 0.807595 162.9 1.58228 162.9 2.6924C162.9 4.07595 163.867 4.48101 165.623 5.21772L166.004 5.37848V5.37848ZM136.263 9.91899V9.91772L139.063 0.322785H143.737V0.940506H142.887C142.242 0.940506 142.054 1.17722 142.054 1.98987V12.0152C142.054 12.8291 142.242 13.0646 142.887 13.0646H143.737V13.7392H137.947V13.0646H138.797C139.442 13.0646 139.628 12.8291 139.628 12.0152V1.57975C139.435 2.24937 136.064 13.8532 136.064 13.8532H135C135 13.8532 131.389 2.08228 131.192 1.4481V9.90886C131.192 12.2405 131.29 13.0658 133.114 13.0658V13.7392H128.568V13.0646H128.759C130.129 13.0646 130.266 12.1899 130.266 10.0418V1.99114C130.266 1.17721 130.078 0.940506 129.434 0.940506H128.586V0.324051H133.362L136.263 9.91899V9.91899ZM95.5164 9.91899V9.91772L98.3164 0.322785H102.99V0.940506H102.14C101.495 0.940506 101.308 1.17722 101.308 1.98987V12.0152C101.308 12.8291 101.495 13.0646 102.14 13.0646H102.99V13.7392H97.2012V13.0646H98.0506C98.6949 13.0646 98.8809 12.8291 98.8809 12.0152V1.57975L95.3176 13.8532H94.2531L90.4468 1.4481V9.90886C90.4468 12.2405 90.543 13.0658 92.3683 13.0658V13.7392H87.8227V13.0646H88.0138C89.3835 13.0646 89.5202 12.1899 89.5202 10.0418V1.99114C89.5202 1.17721 89.3328 0.940506 88.6873 0.940506H87.8392V0.324051H92.6151L95.5164 9.91899V9.91899ZM179.034 0C182.313 0 184.787 3.01899 184.787 7.02152C184.787 11.0253 182.313 14.043 179.034 14.043C175.738 14.043 173.299 10.9835 173.299 7.02152C173.299 2.77468 175.929 0 179.034 0ZM179.034 13.2544C181.025 13.2544 181.875 11.3835 181.875 7.0038C181.875 2.60759 181.025 0.731646 179.034 0.731646C177.054 0.731646 176.211 2.60759 176.211 7.0038C176.211 11.3848 177.054 13.2544 179.034 13.2544ZM195.281 0.324051H199.829V0.936709C198.21 0.936709 198.13 1.83038 198.13 3.96582V13.7405H196.499L190.033 2.8481V9.91139C190.033 12.2418 190.133 13.0671 191.957 13.0671V13.7405H187.411V13.0671H187.601C188.971 13.0671 189.108 12.1924 189.108 10.0443V1.99367C189.108 1.17975 188.923 0.943038 188.277 0.943038H187.428V0.325316H191.467L197.223 10.1139V4.11899C197.223 2.0443 197.191 0.906329 195.281 0.937975V0.324051ZM122.077 9.71266H122.076V9.72278C122.135 11.1405 121.724 12.4468 120.98 13.2203C120.748 13.468 120.468 13.6651 120.156 13.7993C119.845 13.9335 119.509 14.0018 119.17 14C118.113 14 117.135 13.4025 116.292 12.5924C115.316 13.443 114.156 14.0266 112.808 14.0266C110.711 14.0266 109.356 12.6278 109.356 10.4608C109.356 8.56456 110.418 7.17215 112.515 6.32532C112.519 6.32405 112.524 6.32278 112.527 6.32025C112.045 5.01646 111.776 3.88861 111.776 3.26835C111.776 1.3924 112.976 0.0810127 114.694 0.0810127C116.234 0.0810127 117.31 1.16203 117.31 2.70759C117.31 4.05063 116.57 5.06962 114.862 6.05696C115.546 7.45419 116.369 8.77937 117.318 10.0127C118.142 8.89494 118.828 7.56329 118.828 6.64937C118.828 6.12532 118.405 5.81392 117.823 5.81392V5.23164H121.642V5.81392C120.605 5.81392 120.162 6.41266 119.576 7.75696C119.125 8.80199 118.573 9.80077 117.929 10.7392C118.68 11.5684 119.395 12.1076 119.933 12.1076C120.738 12.1076 121.3 11.1278 121.3 9.72532V9.71266H122.077V9.71266ZM114.889 1.01013V1.00886C114.204 1.00886 113.742 1.64051 113.742 2.57848C113.742 3.23671 114.034 4.2038 114.497 5.27089C115.352 4.64304 116.02 3.78481 116.02 2.57975C116.02 1.62658 115.577 1.01013 114.889 1.01013V1.01013ZM113.164 12.2886H113.166C113.902 12.5696 114.73 12.4 115.571 11.8139C114.968 11.08 114.434 10.2928 113.975 9.46202C113.572 8.74243 113.211 8.00075 112.892 7.24051C111.933 7.97088 111.573 8.70126 111.573 9.72532C111.573 10.8759 112.228 11.9316 113.164 12.2886V12.2886Z" fill="black"/>
</svg>
