<svg width="158" height="20" viewBox="0 0 158 20" xmlns="http://www.w3.org/2000/svg">
  <g fill="none" fill-rule="evenodd">
    <g class="inherit-fill" fill="#505359" fill-rule="nonzero">
      <path d="M90.728 14.816c.804 0 1.41.925 1.41 2.15 0 1.223-.606 2.143-1.41 2.143-.817 0-1.41-.901-1.41-2.143 0-1.225.605-2.15 1.41-2.15zm0 3.99c.431 0 .502-.542.502-1.84 0-1.303-.071-1.847-.502-1.847-.39 0-.503.393-.503 1.753 0 1.427.078 1.934.503 1.934zm-17.032-3.888l-.001-.001h1.64l.059 1.484h-.251c-.074-.79-.469-1.207-.796-1.207-.192 0-.238.142-.238.506v2.657c0 .246.057.316.251.316h.364v.3h-2.057v-.299h.365c.194 0 .25-.072.25-.317v-2.656c0-.365-.046-.506-.238-.506-.326 0-.722.417-.797 1.207h-.25l.058-1.484h1.641zm-4.871 1.497c.775.329 1.252.572 1.251 1.337 0 .774-.516 1.314-1.253 1.314-.642 0-.988-.415-1.086-.415-.084 0-.15.217-.2.323h-.275l.028-1.65h.281c.17.851.675 1.388 1.247 1.388.335 0 .568-.23.568-.562 0-.46-.375-.642-1.037-.922-.711-.3-1.097-.583-1.097-1.224 0-.661.518-1.178 1.178-1.178.57 0 .958.352 1.022.352.059 0 .131-.21.164-.28h.253v1.473h-.258c-.218-.763-.638-1.209-1.1-1.209-.331 0-.562.207-.562.507 0 .375.257.484.767.7l.109.046zm-5.276 2.245c.734 0 1.213-.361 1.331-1.065h.32l-.111 1.378h-3.317v-.297h.301c.152 0 .194-.035.194-.26v-2.957c0-.225-.045-.261-.195-.261h-.3v-.279h3.303l.095 1.292h-.327c-.099-.74-.464-.98-1.33-.98-.404 0-.404.017-.404.289v1.17h.106c.576 0 .828-.195.833-.75h.329v1.832h-.328c-.006-.564-.256-.752-.834-.752h-.106v1.29c0 .276 0 .35.44.35zm19.385-.344v-.001c0 .304.048.35.365.35h.227v.307h-2.045v-.307h.257c.318 0 .366-.046.366-.349v-1.793c0-.375-.063-.44-.417-.44h-.19v-.316c.513-.045.999-.315 1.16-.871h.277v3.42zm2.245-2.02s.101-.935.112-1.4h2.23c.022.946-.243 1.488-.52 1.972-.257.448-.417.727-.417 1.151 0 .138.055.365.055.466 0 .335-.194.544-.507.544-.318 0-.53-.262-.53-.652 0-.507.28-1.036.832-1.575.367-.359.589-.661.642-1.106h-1.077c-.27 0-.413.145-.482.6h-.338zm8.707 0s.101-.935.112-1.4h2.23c.022.946-.241 1.488-.519 1.972-.259.448-.419.727-.419 1.151 0 .138.056.365.056.466 0 .335-.194.544-.508.544-.316 0-.53-.262-.53-.652 0-.507.281-1.036.833-1.575.366-.359.59-.661.64-1.106h-1.075c-.272 0-.414.145-.482.6h-.338zM63.555.26V.258h3.606v.486c-1.227 0-1.341.6-1.341 2.39v4.5c0 2.36-1.086 3.46-3.42 3.46-2.613 0-3.584-1.016-3.584-3.746V2.086c0-1.039-.051-1.338-1.176-1.338h-.206V.26h4.768v.488h-.274c-1.139 0-1.19.298-1.19 1.338V6.9c0 2.088.312 3.018 2.161 3.018 1.861 0 2.176-.931 2.176-3.018V3.165c0-1.671-.031-2.421-1.52-2.421V.26zM15.313 0c2.59 0 4.544 2.384 4.544 5.547s-1.954 5.547-4.544 5.547c-2.604 0-4.53-2.417-4.53-5.547 0-3.355 2.078-5.547 4.53-5.547zm0 10.471c1.574 0 2.244-1.478 2.244-4.938 0-3.473-.671-4.955-2.244-4.955-1.564 0-2.23 1.482-2.23 4.955 0 3.461.667 4.938 2.23 4.938zm16.16-1.668v-.161h.603v.327c0 1.47-.565 2.126-1.834 2.126-1.289 0-1.916-.852-1.916-2.607l.013-.99c0-1.58-.535-2-2.49-2 0 0-.446-.002-.506 0v3.995c0 .635.157.828.671.828h.67v.533h-4.681v-.533h.685c.509 0 .656-.185.656-.827v-7.92c0-.644-.148-.83-.656-.83h-.685V.256h5.064c2.718 0 3.928.748 3.928 2.426 0 1.516-.85 2.25-2.91 2.481 1.603.247 2.239.893 2.389 2.36.047.424.051.812.057 1.154.013.857.039 1.269.477 1.269.335 0 .465-.32.465-1.143zm-4.79-3.942h.001c1.382 0 2.026-.668 2.026-2.104 0-1.456-.526-1.924-2.163-1.924-1.167 0-1.204.122-1.204.77v3.258h1.34zM34.306.256h8.579l.154 3.878h-.598C42.058 2.011 41.035.819 40.3.819c-.502 0-.698.371-.698 1.324v7.335c0 .643.147.829.656.829h1.028v.547h-5.38v-.546h1.027c.509 0 .656-.187.656-.83V2.143c0-.954-.195-1.324-.697-1.324-.737 0-1.738 1.164-2.142 3.315h-.597l.153-3.878zM51.637.74V.256h3.591v.483c-1.277 0-1.34.707-1.34 2.393v7.722h-1.289l-5.108-8.605v5.58c0 1.841.079 2.493 1.519 2.493v.532h-3.59v-.532h.15c1.083 0 1.19-.691 1.19-2.388v-6.36c0-.644-.147-.83-.657-.83h-.67V.256h3.19l4.546 7.734V3.253c0-1.639-.024-2.538-1.532-2.513zM.137.257h8.524l.24 3.203h-.628C7.995 1.577 6.974.835 4.695.835c-1.203 0-1.203.173-1.203.903v2.929h.285c1.638 0 2.296-.53 2.37-2.01h.629v4.644h-.628c-.062-1.437-.747-2.011-2.37-2.011h-.286v4.205c0 .642.147.828.655.828h.672v.532H.137v-.532h.684c.51 0 .657-.185.657-.828v-7.92c0-.644-.147-.83-.657-.83H.137V.257zm123.23 8.248c.416 1.293.618 1.816 1.424 1.816h.275v.533h-4.545v-.533h.342c.589 0 .808-.13.808-.483 0-.147-.452-1.557-.47-1.61h-3.539c-.058.169-.387 1.125-.387 1.49 0 .373.144.603.862.603h.206v.533h-3.29v-.533h.096c1.02 0 1.349-.844 1.89-2.461l2.574-7.665h.981l2.773 8.31zm-5.446-1.049h3.04l-1.468-4.732-1.572 4.732zm13.222-3.207c2.115.888 3.311 1.487 3.31 3.458 0 1.995-1.34 3.386-3.258 3.386-1.706 0-2.624-1.11-2.943-1.11-.318 0-.47.494-.629.87h-.521l.069-4.162h.526c.508 2.285 1.867 3.72 3.485 3.72.982 0 1.668-.674 1.668-1.639 0-1.311-1.044-1.813-2.89-2.586-1.871-.781-2.886-1.516-2.886-3.16 0-1.696 1.341-3.026 3.055-3.026 1.545 0 2.504.945 2.762.945.254 0 .391-.458.534-.75h.467v3.683h-.47c-.604-2.038-1.762-3.24-3.075-3.24-.976 0-1.656.612-1.656 1.489 0 1.093.764 1.413 2.151 1.995l.301.127zm-23.495 3.587v-.001l2.212-7.58h3.692v.488h-.671c-.51 0-.658.187-.658.829v7.92c0 .643.148.829.658.829h.671v.533h-4.574v-.533h.672c.509 0 .656-.186.656-.829V1.248c-.152.529-2.815 9.696-2.815 9.696h-.841s-2.853-9.299-3.008-9.8v6.684c0 1.842.077 2.494 1.518 2.494v.532h-3.591v-.533h.151c1.082 0 1.19-.691 1.19-2.388v-6.36c0-.643-.148-.83-.657-.83h-.67V.256h3.773l2.292 7.58zm-32.19 0v-.001L77.67.255h3.692v.488h-.671c-.51 0-.658.187-.658.829v7.92c0 .643.148.829.658.829h.671v.533h-4.573v-.533h.671c.509 0 .656-.186.656-.829V1.248l-2.815 9.696h-.841l-3.007-9.8v6.684c0 1.842.076 2.494 1.518 2.494v.532H69.38v-.533h.151c1.082 0 1.19-.691 1.19-2.388v-6.36c0-.643-.148-.83-.658-.83h-.67V.256h3.773l2.292 7.58zM141.437 0c2.59 0 4.545 2.385 4.545 5.547 0 3.163-1.955 5.547-4.545 5.547-2.604 0-4.531-2.417-4.531-5.547 0-3.355 2.078-5.547 4.531-5.547zm0 10.471c1.573 0 2.244-1.478 2.244-4.938 0-3.473-.671-4.955-2.244-4.955-1.564 0-2.23 1.482-2.23 4.955 0 3.461.666 4.938 2.23 4.938zM154.272.256h3.593V.74c-1.279 0-1.342.706-1.342 2.393v7.722h-1.289l-5.108-8.605v5.58c0 1.841.079 2.493 1.52 2.493v.532h-3.591v-.532h.15c1.082 0 1.19-.691 1.19-2.388v-6.36c0-.643-.146-.83-.656-.83h-.671V.257h3.191l4.547 7.733V3.254c0-1.639-.025-2.538-1.534-2.513V.256zM96.441 7.673h-.001v.008c.047 1.12-.278 2.152-.866 2.763a1.944 1.944 0 01-1.43.616c-.835 0-1.607-.472-2.273-1.112-.771.672-1.688 1.133-2.753 1.133-1.656 0-2.727-1.105-2.727-2.817 0-1.498.839-2.598 2.496-3.267.003-.001.007-.002.009-.004-.38-1.03-.593-1.921-.593-2.411 0-1.482.948-2.518 2.305-2.518 1.217 0 2.067.854 2.067 2.075 0 1.061-.585 1.866-1.934 2.646a18.411 18.411 0 001.94 3.125c.651-.883 1.193-1.935 1.193-2.657 0-.414-.334-.66-.794-.66v-.46h3.017v.46c-.819 0-1.169.473-1.632 1.535a13.897 13.897 0 01-1.301 2.356c.593.655 1.158 1.081 1.583 1.081.636 0 1.08-.774 1.08-1.882v-.01h.614zM90.762.798V.797c-.541 0-.906.499-.906 1.24 0 .52.231 1.284.597 2.127.675-.496 1.203-1.174 1.203-2.126 0-.753-.35-1.24-.894-1.24zM89.4 9.708h.001c.582.222 1.236.088 1.9-.375a12.361 12.361 0 01-1.261-1.858 17.34 17.34 0 01-.855-1.755c-.758.577-1.042 1.154-1.042 1.963 0 .909.517 1.743 1.257 2.025z"/>
    </g>
  </g>
</svg>
