<svg width="178" height="23" viewBox="0 0 178 23" fill="none" xmlns="http://www.w3.org/2000/svg">
<path class="inherit-fill" d="M102.213 16.6914C103.118 16.6914 103.801 17.7335 103.801 19.1136C103.801 20.4914 103.118 21.5279 102.213 21.5279C101.292 21.5279 100.624 20.5128 100.624 19.1136C100.624 17.7335 101.306 16.6914 102.213 16.6914ZM102.213 21.1865C102.698 21.1865 102.778 20.5759 102.778 19.1136C102.778 17.6457 102.698 17.0328 102.213 17.0328C101.773 17.0328 101.646 17.4755 101.646 19.0077C101.646 20.6153 101.734 21.1865 102.213 21.1865ZM83.0246 16.8064L83.0234 16.8052H84.871L84.9375 18.4771H84.6547C84.5714 17.5871 84.1264 17.1173 83.758 17.1173C83.5417 17.1173 83.4898 17.2773 83.4898 17.6873V20.6807C83.4898 20.9578 83.5541 21.0367 83.7726 21.0367H84.1827V21.3746H81.8653V21.0378H82.2765C82.4951 21.0378 82.5582 20.9567 82.5582 20.6807V17.6885C82.5582 17.2773 82.5063 17.1184 82.29 17.1184C81.9228 17.1184 81.4766 17.5882 81.3921 18.4782H81.1105L81.1758 16.8064H83.0246ZM77.537 18.4928C78.4101 18.8635 78.9475 19.1373 78.9463 19.9991C78.9463 20.8711 78.365 21.4794 77.5347 21.4794C76.8115 21.4794 76.4217 21.0119 76.3113 21.0119C76.2166 21.0119 76.1423 21.2564 76.0859 21.3758H75.7761L75.8077 19.5169H76.1242C76.3158 20.4756 76.8847 21.0806 77.5291 21.0806C77.9065 21.0806 78.169 20.8215 78.169 20.4475C78.169 19.9292 77.7465 19.7242 77.0007 19.4088C76.1997 19.0708 75.7649 18.752 75.7649 18.0298C75.7649 17.2852 76.3484 16.7027 77.092 16.7027C77.7341 16.7027 78.1712 17.0993 78.2433 17.0993C78.3098 17.0993 78.3909 16.8627 78.4281 16.7838H78.7131V18.4433H78.4225C78.1769 17.5837 77.7037 17.0812 77.1832 17.0812C76.8103 17.0812 76.5501 17.3144 76.5501 17.6524C76.5501 18.0749 76.8396 18.1977 77.4142 18.441L77.537 18.4928V18.4928ZM71.5931 21.022C72.42 21.022 72.9597 20.6153 73.0926 19.8222H73.4531L73.3281 21.3746H69.5912V21.0401H69.9303C70.1015 21.0401 70.1488 21.0006 70.1488 20.7471V17.4158C70.1488 17.1624 70.0982 17.1218 69.9292 17.1218H69.5912V16.8075H73.3123L73.4193 18.263H73.0509C72.9394 17.4294 72.5282 17.159 71.5526 17.159C71.0974 17.159 71.0974 17.1781 71.0974 17.4846V18.8027H71.2169C71.8658 18.8027 72.1497 18.583 72.1553 17.9577H72.5259V20.0216H72.1564C72.1497 19.3862 71.868 19.1744 71.2169 19.1744H71.0974V20.6277C71.0974 20.9387 71.0974 21.022 71.5931 21.022V21.022ZM93.4319 20.6345V20.6334C93.4319 20.9758 93.486 21.0277 93.8431 21.0277H94.0989V21.3735H91.795V21.0277H92.0845C92.4428 21.0277 92.4969 20.9758 92.4969 20.6345V18.6145C92.4969 18.1921 92.4259 18.1188 92.0271 18.1188H91.813V17.7628C92.391 17.7121 92.9385 17.4079 93.1199 16.7816H93.4319V20.6345ZM95.9611 18.3588C95.9611 18.3588 96.0749 17.3054 96.0873 16.7816H98.5996C98.6243 17.8473 98.3258 18.4579 98.0137 19.0032C97.7242 19.5079 97.544 19.8222 97.544 20.2999C97.544 20.4554 97.6059 20.7111 97.6059 20.8249C97.6059 21.2023 97.3874 21.4377 97.0347 21.4377C96.6765 21.4377 96.4376 21.1426 96.4376 20.7032C96.4376 20.132 96.7531 19.5361 97.375 18.9288C97.7884 18.5244 98.0385 18.1842 98.0982 17.6828H96.8849C96.5807 17.6828 96.4196 17.8462 96.3419 18.3588H95.9611ZM105.77 18.3588C105.77 18.3588 105.884 17.3054 105.896 16.7816H108.409C108.433 17.8473 108.137 18.4579 107.824 19.0032C107.532 19.5079 107.352 19.8222 107.352 20.2999C107.352 20.4554 107.415 20.7111 107.415 20.8249C107.415 21.2023 107.197 21.4377 106.843 21.4377C106.487 21.4377 106.246 21.1426 106.246 20.7032C106.246 20.132 106.562 19.5361 107.184 18.9288C107.596 18.5244 107.849 18.1842 107.905 17.6828H106.694C106.388 17.6828 106.228 17.8462 106.151 18.3588H105.77ZM71.5999 0.292911V0.290658H75.6623V0.838177C74.28 0.838177 74.1516 1.51413 74.1516 3.53071V8.60033C74.1516 11.2591 72.9281 12.4983 70.2987 12.4983C67.3549 12.4983 66.261 11.3537 66.261 8.27813V2.35005C66.261 1.17953 66.2036 0.842684 64.9362 0.842684H64.7041V0.292911H70.0756V0.842684H69.7669C68.4838 0.842684 68.4263 1.17841 68.4263 2.35005V7.77342C68.4263 10.1257 68.7778 11.1734 70.8608 11.1734C72.9574 11.1734 73.3123 10.1246 73.3123 7.77342V3.56563C73.3123 1.68311 73.2774 0.838177 71.5999 0.838177V0.292911ZM17.2513 0C20.1692 0 22.3705 2.68577 22.3705 6.24915C22.3705 9.81253 20.1692 12.4983 17.2513 12.4983C14.3177 12.4983 12.1479 9.77535 12.1479 6.24915C12.1479 2.46947 14.4889 0 17.2513 0V0ZM17.2513 11.7964C19.0245 11.7964 19.7794 10.1314 19.7794 6.23338C19.7794 2.32076 19.0234 0.651165 17.2513 0.651165C15.4893 0.651165 14.739 2.32076 14.739 6.23338C14.739 10.1325 15.4905 11.7964 17.2513 11.7964V11.7964ZM35.4569 9.9173V9.73592H36.1362V10.1043C36.1362 11.7604 35.4997 12.4994 34.0701 12.4994C32.6179 12.4994 31.9115 11.5396 31.9115 9.56243L31.9262 8.44711C31.9262 6.66711 31.3235 6.19395 29.121 6.19395C29.121 6.19395 28.6185 6.1917 28.5509 6.19395V10.6946C28.5509 11.41 28.7278 11.6275 29.3069 11.6275H30.0617V12.2279H24.7881V11.6275H25.5599C26.1333 11.6275 26.2989 11.419 26.2989 10.6958V1.77324C26.2989 1.04772 26.1322 0.838177 25.5599 0.838177H24.7881V0.288405H30.4932C33.5552 0.288405 34.9184 1.13109 34.9184 3.02149C34.9184 4.72939 33.9608 5.5563 31.64 5.81654C33.4459 6.09481 34.1624 6.82258 34.3314 8.47528C34.3844 8.95295 34.3889 9.39006 34.3956 9.77535C34.4103 10.7408 34.4396 11.205 34.933 11.205C35.3104 11.205 35.4569 10.8445 35.4569 9.9173V9.9173ZM30.0606 5.47632H30.0617C31.6186 5.47632 32.3441 4.72376 32.3441 3.10599C32.3441 1.46568 31.7516 0.938443 29.9073 0.938443C28.5926 0.938443 28.5509 1.07589 28.5509 1.80591V5.47632H30.0606ZM38.6485 0.288405H48.3134L48.4869 4.65729H47.8132C47.3818 2.26556 46.2293 0.922671 45.4012 0.922671C44.8357 0.922671 44.6149 1.34063 44.6149 2.41427V10.6777C44.6149 11.4021 44.7805 11.6117 45.3539 11.6117H46.512V12.2279H40.451V11.6128H41.608C42.1814 11.6128 42.3471 11.4021 42.3471 10.6777V2.41427C42.3471 1.33951 42.1274 0.922671 41.5618 0.922671C40.7315 0.922671 39.6038 2.23401 39.1487 4.65729H38.4761L38.6485 0.288405V0.288405ZM58.1733 0.833671V0.288405H62.2188V0.832544C60.7802 0.832544 60.7092 1.62904 60.7092 3.52846V12.2279H59.2571L53.5025 2.53368V8.82001C53.5025 10.8941 53.5915 11.6286 55.2137 11.6286V12.2279H51.1693V11.6286H51.3383C52.5584 11.6286 52.6789 10.8501 52.6789 8.9383V1.77324C52.6789 1.04772 52.5133 0.838177 51.9388 0.838177H51.184V0.288405H54.7778L59.8992 9.00139V3.66477C59.8992 1.8183 59.8722 0.805506 58.1733 0.833671V0.833671ZM0.154297 0.289532H9.75728L10.0277 3.89797H9.32017C9.00698 1.77662 7.85674 0.940696 5.28926 0.940696C3.93398 0.940696 3.93398 1.13559 3.93398 1.958V5.25776H4.25506C6.1004 5.25776 6.84169 4.66067 6.92506 2.99333H7.63368V8.22518H6.92618C6.85633 6.60628 6.08463 5.95962 4.25618 5.95962H3.93398V10.6969C3.93398 11.4202 4.09959 11.6297 4.67189 11.6297H5.42895V12.229H0.154297V11.6297H0.924879C1.49944 11.6297 1.66504 11.4213 1.66504 10.6969V1.77437C1.66504 1.04885 1.49944 0.839304 0.924879 0.839304H0.154297V0.289532ZM138.983 9.58158C139.452 11.0383 139.679 11.6275 140.587 11.6275H140.897V12.2279H135.777V11.6275H136.162C136.826 11.6275 137.072 11.481 137.072 11.0833C137.072 10.9177 136.563 9.32923 136.543 9.26952H132.556C132.491 9.45991 132.12 10.5369 132.12 10.9481C132.12 11.3683 132.282 11.6275 133.091 11.6275H133.323V12.2279H129.617V11.6275H129.725C130.874 11.6275 131.245 10.6766 131.854 8.85494L134.754 0.219684H135.859L138.983 9.58158ZM132.848 8.3998H136.272L134.619 3.06881L132.848 8.3998ZM147.743 4.78685C150.126 5.78725 151.473 6.46208 151.472 8.68257C151.472 10.9301 149.963 12.4972 147.802 12.4972C145.88 12.4972 144.846 11.2467 144.486 11.2467C144.128 11.2467 143.957 11.8032 143.778 12.2268H143.191L143.269 7.53796H143.861C144.433 10.1122 145.964 11.7288 147.787 11.7288C148.894 11.7288 149.666 10.9695 149.666 9.88238C149.666 8.40543 148.49 7.83989 146.411 6.96904C144.303 6.08918 143.159 5.26114 143.159 3.40904C143.159 1.49835 144.67 0 146.601 0C148.342 0 149.422 1.06462 149.713 1.06462C149.999 1.06462 150.153 0.548646 150.314 0.219684H150.84V4.36889H150.311C149.63 2.07291 148.326 0.718759 146.847 0.718759C145.747 0.718759 144.981 1.40823 144.981 2.39624C144.981 3.6276 145.842 3.9881 147.404 4.64377L147.743 4.78685V4.78685ZM121.274 8.8279V8.82677L123.766 0.287278H127.926V0.837051H127.17C126.595 0.837051 126.428 1.04772 126.428 1.77099V10.6935C126.428 11.4179 126.595 11.6275 127.17 11.6275H127.926V12.2279H122.773V11.6275H123.53C124.103 11.6275 124.269 11.4179 124.269 10.6935V1.40597C124.097 2.00194 121.097 12.3293 121.097 12.3293H120.15C120.15 12.3293 116.936 1.85323 116.761 1.28881V8.81889C116.761 10.8941 116.848 11.6286 118.471 11.6286V12.2279H114.426V11.6275H114.596C115.815 11.6275 115.937 10.849 115.937 8.93718V1.77211C115.937 1.04772 115.77 0.837051 115.196 0.837051H114.442V0.288405H118.692L121.274 8.8279V8.8279ZM85.0096 8.8279V8.82677L87.5016 0.287278H91.6609V0.837051H90.905C90.3304 0.837051 90.1637 1.04772 90.1637 1.77099V10.6935C90.1637 11.4179 90.3304 11.6275 90.905 11.6275H91.6609V12.2279H86.5091V11.6275H87.265C87.8384 11.6275 88.0041 11.4179 88.0041 10.6935V1.40597L84.8327 12.3293H83.8853L80.4976 1.28881V8.81889C80.4976 10.8941 80.5833 11.6286 82.2078 11.6286V12.2279H78.1622V11.6275H78.3323C79.5513 11.6275 79.673 10.849 79.673 8.93718V1.77211C79.673 1.04772 79.5062 0.837051 78.9317 0.837051H78.1769V0.288405H82.4275L85.0096 8.8279V8.8279ZM159.34 0C162.258 0 164.461 2.6869 164.461 6.24915C164.461 9.81253 162.258 12.4983 159.34 12.4983C156.407 12.4983 154.236 9.77535 154.236 6.24915C154.236 2.46947 156.577 0 159.34 0ZM159.34 11.7964C161.112 11.7964 161.868 10.1314 161.868 6.23338C161.868 2.32076 161.112 0.651165 159.34 0.651165C157.578 0.651165 156.828 2.32076 156.828 6.23338C156.828 10.1325 157.578 11.7964 159.34 11.7964ZM173.8 0.288405H177.848V0.833671C176.407 0.833671 176.336 1.62904 176.336 3.52958V12.229H174.884L169.129 2.53481V8.82114C169.129 10.8952 169.218 11.6297 170.842 11.6297V12.229H166.796V11.6297H166.965C168.184 11.6297 168.306 10.8512 168.306 8.93943V1.77437C168.306 1.04997 168.141 0.839304 167.567 0.839304H166.811V0.289532H170.406L175.528 9.00139V3.6659C175.528 1.81943 175.5 0.806633 173.8 0.834797V0.288405ZM108.649 8.64427H108.648V8.65328C108.7 9.91505 108.334 11.0777 107.672 11.766C107.466 11.9865 107.216 12.1619 106.939 12.2813C106.662 12.4008 106.363 12.4616 106.061 12.46C105.12 12.46 104.25 11.9283 103.5 11.2072C102.632 11.9643 101.599 12.4837 100.399 12.4837C98.5331 12.4837 97.3265 11.2388 97.3265 9.31008C97.3265 7.62246 98.2717 6.38322 100.138 5.62953C100.142 5.62841 100.146 5.62728 100.149 5.62503C99.7205 4.46465 99.4805 3.46086 99.4805 2.90884C99.4805 1.23924 100.549 0.0721013 102.077 0.0721013C103.448 0.0721013 104.406 1.0342 104.406 2.40976C104.406 3.60506 103.747 4.51196 102.227 5.3907C102.836 6.63423 103.569 7.81364 104.413 8.91127C105.146 7.91649 105.757 6.73133 105.757 5.91794C105.757 5.45153 105.38 5.17439 104.862 5.17439V4.65616H108.261V5.17439C107.338 5.17439 106.944 5.70727 106.423 6.9037C106.021 7.83377 105.53 8.72269 104.957 9.55792C105.625 10.2958 106.261 10.7758 106.74 10.7758C107.457 10.7758 107.957 9.90378 107.957 8.65553V8.64427H108.649V8.64427ZM102.251 0.899013V0.897886C101.641 0.897886 101.23 1.46005 101.23 2.29485C101.23 2.88067 101.49 3.74138 101.903 4.69109C102.663 4.1323 103.258 3.36848 103.258 2.29597C103.258 1.44766 102.864 0.899013 102.251 0.899013V0.899013ZM100.716 10.9369H100.718C101.373 11.187 102.11 11.036 102.858 10.5144C102.322 9.86121 101.846 9.16059 101.437 8.4212C101.079 7.78076 100.758 7.12067 100.474 6.44405C99.6202 7.09409 99.3003 7.74413 99.3003 8.65553C99.3003 9.67959 99.8827 10.6192 100.716 10.9369V10.9369Z" fill="#505359"/>
</svg>
