<svg width="170" height="24" viewBox="0 0 170 24" fill="none" xmlns="http://www.w3.org/2000/svg">
<path class="inherit-fill" fill-rule="evenodd" clip-rule="evenodd" d="M4.61754 11.553C4.61754 15.3903 7.72929 18.5021 11.5666 18.5021C15.4039 18.5021 18.5147 15.3903 18.5147 11.553C18.5147 7.71567 15.4039 4.60392 11.5666 4.60392C7.72929 4.60392 4.61754 7.71567 4.61754 11.553ZM20.6317 7.81383L22.3429 8.80251C22.693 9.0049 22.9308 9.35504 22.9926 9.75375C23.0847 10.3407 23.1332 10.9408 23.1332 11.553C23.1332 12.1652 23.0847 12.7653 22.9926 13.3512C22.9308 13.751 22.693 14.1021 22.3429 14.3035L20.6317 15.2912C19.8302 15.7546 19.3364 16.6087 19.3364 17.5347V19.509C19.3364 19.9127 19.1522 20.2942 18.8385 20.5472C17.9085 21.3001 16.8601 21.9113 15.7247 22.3485C15.3473 22.4942 14.9243 22.4649 14.5741 22.2625L12.8609 21.2728C12.0594 20.8103 11.0728 20.8103 10.2713 21.2728L8.5591 22.2625C8.20795 22.4649 7.78495 22.4942 7.40749 22.3485C6.27208 21.9113 5.2237 21.3001 4.29473 20.5472C3.98001 20.2942 3.79583 19.9127 3.79583 19.509V17.5347C3.79583 16.6087 3.302 15.7546 2.50054 15.2912L0.790335 14.3035C0.4402 14.1021 0.20239 13.751 0.139649 13.3512C0.0475617 12.7653 0 12.1652 0 11.553C0 10.9408 0.0475617 10.3407 0.139649 9.75375C0.20239 9.35504 0.4402 9.0049 0.790335 8.80251L2.50054 7.81383C3.302 7.35238 3.79583 6.49627 3.79583 5.57134V3.59702C3.79583 3.19224 3.98001 2.81175 4.29473 2.55876C5.2237 1.80587 6.27208 1.19465 7.40749 0.757485C7.78495 0.611763 8.20795 0.642122 8.5591 0.844513L10.2713 1.83218C11.0728 2.29565 12.0594 2.29565 12.8609 1.83218L14.5741 0.844513C14.9243 0.642122 15.3473 0.611763 15.7247 0.757485C16.8601 1.19465 17.9085 1.80587 18.8385 2.55876C19.1522 2.81175 19.3364 3.19224 19.3364 3.59702V5.57134C19.3364 6.49627 19.8302 7.35238 20.6317 7.81383ZM36.4372 4.73648C35.0357 4.73648 34.4356 5.43675 34.4356 6.71282V7.93829H38.9641V10.6402H34.4356V20.5958H31.2338V10.6402H27.7567V7.93829H31.2338V6.08743C31.2338 3.63547 32.5847 2.18433 35.4617 2.18433H40.9151V4.73648H36.4372ZM44.0207 7.93833V10.0644C44.3455 9.33887 45.321 7.86345 48.1231 7.86345H51.074V11.04H47.6971C44.9962 11.04 44.0207 11.9406 44.0207 13.9422V20.5958H40.8432V7.93833H44.0207ZM58.8177 18.0698C56.6673 18.0698 55.2657 16.4183 55.2657 14.2668C55.2657 12.1154 56.6673 10.4649 58.8177 10.4649C60.8942 10.4649 62.2705 12.1154 62.2705 14.2668C62.2705 16.4183 60.8942 18.0698 58.8177 18.0698ZM62.2209 9.83956C61.9446 9.31334 60.6696 7.66284 57.993 7.66284C54.7152 7.66284 52.0143 10.1644 52.0143 14.2668C52.0143 18.4199 54.7152 20.8709 57.9677 20.8709C60.7445 20.8709 61.9952 19.1202 62.2452 18.595V20.5956H65.4227V7.9381H62.2209V9.83956ZM80.6142 10.4892C81.19 9.33864 82.5906 7.66284 85.2672 7.66284C88.469 7.66284 90.5202 9.98932 90.5202 13.2164V20.5956H87.3184V13.8418C87.3184 11.8402 86.1678 10.5145 84.317 10.5145C82.4155 10.5145 81.19 11.8908 81.19 13.8418V20.5956H77.9882V13.8418C77.9882 11.8402 76.8376 10.5145 74.9858 10.5145C73.0853 10.5145 71.8588 11.8908 71.8588 13.8418V20.5956H68.6823V7.9381H71.8588V10.0642C72.3344 9.13827 73.735 7.66284 76.0119 7.66284C78.1633 7.66284 79.8138 8.76385 80.6142 10.4892ZM96.0455 12.5911C96.4452 11.0398 97.6464 10.0896 99.3728 10.0896C100.998 10.0896 102.199 10.9902 102.648 12.5911H96.0455ZM99.3728 7.61332C95.495 7.61332 92.7435 10.3395 92.7435 14.2669C92.7435 18.0688 95.495 20.9205 99.6227 20.9205C103.925 20.9205 105.651 18.1943 105.851 16.8939H102.699C102.473 17.2441 101.649 18.2692 99.6227 18.2692C97.5209 18.2692 96.0951 16.7685 95.9453 14.7921H106.001V14.442C106.001 10.2889 103.274 7.61332 99.3728 7.61332ZM118.902 7.83799L122.004 16.3688L124.905 7.93817H128.008L123.38 20.6959H120.503L117.276 11.8909L114.074 20.6959H111.272L106.544 7.93817H110.021L112.949 16.4436L116.075 7.83799H118.902ZM135.38 18.0698C133.229 18.0698 131.779 16.393 131.779 14.2669C131.779 12.1408 133.229 10.465 135.38 10.465C137.507 10.465 138.957 12.1155 138.957 14.2669C138.957 16.4183 137.507 18.0698 135.38 18.0698ZM135.38 7.61332C131.478 7.61332 128.551 10.4144 128.551 14.2669C128.551 18.1194 131.478 20.9215 135.38 20.9215C139.233 20.9215 142.184 18.1194 142.184 14.2669C142.184 10.4144 139.233 7.61332 135.38 7.61332ZM147.584 7.93833V10.0644C147.909 9.33887 148.884 7.86345 151.686 7.86345H154.638V11.04H151.26C148.559 11.04 147.584 11.9406 147.584 13.9422V20.5958H144.406V7.93833H147.584ZM162.921 13.842L169.65 7.93829H165.473L159.669 13.0912V2.18433H156.517V20.5958H159.669V14.8418L165.722 20.5958H170L162.921 13.842Z" fill="black"/>
</svg>
