<svg width="98" height="37" viewBox="0 0 98 37" fill="none" xmlns="http://www.w3.org/2000/svg">
<g class="inherit-fill" fill="black">
<path d="M16.4295 4.81554H14.2368V3.32577C14.2368 1.64715 15.6007 0.283267 17.2793 0.283267H20.9618C20.9618 2.79071 18.9369 4.81554 16.4295 4.81554ZM34.6321 4.51129H36.8038V22.2417H34.6321H32.4603V21.2975V20.3533C31.7679 21.0772 30.9496 21.6437 30.0368 22.0319C29.1241 22.4201 28.1064 22.6299 27.0153 22.6299C24.7072 22.6299 22.5984 21.6332 21.0667 19.9756C19.535 18.318 18.5802 16.0203 18.5802 13.3975C18.5802 10.7642 19.535 8.44556 21.0667 6.78792C22.5984 5.13029 24.7072 4.1336 27.0153 4.1336C28.0959 4.1336 29.1136 4.34343 30.0368 4.73161C30.9601 5.11979 31.7679 5.68633 32.4603 6.41023V5.46601V4.52179H34.6321V4.51129ZM32.2505 13.4395C32.2505 12.0231 31.7469 10.7537 30.9181 9.83042C30.0998 8.90718 28.9562 8.34065 27.7077 8.34065C26.4488 8.34065 25.3157 8.89669 24.4974 9.79895C23.679 10.7117 23.165 11.9812 23.165 13.429C23.165 14.8453 23.6686 16.0938 24.4974 16.9855C25.3157 17.8773 26.4593 18.4229 27.7077 18.4229C28.9667 18.4229 30.0998 17.8668 30.9181 16.9646C31.7364 16.0623 32.2505 14.8138 32.2505 13.4395ZM46.865 4.41687C45.8788 4.76309 44.987 5.37159 44.2631 6.26335V5.38208V4.5008H42.0914H39.9197V22.2312H42.1963H44.473V17.8773V13.5234C44.473 12.8205 44.5149 12.1071 44.6828 11.4356C44.8507 10.7746 45.1339 10.1661 45.6165 9.66256C46.1306 9.10652 46.7706 8.78129 47.505 8.62392C48.2394 8.45605 49.0787 8.45605 49.9914 8.56097V6.35778V4.15459C48.9108 3.99722 47.8512 4.08115 46.865 4.41687ZM56.5486 4.51129V0H52.0058V14.7719C52.0058 17.1954 52.6982 19.1992 54.0306 20.5211C55.3735 21.8431 57.3564 22.483 59.9583 22.2103V20.1435V18.0767C58.8252 18.1501 57.9649 17.9508 57.3984 17.4262C56.8318 16.9016 56.5486 16.0518 56.5486 14.8138V11.6769V8.71834H58.3636H61.0179V4.52179H58.3636L56.5486 4.51129ZM96.0906 6.22139C94.8841 4.85751 93.153 4.07066 91.0652 4.07066C90.121 4.07066 89.2607 4.28048 88.4948 4.64768C87.7289 5.02537 87.0575 5.56043 86.491 6.23188V5.37159V4.51129H84.3192H82.1475V13.3765V22.2417H84.4242H86.7008V17.059V11.8762C86.7008 10.8796 87.0575 9.99829 87.6555 9.3688C88.264 8.73932 89.1243 8.36163 90.142 8.36163C91.6422 8.36163 92.471 8.98062 92.9222 9.72551C93.3733 10.4704 93.4467 11.3517 93.4467 11.8658V17.0485V22.2312H95.7234H98V17.0485V11.8658C97.9895 9.54716 97.2971 7.58527 96.0906 6.22139ZM77.4369 6.77743C78.9896 8.46654 79.8604 10.8166 79.8604 13.4709C79.8604 13.8067 79.8604 14.1004 79.8499 14.3522C79.8394 14.604 79.8289 14.8138 79.8184 14.9922H73.2823H66.7252C66.8826 16.0518 67.5016 16.9541 68.3514 17.594C69.2012 18.234 70.2923 18.6012 71.4043 18.6012C72.401 18.6012 73.1984 18.3704 73.8279 17.9822C74.4469 17.5836 74.898 17.0275 75.2127 16.3561L77.1641 17.0695L79.1155 17.7829C78.486 19.1678 77.4789 20.3848 76.1674 21.266C74.856 22.1473 73.2298 22.6719 71.3729 22.6719C69.0543 22.6719 66.7147 21.7696 64.9521 20.1539C63.1896 18.5278 62.0146 16.1882 62.0146 13.3031C62.0146 10.5963 63.1266 8.28819 64.7948 6.66203C66.4629 5.02537 68.6976 4.07066 70.9427 4.07066C73.66 4.07066 75.8842 5.08832 77.4369 6.77743ZM75.1917 11.3727C75.1393 10.4494 74.7511 9.57863 74.0482 8.94915C73.3453 8.31967 72.3276 7.92099 71.0267 7.92099C69.7992 7.92099 68.771 8.38261 68.0366 9.04357C67.3022 9.70453 66.8616 10.5753 66.8091 11.3727H71.0057H75.1917ZM15.8525 20.2903C17.5311 21.969 18.5697 24.2875 18.5697 26.8579C18.5697 29.4283 17.5311 31.7469 15.8525 33.4255C14.1739 35.1042 11.8553 36.1428 9.28487 36.1428C6.72498 36.1428 4.39589 35.1042 2.71727 33.4255C1.03865 31.7469 0 29.4283 0 26.8579C0 24.2875 1.03865 21.969 2.71727 20.2903C3.22085 19.7867 3.7769 19.3461 4.37491 18.9684L8.07836 22.0844C7.19709 22.3047 6.42073 22.7558 5.79124 23.3748C4.89948 24.2666 4.34343 25.5045 4.34343 26.8684C4.34343 28.2323 4.89948 29.4598 5.79124 30.3621C6.68301 31.2538 7.92099 31.8099 9.28487 31.8099C10.6488 31.8099 11.8762 31.2538 12.7785 30.3621C13.6703 29.4703 14.2263 28.2323 14.2263 26.8684C14.2263 25.5045 13.6703 24.2771 12.7785 23.3748C12.6841 23.2804 12.4847 23.0915 12.4847 23.0915C12.4847 23.0915 4.45884 16.398 4.19655 16.1357C2.89562 14.8348 2.08779 13.0303 2.08779 11.0474C2.08779 9.06455 2.89562 7.26004 4.19655 5.9591C5.49748 4.65817 7.302 3.85034 9.28487 3.85034C11.2677 3.85034 13.0723 4.65817 14.3732 5.9591C15.6741 7.26004 16.482 9.06455 16.482 11.0474C16.482 13.0303 15.6741 14.8348 14.3732 16.1357C13.8172 16.6918 13.1667 17.1534 12.4533 17.5101L15.181 19.6923L15.223 19.7238C15.4433 19.9022 15.6531 20.091 15.8525 20.2903ZM12.3379 11.0474C12.3379 10.2081 11.9916 9.44224 11.4461 8.8862C10.8901 8.33016 10.1242 7.99443 9.28487 7.99443C8.44556 7.99443 7.67969 8.34065 7.12365 8.8862C6.56761 9.44224 6.23188 10.2081 6.23188 11.0474C6.23188 11.8867 6.5781 12.6526 7.12365 13.2086C7.1866 13.2716 7.26004 13.345 7.33348 13.3975L7.34397 13.408C7.86854 13.8381 8.55048 14.1004 9.28487 14.1004C10.1242 14.1004 10.8901 13.7542 11.4461 13.2086C12.0021 12.6526 12.3379 11.8867 12.3379 11.0474Z" />
</g>
</svg>
