<svg width="112" height="42" viewBox="0 0 112 42" fill="none" xmlns="http://www.w3.org/2000/svg">
<path class="inherit-fill" d="M18.7766 5.50348H16.2706V3.80088C16.2706 1.88245 17.8294 0.323734 19.7478 0.323734H23.9563C23.9563 3.18938 21.6422 5.50348 18.7766 5.50348ZM39.5795 5.15577H42.0615V25.4191H39.5795H37.0975V24.34V23.2609C36.3062 24.0882 35.3709 24.7357 34.3278 25.1793C33.2847 25.623 32.1216 25.8628 30.8746 25.8628C28.2368 25.8628 25.8268 24.7237 24.0762 22.8292C22.3257 20.9348 21.2346 18.309 21.2346 15.3114C21.2346 12.3019 22.3257 9.65207 24.0762 7.75763C25.8268 5.86318 28.2368 4.72412 30.8746 4.72412C32.1096 4.72412 33.2727 4.96392 34.3278 5.40756C35.3829 5.85119 36.3062 6.49866 37.0975 7.32598V6.24687V5.16776H39.5795V5.15577ZM36.8577 15.3594C36.8577 13.7407 36.2822 12.2899 35.335 11.2348C34.3997 10.1796 33.0928 9.53217 31.666 9.53217C30.2272 9.53217 28.9322 10.1676 27.997 11.1988C27.0618 12.2419 26.4743 13.6928 26.4743 15.3474C26.4743 16.9661 27.0498 18.3929 27.997 19.4121C28.9322 20.4312 30.2392 21.0547 31.666 21.0547C33.1048 21.0547 34.3997 20.4192 35.335 19.3881C36.2702 18.3569 36.8577 16.9301 36.8577 15.3594ZM53.56 5.04785C52.4329 5.44353 51.4138 6.13896 50.5864 7.15812V6.15095V5.14378H48.1045H45.6225V25.4071H48.2244H50.8263V20.4312V15.4553C50.8263 14.652 50.8742 13.8366 51.0661 13.0693C51.2579 12.3139 51.5816 11.6185 52.1332 11.0429C52.7207 10.4075 53.4521 10.0358 54.2914 9.8559C55.1307 9.66406 56.0899 9.66406 57.1331 9.78396V7.26603V4.7481C55.8981 4.56825 54.6871 4.66417 53.56 5.04785ZM64.6269 5.15577V0H59.4352V16.8821C59.4352 19.6519 60.2265 21.942 61.7493 23.4527C63.284 24.9635 65.5502 25.6949 68.5237 25.3832V23.0211V20.659C67.2288 20.743 66.2456 20.5152 65.5981 19.9156C64.9506 19.3161 64.6269 18.3449 64.6269 16.9301V13.345V9.96382H66.7012H69.7347V5.16776H66.7012L64.6269 5.15577ZM109.818 7.11016C108.439 5.55144 106.461 4.65218 104.075 4.65218C102.995 4.65218 102.012 4.89198 101.137 5.31164C100.262 5.74328 99.4943 6.35478 98.8468 7.12215V6.13896V5.15577H96.3648H93.8829V15.2874V25.4191H96.4848H99.0866V19.496V13.5729C99.0866 12.4338 99.4943 11.4266 100.178 10.7072C100.873 9.9878 101.856 9.55615 103.019 9.55615C104.734 9.55615 105.681 10.2636 106.197 11.1149C106.712 11.9662 106.796 12.9733 106.796 13.5609V19.484V25.4071H109.398H112V19.484V13.5609C111.988 10.911 111.197 8.66888 109.818 7.11016ZM88.4993 7.74564C90.2738 9.67605 91.269 12.3618 91.269 15.3954C91.269 15.779 91.269 16.1148 91.257 16.4025C91.2451 16.6903 91.2331 16.9301 91.2211 17.1339H83.7512H76.2574C76.4372 18.3449 77.1446 19.3761 78.1158 20.1075C79.087 20.8389 80.334 21.2585 81.605 21.2585C82.744 21.2585 83.6553 20.9948 84.3747 20.5511C85.0821 20.0955 85.5977 19.46 85.9574 18.6926L88.1876 19.508L90.4177 20.3233C89.6983 21.906 88.5473 23.2969 87.0485 24.304C85.5497 25.3112 83.6913 25.9107 81.569 25.9107C78.9192 25.9107 76.2454 24.8796 74.231 23.0331C72.2167 21.1746 70.8738 18.5008 70.8738 15.2035C70.8738 12.1101 72.1447 9.47222 74.0512 7.61375C75.9576 5.74328 78.5115 4.65218 81.0774 4.65218C84.1829 4.65218 86.7248 5.81522 88.4993 7.74564ZM85.9334 12.9973C85.8735 11.9422 85.4298 10.947 84.6265 10.2276C83.8231 9.50819 82.6601 9.05256 81.1733 9.05256C79.7705 9.05256 78.5954 9.58013 77.7561 10.3355C76.9168 11.0909 76.4132 12.0861 76.3533 12.9973H81.1493H85.9334ZM18.1171 23.189C20.0355 25.1074 21.2226 27.7572 21.2226 30.6948C21.2226 33.6324 20.0355 36.2822 18.1171 38.2006C16.1987 40.119 13.5489 41.3061 10.6113 41.3061C7.68569 41.3061 5.02387 40.119 3.10545 38.2006C1.18702 36.2822 0 33.6324 0 30.6948C0 27.7572 1.18702 25.1074 3.10545 23.189C3.68098 22.6134 4.31645 22.1098 4.99989 21.6782L9.23242 25.2393C8.22524 25.4911 7.33797 26.0066 6.61856 26.7141C5.5994 27.7332 4.96392 29.1481 4.96392 30.7068C4.96392 32.2655 5.5994 33.6683 6.61856 34.6995C7.63773 35.7187 9.05256 36.3541 10.6113 36.3541C12.17 36.3541 13.5729 35.7187 14.604 34.6995C15.6232 33.6803 16.2586 32.2655 16.2586 30.7068C16.2586 29.1481 15.6232 27.7452 14.604 26.7141C14.4961 26.6061 14.2683 26.3903 14.2683 26.3903C14.2683 26.3903 5.09581 18.7406 4.79606 18.4409C3.30928 16.9541 2.38604 14.8918 2.38604 12.6256C2.38604 10.3595 3.30928 8.29718 4.79606 6.81041C6.28284 5.32363 8.34515 4.40039 10.6113 4.40039C12.8774 4.40039 14.9397 5.32363 16.4265 6.81041C17.9133 8.29718 18.8365 10.3595 18.8365 12.6256C18.8365 14.8918 17.9133 16.9541 16.4265 18.4409C15.791 19.0763 15.0476 19.6039 14.2323 20.0116L17.3497 22.5055L17.3977 22.5415C17.6495 22.7453 17.8893 22.9611 18.1171 23.189ZM14.1004 12.6256C14.1004 11.6664 13.7047 10.7911 13.0813 10.1557C12.4458 9.52018 11.5705 9.1365 10.6113 9.1365C9.65207 9.1365 8.77679 9.53217 8.14131 10.1557C7.50584 10.7911 7.12215 11.6664 7.12215 12.6256C7.12215 13.5848 7.51783 14.4601 8.14131 15.0956C8.21325 15.1675 8.29719 15.2515 8.38112 15.3114L8.39311 15.3234C8.99261 15.815 9.77197 16.1148 10.6113 16.1148C11.5705 16.1148 12.4458 15.7191 13.0813 15.0956C13.7167 14.4601 14.1004 13.5848 14.1004 12.6256Z" fill="black"/>
</svg>
