<svg width="91" height="20" viewBox="0 0 91 20" xmlns="http://www.w3.org/2000/svg">
  <g fill="none" fill-rule="evenodd">
    <g class="inherit-fill" fill="#000" fill-rule="nonzero">
      <path d="M17 5.7C16.4 2.4 14.3 0 10.6 0h-.2C6.2 0 3 2.3 1.4 5.7.5 7.5 0 9.6 0 11.9c0 4.4 2.3 7.1 5.2 7.9.5.1 1.1.2 1.7.2.6 0 1.3-.1 1.9-.2 1.2-.3 2.2-1 2.9-1.9v1.8c0 .1.1.1.2.1h2.6c.1 0 .1-.1.1-.1l1.7-9.4v-.1c0-.1-.1-.2-.2-.2H9.8c-.1 0-.2.1-.2.2l-.5 2.6v.1c0 .1.1.1.2.1h3.2c-.7 2-2.3 3.8-4.8 3.8s-4.1-2-4.1-5.3c0-2.2.6-4.2 1.8-5.7 1-1.5 2.6-2.4 4.5-2.4 1.8 0 2.8.9 3.5 2.3.2.4.3.8.5 1.2-.1.1 0 .1.1.1l2.9-.8h.1v-.5zm7-5.5c0-.1-.1-.2-.2-.2h-2.9c-.1 0-.2.1-.2.2l-1 5.5-2.5 13.8v.1c0 .1.1.1.2.1h3c.1 0 .1-.1.1-.1L23 5.7l1-5.5zm9 5.5c-.6-.2-1.1-.2-1.7-.2-.7 0-1.4.1-2.1.2-1.2.3-2.2.9-3.3 2-1.6 1.6-2.2 3.7-2.2 6.3 0 2.8 1.5 5 4 5.7.6.2 1.1.2 1.7.2.8 0 1.4-.1 2.1-.2 1.2-.3 2.2-.9 3.3-2 1.6-1.6 2.2-3.7 2.2-6.3 0-2.8-1.5-5-4-5.7zm-.4 9.8c-.7.9-1.6 1.5-2.9 1.5-1.6 0-2.6-1.3-2.6-3.5 0-1.5.3-2.7 1-3.6.6-.9 1.6-1.5 2.9-1.5 1.6 0 2.6 1.3 2.6 3.5 0 1.5-.4 2.7-1 3.6zm15.3-7.8c-.5-.9-1.4-1.7-2.6-2-.5-.1-1-.2-1.4-.2-.6 0-1.2.1-1.7.2-1.8.5-2.9 2-2.9 4.1 0 1.9 1.2 3 2.7 3.7 1.5.7 2.2 1.3 2.2 2 0 1-.8 1.5-1.7 1.5-1.3 0-2.1-.8-2.5-2.2 0-.1-.1-.1-.2-.1h-.1l-2.4 1.1c-.1 0-.1.1-.1.2.3 1.4 1.4 3.1 3.4 3.8.5.1 1 .2 1.6.2.7 0 1.3-.1 1.8-.2 2-.5 3.4-2 3.4-4.7 0-2-1.4-2.9-2.7-3.6-.9-.5-2.3-.9-2.3-1.9 0-.8.6-1.3 1.3-1.3.8 0 1.5.4 1.9 1.1 0 .1.1.1.2.1h.1l2-1.6c.1 0 .1-.1.1-.1-.1 0-.1-.1-.1-.1zm8.2-2c-.5-.1-1-.2-1.4-.2-.6 0-1.2.1-1.7.2-1.8.5-2.9 2-2.9 4.1 0 1.9 1.2 3 2.7 3.7 1.5.7 2.2 1.3 2.2 2 0 1-.8 1.5-1.7 1.5-1.3 0-2.1-.8-2.5-2.2 0-.1-.1-.1-.2-.1h-.1l-2.4 1.1c-.1 0-.1.1-.1.2.3 1.4 1.4 3.1 3.4 3.8.5.1 1 .2 1.6.2.7 0 1.3-.1 1.8-.2 2-.5 3.3-2 3.3-4.7 0-2-1.4-2.9-2.7-3.6-.9-.5-2.3-.9-2.3-1.8 0-.8.6-1.3 1.3-1.3.7 0 1.4.3 1.9 1.1 0 .1.1.1.2.1h.1l2-1.6c.1 0 .1-.1.1-.1v-.1c-.4-1-1.4-1.8-2.6-2.1zm8.5 0h-2.9c-.1 0-.2.1-.2.1L59 19.5v.2c0 .1.1.1.2.1h3c.1 0 .1-.1.1-.1L64.8 6c0-.2-.1-.3-.2-.3zm10.2 0c-.5-.2-1.1-.2-1.7-.2-.7 0-1.3.1-1.9.2-3.7.9-5.9 4.3-5.9 8.1 0 3.2 1.6 5.3 4 6 .5.1 1.1.2 1.7.2.7 0 1.3-.1 2-.2 1.8-.5 3.2-1.6 4.4-3.5v-.1c0-.1 0-.1-.1-.2L75 14.7h-.1c-.1 0-.1 0-.1.1-.9 1.5-2 2.3-3.5 2.3-1.7 0-2.7-1.3-2.7-2.7v-.5H78l.1-.1c.1-.4.3-1.4.3-2.6 0-2.7-1.3-4.9-3.6-5.5zm-5.6 5.4c.6-1.4 1.9-2.7 3.5-2.7 1.7 0 2.4.9 2.5 2.7h-6zM89 8.8h.2l.1-.1 1-2.7v-.1c0-.1-.1-.1-.1-.2-.1 0-.1-.1-.2-.1-.4-.1-.8-.2-1.4-.2-.5 0-.9.1-1.4.2-1 .3-1.9 1-2.7 2.1l.3-1.8c0-.1-.1-.2-.2-.2h-2.9c-.1 0-.2.1-.2.2L79 19.5v.1c0 .1.1.1.2.1h3c.1 0 .1-.1.1-.1l.9-4.8c.8-4.4 3.1-6.2 4.7-6.2.4 0 .7 0 1.1.2zM63.7.2c-1.1 0-1.9.9-1.9 2s.8 2 1.9 2c1.1 0 1.9-.9 1.9-2s-.8-2-1.9-2zM89.1 16c-1.1 0-1.9.9-1.9 2 0 .7.3 1.4.9 1.7.3.2.6.3 1 .3.3 0 .7-.1 1-.3.6-.3.9-1 .9-1.7 0-1.1-.8-2-1.9-2z"/>
    </g>
  </g>
</svg>
