<svg width="112" height="25" viewBox="0 0 112 25" fill="none" xmlns="http://www.w3.org/2000/svg">
<g class="inherit-fill" fill="black">
<path d="M20.9231 7.01538C20.1846 2.95385 17.6 0 13.0462 0H12.8C7.63077 0 3.69231 2.83077 1.72308 7.01538C0.615385 9.23077 0 11.8154 0 14.6462C0 20.0615 2.83077 23.3846 6.4 24.3692C7.01538 24.4923 7.75385 24.6154 8.49231 24.6154C9.23077 24.6154 10.0923 24.4923 10.8308 24.3692C12.3077 24 13.5385 23.1385 14.4 22.0308V24.2462C14.4 24.3692 14.5231 24.3692 14.6462 24.3692H17.8462C17.9692 24.3692 17.9692 24.2462 17.9692 24.2462L20.0615 12.6769V12.5538C20.0615 12.4308 19.9385 12.3077 19.8154 12.3077H12.0615C11.9385 12.3077 11.8154 12.4308 11.8154 12.5538L11.2 15.7538V15.8769C11.2 16 11.3231 16 11.4462 16H15.3846C14.5231 18.4615 12.5538 20.6769 9.47692 20.6769C6.4 20.6769 4.43077 18.2154 4.43077 14.1538C4.43077 11.4462 5.16923 8.98462 6.64615 7.13846C7.87692 5.29231 9.84615 4.18462 12.1846 4.18462C14.4 4.18462 15.6308 5.29231 16.4923 7.01538C16.7385 7.50769 16.8615 8 17.1077 8.49231C16.9846 8.61539 17.1077 8.61538 17.2308 8.61538L20.8 7.63077H20.9231V7.01538V7.01538ZM29.5385 0.246154C29.5385 0.123077 29.4154 0 29.2923 0H25.7231C25.6 0 25.4769 0.123077 25.4769 0.246154L24.2462 7.01538L21.1692 24V24.1231C21.1692 24.2462 21.2923 24.2462 21.4154 24.2462H25.1077C25.2308 24.2462 25.2308 24.1231 25.2308 24.1231L28.3077 7.01538L29.5385 0.246154ZM40.6154 7.01538C39.8769 6.76923 39.2615 6.76923 38.5231 6.76923C37.6615 6.76923 36.8 6.89231 35.9385 7.01538C34.4615 7.38462 33.2308 8.12308 31.8769 9.47692C29.9077 11.4462 29.1692 14.0308 29.1692 17.2308C29.1692 20.6769 31.0154 23.3846 34.0923 24.2462C34.8308 24.4923 35.4462 24.4923 36.1846 24.4923C37.1692 24.4923 37.9077 24.3692 38.7692 24.2462C40.2462 23.8769 41.4769 23.1385 42.8308 21.7846C44.8 19.8154 45.5385 17.2308 45.5385 14.0308C45.5385 10.5846 43.6923 7.87692 40.6154 7.01538V7.01538ZM40.1231 19.0769C39.2615 20.1846 38.1538 20.9231 36.5538 20.9231C34.5846 20.9231 33.3538 19.3231 33.3538 16.6154C33.3538 14.7692 33.7231 13.2923 34.5846 12.1846C35.3231 11.0769 36.5538 10.3385 38.1538 10.3385C40.1231 10.3385 41.3538 11.9385 41.3538 14.6462C41.3538 16.4923 40.8615 17.9692 40.1231 19.0769ZM58.9539 9.47692C58.3385 8.36923 57.2308 7.38462 55.7538 7.01538C55.1385 6.89231 54.5231 6.76923 54.0308 6.76923C53.2923 6.76923 52.5538 6.89231 51.9385 7.01538C49.7231 7.63077 48.3692 9.47692 48.3692 12.0615C48.3692 14.4 49.8462 15.7538 51.6923 16.6154C53.5385 17.4769 54.4 18.2154 54.4 19.0769C54.4 20.3077 53.4154 20.9231 52.3077 20.9231C50.7077 20.9231 49.7231 19.9385 49.2308 18.2154C49.2308 18.0923 49.1077 18.0923 48.9846 18.0923H48.8615L45.9077 19.4462C45.7846 19.4462 45.7846 19.5692 45.7846 19.6923C46.1538 21.4154 47.5077 23.5077 49.9692 24.3692C50.5846 24.4923 51.2 24.6154 51.9385 24.6154C52.8 24.6154 53.5385 24.4923 54.1538 24.3692C56.6154 23.7538 58.3385 21.9077 58.3385 18.5846C58.3385 16.1231 56.6154 15.0154 55.0154 14.1538C53.9077 13.5385 52.1846 13.0462 52.1846 11.8154C52.1846 10.8308 52.9231 10.2154 53.7846 10.2154C54.7692 10.2154 55.6308 10.7077 56.1231 11.5692C56.1231 11.6923 56.2462 11.6923 56.3692 11.6923H56.4923L58.9539 9.72308C59.0769 9.72308 59.0769 9.6 59.0769 9.6C58.9538 9.6 58.9539 9.47692 58.9539 9.47692V9.47692ZM69.0462 7.01538C68.4308 6.89231 67.8154 6.76923 67.3231 6.76923C66.5846 6.76923 65.8462 6.89231 65.2308 7.01538C63.0154 7.63077 61.6615 9.47692 61.6615 12.0615C61.6615 14.4 63.1385 15.7538 64.9846 16.6154C66.8308 17.4769 67.6923 18.2154 67.6923 19.0769C67.6923 20.3077 66.7077 20.9231 65.6 20.9231C64 20.9231 63.0154 19.9385 62.5231 18.2154C62.5231 18.0923 62.4 18.0923 62.2769 18.0923H62.1538L59.2 19.4462C59.0769 19.4462 59.0769 19.5692 59.0769 19.6923C59.4462 21.4154 60.8 23.5077 63.2615 24.3692C63.8769 24.4923 64.4923 24.6154 65.2308 24.6154C66.0923 24.6154 66.8308 24.4923 67.4462 24.3692C69.9077 23.7538 71.5077 21.9077 71.5077 18.5846C71.5077 16.1231 69.7846 15.0154 68.1846 14.1538C67.0769 13.5385 65.3538 13.0462 65.3538 11.9385C65.3538 10.9538 66.0923 10.3385 66.9539 10.3385C67.8154 10.3385 68.6769 10.7077 69.2923 11.6923C69.2923 11.8154 69.4154 11.8154 69.5385 11.8154H69.6615L72.1231 9.84615C72.2462 9.84615 72.2462 9.72308 72.2462 9.72308V9.6C71.7538 8.36923 70.5231 7.38462 69.0462 7.01538V7.01538ZM79.5077 7.01538H75.9385C75.8154 7.01538 75.6923 7.13846 75.6923 7.13846L72.6154 24V24.2462C72.6154 24.3692 72.7385 24.3692 72.8615 24.3692H76.5538C76.6769 24.3692 76.6769 24.2462 76.6769 24.2462L79.7539 7.38462C79.7539 7.13846 79.6308 7.01538 79.5077 7.01538V7.01538ZM92.0615 7.01538C91.4462 6.76923 90.7077 6.76923 89.9692 6.76923C89.1077 6.76923 88.3692 6.89231 87.6308 7.01538C83.0769 8.12308 80.3692 12.3077 80.3692 16.9846C80.3692 20.9231 82.3385 23.5077 85.2923 24.3692C85.9077 24.4923 86.6462 24.6154 87.3846 24.6154C88.2462 24.6154 88.9846 24.4923 89.8462 24.3692C92.0615 23.7538 93.7846 22.4 95.2615 20.0615V19.9385C95.2615 19.8154 95.2615 19.8154 95.1385 19.6923L92.3077 18.0923H92.1846C92.0615 18.0923 92.0615 18.0923 92.0615 18.2154C90.9539 20.0615 89.6 21.0462 87.7539 21.0462C85.6615 21.0462 84.4308 19.4462 84.4308 17.7231V17.1077H96L96.1231 16.9846C96.2462 16.4923 96.4923 15.2615 96.4923 13.7846C96.4923 10.4615 94.8923 7.75385 92.0615 7.01538V7.01538ZM85.1692 13.6615C85.9077 11.9385 87.5077 10.3385 89.4769 10.3385C91.5692 10.3385 92.4308 11.4462 92.5538 13.6615H85.1692ZM109.538 10.8308H109.785L109.908 10.7077L111.138 7.38462V7.26154C111.138 7.13846 111.015 7.13846 111.015 7.01538C110.892 7.01538 110.892 6.89231 110.769 6.89231C110.277 6.76923 109.785 6.64615 109.046 6.64615C108.431 6.64615 107.938 6.76923 107.323 6.89231C106.092 7.26154 104.985 8.12308 104 9.47692L104.369 7.26154C104.369 7.13846 104.246 7.01538 104.123 7.01538H100.554C100.431 7.01538 100.308 7.13846 100.308 7.26154L97.2308 24V24.1231C97.2308 24.2462 97.3538 24.2462 97.4769 24.2462H101.169C101.292 24.2462 101.292 24.1231 101.292 24.1231L102.4 18.2154C103.385 12.8 106.215 10.5846 108.185 10.5846C108.677 10.5846 109.046 10.5846 109.538 10.8308ZM78.4 0.246154C77.0462 0.246154 76.0615 1.35385 76.0615 2.70769C76.0615 4.06154 77.0462 5.16923 78.4 5.16923C79.7539 5.16923 80.7385 4.06154 80.7385 2.70769C80.7385 1.35385 79.7539 0.246154 78.4 0.246154V0.246154ZM109.662 19.6923C108.308 19.6923 107.323 20.8 107.323 22.1538C107.323 23.0154 107.692 23.8769 108.431 24.2462C108.8 24.4923 109.169 24.6154 109.662 24.6154C110.031 24.6154 110.523 24.4923 110.892 24.2462C111.631 23.8769 112 23.0154 112 22.1538C112 20.8 111.015 19.6923 109.662 19.6923Z" />
</g>
</svg>
