<?xml version="1.0" encoding="utf-8"?>
<!-- Generator: Adobe Illustrator 18.0.0, SVG Export Plug-In . SVG Version: 6.00 Build 0)  -->
<!DOCTYPE svg PUBLIC "-//W3C//DTD SVG 1.1//EN" "http://www.w3.org/Graphics/SVG/1.1/DTD/svg11.dtd">
<svg version="1.1" id="Слой_1" xmlns="http://www.w3.org/2000/svg" xmlns:xlink="http://www.w3.org/1999/xlink" x="0px" y="0px" width="91" height="20"
	 viewBox="0 0 91 20" enable-background="new 0 0 91 20" xml:space="preserve">
<path d="M17,5.7C16.4,2.4,14.3,0,10.6,0h-0.2C6.2,0,3,2.3,1.4,5.7C0.5,7.5,0,9.6,0,11.9c0,4.4,2.3,7.1,5.2,7.9
	C5.7,19.9,6.3,20,6.9,20c0.6,0,1.3-0.1,1.9-0.2c1.2-0.3,2.2-1,2.9-1.9v1.7c0,0,0,0.1,0,0.1c0,0.1,0.1,0.1,0.2,0.1h2.5
	c0,0,0.1,0,0.1,0c0.1,0,0.1-0.1,0.1-0.1l1.7-9.4v-0.1c0-0.1-0.1-0.2-0.2-0.2H9.8c-0.1,0-0.2,0.1-0.2,0.2l-0.5,2.6v0c0,0,0,0.1,0,0.1
	c0,0.1,0.1,0.1,0.2,0.1h3.2c-0.7,2-2.3,3.8-4.8,3.8c-2.5,0-4.1-2-4.1-5.3c0-2.2,0.6-4.2,1.8-5.7C6.4,4.3,8,3.4,9.9,3.4
	c1.8,0,2.8,0.9,3.5,2.3c0.2,0.4,0.3,0.8,0.5,1.2C13.8,7,13.9,7,14,7H14l2.9-0.8c0,0,0,0,0.1,0C17,6.2,17,6.1,17,6v0
	C17,5.9,17,5.8,17,5.7z M24,0.2C24,0.1,23.9,0,23.8,0h-2.9c-0.1,0-0.2,0.1-0.2,0.2l-1,5.5l-2.5,13.8v0c0,0,0,0.1,0,0.1
	c0,0.1,0.1,0.1,0.2,0.1h2.9c0,0,0.1,0,0.1,0c0.1,0,0.1-0.1,0.1-0.1L23,5.7L24,0.2L24,0.2L24,0.2z M33,5.7c-0.6-0.2-1.1-0.2-1.7-0.2
	c-0.7,0-1.4,0.1-2.1,0.2C28,6,27,6.6,25.9,7.7c-1.6,1.6-2.2,3.7-2.2,6.3c0,2.8,1.5,5,4,5.7c0.6,0.2,1.1,0.2,1.7,0.2
	c0.8,0,1.4-0.1,2.1-0.2c1.2-0.3,2.2-0.9,3.3-2c1.6-1.6,2.2-3.7,2.2-6.3C37,8.6,35.5,6.4,33,5.7z M32.6,15.5
	c-0.7,0.9-1.6,1.5-2.9,1.5c-1.6,0-2.6-1.3-2.6-3.5c0-1.5,0.3-2.7,1-3.6C28.7,9,29.7,8.4,31,8.4c1.6,0,2.6,1.3,2.6,3.5
	C33.6,13.4,33.2,14.6,32.6,15.5z M47.9,7.7c-0.5-0.9-1.4-1.7-2.6-2c-0.5-0.1-1-0.2-1.4-0.2c-0.6,0-1.2,0.1-1.7,0.2
	c-1.8,0.5-2.9,2-2.9,4.1c0,1.9,1.2,3,2.7,3.7c1.5,0.7,2.2,1.3,2.2,2c0,1-0.8,1.5-1.7,1.5c-1.3,0-2.1-0.8-2.5-2.2
	c0-0.1-0.1-0.1-0.2-0.1c0,0-0.1,0-0.1,0l-2.4,1.1c-0.1,0-0.1,0.1-0.1,0.2v0c0.3,1.4,1.4,3.1,3.4,3.8c0.5,0.1,1,0.2,1.6,0.2
	c0.7,0,1.3-0.1,1.8-0.2c2-0.5,3.4-2,3.4-4.7c0-2-1.4-2.9-2.7-3.6c-0.9-0.5-2.3-0.9-2.3-1.9c0-0.8,0.6-1.3,1.3-1.3
	c0.8,0,1.5,0.4,1.9,1.1c0,0.1,0.1,0.1,0.2,0.1c0,0,0.1,0,0.1,0l2-1.6h0c0.1,0,0.1-0.1,0.1-0.1C47.9,7.8,47.9,7.7,47.9,7.7z
	 M56.1,5.7c-0.5-0.1-1-0.2-1.4-0.2c-0.6,0-1.2,0.1-1.7,0.2c-1.8,0.5-2.9,2-2.9,4.1c0,1.9,1.2,3,2.7,3.7c1.5,0.7,2.2,1.3,2.2,2
	c0,1-0.8,1.5-1.7,1.5c-1.3,0-2.1-0.8-2.5-2.2c0-0.1-0.1-0.1-0.2-0.1c0,0-0.1,0-0.1,0l-2.4,1.1C48,15.8,48,15.9,48,16v0
	c0.3,1.4,1.4,3.1,3.4,3.8c0.5,0.1,1,0.2,1.6,0.2c0.7,0,1.3-0.1,1.8-0.2c2-0.5,3.3-2,3.3-4.7c0-2-1.4-2.9-2.7-3.6
	c-0.9-0.5-2.3-0.9-2.3-1.8c0-0.8,0.6-1.3,1.3-1.3c0.7,0,1.4,0.3,1.9,1.1c0,0.1,0.1,0.1,0.2,0.1c0,0,0.1,0,0.1,0L58.6,8
	c0.1,0,0.1-0.1,0.1-0.1c0,0,0-0.1,0-0.1C58.3,6.8,57.3,6,56.1,5.7z M64.6,5.7h-2.9c-0.1,0-0.2,0.1-0.2,0.1L59,19.5v0.1
	c0,0,0,0.1,0,0.1c0,0.1,0.1,0.1,0.2,0.1h2.9c0,0,0.1,0,0.1,0c0.1,0,0.1-0.1,0.1-0.1l2.5-13.7v0C64.8,5.8,64.7,5.7,64.6,5.7z
	 M74.8,5.7c-0.5-0.2-1.1-0.2-1.7-0.2c-0.7,0-1.3,0.1-1.9,0.2c-3.7,0.9-5.9,4.3-5.9,8.1c0,3.2,1.6,5.3,4,6c0.5,0.1,1.1,0.2,1.7,0.2
	c0.7,0,1.3-0.1,2-0.2c1.8-0.5,3.2-1.6,4.4-3.5c0,0,0-0.1,0-0.1c0-0.1,0-0.1-0.1-0.2L75,14.7c0,0-0.1,0-0.1,0c-0.1,0-0.1,0-0.1,0.1
	c-0.9,1.5-2,2.3-3.5,2.3c-1.7,0-2.7-1.3-2.7-2.7v-0.5h9.3c0,0,0.1,0,0.1,0s0.1-0.1,0.1-0.1c0.1-0.4,0.3-1.4,0.3-2.6
	C78.4,8.5,77.1,6.3,74.8,5.7z M69.2,11.1c0.6-1.4,1.9-2.7,3.5-2.7c1.7,0,2.4,0.9,2.5,2.7H69.2z M89,8.8c0,0,0.1,0,0.1,0
	c0,0,0.1,0,0.1,0l0.1-0.1l1-2.7c0,0,0-0.1,0-0.1c0-0.1-0.1-0.1-0.1-0.2c-0.1,0-0.1-0.1-0.2-0.1c-0.4-0.1-0.8-0.2-1.4-0.2
	c-0.5,0-0.9,0.1-1.4,0.2c-1,0.3-1.9,1-2.7,2.1l0.3-1.8V5.9c0-0.1-0.1-0.2-0.2-0.2h-2.9c-0.1,0-0.2,0.1-0.2,0.2L79,19.5v0
	c0,0,0,0.1,0,0.1c0,0.1,0.1,0.1,0.2,0.1h2.9c0,0,0.1,0,0.1,0c0.1,0,0.1-0.1,0.1-0.1l0.9-4.8c0.8-4.4,3.1-6.2,4.7-6.2
	C88.3,8.6,88.6,8.6,89,8.8L89,8.8z M63.7,0.2c-1.1,0-1.9,0.9-1.9,2c0,1.1,0.8,2,1.9,2s1.9-0.9,1.9-2C65.6,1.1,64.8,0.2,63.7,0.2z
	 M89.1,16c-1.1,0-1.9,0.9-1.9,2c0,0.7,0.3,1.4,0.9,1.7c0.3,0.2,0.6,0.3,1,0.3c0.3,0,0.7-0.1,1-0.3c0.6-0.3,0.9-1,0.9-1.7
	C91,16.9,90.2,16,89.1,16z"/>
</svg>
