<svg width="100" height="26" viewBox="0 0 100 26" fill="none" xmlns="http://www.w3.org/2000/svg">
<g class="inherit-fill" fill="black">
<path d="M12.4466 11.9375V16.2857H20.277C19.044 19.3497 16.0618 21.3473 12.7591 21.3214C8.48136 21.1779 5.08778 17.6685 5.08778 13.3884C5.08778 9.1082 8.48136 5.59885 12.7591 5.45532C15.4959 5.4448 18.0524 6.81881 19.5537 9.1071H24.7859C22.8891 4.12344 18.0913 0.846538 12.7591 0.892818C5.89623 1.05463 0.448022 6.72068 0.555267 13.5846C0.662513 20.4486 6.28507 25.9416 13.1496 25.889C20.0142 25.8363 25.5518 20.2576 25.5537 13.3928C25.5522 12.9093 25.5224 12.4264 25.4645 11.9464H12.4466V11.9375Z" />
<path d="M28.4107 13.3928C28.2982 8.19971 31.3408 3.45539 36.1073 1.39131C40.8739 -0.672778 46.4156 0.354242 50.126 3.98931C53.8364 7.62438 54.9768 13.1439 53.0108 17.9518C51.0449 22.7596 46.3639 25.8988 41.1697 25.8928C37.819 25.9309 34.5909 24.6344 32.1973 22.2894C29.8037 19.9444 28.4413 16.7435 28.4107 13.3928V13.3928ZM49.0447 13.3928C49.0053 9.05914 45.4681 5.57372 41.1344 5.59826C36.8006 5.6228 33.3031 9.14805 33.3129 13.4819C33.3226 17.8157 36.8359 21.3252 41.1697 21.3303C43.2728 21.3425 45.2925 20.5081 46.7738 19.015C48.2551 17.522 49.0735 15.4958 49.0447 13.3928Z" />
<path d="M57.2949 1.29468H66.3574C71.8663 1.29468 74.6163 3.67861 74.6163 8.08932C74.6724 10.0257 73.6376 11.8298 71.9378 12.759C74.1827 13.6589 75.6146 15.8784 75.5092 18.2947C75.5092 23.0982 72.5271 25.4822 67.0181 25.4822H57.2949V1.29468ZM62.0181 5.53575V10.8929H66.4824C69.2592 10.8929 69.8485 9.41968 69.8485 8.08039C69.8485 6.74111 68.9556 5.52682 66.7146 5.52682H62.0181V5.53575ZM62.0181 15.2143V21.25H67.2056C69.8842 21.25 70.7324 19.7054 70.7324 18.1965C70.7324 16.6875 69.8396 15.2143 67.2056 15.2143H62.0181Z" />
<path d="M94.0984 1.29468L88.1163 11.4643L81.9556 1.29468H76.3306L85.5359 15.8482L79.8574 25.4822H85.2859L99.4913 1.29468H94.0984Z" />
</g>
</svg>
