<svg xmlns="http://www.w3.org/2000/svg" height="29" viewBox="0 0 112 29" width="112"><g fill-rule="nonzero" fill="#000000" class="inherit-fill"><path d="m13.94 13.37v4.87h8.77c-1.3808985 3.4317281-4.7209736 5.6690231-8.42 5.64-4.79107101-.1607552-8.5918809-4.0912328-8.5918809-8.885s3.80080989-8.72424482 8.5918809-8.885c3.0652176-.01178025 5.9285387 1.52711375 7.61 4.09h5.86c-2.1243772-5.58170852-7.4979181-9.25183298-13.47-9.2-7.68641789.1812305-13.78840548 6.52720957-13.66829091 14.2148254.12011456 7.6876158 6.41737973 13.8398637 14.10570751 13.7808727 7.6883278-.0589911 13.8904472-6.3071443 13.8925834-13.9956981-.0017276-.5414876-.035118-1.0824108-.1-1.62h-14.58z" ></path><path d="m31.82 15c-.1260236-5.81622873 3.2816328-11.12986415 8.62018-13.441641 5.3385472-2.31177686 11.5452966-1.16151397 15.7009074 2.9097632s5.432869 10.2531422 3.2310171 15.6379585c-2.201852 5.3848163-7.4445145 8.900685-13.2621045 8.8939193-3.7527253.0426531-7.3682556-1.4093697-10.0490672-4.0357771-2.6808116-2.6264075-4.2066468-6.2114118-4.2409328-9.9642229m23.11 0c-.0440794-4.8536687-4.0057291-8.75733595-8.8595201-8.72985268-4.8537911.02748327-8.7709813 3.97576228-8.7600945 8.82961898.0108869 4.8538566 3.9457491 8.784524 8.7996146 8.7902337 2.3555467.0136509 4.6175576-.9208642 6.276612-2.5930857 1.6590545-1.6722215 2.5756591-3.9415491 2.543388-6.2969143" ></path><path d="m64.17 1.45h10.15c6.17 0 9.25 2.67 9.25 7.61.0628162 2.1687096-1.0962463 4.1893419-3 5.23 2.5143391 1.0079342 4.1180792 3.4937314 4 6.2 0 5.38-3.34 8.05-9.51 8.05h-10.89zm5.29 4.75v6h5c3.11 0 3.77-1.65 3.77-3.15s-1-2.86-3.51-2.86h-5.26zm0 10.84v6.76h5.81c3 0 3.95-1.73 3.95-3.42s-1-3.34-3.95-3.34z" ></path><path d="m105.39 1.45-6.7 11.39-6.9-11.39h-6.3l10.31 16.3-6.36 10.79h6.08l15.91-27.09z" ></path></g></svg>
