<svg width="80" height="34" viewBox="0 0 80 34" fill="none" xmlns="http://www.w3.org/2000/svg">
<path class="inherit-fill" fill-rule="evenodd" clip-rule="evenodd" d="M14.4903 0.291595V10.3139C14.4903 10.4756 14.3931 10.6059 14.2731 10.6059H10.2971C10.1771 10.6059 10.08 10.4756 10.08 10.3144V0.291023C10.08 0.129881 9.98288 -0.000976562 9.86344 -0.000976562H0.217143C0.0971432 -0.000405135 0 0.130452 0 0.291595V32.8499C0 33.011 0.0971432 33.1424 0.217143 33.1424H9.86288C9.98288 33.1424 10.08 33.011 10.08 32.8499V22.563C10.08 22.4019 10.1771 22.2716 10.2971 22.2716H14.2731C14.3931 22.2716 14.4903 22.4019 14.4903 22.563V32.8499C14.4903 33.011 14.5874 33.1424 14.7069 33.1424H24.3531C24.4731 33.1424 24.5709 33.011 24.5709 32.8499V0.291023C24.5714 0.131023 24.4743 -0.000405135 24.3543 -0.000405135H14.7069C14.5869 -0.000405135 14.4897 0.130452 14.4897 0.291595H14.4903ZM28.2229 33.1424H38.0629C38.1851 33.1424 38.2857 33.0116 38.2857 32.8504V0.291023C38.2857 0.131023 38.1851 -0.000405135 38.0629 -0.000405135H28.2229C28.1006 -0.000405135 28 0.130452 28 0.291595V32.851C28 33.0122 28.1006 33.143 28.2229 33.143V33.1424ZM55.5954 0.165309L51.8983 10.811C51.8634 10.9116 51.7886 10.9768 51.7074 10.9768H51.7069C51.5897 10.9768 51.4949 10.8453 51.4949 10.6853V0.291023C51.4949 0.129881 51.3994 -0.000976562 51.2829 -0.000976562H41.9257C41.8091 -0.000405135 41.7143 0.130452 41.7143 0.291595V32.8499C41.7143 33.011 41.8091 33.1424 41.9263 33.1424H51.2829C51.3994 33.1424 51.4943 33.011 51.4943 32.8499V22.5642C51.4943 22.4024 51.5897 22.2716 51.7069 22.2716C51.7886 22.2716 51.8634 22.3368 51.8989 22.439L55.5189 32.975C55.5537 33.0768 55.6286 33.1424 55.7109 33.1424H66.6446C66.808 33.1424 66.9103 32.8984 66.828 32.7036L59.9126 16.215C59.8934 16.1681 59.8837 16.1178 59.884 16.0672C59.8842 16.0164 59.8946 15.9663 59.9143 15.9196L66.628 0.441309C66.7126 0.247023 66.6109 -0.000405135 66.4463 -0.000405135H55.7869C55.7046 -0.000405135 55.6309 0.0641663 55.5954 0.165309ZM69.9371 33.1424H79.7771C79.9006 33.1424 80 33.0116 80 32.8499V0.291023C80 0.129881 79.9006 -0.000976562 79.7771 -0.000976562H69.9371C69.8149 -0.000976562 69.7143 0.129881 69.7143 0.291023V32.8493C69.7143 33.011 69.8149 33.1419 69.9371 33.1419" fill="black"/>
</svg>
