<svg width="74" height="32" viewBox="0 0 74 32" fill="none" xmlns="http://www.w3.org/2000/svg">
<g class="inherit-fill" fill="black">
<path fill-rule="evenodd" clip-rule="evenodd" d="M13.4035 0.269652V9.54027C13.4035 9.68982 13.3136 9.81037 13.2026 9.81037H9.52484C9.41384 9.81037 9.324 9.68982 9.324 9.54079V0.269123C9.324 0.120066 9.23416 -0.000976562 9.12368 -0.000976562H0.200857C0.0898575 -0.000447992 0 0.120595 0 0.269652V30.3861C0 30.5351 0.0898575 30.6567 0.200857 30.6567H9.12316C9.23416 30.6567 9.324 30.5351 9.324 30.3861V20.8707C9.324 20.7217 9.41384 20.6011 9.52484 20.6011H13.2026C13.3136 20.6011 13.4035 20.7217 13.4035 20.8707V30.3861C13.4035 30.5351 13.4934 30.6567 13.6039 30.6567H22.5266C22.6376 30.6567 22.7281 30.5351 22.7281 30.3861V0.269123C22.7286 0.121123 22.6387 -0.000447992 22.5277 -0.000447992H13.6039C13.4929 -0.000447992 13.403 0.120595 13.403 0.269652H13.4035ZM26.1062 30.6567H35.2082C35.3212 30.6567 35.4143 30.5356 35.4143 30.3866V0.269123C35.4143 0.121123 35.3212 -0.000447992 35.2082 -0.000447992H26.1062C25.993 -0.000447992 25.9 0.120595 25.9 0.269652V30.3871C25.9 30.5362 25.993 30.6572 26.1062 30.6572V30.6567ZM51.4258 0.152838L48.0059 10.0001C47.9737 10.0931 47.9044 10.1534 47.8294 10.1534H47.8289C47.7205 10.1534 47.6328 10.0319 47.6328 9.88385V0.269123C47.6328 0.120066 47.5445 -0.000976562 47.4367 -0.000976562H38.7813C38.6734 -0.000447992 38.5857 0.120595 38.5857 0.269652V30.3861C38.5857 30.5351 38.6734 30.6567 38.7818 30.6567H47.4367C47.5445 30.6567 47.6322 30.5351 47.6322 30.3861V20.8718C47.6322 20.7222 47.7205 20.6011 47.8289 20.6011C47.9044 20.6011 47.9737 20.6614 48.0065 20.756L51.355 30.5018C51.3872 30.5959 51.4564 30.6567 51.5326 30.6567H61.6462C61.7974 30.6567 61.892 30.431 61.8159 30.2507L55.4191 14.9988C55.4014 14.9554 55.3924 14.9089 55.3927 14.8621C55.3929 14.8151 55.4025 14.7687 55.4207 14.7255L61.6309 0.408138C61.7091 0.228423 61.6151 -0.000447992 61.4628 -0.000447992H51.6029C51.5267 -0.000447992 51.4586 0.0592806 51.4258 0.152838ZM64.6918 30.6567H73.7938C73.908 30.6567 74 30.5356 74 30.3861V0.269123C74 0.120066 73.908 -0.000976562 73.7938 -0.000976562H64.6918C64.5788 -0.000976562 64.4857 0.120066 64.4857 0.269123V30.3856C64.4857 30.5351 64.5788 30.6562 64.6918 30.6562" />
</g>
</svg>
