<svg width="100" height="54" viewBox="0 0 100 54" fill="none" xmlns="http://www.w3.org/2000/svg">
<path class="inherit-fill" d="M39.5062 23.4568V23.5395L34.4031 37.2018L34.321 37.2839H37.037L39.2592 31.2759H39.9179C40.2469 31.2759 40.5759 31.2759 40.9876 31.1938C41.2346 31.2759 41.3988 31.358 41.5636 31.4407C41.6457 31.5228 41.7284 31.6876 41.8105 31.8518C41.8926 32.0987 41.8926 32.2636 41.8105 32.5105C41.7284 32.5926 41.7284 32.6753 41.7284 32.7574C41.7284 32.8395 41.6457 32.9222 41.6457 33.0043C41.6457 33.0864 41.5636 33.1691 41.5636 33.2512C41.4815 33.3333 41.4815 33.416 41.4815 33.4981L40.9876 35.1444C40.9876 35.3086 40.9055 35.3913 40.9055 35.4734C40.9055 35.6383 40.8228 35.7204 40.8228 35.8024C40.8228 35.9673 40.7407 36.0494 40.7407 36.1321C40.6586 36.2142 40.6586 36.2963 40.6586 36.379C40.5759 36.4611 40.5759 36.5432 40.5759 36.6259V37.2839H43.4568V37.2018C43.4568 37.1197 43.3741 36.9549 43.3741 36.8728C43.292 36.7901 43.292 36.708 43.292 36.6259V36.379C43.3741 36.2963 43.3741 36.2142 43.3741 36.1321C43.3741 36.0494 43.4568 35.9673 43.4568 35.8852V35.7204C43.5389 35.6383 43.5389 35.6383 43.5389 35.5555C43.621 35.4734 43.621 35.4734 43.621 35.3913L44.1148 33.5802C44.1148 33.416 44.1975 33.3333 44.1975 33.2512C44.1975 33.0864 44.2796 33.0043 44.2796 32.9222C44.2796 32.8395 44.3617 32.7574 44.3617 32.6753C44.3617 32.5926 44.4444 32.5926 44.4444 32.5105C44.5265 32.1815 44.5265 31.9345 44.5265 31.6876C44.5265 31.4407 44.4444 31.1938 44.3617 31.029L43.9506 30.6173C43.8679 30.5352 43.7858 30.5352 43.7037 30.4531C44.0327 30.3704 44.3617 30.2883 44.6086 30.1234C45.0204 29.9592 45.3494 29.6296 45.679 29.3006C46.008 28.9716 46.337 28.642 46.5018 28.2308C46.6667 27.8191 46.8309 27.4074 46.9136 26.9136C47.0778 25.679 46.9136 24.7741 46.337 24.2802C45.7611 23.7037 44.6086 23.4568 43.0451 23.4568H39.5062V23.4568ZM41.2346 25.4321H42.4691C43.1272 25.4321 43.621 25.5148 43.8679 25.7617C44.1148 26.0086 44.1975 26.4197 44.1148 26.9136C44.0327 27.8191 43.7037 28.395 43.2099 28.8068C42.7981 29.2185 42.0574 29.3827 41.1518 29.3827H39.8352L41.2346 25.4321V25.4321ZM26.1728 0.164795L20.329 15.0617L19.5883 17.037C18.3537 20.2469 15.1438 19.0123 15.8025 17.5308C16.0494 16.5432 16.4611 15.6383 16.7901 14.6506C15.4734 14.7327 13.8272 14.6506 12.5105 14.6506C12.1809 15.3913 12.0167 16.0494 11.8518 16.5432C10.7821 19.8358 11.5228 21.8111 15.3907 22.2222C18.4364 22.5518 22.6339 21.3173 23.9506 17.5308C24.5265 15.9673 25.0204 14.4037 25.5969 12.8395C27.2426 8.64195 28.8889 4.36233 30.5352 0.164795H26.1728V0.164795ZM16.4611 23.2926C15.9673 23.4568 15.4734 23.7037 15.0617 24.0333C14.65 24.3623 14.2389 24.7741 13.992 25.2679C13.7451 25.7617 13.4981 26.2555 13.4154 26.9136C13.3333 27.2432 13.3333 27.5722 13.3333 27.9012C13.4154 28.2308 13.4154 28.4778 13.5802 28.8068C13.6623 29.0537 13.9093 29.3827 14.1562 29.7123C14.4031 30.1234 14.8148 30.4531 15.2265 30.8642L15.3086 30.9469C15.8025 31.4407 16.1315 31.8518 16.3784 32.2636C16.6253 32.7574 16.708 33.0864 16.6253 33.4981L16.3784 34.2389C16.2142 34.4037 16.0494 34.6506 15.8846 34.8148C15.6376 34.9796 15.4734 35.1444 15.2265 35.2265C14.9796 35.2265 14.7327 35.3086 14.4858 35.3086C14.1562 35.3086 13.992 35.3086 13.8272 35.2265C13.6802 35.1618 13.5629 35.0444 13.4981 34.8975C13.3952 34.6928 13.3389 34.4679 13.3333 34.2389C13.3333 33.992 13.3333 33.6629 13.4154 33.2512C13.4154 33.1691 13.4981 33.0864 13.4981 32.9222C13.5802 32.7574 13.5802 32.5926 13.6623 32.4284V32.2636L13.7451 32.1815H11.2759L11.4401 32.3457C11.4401 32.4284 11.4401 32.5926 11.358 32.6753C11.358 32.8395 11.2759 32.9222 11.2759 33.0864C11.2759 33.1691 11.1932 33.2512 11.1932 33.416C11.1932 33.5802 11.1111 33.6629 11.1111 33.8271C10.9627 34.3631 10.9347 34.9253 11.029 35.4734C11.029 35.9673 11.2759 36.379 11.5228 36.708C11.7697 37.037 12.0988 37.2839 12.5926 37.4487C13.0864 37.6136 13.5802 37.6957 14.2389 37.6957C14.9796 37.6957 15.6376 37.5308 16.2142 37.3666C16.7901 37.2018 17.2839 36.8728 17.7778 36.4611C18.2716 36.0494 18.6833 35.5555 18.9302 35.0617C19.2593 34.4858 19.5062 33.8271 19.5883 33.1691C19.671 32.5105 19.5883 31.8518 19.2593 31.1938C18.9302 30.6173 18.4364 29.9592 17.6957 29.3006L17.4488 29.0537L17.366 28.9716C17.037 28.7247 16.7901 28.4778 16.6253 28.2308C16.4611 27.9839 16.2963 27.8191 16.2142 27.6543C16.1315 27.4901 16.0494 27.3253 16.0494 27.1605V26.6666C16.0494 26.4197 16.1315 26.1728 16.2142 26.0086C16.3784 25.8438 16.4611 25.679 16.6253 25.5148C16.7901 25.35 17.037 25.2679 17.2018 25.1852C17.4488 25.1031 17.613 25.1031 17.8599 25.1031C18.1068 25.1031 18.3537 25.1031 18.5185 25.1852C18.6833 25.2679 18.8475 25.35 18.9302 25.5148C19.0123 25.5969 19.0944 25.8438 19.0944 26.0086C19.1772 26.2555 19.1772 26.5024 19.0944 26.7494C19.0123 26.8315 19.0123 26.9136 19.0123 26.9963V27.1605C18.9302 27.3253 18.9302 27.4901 18.8475 27.737V27.8191H21.3994V27.737C21.3994 27.6543 21.4815 27.4901 21.4815 27.4074C21.4815 27.2432 21.5636 27.1605 21.5636 27.0784C21.5636 26.9963 21.6463 26.9136 21.6463 26.8315V26.6666C21.7284 26.0907 21.7284 25.5148 21.6463 25.1031C21.5636 24.6092 21.3167 24.2802 21.0697 23.9506C20.7407 23.7037 20.4117 23.4568 19.9179 23.2926C19.4241 23.1278 18.9302 23.0457 18.2716 23.0457C17.613 23.0457 16.9549 23.1278 16.4611 23.2926V23.2926ZM60.0821 23.2926C59.5883 23.4568 59.0944 23.7037 58.6827 24.0333C58.2716 24.3623 57.942 24.7741 57.6951 25.2679C57.366 25.7617 57.2012 26.2555 57.1191 26.9136C57.037 27.2432 56.9543 27.5722 57.037 27.9012C57.1191 28.2308 57.2012 28.4778 57.2839 28.8068C57.4481 29.0537 57.695 29.3827 57.942 29.7123C58.1889 30.1234 58.6006 30.4531 59.0123 30.8642L59.0944 30.9469C59.5883 31.4407 59.9173 31.8518 60.1642 32.2636C60.4111 32.7574 60.4938 33.0864 60.4111 33.4981L60.1642 34.2389C60 34.4037 59.8352 34.6506 59.6704 34.8148C59.5062 34.9796 59.3413 35.1444 59.0944 35.2265C58.8475 35.2265 58.6006 35.3086 58.3537 35.3086C58.1068 35.3086 57.8599 35.3086 57.6951 35.2265C57.5481 35.1618 57.4308 35.0444 57.366 34.8975C57.2631 34.6928 57.2068 34.4679 57.2012 34.2389C57.2012 33.992 57.2012 33.6629 57.2839 33.2512C57.2839 33.1691 57.2839 33.0864 57.366 32.9222C57.366 32.7574 57.366 32.5926 57.4481 32.4284L57.5309 32.3457V32.1815H55.0617L54.8969 32.3457C54.8969 32.4284 54.8148 32.5926 54.8148 32.6753C54.8148 32.8395 54.8148 32.9222 54.7321 33.0864C54.7321 33.1691 54.65 33.2512 54.65 33.416C54.65 33.5802 54.5679 33.6629 54.5679 33.8271C54.4193 34.3631 54.3911 34.9253 54.4852 35.4734C54.5679 35.9673 54.7321 36.379 54.979 36.708C55.2259 37.037 55.5555 37.2839 56.0494 37.4487C56.5432 37.6136 57.037 37.6957 57.6951 37.6957C58.4358 37.6957 59.0944 37.5308 59.6704 37.3666C60.2469 37.2018 60.7407 36.8728 61.2346 36.4611C61.7284 36.0494 62.1395 35.5555 62.3864 35.0617C62.716 34.4858 62.963 33.8271 63.0451 33.1691C63.1272 32.5105 63.045 31.8518 62.716 31.1938C62.3864 30.6173 61.8926 29.9592 61.1518 29.3006L60.9049 29.0537L60.8228 28.9716C60.4938 28.7247 60.2469 28.4778 60.0821 28.2308C59.9173 27.9839 59.7531 27.8191 59.6704 27.6543C59.5883 27.4901 59.5062 27.3253 59.5062 27.1605V26.6666C59.5883 26.4197 59.6704 26.1728 59.7531 26.0086C59.8352 25.8438 60 25.679 60.1642 25.5148C60.2469 25.35 60.4938 25.2679 60.658 25.1852C60.9049 25.1031 61.0697 25.1031 61.3167 25.1031C61.5636 25.1031 61.8105 25.1031 61.9753 25.1852C62.1395 25.2679 62.3043 25.35 62.3864 25.5148C62.4691 25.5969 62.5512 25.8438 62.5512 26.0086C62.6333 26.2555 62.6333 26.5024 62.5512 26.7494C62.5512 26.8315 62.4691 26.9136 62.4691 26.9963V27.1605C62.4691 27.3253 62.4691 27.4901 62.3864 27.737V27.8191H64.9383V27.737C64.9383 27.6543 65.0204 27.4901 65.0204 27.4074C65.0204 27.2432 65.1025 27.1605 65.1025 27.0784C65.1025 26.9963 65.1852 26.9136 65.1852 26.8315C65.2673 26.8315 65.2673 26.7494 65.2673 26.6666C65.3494 26.0907 65.3494 25.5148 65.2673 25.1031C65.1852 24.6092 64.9383 24.2802 64.6913 23.9506C64.3617 23.7037 64.0327 23.4568 63.5389 23.2926C63.045 23.1278 62.5512 23.0457 61.8926 23.0457C61.2346 23.0457 60.658 23.1278 60.0821 23.2926V23.2926ZM72.016 29.1358C71.7691 29.2185 71.5222 29.3006 71.358 29.3827C71.1932 29.4654 70.9463 29.5475 70.7815 29.7123L70.2876 30.2062C70.2055 30.3703 70.0407 30.5352 69.9586 30.7C69.7938 30.8642 69.7117 31.1111 69.6296 31.2759C69.5469 31.5228 69.3827 31.6876 69.3 32.0166C69.2179 32.2636 69.0531 32.5926 68.971 32.9222C68.971 33.1691 68.8889 33.416 68.8062 33.5802C68.7241 33.745 68.7241 33.992 68.642 34.1568C68.642 34.321 68.5592 34.4858 68.5592 34.6506C68.5592 34.8148 68.4771 34.8975 68.4771 35.0617C68.395 35.4734 68.395 35.8024 68.4771 36.1321C68.5592 36.4611 68.642 36.708 68.8062 36.8728C68.971 37.1197 69.2179 37.2839 69.5469 37.3666C69.8765 37.4487 70.2055 37.5308 70.6173 37.5308C71.1111 37.5308 71.5222 37.5308 71.8518 37.3666C72.263 37.2018 72.5926 37.037 72.8395 36.7901C73.0864 36.5432 73.3333 36.2142 73.5802 35.8024C73.8271 35.3913 73.9913 34.9796 74.1562 34.4037L74.0741 34.321H72.1809V34.4037C72.0988 34.7327 72.016 34.9796 71.9339 35.2265C71.8518 35.4734 71.687 35.6383 71.6049 35.8024C71.5222 35.9673 71.4401 36.0494 71.2753 36.1321C71.1111 36.2142 71.0284 36.2142 70.8642 36.2142C70.7815 36.2142 70.6994 36.2142 70.6173 36.1321C70.5346 36.0494 70.4525 36.0494 70.4525 35.9673C70.3704 35.8852 70.3704 35.7204 70.3704 35.6383C70.2876 35.5555 70.3704 35.3913 70.3704 35.2265C70.4525 35.0617 70.4525 34.8975 70.5346 34.6506L70.7815 33.9099C70.8546 33.5959 70.9652 33.2918 71.1111 33.0043C71.2753 32.6753 71.358 32.3457 71.5222 32.0166C71.6049 31.7697 71.687 31.5228 71.7691 31.358C71.8518 31.1938 71.9339 31.029 72.016 30.9469C72.1809 30.7 72.3457 30.6173 72.5926 30.6173C72.6747 30.6173 72.7568 30.6173 72.8395 30.7L73.0037 30.8642C73.0037 30.9469 73.0864 31.029 73.0864 31.1111V31.4407C73.0037 31.5228 73.0037 31.5228 73.0037 31.6049C73.0037 31.6049 72.9216 31.6876 72.9216 31.7697C72.9216 31.7697 72.8395 31.8518 72.8395 31.9345C72.8395 32.0166 72.8395 32.0987 72.7568 32.1815V32.2636H74.65V32.1815C74.65 32.0987 74.7321 32.0166 74.7321 31.9345C74.7321 31.8518 74.8148 31.7697 74.8148 31.6876C74.8969 31.6876 74.8969 31.6049 74.8969 31.5228V31.358C74.9792 31.0339 74.9792 30.6944 74.8969 30.3704C74.8148 30.1234 74.65 29.7944 74.4852 29.6296C74.2383 29.4654 73.9913 29.3006 73.7444 29.2185C73.4265 29.1099 73.0928 29.0542 72.7568 29.0537C72.5099 29.0537 72.263 29.0537 72.016 29.1358V29.1358ZM78.6827 29.2185C78.4358 29.3006 78.1889 29.3827 78.0247 29.4654C77.7778 29.5475 77.5309 29.6296 77.366 29.7944L76.8722 30.2883C76.7901 30.4531 76.6253 30.6173 76.5432 30.7821C76.3784 30.9469 76.2963 31.1938 76.2136 31.358C76.1315 31.6049 76.0494 31.7697 75.8846 32.0987C75.8025 32.4284 75.7197 32.6753 75.5555 33.0864C75.5555 33.2512 75.4728 33.4981 75.3907 33.6629C75.3086 33.8271 75.3086 33.992 75.2259 34.1568C75.1438 34.321 75.1438 34.4858 75.0617 34.6506C75.0617 34.8148 74.979 34.9796 74.979 35.0617C74.8969 35.4734 74.8969 35.8852 75.0617 36.0494C75.1438 36.379 75.3086 36.6259 75.4728 36.8728C75.6376 37.1197 75.8846 37.2839 76.2136 37.3666C76.5432 37.4487 76.9543 37.5308 77.366 37.5308C77.613 37.5308 77.8599 37.5308 78.1068 37.4487C78.3537 37.3666 78.5185 37.2839 78.7654 37.2018C78.9296 37.1197 79.1765 37.037 79.3413 36.8728C79.5062 36.7901 79.6704 36.5432 79.8352 36.379C79.9173 36.2142 80.0821 36.0494 80.1642 35.8852C80.2469 35.7204 80.4111 35.5555 80.4938 35.3086C80.5759 35.0617 80.7407 34.8148 80.8228 34.5679C80.9049 34.2389 81.0697 33.992 81.1518 33.6629C81.1518 33.4981 81.2346 33.2512 81.3167 33.0864C81.3988 32.9222 81.3988 32.7574 81.4815 32.5926C81.4815 32.4284 81.5636 32.2636 81.5636 32.0987C81.5636 31.9345 81.6457 31.8518 81.6457 31.6876C81.7284 31.2759 81.7284 30.9469 81.6457 30.6173C81.5636 30.2883 81.3988 30.0413 81.2346 29.7944C81.0697 29.5475 80.8228 29.3827 80.4938 29.3006C80.1472 29.1928 79.7864 29.1372 79.4234 29.1358C79.1765 29.1358 78.9296 29.1358 78.6827 29.2185V29.2185ZM77.1191 35.9673L76.9543 35.8024C76.9543 35.7204 76.8722 35.6383 76.8722 35.5555C76.7901 35.4734 76.7901 35.3086 76.8722 35.1444C76.8722 35.0617 76.8722 34.8975 76.9543 34.6506C77.037 34.4037 77.1191 34.2389 77.2012 33.9099C77.2839 33.6629 77.366 33.3333 77.5309 33.0043C77.695 32.7574 77.7778 32.3457 77.942 32.0166C78.1068 31.7697 78.1889 31.5228 78.2716 31.358C78.3537 31.1111 78.4358 31.029 78.5185 30.9469C78.6006 30.8642 78.7654 30.8642 78.8475 30.7821C78.9296 30.7 79.0123 30.7 79.1765 30.7H79.5883L79.7531 30.8642C79.7531 30.9469 79.8352 31.029 79.8352 31.1111V31.5228C79.7531 31.6876 79.7531 31.8518 79.6704 32.0987C79.5883 32.2636 79.5062 32.5105 79.4234 32.8395C79.3413 33.0864 79.2592 33.416 79.0944 33.745C78.9296 34.0741 78.8475 34.4037 78.6827 34.7327C78.5185 34.9796 78.4358 35.2265 78.3537 35.3913C78.2716 35.5555 78.1889 35.7204 78.1068 35.8024C78.0247 35.8852 77.8599 35.8852 77.7778 35.9673C77.695 36.0494 77.613 36.0494 77.4481 36.0494C77.366 36.0494 77.2012 36.0494 77.1191 35.9673V35.9673ZM89.9586 29.3006C89.7938 29.3006 89.6296 29.3827 89.4648 29.4654C89.3 29.5475 89.1358 29.6296 88.971 29.7944C88.8062 29.8765 88.642 29.9592 88.4771 30.1234C88.4771 29.9592 88.4771 29.8765 88.395 29.7944C88.3334 29.6707 88.2497 29.5592 88.1481 29.4654C87.9833 29.3827 87.9012 29.3827 87.7364 29.3006C87.5716 29.2185 87.4074 29.2185 87.1605 29.2185C86.9957 29.2185 86.8308 29.2185 86.6666 29.3006C86.5018 29.3006 86.337 29.3827 86.1728 29.4654C86.008 29.5475 85.8432 29.6296 85.679 29.7944C85.5963 29.7944 85.5142 29.8765 85.4321 29.9592L85.5963 29.5475L85.679 29.4654H83.8679V29.5475L80.9876 37.2839L80.9049 37.3666H82.6401L82.5512 37.6136L82.7981 37.3666H82.6401L84.4444 32.3457C84.5265 32.0987 84.6086 31.8518 84.6913 31.6876C84.7734 31.5228 84.8555 31.358 84.9383 31.2759C85.0204 31.1938 85.1852 31.1111 85.2673 31.029C85.4321 30.9469 85.5142 30.9469 85.679 30.9469H85.9259C86.008 30.9469 86.008 30.9469 86.0901 31.029C86.0901 31.1111 86.1728 31.1111 86.1728 31.1938V31.6049C86.1728 31.6876 86.0901 31.6876 86.0901 31.7697C86.0901 31.8518 86.0901 31.9345 86.008 32.0166L84.0327 37.4487L83.9506 37.5308H85.9259V37.4487L87.9012 32.1815C87.9833 31.9345 88.0654 31.6876 88.1481 31.5228C88.3123 31.358 88.395 31.1938 88.4771 31.1111C88.5592 31.029 88.7241 30.9469 88.8062 30.8642C88.971 30.7821 89.0531 30.7821 89.2179 30.7821H89.4648C89.5469 30.7821 89.6296 30.7821 89.6296 30.8642C89.7117 30.9469 89.7117 30.9469 89.7117 31.029V31.4407C89.7117 31.5228 89.6296 31.5228 89.6296 31.6049C89.6296 31.6876 89.5469 31.7697 89.5469 31.8518L87.5716 37.2839L87.4895 37.3666H89.4648V37.2839L91.5222 31.7697C91.5222 31.6049 91.5222 31.5228 91.6049 31.4407C91.6049 31.358 91.687 31.2759 91.687 31.1938C91.687 31.1111 91.7691 31.029 91.7691 30.9469C91.8518 30.9469 91.8518 30.8642 91.8518 30.7821V30.1234L91.6049 29.6296C91.4401 29.4654 91.2753 29.3827 91.1111 29.3006C90.9463 29.3006 90.6994 29.2185 90.4525 29.2185C90.2876 29.2185 90.1234 29.2185 89.9586 29.3006V29.3006ZM64.5265 35.1444V35.2265L63.7858 37.2839L63.7037 37.3666H65.9259L66.008 37.2839L66.7488 35.2265L66.8309 35.1444H64.5265V35.1444Z" fill="black"/>
<path class="inherit-fill" d="M26.1729 0.0827026L20.329 14.9796L19.5883 16.9549C18.3537 20.1648 15.1438 18.9302 15.8025 17.4488C15.9673 16.4611 16.4611 15.5555 16.7901 14.5679H12.5105C12.2636 15.3086 12.0167 15.9673 11.8519 16.4611C10.7821 19.671 11.5228 21.7284 15.3908 22.1401C18.4364 22.4691 22.634 21.2346 23.9506 17.4488C24.5266 15.8852 25.0204 14.321 25.5969 12.7574C27.2426 8.55986 28.8889 4.36233 30.5352 0.0827026H26.1729V0.0827026Z" fill="black"/>
<path class="inherit-fill" d="M7.57222 21.4815C2.55123 24.4037 0.164815 28.313 0 32.1716V33.0315C0.151235 36.5889 2.18086 40.0377 5.76111 42.5519C6.66667 43.1278 7.24259 43.7037 8.31296 44.1975C19.671 49.9593 40.4938 53.0043 67.4074 49.0537L69.7117 52.5105L90.5346 39.2593H61.3167L64.0327 43.5395C44.6086 46.6667 26.5846 46.0908 15.8846 42.1401C5.10309 38.2716 1.48148 31.1111 10.4525 24.8562C10.6994 24.6914 11.6049 24.1154 12.5926 23.4568C11.2759 23.0457 10.4525 22.305 9.87654 21.3173C9.69055 21.0401 9.55145 20.7341 9.46481 20.4117C8.55988 20.9056 7.73642 21.3994 7.57222 21.4815Z" fill="black"/>
<path class="inherit-fill" d="M33.3333 0.164185L24.8561 22.0574H29.1358L37.6129 0.164185H33.3333ZM40.4117 0.246901L31.9339 22.0568H36.2963L40.0821 12.4271H46.5018L47.8185 9.05246H41.3173L43.3747 3.70369H50.0413L51.358 0.246901H40.4117ZM76.708 0.246901L69.9586 9.3006L70.0413 0.329617H65.7617V14.2383L63.045 22.0574H67.2426L69.7117 14.4858L81.3994 0.246901H76.708ZM53.3333 0.246901L44.8562 22.0568H49.2179L53.0043 12.4271H59.5062L60.7407 9.05246H54.2389L56.2963 3.70369H63.045L64.3623 0.246901H53.3333V0.246901ZM30.2882 23.4568L30.2055 23.5395L28.2302 28.8889H25.0203L26.9957 23.6216V23.4568H24.3623L24.2796 23.5395L19.1771 37.2018L19.0944 37.2833H21.8105L24.1975 31.029H27.4074L25.1031 37.2018L25.0203 37.2833H27.7364L32.9216 23.6216V23.4568H30.2882V23.4568ZM34.8969 23.4568V23.5395L29.7117 37.2018V37.2833H32.4278L37.6129 23.6216L37.6957 23.4568H34.8969V23.4568ZM48.7247 23.4568V23.5395L47.9012 25.679V25.7617H50.8642L46.5024 37.2018V37.2833H49.2173L53.4981 25.7617H56.2963L57.1197 23.6216L57.2018 23.4568H48.7247Z" fill="black"/>
<path class="inherit-fill" d="M82.3864 9.05307L82.3043 9.13579L77.7778 8.56048L74.8969 12.016L79.9173 12.3463L77.4494 15.4728L99.5883 15.2271L84.1161 6.41974L82.3864 9.05307Z" fill="black"/>
</svg>
