<svg width="230" height="46" viewBox="0 0 230 46" xmlns="http://www.w3.org/2000/svg"><g fill-rule="nonzero" fill="none"><path fill="#21A002" d="M27.938 10.232l-4.276 4.303 2.517 2.531 1.76-1.771 2.567 2.584-1.76 1.771-.808.813-2.517 2.532-.808.813-.95.957 2.516 2.534.952-.958.807-.813 2.517-2.533.808-.813 4.277-4.303z"/><path fill="#106601" d="M30.506 28.11l-2.568 2.585-1.76-1.771-.808-.813-2.516-2.533-2.516 2.533 2.516 2.532.808.813 4.276 4.303 7.602-7.647-4.277-4.304-2.516 2.533z"/><path fill="#0F7F00" d="M19.53 17.066l.808.813 2.516 2.532.808.813.951.958 2.518-2.532-.952-.957-.809-.814-2.516-2.532-.807-.812-.953-.958-2.516 2.532z"/><path fill="#2AC100" d="M18.578 29.882l-.808.813-2.518 2.532-.807.813-4.277 4.302 7.602 7.648 7.601-7.648-4.278-4.302-2.515 2.531 1.76 1.771-2.568 2.584-2.568-2.584 1.76-1.77.808-.813 2.516-2.532.808-.813.953-.957-2.518-2.533z"/><path fill="#38E200" d="M15.252 22.995l2.518-2.532 2.517 2.532-2.518 2.533z"/><path fill="#0E6000" d="M17.77 0l-7.602 7.647 4.277 4.304 2.516-2.533-1.76-1.77 2.569-2.583 2.568 2.584-1.76 1.77-.808.813-2.518 2.532-.807.813-.95.958 2.515 2.531.951-.957.809-.813 2.516-2.532.808-.813 4.275-4.304L17.769 0"/><path fill="#38E200" d="M16.01 28.924l-.808-.813-2.516-2.533-.809-.813-.95-.957-2.517 2.533.951.958.807.812 2.518 2.532.808.814.951.957 2.516-2.532z"/><path fill="#6AE83A" d="M5.034 17.88L7.6 15.295l1.76 1.771.807.812 2.518 2.532 2.516-2.532-2.516-2.532-.809-.812-4.276-4.303L0 17.879l4.277 4.303 2.516-2.532z"/><path fill="#168200" d="M7.601 30.695L5.034 28.11l1.76-1.771.808-.812 2.516-2.533.808-.813.951-.958-2.516-2.53-.952.956-.808.813-2.517 2.532-.807.813L0 28.111l7.601 7.647 4.276-4.302-2.516-2.532z"/><path d="M44.94 11.974v9.108h2.051l8.507-9.108h3.023l-9.48 10.057 10.633 10.805h-3.206l-9.477-9.767h-2.05v9.767H42.6V11.975l2.34-.001zm17.597 10.348h-2.11c0-1.703.382-2.847 1.146-3.432.765-.587 2.261-.879 4.489-.879 2.42 0 4.055.36 4.906 1.078.85.717 1.276 2.086 1.276 4.103v9.644h-2.127l.168-1.576-.046-.013c-.81 1.201-2.457 1.802-4.937 1.802-3.667 0-5.5-1.483-5.499-4.447 0-1.763.41-2.98 1.231-3.653.819-.673 2.302-1.008 4.45-1.008 2.551 0 4.08.503 4.587 1.512l.046-.015v-1.771c0-1.671-.23-2.754-.685-3.249-.455-.494-1.452-.741-2.99-.741-2.614 0-3.919.739-3.919 2.216 0 .072.005.215.015.428h-.001zm3.418 3.284c-1.63 0-2.691.174-3.181.52-.491.346-.736 1.09-.736 2.23 0 1.183.241 1.965.728 2.347.486.381 1.473.574 2.962.574 2.997 0 4.497-.918 4.496-2.751 0-1.151-.291-1.927-.874-2.323-.582-.4-1.714-.598-3.395-.597zm9.502-7.38h2.127l-.213 1.68.046.045c.84-1.375 2.227-2.063 4.162-2.063 2.672 0 4.01 1.386 4.01 4.157l-.016 1.009h-2.094l.046-.367c.03-.386.044-.646.044-.778 0-1.499-.81-2.247-2.43-2.247-2.369 0-3.553 1.472-3.553 4.416v8.758h-2.128v-14.61zm11.248 0h2.127l-.046 2.2.046.045c.82-1.64 2.4-2.46 4.738-2.46 2.46 0 3.955.82 4.481 2.46h.061c.911-1.64 2.576-2.46 4.996-2.46 3.422 0 5.133 1.758 5.133 5.272v9.553h-2.124v-9.752c0-1.283-.227-2.154-.684-2.613-.455-.458-1.315-.688-2.582-.688-1.68 0-2.82.319-3.416.955-.598.637-.896 1.853-.896 3.645v8.453H96.41v-9.553l-.028-.672c0-1.886-1.07-2.828-3.205-2.828-2.897 0-4.345 1.585-4.345 4.753v8.3h-2.126l-.002-14.61zm26.969 4.096h-2.113c0-1.703.382-2.847 1.147-3.432.765-.587 2.261-.879 4.489-.879 2.418 0 4.054.36 4.905 1.078.851.717 1.277 2.086 1.277 4.103v9.644h-2.128l.167-1.576-.046-.013c-.81 1.201-2.454 1.802-4.934 1.802-3.666 0-5.499-1.483-5.499-4.447 0-1.763.41-2.98 1.23-3.653.82-.673 2.304-1.008 4.451-1.008 2.551 0 4.08.503 4.587 1.512l.046-.015v-1.771c0-1.671-.228-2.754-.685-3.249-.455-.494-1.452-.741-2.992-.741-2.613 0-3.92.739-3.92 2.217 0 .071.007.214.017.428h.001zm3.416 3.284c-1.63 0-2.69.174-3.181.52-.49.346-.736 1.09-.736 2.23 0 1.183.242 1.965.729 2.347.486.381 1.473.574 2.961.574 2.998 0 4.496-.918 4.496-2.751 0-1.151-.29-1.927-.873-2.323-.582-.4-1.714-.598-3.395-.597h-.001zm29.834.26h2.323v.794c0 2.843-.48 4.619-1.442 5.327-.963.707-3.382 1.062-7.261 1.062-3.473 0-5.681-.625-6.622-1.874-.94-1.249-1.412-4.184-1.412-8.809 0-3.616.107-5.891.32-6.824.212-.931.82-1.765 1.822-2.499 1.175-.855 3.711-1.283 7.61-1.283 2.643 0 4.422.413 5.338 1.238.917.825 1.374 2.42 1.374 4.784l.017.565h-2.325l-.016-.642c0-1.68-.271-2.76-.813-3.24-.541-.479-1.764-.718-3.668-.717-3.341 0-5.382.28-6.12.84-.74.561-1.11 2.115-1.11 4.66 0 5.86.25 9.293.745 10.301.497 1.009 2.192 1.514 5.088 1.514 2.755 0 4.473-.219 5.156-.658.684-.437 1.026-1.538 1.026-3.3l-.03-1.24zm4.14-7.64h2.126l-.212 1.68.046.045c.84-1.375 2.227-2.063 4.161-2.063 2.673 0 4.01 1.386 4.01 4.157l-.016 1.009h-2.095l.046-.367c.03-.386.045-.646.045-.778 0-1.499-.81-2.247-2.43-2.247-2.369 0-3.554 1.472-3.554 4.416v8.758h-2.127v-14.61zm21.349 10.193h2.17l.016.535c0 1.518-.458 2.579-1.374 3.185-.917.607-2.524.91-4.822.91-2.674 0-4.428-.491-5.264-1.475-.835-.983-1.254-3.048-1.254-6.197 0-2.914.421-4.87 1.262-5.868.84-.999 2.486-1.498 4.936-1.498 2.674 0 4.425.433 5.255 1.3.83.865 1.246 2.689 1.246 5.47v1.146h-10.45c0 2.303.247 3.77.738 4.402.491.631 1.638.948 3.44.949 1.712 0 2.823-.15 3.335-.451.511-.3.767-.95.767-1.95l-.001-.46v.002zm0-4.157l-.017-.688c0-1.58-.257-2.606-.773-3.08-.518-.474-1.631-.71-3.342-.712-1.722 0-2.839.279-3.35.834-.51.556-.766 1.771-.766 3.646h8.248zm6.812-1.94h-2.111c0-1.703.383-2.847 1.146-3.432.765-.587 2.261-.879 4.489-.879 2.42 0 4.055.36 4.906 1.078.85.717 1.276 2.086 1.276 4.103v9.644h-2.125l.167-1.576-.046-.013c-.81 1.201-2.456 1.803-4.936 1.803-3.666 0-5.5-1.484-5.498-4.447 0-1.763.41-2.981 1.23-3.654.82-.671 2.303-1.008 4.45-1.008 2.552 0 4.081.505 4.587 1.513l.046-.015v-1.773c0-1.671-.229-2.753-.684-3.249-.456-.494-1.453-.742-2.993-.742-2.612 0-3.919.74-3.919 2.216 0 .073.005.215.015.43zm3.417 3.284c-1.63 0-2.691.174-3.181.52-.49.346-.736 1.09-.736 2.23 0 1.183.241 1.965.728 2.347.486.381 1.473.574 2.962.574 2.997 0 4.497-.918 4.497-2.751 0-1.151-.292-1.927-.874-2.323-.582-.4-1.714-.598-3.395-.597h-.001zm16.99-7.38v1.771h-5.59v8.942c0 1.558.69 2.338 2.066 2.338 1.368 0 2.05-.699 2.05-2.093l.016-.72.03-.81h1.974l.016 1.086c0 2.872-1.357 4.309-4.07 4.309-2.806 0-4.207-1.196-4.207-3.592v-9.46h-2.006v-1.772h2.006v-3.517h2.126v3.516h5.589v.001zm3.624-6.252v2.401h-2.127v-2.4h2.128l-.001-.001zm0 6.251v14.61h-2.127v-14.61h2.128-.001zm13.542 0l-4.861 14.61h-3.053l-4.815-14.61h2.187l2.567 7.947.805 2.49.38 1.254.395 1.254h.06l.365-1.239.365-1.253.774-2.476 2.46-7.978 2.371.001zm10.928 10.194h2.173l.015.535c0 1.518-.46 2.579-1.374 3.185-.917.607-2.525.91-4.824.91-2.673 0-4.427-.491-5.262-1.475-.836-.983-1.254-3.048-1.254-6.197 0-2.914.42-4.87 1.26-5.868.84-.999 2.487-1.498 4.938-1.498 2.672 0 4.424.433 5.255 1.3.83.865 1.246 2.689 1.246 5.47v1.146h-10.45c0 2.303.245 3.77.736 4.402.49.631 1.638.948 3.44.949 1.712 0 2.823-.15 3.336-.451.51-.3.767-.95.765-1.95v-.46.002zm0-4.157l-.014-.688c0-1.58-.26-2.606-.776-3.08-.516-.474-1.63-.71-3.34-.712-1.723 0-2.839.279-3.35.834-.51.556-.766 1.771-.767 3.646h8.247z" fill="#000"/></g></svg>