<?xml version="1.0" encoding="utf-8"?>
<!-- Generator: Adobe Illustrator 18.0.0, SVG Export Plug-In . SVG Version: 6.00 Build 0)  -->
<!DOCTYPE svg PUBLIC "-//W3C//DTD SVG 1.1//EN" "http://www.w3.org/Graphics/SVG/1.1/DTD/svg11.dtd">
<svg version="1.1" id="Слой_1" xmlns="http://www.w3.org/2000/svg" xmlns:xlink="http://www.w3.org/1999/xlink" x="0px" y="0px" width="120" height="39"
	 viewBox="0 0 120 39" enable-background="new 0 0 120 39" xml:space="preserve">
<path d="M44.7,34.2h0.8V39h-0.8l-2.3-3.5h0V39h-0.8v-4.8h0.8l2.3,3.5h0C44.7,37.8,44.7,34.2,44.7,34.2z M46.5,34.2h2.9v0.6h-2.2v1.4
	h2v0.6h-2v1.5h2.2V39h-2.9L46.5,34.2L46.5,34.2z M56.4,34.2h0.7L56.2,39h-0.8l-1.2-3.6h0L53,39h-0.8l-0.9-4.8H52l0.7,3.6h0l1.2-3.6
	h0.5l1.2,3.6h0C55.7,37.9,56.4,34.2,56.4,34.2z M63.1,34.2h0.8L62.3,37v2h-0.7v-2L60,34.2h0.7l1.2,2.1h0L63.1,34.2z M65.8,39
	c-0.2,0-0.5,0-0.7-0.1c-0.2-0.1-0.4-0.2-0.6-0.4c-0.2-0.2-0.4-0.5-0.4-0.8c-0.1-0.4-0.2-0.7-0.2-1.1c0-0.6,0.2-1.2,0.6-1.7
	c0.3-0.4,0.8-0.6,1.4-0.6c0.5,0,1,0.2,1.4,0.6c0.4,0.5,0.6,1.1,0.6,1.7c0,0.4,0,0.8-0.2,1.1c-0.1,0.3-0.2,0.5-0.4,0.7
	c-0.2,0.2-0.4,0.3-0.6,0.4C66.3,39,66.1,39,65.8,39z M65.8,38.4c0.4,0,0.7-0.2,0.9-0.4c0.3-0.4,0.4-0.9,0.3-1.3
	c0-0.5-0.1-0.9-0.4-1.3c-0.2-0.3-0.5-0.5-0.9-0.5c-0.4,0-0.7,0.2-0.9,0.4c-0.3,0.4-0.4,0.8-0.4,1.3c0,0.5,0.1,1,0.4,1.4
	C65.1,38.2,65.5,38.4,65.8,38.4L65.8,38.4L65.8,38.4z M69.7,39v-4.8h2.1c0.5,0,0.9,0.1,1.3,0.4c0.3,0.3,0.5,0.6,0.5,1
	c0,0.3-0.1,0.7-0.3,0.9C73,36.8,72.6,37,72.3,37l1.1,1.9h-0.8l-1.1-1.9h-1.1V39L69.7,39L69.7,39z M70.4,36.5h1.3
	c0.3,0,0.6-0.1,0.8-0.2c0.2-0.1,0.3-0.4,0.3-0.6c0-0.3-0.1-0.5-0.3-0.7c-0.2-0.2-0.5-0.2-0.8-0.2h-1.2L70.4,36.5L70.4,36.5
	L70.4,36.5z M77.3,34.2h0.9l-1.9,2.1l2.1,2.7h-0.9l-1.7-2.2h0l-0.5,0.6V39h-0.7v-4.8h0.7v2.2h0L77.3,34.2L77.3,34.2z M119.9,23.6
	l0-0.1c0.1,0.1,0.1,0.2,0.1,0.3c0,0.1-0.1,0.2-0.2,0.3c-0.3,0.2-0.6,0.2-0.9,0.1c-1.5-0.2-3.1-0.3-4.6-0.3c-2.5,0-4.9,0.3-7.4,0.4
	c-0.2,0-0.5,0-0.7,0.1c-1.3,0.3-2.7,0.4-4,0.4c-1.8,0.1-3.7,0.3-5.5,0.5c-1.7,0.2-3.4,0.3-5.2,0.2c-2.1-0.2-4.2-0.3-6.3-0.1
	c-0.6,0.1-1.2,0-1.8-0.1c-0.5-0.1-1.1-0.2-1.6-0.3c-1.4-0.3-2.9-0.4-4.4-0.2c-0.7,0.1-1.5,0.1-2.2,0.1h-7c-0.4,0-0.7-0.1-1.1-0.1
	c-2.3-0.1-4.7-0.3-7-0.4c-2.3-0.1-4.5-0.2-6.8-0.4c-1.5-0.2-3-0.2-4.4,0c-0.5,0.1-1.1,0.1-1.7,0c-1-0.1-2-0.1-2.9,0
	c-0.8,0.1-1.6,0.1-2.4,0C41,24.1,40.1,24,39.3,24h-4.8c-2,0-3.9,0.4-5.9,0.4c-0.2,0-0.4,0-0.6,0.1c-1.1,0.2-2.2,0.4-3.3,0.3
	c-0.6,0-1.1,0-1.7,0.1C22,25,21,25.1,20,25h-5.3c-2,0.1-3.9,0.1-5.9,0.1c-0.6,0-1.1,0-1.7,0.1c-1.6,0.2-3.2,0.3-4.8,0.3
	c-0.4,0-0.9,0-1.3-0.1c-0.3-0.1-0.6-0.2-0.9-0.3C0,25,0,24.9,0,24.8c0-0.1,0.1-0.2,0.2-0.3c0.2-0.1,0.5-0.1,0.7,0
	c1.1,0.3,2.2,0.3,3.3,0.1c1.4-0.2,2.8-0.4,4.2-0.4c2.6-0.1,5.3-0.1,7.9-0.1c1.4-0.1,2.7,0,4.1,0.1c0.2,0,0.5,0,0.7-0.1l1.1-0.1
	c1.9-0.2,3.8-0.3,5.7-0.5c1.2-0.1,2.3-0.2,3.5-0.5c0.6-0.1,1.2-0.2,1.8-0.2h1.7c0.9,0,1.7,0,2.6,0.1c0.9,0.1,1.7,0.2,2.6,0.2h9.8
	c1.2-0.1,2.3,0,3.5,0.2c1.7,0.3,3.4,0.4,5.1,0.4c1.1,0,2.2,0.1,3.3,0.1c1.4,0.1,2.7,0.2,4.1,0.2c2.1,0.1,4.3,0,6.4,0.3
	c0.3,0,0.6,0,0.9,0l4.1-0.3c1.8-0.1,3.7,0,5.5,0.4c0.7,0.2,1.5,0.2,2.2,0.2c2.5,0.1,4.9,0.2,7.4,0.2c1.1,0.1,2.2,0,3.3-0.1
	c1.3-0.2,2.6-0.4,3.8-0.5c0.8-0.1,1.6-0.1,2.4-0.2c1-0.1,2.1-0.1,3.1-0.2c1.5-0.2,2.9-0.4,4.4-0.6c0.4,0,0.7-0.1,1.1-0.1h4.8
	c1.3,0,2.6,0.1,3.9,0.2C119.4,23.4,119.7,23.5,119.9,23.6L119.9,23.6z M24.1,8.3l-0.3,3.1H13.6v-0.2c0.5,0,0.9-0.1,1.4-0.2
	c0.2-0.1,0.3-0.2,0.4-0.3c0.1-0.1,0.1-0.3,0.1-0.5V1.4c0-0.2,0-0.4-0.2-0.5c-0.2-0.2-0.4-0.3-0.7-0.4c-0.3-0.1-0.7-0.2-1-0.2V0h5.4
	v0.2c-0.5,0-0.9,0.1-1.4,0.2c-0.4,0.1-0.7,0.5-0.6,0.8v8.3c0,0.4,0,0.7,0.1,1.1c0.1,0.2,0.3,0.3,0.5,0.4c0.5,0.1,1.1,0.1,1.6,0.1
	c0.7,0,1.3,0,2-0.1c0.4,0,0.8-0.1,1.1-0.3c0.4-0.4,0.7-0.8,1-1.3c0.3-0.4,0.5-0.7,0.6-1.1L24.1,8.3L24.1,8.3L24.1,8.3z M37.7,12.3
	h-5v-0.2c0.4,0,0.8-0.1,1.2-0.2c0.3,0,0.5-0.2,0.6-0.5c0-0.1,0-0.3-0.1-0.4l-1.2-3.1h-4.4c-0.2,0.5-0.4,1-0.6,1.5
	c-0.1,0.3-0.2,0.6-0.3,1c-0.1,0.2-0.1,0.5-0.1,0.7c0.1,0.3,0.3,0.6,0.6,0.7c0.5,0.2,0.9,0.3,1.4,0.3v0.2h-4.8v-0.2
	c0.5,0,1.1-0.2,1.5-0.5c0.4-0.3,0.6-0.7,0.8-1.2C28.8,7,30.2,3.5,31.5,0h0.3l0.9,2.3l3.3,8.7c0.1,0.3,0.3,0.5,0.5,0.7
	c0.2,0.1,0.4,0.3,0.6,0.3c0.2,0.1,0.5,0.1,0.7,0.1L37.7,12.3L37.7,12.3z M33.1,7.5l-2-5.3l-2,5.4L33.1,7.5L33.1,7.5L33.1,7.5z
	 M56.1,8.3l-0.3,3.1H45.5v-0.2c0.5,0,0.9-0.1,1.4-0.2c0.2-0.1,0.3-0.2,0.4-0.3c0.1-0.1,0.1-0.3,0.1-0.5V1.4c0-0.2,0-0.4-0.2-0.5
	c-0.2-0.2-0.4-0.3-0.7-0.4c-0.3-0.1-0.7-0.2-1-0.2V0h5.4v0.2c-0.5,0-0.9,0.1-1.3,0.2c-0.4,0.1-0.7,0.5-0.6,0.8v8.3
	c0,0.4,0,0.7,0.1,1.1c0.1,0.2,0.3,0.3,0.5,0.4c0.5,0.1,1.1,0.1,1.6,0.1c0.7,0,1.3,0,2-0.1c0.4,0,0.8-0.1,1.1-0.3
	c0.4-0.4,0.7-0.8,1-1.3c0.3-0.4,0.5-0.7,0.6-1.1L56.1,8.3L56.1,8.3L56.1,8.3z M63.9,11.4h-5.8v-0.2c0.5,0,1-0.1,1.5-0.1
	c0.4-0.1,0.7-0.4,0.6-0.8v-9c0-0.2-0.1-0.4-0.2-0.6c-0.3-0.2-0.6-0.3-0.9-0.3c-0.3-0.1-0.7-0.1-1-0.2V0h5.8v0.2
	c-0.6,0-1.1,0.1-1.7,0.3c-0.3,0.2-0.5,0.4-0.4,0.7v8.9c0,0.1,0,0.3,0.1,0.4c0.1,0.1,0.2,0.2,0.3,0.3c0.2,0.1,0.5,0.2,0.8,0.2
	c0.3,0,0.6,0.1,0.9,0.1L63.9,11.4L63.9,11.4L63.9,11.4z M77.4,7c-0.5,0-1,0.1-1.4,0.3c-0.2,0.1-0.3,0.2-0.4,0.4
	c-0.1,0.2-0.1,0.3-0.1,0.5v4.1l-0.2,0.1l-0.9-1.1c-1.4,0.5-2.8,0.8-4.3,0.9c-0.9,0-1.8-0.3-2.6-0.8c-0.8-0.5-1.5-1.2-2-2.1
	c-1-1.9-0.9-4.2,0.2-6c0.6-1,1.4-1.8,2.3-2.4C68.9,0.3,70,0,71,0c1.3,0,2.5,0.3,3.6,1l0.6-1h0.3l0.1,4.1h-0.3
	c-0.2-0.7-0.6-1.3-1-1.9c-0.4-0.6-1-1-1.6-1.3c-0.6-0.3-1.3-0.5-2.1-0.5c-0.8,0-1.5,0.3-2.1,0.8c-0.7,0.6-1.2,1.3-1.5,2.1
	c-0.4,1-0.6,2-0.5,3.1c0,1,0.2,1.9,0.6,2.8c0.3,0.8,0.9,1.5,1.6,2c0.6,0.5,1.4,0.7,2.1,0.7c0.6,0,1.2-0.1,1.7-0.3
	c0.5-0.2,0.9-0.5,1.2-0.9c0.3-0.4,0.4-0.8,0.4-1.2v-1c0-0.3,0-0.5-0.2-0.8c-0.2-0.2-0.4-0.4-0.7-0.4c-0.6-0.1-1.1-0.2-1.7-0.2V6.7
	h5.8L77.4,7L77.4,7L77.4,7z M92.9,0.2c-0.3,0-0.5,0.1-0.8,0.2c-0.3,0.1-0.5,0.2-0.8,0.3c-0.4,0.2-0.6,1-0.6,2.4v9.3h-0.4L82.3,2v7
	c-0.1,0.9,0.1,1.8,0.6,2.5c0.3,0.2,0.5,0.3,0.8,0.3c0.3,0.1,0.7,0.2,1,0.2v0.2h-5.1V12c0.3,0,0.6-0.1,0.9-0.2
	c0.2-0.1,0.5-0.1,0.7-0.3c0.4-0.2,0.6-1.1,0.6-2.5V2.4c0-0.3,0-0.6-0.2-0.9c-0.1-0.2-0.3-0.4-0.5-0.6c-0.3-0.2-0.6-0.3-0.9-0.4
	c-0.3-0.1-0.7-0.2-1-0.3V0h3.1l7.8,10.2v-7c0-0.4,0-0.8-0.1-1.2c0-0.3-0.1-0.6-0.2-0.8c-0.1-0.2-0.3-0.4-0.5-0.4
	c-0.3-0.1-0.6-0.2-0.9-0.3c-0.3-0.1-0.5-0.1-0.8-0.1V0h5v0.2L92.9,0.2L92.9,0.2z M105.5,8.3l-0.2,3.1H94.8v-0.2c0.5,0,1-0.1,1.5-0.2
	c0.2-0.1,0.3-0.2,0.4-0.3c0.1-0.1,0.1-0.3,0.1-0.5V1.3c0-0.2-0.1-0.4-0.2-0.6c-0.2-0.2-0.5-0.3-0.8-0.3c-0.3-0.1-0.7-0.1-1.1-0.2V0
	h9.6v2.5h-0.3c-0.1-0.5-0.4-1-0.7-1.4c-0.2-0.4-0.6-0.6-1.1-0.8c-0.5-0.1-1-0.1-1.5-0.1h-2.5v5h1.8c0.3,0,0.5,0,0.8-0.1
	c0.2-0.1,0.4-0.2,0.6-0.3c0.1-0.1,0.3-0.3,0.3-0.4c0.1-0.1,0.1-0.3,0.1-0.4c0-0.2,0.1-0.3,0.1-0.5c0-0.2,0-0.3,0.1-0.4h0.3v4.6h-0.3
	c0-0.2-0.1-0.4-0.1-0.6c-0.1-0.2-0.1-0.4-0.2-0.6c-0.1-0.2-0.2-0.3-0.3-0.5c-0.1-0.1-0.2-0.2-0.4-0.3c-0.1-0.1-0.3-0.1-0.5-0.1
	c-0.2,0-0.4,0-0.6,0h-1.8v3.8c0,0.3,0,0.7,0.1,1c0.1,0.2,0.3,0.4,0.5,0.4c0.5,0.1,1,0.1,1.5,0.1h1c0.8,0.1,1.6,0,2.3-0.4
	c0.3-0.3,0.6-0.7,0.8-1.1c0.3-0.4,0.5-0.9,0.7-1.3L105.5,8.3L105.5,8.3L105.5,8.3z"/>
</svg>
