<svg width="126" height="68" viewBox="0 0 126 68" fill="none" xmlns="http://www.w3.org/2000/svg">
<g class="inherit-fill" fill="black">
<path d="M62.5007 13.6705L56.0105 0.381104L48.8784 15.5011V32.8558H76.1943V15.5011L68.9433 0.381104L62.5007 13.6705ZM56.0105 2.75846L62.1916 15.4536H49.9245L56.0105 2.75846ZM61.9777 31.786H60.575V23.917H61.9777V31.786ZM64.355 31.786H62.9286V23.917H64.355V31.786ZM60.575 22.8947C60.5871 22.6552 60.6468 22.4205 60.7505 22.2043C60.8542 21.988 60.9999 21.7946 61.1792 21.6353C61.3584 21.476 61.5676 21.3539 61.7944 21.2763C62.0213 21.1986 62.2614 21.1669 62.5007 21.183C62.9779 21.1746 63.4408 21.346 63.7975 21.6631C64.1542 21.9802 64.3787 22.4198 64.4264 22.8947H60.575ZM75.0769 31.8336H65.5675V22.8947C65.5427 22.1316 65.2204 21.4085 64.6696 20.8799C64.1187 20.3513 63.383 20.059 62.6196 20.0656C62.239 20.0529 61.8597 20.1165 61.5041 20.2527C61.1485 20.3889 60.8238 20.5949 60.549 20.8586C60.2743 21.1222 60.0551 21.4382 59.9044 21.7879C59.7538 22.1376 59.6746 22.5139 59.6716 22.8947V31.8336H49.9245V16.5234H75.0769V31.8336ZM62.9048 15.5011L68.9433 2.75846L75.0294 15.4536L62.9048 15.5011Z" />
<path d="M57.6272 18.7344H51.6362V26.8649H57.6272V18.7344ZM54.18 25.8665H52.7536V19.7566H54.18V25.8665ZM56.5574 25.8665H55.1309V19.7566H56.5574V25.8665ZM73.3415 18.7344H67.3743V26.8649H73.3415V18.7344ZM69.7992 25.8665H68.3728V19.7566H69.7992V25.8665ZM72.343 25.8665H70.9166V19.7566H72.343V25.8665ZM4.87358 65.2117L1.21245 58.8166H0V66.9472H1.33132V61.5506L4.37434 66.9472H5.3966L8.43962 61.5506V66.9472H9.74717V58.8166H8.53472L4.87358 65.2117Z" />
<path d="M19.7084 58.8167L15.9521 66.9472H17.3786L17.9967 65.6159H22.7514L23.3695 66.9472H24.7959L20.9446 58.8167H19.7084ZM18.6861 64.2133L20.3265 60.5521L22.062 64.2133H18.6861Z" />
<path d="M31.3101 58.8165H32.6414V66.9471H31.3101V58.8165ZM42.3648 60.1479C42.725 60.1409 43.074 60.2729 43.3396 60.5163C43.6051 60.7597 43.7668 61.096 43.7912 61.4554L45.0274 60.9562C44.9215 60.3579 44.6088 59.8159 44.1438 59.4248C43.6788 59.0337 43.0912 58.8184 42.4836 58.8165C41.8531 58.8165 41.2484 59.067 40.8026 59.5129C40.3568 59.9587 40.1063 60.5634 40.1063 61.1939C40.1063 63.9516 43.7674 63.1433 43.7674 64.7599C43.7674 65.3781 43.3633 65.6633 42.6501 65.6633C42.2663 65.6645 41.8963 65.5206 41.6141 65.2605C41.332 65.0004 41.1585 64.6433 41.1286 64.2607L40.0112 64.855C40.0716 65.4733 40.3716 66.0434 40.847 66.4433C41.3224 66.8432 41.9355 67.0411 42.555 66.9947C42.8735 67.0197 43.1937 66.9754 43.4935 66.8648C43.7933 66.7541 44.0656 66.5798 44.2916 66.3539C44.5175 66.1279 44.6918 65.8557 44.8024 65.5559C44.913 65.2561 44.9574 64.9359 44.9323 64.6173C44.9323 61.7645 41.2712 62.6679 41.2712 61.0513C41.2474 60.552 41.6516 60.1479 42.3648 60.1479V60.1479ZM55.7969 58.8165C54.9928 58.8165 54.2068 59.055 53.5383 59.5017C52.8698 59.9484 52.3487 60.5833 52.041 61.3261C51.7333 62.0689 51.6528 62.8863 51.8097 63.6749C51.9666 64.4635 52.3537 65.1879 52.9223 65.7564C53.4908 66.325 54.2152 66.7121 55.0038 66.869C55.7924 67.0259 56.6097 66.9454 57.3526 66.6377C58.0954 66.33 58.7303 65.8089 59.177 65.1404C59.6237 64.4718 59.8621 63.6859 59.8621 62.8818C59.8786 62.3435 59.7847 61.8075 59.5863 61.3068C59.3878 60.8062 59.0889 60.3514 58.7081 59.9706C58.3273 59.5897 57.8725 59.2909 57.3719 59.0924C56.8712 58.894 56.3352 58.8001 55.7969 58.8165V58.8165ZM55.7969 65.6158C55.4341 65.6255 55.0731 65.5616 54.7357 65.4279C54.3983 65.2943 54.0915 65.0936 53.8338 64.8381C53.576 64.5826 53.3728 64.2775 53.2362 63.9413C53.0996 63.6051 53.0326 63.2447 53.0391 62.8818C53.0219 62.5162 53.0817 62.151 53.2145 61.8099C53.3473 61.4689 53.5503 61.1595 53.8102 60.9018C54.0701 60.6441 54.3813 60.4438 54.7235 60.3139C55.0657 60.1841 55.4314 60.1275 55.7969 60.1479C56.1586 60.138 56.5185 60.202 56.8546 60.336C57.1908 60.4699 57.4961 60.6709 57.7519 60.9268C58.0078 61.1826 58.2088 61.4879 58.3427 61.8241C58.4766 62.1602 58.5407 62.5201 58.5308 62.8818C58.5478 63.2454 58.4886 63.6084 58.3572 63.9478C58.2258 64.2871 58.025 64.5953 57.7677 64.8527C57.5104 65.11 57.2022 65.3108 56.8628 65.4422C56.5234 65.5736 56.1604 65.6327 55.7969 65.6158V65.6158ZM72.8663 64.7124L68.0878 58.8165H66.8754V66.9471H68.1829V61.1464L72.9614 66.9471H74.1739V58.8165H72.8663V64.7124V64.7124ZM81.4961 66.9471H86.5837V65.6158H82.8274V63.595H86.5837V62.1686H82.8274V60.1479H86.5837V58.8165H81.4961V66.9471ZM92.8837 60.1479H95.9267V66.9471H97.258V60.1479H100.301V58.8165H92.8837V60.1479V60.1479ZM105.983 60.1479H109.026V66.9471H110.357V60.1479H113.4V58.8165H105.983V60.1479V60.1479ZM125.002 60.1479V58.8165H119.914V66.9471H125.002V65.6158H121.222V63.595H125.002V62.1686H121.222V60.1479H125.002V60.1479Z" />
</g>
</svg>
