<svg xmlns="http://www.w3.org/2000/svg" width="131" height="70" viewBox="0 0 53 28"><path d="M26.29 5.59L23.56 0l-3 6.36v7.3h11.49v-7.3L29 0zM23.56 1l2.6 5.34H21zm2.51 12.21h-.59V9.9h.59zm1 0h-.6V9.9h.6zm-1.59-3.74a.76.76 0 0 1 .81-.72.8.8 0 0 1 .81.72zm6.1 3.76h-4V9.47a1.23 1.23 0 0 0-1.24-1.19 1.2 1.2 0 0 0-1.24 1.19v3.76H21V6.79h10.58zm-5.12-6.87L29 1l2.56 5.34z" class="inherit-fill" fill="#000"/><path d="M24.24 7.72h-2.52v3.42h2.52zm-1.45 3h-.6V8.15h.6zm1 0h-.6V8.15h.6zM30.85 7.72h-2.51v3.42h2.51zm-1.49 3h-.6V8.15h.6zm1.07 0h-.6V8.15h.6zM2.05 27.27L.51 24.58H0V28h.56v-2.27L1.84 28h.43l1.28-2.27V28h.55v-3.42h-.51l-1.54 2.69z" class="inherit-fill" fill="#000"/><path d="M8.29 24.58L6.71 28h.6l.26-.56h2l.26.56h.6l-1.62-3.42zm-.43 2.27l.69-1.54.73 1.54z" class="inherit-fill" fill="#000"/><path class="inherit-fill" fill="#000" d="M13.17 24.58h.56V28h-.56zM17.82 25.14a.59.59 0 0 1 .6.55l.52-.21a1.09 1.09 0 0 0-1.07-.9 1 1 0 0 0-1 1c0 1.16 1.54.82 1.54 1.5 0 .26-.17.38-.47.38a.64.64 0 0 1-.64-.59l-.47.25a1 1 0 0 0 1.07.9.93.93 0 0 0 1-1c0-1.2-1.54-.82-1.54-1.5-.01-.21.16-.38.46-.38zM23.47 24.58a1.71 1.71 0 1 0 1.71 1.71 1.66 1.66 0 0 0-1.71-1.71zm0 2.86a1.13 1.13 0 0 1-1.16-1.15 1.1 1.1 0 0 1 1.16-1.15 1.12 1.12 0 0 1 1.15 1.15 1.1 1.1 0 0 1-1.15 1.15zM30.65 27.06l-2.01-2.48h-.51V28h.55v-2.44L30.69 28h.51v-3.42h-.55v2.48zM34.28 28h2.14v-.56h-1.58v-.85h1.58v-.6h-1.58v-.85h1.58v-.56h-2.14V28zM39.07 25.14h1.28V28h.56v-2.86h1.28v-.56h-3.12v.56zM44.58 25.14h1.28V28h.56v-2.86h1.28v-.56h-3.12v.56zM52.58 25.14v-.56h-2.14V28h2.14v-.56h-1.59v-.85h1.59v-.6h-1.59v-.85h1.59z"/></svg>
