<svg width="130" height="25" viewBox="0 0 130 25" fill="none" xmlns="http://www.w3.org/2000/svg">
<g class="inherit-fill" fill="black">
<path d="M89.019 11.3906C87.7809 10.1525 86.1713 9.78108 84.8094 9.78108C80.7237 9.78108 78.4951 13.3716 78.4951 16.8382C78.4951 21.4192 81.7142 23.8954 84.6856 23.8954C87.1618 23.8954 88.3999 22.6573 89.019 22.0382V23.5239H93.2285V3.4668H89.019V11.3906ZM86.0475 20.0573C84.1904 20.0573 82.8285 18.6954 82.8285 16.7144C82.8285 14.8573 84.1904 13.3716 86.0475 13.3716C87.9047 13.3716 89.2666 14.7335 89.2666 16.7144C89.2666 18.6954 87.9047 20.0573 86.0475 20.0573Z" />
<path d="M43.9524 17.0858C43.0857 16.7144 42.0952 17.0858 41.6 18.0763C40.6095 20.3049 37.3905 21.6668 35.4095 20.1811C37.3905 19.0668 39.2476 17.5811 40.2381 15.2287C41.3524 12.8763 40.3619 7.92391 35.6571 8.66677C33.0571 9.16201 28.9714 12.3811 30.0857 18.2001C26.619 18.943 27.2381 14.1144 28.7238 7.42867C29.0952 5.57153 29.3428 4.08582 27.9809 2.97153C26.7428 1.98105 25.2571 2.72391 24.2667 3.59058C22.0381 5.57153 19.0667 9.16201 17.5809 11.143C18.2 7.42867 19.1905 2.72391 18.4476 1.48582C17.7048 0.247721 16.219 0.247721 14.9809 1.11439C12.0095 3.34296 6.80951 10.4001 6.80951 10.4001C6.80951 10.4001 7.05713 9.53344 7.18094 8.66677C7.30475 7.8001 6.80951 6.80963 5.81904 6.68582C4.70475 6.4382 3.59047 6.93344 3.34285 7.92391C2.22856 13.4953 1.23809 16.343 -9.76931e-06 21.9144C-0.247629 22.9049 0.247609 24.0192 1.36189 24.2668C1.85713 24.3906 2.35237 24.3906 2.84761 24.0192C3.21904 23.7715 3.46666 23.4001 3.71428 23.0287C5.81904 17.7049 11.1428 10.4001 14.6095 6.56201C14.7333 6.4382 14.8571 6.56201 14.8571 6.68582C14.3619 8.91439 13.2476 14.6096 13.2476 15.3525C13.2476 16.0953 13.2476 17.0858 14.3619 17.4572C15.3524 17.8287 16.219 17.5811 17.3333 16.7144C18.4476 15.7239 22.6571 10.7715 24.019 9.0382C24.1428 8.91439 24.3905 8.91439 24.2667 9.16201C21.419 18.2001 24.8857 23.2763 31.5714 21.543C36.2762 26.6192 42.9619 23.2763 44.6952 19.1906C45.0667 18.4477 44.9428 17.4572 43.9524 17.0858V17.0858ZM36.5238 12.1334C37.7619 12.7525 36.8952 15.7239 33.4286 17.2096C33.3047 14.2382 35.2857 11.5144 36.5238 12.1334Z" />
<path d="M98.1811 3.4668C96.6953 3.4668 95.5811 4.58108 95.5811 6.0668C95.5811 7.55251 96.8192 8.6668 98.1811 8.6668C99.543 8.6668 100.781 7.55251 100.781 6.0668C100.781 4.58108 99.543 3.4668 98.1811 3.4668V3.4668Z" />
<path d="M95.9521 10.5239H100.409V23.6477H95.9521V10.5239Z" />
<path d="M109.571 9.65723C105.609 9.65723 102.143 12.6287 102.143 16.8382C102.143 21.5429 105.733 24.0191 109.447 24.0191C113.657 24.0191 115.638 21.6667 116.504 19.6858H111.924C111.552 20.181 110.809 20.6763 109.571 20.6763C107.962 20.6763 106.476 19.6858 106.228 18.0763H117V16.962C117 12.7525 113.781 9.65723 109.571 9.65723V9.65723ZM106.352 15.2287C106.971 13.6191 108.457 13.0001 109.695 13.0001C111.552 13.0001 112.543 13.9906 112.914 15.2287H106.352Z" />
<path d="M129.505 17.4572C129.134 16.7144 128.391 15.9715 127.4 15.6001C126.286 15.1048 123.81 14.8572 122.819 14.362C122.572 14.2382 122.448 13.9906 122.448 13.7429C122.448 13.2477 122.819 12.7525 123.934 12.7525C125.172 12.7525 125.419 13.4953 125.419 13.8667H129.753C129.629 12.6287 129.134 11.5144 128.143 10.8953C127.153 10.1525 125.667 9.65723 123.934 9.65723C121.581 9.65723 119.6 10.4001 118.61 12.2572C118.362 12.7525 118.238 13.3715 118.238 13.9906C118.238 14.7334 118.362 15.3525 118.61 15.8477C119.105 16.7144 119.848 17.3334 121.086 17.7048C123.438 18.4477 125.667 18.2001 125.667 19.4382C125.667 20.3048 124.924 20.5525 124.057 20.5525C123.562 20.5525 122.819 20.4287 122.448 19.8096H117.991C118.362 22.4096 119.848 23.1525 121.21 23.6477C121.953 23.8953 122.943 24.0191 123.934 24.0191C124.924 24.0191 125.791 23.8953 126.534 23.6477C128.019 23.1525 129.876 21.9144 129.876 19.4382C129.876 18.5715 129.753 17.9525 129.505 17.4572V17.4572Z" />
<path d="M72.181 9.78101C70.0762 9.78101 69.0857 10.4001 68.0953 11.6381V10.1524H63.8857V23.7715H68.0953V16.2191C68.0953 14.4858 68.9619 13.3715 70.4477 13.3715C71.9334 13.3715 72.6762 14.2381 72.6762 15.9715V23.6477H77.0096V14.8572C77.0096 11.762 75.1524 9.78101 72.181 9.78101Z" />
<path d="M56.9525 16.8382C56.9525 18.6954 55.8382 20.0573 53.9811 20.0573C52.3716 20.0573 51.0097 18.943 51.0097 16.8382V3.4668H46.4287V16.7144C46.4287 21.6668 49.6478 24.0192 53.8573 24.0192C59.5525 24.0192 61.2859 20.3049 61.2859 16.7144V3.4668H56.9525V16.8382V16.8382Z" />
</g>
</svg>
