<svg width="105" height="20" viewBox="0 0 105 20" xmlns="http://www.w3.org/2000/svg" xmlns:xlink="http://www.w3.org/1999/xlink"><title>Logo</title><defs><path id="a" d="M0 .346h36.245v19.248H0z"/><path id="c" d="M0 19.604h104.93V.356H0z"/></defs><g fill="none" fill-rule="evenodd"><path d="M69.497 16.23c-1.506 0-2.64-1.147-2.64-2.666 0-1.52 1.134-2.664 2.64-2.664 1.48 0 2.595 1.145 2.595 2.664 0 1.52-1.116 2.665-2.595 2.665zm2.44-7.043c-.995-1.002-2.304-1.32-3.374-1.32-3.307.046-5.092 2.947-5.092 5.72 0 3.715 2.588 5.72 5.023 5.72 2.02 0 3.04-.99 3.47-1.458v1.227h3.397V2.8h-3.422v6.387z" fill="#000"/><g transform="translate(0 .01)"><mask id="b" fill="#fff"><use xlink:href="#a"/></mask><path d="M29.544 9.83c1.01.502.345 2.924-2.457 4.125-.14-2.492 1.448-4.63 2.457-4.126m5.98 3.926c-.73-.314-1.522-.03-1.87.78-.75 1.767-3.365 2.938-5.026 1.735 1.562-.893 3.09-2.086 3.944-3.96.853-1.874.127-5.933-3.742-5.314-2.086.38-5.41 2.976-4.54 7.707-2.772.584-2.31-3.307-1.083-8.702.345-1.535.507-2.713-.645-3.613-1.012-.79-2.15-.21-3.003.48-1.847 1.59-4.168 4.5-5.375 6.068.523-3.002 1.342-6.816.72-7.798C14.286.155 13.12.13 12.068.83 9.69 2.684 5.49 8.368 5.49 8.368s.198-.66.27-1.38c.07-.723-.284-1.452-1.136-1.64-.775-.173-1.73.226-1.905 1.052C1.766 10.878.99 13.212.036 17.69c-.164.77.23 1.666 1.08 1.855.398.088.842.07 1.194-.152.326-.204.533-.518.66-.785 1.71-4.284 5.964-10.153 8.81-13.273.07-.07.222-.03.196.103-.356 1.844-1.266 6.402-1.307 7.038-.043.636.04 1.44.867 1.73.827.29 1.5.145 2.435-.64.936-.784 4.31-4.845 5.434-6.155.096-.103.265-.112.197.13-2.27 7.3.466 11.405 5.927 9.954 3.766 4.142 9.245 1.395 10.565-1.873.304-.737.16-1.55-.57-1.864" fill="#000" mask="url(#b)"/></g><mask id="d" fill="#fff"><use xlink:href="#c"/></mask><path fill="#000" mask="url(#d)" d="M77.45 19.1h3.6V8.508h-3.6zM58.284 7.928c-1.696 0-2.46.51-3.328 1.48V8.16h-3.444v10.98h3.468V13.07c0-1.438.695-2.296 1.86-2.296 1.188 0 1.815.738 1.815 2.135v6.227h3.54v-7.08c0-2.547-1.5-4.13-3.91-4.13M46.048 13.56c0 1.52-.912 2.587-2.422 2.587-1.34 0-2.374-.923-2.374-2.588V2.764h-3.65v10.68c0 4.01 2.568 5.886 6.024 5.886 4.56 0 6.046-2.996 6.046-5.886V2.764h-3.624V13.56zM79.253 2.772c-1.18 0-2.138.932-2.138 2.082s.958 2.082 2.138 2.082 2.14-.933 2.14-2.082c0-1.15-.96-2.082-2.14-2.082M85.934 12.278c.522-1.316 1.662-1.77 2.683-1.77 1.458 0 2.287.766 2.61 1.77h-5.293zm2.612-4.446c-3.208 0-5.95 2.364-5.95 5.762 0 3.764 2.856 5.83 5.927 5.83 3.393 0 4.962-1.932 5.658-3.49H90.5c-.35.394-.943.766-1.93.766-1.308 0-2.474-.783-2.733-2.114h8.66v-.936c0-3.395-2.56-5.818-5.95-5.818zM98.898 11.232c0-.405.302-.838 1.168-.838 1.032 0 1.206.57 1.247.853h3.462c-.082-1.032-.51-1.853-1.277-2.44-.843-.647-1.998-.974-3.432-.974-1.912 0-3.497.597-4.296 2.098a3.06 3.06 0 0 0-.307 1.37c0 .6.112 1.096.334 1.472.446.723 1.017 1.185 2.003 1.526 1.86.614 3.67.447 3.67 1.357 0 .68-.568.907-1.262.907-.395 0-1.05-.09-1.256-.628h-3.58c.26 2.115 1.55 2.738 2.605 3.11.61.19 1.362.287 2.23.287.79 0 1.485-.102 2.07-.307 1.197-.423 2.653-1.392 2.653-3.414 0-.59-.1-1.086-.294-1.474-.29-.624-.93-1.168-1.718-1.472-.942-.386-2.874-.596-3.705-.958a.54.54 0 0 1-.315-.474z"/></g></svg>