<svg version="1.1" xmlns="http://www.w3.org/2000/svg" x="0" y="0" viewBox="0 0 105 20" width="105" height="20">
  <g class="inherit-fill">
    <path fill="none" d="M88.6 10.5c-1 0-2.2.5-2.7 1.8h5.3c-.3-1-1.1-1.8-2.6-1.8z"/>
    <path fill="none" d="M29.5 9.8c-1-.5-2.6 1.6-2.5 4.1 2.9-1.1 3.6-3.6 2.5-4.1z"/>
    <path fill="none" d="M69.5 10.9c-1.5 0-2.6 1.1-2.6 2.7 0 1.5 1.1 2.7 2.6 2.7s2.6-1.1 2.6-2.7-1.1-2.7-2.6-2.7z"/>
    <path d="M71.9 9.2c-1-1-2.3-1.3-3.4-1.3-3.3 0-5.1 2.9-5.1 5.7 0 3.7 2.6 5.7 5 5.7 2 0 3-1 3.5-1.5V19h3.4V2.8h-3.4v6.4zm-2.4 7c-1.5 0-2.6-1.1-2.6-2.7 0-1.5 1.1-2.7 2.6-2.7s2.6 1.1 2.6 2.7-1.1 2.7-2.6 2.7z"/>
    <path d="M35.5 13.8c-.7-.3-1.5 0-1.9.8-.8 1.8-3.4 2.9-5 1.7 1.6-.9 3.1-2.1 3.9-4 .9-1.9.1-5.9-3.7-5.3-2.1.4-5.4 3-4.5 7.7-2.8.6-2.3-3.3-1.1-8.7.3-1.5.5-2.7-.6-3.6-1-.8-2.2-.2-3 .5-1.8 1.6-4.2 4.5-5.4 6.1.5-3 1.3-6.8.7-7.8-.6-1-1.8-1-2.8-.3-2.4 1.8-6.6 7.5-6.6 7.5s.2-.7.3-1.4c.1-.7-.3-1.5-1.1-1.6-.9-.2-1.8.2-2 1C1.8 10.9 1 13.2 0 17.7c-.2.8.2 1.7 1.1 1.9.4.1.8.1 1.2-.2.3-.2.5-.5.7-.8 1.7-4.3 6-10.2 8.8-13.3.1-.1.2 0 .2.1-.4 1.8-1.3 6.4-1.3 7 0 .6 0 1.4.9 1.7.8.3 1.5.1 2.4-.6.9-.8 4.3-4.8 5.4-6.2.1-.1.3-.1.2.1-2.3 7.3.5 11.4 5.9 10 3.8 4.1 9.2 1.4 10.6-1.9.3-.6.2-1.4-.6-1.7zm-6-4c1 .5.3 2.9-2.5 4.1-.1-2.4 1.5-4.6 2.5-4.1z"/>
    <path d="M79.3 2.8c-1.2 0-2.1.9-2.1 2.1s1 2.1 2.1 2.1 2.1-.9 2.1-2.1c0-1.2-1-2.1-2.1-2.1z"/>
    <path d="M77.5 8.5h3.6v10.6h-3.6z"/>
    <path d="M88.5 7.8c-3.2 0-6 2.4-6 5.8 0 3.8 2.9 5.8 5.9 5.8 3.4 0 5-1.9 5.7-3.5h-3.7c-.3.4-.9.8-1.9.8-1.3 0-2.5-.8-2.7-2.1h8.7v-.9c0-3.4-2.6-5.9-6-5.9zm-2.6 4.5c.5-1.3 1.7-1.8 2.7-1.8 1.5 0 2.3.8 2.6 1.8h-5.3z"/>
    <path d="M104.6 14.1c-.3-.6-.9-1.2-1.7-1.5-.9-.4-2.9-.6-3.7-1-.2-.1-.3-.3-.3-.5 0-.4.3-.8 1.2-.8 1 0 1.2.6 1.2.9h3.5c-.1-1-.5-1.9-1.3-2.4-.8-.6-2-1-3.4-1-1.9 0-3.5.6-4.3 2.1-.2.4-.3.9-.3 1.4 0 .6.1 1.1.3 1.5.4.7 1 1.2 2 1.5 1.9.6 3.7.4 3.7 1.4 0 .7-.6.9-1.3.9-.4 0-1-.1-1.3-.6h-3.6c.3 2.1 1.5 2.7 2.6 3.1.6.2 1.4.3 2.2.3.8 0 1.5-.1 2.1-.3 1.2-.4 2.7-1.4 2.7-3.4 0-.7-.1-1.2-.3-1.6z"/>
    <path d="M58.3 7.9c-1.7 0-2.5.5-3.3 1.5V8.2h-3.4v11H55v-6.1c0-1.4.7-2.3 1.9-2.3s1.8.7 1.8 2.1v6.2h3.5V12c0-2.5-1.5-4.1-3.9-4.1z"/>
    <path d="M46 13.6c0 1.5-.9 2.6-2.4 2.6-1.3 0-2.4-.9-2.4-2.6V2.8h-3.7v10.7c0 4 2.6 5.9 6 5.9 4.6 0 6-3 6-5.9V2.8H46v10.8z"/>
  </g>
</svg>
