<svg xmlns="http://www.w3.org/2000/svg" width="200" height="13" viewBox="0 0 150 10"><path d="M10.2 9.7H7l4.7-6.6.2-.5H9L5 7.9v.2L3.7 9.7H0l1.7-2.2 4-5.4L7 .3h13.4c1.3.2 2 .8 2 1.8v.4l-5.2 7.2h-3.7L17.7 4l.7-.9c.1-.1.1-.2.1-.3 0-.1-.4-.2-1.1-.2h-2.1l-5.1 7.1zM30.8 8.3c-.5.8-1.9 1.3-4.1 1.3h-4.6c-2 0-3-.4-3-1.1 0-.2 0-.3.1-.5L22 4.5c.2-.4.6-.7 1.1-.9.5-.2 1.2-.3 2-.3h4.8c2.3 0 3.5.5 3.6 1.4l-2.7 3.6zM25.9 5c-.5 0-.9.1-1.2.3l-2 2.7H27c.3 0 .6-.1.7-.3L29.8 5h-3.9zM34.2 4.5c.5-.9 1.9-1.3 4.1-1.3h5.5L45.6.9h3.2l-3 4-2.7 3.6c-.4.8-1.5 1.2-3.1 1.2h-4.8c-2.3 0-3.5-.5-3.6-1.5l2.6-3.7zm6.1 3.1l2.1-2.7c-.1 0-.3-.1-.6-.1H38c-.3 0-.5.1-.7.3l-2.1 2.7c.1.1.2.1.4.1h3.5c.6 0 .9-.1 1.2-.3zM46.8 4.5c.5-.9 1.9-1.3 4.1-1.3h5.5L58.2.9h3.2l-3 4-2.7 3.6c-.4.8-1.5 1.2-3.1 1.2h-4.8c-2.3 0-3.5-.5-3.6-1.5l2.6-3.7zm6.1 3.1L55 4.9c-.1 0-.3-.1-.6-.1h-3.8c-.3 0-.5.1-.7.3l-2.1 2.7c.1.1.2.1.4.1h3.5c.6 0 .9-.1 1.2-.3zM60.4 7.9c.1.1.3.1.7.1H69l-1.2 1.6h-7.9c-2 0-3-.4-3-1.1 0-.2 0-.3.1-.5l2.7-3.6c.2-.4.6-.7 1.1-.9.5-.2 1.2-.3 2-.3h7.5c.7 0 1.1.2 1.1.7 0 .2-.1.5-.3.8l-1 1.6c-.4.6-1.2.9-2.1.9h-7l-.6.7zm7.2-2.7l.1-.2.1-.1s.1 0 .1-.1h-4.2c-.5 0-.9.1-1.2.3l-.3.4h5.1l.4-.5-.1.2zM71.9 4.5c.5-.9 1.9-1.3 4.1-1.3h5.5L83.3.9h3.2l-3 4-2.7 3.6c-.4.8-1.5 1.2-3.1 1.2h-4.8c-2.3 0-3.5-.5-3.6-1.5l2.6-3.7zM78 7.6l2.1-2.7c-.1 0-.3-.1-.6-.1h-3.8c-.3 0-.5.1-.7.3l-2 2.7c.1.1.2.1.4.1h3.5c.5 0 .9-.1 1.1-.3zM90.2 2.2c-.3.1-.6.2-.8.3L88.2 4H96l-1.4 1.7H87l-1.7 2.2h11.1l-1.6 1.7h-9.4c-2.1 0-3.3-.4-3.5-1.2 0-.1-.1-.3-.1-.4 0-.2 0-.4.1-.5l4-5.5c.9-.8 1.9-1.4 3.3-1.7.4 0 .7-.1 1.1-.1H150l-.9 1.8h-58c-.3 0-.6.1-.9.2z"/><path d="M109.2 3.3h3.3l-1 1.5-2.5 3.5c-.6.8-1.9 1.3-4.1 1.3h-4.6c-2 0-3-.4-3-1.1 0-.2 0-.3.1-.5l2.7-3.6.8-1.1h3.6l-1.6 1.9-2.1 2.7s.2.1.6.1h3.7c.3 0 .5-.1.7-.3l2.2-2.8 1.2-1.6zM116.5 5c-.5 0-.9.1-1.2.3l-2 2.7-1.2 1.6h-3.4l1.2-1.6 2.6-3.4c.5-.8 1.6-1.3 3.1-1.3h8L122.4 5h-5.9zM132.5 8.3c-.5.8-1.9 1.3-4.1 1.3h-4.6c-2 0-3-.4-3-1.1 0-.2 0-.3.1-.5l2.7-3.6c.2-.4.6-.7 1.1-.9.5-.2 1.2-.3 2-.3h4.8c2.3 0 3.5.5 3.6 1.4l-2.6 3.7zM127.6 5c-.5 0-.9.1-1.2.3l-2 2.7c.1 0 .3.1.6.1h3.7c.3 0 .6-.1.7-.3l2.1-2.7c-.1-.1-.3-.1-.5-.1h-3.4zM142.2 7.5l.2-.2H136c-.7 0-1.1-.2-1.1-.7 0-.1 0-.3.1-.4.1-.2.2-.3.3-.5l.9-1.2c.4-.8 1.5-1.1 3.1-1.1h9.3L147.5 5h-7.4c-.5 0-.9.1-1.2.3h.1l-.3.4h6.1c.9 0 1.3.3 1.3.8 0 .2-.1.5-.3.8l-.8 1.2c-.6.8-1.9 1.3-4.1 1.3h-8.8l1.5-1.6h7.6c.3 0 .5-.1.7-.3.2-.3.2-.3.3-.4z"/></svg>
