<svg xmlns="http://www.w3.org/2000/svg" viewBox="0 0 200 14" width="200" height="14">
  <g class="inherit-fill" fill="#000" fill-rule="nonzero">
    <path d="M13.6 12.93H9.33l6.27-8.8.27-.66H12l-5.33 7.06v.27l-1.74 2.13H0L2.27 10 7.6 2.8 9.33.4H27.2c1.73.27 2.67 1.07 2.67 2.4v.53l-6.94 9.6H18l5.6-7.6.93-1.2c.14-.13.14-.26.14-.4 0-.13-.54-.26-1.47-.26h-2.8l-6.8 9.46zm27.47-1.86c-.67 1.06-2.54 1.73-5.47 1.73h-6.13c-2.67 0-4-.53-4-1.47 0-.26 0-.4.13-.66L29.33 6c.27-.53.8-.93 1.47-1.2a7.5 7.5 0 012.67-.4h6.4c3.06 0 4.66.67 4.8 1.87l-3.6 4.8zm-6.54-4.4c-.66 0-1.2.13-1.6.4l-2.66 3.6H36c.4 0 .8-.14.93-.4l2.8-3.6h-5.2zM45.6 6c.67-1.2 2.53-1.73 5.47-1.73h7.33l2.4-3.07h4.27l-4 5.33-3.6 4.8c-.54 1.07-2 1.6-4.14 1.6h-6.4c-3.06 0-4.66-.66-4.8-2L45.6 6zm8.13 4.13l2.8-3.6c-.13 0-.4-.13-.8-.13h-5.06c-.4 0-.67.13-.94.4l-2.8 3.6c.14.13.27.13.54.13h4.66c.8 0 1.2-.13 1.6-.4zM62.4 6c.67-1.2 2.53-1.73 5.47-1.73h7.33l2.4-3.07h4.27l-4 5.33-3.6 4.8c-.54 1.07-2 1.6-4.14 1.6h-6.4c-3.06 0-4.66-.66-4.8-2L62.4 6zm8.13 4.13l2.8-3.6c-.13 0-.4-.13-.8-.13h-5.06c-.4 0-.67.13-.94.4l-2.8 3.6c.14.13.27.13.54.13h4.66c.8 0 1.2-.13 1.6-.4zm10 .4c.14.14.4.14.94.14H92l-1.6 2.13H79.87c-2.67 0-4-.53-4-1.47 0-.26 0-.4.13-.66l3.6-4.8c.27-.54.8-.94 1.47-1.2a7.5 7.5 0 012.66-.4h10c.94 0 1.47.26 1.47.93 0 .27-.13.67-.4 1.07L93.47 8.4c-.54.8-1.6 1.2-2.8 1.2h-9.34l-.8.93zm9.6-3.6l.14-.26.13-.14s.13 0 .13-.13h-5.6c-.66 0-1.2.13-1.6.4l-.4.53h6.8l.54-.66-.14.26zM95.87 6c.66-1.2 2.53-1.73 5.46-1.73h7.34l2.4-3.07h4.26l-4 5.33-3.6 4.8c-.53 1.07-2 1.6-4.13 1.6h-6.4c-3.07 0-4.67-.66-4.8-2L95.87 6zm8.13 4.13l2.8-3.6c-.13 0-.4-.13-.8-.13h-5.07c-.4 0-.66.13-.93.4l-2.67 3.6c.14.13.27.13.54.13h4.66c.67 0 1.2-.13 1.47-.4zm16.27-7.2c-.4.14-.8.27-1.07.4l-1.6 2H128l-1.87 2.27H116l-2.27 2.93h14.8l-2.13 2.27h-12.53c-2.8 0-4.4-.53-4.67-1.6 0-.13-.13-.4-.13-.53 0-.27 0-.54.13-.67l5.33-7.33a9.25 9.25 0 014.4-2.27c.54 0 .94-.13 1.47-.13H200l-1.2 2.4h-77.33c-.4 0-.8.13-1.2.26z"/>
    <path d="M145.6 4.4h4.4l-1.33 2-3.34 4.67c-.8 1.06-2.53 1.73-5.46 1.73h-6.14c-2.66 0-4-.53-4-1.47 0-.26 0-.4.14-.66l3.6-4.8 1.06-1.47h4.8l-2.13 2.53-2.8 3.6s.27.14.8.14h4.93c.4 0 .67-.14.94-.4L144 6.53l1.6-2.13zm9.73 2.27c-.66 0-1.2.13-1.6.4l-2.66 3.6-1.6 2.13h-4.54l1.6-2.13L150 6.13c.67-1.06 2.13-1.73 4.13-1.73h10.67l-1.6 2.27h-7.87zm21.34 4.4c-.67 1.06-2.54 1.73-5.47 1.73h-6.13c-2.67 0-4-.53-4-1.47 0-.26 0-.4.13-.66l3.6-4.8c.27-.54.8-.94 1.47-1.2a7.5 7.5 0 012.66-.4h6.4c3.07 0 4.67.66 4.8 1.86l-3.46 4.94zm-6.54-4.4c-.66 0-1.2.13-1.6.4l-2.66 3.6c.13 0 .4.13.8.13h4.93c.4 0 .8-.13.93-.4l2.8-3.6c-.13-.13-.4-.13-.66-.13h-4.54zM189.6 10l.27-.27h-8.54c-.93 0-1.46-.26-1.46-.93 0-.13 0-.4.13-.53.13-.27.27-.4.4-.67l1.2-1.6c.53-1.07 2-1.47 4.13-1.47h12.4l-1.46 2.14h-9.87c-.67 0-1.2.13-1.6.4h.13l-.4.53h8.14c1.2 0 1.73.4 1.73 1.07 0 .26-.13.66-.4 1.06l-1.07 1.6c-.8 1.07-2.53 1.74-5.46 1.74h-11.74l2-2.14h10.14c.4 0 .66-.13.93-.4.27-.4.27-.4.4-.53z"/>
  </g>
</svg>
