<svg width="200" height="61" viewBox="0 0 200 61" xmlns="http://www.w3.org/2000/svg">
  <g fill-rule="nonzero" fill="none">
    <path d="M75.8783787 42.0967032V25.74065924h4.25675676v1.34065934c1.28378378-1.0054945 2.83783784-1.67582417 4.66216216-1.67582417 2.29729728 0 4.32432428 1.0054945 5.67567568 2.61428571 1.0810811 1.27362638 1.6891892 2.94945058 1.6891892 5.69780218v8.3120879h-4.3918919v-8.5802197c0-1.6087913-.4054054-2.4802198-1.0135135-3.0835165-.6081081-.6032967-1.48648651-.9384616-2.50000002-.9384616-1.89189189 0-3.37837838 1.2065934-3.98648649 2.010989v10.5912088H75.8783787v.067033zm34.3243243-2.6142857c-1.6216216 1.8769231-4.1891892 2.9494505-6.7567567 2.9494505-4.9324325 0-8.6486487-3.3516483-8.6486487-8.5131868 0-4.5582417 3.1081081-8.51318679 7.972973-8.51318679 4.527027 0 7.7702703 3.82087909 7.7702703 8.31208789 0 .4692308-.0675676.8714286-.1351352 1.2736264H98.9864868c.2702703 2.2791209 2.0945946 3.8879121 4.4594595 3.8879121 1.8918919 0 3.3783783-1.0725275 4.1216216-1.8769231l2.6351351 2.4802198zm-4.1216216-7.6417583c-.1351351-1.4747252-1.4864865-2.8824175-3.2432432-2.8824175-1.8243244 0-3.3108108 1.4076923-3.5135136 2.8824175h6.7567568zm7.5675676 10.256044V18.23296693h4.3918919v8.78131869c1.2837837-1.00549451 2.8378378-1.54175825 4.6621621-1.54175825 4.4594595 0 8.0405406 3.68681323 8.0405406 8.51318683 0 2.2120879-.8108108 4.2230769-2.0945946 5.6978022-1.4864865 1.6758242-3.7837838 2.7483516-6.2162162 2.7483516-1.6891892 0-3.2432433-.5362637-4.5945946-1.6758241v1.3406593h-4.1891892zm4.4594594-5.6978022c.8783784 1.2065934 2.2972973 2.010989 3.9864865 2.010989 2.5 0 4.3243243-1.8769231 4.3243243-4.4241758 0-2.3461539-1.6891891-4.4912088-4.2567567-4.4912088-1.6891892 0-3.1756757.8043956-4.0540541 2.010989v4.8934066zm31.3513514-10.65824176V42.0296702h-4.2567568v-1.3406593c-1.2837838 1.1395604-2.8378378 1.6758242-4.4594594 1.6758242-2.2972973 0-4.3243244-1.0725275-5.6081081-2.6142857-1.0810811-1.2736264-1.6891892-2.9494506-1.6891892-5.3626374v-8.64725276h4.3918919v8.84835166c0 1.4747253.3378378 2.2120879.8108108 2.8153846.6756756.7373626 1.6216216 1.0054945 2.5 1.0054945 1.8918919 0 3.2432432-1.2736264 3.8513513-2.010989V25.74065924h4.4594595zm8.7837838 16.35604396h-4.3918919V18.23296693h4.3918919V42.0967032zm20.2027024 0h-4.2567565v-1.3406593c-1.3513513 1.1395604-2.9054054 1.6758241-4.5945946 1.6758241-2.4324324 0-4.7297297-1.0725274-6.2162162-2.7483516-1.2837838-1.4747253-2.0945946-3.4857143-2.0945946-5.6978022 0-4.8263736 3.5810811-8.51318683 8.0405405-8.51318683 1.8918919 0 3.5135136.60329671 4.7972973 1.67582418v-1.34065934h4.2567571V42.0967032h.067567zm-4.3918916-10.5912088c-.945946-1.2065934-2.3648649-2.010989-4.0540541-2.010989-2.5675675 0-4.2567567 2.1450549-4.2567567 4.4912088 0 2.5472527 1.8918919 4.4241758 4.3243243 4.4241758 1.6891892 0 3.1081081-.8043956 3.9864865-2.010989v-4.8934066zm8.7837836 10.5912088V18.23296693h4.391892v8.78131869c1.283784-1.00549451 2.837838-1.54175825 4.662162-1.54175825 4.45946 0 8.040541 3.68681323 8.040541 8.51318683 0 2.2120879-.810811 4.2230769-2.094595 5.6978022-1.486486 1.6758242-3.783784 2.7483516-6.216216 2.7483516-1.689189 0-3.243243-.5362637-4.594595-1.6758241v1.3406593h-4.189189zm4.45946-5.6978022c.878378 1.2065934 2.297297 2.010989 3.986486 2.010989 2.5 0 4.324324-1.8769231 4.324324-4.4241758 0-2.3461539-1.689189-4.4912088-4.256756-4.4912088-1.68919 0-3.175676.8043956-4.054054 2.010989v4.8934066z" fill="#3E3E3E"/>
    <path d="M0 30.2989011C0 13.5406593 13.7162162 0 30.6081081 0 47.5 0 61.2162162 13.6076923 61.2162162 30.3659341c0 16.7582417-13.7837838 30.2989011-30.6081081 30.2989011S0 47.0571429 0 30.2989011" fill="#5DBEFD"/>
    <g fill="#FFF">
      <path d="M24.8648647 35.8626373l-10.2702703 10.189011 13.5810811-3.6197802z"/>
      <path opacity=".8" d="M18.24324305 32.5780219L14.5945944 46.0516483l10.2702703-10.189011z"/>
      <path d="M46.5540539 14.54615377L28.5810809 32.376923l6.8918919 13.3395604z"/>
      <path opacity=".8" d="M15.13513495 25.5395604L28.5810809 32.376923l17.972973-17.83076923z"/>
    </g>
  </g>
</svg>
