<?xml version="1.0" encoding="UTF-8"?>
<svg width="200px" height="61px" viewBox="0 0 200 61" version="1.1" xmlns="http://www.w3.org/2000/svg" xmlns:xlink="http://www.w3.org/1999/xlink">
    <!-- Generator: Sketch 53.2 (72643) - https://sketchapp.com -->
    <title>logo-7fc886af</title>
    <desc>Created with Sketch.</desc>
    <g id="Web" stroke="none" stroke-width="1" fill="none" fill-rule="evenodd">
        <g id="Community" transform="translate(-351.000000, -2938.000000)" fill-rule="nonzero">
            <g id="Donors" transform="translate(160.000000, 2736.000000)">
                <g id="Key-stakeholder">
                    <g id="Logos" transform="translate(191.000000, 202.000000)">
                        <g id="logo-7fc886af">
                            <path d="M75.78125,42.5546357 L75.78125,26.2814102 L79.9986245,26.2814102 L79.9986245,27.6263048 C81.3188217,26.599852 82.9446638,26.0325837 84.624132,26.0124312 C86.8201085,25.9735499 88.9176728,26.9116029 90.3379942,28.5677311 C91.5807605,30.1809296 92.1635962,32.19754 91.9705262,34.2162887 L91.9705262,42.5546357 L87.7531518,42.5546357 L87.7531518,33.9473098 C87.8404568,32.8345278 87.5004345,31.7300805 86.8008414,30.8540521 C86.132001,30.2491675 85.2585428,29.9133715 84.3520433,29.9126258 C82.7917083,29.9440927 81.3343927,30.6892615 80.4067575,31.9299678 L80.4067575,42.5546357 L75.78125,42.5546357 Z M110.200468,39.9993358 C108.466389,41.9031921 105.989675,42.9804916 103.398251,42.9581041 C101.090825,43.0753168 98.8412387,42.2203496 97.2074899,40.6052733 C95.5737412,38.9901969 94.7088895,36.7663211 94.8274573,34.4852677 C94.8274573,29.9126258 97.9564771,26.0124312 102.854073,26.0124312 C107.343536,26.0124312 110.608601,29.7781363 110.608601,34.3507782 C110.630722,34.7588923 110.58476,35.1678238 110.472556,35.5611834 L99.0448318,35.5611834 C99.2530796,37.8351023 101.226396,39.5494097 103.534295,39.461378 C105.103154,39.4337974 106.586508,38.7494773 107.615625,37.5785254 L110.200468,39.9993358 Z M106.119137,32.3334362 C105.912284,30.7099474 104.509257,29.4963297 102.854073,29.5091574 C101.154691,29.5244744 99.6895924,30.6942984 99.3169205,32.3334362 L106.119137,32.3334362 Z M113.73762,42.5546357 L113.73762,18.75 L118.091039,18.75 L118.091039,27.4918154 C119.42525,26.5071412 121.051739,25.9869384 122.716547,26.0124312 C124.930315,26.0461594 127.03526,26.9674308 128.548673,28.564979 C130.062087,30.1625273 130.854127,32.2992914 130.743163,34.4852677 C130.734306,36.543057 130.014293,38.5360526 128.702498,40.1338253 C127.08016,41.8440736 124.816147,42.8171769 122.444458,42.8236146 C120.761684,42.8221732 119.12984,42.2528108 117.81895,41.209741 L117.81895,42.5546357 L113.73762,42.5546357 Z M118.091039,36.9060781 C118.988873,38.1808595 120.46508,38.9356882 122.036325,38.9234201 C123.217275,38.9315954 124.350273,38.4621477 125.172407,37.6240121 C125.994541,36.7858765 126.434338,35.6519168 126.389744,34.4852677 C126.44132,33.3397549 126.022471,32.2222456 125.228313,31.3865142 C124.434156,30.5507829 123.332085,30.0677529 122.172369,30.0471152 C120.571059,30.0656134 119.066795,30.809149 118.091039,32.0644573 L118.091039,36.9060781 Z M149.517281,26.2814102 L149.517281,42.5546357 L145.299907,42.5546357 L145.299907,41.209741 C144.049999,42.2665634 142.455085,42.8399036 140.810444,42.8236146 C138.660264,42.8298324 136.617757,41.894123 135.232626,40.2683148 C134.03164,38.7377144 133.449709,36.8201139 133.600094,34.8887361 L133.600094,26.2814102 L137.953513,26.2814102 L137.953513,35.0232255 C137.847241,36.0334654 138.139666,37.0452552 138.769779,37.8475043 C139.43119,38.4641108 140.309543,38.8017888 141.218577,38.7889306 C142.742238,38.7597897 144.159148,38.0094063 145.027818,36.7715886 L145.027818,26.1469207 L149.517281,26.1469207 L149.517281,26.2814102 Z M158.360163,42.5546357 L154.006744,42.5546357 L154.006744,18.75 L158.360163,18.75 L158.360163,42.5546357 Z M178.494725,42.5546357 L174.277351,42.5546357 L174.277351,41.209741 C172.977763,42.2726967 171.338446,42.8446665 169.651843,42.8236146 C167.280154,42.8171769 165.016141,41.8440736 163.393804,40.1338253 C162.082009,38.5360526 161.361995,36.543057 161.353139,34.4852677 C161.242174,32.2992914 162.034214,30.1625273 163.547628,28.564979 C165.061042,26.9674308 167.165986,26.0461594 169.379755,26.0124312 C171.114755,25.9461253 172.812457,26.5215419 174.141306,27.6263048 L174.141306,26.2814102 L178.358681,26.2814102 L178.358681,42.5546357 L178.494725,42.5546357 Z M174.141306,32.0644573 C173.186481,30.7843118 171.668828,30.0341578 170.059976,30.0471152 C168.900261,30.0677529 167.79819,30.5507829 167.004032,31.3865142 C166.209875,32.2222456 165.791026,33.3397549 165.842602,34.4852677 C165.798008,35.6519168 166.237805,36.7858765 167.059939,37.6240121 C167.882072,38.4621477 169.01507,38.9315954 170.196021,38.9234201 C171.767266,38.9356882 173.243473,38.1808595 174.141306,36.9060781 L174.141306,32.0644573 Z M182.984188,42.5546357 L182.984188,18.75 L187.337607,18.75 L187.337607,27.4918154 C188.671818,26.5071412 190.298307,25.9869384 191.963115,26.0124312 C194.176883,26.0461594 196.281828,26.9674308 197.795241,28.564979 C199.308655,30.1625273 200.100695,32.2992914 199.989731,34.4852677 C199.980874,36.543057 199.260861,38.5360526 197.949066,40.1338253 C196.326728,41.8440736 194.062715,42.8171769 191.691026,42.8236146 C190.008252,42.8221732 188.376408,42.2528108 187.065519,41.209741 L187.065519,42.5546357 L182.984188,42.5546357 Z M187.337607,36.9060781 C188.235441,38.1808595 189.711648,38.9356882 191.282893,38.9234201 C192.463843,38.9315954 193.596841,38.4621477 194.418975,37.6240121 C195.241109,36.7858765 195.680906,35.6519168 195.636312,34.4852677 C195.687888,33.3397549 195.269039,32.2222456 194.474882,31.3865142 C193.680724,30.5507829 192.578653,30.0677529 191.418937,30.0471152 C189.817627,30.0656134 188.313363,30.809149 187.337607,32.0644573 L187.337607,36.9060781 Z" id="Shape" fill="#3E3E3E"></path>
                            <circle id="Oval" fill="#5DBEFD" cx="30.46875" cy="30.46875" r="30.46875"></circle>
                            <polygon id="Path" fill="#FFFFFF" points="24.6441832 35.9375 14.0625 46.09375 28.125 42.4856086"></polygon>
                            <polygon id="Path" fill="#FFFFFF" opacity="0.8" points="17.8042763 32.8125 14.0625 46.09375 24.21875 36 17.8042763 32.8125"></polygon>
                            <polygon id="Path" fill="#FFFFFF" points="46.09375 14.84375 28.125 32.7008929 34.9313447 46.09375"></polygon>
                            <polygon id="Path" fill="#FFFFFF" opacity="0.8" points="14.84375 26.0061553 28.2366071 32.8125 46.09375 14.84375"></polygon>
                        </g>
                    </g>
                </g>
            </g>
        </g>
    </g>
</svg>