<svg width="28" height="55" viewBox="0 0 28 55" fill="none" xmlns="http://www.w3.org/2000/svg">
<path class="inherit-fill" d="M27.7285 4.59463C27.6443 4.679 27.5596 4.78455 27.4754 4.86892L23.9711 8.37326C23.9289 8.41545 23.9077 8.43664 23.8863 8.45764C23.8021 8.56319 23.8021 8.66875 23.9077 8.81649C24.7943 10.3153 25.3431 11.9196 25.5334 13.6297C25.9133 17.1338 25.0263 20.2793 22.8311 23.0448C20.9523 25.409 18.5035 26.8868 15.569 27.5413C14.2179 27.837 12.8459 27.8578 11.4737 27.7102C9.2148 27.4778 7.18806 26.6547 5.37261 25.3036C2.75489 23.3616 1.12937 20.7861 0.45385 17.5773C0.200553 16.395 0.158366 15.1918 0.263922 14.0097C0.51722 11.2443 1.57278 8.7953 3.4516 6.70556C5.24605 4.7 7.44154 3.39114 10.0381 2.80018C11.3259 2.50451 12.6134 2.39895 13.9436 2.52551C15.8435 2.69444 17.6167 3.2434 19.2632 4.19322C19.4744 4.31996 19.5587 4.2354 19.6856 4.10885L23.1688 0.625504C23.2532 0.541133 23.3377 0.435394 23.4431 0.308838C24.8763 1.74351 26.2892 3.15829 27.7261 4.59334L27.7285 4.59463ZM19.8085 15.3589C19.9141 11.2846 16.7052 8.32924 13.0953 8.22368C9.02119 8.11794 5.98126 11.4957 5.98126 15.1478C5.98126 18.8843 9.12675 22.1143 12.9052 22.0509C16.6208 22.0933 19.723 19.0316 19.8078 15.3584L19.8085 15.3589ZM25.1532 43.5637C25.1742 46.9835 25.1532 50.4243 25.1532 53.8444V54.3088H19.0313V53.8868C19.0313 50.2979 19.0523 46.709 19.0313 43.1205C19.0313 41.2417 18.3768 39.5949 17.0047 38.2861C16.0969 37.4206 14.9992 36.914 13.7327 36.7451C12.086 36.5128 10.587 36.914 9.25736 37.9062C7.92731 38.9196 7.14624 40.2918 6.89294 41.917C6.76638 42.6983 6.7452 43.5007 6.7452 44.3026C6.7242 47.4905 6.7452 50.6568 6.7452 53.8444V54.2877H0.665515V53.8868C0.665515 50.0232 0.623145 46.139 0.686515 42.2758C0.728701 40.2285 1.38322 38.2861 2.45978 36.5128C4.25405 33.5574 6.80839 31.6576 10.165 30.8764C11.2246 30.6402 12.31 30.5409 13.3949 30.5809C16.7515 30.7286 19.6223 32.0585 21.9023 34.5706C23.5278 36.3859 24.5622 38.4968 24.9211 40.9248C25.0666 41.809 25.1513 42.6951 25.1513 43.5609" fill="black"/>
</svg>
