<svg xmlns="http://www.w3.org/2000/svg" viewBox="0 0 90 30.76" width="100" height="40"><path class="inherit-fill" d="M77.63,0V10.74c.17-.22.25-.34.33-.46a7,7,0,0,1,9.29-2.41,4.33,4.33,0,0,1,2.16,2.66A12.23,12.23,0,0,1,90,13.44c.07,2.81.06,5.61,0,8.41a10.33,10.33,0,0,1-.5,2.37.71.71,0,0,1-.82.52c-.6,0-1.2,0-1.88,0,1.07-2,.79-4.17.8-6.28,0-1.91-.06-3.83-.11-5.74a2,2,0,0,0-.06-.42A4.11,4.11,0,0,0,81,9.34a6.64,6.64,0,0,0-3.1,4.51,7.19,7.19,0,0,0-.22,1.79c0,2.15,0,4.29,0,6.44,0,.86.11,1.72.18,2.6H75c0-1.41.14-2.81.14-4.2,0-5.6,0-11.21,0-16.81A6.93,6.93,0,0,0,74.62.42L77.21,0Z"/><path class="inherit-fill" d="M0,7.36,2.78,7v3.7c.15-.18.21-.23.25-.29a6.89,6.89,0,0,1,9.5-2.73,7.84,7.84,0,0,1,4.25,6.25,10.72,10.72,0,0,1-.89,6.38,7.62,7.62,0,0,1-9.48,4,5.47,5.47,0,0,1-3-2.34l-.21-.3H3.12s-.06.07-.06.11c0,2.15,0,4.3.06,6.44a14.7,14.7,0,0,0,.55,2.56,15.07,15.07,0,0,1-2.1,0c-.23,0-.52-.46-.58-.75A11,11,0,0,1,.6,27.49c0-4.94,0-9.89,0-14.84,0-.84,0-1.67,0-2.5A5.63,5.63,0,0,0,0,7.36Zm14.27,8.73A9.53,9.53,0,0,0,13.09,11a5.07,5.07,0,0,0-2.95-2.38A5.17,5.17,0,0,0,4,11.46a9.87,9.87,0,0,0-.93,5.95,7.37,7.37,0,0,0,1.43,3.67,5.21,5.21,0,0,0,9-1A10.16,10.16,0,0,0,14.27,16.09Z"/><path class="inherit-fill" d="M35.69,15.42H22.14A10.72,10.72,0,0,0,22.26,17,16.72,16.72,0,0,0,23.12,20c1.87,4.17,7.35,3.85,9.41,1a27.36,27.36,0,0,0,1.54-2.7l1.5.2a.62.62,0,0,1,0,.23c-.87,2.91-2.95,5.69-7.08,5.9a11.52,11.52,0,0,1-3.16-.27,7.09,7.09,0,0,1-5.29-4.92A11.25,11.25,0,0,1,20,12.43,7.85,7.85,0,0,1,28,6.8,7,7,0,0,1,35,11.69a20.08,20.08,0,0,1,.63,2.57C35.65,14.62,35.65,15,35.69,15.42Zm-13.4-1.48H33c-.14-.69-.22-1.35-.41-2a4.92,4.92,0,0,0-5.79-3.58A5.93,5.93,0,0,0,22.29,13.94Z"/><path class="inherit-fill" d="M41.19,10.67l-1.6-2.06a18.74,18.74,0,0,1,2.22-1.14,11.59,11.59,0,0,1,7.27-.23,4.42,4.42,0,0,1,3.51,4.29c.12,2.23.12,4.46.21,6.7a24.44,24.44,0,0,0,.24,3A2,2,0,0,0,54.53,23a.42.42,0,0,1,.21.3c0,.29,0,.59,0,.93a5,5,0,0,1-3-.19c-1.06-.48-1.12-1.54-1.36-2.57-.17.19-.3.33-.42.48a8,8,0,0,1-9.11,2.15A4.57,4.57,0,0,1,38,19.82a4.37,4.37,0,0,1,2.68-4.34,16.54,16.54,0,0,1,5.1-1.22A25.12,25.12,0,0,0,49,13.62c1.36-.4,1.56-.8,1.34-2.19a3.4,3.4,0,0,0-2.68-3,7.29,7.29,0,0,0-3.22-.11A4.5,4.5,0,0,0,41.19,10.67ZM50.43,15c-2.08.34-4.06.62-6,1a7.8,7.8,0,0,0-2.08.78A3.05,3.05,0,0,0,40.61,20,3.27,3.27,0,0,0,43,23a5.29,5.29,0,0,0,2.68.09c2.19-.46,3.95-1.57,4.46-3.87A25.47,25.47,0,0,0,50.43,15Z"/><path class="inherit-fill" d="M72,18.86A7.22,7.22,0,0,1,68.6,23.8,8.48,8.48,0,0,1,58,21.44a9.31,9.31,0,0,1-1.56-6.23A12.58,12.58,0,0,1,57,12.3a7.91,7.91,0,0,1,7.31-5.49A7.45,7.45,0,0,1,70.38,9a6.85,6.85,0,0,1,1.48,2.36L70,12.44c-.09-.25-.15-.44-.23-.64a4.82,4.82,0,0,0-4.18-3.45,5.21,5.21,0,0,0-5.14,2.23A8.76,8.76,0,0,0,59,15.85a9.73,9.73,0,0,0,.8,4,5.39,5.39,0,0,0,9.78.36l.14-.28c.18-.39.27-1,.54-1.1A4.88,4.88,0,0,1,72,18.86Z"/></svg>
