<svg width="96" height="34" viewBox="0 0 96 34" fill="none" xmlns="http://www.w3.org/2000/svg">
<path class="inherit-fill" d="M81.9428 0.765625V12.1023C82.1223 11.8701 82.2067 11.7434 82.2912 11.6167C83.2939 10.0232 84.8672 8.87247 86.6896 8.39968C88.5121 7.9269 90.4463 8.16768 92.0973 9.07285C92.6484 9.36112 93.1348 9.75882 93.5268 10.2416C93.9189 10.7244 94.2083 11.2821 94.3773 11.8806C94.7089 12.8754 94.918 13.9069 95.0001 14.9523C95.074 17.9184 95.0634 20.874 95.0001 23.8295C94.9229 24.6812 94.7457 25.5209 94.4723 26.3312C94.4247 26.5155 94.3088 26.6748 94.148 26.7767C93.9873 26.8787 93.7937 26.9156 93.6067 26.8801C92.9734 26.8801 92.3401 26.8801 91.6223 26.8801C92.7517 24.769 92.4562 22.4784 92.4667 20.2512C92.4667 18.2351 92.4034 16.2084 92.3506 14.1923C92.3453 14.0427 92.3241 13.8941 92.2873 13.749C92.2106 12.9985 91.9395 12.2809 91.5008 11.6672C91.062 11.0535 90.4709 10.5647 89.7856 10.2493C89.1003 9.93381 88.3446 9.8025 87.593 9.86831C86.8415 9.93411 86.1201 10.1948 85.5001 10.6245C84.6477 11.1399 83.9149 11.8311 83.3507 12.652C82.7865 13.4729 82.4037 14.4046 82.2278 15.3851C82.0714 16.0026 81.9934 16.6374 81.9956 17.2745C81.9956 19.544 81.9956 21.8028 81.9956 24.0723C81.9956 24.9801 82.1117 25.8878 82.1856 26.8167H79.1667C79.1667 25.3284 79.3145 23.8506 79.3145 22.3834C79.3145 16.4723 79.3145 10.5506 79.3145 4.63951C79.4097 3.46851 79.2214 2.29181 78.7656 1.20896L81.4995 0.765625H81.9428Z" fill="black"/>
<path class="inherit-fill" d="M0 8.53455L2.93444 8.15455V12.0601C3.09278 11.8701 3.15611 11.8173 3.19833 11.754C3.65708 10.8961 4.28329 10.1389 5.03988 9.52736C5.79648 8.91579 6.66809 8.46223 7.60311 8.19353C8.53813 7.92484 9.51755 7.84647 10.4834 7.96306C11.4493 8.07966 12.3819 8.38885 13.2261 8.87233C14.4692 9.50483 15.5323 10.4413 16.3166 11.5947C17.1009 12.748 17.581 14.081 17.7122 15.4696C18.0969 17.7576 17.7689 20.1086 16.7728 22.204C15.9341 24.0309 14.4418 25.4776 12.5897 26.2591C10.7376 27.0406 8.65999 27.1002 6.76611 26.4262C5.449 26.0083 4.32543 25.132 3.59945 23.9562L3.37778 23.6396H3.29333C3.29333 23.6396 3.23 23.7134 3.23 23.7557C3.23 26.0251 3.23 28.2946 3.29333 30.5534C3.40609 31.4697 3.60037 32.374 3.87389 33.2557C3.1359 33.3072 2.39521 33.3072 1.65722 33.2557C1.41444 33.2557 1.10833 32.7701 1.045 32.464C0.803499 31.5894 0.665334 30.6896 0.633333 29.7829C0.633333 24.5684 0.633333 19.3434 0.633333 14.1184C0.633333 13.2318 0.633333 12.3557 0.633333 11.4796C0.678653 10.4598 0.460535 9.44553 0 8.53455V8.53455ZM15.0628 17.7496C15.1562 15.8776 14.7248 14.0167 13.8172 12.3768C13.1431 11.1683 12.0271 10.2679 10.7033 9.86455C9.44311 9.50222 8.09454 9.60577 6.90441 10.1563C5.71427 10.7067 4.76213 11.6674 4.22222 12.8623C3.24871 14.8025 2.90551 16.9982 3.24056 19.1429C3.38294 20.5472 3.90473 21.8863 4.75 23.0168C5.32065 23.8024 6.08913 24.4229 6.97733 24.8153C7.86553 25.2077 8.84178 25.3579 9.80685 25.2506C10.7719 25.1434 11.6914 24.7826 12.4718 24.2048C13.2522 23.627 13.8657 22.8529 14.25 21.9612C14.8018 20.6264 15.0782 19.1938 15.0628 17.7496V17.7496Z" fill="black"/>
<path class="inherit-fill" d="M37.6728 17.0422H23.37C23.3711 17.6005 23.4134 18.158 23.4967 18.71C23.6999 19.7916 24.0038 20.8517 24.4045 21.8767C26.3784 26.2784 32.1628 25.9406 34.3373 22.9322C34.9327 22.0138 35.4754 21.0623 35.9628 20.0822L37.5462 20.2934C37.5613 20.3736 37.5613 20.4559 37.5462 20.5361C36.6278 23.6078 34.4323 26.5422 30.0728 26.7639C28.9531 26.8231 27.8307 26.7272 26.7373 26.4789C25.4265 26.1932 24.2166 25.5604 23.2343 24.6468C22.2519 23.7331 21.5332 22.5722 21.1534 21.2856C20.3516 18.8865 20.3368 16.2942 21.1112 13.8861C21.6383 12.086 22.7606 10.518 24.2945 9.43854C25.8284 8.35904 27.6832 7.83192 29.5556 7.94335C31.1841 7.86808 32.7918 8.33349 34.1282 9.26709C35.4647 10.2007 36.4548 11.5501 36.9445 13.105C37.2256 13.9937 37.4477 14.8999 37.6095 15.8178C37.6306 16.1978 37.6306 16.5989 37.6728 17.0422ZM23.5284 15.48H34.8334C34.6856 14.7517 34.6012 14.055 34.4006 13.3689C34.0654 12.0727 33.2426 10.956 32.1038 10.2519C30.965 9.54774 29.5983 9.31064 28.2889 9.59002C26.9609 9.9169 25.7765 10.6697 24.9168 11.7334C24.0571 12.797 23.5695 14.113 23.5284 15.48V15.48Z" fill="black"/>
<path class="inherit-fill" d="M43.4781 12.0284L41.7892 9.85395C42.5427 9.40122 43.3256 8.99922 44.1326 8.65062C46.5982 7.74833 49.2887 7.66321 51.8065 8.40784C52.8479 8.62691 53.7831 9.19542 54.457 10.0191C55.1309 10.8427 55.503 11.872 55.5115 12.9362C55.6381 15.2901 55.6381 17.644 55.7331 20.0084C55.7524 21.0682 55.837 22.1257 55.9865 23.1751C56.0227 23.6111 56.1935 24.025 56.4753 24.3597C56.757 24.6944 57.1358 24.9333 57.5592 25.0434C57.6177 25.076 57.668 25.1215 57.7064 25.1763C57.7448 25.2311 57.7703 25.294 57.7809 25.3601C57.7809 25.6662 57.7809 25.9828 57.7809 26.3417C56.7298 26.6013 55.6242 26.5313 54.6142 26.1412C53.4953 25.6345 53.432 24.5156 53.1787 23.4284C52.9992 23.629 52.862 23.7767 52.7353 23.9351C51.5738 25.2752 50.0199 26.2156 48.2938 26.6229C46.5678 27.0303 44.7574 26.8839 43.1192 26.2045C42.2224 25.8402 41.4559 25.2146 40.9194 24.4089C40.3829 23.6032 40.1012 22.6547 40.1109 21.6867C40.0434 20.7231 40.2801 19.7625 40.7876 18.9406C41.2952 18.1187 42.048 17.4768 42.9398 17.1056C44.6543 16.3928 46.4716 15.9581 48.3231 15.8178C49.4696 15.667 50.605 15.4413 51.722 15.1423C53.1576 14.7201 53.3687 14.2978 53.1365 12.8306C53.0632 12.0705 52.7493 11.3535 52.2406 10.784C51.7318 10.2145 51.0547 9.82214 50.3076 9.66395C49.1974 9.37224 48.0361 9.33256 46.9087 9.54784C46.184 9.6679 45.497 9.95439 44.9018 10.3848C44.3065 10.8152 43.8192 11.3778 43.4781 12.0284V12.0284ZM53.2315 16.599C51.0359 16.9578 48.9459 17.2534 46.8981 17.6545C46.1307 17.8228 45.3914 18.1001 44.7026 18.4778C44.0699 18.7694 43.5489 19.2583 43.2177 19.8712C42.8866 20.484 42.7631 21.1878 42.8659 21.8767C42.8993 22.603 43.1612 23.3002 43.6142 23.8688C44.0673 24.4374 44.6883 24.8485 45.3887 25.0434C46.3078 25.3175 47.2821 25.3502 48.2176 25.1384C50.5292 24.6528 52.387 23.4812 52.9253 21.0534C53.1507 19.5796 53.2531 18.0897 53.2315 16.599Z" fill="black"/>
<path class="inherit-fill" d="M76 20.6734C75.8103 21.7489 75.3917 22.7712 74.7725 23.6708C74.1533 24.5705 73.348 25.3266 72.4111 25.8878C70.5493 26.8472 68.41 27.1234 66.3656 26.6682C64.3212 26.2131 62.5011 25.0554 61.2222 23.3967C59.9107 21.4694 59.327 19.1386 59.5755 16.8206C59.6509 15.777 59.8493 14.746 60.1666 13.7489C60.6948 12.1031 61.7207 10.6618 63.1027 9.62383C64.4848 8.58585 66.155 8.00238 67.8828 7.95393C69.0557 7.83428 70.2406 7.97991 71.3496 8.38005C72.4587 8.78019 73.4636 9.4246 74.29 10.2656C74.9758 10.9802 75.5076 11.8281 75.8522 12.7567L73.8889 13.8967C73.7939 13.6328 73.7305 13.4323 73.6461 13.2212C73.3605 12.2418 72.7871 11.3708 72.0003 10.7214C71.2135 10.072 70.2496 9.67416 69.2339 9.57949C68.1992 9.41425 67.1389 9.54801 66.1777 9.96502C65.2165 10.382 64.3945 11.0649 63.8083 11.9334C62.7179 13.5769 62.1816 15.5261 62.2778 17.4962C62.2577 18.9474 62.5455 20.3864 63.1222 21.7184C63.5412 22.7209 64.2385 23.5825 65.1317 24.2012C66.0248 24.82 67.0765 25.1701 68.1623 25.21C69.2482 25.25 70.3227 24.9782 71.259 24.4268C72.1952 23.8754 72.954 23.0674 73.4455 22.0984L73.5933 21.8028C73.7833 21.3912 73.8783 20.7473 74.1633 20.6417C74.7725 20.5421 75.3946 20.5529 76 20.6734V20.6734Z" fill="black"/>
</svg>
