<?xml version="1.0" encoding="utf-8"?>
<!-- Generator: Adobe Illustrator 18.0.0, SVG Export Plug-In . SVG Version: 6.00 Build 0)  -->
<!DOCTYPE svg PUBLIC "-//W3C//DTD SVG 1.1//EN" "http://www.w3.org/Graphics/SVG/1.1/DTD/svg11.dtd">
<svg version="1.1" id="Слой_1" xmlns="http://www.w3.org/2000/svg" xmlns:xlink="http://www.w3.org/1999/xlink" x="0px" y="0px" width="90" height="19"
	 viewBox="0 0 90 19" enable-background="new 0 0 90 19" xml:space="preserve">
<path d="M10.5,9.7c0.9-1.1,1.4-2.5,1.3-3.9c0-1.5-0.5-2.9-1.4-4C9.3,0.6,7.7-0.1,6,0H0v18.9h3.1v-7.4h2.8l3,7.5h3.4L9,10.9
	C9.5,10.6,10,10.2,10.5,9.7L10.5,9.7z M6,8.4H3.1V3.2h3c1.9,0,2.7,0.9,2.7,2.6C8.7,6.8,8.4,8.4,6,8.4L6,8.4z M23.5,0l-5.6,18.9h3.2
	l1.3-4.6h5.5l1.3,4.6h3.3L26.8,0H23.5z M23.3,11.1l1.8-6.3l1.9,6.3L23.3,11.1L23.3,11.1z M44.5,0h-5.4v18.9h5.4
	c2.6,0,4.6-1.1,5.6-2.9c1-1.9,1.3-4.4,1.3-6.6c0-2.2-0.2-4.6-1.2-6.4C49,1.1,47,0,44.5,0z M47.2,14.7c-0.7,0.7-1.7,1.2-2.7,1.1h-2.3
	V3.2h2.3c1-0.1,1.9,0.3,2.6,1c1,1.1,1.1,3.1,1.1,5.2C48.2,11.5,48.1,13.6,47.2,14.7L47.2,14.7z M61.8,10.7h6.7V7.5h-6.7V3.2h8.8V0
	H58.7v18.9h11.9v-3.2h-8.8L61.8,10.7L61.8,10.7z M87,0v12.5L81.2,0h-3.4v18.9h3V6.5l5.7,12.4H90V0H87z"/>
</svg>
