<?xml version="1.0" encoding="utf-8"?>
<!-- Generator: Adobe Illustrator 18.0.0, SVG Export Plug-In . SVG Version: 6.00 Build 0)  -->
<!DOCTYPE svg PUBLIC "-//W3C//DTD SVG 1.1//EN" "http://www.w3.org/Graphics/SVG/1.1/DTD/svg11.dtd">
<svg version="1.1" id="Слой_1" xmlns="http://www.w3.org/2000/svg" xmlns:xlink="http://www.w3.org/1999/xlink" x="0px" y="0px" width="100" height="17"
	 viewBox="0 0 100 17" enable-background="new 0 0 100 17" xml:space="preserve">
<path d="M56.8,10h8.6V6.8h-8.6V3.4h8.8V0H52v17h13.9v-3.4h-9.1C56.8,13.6,56.8,10,56.8,10z M78.4,10c3.3-0.5,5.2-2.4,5.2-5.2
	c0-3-1.9-4.8-6.9-4.8H68v17h4.8v-6.7H73c5.9,0,3.8,3,6.4,6.7h5.4v-0.1C82,13.4,83.5,10.8,78.4,10L78.4,10z M75.9,7.5h-3.1V3.1h3.1
	c1.9,0,2.8,0.6,2.9,2.1C78.8,6.7,77.8,7.5,75.9,7.5z M90.9,13.6V10h8.6V6.8h-8.6V3.4h8.8V0H86.1v17H100v-3.4
	C100,13.6,90.9,13.6,90.9,13.6z M46.5,0l-4.3,12.1L37.9,0h-5.1l6.5,17h5l6.5-17H46.5z M22.9,10h8.6V6.8h-8.6V3.4h8.8V0H18.1v17H32
	v-3.4h-9.1C22.9,13.6,22.9,10,22.9,10z M10.4,10c3.3-0.5,5.2-2.4,5.2-5.2c0-3-1.9-4.8-6.9-4.8H0v17h4.8v-6.7H5c5.9,0,3.8,3,6.4,6.7
	h5.4v-0.1C14,13.4,15.4,10.8,10.4,10L10.4,10z M7.9,7.5H4.8V3.1h3.1c1.9,0,2.8,0.6,2.9,2.1C10.8,6.7,9.8,7.5,7.9,7.5z"/>
</svg>
