<svg xmlns="http://www.w3.org/2000/svg" width="150" height="26"><path d="M38.4 12.9c-.4-.3-.8-.5-1.2-.7-.4-.2-.9-.3-1.3-.5l-1.1-.3c-.3-.1-.5-.2-.8-.3-.2-.1-.4-.3-.6-.5-.1-.2-.2-.4-.2-.6 0-.4.2-.8.5-1 .3-.4.8-.6 1.3-.5 1 0 1.9.5 2.4 1.3l2-1.6-.8-.8c-.3-.2-.6-.4-1-.6-.4-.2-.8-.3-1.2-.4-.5-.1-1-.2-1.4-.1-.6 0-1.2.1-1.7.3-.5.2-1 .5-1.4.8-.4.3-.7.7-.9 1.2-.3.4-.4.9-.4 1.4 0 .5.1 1.1.3 1.5.2.4.5.7.9 1 .4.3.8.5 1.2.7.4.2.9.3 1.3.5l1 .3c.3.1.6.2.9.4.2.1.4.3.6.5.2.2.2.4.2.7 0 .5-.2.9-.5 1.2-.4.4-.9.6-1.5.5-.6 0-1.1-.1-1.6-.4-.5-.3-1-.8-1.3-1.3L30 17.1c.6.7 1.3 1.3 2.1 1.7.9.5 2 .7 3 .7.7 0 1.3-.1 1.9-.3.5-.2 1-.5 1.4-.9.4-.4.7-.8.9-1.3.2-.5.3-1 .3-1.5s-.1-1.1-.3-1.6c-.2-.3-.5-.7-.9-1zm45.9-7.2l-2.4 1.6v1.6h-1.8v2.2h1.8v4c0 .7.1 1.4.2 2.1.1.5.3 1 .7 1.4.4.4.8.6 1.3.7.7.2 1.4.2 2 .2h.3v-2.3c-.4 0-.8 0-1.1-.1-.5 0-.9-.4-.9-1-.1-.4-.1-.7-.1-1.1v-4h2.1V8.9h-2.1V5.7zM67.8 8.9v1.4c-.4-.5-.9-.8-1.5-1-.6-.2-1.2-.4-1.9-.3-.7 0-1.3.1-1.9.4-1.3.5-2.3 1.4-2.8 2.7-.3.7-.5 1.5-.4 2.3 0 .8.1 1.5.5 2.2.3.6.7 1.2 1.2 1.6 1 .9 2.2 1.4 3.5 1.4.7 0 1.3-.1 1.9-.4.6-.3 1.1-.6 1.5-1.1v1.5h2.4V8.9h-2.5zm-.1 6.5c-.2.4-.4.7-.7 1-.3.3-.6.5-1 .7-.8.3-1.7.3-2.5 0-.4-.1-.7-.4-1-.6-.3-.3-.5-.6-.7-1-.2-.4-.2-.8-.2-1.2 0-.4.1-.8.2-1.2.2-.4.4-.7.7-1 .3-.3.6-.5 1-.6.8-.3 1.7-.3 2.5 0 .4.1.7.4 1 .6.3.3.5.6.7 1 .2.4.2.8.2 1.2 0 .3-.1.7-.2 1.1zm9.7-6.5c-1.1-.1-2.2.5-2.7 1.6V8.9h-2.4v10.6h2.4v-5.7c-.1-.7.1-1.4.5-2 .4-.4 1-.6 1.6-.6.3 0 .6 0 .9.1l.6.3.9-2.3c-.2-.1-.5-.2-.8-.3-.3 0-.7-.1-1-.1zm-23.9 0c-.7 0-1.4.2-2 .5-.6.3-1.1.8-1.4 1.3-.3-.6-.8-1-1.3-1.3-.6-.3-1.4-.5-2.1-.5-.6 0-1.2.1-1.7.4-.5.2-.9.6-1.3 1V8.9h-2.4v10.6h2.4v-5.7c-.1-.7.2-1.5.7-2.1.4-.5 1.1-.7 1.7-.7.6 0 1.2.2 1.6.6.4.5.6 1.1.6 1.7v6.1h2.4v-5.8c-.1-.7.2-1.5.7-2 .4-.4 1-.7 1.6-.7.6 0 1.3.2 1.7.7.4.5.6 1.1.6 1.8v6h2.6v-6.3c.1-1.2-.3-2.3-1.1-3.2-1-.7-2.2-1.1-3.3-1zm34.3-.1h3.5v10.7h2.4V8.8h3.5V6.5h-9.5v2.3zm58.9 5.2c-.4-.2-.8-.4-1.2-.5-.4-.1-.9-.2-1.3-.3-.6-.1-1.2-.3-1.8-.5-.4-.1-.6-.4-.6-.7 0-.3.2-.6.4-.8.4-.2.8-.4 1.3-.3.5 0 .9.1 1.3.3.4.2.7.5.9.8l2.1-1c-.4-.7-1-1.2-1.7-1.6-.8-.4-1.7-.6-2.6-.6-.6 0-1.1.1-1.7.3-.5.1-.9.4-1.3.7-.3.3-.6.6-.8 1-.4.8-.4 1.7 0 2.5.2.3.5.6.8.9.4.2.8.4 1.2.5.4.1.9.2 1.3.3l.9.2c.3 0 .5.1.8.2.2.1.4.2.5.3.1.1.2.3.2.4 0 .3-.2.7-.5.9-.4.3-.9.4-1.4.4-.5 0-1.1-.1-1.5-.4-.4-.3-.8-.6-1-1.1l-2.2 1c.4.8 1 1.5 1.8 1.9.9.5 1.9.7 2.9.6.7 0 1.3-.1 1.9-.3.5-.2 1-.5 1.3-.8.3-.3.6-.7.8-1.1.2-.4.2-.7.3-1.1 0-.5-.1-.9-.3-1.3-.1-.3-.4-.6-.8-.8zM135 8.9v1.5c-.4-.5-.9-.9-1.5-1.1-.6-.3-1.3-.4-1.9-.4-.7 0-1.3.1-1.9.4-1.3.5-2.3 1.4-2.8 2.7-.3.7-.5 1.5-.4 2.3 0 .8.1 1.5.5 2.2.3.6.7 1.2 1.2 1.6 1 .9 2.2 1.4 3.6 1.4.7 0 1.3-.1 2-.4.6-.3 1.1-.7 1.5-1.2v1.2c0 .4-.1.8-.2 1.2-.1.4-.3.7-.6 1-.6.6-1.4.9-2.2.9-.7 0-1.4-.1-2-.5-.5-.4-1-1-1.3-1.6l-2.2 1.3c.2.4.5.9.9 1.2.3.4.7.7 1.2 1 .5.3 1 .5 1.5.6.6.2 1.2.2 1.9.2.8 0 1.6-.1 2.3-.4 1.3-.5 2.3-1.6 2.7-2.9.2-.7.4-1.4.3-2.1V8.9H135zm-.1 6.5c-.2.4-.4.7-.7 1-.3.3-.6.5-1 .7-.8.3-1.7.3-2.5 0-.4-.1-.7-.4-1-.6-.6-.6-.9-1.4-.9-2.2 0-.4.1-.8.2-1.2.2-.4.4-.7.7-1 .3-.3.6-.5 1-.6.8-.3 1.7-.3 2.5 0 .4.1.7.4 1 .6.3.3.5.6.7 1 .2.4.2.8.2 1.2.1.3 0 .7-.2 1.1.1 0 0 0 0 0zm-30.4-6.5c-.6 0-1.2.1-1.8.4-.5.3-1 .6-1.3 1.1V6.5H99v13h2.4v-5.7c0-.4.1-.8.2-1.2.1-.3.3-.6.5-.9.2-.2.5-.4.8-.5.3-.1.6-.2 1-.2.7 0 1.3.2 1.8.7.4.5.6 1.2.6 1.9v5.9h2.5v-6.2c.1-1.2-.3-2.4-1.1-3.3-1-.7-2.1-1.1-3.2-1.1zm16.2 0c-.6 0-1.3.1-1.8.4-.5.3-1 .6-1.3 1.1V8.9h-2.4v10.6h2.4v-5.7c-.1-.8.2-1.5.7-2.1.5-.5 1.1-.7 1.8-.7s1.3.2 1.8.7c.4.5.6 1.2.6 1.9v5.9h2.4v-6.2c.1-1.2-.3-2.4-1.1-3.3-.9-.7-1.9-1.1-3.1-1.1zm-10 0h2.4v10.6h-2.4V8.9zm1.2-4.1c-.4 0-.8.1-1.1.4-.3.3-.4.7-.4 1.1 0 .8.6 1.6 1.5 1.6.2 0 .4 0 .7-.1.6-.2 1-.8.9-1.5 0-.4-.1-.8-.4-1.1-.4-.3-.8-.5-1.2-.4zM12.9 0C5.8 0 0 5.8 0 13s5.8 13 12.9 13 12.9-5.8 12.9-13c0-3.4-1.4-6.8-3.8-9.2C19.7 1.4 16.4 0 12.9 0zm0 22.7c-5.4 0-9.7-4.4-9.7-9.8s4.3-9.8 9.7-9.8c5.4 0 9.7 4.4 9.7 9.8 0 5.5-4.3 9.8-9.7 9.8zm135.6-17v.2h-.4v1.3h-.2V5.9h-.4v-.2h1zm1.5 0v1.5h-.2V6.1l-.4.9h-.2l-.4-.9v1.2h-.2V5.7h.2l.4 1 .4-1h.4z"/></svg>