<?xml version="1.0" encoding="utf-8"?>
<!-- Generator: Adobe Illustrator 18.0.0, SVG Export Plug-In . SVG Version: 6.00 Build 0)  -->
<!DOCTYPE svg PUBLIC "-//W3C//DTD SVG 1.1//EN" "http://www.w3.org/Graphics/SVG/1.1/DTD/svg11.dtd">
<svg version="1.1" id="Слой_1" xmlns="http://www.w3.org/2000/svg" xmlns:xlink="http://www.w3.org/1999/xlink" x="0px" y="0px" width="150" height="26"
	 viewBox="0 0 150 26" enable-background="new 0 0 150 26" xml:space="preserve">
<path d="M38.4,12.9c-0.4-0.3-0.8-0.5-1.2-0.7c-0.4-0.2-0.9-0.3-1.3-0.5l-1.1-0.3c-0.3-0.1-0.5-0.2-0.8-0.3c-0.2-0.1-0.4-0.3-0.6-0.5
	c-0.1-0.2-0.2-0.4-0.2-0.6c0-0.4,0.2-0.8,0.5-1C34,8.6,34.5,8.4,35,8.5c1,0,1.9,0.5,2.4,1.3l2-1.6c-0.3-0.3-0.5-0.5-0.8-0.8
	c-0.3-0.2-0.6-0.4-1-0.6c-0.4-0.2-0.8-0.3-1.2-0.4c-0.5-0.1-1-0.2-1.4-0.1c-0.6,0-1.2,0.1-1.7,0.3c-0.5,0.2-1,0.5-1.4,0.8
	c-0.4,0.3-0.7,0.7-0.9,1.2C30.7,9,30.6,9.5,30.6,10c0,0.5,0.1,1.1,0.3,1.5c0.2,0.4,0.5,0.7,0.9,1c0.4,0.3,0.8,0.5,1.2,0.7
	c0.4,0.2,0.9,0.3,1.3,0.5l1,0.3c0.3,0.1,0.6,0.2,0.9,0.4c0.2,0.1,0.4,0.3,0.6,0.5c0.2,0.2,0.2,0.4,0.2,0.7c0,0.5-0.2,0.9-0.5,1.2
	c-0.4,0.4-0.9,0.6-1.5,0.5c-0.6,0-1.1-0.1-1.6-0.4c-0.5-0.3-1-0.8-1.3-1.3L30,17.1c0.6,0.7,1.3,1.3,2.1,1.7c0.9,0.5,2,0.7,3,0.7
	c0.7,0,1.3-0.1,1.9-0.3c0.5-0.2,1-0.5,1.4-0.9c0.4-0.4,0.7-0.8,0.9-1.3c0.2-0.5,0.3-1,0.3-1.5c0-0.5-0.1-1.1-0.3-1.6
	C39.1,13.6,38.8,13.2,38.4,12.9L38.4,12.9z M84.3,5.7l-2.4,1.6v1.6h-1.8v2.2h1.8v4c0,0.7,0.1,1.4,0.2,2.1c0.1,0.5,0.3,1,0.7,1.4
	c0.4,0.4,0.8,0.6,1.3,0.7c0.7,0.2,1.4,0.2,2,0.2h0.3v-2.3c-0.4,0-0.8,0-1.1-0.1c-0.5,0-0.9-0.4-0.9-1c-0.1-0.4-0.1-0.7-0.1-1.1v-4
	h2.1V8.9h-2.1L84.3,5.7L84.3,5.7z M67.8,8.9v1.4c-0.4-0.5-0.9-0.8-1.5-1c-0.6-0.2-1.2-0.4-1.9-0.3c-0.7,0-1.3,0.1-1.9,0.4
	c-1.3,0.5-2.3,1.4-2.8,2.7c-0.3,0.7-0.5,1.5-0.4,2.3c0,0.8,0.1,1.5,0.5,2.2c0.3,0.6,0.7,1.2,1.2,1.6c1,0.9,2.2,1.4,3.5,1.4
	c0.7,0,1.3-0.1,1.9-0.4c0.6-0.3,1.1-0.6,1.5-1.1v1.5h2.4V8.9H67.8L67.8,8.9z M67.7,15.4c-0.2,0.4-0.4,0.7-0.7,1
	c-0.3,0.3-0.6,0.5-1,0.7c-0.8,0.3-1.7,0.3-2.5,0c-0.4-0.1-0.7-0.4-1-0.6c-0.3-0.3-0.5-0.6-0.7-1c-0.2-0.4-0.2-0.8-0.2-1.2
	c0-0.4,0.1-0.8,0.2-1.2c0.2-0.4,0.4-0.7,0.7-1c0.3-0.3,0.6-0.5,1-0.6c0.8-0.3,1.7-0.3,2.5,0c0.4,0.1,0.7,0.4,1,0.6
	c0.3,0.3,0.5,0.6,0.7,1c0.2,0.4,0.2,0.8,0.2,1.2C67.9,14.6,67.8,15,67.7,15.4C67.7,15.4,67.7,15.4,67.7,15.4z M77.4,8.9
	c-1.1-0.1-2.2,0.5-2.7,1.6V8.9h-2.4v10.6h2.4v-5.7c-0.1-0.7,0.1-1.4,0.5-2c0.4-0.4,1-0.6,1.6-0.6c0.3,0,0.6,0,0.9,0.1
	c0.2,0.1,0.4,0.2,0.6,0.3l0.9-2.3C79,9.2,78.7,9.1,78.4,9C78.1,9,77.7,8.9,77.4,8.9L77.4,8.9z M53.5,8.9c-0.7,0-1.4,0.2-2,0.5
	c-0.6,0.3-1.1,0.8-1.4,1.3c-0.3-0.6-0.8-1-1.3-1.3c-0.6-0.3-1.4-0.5-2.1-0.5c-0.6,0-1.2,0.1-1.7,0.4c-0.5,0.2-0.9,0.6-1.3,1V8.9
	h-2.4v10.6h2.4v-5.7c-0.1-0.7,0.2-1.5,0.7-2.1c0.4-0.5,1.1-0.7,1.7-0.7c0.6,0,1.2,0.2,1.6,0.6c0.4,0.5,0.6,1.1,0.6,1.7v6.1h2.4v-5.8
	c-0.1-0.7,0.2-1.5,0.7-2c0.4-0.4,1-0.7,1.6-0.7c0.6,0,1.3,0.2,1.7,0.7c0.4,0.5,0.6,1.1,0.6,1.8v6h2.6v-6.3c0.1-1.2-0.3-2.3-1.1-3.2
	C55.8,9.2,54.6,8.8,53.5,8.9L53.5,8.9z M87.8,8.8h3.5v10.7h2.4V8.8h3.5V6.5h-9.5V8.8z M146.7,14c-0.4-0.2-0.8-0.4-1.2-0.5
	c-0.4-0.1-0.9-0.2-1.3-0.3c-0.6-0.1-1.2-0.3-1.8-0.5c-0.4-0.1-0.6-0.4-0.6-0.7c0-0.3,0.2-0.6,0.4-0.8c0.4-0.2,0.8-0.4,1.3-0.3
	c0.5,0,0.9,0.1,1.3,0.3c0.4,0.2,0.7,0.5,0.9,0.8l2.1-1c-0.4-0.7-1-1.2-1.7-1.6c-0.8-0.4-1.7-0.6-2.6-0.6c-0.6,0-1.1,0.1-1.7,0.3
	c-0.5,0.1-0.9,0.4-1.3,0.7c-0.3,0.3-0.6,0.6-0.8,1c-0.4,0.8-0.4,1.7,0,2.5c0.2,0.3,0.5,0.6,0.8,0.9c0.4,0.2,0.8,0.4,1.2,0.5
	c0.4,0.1,0.9,0.2,1.3,0.3l0.9,0.2c0.3,0,0.5,0.1,0.8,0.2c0.2,0.1,0.4,0.2,0.5,0.3c0.1,0.1,0.2,0.3,0.2,0.4c0,0.3-0.2,0.7-0.5,0.9
	c-0.4,0.3-0.9,0.4-1.4,0.4c-0.5,0-1.1-0.1-1.5-0.4c-0.4-0.3-0.8-0.6-1-1.1l-2.2,1c0.4,0.8,1,1.5,1.8,1.9c0.9,0.5,1.9,0.7,2.9,0.6
	c0.7,0,1.3-0.1,1.9-0.3c0.5-0.2,1-0.5,1.3-0.8c0.3-0.3,0.6-0.7,0.8-1.1c0.2-0.4,0.2-0.7,0.3-1.1c0-0.5-0.1-0.9-0.3-1.3
	C147.4,14.5,147.1,14.2,146.7,14L146.7,14z M135,8.9v1.5c-0.4-0.5-0.9-0.9-1.5-1.1c-0.6-0.3-1.3-0.4-1.9-0.4c-0.7,0-1.3,0.1-1.9,0.4
	c-1.3,0.5-2.3,1.4-2.8,2.7c-0.3,0.7-0.5,1.5-0.4,2.3c0,0.8,0.1,1.5,0.5,2.2c0.3,0.6,0.7,1.2,1.2,1.6c1,0.9,2.2,1.4,3.6,1.4
	c0.7,0,1.3-0.1,2-0.4c0.6-0.3,1.1-0.7,1.5-1.2v1.2c0,0.4-0.1,0.8-0.2,1.2c-0.1,0.4-0.3,0.7-0.6,1c-0.6,0.6-1.4,0.9-2.2,0.9
	c-0.7,0-1.4-0.1-2-0.5c-0.5-0.4-1-1-1.3-1.6l-2.2,1.3c0.2,0.4,0.5,0.9,0.9,1.2c0.3,0.4,0.7,0.7,1.2,1c0.5,0.3,1,0.5,1.5,0.6
	c0.6,0.2,1.2,0.2,1.9,0.2c0.8,0,1.6-0.1,2.3-0.4c1.3-0.5,2.3-1.6,2.7-2.9c0.2-0.7,0.4-1.4,0.3-2.1V8.9L135,8.9L135,8.9z M134.9,15.4
	c-0.2,0.4-0.4,0.7-0.7,1c-0.3,0.3-0.6,0.5-1,0.7c-0.8,0.3-1.7,0.3-2.5,0c-0.4-0.1-0.7-0.4-1-0.6c-0.6-0.6-0.9-1.4-0.9-2.2
	c0-0.4,0.1-0.8,0.2-1.2c0.2-0.4,0.4-0.7,0.7-1c0.3-0.3,0.6-0.5,1-0.6c0.8-0.3,1.7-0.3,2.5,0c0.4,0.1,0.7,0.4,1,0.6
	c0.3,0.3,0.5,0.6,0.7,1c0.2,0.4,0.2,0.8,0.2,1.2C135.2,14.6,135.1,15,134.9,15.4C135,15.4,134.9,15.4,134.9,15.4z M104.5,8.9
	c-0.6,0-1.2,0.1-1.8,0.4c-0.5,0.3-1,0.6-1.3,1.1V6.5h-2.4v13h2.4v-5.7c0-0.4,0.1-0.8,0.2-1.2c0.1-0.3,0.3-0.6,0.5-0.9
	c0.2-0.2,0.5-0.4,0.8-0.5c0.3-0.1,0.6-0.2,1-0.2c0.7,0,1.3,0.2,1.8,0.7c0.4,0.5,0.6,1.2,0.6,1.9v5.9h2.5v-6.2
	c0.1-1.2-0.3-2.4-1.1-3.3C106.7,9.3,105.6,8.9,104.5,8.9L104.5,8.9z M120.7,8.9c-0.6,0-1.3,0.1-1.8,0.4c-0.5,0.3-1,0.6-1.3,1.1V8.9
	h-2.4v10.6h2.4v-5.7c-0.1-0.8,0.2-1.5,0.7-2.1c0.5-0.5,1.1-0.7,1.8-0.7c0.7,0,1.3,0.2,1.8,0.7c0.4,0.5,0.6,1.2,0.6,1.9v5.9h2.4v-6.2
	c0.1-1.2-0.3-2.4-1.1-3.3C122.9,9.3,121.9,8.9,120.7,8.9L120.7,8.9z M110.7,8.9h2.4v10.6h-2.4V8.9L110.7,8.9z M111.9,4.8
	c-0.4,0-0.8,0.1-1.1,0.4c-0.3,0.3-0.4,0.7-0.4,1.1c0,0.8,0.6,1.6,1.5,1.6c0.2,0,0.4,0,0.7-0.1c0.6-0.2,1-0.8,0.9-1.5
	c0-0.4-0.1-0.8-0.4-1.1C112.7,4.9,112.3,4.7,111.9,4.8L111.9,4.8z M12.9,0C5.8,0,0,5.8,0,13s5.8,13,12.9,13s12.9-5.8,12.9-13
	c0-3.4-1.4-6.8-3.8-9.2C19.7,1.4,16.4,0,12.9,0z M12.9,22.7c-5.4,0-9.7-4.4-9.7-9.8s4.3-9.8,9.7-9.8c5.4,0,9.7,4.4,9.7,9.8v0
	C22.6,18.4,18.3,22.7,12.9,22.7z M148.5,5.7v0.2h-0.4v1.3h-0.2V5.9h-0.4V5.7L148.5,5.7L148.5,5.7z M150,5.7v1.5h-0.2V6.1l-0.4,0.9
	h-0.2l-0.4-0.9v1.2h-0.2V5.7h0.2l0.4,1l0.4-1L150,5.7L150,5.7z"/>
</svg>
