<svg width="122" height="60" viewBox="0 0 122 60" xmlns="http://www.w3.org/2000/svg"><path d="M17.375 8.563c-1.085-.751-3.068-1.878-5.088-1.878a2.983 2.983 0 0 0-1.72.451c-.297.2-.467.543-.449.901 0 .526.075 1.014 1.459 1.315l2.88.638c2.207.489 3.516 1.39 4.264 2.141a6.704 6.704 0 0 1 1.908 4.957c0 2.141-.561 4.132-2.245 5.897-1.42 1.464-4.114 3.192-8.79 3.192-3.815 0-6.358-1.09-8.49-1.953l-.823-.338 2.73-7.06.973.75c.935.714 2.842 1.84 5.05 1.84 1.234 0 1.757-.3 1.944-.45.334-.274.515-.694.487-1.126a1.216 1.216 0 0 0-.3-.864c-.299-.3-.785-.413-1.72-.601l-2.207-.413c-1.422-.263-2.955-.714-4.34-2.141a6.267 6.267 0 0 1-1.776-4.62 8.122 8.122 0 0 1 2.413-5.97C5.442 1.276 8.248 0 12.213 0a14.052 14.052 0 0 1 7.612 2.178l-2.45 6.384zm7.144-8h8.977v14.535c0 .751.075 1.803.786 2.554a2.24 2.24 0 0 0 1.795.676c.935 0 1.496-.263 1.833-.601.673-.676.673-1.99.673-2.63V.565h9.015v15.36c0 1.953-.374 4.807-2.619 7.136-2.543 2.629-6.134 3.117-8.902 3.117-2.282 0-6.434-.225-9.276-3.305-1.946-2.103-2.282-4.47-2.282-6.31V.565zm28.087 25.05V.564h11.97c3.965 0 6.246 1.616 7.294 2.63 2.057 2.028 2.543 4.581 2.543 6.572 0 2.066-.449 4.432-2.469 6.272-2.02 1.84-4.226 2.028-6.134 2.028h-4.376v7.549h-8.828zm8.831-13.858h1.534c.449 0 1.384-.037 2.02-.676.416-.4.635-.963.598-1.54A1.881 1.881 0 0 0 64.916 8a3.13 3.13 0 0 0-1.833-.563h-1.646v4.32zm16.118 13.859V.564h16.832v6.872h-7.78v2.329h7.07v6.572h-7.07v2.404h8.027v6.873H77.555zm20.947 0V.564h11.262c2.619 0 5.35.3 7.631 2.591 1.272 1.277 2.356 3.192 2.356 6.16 0 2.215-.673 3.605-1.383 4.468a5.953 5.953 0 0 1-3.442 1.99V16c.528.271.978.672 1.31 1.164l5.61 8.45H111.41l-3.59-7.323a4.083 4.083 0 0 1-.341-.789l-.15.076v8.037h-8.827zm8.827-13.896h1.051a2.958 2.958 0 0 0 1.908-.563 1.98 1.98 0 0 0 .636-1.54 2.26 2.26 0 0 0-.486-1.503 1.975 1.975 0 0 0-1.534-.676h-1.575v4.282zM13.84 44.26h14.589v.586c0 3.204-.273 7.538-3.367 10.891-2.57 2.772-6.733 4.255-11.008 4.255-5.45 0-8.756-2.185-10.702-4.296C.894 53.048 0 49.886 0 46.446c0-4.758 1.83-7.763 3.58-9.57 2.098-2.185 5.678-4.1 10.892-4.1 2.655-.052 5.28.58 7.623 1.836a12.126 12.126 0 0 1 4.982 4.822l-8.794 3.283a4.04 4.04 0 0 0-3.58-1.99 4.825 4.825 0 0 0-3.306 1.209c-1.047.976-1.904 2.655-1.904 4.92 0 1.76.584 3.556 1.71 4.649a4.322 4.322 0 0 0 3.074 1.172c1.4 0 3.228-.507 3.853-2.228h-4.29V44.26zm42.605 11.564C54.229 58.077 50.609 60 45.67 60c-4.937 0-8.562-1.912-10.776-4.176-2.024-2.073-3.62-5.258-3.62-9.453 0-4.195 1.596-7.346 3.62-9.415 2.214-2.254 5.835-4.18 10.776-4.18s8.566 1.915 10.773 4.18c2.023 2.069 3.62 5.257 3.62 9.415 0 4.157-1.597 7.38-3.62 9.453zM42.286 42.503a5.857 5.857 0 0 0-1.496 3.905 5.548 5.548 0 0 0 1.496 3.869 4.979 4.979 0 0 0 6.767 0 5.473 5.473 0 0 0 1.496-3.869 5.304 5.304 0 0 0-1.496-3.905 4.68 4.68 0 0 0-3.367-1.33 4.479 4.479 0 0 0-3.4 1.33zm46.603 13.32C86.67 58.078 83.054 60 78.112 60c-4.94 0-8.54-1.912-10.783-4.176-2.024-2.073-3.617-5.258-3.617-9.453 0-4.195 1.593-7.346 3.617-9.415 2.218-2.254 5.835-4.18 10.776-4.18s8.558 1.915 10.776 4.18c2.024 2.069 3.617 5.257 3.617 9.415 0 4.157-1.586 7.38-3.61 9.453zm-14.162-13.32a5.876 5.876 0 0 0-1.477 3.905 5.563 5.563 0 0 0 1.477 3.869 4.986 4.986 0 0 0 6.77 0 5.473 5.473 0 0 0 1.497-3.869 5.319 5.319 0 0 0-1.496-3.905 4.688 4.688 0 0 0-3.367-1.33 4.479 4.479 0 0 0-3.404 1.33zM96.55 59.414V33.361h9.999c2.18 0 7.705.196 11.475 3.948 1.676 1.678 3.505 4.608 3.505 9.411 0 2.697-.508 6.174-3.348 9.014-1.556 1.6-4.59 3.669-9.298 3.669l-12.333.011zm9.351-7.966h.704c1.088 0 2.682-.04 4.006-1.213a4.919 4.919 0 0 0 1.518-3.755 5.446 5.446 0 0 0-1.518-3.906c-1.122-1.055-2.619-1.25-3.696-1.25h-1.01l-.004 10.124z" fill="#4C24EA" fill-rule="nonzero"/></svg>