<svg id="Layer_1" data-name="Layer 1" xmlns="http://www.w3.org/2000/svg" width="109" height="49" viewBox="0 0 108.44 48.12"><defs><clipPath id="clip-path" transform="translate(-19.27 -19.28)"><path style="fill:none" d="M0 0h146.98v86.68H0z"/></clipPath><style>.supergood{fill:#0000fe}</style></defs><g style="clip-path:url(#clip-path)"><path class="supergood" d="M41.4 35.05c0 4.52-3.69 7-11.13 7-6.79 0-11-2.46-11-8.61h9.53c0 1.79.71 2.46 1.53 2.46a1.07 1.07 0 0 0 1.23-1.17c0-3.59-12 0-12-8.45 0-4.49 3.72-7 10.83-7 6.82 0 10.7 2.55 10.7 8.45h-9.22c0-1.84-.61-2.61-1.5-2.61s-1.26.49-1.26 1.38c0 3.39 12.29.62 12.29 8.55M64.72 23.41v18h-9.8v-6C54.53 40 52.3 42 48.28 42s-5.78-2.42-5.78-6.14V23.41h9.8v10.45c0 1 .43 1.64 1.31 1.64s1.31-.66 1.31-1.64V23.41zM88.78 30.86c0 6.4-4.34 10.52-10.78 10.52h-2v5.88h-9.8V23.41H76v7.41c.39-5.81 2.58-8.07 6.3-8.07s6.44 2.78 6.44 8.11m-9.47.62c0-1.83-.69-2.68-1.61-2.68-1.07 0-1.66 1.44-1.66 4.08v2.29h.62c1.6 0 2.65-1.67 2.65-3.69M109.7 32.06c0 6.41-3.86 10-10 10s-10.23-3.76-10.23-9.74c0-6.17 4.28-9.54 10.52-9.54s9.74 3.27 9.74 9.31M98.2 30.43h3c-.1-2.39-.49-3.17-1.41-3.17s-1.53 1-1.56 3.17m11.33 1.63H98.39c.66 2.39 2.94 3.76 5.79 3.76s5.13-1.47 5.35-3.76M38.15 54.73H51v2.19c0 6.57-4.4 10.48-12.16 10.48-8.1 0-12.57-4.19-12.57-11.57s4.47-11.58 12.57-11.58c7.76 0 12.16 3.91 12.16 9.23H41a1.82 1.82 0 0 0-2-1.72c-1.41 0-2.41.91-2.41 4.38s1 4.38 2.41 4.38c1.22 0 1.78-.63 1.94-1.88h-2.79zM74.16 57.76c0 5.36-3.54 9.64-10.72 9.64-7.85 0-11.39-4.25-11.39-9.64s3.54-9.64 10.72-9.64c7.85 0 11.39 4.25 11.39 9.64m-9.35 0c0-2.12-.87-2.68-1.7-2.68s-1.71.56-1.71 2.68.87 2.68 1.71 2.68 1.7-.55 1.7-2.68M97 57.76c0 5.36-3.54 9.64-10.72 9.64-7.85 0-11.39-4.25-11.39-9.64s3.54-9.64 10.72-9.64c7.85 0 11.39 4.25 11.39 9.64m-9.35 0c0-2.12-.87-2.68-1.71-2.68s-1.7.56-1.7 2.68.87 2.68 1.7 2.68 1.71-.55 1.71-2.68M120.48 42.69v24.06h-9.8v-7.42c-.39 5.82-2.58 8.07-6.31 8.07s-6.43-2.78-6.43-8.1c0-6.41 4.34-10.52 10.78-10.52h2v-6.09zm-9.8 14.58V55h-.62c-1.6 0-2.65 1.66-2.65 3.69 0 1.83.69 2.68 1.6 2.68 1.08 0 1.67-1.44 1.67-4.09M127.7 22.92V34.5c-2.43-3.44-3.82-3.48-4.86-3.48-1.44 0-2.36 1.08-2.36 3.17v7.19h-9.8v-18h9.8v8.44c.4-6.54 2.71-9.23 7.22-8.92" transform="translate(-19.27 -19.28)"/></g></svg>
