<svg width="94" height="94" viewBox="0 0 94 94" fill="none" xmlns="http://www.w3.org/2000/svg">
<path class="inherit-fill" d="M70.124 82.2499V76.7039C70.124 76.3279 70.124 76.3279 70.5 76.3279H72.004C72.286 76.3279 72.38 76.4219 72.38 76.7039V80.8399C72.38 81.3099 72.474 81.4039 72.944 81.4039H75.858C76.328 81.4039 76.422 81.3099 76.422 80.8399V76.7979C76.422 76.4219 76.422 76.4219 76.798 76.4219H78.302C78.584 76.4219 78.678 76.5159 78.678 76.7979V87.9839C78.678 88.1719 78.584 88.3599 78.396 88.3599H76.798C76.516 88.3599 76.422 88.2659 76.422 87.9839V84.4119C76.422 83.8479 76.328 83.7539 75.764 83.7539H72.944C72.568 83.7539 72.38 83.8479 72.38 84.3179V87.9839C72.38 88.3599 72.38 88.3599 72.004 88.3599H70.5C70.218 88.3599 70.124 88.2659 70.124 87.9839V82.2499V82.2499ZM12.502 82.2499V76.7039C12.502 76.3279 12.502 76.3279 12.878 76.3279H14.288C14.758 76.3279 14.758 76.3279 14.758 76.7979V80.8399C14.758 81.3099 14.852 81.4039 15.322 81.4039H18.236C18.612 81.4039 18.8 81.3099 18.8 80.8399V76.7979C18.8 76.3279 18.8 76.3279 19.27 76.3279H20.68C20.962 76.3279 21.056 76.4219 21.056 76.7039V87.8899C21.056 88.1719 20.962 88.2659 20.68 88.2659H19.082C18.8 88.2659 18.706 88.1719 18.706 87.8899V84.3179C18.706 83.7539 18.612 83.6599 18.048 83.6599H15.228C14.758 83.6599 14.664 83.7539 14.664 84.2239V87.7959C14.664 88.1719 14.664 88.1719 14.288 88.1719H12.784C12.408 88.1719 12.408 88.1719 12.408 87.7959C12.502 86.0099 12.502 84.1299 12.502 82.2499V82.2499ZM25.098 82.2499V76.7979C25.098 76.4219 25.192 76.3279 25.568 76.3279H32.9C33.276 76.3279 33.37 76.4219 33.37 76.7979V77.9259C33.37 78.3019 33.276 78.3959 32.9 78.3959H27.824C27.354 78.3959 27.26 78.4899 27.26 78.9599V81.1219C27.26 81.4979 27.26 81.4979 27.636 81.4979H31.678C32.148 81.4979 32.148 81.5919 32.148 81.9679V83.0019C32.148 83.3779 32.054 83.4719 31.678 83.4719H27.73C27.26 83.4719 27.166 83.5659 27.166 83.9419V85.5399C27.166 85.9159 27.26 86.0099 27.636 86.0099H32.806C33.276 86.0099 33.37 86.1039 33.37 86.5739V87.7019C33.37 88.0779 33.276 88.1719 32.9 88.1719H25.474C25.098 88.1719 25.004 88.0779 25.004 87.7019C25.098 85.9159 25.098 84.1299 25.098 82.2499V82.2499ZM45.496 82.2499V76.7979C45.496 76.4219 45.59 76.3279 45.966 76.3279H53.298C53.674 76.3279 53.768 76.4219 53.768 76.7979V77.9259C53.768 78.3019 53.674 78.3959 53.298 78.3959H48.222C47.658 78.3959 47.658 78.4899 47.658 78.9599V81.0279C47.658 81.4979 47.658 81.4979 48.128 81.4979H52.076C52.546 81.4979 52.546 81.5919 52.546 81.9679V83.0019C52.546 83.3779 52.452 83.4719 52.076 83.4719H48.128C47.658 83.4719 47.564 83.5659 47.564 84.0359V85.5399C47.564 85.9159 47.658 86.0099 48.034 86.0099H53.204C53.674 86.0099 53.768 86.1039 53.768 86.5739V87.7019C53.768 87.9839 53.674 88.0779 53.392 88.0779H45.778C45.496 88.0779 45.402 87.9839 45.402 87.6079C45.496 85.9159 45.496 84.0359 45.496 82.2499ZM87.984 77.2679V77.7379C87.984 78.2079 87.984 78.3019 87.42 78.3959C85.916 78.5839 84.976 79.4299 84.318 80.7459C83.66 82.2499 84.036 83.9419 85.164 85.0699C86.292 86.1979 88.078 86.4799 89.488 85.7279C90.898 85.0699 91.838 83.4719 91.65 81.8739C91.65 81.4039 91.462 80.9339 91.274 80.4639C91.086 79.9939 91.18 79.8059 91.556 79.5239C91.838 79.3359 92.026 79.1479 92.308 78.9599C92.684 78.6779 92.872 78.7719 93.154 79.1479C94.282 81.4039 94.188 83.5659 92.872 85.6339C90.898 88.6419 86.762 89.0179 84.318 87.0439C80.746 84.3179 81.122 78.8659 84.882 76.7039C85.634 76.2339 86.48 75.9519 87.42 75.9519C87.796 75.9519 87.89 76.0459 87.89 76.4219C87.984 76.8919 87.984 77.0799 87.984 77.2679V77.2679ZM3.478 83.3779V79.0539C3.478 78.5839 3.384 78.3959 2.82 78.3959H0.282C0.094 78.3959 0 78.3019 0 78.0199V76.6099C0 76.4219 0.094 76.3279 0.282 76.3279H9.024C9.306 76.3279 9.4 76.4219 9.4 76.7039V78.0199C9.4 78.3019 9.306 78.3959 9.024 78.3959H6.486C6.016 78.3959 5.922 78.4899 5.922 78.9599V87.7019C5.922 88.1719 5.922 88.1719 5.452 88.1719H3.76C3.478 88.1719 3.384 88.0779 3.384 87.7959C3.478 86.3859 3.478 84.8819 3.478 83.3779V83.3779ZM63.45 83.3779V87.7959C63.45 88.1719 63.45 88.1719 63.074 88.1719H61.382C61.1 88.1719 61.006 88.0779 61.006 87.7959V79.0539C61.006 78.4899 60.912 78.3959 60.348 78.3959H57.904C57.528 78.3959 57.528 78.3959 57.528 78.0199V76.7979C57.528 76.4219 57.528 76.4219 57.904 76.4219H66.552C66.928 76.4219 66.928 76.5159 66.928 76.7979V78.0199C66.928 78.3959 66.834 78.3959 66.552 78.3959H64.014C63.544 78.3959 63.45 78.4899 63.45 78.9599V83.3779V83.3779Z" fill="black"/>
<path class="inherit-fill" d="M18.894 46.6239C19.082 45.9659 19.646 45.6839 20.304 45.6839H23.97C23.876 45.6839 23.876 45.5899 23.782 45.4959C22.654 44.6499 21.62 43.7099 20.868 42.4879C20.116 41.1719 19.646 39.7619 19.458 38.3519C19.176 36.5659 19.176 34.6859 19.646 32.8999C19.928 31.8659 20.398 30.8319 20.962 29.8919C21.338 30.1739 21.714 30.5499 22.184 30.8319C22.09 30.5499 22.09 30.3619 22.09 30.1739C21.714 28.5759 21.808 26.8839 22.184 25.2859C22.748 22.3719 23.782 19.7399 25.38 17.2959L26.226 16.1679C26.602 15.6979 27.072 15.6979 27.354 16.1679C27.73 16.6379 28.012 17.2019 28.294 17.7659C28.764 18.6119 29.14 19.5519 29.61 20.3979H29.704C29.61 20.0219 29.516 19.6459 29.516 19.2699C29.328 17.7659 29.516 16.3559 30.08 14.9459C30.55 13.7239 31.302 12.5959 32.336 11.6559C33.276 10.8099 34.31 10.0579 35.25 9.30592C35.626 9.02392 36.096 8.83592 36.566 8.64792C37.318 8.36592 37.976 8.55392 38.164 9.39992C38.258 9.68192 38.352 10.0579 38.54 10.4339C38.54 10.2459 38.634 10.1519 38.634 9.96392C39.01 8.45992 40.044 7.42592 41.454 6.76792C42.77 6.20392 44.086 5.82792 45.496 5.63992C46.812 5.45192 48.222 5.35792 49.538 5.16992H50.008C50.384 5.26392 50.666 5.54592 50.572 6.01592C50.478 6.39192 50.384 6.67392 50.29 7.04992C50.196 7.42592 50.008 7.70792 49.914 8.08392L49.82 8.45992C51.982 7.89592 54.144 7.89592 56.4 8.08392C57.152 8.17792 57.81 8.27192 58.562 8.36592C58.656 8.36592 58.75 8.36592 58.844 8.45992C59.314 8.64792 59.502 9.02392 59.314 9.39992C58.938 10.0579 58.562 10.8099 58.092 11.3739C56.776 13.1599 55.084 14.6639 53.016 15.6979C52.264 16.0739 51.512 16.2619 50.666 16.3559L50.854 16.5439C51.794 17.4839 52.64 18.3299 53.486 19.2699C53.674 19.4579 53.862 19.7399 53.956 20.0219C54.144 20.5859 53.768 21.1499 53.11 21.3379C52.64 21.4319 52.076 21.5259 51.606 21.5259C50.008 21.7139 48.41 21.8079 46.906 21.9959C43.898 22.2779 41.548 21.1499 39.668 18.7059C39.574 18.6119 39.574 18.5179 39.48 18.5179C38.07 22.3719 35.72 25.3799 32.054 27.1659C31.772 26.9779 31.96 26.6019 31.584 26.6019C31.866 27.7299 31.96 28.8579 31.772 29.9859C31.866 29.8919 31.96 29.8919 31.96 29.7979C32.43 29.4219 32.9 28.9519 33.37 28.5759C33.84 28.1999 34.216 28.2939 34.498 28.7639C35.814 31.3959 36.66 34.1219 36.284 37.1299C36.096 38.8219 35.72 40.3259 34.874 41.8299C34.31 42.8639 33.464 43.7099 32.43 44.3679C32.336 44.3679 32.336 44.4619 32.242 44.4619C31.49 44.9319 30.738 45.4019 29.798 45.4019C29.798 46.1539 29.892 46.9059 29.892 47.6579C29.892 47.7519 29.986 47.8459 29.986 47.8459C31.678 48.9739 32.806 50.5719 33.934 52.2639C35.25 54.2379 36.19 56.3059 36.942 58.5619C37.036 58.7499 37.13 58.8439 37.224 58.9379C40.044 60.7239 43.146 61.7579 46.436 62.2279C50.76 62.7919 54.896 62.3219 58.938 60.7239C59.596 60.4419 60.16 60.1599 60.818 59.8779C60.912 59.7839 61.1 59.6899 61.1 59.5019C62.228 56.3999 63.732 53.4859 65.894 50.9479C66.552 50.1959 67.21 49.5379 68.056 48.9739C68.15 48.8799 68.244 48.7859 68.244 48.6919V46.5299C66.928 46.3419 65.8 45.5899 64.86 44.7439C63.45 43.6159 62.792 42.1119 62.322 40.4199C61.758 38.1639 61.664 35.9079 62.228 33.6519C62.604 32.3359 63.168 31.1139 63.732 29.7979C63.92 29.3279 64.39 29.2339 64.86 29.6099C65.33 29.9859 65.8 30.3619 66.27 30.8319C66.364 30.9259 66.364 30.9259 66.552 31.0199C66.27 28.5759 67.022 26.4139 67.774 24.1579C68.526 22.0899 69.56 20.1159 70.594 18.1419C70.688 17.9539 70.876 17.7659 70.97 17.5779C71.346 17.1079 71.722 17.1079 72.098 17.5779C73.226 18.9879 74.072 20.4919 74.824 22.1839C75.764 24.3459 76.328 26.6019 76.422 29.0459C76.422 29.9859 76.422 30.9259 76.14 31.9599C76.14 32.0539 76.14 32.1479 76.046 32.3359C76.516 31.9599 76.892 31.6779 77.268 31.3959C77.926 32.4299 78.396 33.4639 78.678 34.6859C79.242 37.5059 79.054 40.3259 77.926 43.0519C77.362 44.4619 76.422 45.4959 75.294 46.4359C75.012 46.7179 74.636 46.9059 74.354 47.1879H78.02C78.678 47.1879 79.148 47.4699 79.336 48.1279V48.5039C79.242 48.6919 79.242 48.7859 79.148 48.9739C78.114 52.4519 76.234 55.3659 73.508 57.7159C71.346 59.5959 68.902 60.7239 66.082 60.9119C64.86 61.0059 63.544 61.0059 62.322 61.0999C62.228 61.0999 62.04 61.0999 61.946 61.1939C58.468 62.9799 54.802 63.9199 50.948 64.0139H49.35C47.94 64.0139 46.53 63.8259 45.12 63.5439C42.112 62.9799 39.386 61.9459 36.848 60.3479L36.566 60.0659H36.284C34.968 60.0659 33.652 60.0659 32.43 59.8779C30.456 59.6899 28.67 59.1259 26.978 58.0919C24.064 56.2119 21.808 53.7679 20.398 50.6659C19.928 49.6319 19.552 48.5979 19.176 47.4699C18.894 46.9059 18.894 46.7179 18.894 46.6239V46.6239ZM77.832 48.0339H77.55C75.952 48.0339 74.354 48.0339 72.85 48.2219C70.594 48.5979 68.714 49.5379 67.116 51.2299C65.142 53.4859 63.732 56.0239 62.604 58.7499C62.51 58.9379 62.51 59.1259 62.416 59.3139H62.698C63.544 59.3139 64.39 59.3139 65.236 59.2199C67.022 59.1259 68.714 58.6559 70.218 57.8099C73.414 55.9299 75.576 53.2979 77.08 49.9139C77.456 49.3499 77.644 48.6919 77.832 48.0339V48.0339ZM35.532 58.2799V58.1859C34.498 55.4599 33.182 52.9219 31.302 50.6659C29.798 48.8799 27.918 47.7519 25.662 47.2819C24.252 46.9999 22.842 46.9059 21.432 46.9059H20.21V47.0939C20.962 49.6319 22.278 51.8879 24.064 53.7679C25.474 55.2719 26.978 56.4939 28.858 57.2459C30.268 57.8099 31.772 58.0919 33.37 58.0919C34.122 58.2799 34.78 58.2799 35.532 58.2799V58.2799ZM26.602 17.6719C26.508 17.8599 26.414 17.9539 26.32 18.1419C25.098 19.9279 24.252 21.9019 23.688 23.9699C23.218 25.7559 22.842 27.6359 23.124 29.5159C23.312 30.7379 23.688 31.8659 24.534 32.8059C25.568 33.8399 26.602 34.0279 27.824 33.3699C29.61 32.4299 30.362 30.8319 30.456 28.9519C30.456 27.8239 30.268 26.6959 29.892 25.5679C29.234 23.2179 28.294 21.0559 27.166 18.8939C26.978 18.4239 26.79 18.0479 26.602 17.6719V17.6719ZM71.44 18.7059L71.346 18.7999C69.936 21.4319 68.62 24.1579 67.868 27.1659C67.586 28.3879 67.398 29.5159 67.586 30.7379C67.868 32.5239 68.808 33.7459 70.406 34.4979C71.252 34.8739 72.098 34.8739 72.85 34.3099C73.508 33.7459 74.072 33.0879 74.354 32.3359C75.012 30.8319 75.012 29.2339 74.73 27.6359C74.448 25.2859 73.696 23.1239 72.568 20.9619C72.286 20.1159 71.91 19.4579 71.44 18.7059V18.7059ZM36.848 10.1519C36.566 10.3399 36.284 10.4339 36.002 10.6219C34.968 11.3739 34.028 12.1259 33.088 12.9719C32.148 13.7239 31.49 14.7579 31.02 15.8859C30.55 17.0139 30.268 18.2359 30.55 19.4579C31.02 21.5259 31.49 23.5939 32.054 25.5679L32.148 25.6619C32.242 25.6619 32.336 25.5679 32.43 25.5679C34.78 24.1579 36.472 22.1839 37.6 19.8339C38.258 18.5179 38.54 17.1079 38.258 15.6039C38.07 14.4759 37.788 13.3479 37.506 12.2199C37.412 11.4679 37.13 10.8099 36.848 10.1519V10.1519ZM69.466 47.8459H69.654C71.628 46.9059 73.508 45.8719 75.012 44.3679C75.67 43.7099 76.234 42.9579 76.61 42.1119C77.644 39.4799 77.832 36.7539 77.08 34.0279C76.986 33.6519 76.798 33.3699 76.704 32.9939C75.576 33.9339 74.448 34.7799 73.414 35.7199C72.756 36.2839 72.098 36.7539 71.534 37.3179C70.312 38.5399 69.748 40.0439 69.654 41.7359C69.466 43.8039 69.466 45.7779 69.466 47.8459ZM21.244 31.9599C21.15 32.2419 20.962 32.5239 20.868 32.8999C20.21 34.9679 20.304 37.1299 20.68 39.1979C21.056 40.8899 21.714 42.2999 23.03 43.5219C24.628 44.9319 26.414 46.0599 28.294 46.9059H28.388V44.9319C28.388 43.5219 28.388 42.2059 28.294 40.7959C28.2 38.5399 27.26 36.7539 25.474 35.3439C24.346 34.4979 23.218 33.4639 22.09 32.6179C21.808 32.3359 21.62 32.1479 21.244 31.9599V31.9599ZM33.558 29.7979C33.464 29.8919 33.37 29.9859 33.276 29.9859C32.712 30.5499 32.148 31.0199 31.584 31.5839C30.644 32.6179 29.798 33.6519 28.858 34.6859C28.482 35.0619 28.388 35.5319 28.576 36.0019C28.67 36.3779 28.764 36.6599 28.858 37.0359C29.046 37.6939 29.328 38.4459 29.516 39.1039C29.798 40.5139 29.986 42.0179 29.798 43.5219V43.9919L30.644 43.7099C30.926 43.5219 31.208 43.3339 31.584 43.1459C32.712 42.4879 33.464 41.5479 34.028 40.4199C34.968 38.4459 35.156 36.3779 34.968 34.2159C34.78 32.7119 34.122 31.3019 33.558 29.7979V29.7979ZM64.39 30.8319C64.014 31.8659 63.638 32.8059 63.356 33.8399C62.98 35.3439 62.886 36.9419 63.168 38.5399C63.356 39.8559 63.732 41.1719 64.39 42.2999C65.142 43.6159 66.364 44.3679 67.68 45.0259C67.774 45.1199 67.962 45.1199 68.15 45.1199C68.15 44.7439 68.056 44.4619 68.056 44.0859C67.962 42.5819 68.15 41.0779 68.526 39.6679C68.714 38.9159 68.996 38.0699 69.278 37.3179C69.466 36.6599 69.372 36.0959 68.902 35.6259C67.962 34.5919 67.022 33.4639 66.082 32.4299C65.612 31.8659 65.048 31.3959 64.39 30.8319ZM52.452 20.1159C52.452 20.0219 52.546 20.0219 52.452 20.1159C52.358 19.9279 52.17 19.7399 52.076 19.6459C50.948 18.5179 49.82 17.2959 48.504 16.4499C47 15.4159 45.308 14.8519 43.334 15.0399C42.206 15.1339 40.984 15.3219 39.856 15.4159C39.762 15.4159 39.668 15.5099 39.668 15.6039C39.48 16.0739 39.574 16.5439 39.856 16.9199C40.514 18.1419 41.454 19.0819 42.582 19.8339C43.804 20.5859 45.12 20.7739 46.53 20.6799C47.94 20.5859 49.35 20.3979 50.666 20.3039C51.418 20.2099 51.982 20.1159 52.452 20.1159ZM48.974 6.86192H48.786C47.094 6.95592 45.402 7.23792 43.804 7.61392C42.864 7.89592 42.018 8.08392 41.266 8.64792C40.138 9.49392 39.574 10.5279 39.762 11.9379C39.856 12.5959 40.138 13.1599 40.796 13.4419C41.266 13.6299 41.83 13.7239 42.394 13.7239C43.428 13.6299 44.274 13.1599 45.12 12.5019C46.812 11.0919 48.034 9.39992 48.88 7.42592C48.88 7.33192 48.974 7.04992 48.974 6.86192V6.86192ZM57.81 9.49392C57.058 9.39992 56.306 9.30592 55.648 9.30592C53.956 9.21192 52.17 9.21192 50.572 9.58792C48.974 9.96392 48.034 10.9979 47.752 12.4079C47.658 13.2539 47.752 14.0059 48.504 14.5699C48.974 14.8519 49.444 15.0399 50.008 15.1339C50.948 15.2279 51.794 14.9459 52.64 14.4759C54.426 13.5359 55.836 12.2199 57.058 10.6219C57.34 10.2459 57.528 9.86992 57.81 9.49392V9.49392Z" fill="black"/>
</svg>
