<?xml version="1.0" encoding="utf-8"?>
<!-- Generator: Adobe Illustrator 18.0.0, SVG Export Plug-In . SVG Version: 6.00 Build 0)  -->
<!DOCTYPE svg PUBLIC "-//W3C//DTD SVG 1.1//EN" "http://www.w3.org/Graphics/SVG/1.1/DTD/svg11.dtd">
<svg version="1.1" id="Слой_1" xmlns="http://www.w3.org/2000/svg" xmlns:xlink="http://www.w3.org/1999/xlink" x="0px" y="0px" width="120" height="20"
	 viewBox="0 0 120 20" enable-background="new 0 0 120 20" xml:space="preserve">
<path d="M118.3,3.4c-0.9,0-1.7-0.8-1.7-1.7s0.7-1.7,1.7-1.7c1,0,1.7,0.7,1.7,1.7c0,0.5-0.2,0.9-0.5,1.2
	C119.2,3.2,118.7,3.4,118.3,3.4z M118.3,0.4c-0.7,0-1.3,0.6-1.3,1.3c0,0.7,0.6,1.3,1.3,1.3s1.3-0.6,1.3-1.3c0-0.3-0.1-0.7-0.4-0.9
	C119,0.5,118.7,0.4,118.3,0.4z M119.1,2.5h-0.4l-0.3-0.6h-0.2v0.6h-0.4V0.9h0.6c0.4,0,0.7,0.1,0.7,0.5c0,0.2-0.1,0.4-0.3,0.4
	L119.1,2.5z M118.1,1.2v0.3h0.2c0.3,0,0.3,0,0.3-0.2s0-0.2-0.3-0.2C118.3,1.2,118.1,1.2,118.1,1.2z M10.8,0v2.9H7.1v12.5H3.7V2.9H0
	V0H10.8L10.8,0z M14.7,3.1c3.5,0,6.3,2.9,6.3,6.4s-2.8,6.3-6.3,6.3s-6.3-2.9-6.3-6.4S11.2,3.1,14.7,3.1z M14.7,12.9
	c1.9,0,3.4-1.6,3.4-3.4C18,7.6,16.5,6,14.7,6c-1.9,0-3.4,1.5-3.4,3.4S12.8,12.9,14.7,12.9z M37.6,4.2C38.3,4.9,39,6,39,8v7.5H36V8.4
	C36,6.8,35.2,6,34,6c-1,0-2,0.8-2,2.5v7h-3.1V8.3c0-1.2-0.4-2.4-2-2.4c-1.6,0-2.1,1.3-2.1,2.7v6.9h-3v-12h2.9v1.2h0
	c0.3-0.6,1.4-1.6,3-1.6c1.9,0,3,1,3.5,2.1c0.6-1.2,2-2.1,3.5-2.1C35.8,3.1,36.8,3.5,37.6,4.2L37.6,4.2z M55.9,4.2
	C56.6,4.9,57.3,6,57.3,8v7.5h-3.1V8.4c0-1.5-0.7-2.4-2-2.4c-1,0-2,0.8-2,2.5v7h-3.1V8.3c0-1.2-0.4-2.4-2-2.4c-1.6,0-2.1,1.3-2.1,2.7
	v6.9h-3v-12h3v1.2h0c0.3-0.6,1.4-1.6,3-1.6c1.9,0,3,1,3.5,2.1c0.6-1.2,2-2.1,3.5-2.1C54.1,3.1,55.1,3.5,55.9,4.2z M63.4,11.3
	l2.7-7.8h3.2L63.3,20h-3.2l1.7-4.5l0-0.2L57.1,3.5h3.4C60.5,3.5,63.4,11.3,63.4,11.3z M77.6,0L77.6,0l3.3,0v10.4
	c0,3.2-1.7,5.4-4.6,5.4c-1.3,0-2.6-0.6-3.4-1.3l1-2.9c0.7,0.6,1.3,0.9,2.1,0.9c1.3,0,1.7-1,1.7-2.5V0z M88.1,3.1
	c3.5,0,6.3,2.9,6.3,6.4s-2.8,6.3-6.3,6.3c-3.5,0-6.3-2.9-6.3-6.4S84.6,3.1,88.1,3.1z M88.1,12.9c1.9,0,3.4-1.6,3.4-3.4
	c0-1.9-1.5-3.4-3.4-3.4c-1.9,0-3.4,1.5-3.4,3.4S86.2,12.9,88.1,12.9z M101.1,3.1c2.3,0,4.7,1.6,4.7,5.1v7.2h-3.1V8.8
	c0-2.5-1.4-2.8-2.3-2.8c-0.8,0-2.3,0.6-2.3,2.8v6.7h-3V0h3v4.6h0C98.7,3.7,100,3.1,101.1,3.1L101.1,3.1z M112.8,3.1
	c2.3,0,4.7,1.6,4.7,5.1v7.2h-3.1V8.8c0-2.5-1.4-2.8-2.3-2.8c-0.8,0-2.3,0.6-2.3,2.8v6.7h-3v-12h3v1.2h0
	C110.3,3.7,111.7,3.1,112.8,3.1L112.8,3.1z"/>
</svg>
