<svg xmlns="http://www.w3.org/2000/svg" viewBox="0 0 91 30.3" width="91" height="30">
  <switch>
    <g class="inherit-fill">
      <path d="M62.4 9V0H68v28.9h-4.8c-.2 0-.4-.3-.5-.5-.1-.4 0-.8 0-1.4-2.7 2.4-5.6 2.6-8.8 2-2.3-.5-4.3-1.7-5.8-3.5-3.1-3.9-3.1-10.2 0-14.2C51 7.4 57.3 6 62.4 9zm-.1 9.9c0-3-1.1-5-3-5.8-2.5-1.2-5.6-.3-6.9 1.9-1.6 2.6-1 6.4 1.3 8 1.8 1.3 3.8 1.4 5.8.5 2-1.1 2.7-3 2.8-4.6zM91 20.3H76.4c0 1.5 1 2.8 2.6 3.4 2.5 1 4.5.3 7.1-2.5 1.4.8 2.9 1.7 4.4 2.6-1.5 2.7-3.7 4.5-6.7 5.1-4.2.9-8 .2-10.9-3.1-2.9-3.4-3.2-7.4-1.8-11.5 1.2-3.8 4-6.1 7.9-6.7 6.4-.9 11.6 2.6 12.1 9.2-.1 1.1-.1 2.2-.1 3.5zm-14.5-4.5h8.4c-.3-2.2-2-3.6-4.4-3.6-2.1.1-3.8 1.6-4 3.6zM37.9 15.6c.5-2.1-.6-3.6-2.5-3.5-1 .1-1.7.7-2.1 1.6-.1.2-.4.6-.6.6h-4.8c0-1.3.4-2.4 1.1-3.4 1.8-2.6 4.4-3.6 7.5-3.4 3 .2 5.4 1.4 6.6 4.3.4 1 .7 2.2.7 3.3.1 4.4 0 8.9 0 13.3 0 .1 0 .2-.1.4h-4.8c0-.3-.1-.7-.1-1.1-1.8 1.4-3.8 1.7-5.9 1.3-1.5-.3-2.9-1-3.9-2.2-2-2.2-2.3-5.7-.7-8.4 1.8-3.1 4.9-4 9.6-2.8zm-2.6 3.6c-1.5 0-2.7 1.2-2.7 2.7 0 1.5 1.3 2.7 2.8 2.7 1.5 0 2.7-1.2 2.7-2.7-.1-1.5-1.3-2.7-2.8-2.7zM0 7.1V1.9c0-.2.5-.4.8-.4h14.7V7h-4.7v21.8H4.7V7.1H0zM22.2 9.2c1.1-1.2 2.4-1.6 3.9-1.5v6h-1.3c-1.9.1-2.7.8-2.7 2.7v11.3c0 1.2 0 1.2-1.3 1.2h-4.4V7.8H22c.1.4.2.8.2 1.4z"/>
    </g>
  </switch>
</svg>
