<svg width="83" height="27" viewBox="0 0 83 27" fill="none" xmlns="http://www.w3.org/2000/svg">
<g>
<path class="inherit-fill" d="M56.7614 8.12752V0H61.8186V26.0984H57.4839C57.3033 26.0984 57.1227 25.8274 57.0323 25.6468C56.942 25.2856 57.0323 24.9244 57.0323 24.3825C54.5941 26.5499 51.9752 26.7305 49.0854 26.1887C47.0084 25.7371 45.2023 24.6535 43.8477 23.028C41.0482 19.506 41.0482 13.8168 43.8477 10.2045C46.4666 6.68262 52.1558 5.41834 56.7614 8.12752ZM56.6711 17.0678C56.6711 14.3586 55.6778 12.5525 53.962 11.8301C51.7043 10.7464 48.9048 11.5591 47.7309 13.5459C46.286 15.8938 46.8278 19.3254 48.9048 20.7703C50.5303 21.9443 52.3364 22.0346 54.1426 21.2218C55.9487 20.2285 56.5808 18.5127 56.6711 17.0678V17.0678ZM82.5889 18.3321H69.4042C69.4042 19.6866 70.3073 20.8606 71.7522 21.4025C74.0098 22.3055 75.8159 21.6734 78.1639 19.1448C79.4282 19.8673 80.7828 20.68 82.1373 21.4928C80.7828 23.931 78.796 25.5565 76.0869 26.0984C72.294 26.9111 68.8624 26.279 66.2435 23.2989C63.6247 20.2285 63.3537 16.6163 64.618 12.9137C65.7017 9.4821 68.2303 7.40507 71.7522 6.86324C77.5318 6.05048 82.2276 9.21118 82.6792 15.1714C82.5889 16.1647 82.5889 17.1581 82.5889 18.3321V18.3321ZM69.4945 14.2683H77.0802C76.8093 12.2816 75.2741 11.0173 73.1068 11.0173C71.2103 11.1076 69.6752 12.4622 69.4945 14.2683ZM34.6365 14.0877C35.0881 12.1913 34.0947 10.8367 32.3789 10.927C31.4758 11.0173 30.8437 11.5591 30.4825 12.3719C30.3922 12.5525 30.1212 12.9137 29.9406 12.9137H25.6059C25.6059 11.7397 25.9672 10.7464 26.5993 9.84332C28.2248 7.49538 30.5728 6.59232 33.3722 6.77293C36.0814 6.95354 38.2488 8.03721 39.3324 10.6561C39.6936 11.5591 39.9646 12.6428 39.9646 13.6362C40.0549 17.6096 39.9646 21.6734 39.9646 25.6468C39.9646 25.7371 39.9646 25.8274 39.8743 26.0081H35.5396C35.5396 25.7371 35.4493 25.3759 35.4493 25.0147C33.8238 26.279 32.0177 26.5499 30.1212 26.1887C28.7667 25.9177 27.5024 25.2856 26.5993 24.2019C24.7932 22.2152 24.5223 19.0545 25.9672 16.6163C27.5927 13.8168 30.3922 13.004 34.6365 14.0877V14.0877ZM32.2886 17.3387C30.934 17.3387 29.8503 18.4224 29.8503 19.777C29.8503 21.1315 31.0243 22.2152 32.3789 22.2152C33.7335 22.2152 34.8171 21.1315 34.8171 19.777C34.7268 18.4224 33.6432 17.3387 32.2886 17.3387ZM0.410645 6.41171V1.71581C0.410645 1.5352 0.862173 1.35459 1.13309 1.35459H14.408V6.3214H10.1637V26.0081H4.65501V6.41171H0.410645ZM20.4585 8.30813C21.4519 7.22446 22.6259 6.86324 23.9804 6.95354V12.3719H22.8065C21.0907 12.4622 20.3682 13.0943 20.3682 14.8101V25.0147C20.3682 26.0984 20.3682 26.0984 19.1942 26.0984H15.2208V7.04385H20.2779C20.3682 7.40507 20.4585 7.76629 20.4585 8.30813Z" fill="black"/>
</g>
</svg>
