<svg width="56" height="30" viewBox="0 0 56 30" xmlns="http://www.w3.org/2000/svg"><path d="M55.622.682c-.816.066-1.726.094-2.926.094-.977 0-1.831-.028-3.031-.094-.252.128-.274.472 0 .756l.91.061c.664.04 1.044.29 1.044.73-.24.978-.557 1.936-.95 2.864-.217.557-1.892 4.746-2.523 6.253-.91 2.226-1.865 4.451-2.836 6.632-1.044-2.392-2.144-4.74-3.216-7.171a2.336 2.336 0 0 1-.223-.751c.055-.266.15-.521.285-.757.474-1.113 1.797-3.833 2.462-5.007.692-1.29 1.262-2.704 2.585-2.782l.915-.06c.179-.257.157-.663-.061-.757-.726.06-1.988.094-3.032.094-1.166 0-2.11-.033-2.964-.094-.223.094-.285.44-.062.756l.944.061c1.005.062 1.167.412.033 3.083a61.549 61.549 0 0 1-1.864 4.127 206.092 206.092 0 0 1-2.462-5.48c-.603-1.412-.558-1.63.664-1.724l.82-.067c.18-.25.157-.656-.066-.75-.726.06-1.893.094-3.467.094-1.262 0-2.462-.034-3.378-.095a.296.296 0 0 0-.078.067.483.483 0 0 0 0 .684l.765.056c1.072.094 1.546.757 2.021 1.73 1.2 2.515 2.367 5.007 3.467 7.544.123.258.204.534.24.818a5.846 5.846 0 0 1-.503 1.29 408.035 408.035 0 0 1-2.44 5.096c-1.83-3.866-3.69-7.788-5.454-11.721-.977-2.226-1.64-3.84-1.64-4.212 0-.373.373-.473 1.037-.556l.732-.067c.178-.217.223-.656-.062-.751a78.204 78.204 0 0 1-3.595.095 54.37 54.37 0 0 1-3.25-.095h-.033a.516.516 0 0 0-.061.729l.754.105c1.328.123 1.702.974 2.305 2.265.745 1.61 1.49 3.219 2.233 4.829a24.01 24.01 0 0 0-3.679-.35 13.65 13.65 0 0 0-8.53 2.67 10.412 10.412 0 0 0-3.958 8.344c0 .593.045 1.184.134 1.77l-.369-.04c-1.831-.155-1.892-.628-1.892-3.927V3.074c0-1.035-.034-1.068.915-1.068h2.233c1.725 0 2.92.256 3.651.79.475.35.698 1.507.793 2.292a.616.616 0 0 0 .82-.062A18.974 18.974 0 0 1 20.283.26c-.061-.128-.407-.162-.558-.095-.48.801-.742.868-2.468.868H4.466c-1.462 0-2.49.033-2.68-.974a.807.807 0 0 0-.602 0A32.94 32.94 0 0 1 0 4.743a.604.604 0 0 0 .82.217c.299-.82.782-1.56 1.413-2.164.793-.724 2.524-.79 3.908-.79h1.675c.943 0 .943.033.943 1.007v14.041c0 3.3-.15 3.772-1.948 3.928l-1.117.095a.555.555 0 0 0 0 .79c2.021-.062 3.116-.095 4.383-.095 1.172 0 2.177 0 3.73.078a10.014 10.014 0 0 0 4.18 6.047C20.295 29.438 23.013 30 25.844 30c1.685-.02 3.36-.264 4.98-.729a6.942 6.942 0 0 1 1.116-.311 11.784 11.784 0 0 0 1.513-4.306.666.666 0 0 0-.82-.128 6.699 6.699 0 0 1-6.6 4.495c-5.175 0-9.367-3.644-9.367-10.248 0-6.503 4.097-9.552 8.932-9.552 2.764 0 4.377.896 5.326 2.08l1.117 2.488c.469 1.023.94 2.047 1.412 3.07.419.902 1.636 3.74 2.177 5.063.151.062.312.094.475.095a.7.7 0 0 0 .38-.095 95.584 95.584 0 0 1 3.941-8.901c.977 2.225 2.792 6.12 3.813 8.901.14.061.29.093.441.095a.689.689 0 0 0 .38-.095A265.978 265.978 0 0 1 49 12.27l2.362-5.285c1.898-4.367 2.183-5.313 3.757-5.469l.592-.078c.195-.25.15-.662-.09-.756z" fill="#000" fill-rule="nonzero"/></svg>