<svg width="152" height="35" viewBox="0 0 152 35" fill="none" xmlns="http://www.w3.org/2000/svg">
  <g clip-path="url(#clip0)" fill-rule="evenodd" clip-rule="evenodd" fill="#000" class="inherit-fill">
    <path d="M.2 18.767h4.357v15.979h4.357V18.767h4.357V14.41H.201v4.357zM21.272 19.8l-2.763-5.39h-4.896l5.48 10.68v9.664h4.358v-9.64l5.48-10.711h-4.896L21.272 19.8zm21.065.782c0-4.115-2.058-6.172-6.172-6.172h-6.9v20.344h4.357v-8.001h1.602a54.202 54.202 0 012.847 7.993h4.675c-.781-2.9-1.837-5.784-3.15-8.676 1.822-.919 2.74-2.748 2.74-5.488zm-6.172 1.814h-2.543V18.76h2.543c1.207 0 1.814.607 1.814 1.814 0 1.222-.607 1.822-1.814 1.822zm7.621 12.35h11.622v-4.357h-7.265v-3.636h5.815v-4.357h-5.815V18.76h7.265v-4.357H43.786v20.343zm26.158-13.071v-.73c0-4.356-2.178-6.535-6.536-6.535-4.357 0-6.535 2.179-6.535 6.536 0 2.619 1.45 4.289 4.357 5.01 2.907.721 4.357 1.48 4.357 2.254 0 1.45-.729 2.179-2.179 2.179-1.45 0-2.178-.729-2.178-2.179v-.728h-4.365v.728c0 4.357 2.179 6.536 6.536 6.536 4.357 0 6.535-2.179 6.535-6.536 0-2.619-1.45-4.288-4.357-5.01-2.907-.728-4.357-1.48-4.357-2.254 0-1.45.729-2.179 2.179-2.179 1.45 0 2.178.73 2.178 2.179v.729h4.365zM82.993 14.403h-6.544v20.343h6.536c4.357 0 6.535-2.179 6.535-6.536v-7.264c.008-4.357-2.17-6.543-6.527-6.543zM85.17 28.21c0 1.45-.729 2.179-2.178 2.179h-2.18V18.767h2.18c1.45 0 2.178.73 2.178 2.179v7.264zm5.807 6.536h4.357V14.403h-4.357v20.343zm18.893-14.164c0-4.115-2.057-6.172-6.171-6.172h-6.907v20.344h4.357v-8.001h1.601a54.274 54.274 0 012.847 7.993h4.676c-.782-2.9-1.837-5.784-3.151-8.676 1.83-.919 2.748-2.748 2.748-5.488zm-6.179 1.814h-2.542V18.76h2.542c1.207 0 1.815.607 1.815 1.814 0 1.222-.6 1.822-1.815 1.822zm7.629 12.35h11.622v-4.357h-7.265v-3.636h5.815v-4.357h-5.815V18.76h7.265v-4.357h-11.622v20.343zm19.615-20.343c-4.357 0-6.536 2.178-6.536 6.535v7.265c0 4.357 2.179 6.535 6.536 6.535 4.357 0 6.535-2.178 6.535-6.535v-.729h-4.357v.729c0 1.45-.728 2.178-2.178 2.178s-2.179-.729-2.179-2.178v-7.265c0-1.45.729-2.178 2.179-2.178 1.45 0 2.178.728 2.178 2.178v.73h4.357v-.73c0-4.35-2.178-6.535-6.535-6.535zm7.993 0v4.357h4.357v15.978h4.357v-15.97H152V14.41h-13.071v-.007zM42.336.717h-4.144l-.122.706h1.663L38.35 9.317h.828l1.373-7.894h1.663l.121-.706zm4.616 0l-.653 3.78H42.98l.669-3.78h-.828l-1.495 8.6h.827l.706-4.091h3.325l-.714 4.09h.813l1.495-8.6h-.828zm.789 8.6h3.545l.136-.744h-2.755l.584-3.378h2.43l.121-.706h-2.444l.531-3.051h2.566l.121-.729h-3.34l-1.495 8.608zm8.357-2.475c-.045.296-.106.57-.167.805-.06.235-.136.44-.235.607-.099.167-.22.296-.364.38a1.006 1.006 0 01-.547.136c-.28 0-.508-.09-.668-.273a1.408 1.408 0 01-.326-.622l-.706.288c.09.387.273.714.554.972.28.258.66.387 1.146.387.334 0 .615-.06.85-.175.236-.114.433-.288.6-.5.167-.22.296-.487.402-.805.099-.32.19-.676.258-1.078l1.093-6.24h-.82l-1.07 6.118zm7.394-5.457a2.069 2.069 0 00-.714-.646c-.288-.151-.622-.227-1.017-.227-.38 0-.736.083-1.063.25a3.275 3.275 0 00-.895.676c-.266.28-.509.615-.714 1.002a7.42 7.42 0 00-.531 1.23c-.144.44-.25.895-.319 1.366-.076.47-.106.933-.106 1.389 0 .463.045.88.144 1.26.099.38.243.706.44.98.197.272.433.477.721.63a2.12 2.12 0 001.002.227c.554 0 1.048-.175 1.496-.531.447-.35.827-.813 1.138-1.374a7.2 7.2 0 00.729-1.89c.167-.699.258-1.39.258-2.08 0-.463-.046-.888-.137-1.276a3.35 3.35 0 00-.432-.986zm-.395 3.514c-.053.387-.137.76-.243 1.131a6.355 6.355 0 01-.395 1.048c-.159.334-.334.622-.53.865-.198.25-.418.44-.661.592-.243.144-.501.22-.775.22-.265 0-.493-.06-.683-.174a1.278 1.278 0 01-.455-.486 2.45 2.45 0 01-.258-.721 4.73 4.73 0 01-.084-.896c0-.531.06-1.108.175-1.716a7.464 7.464 0 01.524-1.692c.227-.524.516-.957.85-1.298.334-.342.72-.516 1.161-.516.289 0 .532.068.714.212.19.144.334.326.448.562.113.235.19.5.235.804.045.304.068.615.068.942a9.582 9.582 0 01-.091 1.123zM69.709.717l-.957 5.465c-.053.326-.129.638-.22.949a3.291 3.291 0 01-.364.827c-.152.243-.35.44-.585.585-.235.144-.524.22-.865.22-.25 0-.463-.038-.63-.122a1.107 1.107 0 01-.41-.334 1.351 1.351 0 01-.213-.5 3.026 3.026 0 01-.06-.6c0-.152.007-.32.022-.501a4.16 4.16 0 01.076-.524L66.46.717h-.828l-.971 5.586c-.03.19-.053.365-.076.532a5.484 5.484 0 00-.023.486c0 .318.038.607.121.872a1.8 1.8 0 00.38.691c.175.198.395.35.66.463.266.114.585.167.95.167.47 0 .865-.083 1.199-.25.326-.167.6-.395.827-.683.22-.289.402-.63.531-1.025.137-.395.243-.812.32-1.26l.97-5.587h-.811v.008zm5.503.47c-.365-.311-.85-.47-1.458-.47h-1.86l-1.495 8.6h.805l.69-3.993h1.132l1.108 3.993h.835L73.8 5.226c.273-.046.531-.145.767-.289.235-.144.44-.319.622-.539.175-.22.319-.478.418-.774.098-.296.151-.623.151-.987 0-.653-.182-1.139-.546-1.45zm-.372 2.346c-.091.235-.213.44-.38.615-.159.167-.349.296-.569.387-.22.09-.463.136-.729.136h-1.138l.561-3.24h1.048c.387 0 .714.105.964.318.258.212.38.539.38.994-.008.281-.053.547-.137.79zM81.216.717l-1.26 7.188h-.038L78.18.717h-1.017l-1.496 8.6h.767l1.237-7.189h.023l1.784 7.189h1.01l1.495-8.6h-.767zm.729 8.6h3.545l.136-.744h-2.755l.585-3.378h2.428l.122-.706h-2.444l.531-3.051h2.566l.121-.729h-3.34l-1.495 8.608zm6.786-4.41h-.023l-.895-4.19h-.873l1.252 5.055-.622 3.545h.812l.622-3.545L92.041.717h-.911l-2.399 4.19zM100.65.717l-3.416 7.552-.327-.394c-.19.235-.41.44-.683.622a1.663 1.663 0 01-.933.266c-.297 0-.555-.06-.76-.19a1.484 1.484 0 01-.5-.516 2.337 2.337 0 01-.274-.774 5.409 5.409 0 01-.083-.957c0-.357.03-.729.083-1.116a7.38 7.38 0 01.258-1.146c.114-.38.25-.736.41-1.078.16-.341.35-.637.562-.895.212-.259.448-.456.713-.608.258-.152.54-.227.835-.227.592 0 1.025.258 1.314.774l.622-.547a1.846 1.846 0 00-.744-.744 2.378 2.378 0 00-1.1-.243c-.578 0-1.101.175-1.564.524-.47.35-.873.805-1.207 1.359a7.208 7.208 0 00-.774 1.882 8.283 8.283 0 00-.274 2.103c0 .463.046.888.144 1.268.1.387.243.713.44.994.198.281.441.494.737.653.288.152.63.228 1.017.228.486 0 .904-.099 1.26-.304.213-.121.41-.266.592-.425l-.235.524h.85l.972-2.164h2.687l.099 2.164h.835l-.441-8.6h-1.115v.015zM98.834 6.5l2.202-5.025h.045l.182 5.025h-2.429zM105.15.717h-.828l-1.495 8.6h3.279l.137-.767h-2.452L105.15.717zm9.595-.008a2.689 2.689 0 00-1.048-.197c-.342 0-.66.06-.956.182a2.398 2.398 0 00-1.329 1.351 2.765 2.765 0 00-.197 1.078c0 .28.038.531.114.751.076.22.182.418.311.592.129.175.281.327.44.463.167.137.342.251.516.357.357.22.638.463.851.737.212.273.318.6.318.986a1.802 1.802 0 01-.516 1.298 1.485 1.485 0 01-.539.342 1.819 1.819 0 01-.637.114c-.296 0-.577-.069-.835-.213a1.833 1.833 0 01-.638-.592l-.569.592h-2.414l1.359-7.833h-.828l-1.488 8.6h3.28l.129-.729c.205.266.478.486.819.66.357.183.752.274 1.192.274.349 0 .676-.06.979-.182a2.25 2.25 0 00.797-.532c.228-.227.403-.508.532-.835.129-.326.197-.706.197-1.123a2.138 2.138 0 00-.47-1.366 3.24 3.24 0 00-.479-.486 4.929 4.929 0 00-.561-.395 3.79 3.79 0 01-.744-.622c-.205-.228-.304-.54-.304-.919 0-.296.046-.562.144-.79.099-.227.228-.417.387-.561a1.62 1.62 0 01.524-.334c.19-.076.38-.106.57-.106.265 0 .501.045.713.144.205.099.387.25.554.463l.569-.585a1.664 1.664 0 00-.743-.584zm1.282 7.651c-.083-.098-.205-.144-.372-.144a.51.51 0 00-.44.213.776.776 0 00-.167.47c0 .137.046.259.129.357a.448.448 0 00.357.152.57.57 0 00.44-.197.727.727 0 00.175-.479.492.492 0 00-.122-.372z"/>
  </g>
  <defs>
    <clipPath id="clip0">
      <path fill="#000" transform="translate(.2 .496)" d="M0 0h151.8v34.257H0z"/>
    </clipPath>
  </defs>
</svg>
