<?xml version="1.0" encoding="utf-8"?>
<!-- Generator: Adobe Illustrator 18.0.0, SVG Export Plug-In . SVG Version: 6.00 Build 0)  -->
<!DOCTYPE svg PUBLIC "-//W3C//DTD SVG 1.1//EN" "http://www.w3.org/Graphics/SVG/1.1/DTD/svg11.dtd">
<svg version="1.1" id="Слой_1" xmlns="http://www.w3.org/2000/svg" xmlns:xlink="http://www.w3.org/1999/xlink" x="0px" y="0px" width="80" height="40"
	 viewBox="0 0 80 40" enable-background="new 0 0 80 40" xml:space="preserve">
<path d="M57.7,0.1l-9.3,8.8l10,9.3V0.3C58.3,0,57.9-0.1,57.7,0.1z M32.2,8.9l-9.3-8.7c-0.2-0.2-0.6-0.1-0.6,0.2v17.9
	C22.3,18.2,32.2,8.9,32.2,8.9z"/>
<path fill-opacity="0.5" d="M22.3,18.2h36.1L40.8,1.5c-0.3-0.3-0.7-0.3-1,0L22.3,18.2z"/>
<path d="M69.3,35.5c-1.4,0-2-0.8-2-2v-8.8c0-0.2,0.1-0.3,0.3-0.3h1.6c0.2,0,0.3,0.2,0.3,0.3c0,0,0,0,0,0v8.3c0,0.3,0.2,0.5,0.5,0.5
	h0.5c0.2,0,0.3,0.1,0.3,0.3v1.1c0,0.4-0.3,0.4-0.4,0.4L69.3,35.5L69.3,35.5z M62.4,27.6c2,0,3.8,1.6,3.8,4.1c0,2.5-1.8,4.1-3.8,4.1
	c-1,0-1.8-0.4-2.3-1v0.4c0,0.2-0.2,0.3-0.3,0.3c0,0,0,0,0,0h-1.6c-0.2,0-0.3-0.2-0.3-0.3c0,0,0,0,0,0V24.8c0-0.2,0.1-0.3,0.3-0.3
	h1.6c0.2,0,0.3,0.2,0.3,0.3c0,0,0,0,0,0v3.8C60.5,28,61.4,27.6,62.4,27.6z M62,33.7c1.1,0,1.9-0.9,1.9-2c0-1.1-0.8-2-1.9-2
	c-1.1,0-1.9,0.9-1.9,2C60.1,32.8,60.9,33.7,62,33.7z M56.3,27.7l0.2,0c0.2,0,0.4,0.1,0.4,0.4v1.6c0,0.4-0.3,0.4-0.4,0.4H56
	c-1,0-1.5,0.5-1.5,1.7v3.4c0,0.2-0.2,0.3-0.3,0.3h-1.6c-0.2,0-0.3-0.2-0.3-0.3c0,0,0,0,0,0v-7c0-0.2,0.2-0.3,0.3-0.3c0,0,0,0,0,0
	h1.5c0.2,0,0.3,0.2,0.3,0.3v0.6C54.9,28.1,55.5,27.7,56.3,27.7L56.3,27.7z M47.2,27.6c2.5,0,4,1.9,4,3.9v0.4c0,0.2-0.1,0.4-0.4,0.4
	h-5.3c0.1,0.9,0.9,1.5,1.8,1.5c0.8,0,1.3-0.3,1.8-0.7c0.1-0.2,0.3-0.2,0.5,0l0.9,0.9c0.2,0.2,0.2,0.3,0.1,0.5
	c-0.5,0.7-1.6,1.4-3.3,1.4c-2.3,0-4.1-1.6-4.1-4C43.1,29.4,44.8,27.6,47.2,27.6z M45.5,30.8h3.4c-0.2-0.9-0.9-1.4-1.7-1.4
	C46.4,29.4,45.8,30,45.5,30.8z M41.7,24.4c0.2,0,0.3,0.2,0.4,0.4v10.4c0,0.2-0.2,0.3-0.3,0.3c0,0,0,0,0,0h-1.6
	c-0.2,0-0.3-0.2-0.3-0.3c0,0,0,0,0,0v-0.5c-0.4,0.6-1.2,1-2.2,1c-2,0-3.8-1.6-3.8-4.1c0-2.5,1.8-4.1,3.8-4.1c1.1,0,1.9,0.4,2.3,1
	v-3.8c0-0.2,0.2-0.3,0.3-0.3c0,0,0,0,0,0L41.7,24.4L41.7,24.4z M37.9,33.7c1.1,0,1.9-0.9,1.9-2c0-1.1-0.8-2-1.9-2
	c-1.1,0-1.9,0.9-1.9,2C36,32.8,36.8,33.7,37.9,33.7z M30.3,35.2L30.3,35.2l0-3.7c0-1.1-0.6-1.9-1.7-1.9c-1.1,0-1.8,0.8-1.8,1.9v3.7
	c0,0.2-0.2,0.3-0.3,0.3h-1.6c-0.2,0-0.3-0.2-0.3-0.3c0,0,0,0,0,0v-7c0-0.2,0.2-0.3,0.3-0.3c0,0,0,0,0,0h1.6c0.2,0,0.3,0.2,0.3,0.3
	v0.5c0.5-0.5,1.3-1,2.5-1c2,0,3.3,1.5,3.3,3.3v4.3c0,0.2-0.2,0.3-0.3,0.3h-1.6C30.5,35.5,30.3,35.4,30.3,35.2z M19.3,27.6
	c2.3,0,4.2,1.8,4.2,4.1c0,2.3-1.9,4.1-4.2,4.1c-2.3,0-4.2-1.8-4.2-4.1C15.1,29.4,17,27.6,19.3,27.6L19.3,27.6z M19.3,33.6
	c1.1,0,1.9-0.9,1.9-2c0-1.1-0.8-2-1.9-2c-1.1,0-1.9,0.9-1.9,2C17.4,32.7,18.3,33.6,19.3,33.6L19.3,33.6z M79.7,28.4l-4,9.3
	c-0.6,1.4-1.4,2.4-3,2.4h-0.3c-0.2,0-0.4-0.1-0.4-0.4v-1.2c0-0.3,0.2-0.3,0.3-0.3h0.1c0.6,0,0.9-0.3,1.1-0.7l0.8-1.8l-0.4-0.8
	l-3-6.4c-0.1-0.2,0-0.5,0.4-0.5h1.8c0.2,0,0.3,0.1,0.4,0.4l2,4.6l1.8-4.6c0.1-0.2,0.2-0.4,0.4-0.4h1.7C79.7,27.8,79.8,28,79.7,28.4
	L79.7,28.4z M15.2,24.4c0.3,0,0.5,0.1,0.4,0.6L13,35.2c-0.1,0.2-0.4,0.3-0.4,0.3H10c-0.2,0-0.4-0.1-0.4-0.3l-1.7-5.8l-1.8,5.8
	c-0.1,0.2-0.2,0.3-0.4,0.3H3c-0.2,0-0.4-0.1-0.4-0.3L0,25c-0.1-0.4,0.1-0.5,0.4-0.5h1.9c0.2,0,0.3,0.2,0.4,0.3l1.7,7.9l1.9-6.3
	c0.1-0.3,0.4-0.5,0.7-0.5h1.7c0.3,0,0.6,0.2,0.7,0.5l1.9,6.3l1.8-7.8c0-0.2,0.2-0.3,0.4-0.3L15.2,24.4L15.2,24.4z"/>
</svg>
