<svg xmlns="http://www.w3.org/2000/svg" viewBox="0 0 100 50.3" width="100" height="50.3"><path d="M72.3.1l-11.7 11 12.5 11.7V.4c0-.4-.5-.5-.8-.3zM40.4 11.2L28.7.3c-.2-.3-.7-.2-.7.2v22.4c0-.1 12.4-11.7 12.4-11.7z"/><path fill-opacity=".5" d="M28 22.8h45.3L51.2 1.9c-.4-.4-.9-.4-1.3 0L28 22.8z"/><path d="M86.9 44.5c-1.8 0-2.5-1-2.5-2.5V31c0-.3.1-.4.4-.4h2c.3 0 .4.3.4.4v10.4c0 .4.3.6.6.6h.6c.3 0 .4.1.4.4v1.4c0 .5-.4.5-.5.5l-1.4.2zm-8.7-9.9c2.5 0 4.8 2 4.8 5.1s-2.3 5.1-4.8 5.1c-1.3 0-2.3-.5-2.9-1.3v.5c0 .3-.3.4-.4.4h-2c-.3 0-.4-.3-.4-.4V31c0-.3.1-.4.4-.4h2c.3 0 .4.3.4.4v4.8c.6-.7 1.7-1.2 2.9-1.2zm-.5 7.7c1.4 0 2.4-1.1 2.4-2.5s-1-2.5-2.4-2.5-2.4 1.1-2.4 2.5c.1 1.3 1.1 2.5 2.4 2.5zm-7.1-7.6h.3c.3 0 .5.1.5.5v2c0 .5-.4.5-.5.5h-.6c-1.3 0-1.9.6-1.9 2.1v4.3c0 .3-.3.4-.4.4h-2c-.3 0-.4-.3-.4-.4v-8.8c0-.3.3-.4.4-.4h1.9c.3 0 .4.3.4.4v.8c.5-.9 1.3-1.4 2.3-1.4zm-11.4-.1c3.1 0 5 2.4 5 4.9v.5c0 .3-.1.5-.5.5h-6.6c.1 1.1 1.1 1.9 2.3 1.9 1 0 1.6-.4 2.3-.9.1-.3.4-.3.6 0l1.1 1.1c.3.3.3.4.1.6-.6.9-2 1.8-4.1 1.8-2.9 0-5.1-2-5.1-5-.3-3.1 1.9-5.4 4.9-5.4zm-2.1 4h4.3c-.3-1.1-1.1-1.8-2.1-1.8s-1.9.8-2.2 1.8zm-4.8-8c.3 0 .4.3.5.5v13c0 .3-.3.4-.4.4h-2c-.3 0-.4-.3-.4-.4v-.6c-.5.8-1.5 1.3-2.8 1.3-2.5 0-4.8-2-4.8-5.1s2.3-5.1 4.8-5.1c1.4 0 2.4.5 2.9 1.3V31c0-.3.3-.4.4-.4h1.8zm-4.8 11.7c1.4 0 2.4-1.1 2.4-2.5s-1-2.5-2.4-2.5-2.4 1.1-2.4 2.5c0 1.3 1 2.5 2.4 2.5zM38 44.1v-4.6c0-1.4-.8-2.4-2.1-2.4s-2.3 1-2.3 2.4v4.6c0 .3-.3.4-.4.4h-2c-.3 0-.4-.3-.4-.4v-8.8c0-.3.3-.4.4-.4h2c.3 0 .4.3.4.4v.7c.6-.6 1.6-1.3 3.1-1.3 2.5 0 4.1 1.9 4.1 4.1v5.4c0 .3-.3.4-.4.4h-2c-.2-.1-.4-.2-.4-.5zm-13.8-9.5c2.9 0 5.3 2.3 5.3 5.1 0 2.9-2.4 5.1-5.3 5.1s-5.3-2.3-5.3-5.1 2.4-5.1 5.3-5.1zm0 7.5c1.4 0 2.4-1.1 2.4-2.5s-1-2.5-2.4-2.5-2.4 1.1-2.4 2.5 1.1 2.5 2.4 2.5zm75.7-6.5l-5 11.7c-.8 1.8-1.8 3-3.8 3h-.4c-.3 0-.5-.1-.5-.5v-1.5c0-.4.3-.4.4-.4h.1c.8 0 1.1-.4 1.4-.9l1-2.3-.5-1-3.8-8c-.1-.3 0-.6.5-.6h2.3c.3 0 .4.1.5.5l2.5 5.8 2.3-5.8c.1-.3.3-.5.5-.5h2.1c.4-.2.6 0 .4.5zm-80.8-5c.4 0 .6.1.5.8l-3.3 12.8c-.1.3-.5.4-.5.4h-3.3c-.3 0-.5-.1-.5-.4l-2.1-7.3-2.3 7.3c-.1.3-.3.4-.5.4H3.8c-.3 0-.5-.1-.5-.4L0 31.3c-.1-.5.1-.6.5-.6h2.4c.3 0 .4.3.5.4L5.5 41l2.4-7.9c.1-.4.5-.6.9-.6h2.1c.4 0 .8.3.9.6l2.4 7.9 2.3-9.8c0-.3.3-.4.5-.4l2.1-.2z"/></svg>