<?xml version="1.0" encoding="utf-8"?>
<!-- Generator: Adobe Illustrator 18.0.0, SVG Export Plug-In . SVG Version: 6.00 Build 0)  -->
<!DOCTYPE svg PUBLIC "-//W3C//DTD SVG 1.1//EN" "http://www.w3.org/Graphics/SVG/1.1/DTD/svg11.dtd">
<svg version="1.1" id="Слой_1" xmlns="http://www.w3.org/2000/svg" xmlns:xlink="http://www.w3.org/1999/xlink" x="0px" y="0px" width="100" height="50.3"
	 viewBox="0 0 100 50.3" enable-background="new 0 0 100 50.3" xml:space="preserve">
<path d="M72.3,0.1l-11.7,11l12.5,11.7V0.4C73.1,0,72.6-0.1,72.3,0.1z M40.4,11.2L28.7,0.3C28.5,0,28,0.1,28,0.5v22.4
	C28,22.8,40.4,11.2,40.4,11.2z"/>
<path fill-opacity="0.5" d="M28,22.8h45.3L51.2,1.9c-0.4-0.4-0.9-0.4-1.3,0L28,22.8z"/>
<path d="M86.9,44.5c-1.8,0-2.5-1-2.5-2.5V31c0-0.3,0.1-0.4,0.4-0.4h2c0.3,0,0.4,0.3,0.4,0.4l0,0v10.4c0,0.4,0.3,0.6,0.6,0.6h0.6
	c0.3,0,0.4,0.1,0.4,0.4v1.4c0,0.5-0.4,0.5-0.5,0.5L86.9,44.5L86.9,44.5z M78.2,34.6c2.5,0,4.8,2,4.8,5.1s-2.3,5.1-4.8,5.1
	c-1.3,0-2.3-0.5-2.9-1.3v0.5c0,0.3-0.3,0.4-0.4,0.4l0,0h-2c-0.3,0-0.4-0.3-0.4-0.4l0,0v-13c0-0.3,0.1-0.4,0.4-0.4h2
	c0.3,0,0.4,0.3,0.4,0.4l0,0v4.8C75.9,35.1,77,34.6,78.2,34.6z M77.7,42.3c1.4,0,2.4-1.1,2.4-2.5c0-1.4-1-2.5-2.4-2.5
	c-1.4,0-2.4,1.1-2.4,2.5C75.4,41.1,76.4,42.3,77.7,42.3z M70.6,34.7h0.3c0.3,0,0.5,0.1,0.5,0.5v2c0,0.5-0.4,0.5-0.5,0.5h-0.6
	c-1.3,0-1.9,0.6-1.9,2.1v4.3c0,0.3-0.3,0.4-0.4,0.4h-2c-0.3,0-0.4-0.3-0.4-0.4l0,0v-8.8c0-0.3,0.3-0.4,0.4-0.4l0,0h1.9
	c0.3,0,0.4,0.3,0.4,0.4v0.8C68.8,35.2,69.6,34.7,70.6,34.7L70.6,34.7z M59.2,34.6c3.1,0,5,2.4,5,4.9V40c0,0.3-0.1,0.5-0.5,0.5h-6.6
	c0.1,1.1,1.1,1.9,2.3,1.9c1,0,1.6-0.4,2.3-0.9c0.1-0.3,0.4-0.3,0.6,0l1.1,1.1c0.3,0.3,0.3,0.4,0.1,0.6c-0.6,0.9-2,1.8-4.1,1.8
	c-2.9,0-5.1-2-5.1-5C54,36.9,56.2,34.6,59.2,34.6z M57.1,38.6h4.3c-0.3-1.1-1.1-1.8-2.1-1.8S57.4,37.6,57.1,38.6z M52.3,30.6
	c0.3,0,0.4,0.3,0.5,0.5v13c0,0.3-0.3,0.4-0.4,0.4l0,0h-2c-0.3,0-0.4-0.3-0.4-0.4l0,0v-0.6c-0.5,0.8-1.5,1.3-2.8,1.3
	c-2.5,0-4.8-2-4.8-5.1s2.3-5.1,4.8-5.1c1.4,0,2.4,0.5,2.9,1.3V31c0-0.3,0.3-0.4,0.4-0.4l0,0L52.3,30.6L52.3,30.6z M47.5,42.3
	c1.4,0,2.4-1.1,2.4-2.5c0-1.4-1-2.5-2.4-2.5c-1.4,0-2.4,1.1-2.4,2.5C45.1,41.1,46.1,42.3,47.5,42.3z M38,44.1L38,44.1v-4.6
	c0-1.4-0.8-2.4-2.1-2.4s-2.3,1-2.3,2.4v4.6c0,0.3-0.3,0.4-0.4,0.4h-2c-0.3,0-0.4-0.3-0.4-0.4l0,0v-8.8c0-0.3,0.3-0.4,0.4-0.4l0,0h2
	c0.3,0,0.4,0.3,0.4,0.4V36c0.6-0.6,1.6-1.3,3.1-1.3c2.5,0,4.1,1.9,4.1,4.1v5.4c0,0.3-0.3,0.4-0.4,0.4h-2C38.2,44.5,38,44.4,38,44.1z
	 M24.2,34.6c2.9,0,5.3,2.3,5.3,5.1c0,2.9-2.4,5.1-5.3,5.1c-2.9,0-5.3-2.3-5.3-5.1C18.9,36.9,21.3,34.6,24.2,34.6L24.2,34.6z
	 M24.2,42.1c1.4,0,2.4-1.1,2.4-2.5c0-1.4-1-2.5-2.4-2.5c-1.4,0-2.4,1.1-2.4,2.5C21.8,41,22.9,42.1,24.2,42.1L24.2,42.1z M99.9,35.6
	l-5,11.7c-0.8,1.8-1.8,3-3.8,3h-0.4c-0.3,0-0.5-0.1-0.5-0.5v-1.5c0-0.4,0.3-0.4,0.4-0.4h0.1c0.8,0,1.1-0.4,1.4-0.9l1-2.3l-0.5-1
	l-3.8-8c-0.1-0.3,0-0.6,0.5-0.6h2.3c0.3,0,0.4,0.1,0.5,0.5l2.5,5.8l2.3-5.8c0.1-0.3,0.3-0.5,0.5-0.5h2.1
	C99.9,34.9,100.1,35.1,99.9,35.6L99.9,35.6z M19.1,30.6c0.4,0,0.6,0.1,0.5,0.8l-3.3,12.8c-0.1,0.3-0.5,0.4-0.5,0.4h-3.3
	c-0.3,0-0.5-0.1-0.5-0.4l-2.1-7.3l-2.3,7.3c-0.1,0.3-0.3,0.4-0.5,0.4H3.8c-0.3,0-0.5-0.1-0.5-0.4L0,31.3c-0.1-0.5,0.1-0.6,0.5-0.6
	h2.4c0.3,0,0.4,0.3,0.5,0.4L5.5,41l2.4-7.9c0.1-0.4,0.5-0.6,0.9-0.6h2.1c0.4,0,0.8,0.3,0.9,0.6l2.4,7.9l2.3-9.8
	c0-0.3,0.3-0.4,0.5-0.4L19.1,30.6L19.1,30.6z"/>
</svg>
