<svg width="95" height="69" viewBox="0 0 95 69" xmlns="http://www.w3.org/2000/svg">
  <g fill="none" fill-rule="evenodd">
    <g class="inherit-fill" fill="#505359" fill-rule="nonzero">
      <path d="M.302.297h3.85L7.07 14.328h.06L10.107.298h4l3.009 14.03h.06L20.064.298h3.881L19.192 21.76h-4L12.154 7.075h-.06L8.815 21.76h-3.97L.302.297zm24.303 6.897C24.605 1.902 27.433 0 31.464 0c4.03 0 6.858 1.902 6.858 7.194v7.67c0 5.292-2.828 7.194-6.858 7.194-4.031 0-6.859-1.902-6.859-7.194v-7.67zm4.15 8.205c0 2.378 1.055 3.032 2.709 3.032 1.654 0 2.708-.654 2.708-3.032V6.66c0-2.379-1.053-3.033-2.708-3.033-1.654 0-2.708.654-2.708 3.033v8.74l-.001-.001zM40.61 7.194C40.61 1.902 43.439 0 47.47 0c4.029 0 6.858 1.902 6.858 7.194v7.67c0 5.292-2.829 7.194-6.859 7.194-4.03 0-6.858-1.902-6.858-7.194v-7.67h-.001zm4.151 8.205c0 2.378 1.054 3.032 2.708 3.032 1.654 0 2.707-.654 2.707-3.032V6.66c0-2.379-1.053-3.033-2.707-3.033S44.76 4.28 44.76 6.66v8.74l.001-.001zm11.971 6.361V.297h4.15v17.836h6.678v3.627H56.732zM0 44.898l5.385-21.462h5.324l5.234 21.462h-3.971l-1.053-4.519H5.173L4 44.898H0zm5.926-8.145h4.121l-2.015-8.68h-.06l-2.046 8.68zm11.431 8.145V23.436H21.9l5.775 12.722h.06V23.436h3.79v21.462h-3.97l-6.347-13.853h-.06v13.853h-3.791zM34 23h5.776c4.752 0 7.4 2.02 7.58 7.431v6.6c-.18 5.41-2.828 7.431-7.58 7.431H34V23zm4.152 17.835h1.443c2.286 0 3.61-1.07 3.61-4.28v-5.648c0-3.033-1.023-4.282-3.61-4.282h-1.443v14.21zm27.75-17.399v3.625h-4.843v17.837h-4.15V27.061h-4.844v-3.625h13.837zm1.506 21.462V23.436h4.15v8.56h5.866v-8.56h4.15v21.462h-4.15v-9.275h-5.866v9.275h-4.15zm15.922 0V23.436h11.368v3.625H87.48v4.936h5.506v3.626H87.48v5.649H95v3.626H83.33zM11.852 66.251c-1.113 1.25-2.316 2.082-3.88 2.082-4.03 0-6.858-1.902-6.858-7.193v-7.67c0-5.293 2.827-7.194 6.857-7.194 4.243 0 6.529 2.408 6.678 7.282H10.5c0-2.764-1.023-3.655-2.528-3.655-1.654 0-2.706.654-2.706 3.032v8.74c0 2.378 1.052 3.031 2.706 3.031 1.565 0 2.527-1.13 2.527-2.972v-1.308H7.581v-3.389h7.068v11h-2.165l-.632-1.786zm4.06 1.785l5.386-21.462h5.324l5.233 21.462h-3.97l-1.053-4.519h-5.745l-1.173 4.519h-4.002zm5.927-8.146h4.12l-2.014-8.68h-.061l-2.045 8.68zm11.565 8.146V46.574h4.541l5.776 12.721h.06V46.574h3.79v21.462h-3.97l-6.348-13.854h-.059v13.854h-3.79zm26.892-1.785c-1.112 1.25-2.315 2.082-3.88 2.082-4.03 0-6.858-1.902-6.858-7.193v-7.67c0-5.293 2.828-7.194 6.859-7.194 4.24 0 6.527 2.408 6.677 7.282h-4.15c0-2.764-1.025-3.655-2.527-3.655-1.654 0-2.708.654-2.708 3.032v8.74c0 2.378 1.053 3.031 2.708 3.031 1.565 0 2.526-1.13 2.526-2.972v-1.308h-2.918v-3.389h7.07v11h-2.166l-.633-1.786z"/>
    </g>
  </g>
</svg>
