<svg xmlns="http://www.w3.org/2000/svg" width="156" height="18"><path d="M.368.785h2.378l4.076 7.093L10.896.785h2.379l-5.418 9.383v7.224H5.785v-7.224L.368.785m20.95 0h8.92V2.68h-6.85v4.647h6.652V9.22h-6.652v6.278h6.85v1.894h-8.92V.785m24.254 3.833l-2.951 6.717h5.902l-2.95-6.717zm-3.81 8.612l-1.895 4.162h-2.224L45.573.08l7.929 17.312h-2.225l-1.895-4.162h-7.62zm21.81-4.581h.66c2.115 0 4.406-.398 4.406-3.04 0-2.599-2.467-2.974-4.515-2.974h-.55V8.65zm8.26 8.743h-2.51l-4.891-7.026h-.859v7.026h-2.07V.785h2.511c1.476 0 3.061.022 4.383.77 1.388.816 2.18 2.38 2.18 3.966 0 2.379-1.585 4.361-3.986 4.647l5.242 7.224zM86.061 6.424c.837-.662 1.983-1.344 1.983-2.555 0-1.168-.837-1.806-1.94-1.806-.99 0-1.85.704-1.85 1.761 0 .837.507 1.454.992 2.071l.55.705.265-.176zm-.903 2.907c-1.145.793-3.018 1.916-3.018 3.503 0 1.585 1.498 3.06 3.084 3.06 1.542 0 2.775-1.167 3.81-2.202l-3.678-4.493-.198.132zm5.11 5.815c-1.255 1.476-3.018 2.6-4.978 2.6-2.776 0-5.088-2.027-5.088-4.891 0-2.115 1.321-3.26 2.908-4.405l1.035-.749c-.948-.992-1.829-2.224-1.829-3.634 0-2.291 1.652-3.635 3.833-3.635 2.027 0 3.833 1.278 3.833 3.458 0 1.872-1.631 3.128-3.018 4.142l3.458 4.184L92.36 9.97l1.322 1.365-2.027 2.38 2.974 3.677h-2.556l-1.806-2.246zm15.47.352h.727c4.23 0 7.886-1.585 7.886-6.41 0-4.845-3.657-6.41-7.886-6.41h-.727v12.82zM103.668.785h3.437c5.087 0 9.316 2.687 9.316 8.215 0 5.66-4.141 8.392-9.383 8.392h-3.37V.785zm26.507 3.833l-2.951 6.717h5.903l-2.952-6.717zm-3.81 8.612l-1.895 4.162h-2.225L130.175.08l7.93 17.312h-2.225l-1.895-4.162h-7.62zM143.008.785h2.378l4.075 7.093 4.075-7.093h2.379l-5.418 9.383v7.224h-2.07v-7.224l-5.42-9.383" fill-rule="evenodd"/></svg>