<svg width="86" height="33" viewBox="0 0 86 33" fill="none" xmlns="http://www.w3.org/2000/svg">
  <path d="M54.142 9.863c.435-2.903.836-5.765 1.304-8.614.149-.901-.072-1.278-1.021-1.247a62.486 62.486 0 01-3.98.005c-.798-.023-1.111.256-1.224 1.073-.42 3.039-.942 6.062-1.392 9.095-.26 1.755-.588 3.5.394 5.211.386.671.47 1.545.566 2.342.498 4.232-.666 7.98-3.238 11.377-.586.771-.738 1.87-1.198 3.108 2.057 0 3.674-.046 5.287.018.923.036 1.24-.27 1.362-1.2.466-3.501.934-7.011 1.623-10.475.262-1.322.944-2.66 1.761-3.748 1.026-1.368 2.667-1.373 4.238-1.043 1.352.285 2.152 1.304 2.19 2.531.06 1.93-.151 3.88-.385 5.803-.321 2.647-.766 5.275-1.19 8.124 1.835 0 3.491-.036 5.147.015.813.026 1.142-.276 1.253-1.063.39-2.785.864-5.557 1.242-8.344.295-2.188.65-4.348.146-6.6-.913-4.073-3.955-6.76-8.118-6.76-1.522-.003-3.039.24-4.767.392zM23.687 32.038c-1.088-1.952-2.057-3.773-3.13-5.533-.18-.297-.789-.459-1.205-.472-1.582-.053-3.168-.023-4.752-.025h-2.726c-.03-.12-.064-.241-.095-.361 1.219-1.358 2.435-2.719 3.66-4.074 2.573-2.849 5.193-5.657 7.682-8.58.463-.546.672-1.634.463-2.306-.146-.468-1.203-.914-1.861-.924-5.18-.075-10.36-.049-15.542-.023-.37.002-1.023.2-1.067.407-.38 1.798-.653 3.623-.987 5.608h8.843c-.43.507-.69.825-.962 1.13-3.538 3.94-7.102 7.852-10.579 11.841-.483.553-.815 1.53-.71 2.236.17 1.143 1.271 1.169 2.256 1.166 6.508-.008 13.016.003 19.522-.002.41 0 .82-.06 1.19-.087zm44.006.175c1.672 0 3.032-.003 4.392 0 1.8.005 1.761.002 2.019-1.812.478-3.371.971-6.74 1.524-10.099.435-2.63 2.608-4.444 5.282-4.511.897-.023 1.808.082 2.69-.041.375-.051.912-.482.992-.828.296-1.28.378-2.613.645-3.902.201-.96-.056-1.352-1.062-1.316-1.324.046-2.653-.023-3.977.033-4.894.202-9.44 4.007-10.373 8.772-.522 2.67-.867 5.375-1.283 8.067-.278 1.796-.543 3.595-.849 5.637z" fill="#000" class="inherit-fill" />
  <path d="M46.377 19.767c-.062 8.301-8.527 14.888-16.532 12.861-4.564-1.158-7.598-5.736-7.073-10.67.715-6.728 6.744-12.318 13.355-12.377 6.238-.054 10.556 4.72 10.25 10.186zm-6.28.795c.021-2.739-1.907-4.743-4.602-4.778-3.335-.044-6.465 3.013-6.49 6.343a4.668 4.668 0 004.72 4.724c3.361-.028 6.347-2.974 6.372-6.29z" fill="#000" class="inherit-fill"/>
</svg>
