<svg id="Logo_xA0_Image_1_" xmlns="http://www.w3.org/2000/svg" viewBox="0 0 772.9 132"><style>.st0{fill:#565656;} .st1{fill:#FFFFFF;}</style><path class="st0" d="M203.2 98.6h-36.6l-7.4 17.6H136l39-93.3h20.5l38.2 93.3h-23.2l-7.3-17.6zm-6.1-16.5l-11.9-31.3-12.1 31.3h24zM259.2 14.3v102h-20.9v-102h20.9zM317 53.9h20.9v62.4H317v-7.6c-5.7 8.4-13.8 9.7-19.2 9.7-9.3 0-17.1-2.2-24.2-9.5-6.8-7-9.4-15.1-9.4-23.4 0-10.5 4.1-19.5 10-25.2 5.7-5.5 13.5-8.5 22.5-8.5 5.5 0 14.4 1.3 20.3 9.1v-7zm-26.5 19.7c-2.2 2.1-4.8 5.7-4.8 11.3 0 5.6 2.5 9.2 4.4 11.2 2.9 2.9 7.4 4.9 12.3 4.9 4.2 0 8.1-1.7 10.9-4.3 2.8-2.5 5.1-6.4 5.1-11.8 0-4.5-1.7-8.7-4.8-11.5-3.2-2.9-7.8-4.3-11.6-4.3-4.6 0-8.8 1.8-11.5 4.5zM344.5 53.9h20.9v9.8c1.9-3.5 4.8-6.7 8.1-8.7 3.5-2.1 7.1-2.7 11.2-2.7 2.6 0 4.5.3 6.8 1l-1.2 18.9c-2.8-1.4-5.8-2.2-9.4-2.2-4.5 0-7.8 1.5-10.5 4.2-4.6 4.8-5.1 11.5-5.1 16.8v25.3h-20.9V53.9zM395.6 53.9h20.9v7.3c5.4-7.8 13.2-8.8 18.1-8.8 2.8 0 7.8.3 12.2 2.8 3.3 1.8 6.1 4.9 7.8 8.7 1.6-2.5 4.1-5.5 8.3-8 4.5-2.7 8.7-3.5 13.8-3.5 7.8 0 14.2 2.2 18.1 5.9 6.2 5.7 6.7 14.1 6.7 18.6v39.5h-20.9V84.6c0-3.2 0-8.8-2.8-12.2-1.7-2.1-4.5-3.4-7.5-3.4-3.5 0-6.4 1.5-8.1 3.8-2.8 3.4-3.2 8.3-3.2 12.3v31.1h-20.9V83.8c0-4.2-.1-9.1-3.3-12.2-2.2-2.1-4.8-2.5-7-2.5-2.8 0-5.2.7-7.3 2.5-3.9 3.6-4.1 10.6-4.1 12.7v31.9h-20.9V53.9z"/><path d="M566.6 65.3h48.1v1c0 11.3-4.2 28.5-15 39.3-10.7 10.8-23.1 12.7-34.6 12.7-11.6 0-24.1-1.8-35.4-13-5.7-5.6-14.2-16.9-14.2-35.5 0-15.3 5.8-27.4 13.9-35.4 11.9-11.9 26.6-13.6 38-13.6 8 0 18.1 1.3 27.1 7 6.5 4.2 12.2 10.8 15.7 16.7L590.1 55c-1.9-3.6-4.8-7.4-8.6-10.1-4.4-3.1-9.3-4.5-14.8-4.5-8.9 0-15.4 2.8-20 7.6-5.4 5.5-8.3 13.4-8.3 22.1 0 10.6 4.1 17.5 8.1 21.4 5.7 5.6 12.2 7.3 19.6 7.3 9.6 0 14.7-3.2 16.8-5 .7-.6 5.1-4.2 7-11.1h-23.4V65.3zM620.3 53.9h20.9v9.8c1.9-3.5 4.8-6.7 8.1-8.7 3.5-2.1 7.1-2.7 11.2-2.7 2.6 0 4.5.3 6.8 1l-1.2 18.9c-2.8-1.4-5.8-2.2-9.4-2.2-4.5 0-7.8 1.5-10.5 4.2-4.6 4.8-5.1 11.5-5.1 16.8v25.3h-20.9V53.9zM683.6 15.5c6.8 0 12.2 5.2 12.2 11.8S690.4 39 683.6 39c-6.8 0-12.2-5.2-12.2-11.8s5.4-11.7 12.2-11.7zm10.5 38.4v62.4h-20.9V53.9h20.9zM772.9 116.3H752v-7.6c-3.2 4.5-9 9.7-20.5 9.7-9.6 0-16.6-2.9-22.2-8.5-6.7-6.4-10.2-15.4-10.2-25 0-10.4 3.9-18.9 10.2-24.6 5.7-5.2 13.6-8.4 22.5-8.4 7.1 0 15 2.2 20.2 9.1V14.3h20.9v102zm-47.2-43c-3 2.8-5.1 6.9-5.1 11.9 0 4.6 2 8.7 5.1 11.5 3.2 2.9 7.3 4.3 10.9 4.3 3.9 0 8.6-1.5 11.9-4.6 2.5-2.2 4.8-6 4.8-11.2 0-5.3-2.2-9-4.6-11.5-3.3-3.4-7.3-4.6-11.8-4.6-4.2 0-7.8 1.1-11.2 4.2z"/><path class="st0" d="M115.2 69l-12.5-8.5v-13c.1-.9.1-1.8.1-2.7C102.8 20 82.8 0 58.1 0 33.4 0 13.4 20 13.4 44.6v15.9L.9 69c-.8.5-1.1 1.5-.8 2.3.3.9 1.1 1.5 2 1.5h11.3v49.6h4.2v5.3c0 2.4 2 4.3 4.3 4.3H94c2.4 0 4.3-2 4.3-4.3v-5.3h4.3V72.8H114c.9 0 1.7-.6 2-1.5.3-.9 0-1.8-.8-2.3zM90.3 44.8v6.8h-.5L59.2 30.9c-.7-.5-1.6-.5-2.3 0L26.3 51.7h-.5v-6.8-.1C25.8 27 40.2 12.6 58 12.6c17.9-.1 32.3 14.3 32.3 32.2z"/><path d="M98.3 72.5L58.9 45.7c-.5-.3-1.1-.3-1.6 0L17.8 72.5c-.5.4-.8 1-.6 1.6.2.6.8 1 1.4 1h10.9v38.7c0 1.7 1.4 3.1 3.1 3.1h50.9c1.7 0 3.1-1.4 3.1-3.1V75.2h10.9c.6 0 1.2-.4 1.4-1 .2-.7-.1-1.3-.6-1.7z"/><circle class="st1" cx="58.1" cy="38.6" r="3.4"/><path class="st0" d="M58.8 38.6l.6-.6c.2-.2.2-.5 0-.7s-.5-.2-.7 0l-.6.6-.6-.6c-.2-.2-.5-.2-.7 0s-.2.5 0 .7l.6.6-.6.6c-.2.2-.2.5 0 .7.1.1.2.1.4.1s.3 0 .4-.1l.6-.6.6.6c.1.1.2.1.4.1s.3 0 .4-.1c.2-.2.2-.5 0-.7l-.8-.6z"/><circle class="st1" cx="90" cy="123.6" r="3.4"/><path class="st0" d="M90.7 123.6l.6-.6c.2-.2.2-.5 0-.7s-.5-.2-.7 0l-.6.6-.6-.6c-.2-.2-.5-.2-.7 0s-.2.5 0 .7l.6.6-.6.6c-.2.2-.2.5 0 .7.1.1.2.1.4.1s.3 0 .4-.1l.6-.6.6.6c.1.1.2.1.4.1s.3 0 .4-.1c.2-.2.2-.5 0-.7l-.8-.6z"/><circle class="st1" cx="26.2" cy="123.6" r="3.4"/><path class="st0" d="M26.9 123.6l.6-.6c.2-.2.2-.5 0-.7s-.5-.2-.7 0l-.6.6-.6-.6c-.2-.2-.5-.2-.7 0s-.2.5 0 .7l.6.6-.6.6c-.2.2-.2.5 0 .7.1.1.2.1.4.1s.3 0 .4-.1l.6-.6.6.6c.1.1.2.1.4.1s.3 0 .4-.1c.2-.2.2-.5 0-.7l-.8-.6z"/></svg>