<?xml version="1.0" encoding="utf-8"?>
<!-- Generator: Adobe Illustrator 21.1.0, SVG Export Plug-In . SVG Version: 6.00 Build 0)  -->
<svg version="1.1" id="Layer_1" xmlns="http://www.w3.org/2000/svg" xmlns:xlink="http://www.w3.org/1999/xlink" x="0px" y="0px"
	 viewBox="0 0 260.6 58.7" style="enable-background:new 0 0 260.6 58.7;" xml:space="preserve">
<path d="M36.2,0.7h-36C0.1,0.7,0,0.8,0,0.9v57c0,0.1,0.1,0.2,0.2,0.2h10.6c0.1,0,0.2-0.1,0.2-0.2V33.6h20.3c0.1,0,0.2-0.1,0.2-0.2
	v-9.8c0-0.1-0.1-0.2-0.2-0.2H10.9V10.8h25.3c0.1,0,0.2-0.1,0.2-0.2V0.8C36.4,0.8,36.3,0.7,36.2,0.7L36.2,0.7z M86.4,47.9h-24v-47
	c0-0.1-0.1-0.2-0.2-0.2H51.7c-0.1,0-0.2,0.1-0.2,0.2v57c0,0.1,0.1,0.2,0.2,0.2h34.8c0.1,0,0.2-0.1,0.2-0.2v-9.8
	C86.6,48,86.5,47.9,86.4,47.9z M122.8,0c-4.9,0-9.3,1-13.4,3.1c-8.5,4.3-13.6,14.1-13.6,26.2c0,6.4,1.3,11.9,3.8,16.4
	c4.9,8.6,12.7,13,23.3,13c5,0,9.4-1,13.4-3c8.5-4.5,13.6-14.3,13.6-26.3c0-6.3-1.3-11.8-3.9-16.4C141.3,4.4,133.5,0,122.8,0L122.8,0
	z M122.8,48.5c-4.6,0-8.3-1.6-11.4-4.8c-3-3.2-4.5-8.1-4.5-14.3s1.5-11.1,4.5-14.3c3.1-3.2,6.8-4.8,11.4-4.8c4.6,0,8.4,1.6,11.3,4.8
	c3,3.2,4.6,8,4.6,14.3s-1.5,11.1-4.6,14.3C131.2,46.9,127.4,48.5,122.8,48.5z M202.4,0.7H191c-0.1,0-0.2,0-0.2,0.1l-10.2,21.7
	L170.4,0.8c0-0.1-0.1-0.1-0.2-0.1h-11.4c-0.1,0-0.1,0-0.2,0.1V1L175,33.7v24.2c0,0.1,0.1,0.2,0.2,0.2H186c0.1,0,0.2-0.1,0.2-0.2
	V33.6l16.4-32.7V0.7H202.4z M233.9,0.7h-17.8c-0.1,0-0.2,0.1-0.2,0.2v57c0,0.1,0.1,0.2,0.2,0.2h17.8c12.3,0,26.7-7.5,26.7-28.7
	S246.2,0.7,233.9,0.7z M226.9,10.8h3.7c5.1,0,9.1,1.1,12.7,3.6c4,2.7,6.2,7.9,6.2,14.9s-2.2,12.2-6.2,14.9
	c-3.7,2.5-7.6,3.6-12.7,3.6h-3.7C226.9,47.8,226.9,10.8,226.9,10.8z"/>
</svg>
