<svg xmlns="http://www.w3.org/2000/svg" viewBox="0 0 340.2 70.3"><path d="M63.5 20C61.2 8.4 53.5.1 39.6 0H39C23.1.1 11.4 8.1 5.1 20 1.8 26.3 0 33.8 0 41.7c0 15.3 8.5 25 19.3 27.7 2.1.5 4.2.8 6.4.8 2.6 0 4.9-.3 7.1-.8 4.6-1.1 8.1-3.4 10.9-6.8v6.1c0 .1 0 .2.1.3.1.2.3.4.6.4h9.4c.1 0 .2 0 .3-.1.2-.1.3-.3.3-.4l6.5-33.1v-.2c0-.4-.3-.7-.7-.7H36.5c-.3 0-.6.2-.7.6l-1.8 9v.1c0 .1 0 .2.1.3.1.2.4.4.6.4h11.9c-2.5 7.1-8.5 13.2-17.9 13.2-9.5 0-15.5-6.9-15.5-18.5 0-7.6 2.4-14.7 6.7-19.9 4.1-5 10-8.2 17-8.2 6.6 0 10.4 3 13 8.2.6 1.3 1.2 2.7 1.7 4.2.1.3.4.4.7.4h.2l10.7-2.8c.1 0 .1 0 .2-.1.2-.1.3-.3.3-.6v-.1c-.1-.4-.2-.8-.2-1.1M89.6.7c0-.4-.3-.7-.7-.7H78.1c-.3 0-.6.3-.7.6L73.6 20l-9.4 48.5v.1c0 .1 0 .2.1.3.1.3.4.4.7.4h10.8c.1 0 .3 0 .4-.1.2-.1.3-.2.3-.4L85.9 20 89.6.8V.7M123.4 20c-2-.5-4.1-.8-6.4-.8-2.8 0-5.4.2-7.7.8-4.6 1-8.5 3.2-12.5 7.1-5.9 5.7-8.4 12.9-8.4 22.2 0 9.7 5.6 17.6 15.1 20.1 2 .5 4.1.8 6.4.8 2.8 0 5.4-.2 7.7-.8 4.6-1.1 8.4-3.2 12.5-7.1 5.9-5.7 8.4-12.9 8.4-22.2 0-9.7-5.6-17.7-15.1-20.1m-1.6 34.5c-2.5 3.3-6.1 5.3-10.9 5.3-5.8 0-9.6-4.7-9.6-12.3 0-5.3 1.2-9.4 3.6-12.5 2.5-3.3 6.1-5.3 10.9-5.3 5.8 0 9.6 4.7 9.6 12.3.1 5.2-1.1 9.3-3.6 12.5M179.1 27.1c-1.7-3.2-5.4-5.9-9.7-7.1-1.7-.5-3.6-.8-5.4-.8-2.3 0-4.4.3-6.3.8-6.9 1.9-11 7-11 14.3 0 6.6 4.3 10.4 10.1 13.1 5.6 2.6 8.4 4.4 8.4 7.2 0 3.5-2.9 5.1-6.3 5.1-4.7 0-8-2.8-9.4-7.7-.1-.3-.4-.5-.7-.5-.1 0-.2 0-.3.1l-9.1 3.8c-.3.1-.4.4-.4.7v.1c1.2 4.9 5.1 11 12.6 13.2 1.8.5 3.7.8 5.9.8 2.5 0 4.8-.3 6.9-.8C172 67.5 177 62.3 177 53c0-6.9-5.1-10.2-10.2-12.5-3.3-1.6-8.5-3-8.5-6.5 0-2.8 2.2-4.4 4.8-4.4 2.6 0 5.4 1.2 7.2 3.7.1.2.3.3.6.3.1 0 .3 0 .4-.1l7.6-5.5h.1c.2-.1.3-.3.3-.5-.1-.2-.2-.3-.2-.4M209.7 20c-1.7-.5-3.6-.8-5.4-.8-2.3 0-4.4.3-6.3.8-6.9 1.9-11 7-11 14.3 0 6.6 4.3 10.4 10.1 13.1 5.6 2.6 8.4 4.4 8.4 7.2 0 3.5-2.9 5.1-6.3 5.1-4.7 0-8-2.9-9.4-7.7-.1-.3-.4-.4-.7-.4-.1 0-.2 0-.3.1l-9.1 3.8c-.3.1-.4.4-.4.7v.1c1.2 4.9 5.1 11 12.6 13.2 1.8.5 3.7.8 5.9.8 2.5 0 4.8-.3 6.9-.8 7.5-1.8 12.5-7.1 12.5-16.4 0-6.9-5.1-10.2-10.2-12.5-3.3-1.6-8.5-3-8.5-6.5 0-2.8 2.2-4.4 4.8-4.4 2.5 0 5.4 1.2 7.2 3.7.1.2.3.3.6.3.1 0 .3 0 .4-.1l7.7-5.5c.2-.1.2-.3.2-.5 0-.1 0-.2-.1-.3-1.5-3.5-5.2-6.1-9.6-7.3M241.4 20h-10.8c-.3 0-.6.2-.7.5l-9.3 48v.2c0 .1 0 .2.1.3.1.3.4.4.7.4h10.8c.1 0 .3 0 .4-.1.2-.1.3-.2.3-.4l9.3-48.1v-.1c-.1-.4-.4-.7-.8-.7M279.5 20c-1.9-.5-4-.8-6.3-.8-2.5 0-4.9.3-7.1.8-13.7 3.1-22.1 15.2-22.1 28.3 0 11.3 6 18.7 14.9 21.1 2 .5 4.1.8 6.3.8 2.7 0 5.1-.3 7.3-.8 6.9-1.6 11.9-5.7 16.5-12.4.1-.1.1-.2.1-.4 0-.3-.1-.5-.3-.6l-8.5-4.4c-.1 0-.2-.1-.3-.1-.2 0-.4.1-.5.3-3.5 5.1-7.6 8-13.2 8-6.5 0-10-4.5-10-9.6v-1.6h34.9c.1 0 .3 0 .4-.1.1-.1.3-.2.3-.4.4-1.3 1.2-4.8 1.2-9.1-.1-9.1-4.7-16.7-13.6-19m-20.9 19c2.1-5.1 7-9.4 13.1-9.4 6.2 0 9 3.2 9.4 9.4h-22.5zM332.6 31c.1.1.2.1.4.1.1 0 .3 0 .4-.1l.3-.3 3.6-9.5c0-.1.1-.2.1-.3 0-.3-.2-.5-.4-.7-.2-.1-.4-.2-.7-.2-1.5-.5-2.8-.8-5.1-.8-1.8 0-3.5.2-5.3.8-3.6 1.1-7.1 3.4-10.2 7.4l1.3-6.5v-.2c0-.4-.3-.7-.7-.7h-10.8c-.3 0-.6.2-.7.6l-9.3 48v.1c0 .1 0 .2.1.3.1.3.4.4.7.4h10.8c.1 0 .3 0 .4-.1.2-.1.3-.3.3-.4l3.3-17c2.9-15.6 11.4-21.7 17.4-21.7 1.5-.1 2.9.2 4.1.8M238.2.8c-4 0-7 3-7 7 0 3.9 3 7 7 7s7-3 7-7c-.1-4-3-7-7-7M333.2 56.4c-4 0-7 3-7 7 0 2.6 1.3 4.8 3.4 6 1 .6 2.3.9 3.6.9 1.3 0 2.6-.3 3.6-.9 2.1-1.2 3.4-3.4 3.4-6 0-4-3-7-7-7"/></svg>