<svg xmlns="http://www.w3.org/2000/svg" xmlns:xlink="http://www.w3.org/1999/xlink" width="112px" height="29px" viewBox="0 0 112 29" version="1.1">
    <!-- Generator: Sketch 3.8.3 (29802) - http://www.bohemiancoding.com/sketch -->
    <title>goby-logo</title>
    <desc>Created with Sketch.</desc>
    <defs></defs>
    <g id="Page-1" stroke="none" stroke-width="1" fill="none" fill-rule="evenodd">
        <g id="goby-logo" fill="#000000">
            <path d="M13.94,13.37 L13.94,18.24 L22.71,18.24 C21.3291015,21.6717281 17.9890264,23.9090231 14.29,23.88 C9.49892899,23.7192448 5.6981191,19.7887672 5.6981191,14.995 C5.6981191,10.2012328 9.49892899,6.27075518 14.29,6.11 C17.3552176,6.09821975 20.2185387,7.63711375 21.9,10.2 L27.76,10.2 C25.6356228,4.61829148 20.2620819,0.948167021 14.29,1 C6.60358211,1.1812305 0.501594524,7.52720957 0.621709086,15.2148254 C0.741823647,22.9024412 7.03908882,29.0546891 14.7274166,28.9956981 C22.4157444,28.936707 28.6178638,22.6885538 28.62,15 C28.6182724,14.4585124 28.584882,13.9175892 28.52,13.38 L13.94,13.38 L13.94,13.37 Z" id="Shape"></path>
            <path d="M31.82,15 C31.6939764,9.18377127 35.1016328,3.87013585 40.44018,1.558359 C45.7787272,-0.753417855 51.9854766,0.396845034 56.1410874,4.4681222 C60.2966982,8.53939937 61.5739564,14.7212644 59.3721045,20.1060807 C57.1702525,25.490897 51.92759,29.0067657 46.11,29 C42.3572747,29.0426531 38.7417444,27.5906303 36.0609328,24.9642229 C33.3801212,22.3378154 31.854286,18.7528111 31.82,15 M54.93,15 C54.8859206,10.1463313 50.9242709,6.24266405 46.0704799,6.27014732 C41.2166888,6.29763059 37.2994986,10.2459096 37.3103854,15.0997663 C37.3212723,19.9536229 41.2561345,23.8842903 46.11,23.89 C48.4655467,23.9036509 50.7275576,22.9691358 52.386612,21.2969143 C54.0456665,19.6246928 54.9622711,17.3553652 54.93,15" id="Shape"></path>
            <path d="M64.17,1.45 L74.32,1.45 C80.49,1.45 83.57,4.12 83.57,9.06 C83.6328162,11.2287096 82.4737537,13.2493419 80.57,14.29 C83.0843391,15.2979342 84.6880792,17.7837314 84.57,20.49 C84.57,25.87 81.23,28.54 75.06,28.54 L64.17,28.54 L64.17,1.45 L64.17,1.45 Z M69.46,6.2 L69.46,12.2 L74.46,12.2 C77.57,12.2 78.23,10.55 78.23,9.05 C78.23,7.55 77.23,6.19 74.72,6.19 L69.46,6.19 L69.46,6.2 Z M69.46,17.04 L69.46,23.8 L75.27,23.8 C78.27,23.8 79.22,22.07 79.22,20.38 C79.22,18.69 78.22,17.04 75.27,17.04 L69.46,17.04 L69.46,17.04 Z" id="Shape"></path>
            <polygon id="Shape" points="105.39 1.45 98.69 12.84 91.79 1.45 85.49 1.45 95.8 17.75 89.44 28.54 95.52 28.54 111.43 1.45"></polygon>
        </g>
    </g>
</svg>
