<svg xmlns="http://www.w3.org/2000/svg" viewBox="0 0 115.19 38.31" class="rmq-84d211e4" data-radium="true" style="width:135px;height:45px;position:absolute;top:0px;right:0px;bottom:0px;left:0px;margin:auto;transition:all 0.5s cubic-bezier(0.694, 0.048, 0.335, 1)"><path d="M42.68 33.57v3.46h-.02l-1.99-3.46h-.68v4.64h.66v-3.46h.01l2.02 3.46h.66v-4.64h-.66M44.85 33.57v4.64h2.84v-.61h-2.17v-1.48h1.98v-.59h-1.98v-1.34h2.17v-.62h-2.84M53.52 33.57l-.66 3.54h-.01l-1.13-3.54h-.51l-1.12 3.54h-.01l-.66-3.54h-.68l.87 4.64h.75l1.09-3.51h.01l1.12 3.51h.74l.87-4.64h-.67M60.5 33.57l-1.12 2.07h-.02l-1.12-2.07h-.71l1.51 2.68v1.96h.65v-1.96l1.53-2.68h-.72M63.75 38.3a1.94 1.94 0 0 1-.74-.14 1.86 1.86 0 0 1-.63-.42 2 2 0 0 1-.45-.77 3.51 3.51 0 0 1-.17-1.13 2.48 2.48 0 0 1 .58-1.76 1.84 1.84 0 0 1 1.4-.62 1.81 1.81 0 0 1 1.38.63 2.53 2.53 0 0 1 .58 1.77 3.55 3.55 0 0 1-.16 1.13 1.93 1.93 0 0 1-.44.76 1.86 1.86 0 0 1-.62.41 2 2 0 0 1-.73.14m0-.62a1.11 1.11 0 0 0 .91-.45 2.22 2.22 0 0 0 .35-1.37 2.09 2.09 0 0 0-.36-1.32 1.11 1.11 0 0 0-.9-.46 1.14 1.14 0 0 0-.92.45 2 2 0 0 0-.36 1.31 2.22 2.22 0 0 0 .36 1.38 1.12 1.12 0 0 0 .93.46M66.98 38.2v-4.64h1.82a1.68 1.68 0 0 1 1.14.37 1.31 1.31 0 0 1 .42 1 1.33 1.33 0 0 1-.28.91 1.43 1.43 0 0 1-.81.43l1 1.89h-.7l-1-1.84h-.93v1.84h-.66zm.66-2.42h1.1a1.12 1.12 0 0 0 .69-.19.71.71 0 0 0 .26-.61.79.79 0 0 0-1-.81H67.6v1.61zM74.03 33.57l-1.81 2.16h-.02v-2.16h-.66v4.64h.66v-1.55l.47-.58h.02l1.55 2.13h.8l-1.9-2.61 1.71-2.03h-.82M115.06 22.88a1.79 1.79 0 0 0-.66-.22c-1.24-.07-2.48-.12-3.72-.16h-4.6a9.55 9.55 0 0 0-1.06.07c-1.41.17-2.81.37-4.22.51-1 .1-2 .14-3 .2-.76.05-1.53.09-2.29.17q-1.85.2-3.69.45a20 20 0 0 1-3.18.11c-2.36 0-4.72-.16-7.08-.22a10.85 10.85 0 0 1-2.11-.21 18.3 18.3 0 0 0-5.28-.37l-3.89.27a4.47 4.47 0 0 1-.88 0c-2.06-.27-4.13-.21-6.19-.28-1.3 0-2.59-.13-3.89-.18-1.06 0-2.12-.06-3.19-.08a26.24 26.24 0 0 1-4.94-.32 14.42 14.42 0 0 0-3.36-.16H38.45a18 18 0 0 1-2.47-.14 13.22 13.22 0 0 0-2.47-.12h-1.59a8.71 8.71 0 0 0-1.75.16c-1.1.19-2.22.3-3.34.41-1.82.17-3.65.31-5.47.47l-1.06.11a2.62 2.62 0 0 1-.7.06 22.25 22.25 0 0 0-3.89-.13c-2.54 0-5.08 0-7.62.09-1.35 0-2.71.16-4.05.34a8.65 8.65 0 0 1-3.16-.08 1.64 1.64 0 0 0-.69 0 .36.36 0 0 0-.18.27.33.33 0 0 0 .12.28 3.4 3.4 0 0 0 .82.3 5.32 5.32 0 0 0 1.23.11 31.37 31.37 0 0 0 4.59-.27 7.1 7.1 0 0 1 1.59-.11c1.89 0 3.78 0 5.67-.07h5.13a21.12 21.12 0 0 0 3-.14 13.57 13.57 0 0 1 1.59-.08 14.14 14.14 0 0 0 3.17-.3 2.28 2.28 0 0 1 .53-.07c1.89 0 3.76-.33 5.65-.31h4.6a18.17 18.17 0 0 1 2.47.16 9.67 9.67 0 0 0 2.29 0 12.76 12.76 0 0 1 2.82 0 5.22 5.22 0 0 0 1.59 0 14.4 14.4 0 0 1 4.24 0c2.18.22 4.36.29 6.54.37s4.48.23 6.72.34c.35 0 .71.05 1.06.05h6.73c.71 0 1.41-.06 2.12-.12a13.45 13.45 0 0 1 4.23.15c.52.12 1.05.15 1.57.26a6 6 0 0 0 1.76.1 36.69 36.69 0 0 1 6 .11 25.25 25.25 0 0 0 4.95-.16c1.76-.21 3.52-.34 5.29-.45a20 20 0 0 0 3.87-.39 3.3 3.3 0 0 1 .7-.09c2.36-.1 4.71-.4 7.07-.37 1.48 0 2.95.13 4.42.27a1.17 1.17 0 0 0 .85-.11.44.44 0 0 0 .17-.28.36.36 0 0 0-.13-.29M23.13 8.76l-.27 3.28h-9.45v-.21a4.91 4.91 0 0 0 1.26-.19.69.69 0 0 0 .37-.35 1.2 1.2 0 0 0 .1-.49V1.6a1 1 0 0 0-.14-.56 1.36 1.36 0 0 0-.66-.41 3.23 3.23 0 0 0-.94-.22V.15h4.94v.21a5.33 5.33 0 0 0-1.24.23.82.82 0 0 0-.56.88v8.68a3 3 0 0 0 .13 1.11.74.74 0 0 0 .48.37 6.33 6.33 0 0 0 1.47.11 11.08 11.08 0 0 0 1.83-.13 1.87 1.87 0 0 0 1-.34 9.48 9.48 0 0 0 .9-1.31 5.84 5.84 0 0 0 .59-1.19h.24zM36.44 12.03h-5v-.21a5 5 0 0 0 1.23-.2.65.65 0 0 0 .59-.45 1.06 1.06 0 0 0-.07-.42l-1.22-3h-4.4q-.38 1-.56 1.44t-.33 1a2.21 2.21 0 0 0-.13.72.81.81 0 0 0 .63.65 3.88 3.88 0 0 0 1.43.28v.21h-4.77v-.21a2.45 2.45 0 0 0 1.47-.53 2.85 2.85 0 0 0 .82-1.15Q28.26 5 30.21.01h.25l.88 2.22 3.3 8.45a1.63 1.63 0 0 0 .47.71 1.83 1.83 0 0 0 .6.32 3.41 3.41 0 0 0 .74.13v.21zm-4.63-4.7l-2.05-5.18-2 5.22h4.1zM53.23 8.76l-.27 3.28h-9.45v-.21a4.91 4.91 0 0 0 1.26-.19.69.69 0 0 0 .37-.35 1.21 1.21 0 0 0 .1-.49V1.6a1 1 0 0 0-.14-.56 1.37 1.37 0 0 0-.66-.41 3.24 3.24 0 0 0-.94-.22V.15h4.94v.21a5.33 5.33 0 0 0-1.24.23.81.81 0 0 0-.56.88v8.68a3 3 0 0 0 .13 1.11.74.74 0 0 0 .48.37 6.33 6.33 0 0 0 1.47.11 11.09 11.09 0 0 0 1.83-.13 1.87 1.87 0 0 0 1-.34 9.48 9.48 0 0 0 .9-1.31 5.84 5.84 0 0 0 .59-1.19h.24zM60.29 12.03h-5v-.21a6.68 6.68 0 0 0 1.27-.15.8.8 0 0 0 .53-.83V1.52a.88.88 0 0 0-.18-.61 1.63 1.63 0 0 0-.74-.34 5.34 5.34 0 0 0-.89-.17V.15h5v.21a4 4 0 0 0-1.44.28.79.79 0 0 0-.37.76v9.31a1 1 0 0 0 .09.44.78.78 0 0 0 .29.31 2 2 0 0 0 .66.22 7.22 7.22 0 0 0 .77.11V12zM74.86 7.15a4.47 4.47 0 0 0-1.36.28.83.83 0 0 0-.37.39 1.31 1.31 0 0 0-.1.5v4.16l-.17.05-.91-1.06a11.73 11.73 0 0 1-4.19.87 4.5 4.5 0 0 1-2.53-.82 5.51 5.51 0 0 1-1.89-2.13 6.55 6.55 0 0 1 .17-6.08A6.47 6.47 0 0 1 65.76.93a5.46 5.46 0 0 1 2.92-.88 6.05 6.05 0 0 1 3.49 1.06l.59-1.06h.3l.1 4.14h-.25a5.9 5.9 0 0 0-1-1.92A5 5 0 0 0 70.34.91a4.08 4.08 0 0 0-2-.49 3.23 3.23 0 0 0-2.08.76A4.93 4.93 0 0 0 64.8 3.3a8.61 8.61 0 0 0-.52 3.12 6.67 6.67 0 0 0 .58 2.8 4.89 4.89 0 0 0 1.55 2 3.46 3.46 0 0 0 2.08.71 4.18 4.18 0 0 0 1.69-.32 2.66 2.66 0 0 0 1.12-.87 2.05 2.05 0 0 0 .4-1.22v-1a1.59 1.59 0 0 0-.16-.78 1 1 0 0 0-.69-.4 14.68 14.68 0 0 0-1.65-.19v-.3h5.6v.3zM89.57.39a3.45 3.45 0 0 0-.79.16 4.65 4.65 0 0 0-.75.26q-.61.36-.61 2.3v9.04h-.43l-8-10.07v6.78a3.15 3.15 0 0 0 .63 2.38 2.65 2.65 0 0 0 .83.33 5.33 5.33 0 0 0 1 .22V12h-5.07v-.21a4.6 4.6 0 0 0 .85-.2 4.19 4.19 0 0 0 .71-.25q.63-.35.63-2.39V2.46a2.11 2.11 0 0 0-.16-.86 1.38 1.38 0 0 0-.49-.58 4.06 4.06 0 0 0-.88-.42 4.45 4.45 0 0 0-1-.25v-.2h3.07l7.8 9.88V3.19A7.74 7.74 0 0 0 86.83 2a2.9 2.9 0 0 0-.22-.81.88.88 0 0 0-.47-.43 5.9 5.9 0 0 0-.86-.26 5 5 0 0 0-.81-.14V.15h5v.21zM101.45 8.79l-.23 3.24h-9.87v-.21a5.76 5.76 0 0 0 1.41-.2.7.7 0 0 0 .39-.35 1.17 1.17 0 0 0 .1-.48V1.54a1 1 0 0 0-.17-.61 1.45 1.45 0 0 0-.74-.36 5.31 5.31 0 0 0-1-.17V.15h9.16v2.62h-.29a4 4 0 0 0-.71-1.43 1.78 1.78 0 0 0-1-.8 11.53 11.53 0 0 0-1.44-.07h-2.4v5.2h1.69a2.52 2.52 0 0 0 .75-.1 1.37 1.37 0 0 0 .55-.33 1.39 1.39 0 0 0 .32-.42 3.16 3.16 0 0 0 .14-.42q.06-.24.11-.5c0-.18 0-.3.06-.38h.29v4.77h-.3a5 5 0 0 0-.11-.66 5 5 0 0 0-.19-.65 1.25 1.25 0 0 0-.29-.47 1.53 1.53 0 0 0-.37-.28 1.56 1.56 0 0 0-.43-.14 2.92 2.92 0 0 0-.54 0h-1.69v4a2.66 2.66 0 0 0 .14 1 .79.79 0 0 0 .5.43 5.38 5.38 0 0 0 1.44.12h.94a3.62 3.62 0 0 0 2.15-.38 5.3 5.3 0 0 0 .75-1.11 9.46 9.46 0 0 0 .62-1.4h.26z"/></svg>