<svg id="Layer_1" xmlns="http://www.w3.org/2000/svg" viewBox="0 0 170.1 42.5"><style>.st0{fill:#010202;}</style><path class="st0" d="M169.9 23.8c.1-.8.1-1.4.1-1.8 0-3.2-2.5-5.6-5.8-5.6-3.9 0-6.2 2.8-6.2 6.5s2 6.5 6.2 6.5c3.2 0 5.3-1.9 5.6-4.1h-3c-.3.9-1 1.6-2.7 1.6-2.4 0-3.2-1.4-3.4-3.2h9.2zm-5.7-5.2c1.8 0 3 1.2 3 3.1H161c0-2.1 1.4-3.1 3.2-3.1m-8.9 10.6v-7.9c0-2.3-.8-4.9-4.5-4.9-1.8 0-3.2 1-3.8 2.2-.5-1.2-1.7-2.2-3.9-2.2-1.6 0-3 .9-3.5 2.1v-1.7h-2.9v12.5h2.9V23c0-3 1.2-3.9 2.7-3.9 1.6 0 2.3 1.2 2.3 3.2v7h2.9V23c0-3 1.2-3.9 2.6-3.9 1.6 0 2.3 1.3 2.3 3.2v7h2.9zM126 26.9c-2.2 0-3.6-1.8-3.6-4s1.4-4 3.6-4c2.3 0 3.7 1.8 3.7 4s-1.4 4-3.7 4m3.7-10.2v1.7c-.8-1.3-2.4-2-3.9-2-3.8 0-6.4 3-6.4 6.5s2.6 6.5 6.4 6.5c1.4 0 3.1-.7 3.9-2v1.7h2.9V16.7h-2.9zm-24.6 12.5h2.9v-6.4c0-2.1 1-3.8 3-3.8 2.1 0 2.7 1.6 2.7 3.8v6.4h2.9v-7.4c0-1.7-.2-2.8-.8-3.7-.7-1-2-1.7-3.8-1.7-1.9 0-3.3.7-4.1 2.1v-1.7H105v12.4zm-7.9-2c0 1.2 1 2.1 2.1 2.1 1.2 0 2.2-1 2.2-2.1 0-1.2-1-2.2-2.2-2.2-1.1 0-2.1 1-2.1 2.2m-9.5 8.5c1.9 0 3.4-.4 4.5-1.3 1-.9 1.6-2.2 1.6-4.1V16.7h-2.9v6.4c0 2.1-1 3.8-3 3.8-2.1 0-2.7-1.6-2.7-3.8v-6.4h-2.9v7.4c0 1.7.2 2.8.8 3.7.7 1 2 1.7 3.8 1.7 1.9 0 3.3-.7 4.1-2.1v2.9c0 2.3-1.3 3-3.1 3-1.5 0-2.8-.9-3-2.7h-3c0 1.7.7 3 1.7 3.8 1 .9 2.5 1.3 4.1 1.3m-9.3-6.5v-7.9c0-2.3-.8-4.9-4.5-4.9-1.8 0-3.2 1-3.8 2.2-.5-1.2-1.7-2.2-3.9-2.2-1.6 0-3 .9-3.5 2.1v-1.7h-2.9v12.5h2.9V23c0-3 1.2-3.9 2.7-3.9 1.6 0 2.3 1.2 2.3 3.2v7h2.9V23c0-3 1.2-3.9 2.6-3.9 1.6 0 2.3 1.3 2.3 3.2v7h2.9zm-21.2-2.6c-.3.1-1 .1-1.5.1-1.2 0-1.8-.3-1.8-2.4v-5.1h2.9v-2.4h-2.9V13H51v3.8h-2.1v2.4H51V25c0 4.2 2.6 4.4 4.1 4.4.9 0 1.7-.1 2.2-.2v-2.6zm-13-4.5c-2.3-.9-3.4-1-3.4-2.1 0-.9.8-1.4 1.8-1.4 1.4 0 2 .7 2 1.9h2.8c0-2.4-2.1-4.2-4.8-4.2-2.5 0-4.7 1.3-4.7 3.6 0 2.2 1.2 2.8 3 3.5 2.6 1 3.9 1.1 3.9 2.3 0 1.1-.9 1.4-2 1.4-1.4 0-2.4-.6-2.4-2.2h-2.8c0 2.9 2.4 4.5 5.1 4.5 2.7 0 5-1.2 5-3.8-.1-2.2-1.8-2.8-3.5-3.5M3.1 26.4V10.5H0v18.7h8.9v-2.8H3.1zM15.1 21.8c0-4.2 3.4-7.6 7.6-7.6s7.6 3.4 7.6 7.6c0 4.2-3.4 7.6-7.6 7.6s-7.6-3.4-7.6-7.6m7.6 11.3c6.3 0 11.4-5.1 11.4-11.4S29 10.4 22.7 10.4s-11.4 5.1-11.4 11.4 5.1 11.3 11.4 11.3"/><path class="st0" d="M22.7 24.6c1.6 0 2.9-1.3 2.9-2.8 0-1.6-1.3-2.8-2.9-2.8s-2.9 1.3-2.9 2.8c0 1.5 1.3 2.8 2.9 2.8M42.8 38.6l-6.3-6.3c-.9-.8-2.2-.7-3.1.1-.8.8-.9 2.2-.1 3.1l6.3 6.3c.9.9 2.3.9 3.2 0 .9-.8.9-2.3 0-3.2M23.8 6.4V1.1c0-.6-.5-1.1-1.1-1.1s-1.1.5-1.1 1.1v5.3c0 .6.5 1.1 1.1 1.1s1.1-.4 1.1-1.1M12.6 10.1L8.8 6.4c-.4-.4-1.2-.4-1.6 0-.4.4-.4 1.1 0 1.6l3.8 3.7c.4.4 1.2.4 1.6 0 .4-.4.4-1.1 0-1.6M34.4 11.7L38.1 8c.4-.4.4-1.2 0-1.6-.4-.4-1.2-.4-1.6 0l-3.8 3.7c-.4.4-.4 1.2 0 1.6.5.5 1.2.5 1.7 0"/></svg>