<svg class="logo" xmlns="http://www.w3.org/2000/svg" viewBox="0 0 202 30"><path d="M172.9 12.5c1.3 0 2.7.6 4.2 2 .4.4.7.5.9.5.7 0 1.7-1 1.7-2.1 0-.5-.1-.9-.7-1.4-.7-.5-2.1-1-3.6-1-1.6 0-4.2.6-6.7 2.5-2.7 2.1-4.2 4.9-4.2 8 0 4.5 3.2 8.7 8.7 8.7 2.5 0 5.2-1.8 7.1-4.4l-.9-1.1c-1.6 1.4-2.9 1.9-4.6 1.9-2 0-5.9-1.8-5.9-7.4 0-4.4 2-6.2 4-6.2zm-35.2 15.4v1.2h10.7v-1.2c-3.2-.3-3.4-.5-3.4-3.1v-7.6c.8-1.9 1.8-2.7 2.7-2.7.7 0 1.2.3 1.9.9.3.2.7.3 1.2.1 1-.3 1.8-1.4 1.8-2.6 0-1.3-1-2.4-2.6-2.4-1.7 0-3.4 2-4.8 4.4l-.3-4.5c-2.4.8-4.6 1.3-6.9 1.6v1.1c2.2.4 2.4.6 2.4 2.9v8.8c0 2.6-.3 2.9-2.7 3.1zm16.2 0v1.2h10v-1.2c-2.6-.2-2.8-.5-2.8-3.3V10.5c-2.1.7-4.5 1.2-6.9 1.5v1.2c2.2.3 2.4.5 2.4 3.1v8.3c0 2.8-.2 3-2.7 3.3zm7.3-23c0-1.4-1.1-2.6-2.6-2.6-1.4 0-2.6 1.1-2.6 2.6 0 1.4 1.2 2.6 2.5 2.6 1.5 0 2.7-1.2 2.7-2.6zm27 0l-4 3.1v2.9h-1.7l-1.2 1.4.2.5h2.7v11.7c0 3.6 1.7 5.1 4.7 5.1.3 0 1-.2 1.7-.5l3.2-1.4-.4-1.3c-.6.3-1.4.5-2.2.5-.9 0-2.4-.4-2.4-3.7V12.9h4c.6-.4.7-1.5.2-1.9h-4.3V5.1l-.5-.2zm10.6 19c-1.6 0-2.8 1.2-2.8 2.8 0 1.8 1.2 2.9 2.8 2.9s2.8-1.2 2.8-2.9c0-1.6-1.2-2.8-2.8-2.8zM0 28v1.2h9.5V28c-2-.3-2.2-.5-2.2-3.1V15c1.1-.9 2.3-1.6 3.6-1.6 1.9 0 3.2 1.3 3.2 4.2v6.9c0 2.9-.2 3.2-2.2 3.4v1.2h9.2v-1.2c-2.3-.3-2.5-.4-2.5-3.1V17c0-4.1-2-6.5-5.3-6.5-1.2 0-2.1.4-3.3 1.2-.9.6-1.8 1.2-2.6 1.8v-3.1c-2.3.7-4.7 1.3-6.9 1.6v1.2c2.1.4 2.3.5 2.3 3.1v8.5c0 2.7-.2 2.9-2.8 3.2zm115.7.1c-2.5 0-4.6-2.9-5.5-5.6l-1.2.3c.1 1.7.5 4.6.7 5.3.8.7 2.9 1.5 5.1 1.5 3.5 0 7.4-1.9 7.4-5.9 0-3-2.2-4.5-5.5-5.9-2-.9-3-1.9-3-3.3 0-1.5 1-2.5 2.2-2.5 1.6 0 2.9 1.3 4 3.4l1.2-.5c-.1-.9-.5-2.8-.9-3.7-.1 0-.4-.1-.6-.2-.3-.7-.5-1.5-.5-2.5 0-2.5 1.4-4.6 3.7-4.6 2.9-.1 3.8 1.8 3.8 5.3v1.7h-1.5l-1.2 1.4.2.5h2.5v11.8c0 3.6 1.7 5.1 4.7 5.1.3 0 1-.2 1.7-.5l3-1.5-.4-1.3c-.7.3-1.5.5-2.3.5-1 0-2.4-.5-2.4-3.8V12.9h4c.5-.3.6-1.5.3-1.9h-4.3V9c0-5.7-2.9-7.4-6.9-7.4-3.9 0-6.9 2.7-6.9 6.4 0 1 .2 1.8.7 2.6-.3-.1-.7-.1-1.2-.1-4.1 0-6.6 2.6-6.6 5.7 0 3.2 2.9 4.7 5 5.7 2.4 1.2 3.3 2.2 3.3 3.7 0 1.6-1.2 2.5-2.6 2.5zM46.9 12.2V11h-9.6v1.2c1.9.3 2.2.6 2.9 2.7 1.6 4.7 3.3 9.7 4.9 14.7h1.4c1.6-4.2 3.1-8.1 4.7-12 1.6 4 3.3 7.9 4.9 12h1.4c2-5.8 3.8-10.9 5.2-14.5.8-2.2 1.2-2.5 3.2-2.9V11h-7.6v1.1c2.6.5 2.8.8 2.4 2.6-.5 2.3-1.8 6.2-2.5 8.5h-.1c-1.6-4-3.2-8-4.7-12H52c-1.6 4.2-3 8.2-4.5 11.9h-.1c-.8-2.8-1.7-5.8-2.6-8.6-.5-1.6-.3-1.9 2.1-2.3zM37.3 17c0-3.3-2.8-6.5-6.5-6.5-2.2 0-4.4 1.1-6.2 3-1.7 1.7-2.9 4.3-2.9 7.3 0 4.7 3 8.8 8.3 8.8 1.6 0 4.7-.8 7.2-4.3l-.8-1c-1.4 1.3-3 1.9-4.6 1.9-3 0-5.7-2.2-5.8-7.1 4.4-.2 9.5-.6 10.2-.7.9-.1 1.1-.6 1.1-1.4zm-5.4.1c-1.9.1-3.7.1-5.6.1.4-3.3 2-5.1 3.6-5.1 1.8 0 2.9 2.1 2.9 4.2 0 .7-.2.8-.9.8zm54.5-6.7c-6.1 0-11.1 4.5-11.1 10.2 0 6.1 4.7 9 8.2 9 .5 0 1.3-.2 2.5-.9l2.5-1.5v2.5c3-.9 6.6-1.4 7.5-1.6v-1.3l-1-.1c-1.7-.2-1.9-.3-1.9-2.6V0c-1.9.5-5 1.1-7.5 1.4v1.3c2.7.2 2.9.4 2.9 2.8v5.2c-.9-.2-1.7-.3-2.1-.3zm2.2 3.9v11.5c-1 .6-1.9.9-2.9.9-2.2 0-5.2-2.1-5.2-7.1 0-6.1 3.3-7.4 4.6-7.4 1.4 0 2.7.7 3.5 2.1zm9 13.6v1.2h10v-1.2c-2.6-.2-2.8-.5-2.8-3.3V10.5c-2.1.7-4.5 1.2-6.9 1.5v1.2c2.2.3 2.4.5 2.4 3.1v8.3c0 2.8-.2 3-2.7 3.3zm7.2-23c0-1.4-1.1-2.6-2.6-2.6-1.4 0-2.6 1.1-2.6 2.6 0 1.4 1.3 2.6 2.5 2.6 1.5 0 2.7-1.2 2.7-2.6z"/></svg>