<svg xmlns="http://www.w3.org/2000/svg" viewBox="0 0 106.8 21.3"><path d="M12.5 10.9c1.1-1.2 1.7-2.8 1.6-4.4 0-1.7-.6-3.3-1.7-4.5C11 .6 9.1-.1 7.1 0H0v21.3h3.7V13H7l3.6 8.4h4l-3.9-9.1c.6-.4 1.2-.8 1.8-1.4zM7.1 9.4H3.7V3.6h3.5c2.2 0 3.2 1 3.2 2.9-.1 1.2-.4 2.9-3.3 2.9zM27.9 0l-6.7 21.3H25l1.6-5.2h6.5l1.6 5.2h3.9L31.8 0h-3.9zm-.2 12.5l2.1-7.1 2.2 7.1h-4.3zM52.8 0h-6.4v21.3h6.4c3.1 0 5.5-1.2 6.7-3.3s1.5-5 1.5-7.4c0-2.5-.2-5.2-1.4-7.2C58.2 1.2 55.8 0 52.8 0zM56 16.5c-.8.8-2 1.3-3.2 1.2h-2.7V3.6h2.7c1.2-.1 2.3.3 3.1 1.1 1.2 1.2 1.3 3.5 1.3 5.9s-.1 4.7-1.2 5.9zM73.3 12.1h7.9V8.4h-7.9V3.6h10.4V0H69.6v21.3h14.1v-3.6H73.3M103.2 0v14.1L96.4 0h-4v21.3H96v-14l6.8 14h4V0"/></svg>