<svg id="Layer_1" xmlns="http://www.w3.org/2000/svg" xmlns:xlink="http://www.w3.org/1999/xlink" viewBox="0 0 210 41"><style>.st0{fill:#231F20;} .st1{clip-path:url(#SVGID_2_);fill:url(#SVGID_3_);} .st2{clip-path:url(#SVGID_2_);fill:url(#SVGID_4_);} .st3{clip-path:url(#SVGID_2_);fill:url(#SVGID_5_);}</style><path class="st0" d="M63.7 13l-1.2 1.2c-1.5-.9-2.7-1.2-4.6-1.2-2.8 0-3.9 1.1-3.9 3.3 0 5.6 10.6 1.7 10.6 9.3 0 3.6-3.1 5.1-6.6 5.1-2.5 0-4.6-.6-6.4-1.9l1.2-1.2c1.6 1.1 3.1 1.4 5.2 1.4 2.8 0 4.6-1.1 4.6-3.3C62.6 20 52 24 52 16.4c0-3.7 2.4-5.1 5.9-5.1 2.4 0 4.1.7 5.8 1.7zM79.6 18.8c1-1.7 2.9-2.8 5.5-2.8 3.7 0 5.8 1.8 5.8 6v8.5h-2v-8.2c0-3.3-1.3-4.6-4-4.6s-4.5 1.3-4.5 4.6v8.2h-2v-8.2c0-3.3-1.3-4.6-4-4.6s-4.5 1.3-4.5 4.6v8.2h-2V16.3h1.6l.4 2c.8-1.4 2.5-2.3 4.8-2.3 2.3.1 4 .9 4.9 2.8zM93.9 26.3c0-3.2 2.2-4.6 5.9-4.6h5.5c0-3.7-2.3-4-4.6-4-2 0-3.5.3-5 1l-1.1-1.1c1.7-1.1 3.6-1.6 6.1-1.6 3.5 0 6.4.9 6.4 6.3v8.2h-1.6l-.3-2.5c-1.1 1.8-3.2 2.7-5.5 2.7-3.5.2-5.8-1.2-5.8-4.4zm6.2-2.8c-3 0-4.1.8-4.1 2.8 0 2 1.1 2.8 4.1 2.8 2.7 0 5.2-1.3 5.3-5.6h-5.3zM117.8 18.2c-2.7 0-4.5 1-4.5 4.3v8.1h-2V16.3h1.6l.4 2.1c.8-1.4 2.2-2.3 4.5-2.3v2.1zM127 30.5c-.7.2-1.4.3-2.1.3-.9 0-1.8-.2-2.4-.5-1.2-.7-1.9-2.1-1.9-4.7V18h-1.7v-1.7h1.7l.3-3.3h1.7v3.3h3.5V18h-3.5v7.5c0 1.7.2 2.7.9 3.2.4.3 1 .5 1.8.5.5 0 1.1-.1 1.7-.3v1.6zM132.8 30.6V12.8h-5.3v-1.2h11.9v1.2h-5.2v17.8h-1.4zM154.8 22v8.6h-1.4v-8.3c0-3.6-1.4-5-4.4-5-3 0-5 1.7-5 5.3v8h-1.4v-19h1.4v7.1c.7-1.4 2.2-2.7 5.3-2.7 3.7.1 5.5 1.8 5.5 6zM160.8 13.4h-1.4v-1.8h1.4v1.8zm-1.4 17.2V16.3h1.4v14.3h-1.4zM177.8 22v8.6h-1.4v-8.3c0-3.6-1.4-5-4.4-5-3 0-5 1.4-5 5v8.3h-1.4V16.3h1l.3 2.3c1-1.7 2.6-2.6 5.4-2.6 3.7.1 5.5 1.8 5.5 6zM194.1 19l.2-2.7h1.1v12c0 5.6-3.4 7.4-7.4 7.4-2.4 0-4.4-.6-5.9-1.6l.8-.8c1.5.9 2.9 1.2 5.1 1.2 2.4 0 6-.8 6-6.7-1.5 2.6-4 3-6.3 3-3.7 0-6.5-2-6.5-7.4 0-5.3 2.8-7.4 6.5-7.4 2.6.1 5 .5 6.4 3zm-11.4 4.5c0 4.8 2.3 6.2 5.3 6.2s6-1.4 6-6.2c0-4.8-3-6.2-6-6.2s-5.3 1.4-5.3 6.2zM198.7 29.4l.8-.8c1.6.8 3 1.1 4.8 1.1 2.3 0 4-.3 4-2.6 0-2.1-1.3-2.8-4-2.9-3.2-.2-5.2-1.2-5.2-4.1 0-3 2.4-4 5.2-4 1.9 0 3.7.4 5.1 1.3l-.8.8c-1.1-.7-2.5-.9-4.3-.9-2.2 0-3.7.5-3.7 2.8 0 1.9.9 2.5 3.7 2.7 3.4.2 5.5 1.1 5.5 4.3 0 3.2-2.7 3.8-5.5 3.8-2.1 0-4.1-.5-5.6-1.5z"/><defs><path id="SVGID_1_" d="M20.5 5.8c8.1 0 14.7 6.6 14.7 14.7s-6.6 14.7-14.7 14.7S5.7 28.6 5.7 20.5c.1-8.1 6.7-14.7 14.8-14.7m0-5.8C9.2 0 0 9.2 0 20.5S9.2 41 20.5 41C31.9 41 41 31.8 41 20.5S31.9 0 20.5 0z"/></defs><clipPath id="SVGID_2_"><use xlink:href="#SVGID_1_" overflow="visible"/></clipPath><linearGradient id="SVGID_3_" gradientUnits="userSpaceOnUse" x1="-3.331" y1="-119.217" x2="-9.471" y2="-97.29" gradientTransform="rotate(-10.948 664.078 -109.945)"><stop offset="0" stop-color="#231F20"/><stop offset=".47" stop-color="#231F20" stop-opacity=".3"/><stop offset="1" stop-color="#231F20"/></linearGradient><path class="st1" d="M23.2 19.9L6.9 39.4-10.9 17 5.4-2.5z"/><linearGradient id="SVGID_4_" gradientUnits="userSpaceOnUse" x1="14.806" y1=".344" x2="32.296" y2="6.287"><stop offset="0" stop-color="#231F20"/><stop offset=".512" stop-color="#231F20" stop-opacity=".4"/><stop offset="1" stop-color="#231F20"/></linearGradient><path class="st2" d="M58.1 21.9l-38.4-.5L5.8-4.5l52.8.4z"/><linearGradient id="SVGID_5_" gradientUnits="userSpaceOnUse" x1="19.604" y1="43.213" x2="43.495" y2="26.578"><stop offset="0" stop-color="#231F20"/><stop offset=".47" stop-color="#231F20" stop-opacity=".3"/><stop offset=".913" stop-color="#231F20"/></linearGradient><path class="st3" d="M51.3 40L7.6 51.1l-4-15.6L46.3 17z"/></svg>