<svg xmlns="http://www.w3.org/2000/svg" viewBox="0 0 145.6 24.3"><path d="M143.5 4.1c-1.1 0-2-.9-2-2.1s.9-2.1 2-2.1c1.2 0 2.1.9 2.1 2.1 0 .6-.2 1.1-.6 1.4-.4.5-1 .7-1.5.7zm0-3.6c-.9 0-1.6.7-1.6 1.6 0 .8.7 1.6 1.6 1.6s1.6-.7 1.6-1.6c0-.4-.2-.8-.5-1.1-.3-.4-.7-.5-1.1-.5zm.9 2.5h-.5l-.4-.8h-.2V3h-.5V1h.8c.5 0 .8.2.8.6 0 .3-.1.5-.4.5l.4.9zm-1.1-1.6v.4h.2c.3 0 .4-.1.4-.2s-.1-.2-.4-.2h-.2zM13.1 0H0v3.6h4.5v15.3h4V3.6h4.6V0z"/><path d="M17.8 3.8c-4.2 0-7.6 3.5-7.6 7.7s3.4 7.7 7.6 7.7 7.6-3.5 7.6-7.7-3.4-7.7-7.6-7.7zm0 11.9c-2.3 0-4.1-1.9-4.1-4.2s1.8-4.2 4.1-4.2 4.1 1.9 4.1 4.2c0 2.3-1.9 4.2-4.1 4.2zM45.6 5.1c-1-.9-2.2-1.4-3.6-1.4-1.8 0-3.5 1-4.2 2.5-.6-1.3-1.9-2.5-4.2-2.5-1.9 0-3.2 1.2-3.6 1.9V4.2h-3.6v14.6h3.7v-8.4c0-1.6.6-3.2 2.5-3.2 1.8 0 2.4 1.5 2.4 2.9v8.7h3.8v-8.5c0-2.1 1.3-3 2.5-3 1.5 0 2.4 1.1 2.4 2.9v8.7h3.7V9.7c-.1-2.4-.9-3.8-1.8-4.6zm22.2 0c-1-.9-2.2-1.4-3.6-1.4-1.8 0-3.5 1-4.2 2.5-.6-1.3-1.9-2.5-4.2-2.5-1.9 0-3.2 1.2-3.6 1.9V4.2h-3.6v14.6h3.7v-8.4c0-1.6.6-3.2 2.5-3.2 1.8 0 2.4 1.5 2.4 2.9v8.7H61v-8.5c0-2.1 1.3-3 2.5-3 1.5 0 2.4 1.1 2.4 2.9v8.7h3.7V9.7c-.1-2.4-.9-3.8-1.8-4.6zm9.1 8.6l-3.5-9.5h-4.1l5.5 14.4.1.2-2 5.5h3.9l7.4-20.1h-3.9c-.1 0-3.4 9.5-3.4 9.5zM94.1 0v12.3c0 1.9-.5 3.1-2 3.1-1 0-1.7-.5-2.5-1.1l-1.2 3.5c.9.8 2.6 1.5 4.1 1.5 3.6 0 5.6-2.7 5.6-6.5V0h-4zm12.7 3.8c-4.2 0-7.6 3.5-7.6 7.7s3.4 7.7 7.6 7.7c4.2 0 7.6-3.5 7.6-7.7s-3.4-7.7-7.6-7.7zm0 11.9c-2.3 0-4.1-1.9-4.1-4.2s1.8-4.2 4.1-4.2 4.1 1.9 4.1 4.2c0 2.3-1.8 4.2-4.1 4.2zm15.8-11.9c-1.4 0-2.9.8-3.5 1.8V0h-3.7v18.8h3.7v-8.2c0-2.7 1.8-3.4 2.7-3.4 1 0 2.8.5 2.8 3.4v8.2h3.8V10c-.1-4.3-3-6.2-5.8-6.2zm14.2 0c-1.4 0-3 .8-3.6 1.9V4.2h-3.6v14.6h3.7v-8.2c0-2.7 1.8-3.4 2.7-3.4 1 0 2.8.5 2.8 3.4v8.2h3.8V10c-.1-4.3-3.1-6.2-5.8-6.2z"/></svg>