<svg id="Logo_Artwork" xmlns="http://www.w3.org/2000/svg" viewBox="0 0 420.3 211.9"><style>.st0{fill:#666666;}</style><path d="M301 .5L252.2 47l52.1 49.6V1.5c0-1.5-2.2-2-3.3-1zM168 47.1L119.2.6c-1.1-1-3.3-.5-3.3 1v95.2L168 47.1z"/><path class="st0" d="M115.9 96.7h188.3L212.6 9.5c-1.4-1.4-3.8-1.4-5.2 0l-91.5 87.2z"/><path d="M365.4 188.4h5.9c.8 0 2.3-.3 2.3-2.3v-6c0-1.3-.9-1.8-1.8-1.8h-2.6c-1.6 0-2.5-1.1-2.5-2.6v-44c0-1-.8-1.8-1.8-1.8h-8.4c-1.1 0-1.8.8-1.8 1.8v46.4c.1 6.1 3.1 10.3 10.7 10.3M329.1 146.6c-5.4 0-9.9 2.3-12 5.3v-20.1c0-1-.8-1.8-1.8-1.8h-8.4c-1.1 0-1.8.8-1.8 1.8v55c0 1 .8 1.8 1.8 1.8h8.4c1 0 1.8-.8 1.8-1.8v-2.3c2.3 3.3 6.8 5.3 11.9 5.3 10.7 0 20.2-8.4 20.2-21.6-.1-13.4-9.6-21.6-20.1-21.6zm-2.2 31.9c-5.6 0-9.9-4.7-9.9-10.4s4.3-10.4 9.9-10.4c5.7 0 10 4.7 10 10.4s-4.3 10.4-10 10.4zM296.7 147.2c-3.9 0-7.4 2-9.6 5.6v-3.3c0-.9-.9-1.7-1.8-1.7h-8c-1 0-1.8.8-1.8 1.8v37.1c0 1 .8 1.8 1.8 1.8h8.4c.9 0 1.8-.7 1.8-1.7v-18c0-6.2 2.8-8.8 7.9-8.8h2.2c.7 0 2.2-.4 2.2-2.3v-8.3c0-1.8-1.2-2.3-2-2.3l-1.1.1zM248.9 146.6c-12.5 0-21.6 9.7-21.6 21.7 0 12.9 9.2 21.3 21.5 21.3 9.2 0 14.5-3.7 17.4-7.3.6-.7.6-1.7-.3-2.5l-4.9-4.6c-.8-.8-1.7-.8-2.4 0-2.4 2.4-5.3 3.9-9.4 3.9-4.8 0-8.8-3.2-9.3-8.1h27.9c1.7 0 2.1-.9 2.1-1.9v-2.2c-.1-10.5-7.9-20.3-21-20.3zm-8.9 16.9c1.2-4.5 4.8-7.3 8.9-7.3 3.9 0 7.9 2.3 8.9 7.3H240zM219.8 129.9h-8.4c-1 0-1.8.8-1.8 1.8v20.2c-1.9-3-6.3-5.3-11.9-5.3-10.4 0-20.1 8.3-20.1 21.5 0 13.1 9.8 21.6 20.3 21.6 5.4 0 9.5-2.3 11.8-5.5v2.6c0 1 .8 1.8 1.8 1.8h8.4c1 0 1.8-.8 1.8-1.8v-55c-.1-1.1-.9-1.9-1.9-1.9zm-20.1 48.6c-5.7 0-9.9-4.7-9.9-10.4s4.3-10.4 9.9-10.4c5.7 0 9.9 4.7 9.9 10.4s-4.3 10.4-9.9 10.4zM159.7 186.7c0 1 .9 1.7 1.8 1.7h8.4c.9 0 1.8-.7 1.8-1.7v-22.6c0-9.9-6.7-17.6-17.5-17.6-6.3 0-10.8 2.5-13.2 5.4v-2.6c0-.9-.9-1.7-1.8-1.7h-8.4c-1 0-1.8.8-1.8 1.8v37.1c0 1 .8 1.8 1.8 1.8h8.4c.9 0 1.8-.7 1.8-1.7v-19.3c0-5.8 3.8-9.8 9.4-9.8 5.8 0 9.1 3.9 9.1 9.8v19.4h.2zM101.8 146.4c-12.2 0-22.1 9.5-22.1 21.6 0 12 9.9 21.4 22.1 21.4 12.3 0 22.1-9.4 22.1-21.4 0-12.1-9.9-21.6-22.1-21.6zm0 31.8c-5.6 0-9.9-4.6-9.9-10.3s4.3-10.4 9.9-10.4c5.7 0 9.9 4.7 9.9 10.4 0 5.8-4.3 10.3-9.9 10.3zM420 150.6c.8-1.7.1-2.8-1.6-2.8h-8.7c-1.3 0-1.8.9-2.3 1.9l-9.4 24.1-10.4-24.1c-.6-1.3-1.2-1.9-2.3-1.9h-9.5c-2.1 0-2.5 1.5-1.9 2.8l15.7 33.8 1.9 4-4.2 9.3c-1 2.3-2.5 3.8-5.7 3.8h-.3c-.8 0-1.8.4-1.8 1.8v6.3c0 1.9 1.5 2.3 2.3 2.3h1.4c8.4 0 12.7-4.8 15.9-12.4l20.9-48.9zM79.9 129.9h-9.4c-1.1 0-1.8.9-1.9 1.8L59.2 173l-10.1-33c-.5-1.5-1.9-2.6-3.6-2.6H36.7c-1.7 0-3.1 1.1-3.6 2.6L23 173.3l-9.2-41.5c-.2-.9-.9-1.8-1.9-1.8H2c-1.3 0-2.4 1-2 2.9l13.5 53.7c.3 1.3 1.5 1.8 2.3 1.8h14c.8 0 1.9-.5 2.3-1.8l9.3-30.6 9.2 30.6c.4 1.3 1.5 1.8 2.3 1.8h13.3c.3 0 2-.5 2.3-1.8l13.4-53.7c.5-2.3-.6-3-2-3z"/></svg>