<svg width="646" height="605" viewBox="0 0 646 605" fill="none" xmlns="http://www.w3.org/2000/svg">
<path d="M538.538 478C537.707 478 537.004 478.703 537.004 479.534C537.004 480.365 537.707 481.068 538.538 481.068C539.369 481.068 540.071 480.365 540.071 479.534C540.071 478.703 539.369 478 538.538 478Z" fill="#3C76F0" fill-opacity="0.5"/>
<path d="M548.315 481.068C549.145 481.068 549.848 480.365 549.848 479.534C549.848 478.703 549.145 478 548.315 478C547.484 478 546.781 478.703 546.781 479.534C546.781 480.365 547.484 481.068 548.315 481.068Z" fill="#3C76F0" fill-opacity="0.5"/>
<path d="M558.092 481.068C558.922 481.068 559.625 480.365 559.625 479.534C559.625 478.703 558.922 478 558.092 478C557.261 478 556.558 478.703 556.558 479.534C556.558 480.365 557.261 481.068 558.092 481.068Z" fill="#3C76F0" fill-opacity="0.5"/>
<path d="M567.933 481.068C568.763 481.068 569.466 480.365 569.466 479.534C569.466 478.703 568.763 478 567.933 478C567.102 478 566.399 478.703 566.399 479.534C566.399 480.365 567.038 481.068 567.933 481.068Z" fill="#3C76F0" fill-opacity="0.5"/>
<path d="M577.71 481.068C578.54 481.068 579.243 480.365 579.243 479.534C579.243 478.703 578.54 478 577.71 478C576.879 478 576.176 478.703 576.176 479.534C576.176 480.365 576.879 481.068 577.71 481.068Z" fill="#3C76F0" fill-opacity="0.5"/>
<path d="M587.55 478C586.72 478 586.017 478.703 586.017 479.534C586.017 480.365 586.72 481.068 587.55 481.068C588.381 481.068 589.084 480.365 589.084 479.534C589.084 478.703 588.381 478 587.55 478Z" fill="#3C76F0" fill-opacity="0.5"/>
<path d="M597.327 481.068C598.158 481.068 598.861 480.365 598.861 479.534C598.861 478.703 598.158 478 597.327 478C596.497 478 595.794 478.703 595.794 479.534C595.794 480.365 596.497 481.068 597.327 481.068Z" fill="#3C76F0" fill-opacity="0.5"/>
<path d="M608.702 479.534C608.702 478.703 607.999 478 607.168 478C606.338 478 605.635 478.703 605.635 479.534C605.635 480.365 606.338 481.068 607.168 481.068C607.999 481.068 608.702 480.365 608.702 479.534Z" fill="#3C76F0" fill-opacity="0.5"/>
<path d="M616.945 481.068C617.776 481.068 618.479 480.365 618.479 479.534C618.479 478.703 617.776 478 616.945 478C616.115 478 615.412 478.703 615.412 479.534C615.412 480.365 616.115 481.068 616.945 481.068Z" fill="#3C76F0" fill-opacity="0.5"/>
<path d="M628.32 479.534C628.32 478.703 627.617 478 626.786 478C625.956 478 625.253 478.703 625.253 479.534C625.253 480.365 625.956 481.068 626.786 481.068C627.617 481.068 628.32 480.365 628.32 479.534Z" fill="#3C76F0" fill-opacity="0.5"/>
<path d="M636.563 481.068C637.394 481.068 638.097 480.365 638.097 479.534C638.097 478.703 637.394 478 636.563 478C635.733 478 635.03 478.703 635.03 479.534C635.03 480.365 635.733 481.068 636.563 481.068Z" fill="#3C76F0" fill-opacity="0.5"/>
<path d="M538.538 484.839C537.707 484.839 537.004 485.542 537.004 486.372C537.004 487.203 537.707 487.906 538.538 487.906C539.368 487.906 540.071 487.203 540.071 486.372C540.071 485.542 539.368 484.839 538.538 484.839Z" fill="#3C76F0" fill-opacity="0.5"/>
<path d="M548.315 487.97C549.145 487.97 549.848 487.267 549.848 486.436C549.848 485.605 549.145 484.902 548.315 484.902C547.484 484.902 546.781 485.605 546.781 486.436C546.781 487.267 547.484 487.97 548.315 487.97Z" fill="#3C76F0" fill-opacity="0.5"/>
<path d="M558.092 487.97C558.922 487.97 559.625 487.267 559.625 486.436C559.625 485.605 558.922 484.902 558.092 484.902C557.261 484.902 556.558 485.605 556.558 486.436C556.558 487.267 557.261 487.97 558.092 487.97Z" fill="#3C76F0" fill-opacity="0.5"/>
<path d="M567.933 487.97C568.763 487.97 569.466 487.267 569.466 486.436C569.466 485.605 568.763 484.902 567.933 484.902C567.102 484.902 566.399 485.605 566.399 486.436C566.399 487.267 567.038 487.97 567.933 487.97Z" fill="#3C76F0" fill-opacity="0.5"/>
<path d="M577.71 487.97C578.54 487.97 579.243 487.267 579.243 486.436C579.243 485.605 578.54 484.902 577.71 484.902C576.879 484.902 576.176 485.605 576.176 486.436C576.176 487.267 576.879 487.97 577.71 487.97Z" fill="#3C76F0" fill-opacity="0.5"/>
<path d="M587.55 484.839C586.72 484.839 586.017 485.542 586.017 486.372C586.017 487.203 586.72 487.906 587.55 487.906C588.381 487.906 589.084 487.203 589.084 486.372C589.084 485.542 588.381 484.839 587.55 484.839Z" fill="#3C76F0" fill-opacity="0.5"/>
<path d="M597.327 487.97C598.158 487.97 598.861 487.267 598.861 486.436C598.861 485.605 598.158 484.902 597.327 484.902C596.497 484.902 595.794 485.605 595.794 486.436C595.794 487.267 596.497 487.97 597.327 487.97Z" fill="#3C76F0" fill-opacity="0.5"/>
<path d="M607.168 487.97C607.999 487.97 608.702 487.267 608.702 486.436C608.702 485.605 607.999 484.902 607.168 484.902C606.338 484.902 605.635 485.605 605.635 486.436C605.571 487.267 606.274 487.97 607.168 487.97Z" fill="#3C76F0" fill-opacity="0.5"/>
<path d="M616.945 487.97C617.776 487.97 618.479 487.267 618.479 486.436C618.479 485.605 617.776 484.902 616.945 484.902C616.115 484.902 615.412 485.605 615.412 486.436C615.412 487.267 616.115 487.97 616.945 487.97Z" fill="#3C76F0" fill-opacity="0.5"/>
<path d="M626.722 487.97C627.553 487.97 628.256 487.267 628.256 486.436C628.256 485.605 627.553 484.902 626.722 484.902C625.892 484.902 625.189 485.605 625.189 486.436C625.189 487.267 625.892 487.97 626.722 487.97Z" fill="#3C76F0" fill-opacity="0.5"/>
<path d="M636.563 487.97C637.394 487.97 638.097 487.267 638.097 486.436C638.097 485.605 637.394 484.902 636.563 484.902C635.733 484.902 635.03 485.605 635.03 486.436C635.03 487.267 635.733 487.97 636.563 487.97Z" fill="#3C76F0" fill-opacity="0.5"/>
<path d="M538.538 494.809C539.368 494.809 540.071 494.106 540.071 493.275C540.071 492.444 539.368 491.741 538.538 491.741C537.707 491.741 537.004 492.444 537.004 493.275C537.004 494.106 537.643 494.809 538.538 494.809Z" fill="#3C76F0" fill-opacity="0.5"/>
<path d="M548.315 494.809C549.145 494.809 549.848 494.106 549.848 493.275C549.848 492.444 549.145 491.741 548.315 491.741C547.484 491.741 546.781 492.444 546.781 493.275C546.781 494.106 547.484 494.809 548.315 494.809Z" fill="#3C76F0" fill-opacity="0.5"/>
<path d="M558.092 491.741C557.261 491.741 556.558 492.444 556.558 493.275C556.558 494.106 557.261 494.809 558.092 494.809C558.922 494.809 559.625 494.106 559.625 493.275C559.625 492.444 558.986 491.741 558.092 491.741Z" fill="#3C76F0" fill-opacity="0.5"/>
<path d="M567.933 494.809C568.763 494.809 569.466 494.106 569.466 493.275C569.466 492.444 568.763 491.741 567.933 491.741C567.102 491.741 566.399 492.444 566.399 493.275C566.399 494.106 567.038 494.809 567.933 494.809Z" fill="#3C76F0" fill-opacity="0.5"/>
<path d="M577.71 494.809C578.54 494.809 579.243 494.106 579.243 493.275C579.243 492.444 578.54 491.741 577.71 491.741C576.879 491.741 576.176 492.444 576.176 493.275C576.176 494.106 576.879 494.809 577.71 494.809Z" fill="#3C76F0" fill-opacity="0.5"/>
<path d="M587.55 494.809C588.381 494.809 589.084 494.106 589.084 493.275C589.084 492.444 588.381 491.741 587.55 491.741C586.72 491.741 586.017 492.444 586.017 493.275C586.017 494.106 586.656 494.809 587.55 494.809Z" fill="#3C76F0" fill-opacity="0.5"/>
<path d="M597.327 494.809C598.158 494.809 598.861 494.106 598.861 493.275C598.861 492.444 598.158 491.741 597.327 491.741C596.497 491.741 595.794 492.444 595.794 493.275C595.794 494.106 596.497 494.809 597.327 494.809Z" fill="#3C76F0" fill-opacity="0.5"/>
<path d="M607.168 491.741C606.338 491.741 605.635 492.444 605.635 493.275C605.635 494.106 606.338 494.809 607.168 494.809C607.999 494.809 608.702 494.106 608.702 493.275C608.702 492.444 607.999 491.741 607.168 491.741Z" fill="#3C76F0" fill-opacity="0.5"/>
<path d="M616.945 494.809C617.776 494.809 618.479 494.106 618.479 493.275C618.479 492.444 617.776 491.741 616.945 491.741C616.115 491.741 615.412 492.444 615.412 493.275C615.412 494.106 616.115 494.809 616.945 494.809Z" fill="#3C76F0" fill-opacity="0.5"/>
<path d="M626.722 494.809C627.553 494.809 628.256 494.106 628.256 493.275C628.256 492.444 627.553 491.741 626.722 491.741C625.892 491.741 625.189 492.444 625.189 493.275C625.189 494.106 625.892 494.809 626.722 494.809Z" fill="#3C76F0" fill-opacity="0.5"/>
<path d="M636.563 491.741C635.733 491.741 635.03 492.444 635.03 493.275C635.03 494.106 635.733 494.809 636.563 494.809C637.394 494.809 638.097 494.106 638.097 493.275C638.097 492.444 637.394 491.741 636.563 491.741Z" fill="#3C76F0" fill-opacity="0.5"/>
<path d="M538.538 501.647C539.385 501.647 540.071 500.96 540.071 500.113C540.071 499.266 539.385 498.579 538.538 498.579C537.691 498.579 537.004 499.266 537.004 500.113C537.004 500.96 537.691 501.647 538.538 501.647Z" fill="#3C76F0" fill-opacity="0.5"/>
<path d="M548.315 498.579C547.484 498.579 546.781 499.282 546.781 500.113C546.781 500.944 547.484 501.647 548.315 501.647C549.145 501.647 549.848 500.944 549.848 500.113C549.848 499.282 549.145 498.579 548.315 498.579Z" fill="#3C76F0" fill-opacity="0.5"/>
<path d="M558.092 498.579C557.261 498.579 556.558 499.282 556.558 500.113C556.558 500.944 557.261 501.647 558.092 501.647C558.922 501.647 559.625 500.944 559.625 500.113C559.625 499.282 558.986 498.579 558.092 498.579Z" fill="#3C76F0" fill-opacity="0.5"/>
<path d="M567.933 501.647C568.763 501.647 569.466 500.944 569.466 500.113C569.466 499.282 568.763 498.579 567.933 498.579C567.102 498.579 566.399 499.282 566.399 500.113C566.399 501.008 567.038 501.647 567.933 501.647Z" fill="#3C76F0" fill-opacity="0.5"/>
<path d="M577.71 501.647C578.54 501.647 579.243 500.944 579.243 500.113C579.243 499.282 578.54 498.579 577.71 498.579C576.879 498.579 576.176 499.282 576.176 500.113C576.176 500.944 576.879 501.647 577.71 501.647Z" fill="#3C76F0" fill-opacity="0.5"/>
<path d="M587.55 498.579C586.72 498.579 586.017 499.282 586.017 500.113C586.017 500.944 586.72 501.647 587.55 501.647C588.381 501.647 589.084 500.944 589.084 500.113C589.084 499.282 588.381 498.579 587.55 498.579Z" fill="#3C76F0" fill-opacity="0.5"/>
<path d="M597.327 501.647C598.158 501.647 598.861 500.944 598.861 500.113C598.861 499.282 598.158 498.579 597.327 498.579C596.497 498.579 595.794 499.282 595.794 500.113C595.794 501.008 596.497 501.647 597.327 501.647Z" fill="#3C76F0" fill-opacity="0.5"/>
<path d="M607.168 498.579C606.338 498.579 605.635 499.282 605.635 500.113C605.635 500.944 606.338 501.647 607.168 501.647C607.999 501.647 608.702 500.944 608.702 500.113C608.702 499.282 607.999 498.579 607.168 498.579Z" fill="#3C76F0" fill-opacity="0.5"/>
<path d="M616.945 501.647C617.776 501.647 618.479 500.944 618.479 500.113C618.479 499.282 617.776 498.579 616.945 498.579C616.115 498.579 615.412 499.282 615.412 500.113C615.412 501.008 616.115 501.647 616.945 501.647Z" fill="#3C76F0" fill-opacity="0.5"/>
<path d="M626.722 501.647C627.553 501.647 628.256 500.944 628.256 500.113C628.256 499.282 627.553 498.579 626.722 498.579C625.892 498.579 625.189 499.282 625.189 500.113C625.189 501.008 625.892 501.647 626.722 501.647Z" fill="#3C76F0" fill-opacity="0.5"/>
<path d="M636.563 501.647C637.41 501.647 638.097 500.96 638.097 500.113C638.097 499.266 637.41 498.579 636.563 498.579C635.716 498.579 635.03 499.266 635.03 500.113C635.03 500.96 635.716 501.647 636.563 501.647Z" fill="#3C76F0" fill-opacity="0.5"/>
<path d="M538.538 508.549C539.368 508.549 540.071 507.846 540.071 507.016C540.071 506.185 539.368 505.482 538.538 505.482C537.707 505.482 537.004 506.185 537.004 507.016C536.94 507.846 537.643 508.549 538.538 508.549Z" fill="#3C76F0" fill-opacity="0.5"/>
<path d="M548.315 508.549C549.145 508.549 549.848 507.846 549.848 507.016C549.848 506.185 549.145 505.482 548.315 505.482C547.484 505.482 546.781 506.185 546.781 507.016C546.781 507.846 547.484 508.549 548.315 508.549Z" fill="#3C76F0" fill-opacity="0.5"/>
<path d="M558.092 508.549C558.922 508.549 559.625 507.846 559.625 507.016C559.625 506.185 558.922 505.482 558.092 505.482C557.261 505.482 556.558 506.185 556.558 507.016C556.558 507.846 557.261 508.549 558.092 508.549Z" fill="#3C76F0" fill-opacity="0.5"/>
<path d="M567.933 508.549C568.763 508.549 569.466 507.846 569.466 507.016C569.466 506.185 568.763 505.482 567.933 505.482C567.102 505.482 566.399 506.185 566.399 507.016C566.399 507.846 567.038 508.549 567.933 508.549Z" fill="#3C76F0" fill-opacity="0.5"/>
<path d="M577.71 508.549C578.54 508.549 579.243 507.846 579.243 507.016C579.243 506.185 578.54 505.482 577.71 505.482C576.879 505.482 576.176 506.185 576.176 507.016C576.176 507.846 576.879 508.549 577.71 508.549Z" fill="#3C76F0" fill-opacity="0.5"/>
<path d="M587.55 508.549C588.381 508.549 589.084 507.846 589.084 507.016C589.084 506.185 588.381 505.482 587.55 505.482C586.72 505.482 586.017 506.185 586.017 507.016C586.017 507.846 586.656 508.549 587.55 508.549Z" fill="#3C76F0" fill-opacity="0.5"/>
<path d="M597.327 508.549C598.158 508.549 598.861 507.846 598.861 507.016C598.861 506.185 598.158 505.482 597.327 505.482C596.497 505.482 595.794 506.185 595.794 507.016C595.794 507.846 596.497 508.549 597.327 508.549Z" fill="#3C76F0" fill-opacity="0.5"/>
<path d="M607.168 508.549C607.999 508.549 608.702 507.846 608.702 507.016C608.702 506.185 607.999 505.482 607.168 505.482C606.338 505.482 605.635 506.185 605.635 507.016C605.571 507.846 606.274 508.549 607.168 508.549Z" fill="#3C76F0" fill-opacity="0.5"/>
<path d="M616.945 508.549C617.776 508.549 618.479 507.846 618.479 507.016C618.479 506.185 617.776 505.482 616.945 505.482C616.115 505.482 615.412 506.185 615.412 507.016C615.412 507.846 616.115 508.549 616.945 508.549Z" fill="#3C76F0" fill-opacity="0.5"/>
<path d="M628.32 507.016C628.32 506.185 627.617 505.482 626.786 505.482C625.956 505.482 625.253 506.185 625.253 507.016C625.253 507.846 625.956 508.549 626.786 508.549C627.617 508.549 628.32 507.846 628.32 507.016Z" fill="#3C76F0" fill-opacity="0.5"/>
<path d="M636.563 505.482C635.733 505.482 635.03 506.185 635.03 507.016C635.03 507.846 635.733 508.549 636.563 508.549C637.394 508.549 638.097 507.846 638.097 507.016C638.097 506.121 637.394 505.482 636.563 505.482Z" fill="#3C76F0" fill-opacity="0.5"/>
<path d="M538.538 515.388C539.368 515.388 540.071 514.685 540.071 513.854C540.071 513.023 539.368 512.32 538.538 512.32C537.707 512.32 537.004 513.023 537.004 513.854C536.94 514.685 537.643 515.388 538.538 515.388Z" fill="#3C76F0" fill-opacity="0.5"/>
<path d="M548.315 515.388C549.145 515.388 549.848 514.685 549.848 513.854C549.848 513.023 549.145 512.32 548.315 512.32C547.484 512.32 546.781 513.023 546.781 513.854C546.781 514.685 547.484 515.388 548.315 515.388Z" fill="#3C76F0" fill-opacity="0.5"/>
<path d="M558.092 515.388C558.922 515.388 559.625 514.685 559.625 513.854C559.625 513.023 558.922 512.32 558.092 512.32C557.261 512.32 556.558 513.023 556.558 513.854C556.558 514.685 557.261 515.388 558.092 515.388Z" fill="#3C76F0" fill-opacity="0.5"/>
<path d="M567.933 515.388C568.78 515.388 569.466 514.701 569.466 513.854C569.466 513.007 568.78 512.32 567.933 512.32C567.086 512.32 566.399 513.007 566.399 513.854C566.399 514.701 567.086 515.388 567.933 515.388Z" fill="#3C76F0" fill-opacity="0.5"/>
<path d="M577.71 515.388C578.54 515.388 579.243 514.685 579.243 513.854C579.243 513.023 578.54 512.32 577.71 512.32C576.879 512.32 576.176 513.023 576.176 513.854C576.176 514.685 576.879 515.388 577.71 515.388Z" fill="#3C76F0" fill-opacity="0.5"/>
<path d="M587.55 515.388C588.381 515.388 589.084 514.685 589.084 513.854C589.084 513.023 588.381 512.32 587.55 512.32C586.72 512.32 586.017 513.023 586.017 513.854C586.017 514.685 586.656 515.388 587.55 515.388Z" fill="#3C76F0" fill-opacity="0.5"/>
<path d="M597.327 515.388C598.158 515.388 598.861 514.685 598.861 513.854C598.861 513.023 598.158 512.32 597.327 512.32C596.497 512.32 595.794 513.023 595.794 513.854C595.794 514.685 596.497 515.388 597.327 515.388Z" fill="#3C76F0" fill-opacity="0.5"/>
<path d="M607.168 515.388C608.015 515.388 608.702 514.701 608.702 513.854C608.702 513.007 608.015 512.32 607.168 512.32C606.321 512.32 605.635 513.007 605.635 513.854C605.635 514.701 606.321 515.388 607.168 515.388Z" fill="#3C76F0" fill-opacity="0.5"/>
<path d="M616.945 515.388C617.776 515.388 618.479 514.685 618.479 513.854C618.479 513.023 617.776 512.32 616.945 512.32C616.115 512.32 615.412 513.023 615.412 513.854C615.412 514.685 616.115 515.388 616.945 515.388Z" fill="#3C76F0" fill-opacity="0.5"/>
<path d="M626.722 515.388C627.553 515.388 628.256 514.685 628.256 513.854C628.256 513.023 627.553 512.32 626.722 512.32C625.892 512.32 625.189 513.023 625.189 513.854C625.189 514.685 625.892 515.388 626.722 515.388Z" fill="#3C76F0" fill-opacity="0.5"/>
<path d="M636.563 512.32C635.733 512.32 635.03 513.023 635.03 513.854C635.03 514.685 635.733 515.388 636.563 515.388C637.394 515.388 638.097 514.685 638.097 513.854C638.097 513.023 637.394 512.32 636.563 512.32Z" fill="#3C76F0" fill-opacity="0.5"/>
<path d="M538.538 522.29C539.385 522.29 540.071 521.604 540.071 520.756C540.071 519.909 539.385 519.222 538.538 519.222C537.691 519.222 537.004 519.909 537.004 520.756C537.004 521.604 537.691 522.29 538.538 522.29Z" fill="#3C76F0" fill-opacity="0.5"/>
<path d="M548.315 519.159C547.484 519.159 546.781 519.862 546.781 520.693C546.781 521.523 547.484 522.227 548.315 522.227C549.145 522.227 549.848 521.523 549.848 520.693C549.848 519.862 549.145 519.159 548.315 519.159Z" fill="#3C76F0" fill-opacity="0.5"/>
<path d="M558.092 519.159C557.261 519.159 556.558 519.862 556.558 520.693C556.558 521.523 557.261 522.227 558.092 522.227C558.922 522.227 559.625 521.523 559.625 520.693C559.625 519.862 558.986 519.159 558.092 519.159Z" fill="#3C76F0" fill-opacity="0.5"/>
<path d="M567.933 522.29C568.78 522.29 569.466 521.604 569.466 520.756C569.466 519.909 568.78 519.222 567.933 519.222C567.086 519.222 566.399 519.909 566.399 520.756C566.399 521.604 567.086 522.29 567.933 522.29Z" fill="#3C76F0" fill-opacity="0.5"/>
<path d="M577.71 522.29C578.54 522.29 579.243 521.587 579.243 520.756C579.243 519.926 578.54 519.222 577.71 519.222C576.879 519.222 576.176 519.926 576.176 520.756C576.176 521.587 576.879 522.29 577.71 522.29Z" fill="#3C76F0" fill-opacity="0.5"/>
<path d="M587.55 522.29C588.381 522.29 589.084 521.587 589.084 520.756C589.084 519.926 588.381 519.222 587.55 519.222C586.72 519.222 586.017 519.926 586.017 520.756C586.017 521.587 586.656 522.29 587.55 522.29Z" fill="#3C76F0" fill-opacity="0.5"/>
<path d="M597.327 522.29C598.174 522.29 598.861 521.604 598.861 520.756C598.861 519.909 598.174 519.222 597.327 519.222C596.48 519.222 595.794 519.909 595.794 520.756C595.794 521.604 596.48 522.29 597.327 522.29Z" fill="#3C76F0" fill-opacity="0.5"/>
<path d="M607.168 519.159C606.338 519.159 605.635 519.862 605.635 520.693C605.635 521.523 606.338 522.227 607.168 522.227C607.999 522.227 608.702 521.523 608.702 520.693C608.702 519.862 607.999 519.159 607.168 519.159Z" fill="#3C76F0" fill-opacity="0.5"/>
<path d="M616.945 522.29C617.776 522.29 618.479 521.587 618.479 520.756C618.479 519.926 617.776 519.222 616.945 519.222C616.115 519.222 615.412 519.926 615.412 520.756C615.412 521.587 616.115 522.29 616.945 522.29Z" fill="#3C76F0" fill-opacity="0.5"/>
<path d="M626.722 522.29C627.553 522.29 628.256 521.587 628.256 520.756C628.256 519.926 627.553 519.222 626.722 519.222C625.892 519.222 625.189 519.926 625.189 520.756C625.189 521.587 625.892 522.29 626.722 522.29Z" fill="#3C76F0" fill-opacity="0.5"/>
<path d="M636.563 522.29C637.41 522.29 638.097 521.604 638.097 520.756C638.097 519.909 637.41 519.222 636.563 519.222C635.716 519.222 635.03 519.909 635.03 520.756C635.03 521.604 635.716 522.29 636.563 522.29Z" fill="#3C76F0" fill-opacity="0.5"/>
<path d="M538.538 529.129C539.385 529.129 540.071 528.442 540.071 527.595C540.071 526.748 539.385 526.061 538.538 526.061C537.691 526.061 537.004 526.748 537.004 527.595C537.004 528.442 537.691 529.129 538.538 529.129Z" fill="#3C76F0" fill-opacity="0.5"/>
<path d="M548.315 529.129C549.162 529.129 549.848 528.442 549.848 527.595C549.848 526.748 549.162 526.061 548.315 526.061C547.468 526.061 546.781 526.748 546.781 527.595C546.781 528.442 547.468 529.129 548.315 529.129Z" fill="#3C76F0" fill-opacity="0.5"/>
<path d="M558.092 526.061C557.261 526.061 556.558 526.764 556.558 527.595C556.558 528.426 557.261 529.129 558.092 529.129C558.922 529.129 559.625 528.426 559.625 527.595C559.625 526.764 558.986 526.061 558.092 526.061Z" fill="#3C76F0" fill-opacity="0.5"/>
<path d="M567.933 529.129C568.763 529.129 569.466 528.426 569.466 527.595C569.466 526.764 568.763 526.061 567.933 526.061C567.102 526.061 566.399 526.764 566.399 527.595C566.399 528.426 567.038 529.129 567.933 529.129Z" fill="#3C76F0" fill-opacity="0.5"/>
<path d="M577.71 529.129C578.54 529.129 579.243 528.426 579.243 527.595C579.243 526.764 578.54 526.061 577.71 526.061C576.879 526.061 576.176 526.764 576.176 527.595C576.176 528.426 576.879 529.129 577.71 529.129Z" fill="#3C76F0" fill-opacity="0.5"/>
<path d="M587.55 529.129C588.381 529.129 589.084 528.426 589.084 527.595C589.084 526.764 588.381 526.061 587.55 526.061C586.72 526.061 586.017 526.764 586.017 527.595C586.017 528.426 586.656 529.129 587.55 529.129Z" fill="#3C76F0" fill-opacity="0.5"/>
<path d="M597.327 529.129C598.158 529.129 598.861 528.426 598.861 527.595C598.861 526.764 598.158 526.061 597.327 526.061C596.497 526.061 595.794 526.764 595.794 527.595C595.794 528.426 596.497 529.129 597.327 529.129Z" fill="#3C76F0" fill-opacity="0.5"/>
<path d="M607.168 526.061C606.338 526.061 605.635 526.764 605.635 527.595C605.635 528.426 606.338 529.129 607.168 529.129C607.999 529.129 608.702 528.426 608.702 527.595C608.702 526.764 607.999 526.061 607.168 526.061Z" fill="#3C76F0" fill-opacity="0.5"/>
<path d="M616.945 529.129C617.776 529.129 618.479 528.426 618.479 527.595C618.479 526.764 617.776 526.061 616.945 526.061C616.115 526.061 615.412 526.764 615.412 527.595C615.412 528.426 616.115 529.129 616.945 529.129Z" fill="#3C76F0" fill-opacity="0.5"/>
<path d="M626.722 529.129C627.569 529.129 628.256 528.442 628.256 527.595C628.256 526.748 627.569 526.061 626.722 526.061C625.875 526.061 625.189 526.748 625.189 527.595C625.189 528.442 625.875 529.129 626.722 529.129Z" fill="#3C76F0" fill-opacity="0.5"/>
<path d="M636.563 529.129C637.41 529.129 638.097 528.442 638.097 527.595C638.097 526.748 637.41 526.061 636.563 526.061C635.716 526.061 635.03 526.748 635.03 527.595C635.03 528.442 635.716 529.129 636.563 529.129Z" fill="#3C76F0" fill-opacity="0.5"/>
<path d="M538.538 535.967C539.385 535.967 540.071 535.281 540.071 534.433C540.071 533.586 539.385 532.9 538.538 532.9C537.691 532.9 537.004 533.586 537.004 534.433C537.004 535.281 537.691 535.967 538.538 535.967Z" fill="#3C76F0" fill-opacity="0.5"/>
<path d="M548.315 535.967C549.145 535.967 549.848 535.264 549.848 534.433C549.848 533.603 549.145 532.9 548.315 532.9C547.484 532.9 546.781 533.603 546.781 534.433C546.781 535.328 547.484 535.967 548.315 535.967Z" fill="#3C76F0" fill-opacity="0.5"/>
<path d="M558.092 535.967C558.922 535.967 559.625 535.264 559.625 534.433C559.625 533.603 558.922 532.9 558.092 532.9C557.261 532.9 556.558 533.603 556.558 534.433C556.558 535.328 557.261 535.967 558.092 535.967Z" fill="#3C76F0" fill-opacity="0.5"/>
<path d="M567.933 535.967C568.78 535.967 569.466 535.281 569.466 534.433C569.466 533.586 568.78 532.9 567.933 532.9C567.086 532.9 566.399 533.586 566.399 534.433C566.399 535.281 567.086 535.967 567.933 535.967Z" fill="#3C76F0" fill-opacity="0.5"/>
<path d="M577.71 535.967C578.557 535.967 579.243 535.281 579.243 534.433C579.243 533.586 578.557 532.9 577.71 532.9C576.862 532.9 576.176 533.586 576.176 534.433C576.176 535.281 576.862 535.967 577.71 535.967Z" fill="#3C76F0" fill-opacity="0.5"/>
<path d="M587.55 532.9C586.72 532.9 586.017 533.603 586.017 534.433C586.017 535.264 586.72 535.967 587.55 535.967C588.381 535.967 589.084 535.264 589.084 534.433C589.084 533.603 588.381 532.9 587.55 532.9Z" fill="#3C76F0" fill-opacity="0.5"/>
<path d="M597.327 535.967C598.174 535.967 598.861 535.281 598.861 534.433C598.861 533.586 598.174 532.9 597.327 532.9C596.48 532.9 595.794 533.586 595.794 534.433C595.794 535.281 596.48 535.967 597.327 535.967Z" fill="#3C76F0" fill-opacity="0.5"/>
<path d="M607.168 535.967C608.015 535.967 608.702 535.281 608.702 534.433C608.702 533.586 608.015 532.9 607.168 532.9C606.321 532.9 605.635 533.586 605.635 534.433C605.635 535.281 606.321 535.967 607.168 535.967Z" fill="#3C76F0" fill-opacity="0.5"/>
<path d="M616.945 535.967C617.776 535.967 618.479 535.264 618.479 534.433C618.479 533.603 617.776 532.9 616.945 532.9C616.115 532.9 615.412 533.603 615.412 534.433C615.412 535.328 616.115 535.967 616.945 535.967Z" fill="#3C76F0" fill-opacity="0.5"/>
<path d="M626.722 532.9C625.892 532.9 625.189 533.603 625.189 534.433C625.189 535.264 625.892 535.967 626.722 535.967C627.553 535.967 628.256 535.264 628.256 534.433C628.32 533.603 627.617 532.9 626.722 532.9Z" fill="#3C76F0" fill-opacity="0.5"/>
<path d="M636.563 535.967C637.41 535.967 638.097 535.281 638.097 534.433C638.097 533.586 637.41 532.9 636.563 532.9C635.716 532.9 635.03 533.586 635.03 534.433C635.03 535.281 635.716 535.967 636.563 535.967Z" fill="#3C76F0" fill-opacity="0.5"/>
<path d="M538.538 542.87C539.385 542.87 540.071 542.183 540.071 541.336C540.071 540.489 539.385 539.802 538.538 539.802C537.691 539.802 537.004 540.489 537.004 541.336C537.004 542.183 537.691 542.87 538.538 542.87Z" fill="#3C76F0" fill-opacity="0.5"/>
<path d="M548.315 542.87C549.145 542.87 549.848 542.167 549.848 541.336C549.848 540.505 549.145 539.802 548.315 539.802C547.484 539.802 546.781 540.505 546.781 541.336C546.781 542.167 547.484 542.87 548.315 542.87Z" fill="#3C76F0" fill-opacity="0.5"/>
<path d="M558.092 542.87C558.922 542.87 559.625 542.167 559.625 541.336C559.625 540.505 558.922 539.802 558.092 539.802C557.261 539.802 556.558 540.505 556.558 541.336C556.558 542.167 557.261 542.87 558.092 542.87Z" fill="#3C76F0" fill-opacity="0.5"/>
<path d="M567.933 542.87C568.78 542.87 569.466 542.183 569.466 541.336C569.466 540.489 568.78 539.802 567.933 539.802C567.086 539.802 566.399 540.489 566.399 541.336C566.399 542.183 567.086 542.87 567.933 542.87Z" fill="#3C76F0" fill-opacity="0.5"/>
<path d="M577.71 542.87C578.557 542.87 579.243 542.183 579.243 541.336C579.243 540.489 578.557 539.802 577.71 539.802C576.862 539.802 576.176 540.489 576.176 541.336C576.176 542.183 576.862 542.87 577.71 542.87Z" fill="#3C76F0" fill-opacity="0.5"/>
<path d="M587.55 542.87C588.381 542.87 589.084 542.167 589.084 541.336C589.084 540.505 588.381 539.802 587.55 539.802C586.72 539.802 586.017 540.505 586.017 541.336C586.017 542.167 586.656 542.87 587.55 542.87Z" fill="#3C76F0" fill-opacity="0.5"/>
<path d="M597.327 542.87C598.174 542.87 598.861 542.183 598.861 541.336C598.861 540.489 598.174 539.802 597.327 539.802C596.48 539.802 595.794 540.489 595.794 541.336C595.794 542.183 596.48 542.87 597.327 542.87Z" fill="#3C76F0" fill-opacity="0.5"/>
<path d="M607.168 542.87C608.015 542.87 608.702 542.183 608.702 541.336C608.702 540.489 608.015 539.802 607.168 539.802C606.321 539.802 605.635 540.489 605.635 541.336C605.635 542.183 606.321 542.87 607.168 542.87Z" fill="#3C76F0" fill-opacity="0.5"/>
<path d="M616.945 542.87C617.776 542.87 618.479 542.167 618.479 541.336C618.479 540.505 617.776 539.802 616.945 539.802C616.115 539.802 615.412 540.505 615.412 541.336C615.412 542.167 616.115 542.87 616.945 542.87Z" fill="#3C76F0" fill-opacity="0.5"/>
<path d="M626.722 542.87C627.569 542.87 628.256 542.183 628.256 541.336C628.256 540.489 627.569 539.802 626.722 539.802C625.875 539.802 625.189 540.489 625.189 541.336C625.189 542.183 625.875 542.87 626.722 542.87Z" fill="#3C76F0" fill-opacity="0.5"/>
<path d="M636.563 542.87C637.41 542.87 638.097 542.183 638.097 541.336C638.097 540.489 637.41 539.802 636.563 539.802C635.716 539.802 635.03 540.489 635.03 541.336C635.03 542.183 635.716 542.87 636.563 542.87Z" fill="#3C76F0" fill-opacity="0.5"/>
<path d="M538.538 549.708C539.385 549.708 540.071 549.021 540.071 548.174C540.071 547.327 539.385 546.64 538.538 546.64C537.691 546.64 537.004 547.327 537.004 548.174C537.004 549.021 537.691 549.708 538.538 549.708Z" fill="#3C76F0" fill-opacity="0.5"/>
<path d="M548.315 546.64C547.484 546.64 546.781 547.343 546.781 548.174C546.781 549.005 547.484 549.708 548.315 549.708C549.145 549.708 549.848 549.005 549.848 548.174C549.848 547.343 549.145 546.64 548.315 546.64Z" fill="#3C76F0" fill-opacity="0.5"/>
<path d="M556.558 548.174C556.558 549.005 557.261 549.708 558.092 549.708C558.922 549.708 559.625 549.005 559.625 548.174C559.625 547.343 558.922 546.64 558.092 546.64C557.261 546.64 556.558 547.343 556.558 548.174Z" fill="#3C76F0" fill-opacity="0.5"/>
<path d="M567.933 549.708C568.78 549.708 569.466 549.021 569.466 548.174C569.466 547.327 568.78 546.64 567.933 546.64C567.086 546.64 566.399 547.327 566.399 548.174C566.399 549.021 567.086 549.708 567.933 549.708Z" fill="#3C76F0" fill-opacity="0.5"/>
<path d="M577.71 549.708C578.557 549.708 579.243 549.021 579.243 548.174C579.243 547.327 578.557 546.64 577.71 546.64C576.862 546.64 576.176 547.327 576.176 548.174C576.176 549.021 576.862 549.708 577.71 549.708Z" fill="#3C76F0" fill-opacity="0.5"/>
<path d="M587.55 549.708C588.381 549.708 589.084 549.005 589.084 548.174C589.084 547.343 588.381 546.64 587.55 546.64C586.72 546.64 586.017 547.343 586.017 548.174C586.017 549.005 586.656 549.708 587.55 549.708Z" fill="#3C76F0" fill-opacity="0.5"/>
<path d="M597.327 549.708C598.174 549.708 598.861 549.021 598.861 548.174C598.861 547.327 598.174 546.64 597.327 546.64C596.48 546.64 595.794 547.327 595.794 548.174C595.794 549.021 596.48 549.708 597.327 549.708Z" fill="#3C76F0" fill-opacity="0.5"/>
<path d="M607.168 546.64C606.338 546.64 605.635 547.343 605.635 548.174C605.635 549.005 606.338 549.708 607.168 549.708C607.999 549.708 608.702 549.005 608.702 548.174C608.702 547.343 607.999 546.64 607.168 546.64Z" fill="#3C76F0" fill-opacity="0.5"/>
<path d="M616.945 546.64C616.115 546.64 615.412 547.343 615.412 548.174C615.412 549.005 616.115 549.708 616.945 549.708C617.776 549.708 618.479 549.005 618.479 548.174C618.479 547.343 617.776 546.64 616.945 546.64Z" fill="#3C76F0" fill-opacity="0.5"/>
<path d="M626.722 549.708C627.553 549.708 628.256 549.005 628.256 548.174C628.256 547.343 627.553 546.64 626.722 546.64C625.892 546.64 625.189 547.343 625.189 548.174C625.189 549.005 625.892 549.708 626.722 549.708Z" fill="#3C76F0" fill-opacity="0.5"/>
<path d="M636.563 549.708C637.41 549.708 638.097 549.021 638.097 548.174C638.097 547.327 637.41 546.64 636.563 546.64C635.716 546.64 635.03 547.327 635.03 548.174C635.03 549.021 635.716 549.708 636.563 549.708Z" fill="#3C76F0" fill-opacity="0.5"/>
<path d="M538.538 556.611C539.385 556.611 540.071 555.924 540.071 555.077C540.071 554.23 539.385 553.543 538.538 553.543C537.691 553.543 537.004 554.23 537.004 555.077C537.004 555.924 537.691 556.611 538.538 556.611Z" fill="#3C76F0" fill-opacity="0.5"/>
<path d="M548.315 553.479C547.484 553.479 546.781 554.182 546.781 555.013C546.781 555.844 547.484 556.547 548.315 556.547C549.145 556.547 549.848 555.844 549.848 555.013C549.848 554.182 549.145 553.479 548.315 553.479Z" fill="#3C76F0" fill-opacity="0.5"/>
<path d="M558.092 556.611C558.922 556.611 559.625 555.908 559.625 555.077C559.625 554.246 558.922 553.543 558.092 553.543C557.261 553.543 556.558 554.246 556.558 555.077C556.558 555.908 557.261 556.611 558.092 556.611Z" fill="#3C76F0" fill-opacity="0.5"/>
<path d="M567.933 556.611C568.763 556.611 569.466 555.908 569.466 555.077C569.466 554.246 568.763 553.543 567.933 553.543C567.102 553.543 566.399 554.246 566.399 555.077C566.399 555.908 567.038 556.611 567.933 556.611Z" fill="#3C76F0" fill-opacity="0.5"/>
<path d="M577.71 556.611C578.557 556.611 579.243 555.924 579.243 555.077C579.243 554.23 578.557 553.543 577.71 553.543C576.862 553.543 576.176 554.23 576.176 555.077C576.176 555.924 576.862 556.611 577.71 556.611Z" fill="#3C76F0" fill-opacity="0.5"/>
<path d="M587.55 556.611C588.381 556.611 589.084 555.908 589.084 555.077C589.084 554.246 588.381 553.543 587.55 553.543C586.72 553.543 586.017 554.246 586.017 555.077C586.017 555.908 586.656 556.611 587.55 556.611Z" fill="#3C76F0" fill-opacity="0.5"/>
<path d="M597.327 556.611C598.174 556.611 598.861 555.924 598.861 555.077C598.861 554.23 598.174 553.543 597.327 553.543C596.48 553.543 595.794 554.23 595.794 555.077C595.794 555.924 596.48 556.611 597.327 556.611Z" fill="#3C76F0" fill-opacity="0.5"/>
<path d="M607.168 553.479C606.338 553.479 605.635 554.182 605.635 555.013C605.635 555.844 606.338 556.547 607.168 556.547C607.999 556.547 608.702 555.844 608.702 555.013C608.702 554.182 607.999 553.479 607.168 553.479Z" fill="#3C76F0" fill-opacity="0.5"/>
<path d="M616.945 556.611C617.776 556.611 618.479 555.908 618.479 555.077C618.479 554.246 617.776 553.543 616.945 553.543C616.115 553.543 615.412 554.246 615.412 555.077C615.412 555.908 616.115 556.611 616.945 556.611Z" fill="#3C76F0" fill-opacity="0.5"/>
<path d="M626.722 556.611C627.569 556.611 628.256 555.924 628.256 555.077C628.256 554.23 627.569 553.543 626.722 553.543C625.875 553.543 625.189 554.23 625.189 555.077C625.189 555.924 625.875 556.611 626.722 556.611Z" fill="#3C76F0" fill-opacity="0.5"/>
<path d="M636.563 556.611C637.41 556.611 638.097 555.924 638.097 555.077C638.097 554.23 637.41 553.543 636.563 553.543C635.716 553.543 635.03 554.23 635.03 555.077C635.03 555.924 635.716 556.611 636.563 556.611Z" fill="#3C76F0" fill-opacity="0.5"/>
<path d="M538.538 563.449C539.385 563.449 540.071 562.763 540.071 561.915C540.071 561.068 539.385 560.382 538.538 560.382C537.691 560.382 537.004 561.068 537.004 561.915C537.004 562.763 537.691 563.449 538.538 563.449Z" fill="#3C76F0" fill-opacity="0.5"/>
<path d="M548.315 563.449C549.145 563.449 549.848 562.746 549.848 561.915C549.848 561.085 549.145 560.382 548.315 560.382C547.484 560.382 546.781 561.085 546.781 561.915C546.781 562.746 547.484 563.449 548.315 563.449Z" fill="#3C76F0" fill-opacity="0.5"/>
<path d="M558.092 563.449C558.922 563.449 559.625 562.746 559.625 561.915C559.625 561.085 558.922 560.382 558.092 560.382C557.261 560.382 556.558 561.085 556.558 561.915C556.558 562.746 557.261 563.449 558.092 563.449Z" fill="#3C76F0" fill-opacity="0.5"/>
<path d="M567.933 563.449C568.78 563.449 569.466 562.763 569.466 561.915C569.466 561.068 568.78 560.382 567.933 560.382C567.086 560.382 566.399 561.068 566.399 561.915C566.399 562.763 567.086 563.449 567.933 563.449Z" fill="#3C76F0" fill-opacity="0.5"/>
<path d="M577.71 560.382C576.879 560.382 576.176 561.085 576.176 561.915C576.176 562.746 576.879 563.449 577.71 563.449C578.54 563.449 579.243 562.746 579.243 561.915C579.243 561.085 578.604 560.382 577.71 560.382Z" fill="#3C76F0" fill-opacity="0.5"/>
<path d="M587.55 560.382C586.72 560.382 586.017 561.085 586.017 561.915C586.017 562.746 586.72 563.449 587.55 563.449C588.381 563.449 589.084 562.746 589.084 561.915C589.084 561.085 588.381 560.382 587.55 560.382Z" fill="#3C76F0" fill-opacity="0.5"/>
<path d="M597.327 563.449C598.158 563.449 598.861 562.746 598.861 561.915C598.861 561.085 598.158 560.382 597.327 560.382C596.497 560.382 595.794 561.085 595.794 561.915C595.794 562.746 596.497 563.449 597.327 563.449Z" fill="#3C76F0" fill-opacity="0.5"/>
<path d="M607.168 563.449C608.015 563.449 608.702 562.763 608.702 561.915C608.702 561.068 608.015 560.382 607.168 560.382C606.321 560.382 605.635 561.068 605.635 561.915C605.635 562.763 606.321 563.449 607.168 563.449Z" fill="#3C76F0" fill-opacity="0.5"/>
<path d="M616.945 563.449C617.776 563.449 618.479 562.746 618.479 561.915C618.479 561.085 617.776 560.382 616.945 560.382C616.115 560.382 615.412 561.085 615.412 561.915C615.412 562.746 616.115 563.449 616.945 563.449Z" fill="#3C76F0" fill-opacity="0.5"/>
<path d="M626.722 563.449C627.569 563.449 628.256 562.763 628.256 561.915C628.256 561.068 627.569 560.382 626.722 560.382C625.875 560.382 625.189 561.068 625.189 561.915C625.189 562.763 625.875 563.449 626.722 563.449Z" fill="#3C76F0" fill-opacity="0.5"/>
<path d="M636.563 563.449C637.41 563.449 638.097 562.763 638.097 561.915C638.097 561.068 637.41 560.382 636.563 560.382C635.716 560.382 635.03 561.068 635.03 561.915C635.03 562.763 635.716 563.449 636.563 563.449Z" fill="#3C76F0" fill-opacity="0.5"/>
<path d="M538.538 570.288C539.385 570.288 540.071 569.601 540.071 568.754C540.071 567.907 539.385 567.22 538.538 567.22C537.691 567.22 537.004 567.907 537.004 568.754C537.004 569.601 537.691 570.288 538.538 570.288Z" fill="#3C76F0" fill-opacity="0.5"/>
<path d="M548.315 570.288C549.145 570.288 549.848 569.585 549.848 568.754C549.848 567.923 549.145 567.22 548.315 567.22C547.484 567.22 546.781 567.923 546.781 568.754C546.781 569.648 547.484 570.288 548.315 570.288Z" fill="#3C76F0" fill-opacity="0.5"/>
<path d="M558.092 570.288C558.922 570.288 559.625 569.585 559.625 568.754C559.625 567.923 558.922 567.22 558.092 567.22C557.261 567.22 556.558 567.923 556.558 568.754C556.558 569.648 557.261 570.288 558.092 570.288Z" fill="#3C76F0" fill-opacity="0.5"/>
<path d="M567.933 570.288C568.763 570.288 569.466 569.585 569.466 568.754C569.466 567.923 568.763 567.22 567.933 567.22C567.102 567.22 566.399 567.923 566.399 568.754C566.399 569.648 567.038 570.288 567.933 570.288Z" fill="#3C76F0" fill-opacity="0.5"/>
<path d="M577.71 567.22C576.879 567.22 576.176 567.923 576.176 568.754C576.176 569.585 576.879 570.288 577.71 570.288C578.54 570.288 579.243 569.585 579.243 568.754C579.243 567.923 578.604 567.22 577.71 567.22Z" fill="#3C76F0" fill-opacity="0.5"/>
<path d="M587.55 570.288C588.381 570.288 589.084 569.585 589.084 568.754C589.084 567.923 588.381 567.22 587.55 567.22C586.72 567.22 586.017 567.923 586.017 568.754C586.017 569.648 586.656 570.288 587.55 570.288Z" fill="#3C76F0" fill-opacity="0.5"/>
<path d="M598.861 568.754C598.861 567.923 598.158 567.22 597.327 567.22C596.497 567.22 595.794 567.923 595.794 568.754C595.794 569.585 596.497 570.288 597.327 570.288C598.158 570.288 598.861 569.648 598.861 568.754Z" fill="#3C76F0" fill-opacity="0.5"/>
<path d="M607.168 567.22C606.338 567.22 605.635 567.923 605.635 568.754C605.635 569.585 606.338 570.288 607.168 570.288C607.999 570.288 608.702 569.585 608.702 568.754C608.702 567.923 607.999 567.22 607.168 567.22Z" fill="#3C76F0" fill-opacity="0.5"/>
<path d="M616.945 570.288C617.776 570.288 618.479 569.585 618.479 568.754C618.479 567.923 617.776 567.22 616.945 567.22C616.115 567.22 615.412 567.923 615.412 568.754C615.412 569.648 616.115 570.288 616.945 570.288Z" fill="#3C76F0" fill-opacity="0.5"/>
<path d="M626.722 567.22C625.892 567.22 625.189 567.923 625.189 568.754C625.189 569.585 625.892 570.288 626.722 570.288C627.553 570.288 628.256 569.585 628.256 568.754C628.32 567.923 627.617 567.22 626.722 567.22Z" fill="#3C76F0" fill-opacity="0.5"/>
<path d="M636.563 570.288C637.41 570.288 638.097 569.601 638.097 568.754C638.097 567.907 637.41 567.22 636.563 567.22C635.716 567.22 635.03 567.907 635.03 568.754C635.03 569.601 635.716 570.288 636.563 570.288Z" fill="#3C76F0" fill-opacity="0.5"/>
<path d="M538.538 577.19C539.368 577.19 540.071 576.487 540.071 575.656C540.071 574.825 539.368 574.122 538.538 574.122C537.707 574.122 537.004 574.825 537.004 575.656C536.94 576.487 537.643 577.19 538.538 577.19Z" fill="#3C76F0" fill-opacity="0.5"/>
<path d="M548.315 577.19C549.145 577.19 549.848 576.487 549.848 575.656C549.848 574.825 549.145 574.122 548.315 574.122C547.484 574.122 546.781 574.825 546.781 575.656C546.781 576.487 547.484 577.19 548.315 577.19Z" fill="#3C76F0" fill-opacity="0.5"/>
<path d="M558.092 574.122C557.261 574.122 556.558 574.825 556.558 575.656C556.558 576.487 557.261 577.19 558.092 577.19C558.922 577.19 559.625 576.487 559.625 575.656C559.625 574.761 558.986 574.122 558.092 574.122Z" fill="#3C76F0" fill-opacity="0.5"/>
<path d="M566.399 575.656C566.399 576.487 567.102 577.19 567.933 577.19C568.763 577.19 569.466 576.487 569.466 575.656C569.466 574.825 568.763 574.122 567.933 574.122C567.038 574.122 566.399 574.761 566.399 575.656Z" fill="#3C76F0" fill-opacity="0.5"/>
<path d="M577.71 577.19C578.54 577.19 579.243 576.487 579.243 575.656C579.243 574.825 578.54 574.122 577.71 574.122C576.879 574.122 576.176 574.825 576.176 575.656C576.176 576.487 576.879 577.19 577.71 577.19Z" fill="#3C76F0" fill-opacity="0.5"/>
<path d="M587.55 577.19C588.381 577.19 589.084 576.487 589.084 575.656C589.084 574.825 588.381 574.122 587.55 574.122C586.72 574.122 586.017 574.825 586.017 575.656C586.017 576.487 586.656 577.19 587.55 577.19Z" fill="#3C76F0" fill-opacity="0.5"/>
<path d="M597.327 577.19C598.158 577.19 598.861 576.487 598.861 575.656C598.861 574.825 598.158 574.122 597.327 574.122C596.497 574.122 595.794 574.825 595.794 575.656C595.794 576.487 596.497 577.19 597.327 577.19Z" fill="#3C76F0" fill-opacity="0.5"/>
<path d="M607.168 574.122C606.338 574.122 605.635 574.825 605.635 575.656C605.635 576.487 606.338 577.19 607.168 577.19C607.999 577.19 608.702 576.487 608.702 575.656C608.702 574.825 607.999 574.122 607.168 574.122Z" fill="#3C76F0" fill-opacity="0.5"/>
<path d="M616.945 574.122C616.115 574.122 615.412 574.825 615.412 575.656C615.412 576.487 616.115 577.19 616.945 577.19C617.776 577.19 618.479 576.487 618.479 575.656C618.479 574.761 617.776 574.122 616.945 574.122Z" fill="#3C76F0" fill-opacity="0.5"/>
<path d="M626.722 577.19C627.553 577.19 628.256 576.487 628.256 575.656C628.256 574.825 627.553 574.122 626.722 574.122C625.892 574.122 625.189 574.825 625.189 575.656C625.189 576.487 625.892 577.19 626.722 577.19Z" fill="#3C76F0" fill-opacity="0.5"/>
<path d="M636.563 577.19C637.394 577.19 638.097 576.487 638.097 575.656C638.097 574.825 637.394 574.122 636.563 574.122C635.733 574.122 635.03 574.825 635.03 575.656C635.03 576.487 635.733 577.19 636.563 577.19Z" fill="#3C76F0" fill-opacity="0.5"/>
<path class="floating-sphere sphere-1" d="M270.472 576.134C264.824 571.642 256.629 572.559 252.167 578.182C247.706 583.805 248.668 592.005 254.316 596.498C259.964 600.99 268.159 600.073 272.62 594.45C277.081 588.827 276.119 580.626 270.472 576.134Z" fill="url(#paint0_linear)"/>
<path class="floating-sphere sphere-3" d="M10.6052 48.2697C8.33496 46.4639 5.04078 46.8324 3.24746 49.0928C1.45413 51.3532 1.84076 54.6495 4.11102 56.4553C6.38127 58.2611 9.67546 57.8926 11.4688 55.6322C13.2621 53.3718 12.8755 50.0755 10.6052 48.2697Z" fill="url(#paint1_linear)"/>
<path class="floating-sphere sphere-2" d="M9.97437 259C7.72192 258.994 5.56385 258.095 3.97418 256.499C2.38451 254.903 1.49322 252.742 1.4961 250.489C1.49898 248.237 2.39578 246.078 3.98953 244.486C5.58327 242.894 7.74363 242 9.99609 242C12.2485 242 14.4089 242.894 16.0027 244.486C17.5964 246.078 18.4932 248.237 18.4961 250.489C18.499 252.742 17.6077 254.903 16.018 256.499C14.4283 258.095 12.2703 258.994 10.0178 259H9.97437Z" fill="url(#paint2_linear)"/>
<path class="floating-sphere sphere-4" d="M635.473 224C632.691 223.993 630.025 222.882 628.061 220.91C626.097 218.939 624.996 216.269 625 213.487C625.004 210.704 626.111 208.037 628.08 206.071C630.049 204.104 632.718 203 635.5 203C638.282 203 640.951 204.104 642.92 206.071C644.889 208.037 645.996 210.704 646 213.487C646.004 216.269 644.903 218.939 642.939 220.91C640.975 222.882 638.309 223.993 635.527 224H635.473Z" fill="url(#paint3_linear)"/>
<defs>
<linearGradient id="paint0_linear" x1="276.033" y1="580.558" x2="249.461" y2="592.697" gradientUnits="userSpaceOnUse">
<stop stop-color="#3C76F0" stop-opacity="0"/>
<stop offset="1" stop-color="#3C76F0"/>
</linearGradient>
<linearGradient id="paint1_linear" x1="12.8409" y1="50.048" x2="2.15951" y2="54.9275" gradientUnits="userSpaceOnUse">
<stop stop-color="#3C76F0" stop-opacity="0"/>
<stop offset="1" stop-color="#3C76F0"/>
</linearGradient>
<linearGradient id="paint2_linear" x1="-2.04512" y1="254.65" x2="17.5076" y2="249.175" gradientUnits="userSpaceOnUse">
<stop stop-color="#66C789"/>
<stop offset="1" stop-color="#66C789" stop-opacity="0"/>
</linearGradient>
<linearGradient id="paint3_linear" x1="620.626" y1="218.626" x2="644.779" y2="211.863" gradientUnits="userSpaceOnUse">
<stop stop-color="#66C789"/>
<stop offset="1" stop-color="#66C789" stop-opacity="0"/>
</linearGradient>
</defs>
</svg>
