<?xml version="1.0" encoding="utf-8"?>
<!DOCTYPE svg PUBLIC "-//W3C//DTD SVG 1.1//EN" "http://www.w3.org/Graphics/SVG/1.1/DTD/svg11.dtd">
<svg version="1.1" id="Слой_1" xmlns="http://www.w3.org/2000/svg" xmlns:xlink="http://www.w3.org/1999/xlink" x="0px" y="0px"
	 viewBox="0 0 83 20" enable-background="new 0 0 83 20" xml:space="preserve">
<path class="inherit-fill" d="M17.8,2.7c-0.5,0-1,0.4-1,0.9v12.7c0,0.5,0.5,0.9,1,0.9h1.5c0.5,0,1-0.4,1-0.9V3.6c0-0.5-0.5-0.9-0.9-0.9
	C19.4,2.7,17.8,2.7,17.8,2.7z M16.9,20c-2.1,0-3.8-1-3.8-3V3.1C13.1,1,14.8,0,16.9,0h3.4c2.1,0,3.8,1,3.8,3v13.9
	c0,2.1-1.7,3.1-3.8,3.1H16.9L16.9,20z M30.7,0v17.3h4.9V20h-8.7V0H30.7L30.7,0z M38.2,0H42v20h-3.8V0z M55.4,16.9c0,2.1-1.6,3-3.7,3
	h-7.5V0h7.5c2.1,0,3.7,1,3.7,3.1L55.4,16.9L55.4,16.9z M69.2,0v16.9c0,2.1-1.7,3.1-3.8,3.1H62c-2.1,0-3.8-1-3.8-3V0H62v16.4
	c0,0.5,0.5,0.9,1,0.9h1.5c0.5,0,1-0.4,1-0.9V0H69.2z M6.6,8.5c2.1,0,3.7,1,3.7,3v5.4c0,2.1-1.6,3.1-3.7,3.1H3.8c-2.1,0-3.8-1-3.8-3
	v-2h3v1.5c0,0.5,0.5,0.9,1,0.9h1.6c0.5,0,1-0.4,1-0.9v-4.3c0-0.5-0.5-0.9-1-0.9H3.7c-2.1,0-3.7-1-3.7-3v-5C0,1,1.6,0,3.7,0h2.5
	C8.3,0,10,1,10,3v2H7V3.6c0-0.5-0.5-0.9-1-0.9H4.7c-0.5,0-1,0.4-1,0.9v3.9c0,0.5,0.5,0.9,1,0.9L6.6,8.5L6.6,8.5z M78.7,8.5
	c2.1,0,3.7,1,3.7,3v5.4c0,2.1-1.6,3.1-3.7,3.1h-2.8c-2.1,0-3.8-1-3.8-3v-2h3v1.5c0,0.5,0.5,0.9,1,0.9h1.6c0.5,0,1-0.4,1-0.9v-4.3
	c0-0.5-0.5-0.9-1-0.9h-1.9c-2.1,0-3.7-1-3.7-3v-5C72.1,1,73.7,0,75.8,0h2.5c2.1,0,3.8,1,3.8,3v2h-3V3.6c0-0.5-0.5-0.9-1-0.9h-1.3
	c-0.5,0-1,0.4-1,0.9v3.9c0,0.5,0.5,0.9,1,0.9L78.7,8.5L78.7,8.5z"/>
</svg>
