<svg xmlns="http://www.w3.org/2000/svg" width="83" height="20"><path fill-rule="evenodd" d="M17.842 2.7c-.492 0-.953.43-.953.947v12.721c0 .517.461.919.953.919h1.508c.492 0 .953-.43.953-.948V3.62c0-.518-.461-.92-.923-.92h-1.538zm-.953 17.286c-2.061 0-3.784-.976-3.784-3.044V3.072C13.105.977 14.828 0 16.89 0h3.414c2.061 0 3.784.976 3.784 3.044v13.87c0 2.096-1.723 3.072-3.784 3.072H16.89zM30.683 0v17.287h4.921v2.699H26.9V0h3.784zm7.49 0h3.784v19.986h-3.784V0zM55.44 16.942c0 2.068-1.63 3.044-3.691 3.044h-7.506V0h7.506c2.06 0 3.69.976 3.69 3.073v13.87zM69.245 0v16.914c0 2.096-1.722 3.072-3.784 3.072h-3.414c-2.06 0-3.783-.976-3.783-3.044V0h3.783v16.368c0 .517.462.919.954.919h1.507c.492 0 .953-.43.953-.948V0h3.784zM6.613 8.458c2.061 0 3.691.977 3.691 3.044v5.412c0 2.096-1.63 3.072-3.69 3.072H3.785c-2.061 0-3.784-.976-3.784-3.044V14.9h3.044v1.468c0 .517.462.919.954.919h1.567c.493 0 .954-.43.954-.919v-4.292c0-.516-.461-.919-.954-.919H3.691C1.631 11.157 0 10.181 0 8.114V3.072C0 .976 1.63 0 3.691 0h2.522c2.06 0 3.783.976 3.783 3.044v2.042H6.953V3.618c0-.517-.462-.919-.954-.919H4.737c-.492 0-.954.431-.954.92v3.92c0 .517.462.92.954.92h1.876zm72.064 0c2.06 0 3.69.977 3.69 3.044v5.412c0 2.096-1.63 3.072-3.69 3.072h-2.828c-2.061 0-3.783-.976-3.783-3.044V14.9h3.043v1.468c0 .517.462.919.954.919h1.568c.492 0 .953-.43.953-.919v-4.292c0-.516-.461-.919-.953-.919h-1.877c-2.06 0-3.69-.976-3.69-3.043V3.072C72.063.976 73.693 0 75.753 0h2.522c2.061 0 3.784.976 3.784 3.044v2.042h-3.044V3.618c0-.517-.461-.919-.953-.919H76.8c-.492 0-.953.431-.953.92v3.92c0 .517.461.92.953.92h1.877z"/></svg>