<?xml version="1.0" encoding="utf-8"?>
<!-- Generator: Adobe Illustrator 18.0.0, SVG Export Plug-In . SVG Version: 6.00 Build 0)  -->
<!DOCTYPE svg PUBLIC "-//W3C//DTD SVG 1.1//EN" "http://www.w3.org/Graphics/SVG/1.1/DTD/svg11.dtd">
<svg version="1.1" id="Слой_1" xmlns="http://www.w3.org/2000/svg" xmlns:xlink="http://www.w3.org/1999/xlink" x="0px" y="0px"
	 viewBox="0 560 16 13.2" enable-background="new 0 560 16 13.2" xml:space="preserve">
<path d="M16,571.2v1.3c0,0.2-0.1,0.3-0.2,0.5c-0.1,0.1-0.3,0.2-0.5,0.2H0.7c-0.2,0-0.3-0.1-0.5-0.2c-0.1-0.1-0.2-0.3-0.2-0.5v-1.3
	c0-0.2,0.1-0.3,0.2-0.5c0.1-0.1,0.3-0.2,0.5-0.2h14.6c0.2,0,0.3,0.1,0.5,0.2C15.9,570.9,16,571.1,16,571.2z M16,566v1.3
	c0,0.2-0.1,0.3-0.2,0.5c-0.1,0.1-0.3,0.2-0.5,0.2H0.7c-0.2,0-0.3-0.1-0.5-0.2c-0.1-0.1-0.2-0.3-0.2-0.5V566c0-0.2,0.1-0.3,0.2-0.5
	c0.1-0.1,0.3-0.2,0.5-0.2h14.6c0.2,0,0.3,0.1,0.5,0.2C15.9,565.7,16,565.8,16,566z M16,560.7v1.3c0,0.2-0.1,0.3-0.2,0.5
	c-0.1,0.1-0.3,0.2-0.5,0.2H0.7c-0.2,0-0.3-0.1-0.5-0.2C0.1,562.4,0,562.2,0,562v-1.3c0-0.2,0.1-0.3,0.2-0.5c0.1-0.1,0.3-0.2,0.5-0.2
	h14.6c0.2,0,0.3,0.1,0.5,0.2C15.9,560.3,16,560.5,16,560.7z"/>
</svg>
