<svg width="61" height="61" viewBox="0 0 61 61" fill="none" xmlns="http://www.w3.org/2000/svg">
<ellipse cx="30.3603" cy="30.2085" rx="29.7297" ry="30.1158" fill="#FFFBF1"/>
<path d="M45.2658 18.2023L39.7913 17.6803L35.6198 17.3006C35.5333 17.2928 35.4465 17.2888 35.3596 17.2888V17.2888C35.0989 17.2888 34.8382 17.5498 34.8382 17.8108C34.8382 20.4209 32.7527 22.6394 30.0155 22.6394C27.4086 22.6394 25.1928 20.4209 25.1928 17.8108V17.8108C25.3231 17.4193 25.1928 17.1583 24.8017 17.1583H24.6714V17.1583L20.37 17.6803L15.0259 18.2023C14.7652 18.2023 14.5045 18.4633 14.5045 18.7243V27.207C14.5045 27.468 14.7652 27.729 15.0259 27.729H19.7183C19.979 27.729 20.2397 27.99 20.2397 28.251V42.7367C20.2397 42.9977 20.5004 43.2587 20.761 43.2587H39.4003C39.661 43.2587 39.9217 42.9977 39.9217 42.7367V28.251C39.9217 27.99 40.1824 27.729 40.4431 27.729H45.1355C45.3961 27.729 45.6568 27.468 45.6568 27.207V19.4998C45.6568 18.9898 45.7758 18.2023 45.2658 18.2023V18.2023Z" stroke="#F9CB40" stroke-width="2" stroke-miterlimit="10"/>
</svg>
