<svg width="60" height="60" viewBox="0 0 60 60" fill="none" xmlns="http://www.w3.org/2000/svg">
<circle cx="30" cy="30" r="30" fill="#F4EFFD"/>
<path d="M35.0909 35.5455V19H16V35.5455H35.0909ZM35.0909 35.5455H44V29.1818L40.1818 25.3636H35.0909V35.5455ZM24.9091 38.7273C24.9091 40.4845 23.4845 41.9091 21.7273 41.9091C19.97 41.9091 18.5455 40.4845 18.5455 38.7273C18.5455 36.97 19.97 35.5455 21.7273 35.5455C23.4845 35.5455 24.9091 36.97 24.9091 38.7273ZM41.4545 38.7273C41.4545 40.4845 40.03 41.9091 38.2727 41.9091C36.5155 41.9091 35.0909 40.4845 35.0909 38.7273C35.0909 36.97 36.5155 35.5455 38.2727 35.5455C40.03 35.5455 41.4545 36.97 41.4545 38.7273Z" stroke="#3C76F0" stroke-width="2" stroke-linecap="round" stroke-linejoin="round"/>
</svg>
