<svg width="32" height="51" viewBox="0 0 32 51" xmlns="http://www.w3.org/2000/svg" xmlns:xlink="http://www.w3.org/1999/xlink"><defs><path id="a" d="M0 .927h31.843v38.674H0z"/><path d="M.818 2.671c-.157.904.118 1.917.779 2.855l3.077 4.439 4.394-3.143c.936-.659 1.537-1.522 1.694-2.426.243-1.398-.521-2.498-1.901-2.738a3.225 3.225 0 0 0-.565-.052c-.687 0-1.138.256-1.729.726l-.66.528-.445-.719C4.97 1.344 4.535.908 3.529.734a2.754 2.754 0 0 0-.488-.043c-1.16 0-2.012.758-2.223 1.98" id="c"/><linearGradient x1="-.002%" y1="50.003%" x2="100.003%" y2="50.003%" id="d"><stop stop-color="#C1D3FA" offset="0%"/><stop stop-color="#6D98F4" offset="100%"/></linearGradient><path id="f" d="M.016.265h5.779V10H.016z"/></defs><g fill="none" fill-rule="evenodd"><g transform="translate(0 -.927)"><mask id="b" fill="#fff"><use xlink:href="#a"/></mask><path d="M31.72 6.874c-1.796 10.258-3.314 19.528-5.094 29.79-.23 1.332-1.75 2.926-3.033 2.937-.139.001-1.953-.304-2.09-.329a66109.21 66109.21 0 0 1-19.479-3.376c-.063-.01-.124-.029-.186-.044C.632 35.474.001 33.637 0 32.35c-.003-2.536.053-5.07.087-7.605.03-2.166.036-4.332.086-6.497.025-1.059.528-1.902 1.315-2.574.988-.843 2.138-1.08 3.401-.835.1.02.201.034.302.048.307.043.505-.086.55-.39.71-4.842 6.108-2.885 6.854-2.47.21.115.365.035.445-.194.11-.313.206-.629.368-.922 1.477-3.463 6.471-1.4 7.082-.909.344.277.465.24.571-.178.214-.838.404-1.682.606-2.524.312-1.299.478-1.957.822-3.246.412-1.796 2.7-3.476 5.513-3.065 2.091.363 4.404 2.343 3.718 5.885" fill="#3D76F1" mask="url(#b)"/></g><path d="M31.033 6.599c-1.711 9.773-3.4 19.552-5.096 29.329-.22 1.27-1.117 2.064-2.34 2.073a2.215 2.215 0 0 1-.397-.036c-6.187-1.071-12.374-2.144-18.561-3.218-.06-.01-.118-.027-.177-.042-1.15-.36-1.888-1.313-1.89-2.54-.002-2.416.05-4.831.083-7.246.028-2.063.035-4.127.083-6.19.023-1.01.503-1.813 1.253-2.453.94-.803 2.037-1.031 3.24-.795.096.018.192.032.288.046.293.04.48-.082.524-.373.676-4.614 5.82-2.747 6.53-2.354.2.11.348.034.425-.184.105-.297.196-.6.35-.878 1.408-3.3 6.166-1.335 6.749-.867.327.264.443.229.544-.168.203-.8.385-1.604.577-2.406.297-1.238.563-2.485.89-3.714.558-2.086 2.904-3.214 4.906-2.415.37.149 2.635 1.035 2.019 4.43" fill="#FFF"/><path d="M31.033 6.599c-1.711 9.773-3.4 19.552-5.096 29.329-.22 1.27-1.117 2.064-2.34 2.073a2.215 2.215 0 0 1-.397-.036c-6.187-1.071-12.374-2.144-18.561-3.218-.06-.01-.118-.027-.177-.042-1.15-.36-1.888-1.313-1.89-2.54-.002-2.416.05-4.831.083-7.246.028-2.063.035-4.127.083-6.19.023-1.01.503-1.813 1.253-2.453.94-.803 2.037-1.031 3.24-.795.096.018.192.032.288.046.293.04.48-.082.524-.373.676-4.614 5.82-2.747 6.53-2.354.2.11.348.034.425-.184.105-.297.196-.6.35-.878 1.408-3.3 6.166-1.335 6.749-.867.327.264.443.229.544-.168.203-.8.385-1.604.577-2.406.297-1.238.563-2.485.89-3.714.558-2.086 2.904-3.214 4.906-2.415.37.149 2.635 1.035 2.019 4.43z" stroke="#3C76F0" stroke-width="1.5" stroke-linecap="round" stroke-linejoin="round"/><g transform="translate(10 20.073)"><mask id="e" fill="#fff"><use xlink:href="#c"/></mask><path d="M.818 2.671c-.157.904.118 1.917.779 2.855l3.077 4.439 4.394-3.143c.936-.659 1.537-1.522 1.694-2.426.243-1.398-.521-2.498-1.901-2.738a3.225 3.225 0 0 0-.565-.052c-.687 0-1.138.256-1.729.726l-.66.528-.445-.719C4.97 1.344 4.535.908 3.529.734a2.754 2.754 0 0 0-.488-.043c-1.16 0-2.012.758-2.223 1.98" fill="url(#d)" mask="url(#e)"/></g><g><path d="M13.04 20.014c-1.505 0-2.684 1.004-2.961 2.602-.191 1.103.13 2.315.902 3.412l3.17 4.572a.59.59 0 0 0 .828.143l4.522-3.235c1.099-.775 1.81-1.808 2-2.911.315-1.812-.718-3.294-2.511-3.604a4.098 4.098 0 0 0-.694-.064c-.946.001-1.571.393-2.196.892-.515-.834-1.086-1.518-2.443-1.752a3.57 3.57 0 0 0-.617-.055m0 1.5c.116 0 .238.011.36.032.778.134 1.03.427 1.424 1.064l.89 1.438 1.322-1.055c.54-.432.835-.564 1.26-.564.133 0 .28.015.437.042.477.082.848.297 1.072.619.228.327.304.76.219 1.251-.123.707-.616 1.397-1.396 1.947l-3.771 2.698-2.65-3.823c-.542-.77-.773-1.583-.65-2.291.15-.863.69-1.358 1.483-1.358" fill="#3D76F1"/><path fill="#FFF" d="M19.93 39.582l-.545 3.137-13.172-2.284.544-3.137"/><path stroke="#24282F" stroke-width="1.5" stroke-linecap="round" stroke-linejoin="round" d="M19.93 39.582l-.545 3.137-13.172-2.284.544-3.137"/><g transform="translate(9 41.073)"><mask id="g" fill="#fff"><use xlink:href="#f"/></mask><path fill="#24282F" mask="url(#g)" d="M4.574 10L.016 9.472 1.237.265l4.558.528z"/></g></g></g></svg>