<?xml version="1.0" encoding="UTF-8"?>
<svg width="33px" height="51px" viewBox="0 0 33 51" version="1.1" xmlns="http://www.w3.org/2000/svg" xmlns:xlink="http://www.w3.org/1999/xlink">
    <defs>
        <linearGradient x1="0.575158247%" y1="50%" x2="100.216838%" y2="50%" id="linearGradient-5">
            <stop stop-color="#C1D3FA" offset="0%"></stop>
            <stop stop-color="#6D98F4" offset="100%"></stop>
        </linearGradient>
    </defs>
    <g id="Page-1" stroke="none" stroke-width="1" fill="none" fill-rule="evenodd">
        <g id="backer">
            <path d="M24.3,37.2 C24.4,37.2 24.5,37.2 24.6,37.2 C25.5,37.2 26,36.7 26.2,35.7 L27.4,28.7 C28.7,21.3 30,13.8 31.3,6.4 C31.3,6.4 31.3,6.4 31.3,6.4 C31.7,4.1 30.7,3.2 29.7,2.8 C29,2.6 28.1,2.6 27.3,3 C26.6,3.4 26,4 25.8,4.8 C25.6,5.6 25.4,6.4 25.2,7.2 C25.1,7.6 25,8 24.9,8.4 L24.7,9.1 C24.6,9.7 24.4,10.2 24.3,10.8 C24.3,11 24.1,11.5 23.6,11.7 C23.1,11.9 22.7,11.5 22.5,11.4 C22.2,11.1 20,10.3 18.4,10.7 C17.7,10.9 17.2,11.3 16.9,12 C16.8,12.2 16.7,12.4 16.6,12.7 L16.5,12.9 C16.4,13.2 16.2,13.5 15.9,13.6 C15.6,13.7 15.3,13.7 15,13.5 C14.7,13.3 12.4,12.4 10.9,13.2 C10.2,13.6 9.8,14.3 9.6,15.3 C9.5,16 8.9,16.4 8.2,16.3 C8.1,16.3 8,16.3 7.9,16.2 C7.6,16.2 7.4,16.1 7.2,16.1 C6.5,16.1 5.9,16.3 5.3,16.8 C4.7,17.4 4.3,18 4.3,18.7 C4.3,20.1 4.3,21.4 4.2,22.8 L4.1,26.9 C4.1,28.7 4,30.4 4,32.2 C4,33.1 4.5,33.8 5.4,34 L24.3,37.2 Z" id="Path" fill="#3D76F1" fill-rule="nonzero"></path>
            <path d="M29.7,2.9 C29,2.6 28.1,2.6 27.3,3 C26.6,3.4 26,4 25.8,4.8 C25.6,5.6 25.4,6.4 25.2,7.2 C25.1,7.6 25,8 24.9,8.4 L24.7,9.1 C24.6,9.7 24.4,10.2 24.3,10.8 C24.3,11 24.1,11.5 23.6,11.7 C23.1,11.9 22.7,11.5 22.5,11.4 C22.2,11.1 20,10.3 18.4,10.7 C17.7,10.9 17.2,11.3 16.9,12 C16.8,12.2 16.7,12.4 16.6,12.7 L16.5,12.9 C16.4,13.2 16.2,13.5 15.9,13.6 C15.6,13.7 15.3,13.7 15,13.5 C14.7,13.3 12.4,12.4 10.9,13.2 C10.2,13.6 9.8,14.3 9.6,15.3 C9.5,16 8.9,16.4 8.2,16.3 C8.1,16.3 8,16.3 7.9,16.2 C7.6,16.2 7.4,16.1 7.2,16.1 C6.5,16.1 5.9,16.3 5.3,16.8 C4.7,17.4 4.3,18 4.3,18.7 C4.3,20.1 4.3,21.4 4.2,22.8 L4.1,26.9 C4.1,28.7 4,30.4 4,32.2 C4,33.1 4.5,33.8 5.4,34 L24,37.2 C24.1,37.2 24.2,37.2 24.3,37.2 C25.2,37.2 25.7,36.7 25.9,35.7 L27.1,28.7 C28.4,21.3 29.7,13.8 31,6.4 C31,6.4 31,6.4 31,6.4 C31.7,4.2 30.7,3.2 29.7,2.9 Z" id="Path"></path>
            <path d="M32.8,4.8 C32.8,2 30.8,0.4 29,0.1 C26.2,-0.3 23.9,1.4 23.5,3.2 C23.2,4.5 23,5.1 22.7,6.4 C22.5,7.2 22.3,8.1 22.1,8.9 C22,9.3 21.9,9.4 21.5,9.1 C20.9,8.6 15.9,6.5 14.4,10 C14.2,10.3 14.1,10.6 14,10.9 C13.9,11.1 13.8,11.2 13.6,11.1 C12.9,10.7 7.5,8.7 6.7,13.6 C6.7,13.9 6.5,14 6.1,14 C6,14 5.9,14 5.8,14 C4.5,13.8 3.4,14 2.4,14.8 C1.6,15.5 1.1,16.3 1.1,17.4 C1.1,19.6 1,21.7 1,23.9 C1,26.4 0.9,29 0.9,31.5 C0.9,32.8 1.5,34.6 2.7,35 C2.8,35 2.8,35 2.9,35 C3.5,35.1 4.2,35.2 4.8,35.3 C4.9,35.3 5,35.4 5.1,35.4 C5.2,35.4 5.2,35.4 5.3,35.4 L23.9,38.6 C24.1,38.6 24.3,38.6 24.4,38.6 C26,38.6 27.2,37.5 27.5,35.9 L28.7,28.9 C30,21.5 31.3,14 32.6,6.6 C32.9,6 32.9,5.3 32.8,4.8 Z" id="Path" fill="#3C76F0" fill-rule="nonzero"></path>
            <path d="M31.3,6.5 C31.3,6.5 31.3,6.5 31.3,6.5 C30,13.9 28.7,21.4 27.4,28.8 L26.2,35.8 C26,36.7 25.5,37.2 24.6,37.3 C24.5,37.3 24.4,37.3 24.3,37.3 L5.7,34 C4.8,33.7 4.3,33.1 4.3,32.2 C4.3,30.4 4.3,28.7 4.4,26.9 L4.5,22.8 C4.5,21.4 4.5,20.1 4.6,18.7 C4.6,18 4.9,17.4 5.6,16.8 C6.2,16.3 6.8,16.1 7.5,16.1 C7.7,16.1 8,16.1 8.2,16.2 C8.3,16.2 8.4,16.2 8.5,16.3 C9.2,16.4 9.8,16 9.9,15.3 C10.1,14.2 10.5,13.5 11.2,13.2 C12.7,12.4 15,13.4 15.3,13.5 C15.6,13.7 15.9,13.7 16.2,13.6 C16.5,13.5 16.7,13.3 16.8,12.9 L16.9,12.7 C17,12.5 17,12.3 17.2,12 C17.5,11.3 18,10.9 18.7,10.7 C20.3,10.3 22.4,11.2 22.8,11.4 C23,11.5 23.4,11.9 23.9,11.7 C24.4,11.5 24.5,11 24.6,10.8 C24.7,10.2 24.9,9.7 25,9.1 L25.2,8.4 C25.3,8 25.4,7.6 25.5,7.2 C25.7,6.4 25.9,5.6 26.1,4.8 C26,4 26.6,3.4 27.3,3 C28.1,2.6 28.9,2.6 29.7,2.9 C30.7,3.2 31.7,4.2 31.3,6.5 Z" id="Path" fill="#FFFFFF" fill-rule="nonzero"></path>
            <path d="M20,21 C19.8,21 19.5,20.9 19.3,20.9 C18.4,20.9 17.7,21.3 17.1,21.8 C16.6,21 16,20.3 14.7,20 C14.5,20 14.2,20 14,20 C12.5,20 11.3,21 11,22.6 C10.8,23.7 11.1,24.9 11.9,26 L15.1,30.6 C15.3,30.9 15.7,30.9 15.9,30.7 C15.9,30.7 15.9,30.7 15.9,30.7 L20.4,27.5 C21.5,26.7 22.2,25.7 22.4,24.6 C22.8,22.8 21.8,21.3 20,21 Z M21,24.3 C20.9,25 20.4,25.7 19.6,26.2 L15.9,29 L13.3,25.2 C12.8,24.4 12.5,23.6 12.6,22.9 C12.8,22 13.3,21.5 14.1,21.5 C14.2,21.5 14.3,21.5 14.5,21.5 C15.3,21.6 15.5,21.9 15.9,22.6 L16.8,24 L18,23 C18.5,22.6 18.8,22.4 19.3,22.4 C19.4,22.4 19.6,22.4 19.7,22.4 C20.2,22.5 20.5,22.7 20.8,23 C21,23.4 21.1,23.8 21,24.3 Z" id="Shape" fill="#3D76F1"></path>
            <path d="M21.1,38.8 C20.7,38.7 20.3,39 20.2,39.4 L19.8,41.8 L8.1,39.8 L8.5,37.4 C8.6,37 8.3,36.6 7.9,36.5 C7.5,36.4 7.1,36.7 7,37.1 L6.5,40.2 C6.4,40.6 6.7,41 7.1,41.1 L11.2,41.8 L10,50.5 L14.6,51 L15.7,42.6 L20.3,43.4 C20.3,43.4 20.4,43.4 20.4,43.4 C20.8,43.4 21.1,43.1 21.1,42.8 L21.6,39.7 C21.7,39.3 21.5,38.9 21.1,38.8 Z" id="Path" fill="#24282F" fill-rule="nonzero"></path>
            <path d="M15.8,22.6 C15.4,22 15.2,21.7 14.4,21.5 C14.3,21.5 14.2,21.5 14,21.5 C13.2,21.5 12.7,22 12.5,22.9 C12.4,23.6 12.6,24.4 13.2,25.2 L15.8,29 L19.6,26.3 C20.4,25.8 20.9,25.1 21,24.4 C21.1,23.9 21,23.5 20.8,23.1 C20.6,22.8 20.2,22.6 19.7,22.5 C19.5,22.5 19.4,22.5 19.3,22.5 C18.9,22.5 18.6,22.6 18,23.1 L16.7,24 L15.8,22.6 Z" id="Path" fill="url(#linearGradient-5)"></path>
        </g>
    </g>
</svg>