<svg width="68" height="68" viewBox="0 0 68 68" xmlns="http://www.w3.org/2000/svg"><g fill="none" fill-rule="evenodd"><path d="M1.191 0H63a5 5 0 0 1 5 5v63.016L.838.854A.5.5 0 0 1 1.19 0z" fill="#CD7F32"/><path d="M52.9 29.2c1-.4 1.7-1.1 2.2-1.9.5-.9.7-1.8.7-2.8v-.2c0-.9-.2-1.8-.6-2.4-.4-.8-1-1.3-1.6-1.7-.6-.4-1.3-.6-2-.6v-.2c.9-.3 1.7-.7 2.4-1.4s1-1.6 1-2.8c0-1.5-.5-2.7-1.6-3.7S50.7 10 48.6 10H41v19.9h8.1c1.5 0 2.8-.2 3.8-.7zm-.8-5.1c0 .8-.3 1.4-.9 1.9-.6.5-1.5.7-2.8.7h-3.8V21h3.9c1.1 0 2 .3 2.6.9.7.6 1 1.3 1 2.2zm-7.6-11.2h3.6c1.1 0 1.9.2 2.4.7.5.5.8 1.1.8 1.9 0 .9-.3 1.6-.9 2.1-.6.5-1.4.8-2.3.8h-3.6v-5.5z" fill="#FFF" fill-rule="nonzero"/></g></svg>