<?xml version="1.0" encoding="UTF-8"?>
<svg width="17px" height="15px" viewBox="0 0 17 15" version="1.1" xmlns="http://www.w3.org/2000/svg" xmlns:xlink="http://www.w3.org/1999/xlink">
    <!-- Generator: Sketch 53.2 (72643) - https://sketchapp.com -->
    <title>checkbox</title>
    <desc>Created with Sketch.</desc>
    <g id="Page-1" stroke="none" stroke-width="1" fill="none" fill-rule="evenodd">
        <g id="checkbox" fill="#3C76F0" fill-rule="nonzero">
            <path d="M16.768,1.771 L14.542,0.093 C14.4709851,0.034305488 14.3821189,0.00150961409 14.29,4.50750548e-17 C14.1962265,0.00128018753 14.1059171,0.0356331813 14.035,0.097 L5.937,10.043 C5.937,10.043 2.753,7.117 2.664,7.031 C2.575,6.946 2.457,6.803 2.279,6.803 C2.101,6.803 2.019,6.923 1.926,7.013 C1.857,7.081 0.722,8.22 0.162,8.786 C0.136268243,8.81423009 0.109586232,8.84157915 0.082,8.868 C0.0315712738,8.93052275 0.00279648304,9.00772341 -1.64757097e-16,9.088 C-1.64757097e-16,9.174 0.032,9.244 0.081,9.31 L0.195,9.41 C0.195,9.41 5.843,14.597 5.937,14.686 C6.03,14.776 6.143,14.888 6.31,14.888 C6.472,14.888 6.606,14.721 6.683,14.648 L16.784,2.243 C16.8346909,2.17915651 16.8631341,2.10049897 16.865,2.019 C16.8630843,1.92714981 16.8287221,1.83894169 16.768,1.77 L16.768,1.771 Z" id="Path"></path>
        </g>
    </g>
</svg>