<svg width="50" xmlns="http://www.w3.org/2000/svg" xmlns:xlink="http://www.w3.org/1999/xlink" viewBox="0 0 42 41"><defs><linearGradient id="a22d505c-6900-4851-baf7-5abef2de9dac" x1="2.59" y1="6.42" x2="11.87" y2="6.42" gradientUnits="userSpaceOnUse"><stop offset="0" stop-color="#accaed"/><stop offset="1" stop-color="#e6effd"/></linearGradient><linearGradient id="bb249db6-d786-4eff-b0a4-657c51060bd0" x1="1.01" y1="16.57" x2="13.45" y2="16.57" gradientUnits="userSpaceOnUse"><stop offset="0" stop-color="#c1d3fa"/><stop offset="1" stop-color="#6d98f4"/></linearGradient><linearGradient id="a7514a22-3960-4c2a-87d5-d4bb413304d4" x1="30" y1="26.31" x2="39.28" y2="26.31" xlink:href="#a22d505c-6900-4851-baf7-5abef2de9dac"/><linearGradient id="f5dca47c-7d90-4cc5-9fe0-d7c01d98b265" x1="28.42" y1="36.45" x2="40.86" y2="36.45" xlink:href="#bb249db6-d786-4eff-b0a4-657c51060bd0"/></defs><title>Tavola disegno 1</title><polygon points="25.31 19.3 22.2 19.3 22.2 16.19 19.8 16.19 19.8 19.3 16.69 19.3 16.69 21.7 19.8 21.7 19.8 24.81 22.2 24.81 22.2 21.7 25.31 21.7 25.31 19.3" fill="#24282f" fill-rule="evenodd"/><path d="M5.41,23.35H3.89A17.38,17.38,0,0,0,21,37.86a17.2,17.2,0,0,0,3-.27V36.07a15.44,15.44,0,0,1-3,.29A15.88,15.88,0,0,1,5.41,23.35Z" fill="#3d76f1"/><path d="M21,3.14a18,18,0,0,0-3.06.28V4.94A16.2,16.2,0,0,1,21,4.64,15.9,15.9,0,0,1,36.56,17.41h1.51A17.37,17.37,0,0,0,21,3.14Z" fill="#3d76f1"/><path d="M7.23,11.06a4.64,4.64,0,1,1,4.64-4.64,4.64,4.64,0,0,1-4.64,4.64" fill-rule="evenodd" fill="url(#a22d505c-6900-4851-baf7-5abef2de9dac)"/><path d="M7.23,1.09a5.34,5.34,0,1,0,5.34,5.33A5.34,5.34,0,0,0,7.23,1.09m0,1.4A3.94,3.94,0,1,1,3.29,6.42,3.94,3.94,0,0,1,7.23,2.49" fill="#3c76f0" fill-rule="evenodd"/><path d="M1,20.18C1.72,16,4.24,13,7.23,13s5.5,3.06,6.22,7.2" fill-rule="evenodd" fill="url(#bb249db6-d786-4eff-b0a4-657c51060bd0)"/><path d="M1,20.18C1.72,16,4.24,13,7.23,13s5.5,3.06,6.22,7.2" fill="none" stroke="#3c76f0" stroke-width="1.5"/><path d="M34.64,31a4.64,4.64,0,1,1,4.64-4.64A4.65,4.65,0,0,1,34.64,31" fill-rule="evenodd" fill="url(#a7514a22-3960-4c2a-87d5-d4bb413304d4)"/><path d="M34.64,21A5.34,5.34,0,1,0,40,26.31,5.34,5.34,0,0,0,34.64,21m0,1.4a3.94,3.94,0,1,1-3.94,3.94,3.94,3.94,0,0,1,3.94-3.94" fill="#3c76f0" fill-rule="evenodd"/><path d="M28.42,40.07c.71-4.16,3.23-7.23,6.22-7.23s5.5,3,6.22,7.2" fill-rule="evenodd" fill="url(#f5dca47c-7d90-4cc5-9fe0-d7c01d98b265)"/><path d="M28.42,40.07c.71-4.16,3.23-7.23,6.22-7.23s5.5,3,6.22,7.2" fill="none" stroke="#3c76f0" stroke-width="1.5"/></svg>