<svg width="42" height="41" xmlns="http://www.w3.org/2000/svg"><defs><linearGradient x1="-.002%" y1="50.003%" x2="100.003%" y2="50.003%" id="a"><stop stop-color="#C1D3FA" offset="0%"/><stop stop-color="#6D98F4" offset="100%"/></linearGradient></defs><g fill="none" fill-rule="evenodd"><path stroke="#3D76F1" stroke-width="1.5" fill="url(#a)" fill-rule="nonzero" stroke-linecap="round" stroke-linejoin="round" d="M.893 21h37l-2.608-4.257V0H.893z" transform="translate(3.107 1)"/><path d="M29.535 14.437h-2.96v-.246c0-.96.04-1.43.31-2.146.269-.715.87-1.226 1.843-1.635l.766-.327c.476-.184.704-.532.704-1.022 0-.716-.539-1.104-1.367-1.104-.725 0-1.325.552-1.325 1.308h-2.982c0-2.841 1.698-4.395 4.37-4.395 1.304 0 2.36.368 3.167 1.083.808.716 1.201 1.697 1.201 2.903 0 1.942-.994 3.27-2.65 3.864-.828.306-1.077.735-1.077 1.717zm-4.04 2.849c0-1.082.859-1.893 1.921-1.893 1.084 0 1.963.811 1.963 1.893 0 1.102-.88 1.934-1.963 1.934a1.905 1.905 0 0 1-1.92-1.934z" fill="#FFF"/><path d="M8.647 6.953h5.939M8.647 10.824h8.907M8.647 14.696h8.907" stroke="#3D76F1" stroke-width="1.5" stroke-linecap="round" stroke-linejoin="round"/><g stroke-linecap="round" stroke-linejoin="round" stroke-width="1.5"><path d="M38.068 26.429H1l2.613 2.78v10.934h34.455z" fill-rule="nonzero" stroke="#C1D3FA"/><path d="M7.89 30.891h26.12H7.89zM7.89 35.186h12.916H7.889zM25.753 35.186h2.043-2.043z" stroke="#24282F"/></g></g></svg>