<svg width="42" height="41" viewBox="0 0 42 41" xmlns="http://www.w3.org/2000/svg">
  <defs>
    <linearGradient x1="-.0016421%" y1="50.0027523%" x2="100.002844%" y2="50.0027523%" id="linearGradient-2">
      <stop stop-color="#C1D3FA" offset="0%"/>
      <stop stop-color="#6D98F4" offset="100%"/>
    </linearGradient>
  </defs>
  <g fill="none" fill-rule="evenodd">
    <path stroke="#3D76F1" stroke-width="1.5" fill="url(#linearGradient-2)" fill-rule="nonzero" stroke-linecap="round" stroke-linejoin="round" d="M.89320388 21H37.8932039l-2.6083551-4.2567568V0H.89320388z" transform="translate(3.106796 1)"/>
    <path d="M29.5350848 14.4366667h-2.960935v-.2452992c0-.960755.0414117-1.4309117.3105876-2.1463675.2691759-.7154558.8696452-1.22649573 1.8428197-1.63532764l.766116-.32706552c.4762343-.18397436.7039985-.53148148.7039985-1.02207977 0-.71545584-.5383518-1.10384616-1.3665854-1.10384616-.7247043 0-1.3251736.55192308-1.3251736 1.30826211h-2.9816409C24.5242717 6.42356125 26.2221505 4.87 28.8932038 4.87c1.3044678 0 2.3604656.36794872 3.1679933 1.08340456.8075278.71545584 1.2009387 1.69665242 1.2009387 2.90270655 0 1.94195157-.9938803 3.27065529-2.6503474 3.86346149-.8282336.306624-1.0767036.7358975-1.0767036 1.7170941zm-4.0399393 2.8492029c0-1.0814493.8584568-1.8925363 1.9213081-1.8925363 1.0832908 0 1.9621871.811087 1.9621871 1.8925363 0 1.1022463-.8788963 1.9341304-1.9621871 1.9341304-1.0628513 0-1.9213081-.8318841-1.9213081-1.9341304z" fill="#FFF"/>
    <path d="M8.64744382 6.9529478h5.93808948M8.64744382 10.8243708h8.90632458M8.64744382 14.6957938h8.90632458" stroke="#3D76F1" stroke-width="1.5" stroke-linecap="round" stroke-linejoin="round"/>
    <g stroke-linecap="round" stroke-linejoin="round" stroke-width="1.5">
      <path d="M38.06817457 26.4285713H1l2.6131612 2.7799228V40.142857h34.45501337z" fill-rule="nonzero" stroke="#C1D3FA"/>
      <path d="M7.8892318 30.89105648h26.12047697H7.8892318zM7.8892318 35.18629458h12.9165935H7.8892318zM25.7533095 35.18629458h2.042807-2.042807z" stroke="#24282F"/>
    </g>
  </g>
</svg>
