<svg width="40" height="36" viewBox="0 0 40 36" xmlns="http://www.w3.org/2000/svg">
  <defs>
    <linearGradient x1="-.0016421%" y1="50.0027523%" x2="100.002844%" y2="50.0027523%" id="linearGradient-1">
      <stop stop-color="#C1D3FA" offset="0%"/>
      <stop stop-color="#6D98F4" offset="100%"/>
    </linearGradient>
  </defs>
  <g fill="none" fill-rule="evenodd">
    <path d="M1.4953271 32.2886598V3.71134021c0-1.22474227 1.0093458-2.22680413 2.24299066-2.22680413H17.5700935c1.2336448 0 2.2429906 1.00206186 2.2429906 2.22680413 0 2.04123711 1.682243 3.7113402 3.7383178 3.7113402h9.3457944c1.2336448 0 2.2429906 1.00206186 2.2429906 2.22680413v.37113406H9.71962617c-2.05607477 0-3.73831776 1.670103-3.73831776 3.7113402v18.556701c0 1.2247423-1.00934579 2.2268041-2.24299065 2.2268041-1.23364486 0-2.24299066-1.0020618-2.24299066-2.2268041z" fill="url(#linearGradient-1)"/>
    <path d="M36.635514 10.057732v-.40824746c0-2.04123712-1.682243-3.71134021-3.7383177-3.71134021h-9.3457944c-1.2336449 0-2.2429907-1.18762887-2.2429907-2.41237113v.18556701C21.3084112 1.67010309 19.6261682 0 17.5700935 0H3.73831776C1.68224299 0 0 1.67010309 0 3.71134021V32.2886598C0 34.3298969 1.68224299 36 3.73831776 36H36.2616822C38.317757 36 40 34.3298969 40 32.2886598v-18.556701c0-1.9298969-1.4953271-3.4886598-3.364486-3.6742268zM3.73831776 34.5154639c-1.23364486 0-2.24299066-1.0020618-2.24299066-2.2268041V3.71134021c0-1.22474227 1.0093458-2.22680413 2.24299066-2.22680413H17.5700935c1.2336448 0 2.2429906 1.00206186 2.2429906 2.22680413 0 2.04123711 1.682243 3.7113402 3.7383178 3.7113402h9.3457944c1.2336448 0 2.2429906 1.00206186 2.2429906 2.22680413v.37113406H9.71962617c-2.05607477 0-3.73831776 1.670103-3.73831776 3.7113402v18.556701c0 1.2247423-1.00934579 2.2268041-2.24299065 2.2268041zm34.76635514-2.2268041c0 1.2247423-1.0093458 2.2268041-2.2429907 2.2268041H6.72897196c.48598131-.6309278.74766355-1.4103093.74766355-2.2268041v-18.556701c0-1.2247423 1.0093458-2.2268042 2.24299066-2.2268042H36.2616822c1.2336449 0 2.2429907 1.0020619 2.2429907 2.2268042v18.556701z" fill="#3D76F1" fill-rule="nonzero"/>
    <g transform="translate(18.691589 15.216495)" stroke="#24282F" stroke-width="1.4953271">
      <path d="M1.86915888 9.46391753V18.556701" stroke-linecap="square"/>
      <ellipse fill="#FFF" cx="2.05607477" cy="7.2371134" rx="2.05607477" ry="2.04123711"/>
      <ellipse fill="#FFF" cx="9.53271028" cy="2.04123711" rx="2.05607477" ry="2.04123711"/>
      <path d="M1.86915888 16.7010309l7.47663551-6.0528585V3.89690722"/>
    </g>
  </g>
</svg>
