<svg width="40px" height="36px" viewBox="0 0 40 36" version="1.1" xmlns="http://www.w3.org/2000/svg" xmlns:xlink="http://www.w3.org/1999/xlink">
    <defs>
        <linearGradient x1="-0.0016420975%" y1="50.0027523%" x2="100.002844%" y2="50.0027523%" id="linearGradient-1">
            <stop stop-color="#C1D3FA" offset="0%"></stop>
            <stop stop-color="#6D98F4" offset="100%"></stop>
        </linearGradient>
    </defs>
    <g id="Web" stroke="none" stroke-width="1" fill="none" fill-rule="evenodd">
        <g id="Help-Center-Opened" transform="translate(-1060.000000, -556.000000)">
            <g id="1" transform="translate(1060.000000, 549.000000)">
                <g id="icon-document" transform="translate(0.000000, 7.000000)">
                    <g id="icon">
                        <path d="M1.4953271,32.2886598 L1.4953271,3.71134021 C1.4953271,2.48659794 2.5046729,1.48453608 3.73831776,1.48453608 L17.5700935,1.48453608 C18.8037383,1.48453608 19.8130841,2.48659794 19.8130841,3.71134021 C19.8130841,5.75257732 21.4953271,7.42268041 23.5514019,7.42268041 L32.8971963,7.42268041 C34.1308411,7.42268041 35.1401869,8.42474227 35.1401869,9.64948454 L35.1401869,10.0206186 L9.71962617,10.0206186 C7.6635514,10.0206186 5.98130841,11.6907216 5.98130841,13.7319588 L5.98130841,32.2886598 C5.98130841,33.5134021 4.97196262,34.5154639 3.73831776,34.5154639 C2.5046729,34.5154639 1.4953271,33.5134021 1.4953271,32.2886598 Z" id="Path" fill="url(#linearGradient-1)"></path>
                        <path d="M36.635514,10.057732 L36.635514,9.64948454 C36.635514,7.60824742 34.953271,5.93814433 32.8971963,5.93814433 L23.5514019,5.93814433 C22.317757,5.93814433 21.3084112,4.75051546 21.3084112,3.5257732 L21.3084112,3.71134021 C21.3084112,1.67010309 19.6261682,0 17.5700935,0 L3.73831776,0 C1.68224299,0 0,1.67010309 0,3.71134021 L0,32.2886598 C0,34.3298969 1.68224299,36 3.73831776,36 L3.73831776,36 L36.2616822,36 C38.317757,36 40,34.3298969 40,32.2886598 L40,13.7319588 C40,11.8020619 38.5046729,10.243299 36.635514,10.057732 Z M3.73831776,34.5154639 C2.5046729,34.5154639 1.4953271,33.5134021 1.4953271,32.2886598 L1.4953271,3.71134021 C1.4953271,2.48659794 2.5046729,1.48453608 3.73831776,1.48453608 L17.5700935,1.48453608 C18.8037383,1.48453608 19.8130841,2.48659794 19.8130841,3.71134021 C19.8130841,5.75257732 21.4953271,7.42268041 23.5514019,7.42268041 L32.8971963,7.42268041 C34.1308411,7.42268041 35.1401869,8.42474227 35.1401869,9.64948454 L35.1401869,10.0206186 L9.71962617,10.0206186 C7.6635514,10.0206186 5.98130841,11.6907216 5.98130841,13.7319588 L5.98130841,32.2886598 C5.98130841,33.5134021 4.97196262,34.5154639 3.73831776,34.5154639 L3.73831776,34.5154639 Z M38.5046729,32.2886598 C38.5046729,33.5134021 37.4953271,34.5154639 36.2616822,34.5154639 L6.72897196,34.5154639 C7.21495327,33.8845361 7.47663551,33.1051546 7.47663551,32.2886598 L7.47663551,13.7319588 C7.47663551,12.5072165 8.48598131,11.5051546 9.71962617,11.5051546 L36.2616822,11.5051546 C37.4953271,11.5051546 38.5046729,12.5072165 38.5046729,13.7319588 L38.5046729,32.2886598 Z" id="Shape" fill="#3D76F1" fill-rule="nonzero"></path>
                        <g id="branch" transform="translate(18.691589, 15.216495)" stroke="#24282F" stroke-width="1.4953271">
                            <path d="M1.86915888,9.46391753 L1.86915888,18.556701" id="Line" stroke-linecap="square"></path>
                            <ellipse id="Oval" fill="#FFFFFF" cx="2.05607477" cy="7.2371134" rx="2.05607477" ry="2.04123711"></ellipse>
                            <ellipse id="Oval-Copy" fill="#FFFFFF" cx="9.53271028" cy="2.04123711" rx="2.05607477" ry="2.04123711"></ellipse>
                            <polyline id="Path-2" points="1.86915888 16.7010309 9.34579439 10.6481724 9.34579439 3.89690722"></polyline>
                        </g>
                    </g>
                </g>
            </g>
        </g>
    </g>
</svg>