<svg width="12" height="13" viewBox="0 0 12 13" xmlns="http://www.w3.org/2000/svg">
<path class="dropdown-icon" fill="#ffffff" d="M10.3125 6.5H9.9375C9.82031 6.5 9.75 6.59375 9.75 6.6875V11.375C9.75 11.5859 9.5625 11.75 9.375 11.75H1.125C0.914062 11.75 0.75 11.5859 0.75 11.375V3.125C0.75 2.9375 0.914062 2.75 1.125 2.75H5.8125C5.90625 2.75 6 2.67969 6 2.5625V2.1875C6 2.09375 5.90625 2 5.8125 2H1.125C0.492188 2 0 2.51562 0 3.125V11.375C0 12.0078 0.492188 12.5 1.125 12.5H9.375C9.98438 12.5 10.5 12.0078 10.5 11.375V6.6875C10.5 6.59375 10.4062 6.5 10.3125 6.5ZM11.7188 0.5L8.53125 0.523438C8.36719 0.523438 8.25 0.640625 8.25 0.804688V1.03906C8.25 1.17969 8.36719 1.32031 8.53125 1.32031L10.6406 1.29688V1.32031L3.07031 8.89062C3.02344 8.9375 2.97656 9.03125 2.97656 9.10156C2.97656 9.17188 3.02344 9.24219 3.07031 9.28906L3.21094 9.42969C3.25781 9.47656 3.32812 9.52344 3.39844 9.52344C3.46875 9.52344 3.5625 9.47656 3.60938 9.42969L11.1797 1.85938L11.2031 1.88281L11.1797 3.99219C11.1797 4.13281 11.3203 4.27344 11.4609 4.27344H11.6953C11.8594 4.27344 11.9766 4.13281 11.9766 3.99219L12 0.78125C12 0.640625 11.8594 0.5 11.7188 0.5Z" fill="black"/>
</svg>
