<svg fill="none" xmlns="http://www.w3.org/2000/svg" viewBox="0 0 60 60">
  <circle cx="30" cy="30" r="30" fill="#30343D"/>
  <path d="M42.5 38.6c-1 0-2-.1-3.1-.4-.9-.2-1.8-.6-2.7-.9-.5-.2-.9-.4-1.4-.5-.3-.1-.5-.1-.6-.1h-.3c-1.4.4-2.9.7-4.2.7-1.8 0-3.6-.4-5.3-1.2-.1 0-.2-.1-.4-.1-.1 0-.3 0-.4.1-2.6 1.3-5.4 2-8.7 2-.8 0-1.7 0-2.6-.1-.6-.1-1.3-.2-1.9-.3l-.7-.1c-.2 0-.4-.1-.5-.1-.6-.3-1-.9-.8-1.5.1-.6.6-.9 1.1-.9h.3c1.5.3 3.3.6 5.1.6.5 0 .9 0 1.4-.1 1.1-.1 2.2-.3 3.2-.6.4-.1.7-.1 1-.2.2 0 .4-.1.6-.2.1 0 .2-.1.3-.1l.2-.1-.2-.2c-1.2-1.4-1.9-3-2-4.7-.2-2.1.4-4 1.5-5.5.8-1 1.8-1.6 2.9-1.6 1 0 2 .5 2.8 1.5 1.6 1.9 1.9 4.2 1.1 6.8-.3.8-.6 1.5-1.1 2.3-.2.4-.4.7-.6 1.1l-.1.2.2.1c1 .4 2.1.5 3.2.5.7 0 1.5-.1 2.3-.2l.3-.1-.5-.9c-2-3.5-2.2-6.6-.6-9.6.4-.8 1.1-1.7 1.9-2.3 1-.6 1.8-.9 2.6-.9s1.6.3 2.3.8c2.7 1.9 3.7 5.8 2.5 9.2-.5 1.5-1.1 2.4-2.6 3.9l-.2.2.2.1c1.2.6 2.5.9 3.9.9 2.1 0 4.1-.7 5.8-2 .4-.3.8-.4 1.1-.4.6 0 1.2.4 1.3.9.1.4 0 .8-.3 1.1-2.4 2-4.6 2.9-7.3 2.9zm-6.7-14.9c-.5 0-.9.2-1.3.7-.5.5-.8 1.2-1 1.8-.7 2.4-.2 4.8 1.7 7.3l.1.2.2-.2c1.9-1.8 2.9-3.4 3.1-5.4.1-1.4-.3-2.7-1.4-3.8-.4-.4-.9-.6-1.4-.6zm-11.1 1.2c-.5 0-1 .2-1.4.7-.2.2-.5.6-.6 1.1-.5 2.1 0 4.1 1.5 6.1l.1.2.2-.2c1.6-1.7 2.4-4.3 1.9-6.4-.1-.6-.4-1.2-1.1-1.4-.3-.1-.4-.1-.6-.1z" fill="#36F0B0"/>
</svg>
