<svg width="61" height="61" viewBox="0 0 61 61" fill="none" xmlns="http://www.w3.org/2000/svg">
<ellipse cx="30.3603" cy="30.2085" rx="29.7297" ry="30.1158" fill="#EDF8F8"/>
<path d="M43 31C43 37.6274 37.6274 43 31 43M43 31C43 24.3726 37.6274 19 31 19M43 31H19M31 43C24.3726 43 19 37.6274 19 31M31 43C34.0015 39.714 35.7073 35.4496 35.8 31C35.7073 26.5504 34.0015 22.286 31 19M31 43C27.9985 39.714 26.2927 35.4496 26.2 31C26.2927 26.5504 27.9985 22.286 31 19M19 31C19 24.3726 24.3726 19 31 19" stroke="#ED6E84" stroke-width="2" stroke-linecap="round" stroke-linejoin="round"/>
</svg>
