<svg width="68" height="68" viewBox="0 0 68 68" xmlns="http://www.w3.org/2000/svg"><g fill="none" fill-rule="evenodd"><path d="M1.191 0H63a5 5 0 0 1 5 5v63.016L.838.854A.5.5 0 0 1 1.19 0z" fill="#BF9B30"/><path d="M50.298 29.459c1.219-.711 2.234-1.625 2.944-2.843a4.786 4.786 0 0 0 .61-1.523 8.334 8.334 0 0 0 .507-2.842v-2.335h-7.918v2.741h4.467c0 1.421-.406 2.538-1.32 3.35-.914.812-2.132 1.218-3.553 1.218-1.624 0-2.944-.609-3.96-1.827-1.014-1.218-1.522-2.842-1.522-5.076 0-1.523.203-2.74.71-3.756.508-1.015 1.117-1.827 1.93-2.335a5.457 5.457 0 0 1 2.842-.812c1.218 0 2.132.305 2.944.914.812.609 1.32 1.421 1.624 2.436v.102h3.553c-.203-1.219-.71-2.335-1.421-3.35-.71-1.015-1.624-1.828-2.843-2.335a10.217 10.217 0 0 0-3.959-.812c-1.725 0-3.248.406-4.568 1.218-1.32.812-2.335 1.929-3.147 3.451-.812 1.523-1.218 3.249-1.218 5.38 0 2.133.406 3.858 1.117 5.381.71 1.523 1.827 2.64 3.147 3.452.304.203.71.406 1.015.507 1.116.508 2.335.71 3.756.71a9.438 9.438 0 0 0 4.263-1.014z" fill="#FFF" fill-rule="nonzero"/></g></svg>