<svg width="40" height="36" viewBox="0 0 40 36" xmlns="http://www.w3.org/2000/svg"><g fill="none" fill-rule="evenodd"><path d="M1.495 32.289V3.71a2.242 2.242 0 0 1 2.243-2.226H17.57a2.242 2.242 0 0 1 2.243 2.226c0 2.042 1.682 3.712 3.738 3.712h9.346a2.242 2.242 0 0 1 2.243 2.226v.372H9.72c-2.056 0-3.739 1.67-3.739 3.711v18.557a2.242 2.242 0 0 1-2.243 2.226 2.242 2.242 0 0 1-2.243-2.226z" fill="#EDEDED"/><path d="M38.505 32.289a2.242 2.242 0 0 1-2.243 2.226H6.729c.486-.63.748-1.41.748-2.226V13.732a2.242 2.242 0 0 1 2.243-2.227h26.542a2.242 2.242 0 0 1 2.243 2.227v18.557z" fill="#FFF" fill-rule="nonzero"/><path d="M36.636 10.058v-.409c0-2.04-1.683-3.71-3.739-3.71h-9.346c-1.233 0-2.243-1.188-2.243-2.413v.185C21.308 1.671 19.626 0 17.57 0H3.738C1.682 0 0 1.67 0 3.711V32.29C0 34.329 1.682 36 3.738 36h32.524C38.318 36 40 34.33 40 32.289V13.732c0-1.93-1.495-3.489-3.364-3.674zM3.738 34.515a2.242 2.242 0 0 1-2.243-2.226V3.71a2.242 2.242 0 0 1 2.243-2.226H17.57a2.242 2.242 0 0 1 2.243 2.226c0 2.042 1.682 3.712 3.738 3.712h9.346a2.242 2.242 0 0 1 2.243 2.226v.372H9.72c-2.056 0-3.739 1.67-3.739 3.711v18.557a2.242 2.242 0 0 1-2.243 2.226zm34.767-2.226a2.242 2.242 0 0 1-2.243 2.226H6.729c.486-.63.748-1.41.748-2.226V13.732a2.242 2.242 0 0 1 2.243-2.227h26.542a2.242 2.242 0 0 1 2.243 2.227v18.557z" fill="#3D76F1" fill-rule="nonzero"/><g transform="translate(18.692 15.216)" stroke="#3D76F1" stroke-width="1.495"><path d="M1.87 9.464v9.093" stroke-linecap="square"/><ellipse fill="#FFF" cx="2.056" cy="7.237" rx="2.056" ry="2.041"/><ellipse fill="#FFF" cx="9.533" cy="2.041" rx="2.056" ry="2.041"/><path d="M1.87 16.701l7.476-6.053V3.897"/></g></g></svg>