<svg width="61" height="61" viewBox="0 0 61 61" fill="none" xmlns="http://www.w3.org/2000/svg">
<ellipse cx="30.3603" cy="30.2085" rx="29.7297" ry="30.1158" fill="#F4EFFD"/>
<path d="M40.5556 41V38.5556C40.5556 37.2589 40.0405 36.0154 39.1236 35.0986C38.2068 34.1817 36.9633 33.6667 35.6667 33.6667H25.8889C24.5923 33.6667 23.3488 34.1817 22.4319 35.0986C21.5151 36.0154 21 37.2589 21 38.5556V41M35.6667 23.8889C35.6667 26.5889 33.4778 28.7778 30.7778 28.7778C28.0777 28.7778 25.8889 26.5889 25.8889 23.8889C25.8889 21.1888 28.0777 19 30.7778 19C33.4778 19 35.6667 21.1888 35.6667 23.8889Z" stroke="#3C76F0" stroke-width="2" stroke-linecap="round" stroke-linejoin="round"/>
</svg>
