<svg width="30" height="30" xmlns="http://www.w3.org/2000/svg"><g fill="#FFF" fill-rule="evenodd"><path d="M16.7 7.121a5.465 5.465 0 0 0-6.955 3.336 1.364 1.364 0 0 0 2.573.905 2.732 2.732 0 0 1 3.479-1.668 2.73 2.73 0 0 1 1.821 2.579c0 1.41-2.341 2.52-3.16 2.797a1.364 1.364 0 0 0 .864 2.587c.514-.17 5.024-1.779 5.024-5.383A5.458 5.458 0 0 0 16.7 7.121"/><path d="M15 27.273C8.234 27.273 2.727 21.768 2.727 15 2.727 8.234 8.234 2.727 15 2.727c6.768 0 12.273 5.507 12.273 12.273 0 6.768-5.505 12.273-12.273 12.273M15 0C6.73 0 0 6.73 0 15s6.73 15 15 15 15-6.73 15-15S23.27 0 15 0"/><path d="M15 20.441a1.377 1.377 0 1 0 0 2.754 1.377 1.377 0 0 0 0-2.754"/></g></svg>