<svg width="50" height="48" viewBox="0 0 50 48" xmlns="http://www.w3.org/2000/svg" xmlns:xlink="http://www.w3.org/1999/xlink"><defs><path id="a" d="M.427.996h8.624v8.625H.427z"/><path d="M.339 7.871c0 4.08 3.32 7.399 7.4 7.399s7.4-3.319 7.4-7.399-3.32-7.399-7.4-7.399-7.4 3.319-7.4 7.399" id="linearGradient-6"/><linearGradient x1=".002%" y1="49.999%" x2="99.999%" y2="49.999%" id="d"><stop stop-color="#ACCAED" offset="0%"/><stop stop-color="#E6EFFD" offset="100%"/></linearGradient><path d="M.238 11.873l18.994-.047C18.13 5.502 14.298.835 9.739.835 5.17.835 1.33 5.525.238 11.873" id="f"/><linearGradient x1="-.002%" y1="50.003%" x2="100.003%" y2="50.003%" id="g"><stop stop-color="#C1D3FA" offset="0%"/><stop stop-color="#6D98F4" offset="100%"/></linearGradient></defs><g fill="none" fill-rule="evenodd"><path d="M42.263 13.54A3.567 3.567 0 0 1 38.7 9.977a3.567 3.567 0 0 1 3.563-3.562 3.567 3.567 0 0 1 3.563 3.562 3.567 3.567 0 0 1-3.563 3.563" fill="#FFF"/><path d="M42.263 5.666a4.313 4.313 0 1 0 .002 8.624 4.313 4.313 0 0 0-.002-8.624m0 1.5a2.816 2.816 0 0 1 2.813 2.812 2.816 2.816 0 0 1-2.813 2.813 2.816 2.816 0 0 1-2.813-2.813 2.816 2.816 0 0 1 2.813-2.812" fill="#3D76F1"/><path d="M24.74 7.875a3.567 3.567 0 0 1-3.564-3.563A3.567 3.567 0 0 1 24.74.75a3.567 3.567 0 0 1 3.563 3.562 3.567 3.567 0 0 1-3.563 3.563" fill="#FFF"/><g transform="translate(20 -.996)"><mask id="b" fill="#fff"><use xlink:href="#a"/></mask><path d="M4.74.996a4.312 4.312 0 1 0 0 8.624 4.312 4.312 0 0 0 0-8.624m0 1.5a2.816 2.816 0 0 1 2.812 2.812A2.816 2.816 0 0 1 4.74 8.12a2.816 2.816 0 0 1-2.813-2.813A2.816 2.816 0 0 1 4.74 2.496" fill="#3D76F1" mask="url(#b)"/></g><path d="M7.216 13.54a3.567 3.567 0 0 1-3.563-3.563 3.567 3.567 0 0 1 3.563-3.562 3.567 3.567 0 0 1 3.563 3.562 3.567 3.567 0 0 1-3.563 3.563" fill="#FFF"/><path d="M7.216 5.666a4.313 4.313 0 1 0 .002 8.624 4.313 4.313 0 0 0-.002-8.624m0 1.5a2.816 2.816 0 0 1 2.813 2.812 2.816 2.816 0 0 1-2.813 2.813 2.816 2.816 0 0 1-2.813-2.813 2.816 2.816 0 0 1 2.813-2.812" fill="#3D76F1"/><g transform="translate(17 19.004)"><mask id="e" fill="#fff"><use xlink:href="#linearGradient-6"/></mask><path d="M.339 7.871c0 4.08 3.32 7.399 7.4 7.399s7.4-3.319 7.4-7.399-3.32-7.399-7.4-7.399-7.4 3.319-7.4 7.399" fill="url(#d)" mask="url(#e)"/></g><path d="M24.74 18.725a8.151 8.151 0 1 0 .002 16.3 8.151 8.151 0 0 0-.003-16.3m0 1.5a6.657 6.657 0 0 1 6.65 6.65 6.658 6.658 0 0 1-6.65 6.65 6.658 6.658 0 0 1-6.65-6.65 6.657 6.657 0 0 1 6.65-6.65" fill="#3C76F0"/><g transform="translate(15 36.004)"><mask id="h" fill="#fff"><use xlink:href="#f"/></mask><path d="M.238 11.873l18.994-.047C18.13 5.502 14.298.835 9.739.835 5.17.835 1.33 5.525.238 11.873" fill="url(#g)" mask="url(#h)"/></g><g><path d="M15.238 47.877c1.092-6.348 4.932-11.037 9.5-11.037 4.56 0 8.392 4.666 9.495 10.99" stroke="#3C76F0" stroke-width="1.5"/><path d="M7.405 33.76a4.973 4.973 0 0 1-4.967-4.967 4.973 4.973 0 0 1 4.967-4.967 4.973 4.973 0 0 1 4.967 4.967 4.973 4.973 0 0 1-4.967 4.968" fill="#FFF"/><path d="M7.405 23.076a5.717 5.717 0 1 0 0 11.434 5.717 5.717 0 0 0 0-11.434m0 1.5a4.222 4.222 0 0 1 4.217 4.217 4.222 4.222 0 0 1-4.217 4.217 4.222 4.222 0 0 1-4.217-4.217 4.222 4.222 0 0 1 4.217-4.217" fill="#24282F"/><path d="M.74 43.526c.765-4.453 3.46-7.743 6.665-7.743 3.197 0 5.886 3.273 6.66 7.711" fill="#FFF"/><path d="M.74 43.526c.765-4.453 3.46-7.743 6.665-7.743 3.197 0 5.886 3.273 6.66 7.711" stroke="#24282F" stroke-width="1.5"/><path d="M42.072 33.76a4.973 4.973 0 0 1-4.967-4.967 4.973 4.973 0 0 1 4.967-4.967 4.973 4.973 0 0 1 4.967 4.967 4.973 4.973 0 0 1-4.967 4.968" fill="#FFF"/><path d="M42.072 23.076a5.718 5.718 0 1 0 .001 11.435 5.718 5.718 0 0 0 0-11.435m0 1.5a4.222 4.222 0 0 1 4.216 4.217 4.222 4.222 0 0 1-4.217 4.217 4.222 4.222 0 0 1-4.217-4.217 4.222 4.222 0 0 1 4.217-4.217" fill="#24282F"/><path d="M35.407 43.526c.766-4.453 3.46-7.743 6.666-7.743 3.197 0 5.886 3.273 6.659 7.711" fill="#FFF"/><path d="M35.407 43.526c.766-4.453 3.46-7.743 6.666-7.743 3.197 0 5.886 3.273 6.659 7.711" stroke="#24282F" stroke-width="1.5"/><path d="M38.74 16.042l-4.5 4.5" fill="#FFF"/><path d="M38.74 16.042l-4.5 4.5" stroke="#C1D3FA" stroke-width="1.5" stroke-linecap="round" stroke-linejoin="round"/><g><path d="M10.572 16.042l4.5 4.5" fill="#FFF"/><path d="M10.572 16.042l4.5 4.5" stroke="#C1D3FA" stroke-width="1.5" stroke-linecap="round" stroke-linejoin="round"/></g><g><path d="M24.74 11.625v2.085" fill="#FFF"/><path d="M24.74 11.625v2.085" stroke="#C1D3FA" stroke-width="1.5" stroke-linecap="round" stroke-linejoin="round"/></g></g></g></svg>