<svg width="45" height="45" viewBox="0 0 45 45" fill="none" xmlns="http://www.w3.org/2000/svg">
<circle cx="22.5" cy="22.5" r="22.5" fill="#E9F0FF"/>
<path fill-rule="evenodd" clip-rule="evenodd" d="M17 19C17 15.7 19.7 13 23 13C26.3 13 29 15.7 29 19C29 21.4 27.6 23.5 25.6 24.4L25 24.7V27H21V24.7L20.4 24.4C18.4 23.5 17 21.4 17 19ZM23 11C18.6 11 15 14.6 15 19C15 22 16.6 24.5 19 25.9V27C19 28.1 19.9 29 21 29H25C26.1 29 27 28.1 27 27V25.9C29.4 24.5 31 21.9 31 19C31 14.6 27.4 11 23 11ZM26 31V30H20V31C20 32.1 20.9 33 22 33H24C25.1 33 26 32.1 26 31Z" fill="#3C76F0"/>
</svg>
