<svg fill="none" xmlns="http://www.w3.org/2000/svg" viewBox="0 0 60 60" width="60" height="60">
  <circle cx="30" cy="30" r="30" fill="#FFF0E1"/>
  <path d="M36.67 27.2l-12-6.92m-5.64 3.66l11.64 6.74 11.64-6.74M30.67 44.1V30.66m12 5.34V25.33a2.67 2.67 0 00-1.34-2.3L32 17.68a2.67 2.67 0 00-2.67 0L20 23.02a2.67 2.67 0 00-1.33 2.31V36A2.67 2.67 0 0020 38.3l9.33 5.34a2.67 2.67 0 002.67 0l9.33-5.34a2.67 2.67 0 001.34-2.3z" stroke="#E69138" stroke-width="2" stroke-linecap="round" stroke-linejoin="round"/>
</svg>
