<svg fill="none" xmlns="http://www.w3.org/2000/svg" viewBox="0 0 60 60">
  <circle cx="30" cy="30" r="30" fill="#30343D"/>
  <path d="M36 26.864l-12-6.92m-5.64 3.667L30 30.344l11.64-6.733M30 43.77V30.33m12 5.333V24.997a2.667 2.667 0 00-1.333-2.306l-9.334-5.334a2.666 2.666 0 00-2.666 0l-9.334 5.334A2.668 2.668 0 0018 24.997v10.667a2.667 2.667 0 001.333 2.307l9.334 5.333a2.666 2.666 0 002.666 0l9.334-5.333A2.667 2.667 0 0042 35.664z" stroke="#FFCE57" stroke-width="2" stroke-linecap="round" stroke-linejoin="round"/>
</svg>
