<svg width="36" height="43" viewBox="0 0 36 43" xmlns="http://www.w3.org/2000/svg"><g fill="none" fill-rule="evenodd"><rect stroke="#3D76F1" stroke-width="1.75" fill="#FFF" x=".875" y="1.09375" width="34.25" height="27.125" rx="1.3125"/><ellipse fill="#3D76F1" cx="4.66666667" cy="4.375" rx="1" ry="1"/><ellipse fill="#3D76F1" cx="6.88888889" cy="4.375" rx="1" ry="1"/><ellipse fill="#3D76F1" cx="9.11111111" cy="4.375" rx="1" ry="1"/><path d="M27.3256709 23.74375h2.4137931" stroke="#3D76F1" stroke-width="1.96875" stroke-linecap="square"/><path d="M9.20000818 19.0771343h5.79310342" stroke="#C1D3FA" stroke-width="1.96875" stroke-linecap="square"/><path d="M6.30345646 23.74375h6.55747126" stroke="#3D76F1" stroke-width="1.96875" stroke-linecap="square"/><path d="M25.4605446 19.0771343h5.7931034M21.0390886 14.40213435h7.724138M16.2222227 23.74375h7.7241379" stroke="#C1D3FA" stroke-width="1.96875" stroke-linecap="square"/><path d="M21.8379392 9.72713435h4.6264368M11.98161738 14.40213435h4.42528732M19.2613109 19.0771343h2.4137931M30.9136097 9.72713435h.9051724" stroke="#3D76F1" stroke-width="1.96875" stroke-linecap="square"/><path d="M10.53334152 9.72713435h7.24137928" stroke="#C1D3FA" stroke-width="1.96875" stroke-linecap="square"/><path stroke="#3D76F1" stroke-width=".65625" fill="#3D76F1" fill-rule="nonzero" d="M7.63678979 8.18077608L4.42318724 9.5347131v.02992126L7.6367898 10.9410123v.52362205L3.77472083 9.78530364v-.43759843l3.86206896-1.68307086z"/><path d="M17.5069286 36.1673209c.7523705 0 1.5051715.0086549 2.2575421-.002885.6030155-.0094793 1.0868052-.2200831 1.0790577-.8803322-.0081779-.6458242-.4502172-.9001149-1.0807794-.8584887-2.1245429.1413642-3.9955697-.4550032-5.7473706-1.6077602-1.539605-1.0130415-3.3193831-1.1836677-5.15038099-.9817188-.67489532.0741853-1.3562469.0914952-2.03415514.1393035-.37274193.026377-.62066266-.046984-.6073197-.4892108.01033003-.349083.057676-.5736996.50358898-.6165622 3.05811939-.2942684 6.08524865-.5044601 8.74953565 1.4449647 1.1311384.8275782 2.486094.9969679 3.8716093.9705909.686947-.0131885 1.3773374-.0267891 1.9373111.436869.3787678.3140511.749788.1112779 1.1104783.0152492 1.067006-.2839648 2.12153-.6087316 3.188536-.8918721 1.2606941-.3338339 2.2110569.0053578 2.6595524.9170127.4519388.9190733.1342904 1.8636994-.9038777 2.5598048-2.2566812 1.5142043-4.5168057 3.0242872-6.7911341 4.5145874-1.7806389 1.1667698-3.6598436 1.2549679-5.5863943.3474345-1.7302801-.8156262-3.4454955-1.6601021-5.17663642-2.4728432-.96069282-.4508818-1.91837272-.944214-3.03401599-.9211341-.4536605.0098914-.51951444-.2130767-.52941406-.5749361-.01119086-.4212076.19153598-.5036357.58407713-.5205335.88623052-.0379169 1.70144208.1772205 2.48351146.542377 2.05438478.959051 4.11694748 1.9040892 6.15497638 2.8944629 1.5964201.7756485 3.0843749.6701405 4.5409092-.3095175 2.1667238-1.4577411 4.3437777-2.9018815 6.5225533-4.3427248.4583951-.3025111.975327-.6000766.642614-1.2166388-.3159268-.586476-.8621271-.4471725-1.4100492-.2678914-.6408923.2093674-1.302875.3614473-1.9605536.5230063-.9236769.2270895-1.751801.4080192-1.9545279 1.6015782-.1394554.8246932-1.0424722 1.1721276-1.9338677 1.1828433-1.5408962.0189585-3.0826532-.0053578-4.6235494.0111278-.4682947.0053578-.7321409-.0783067-.7209501-.6140894.0107605-.5139393.3137747-.5320734.7007204-.5291885.752801.00577 1.5056019.0016486 2.2584029.0016486v-.0045335z" stroke="#3D76F1" stroke-width=".51219512" fill="#3D76F1"/></g></svg>