<svg width="61" height="61" viewBox="0 0 61 61" fill="none" xmlns="http://www.w3.org/2000/svg">
<ellipse cx="30.3603" cy="30.2085" rx="29.7297" ry="30.1158" fill="#F4EFFD"/>
<path d="M41.0579 35.6719C40.2943 37.4777 39.1 39.0689 37.5793 40.3065C36.0587 41.5441 34.258 42.3904 32.3348 42.7713C30.4115 43.1522 28.4242 43.0562 26.5467 42.4916C24.6691 41.9271 22.9584 40.9112 21.5641 39.5328C20.1699 38.1544 19.1345 36.4554 18.5486 34.5844C17.9626 32.7134 17.8439 30.7273 18.2028 28.7998C18.5618 26.8724 19.3874 25.0622 20.6075 23.5275C21.8277 21.9928 23.4052 20.7804 25.2022 19.9962M42.0061 31.0028C42.0061 29.4266 41.6956 27.8658 41.0924 26.4095C40.4892 24.9533 39.6051 23.6301 38.4906 22.5155C37.376 21.401 36.0528 20.5169 34.5966 19.9137C33.1403 19.3105 31.5795 19 30.0033 19V31.0028H42.0061Z" stroke="#3C76F0" stroke-width="2" stroke-linecap="round" stroke-linejoin="round"/>
</svg>
