<svg width="58" height="42" viewBox="0 0 58 42" xmlns="http://www.w3.org/2000/svg"><g transform="translate(2)" fill="none" fill-rule="evenodd"><path d="M25.108624 26.3631962v8.6115447c.0004288.6429404.3497597 1.2344457.9129756 1.5452002l16.6435855-10.1567449-7.9355998-4.8104806c-.5267825-.2807506-1.1585788-.2807506-1.6853613 0l-7.9356 4.8104806z" fill="#C1D3FA" fill-rule="nonzero"/><path d="M25.108624 26.3631962v8.6115447c.0004288.6429404.3497597 1.2344457.9129756 1.5452002l7.0226244 4.3098443c.5263539.2820365 1.1590074.2820365 1.6853613 0-.2105988-6.5436722-.4914924-9.7219248-.8426807-9.5347578l-8.7782806-4.9318314z" fill="#EDEDED" fill-rule="nonzero"/><path d="M15.6661128 1.09128424c-.5267825-.2807506-1.1585787-.2807506-1.6853612 0V20.3683541c.5263539.2820365 1.1590073.2820365 1.6853612 0l7.0226245-4.3098443c.5627872-.3107546.9125468-.9022598.9129754-1.5452003V5.90176486l-7.9355999-4.81048062z" fill="#C1D3FA" fill-rule="nonzero"/><path d="M15.6661128 1.09128424c-.5267825-.2807506-1.1585787-.2807506-1.6853612 0l-7.9356 4.81048062 8.7780662 4.91903374c.0002858.428627 2.9264508-1.21105092 8.7784949-4.91903374l-7.9355999-4.81048062z" fill="#EDEDED" fill-rule="nonzero"/><path d="M24.056486 5.15123899L16.0848814.32318469c-.7856733-.43077009-1.7372252-.43077009-2.5228984 0l-.0342901.0192883-7.9373145 4.808766c-.26274831.15902063-.42305485.44362895-.42305485.75052587V14.515024c-.00428622.9489802.50663714 1.825951 1.33431587 2.290154l7.06034358 4.3312756c.3827639.2108845.8126768.3210416 1.2498763.3214703.4590595-.0021432.9095464-.1204443 1.3107412-.3433303l6.9849053-4.287127c.8456811-.4616312 1.3720349-1.3484605 1.3720349-2.3124426V5.90176486c0-.30689692-.160735-.59150524-.4230547-.75052587zm-9.6385349-3.29442691c.2451746-.13330302.5404986-.13801795.7899595-.01243016l6.6994397 4.05738294-6.6642923 4.03809485c-.2481751.14058969-.5503571.14787629-.8049614.01928819L7.73908542 5.90176486l6.67886568-4.04495278zM7.38032467 15.2874098c-.28246521-.153877-.45820222-.4504869-.45734502-.7723858l-.00000312-7.05520005L13.561983 11.480345c.1234446.0608651.2520327.111443.3836211.1521626v7.6809955l-6.56527943-4.0260933zm14.84763853.0231459l-6.526703 4.0038046v-7.6874248c.1435901-.04372.2833225-.0990129.4179113-.1658787l6.6047131-4.00123285V14.515024c-.0042862.3364722-.1954539.6425119-.4959214.7938172v.0017145zM43.1199584 25.6126703l-7.9716046-4.8280543c-.7856732-.4307701-1.7372251-.4307701-2.5228983 0l-.0342902.0192883-7.9373145 4.808766c-.2627483.1590207-.4230548.443629-.4230548.7505259v8.6132592c-.0042862.9489802.5066371 1.8259509 1.3343159 2.290154l7.0603436 4.3312756c.3827638.2108844.8126767.3210415 1.2498762.3214702.4590596-.0021432.9095464-.1204442 1.3107413-.3433302l6.9849052-4.287127c.8456812-.4616313 1.372035-1.3484606 1.372035-2.3124426v-8.6132592c0-.3068969-.1607351-.5915052-.4230548-.7505259zm-9.6385349-3.2944269c.2451747-.133303.5404986-.1380179.7899596-.0124301l6.6994396 4.0573829-6.6642923 4.0380949c-.2486036.1401609-.550357.1470189-.8049614.0192881l-6.6990111-4.057383 6.6788656-4.0449528zm-7.0376264 13.4305977c-.2824652-.153877-.4582022-.4504868-.457345-.7723857l-.0000031-7.0552001 6.6390065 4.0205211c.1234445.060865.2520326.111443.383621.1521626v7.6809954l-6.5652794-4.0260933zm14.8476386.023146l-6.5267031 4.0038045v-7.6874248c.1435901-.04372.2833226-.0990128.4179114-.1658786l6.6047131-4.0012329v7.0552001c-.0042862.3364721-.1954539.6425118-.4959214.7938171v.0017146zM27.3438914 20.4027149c0-1.4543313-1.1791527-2.6334841-2.6334842-2.6334841-1.4543313 0-2.6334841 1.1791528-2.6334841 2.6334841s1.1791528 2.6334842 2.6334841 2.6334842c1.4543315 0 2.6334842-1.1791529 2.6334842-2.6334842zm-3.5113122 0c0-.484777.393051-.877828.877828-.877828.4847772 0 .8778281.393051.8778281.877828 0 .4847772-.3930509.8778281-.8778281.8778281-.484777 0-.877828-.3930509-.877828-.8778281z" fill="#3D76F1" fill-rule="nonzero"/><path d="M22.1854231 33.8761135L.26923077 19.1506336M49.1085 22.5684212L27.1923077 7.84294133" stroke="#C1D3FA" stroke-width="4" stroke-linecap="round" stroke-linejoin="round"/><circle fill="#C1D3FA" cx="54.5192308" cy="27.0576923" r="1.21153846"/></g></svg>