<svg width="42" height="52" viewBox="0 0 42 52" xmlns="http://www.w3.org/2000/svg">
  <defs>
    <linearGradient x1="-.0016421%" y1="50.0027523%" x2="100.002844%" y2="50.0027523%" id="linearGradient-4">
      <stop stop-color="#C1D3FA" offset="0%"/>
      <stop stop-color="#6D98F4" offset="100%"/>
    </linearGradient>
  </defs>
  <g fill="none" fill-rule="evenodd">
    <g transform="translate(1)">
      <path d="M25.1431891 21.2278646H14.5140547L10.1237895 9.08760629c-.73960424-3.27697796-.0289684-6.55262489 4.3902652-8.0939492C16.2816016.3912672 18.1351623.08860661 20 .09787878c1.8665997-.0098587 3.7219831.2928096 5.4912.8957783 4.4192337 1.54132431 5.1298695 4.81697124 4.3902653 8.0939492L25.1431891 21.2278646z" fill="url(#linearGradient-4)" fill-rule="nonzero"/>
      <path d="M39.7052632 50.4198106H.29473684V36.4654128c.00016613-3.3459548 2.33065473-6.2269104 5.56870737-6.8840496l2.64444632-.5324091 4.37456837-.8864611c4.6986727-.9503662 9.5364095-.9503662 14.2350822 0l4.7529094.9623294 2.2661053.4592029c3.2370845.6569423 5.5672895 3.5364335 5.5687074 6.8813875v13.9543978z" stroke="#3D76F1" stroke-width="1.5" fill="#C1D3FA" fill-rule="nonzero"/>
      <ellipse stroke="#3D76F1" stroke-width="1.5" fill="#FFF" fill-rule="nonzero" cx="28.5389474" cy="15.4046402" rx="1.97052632" ry="1.99653409"/>
      <ellipse stroke="#3D76F1" stroke-width="1.5" fill="#FFF" fill-rule="nonzero" cx="11.4610526" cy="15.4046402" rx="1.97052632" ry="1.99653409"/>
      <path d="M23.9410526 27.6673525v-4.9420873h-7.8821052v4.9420873c0 2.7235083 1.3136842 4.0852624 3.9410526 4.0852624s3.9410526-1.3617541 3.9410526-4.0852624z" stroke="#3D76F1" stroke-width="1.5" fill="#FFF" fill-rule="nonzero"/>
      <path d="M27.8821053 9.41503788v7.98613632c0 2.1180551-.8304337 4.1493601-2.3086152 5.6470512C24.0953086 24.5459165 22.0904643 25.3873106 20 25.3873106c-4.3531665 0-7.8821053-3.575515-7.8821053-7.9861364V9.41503788" stroke="#3D76F1" stroke-width="1.57894737" fill="#FFF" fill-rule="nonzero"/>
      <path d="M29.1957895 9.41503788s-6.5684211 0-9.1957895-2.66204546c-2.6273684 2.66204546-9.1957895 2.66204546-9.1957895 2.66204546" stroke="#3D76F1" stroke-width="1.5" fill="#FFF" fill-rule="nonzero" stroke-linecap="round" stroke-linejoin="round"/>
      <ellipse fill="#3D76F1" fill-rule="nonzero" cx="23.1578947" cy="13.8125" rx="1.05263158" ry="1.0625"/>
      <ellipse fill="#3D76F1" fill-rule="nonzero" cx="16.8421053" cy="13.8125" rx="1.05263158" ry="1.0625"/>
      <path d="M9.87024905 49.7112261v-3.1811443M30.0807754 49.7112261v-3.1811443" stroke="#3D76F1" stroke-width="1.5" stroke-linecap="square"/>
      <path d="M22.6273684 18.732197c0 1.4702071-1.1763129 2.6620454-2.6273684 2.6620454-1.4510555 0-2.6273684-1.1918383-2.6273684-2.6620454" stroke="#3D76F1" stroke-width="1.57894737" fill="#FFF" fill-rule="nonzero"/>
    </g>
    <g fill="#24282F" fill-rule="nonzero">
      <path d="M15.42202343 41.18854241l2.91711981-2.43651667c.29123454-.24365167.29123454-.63813532 0-.88178699-.29166858-.24365167-.7638939-.24365167-1.05556248 0l-3.4331822 2.86798317c-.14930654.12400129-.22135562.28752347-.21875144.44959533-.00260418.16243445.0694449.32486889.21875143.44923277l3.43318221 2.86798316c.29080052.24328909.7638939.24328909 1.05556248 0 .2921026-.24365166.29123454-.63813532 0-.88178698l-2.91711981-2.43470379zM27.09699 40.73778743l-3.4328804-2.8675747c-.29164293-.24361697-.76382673-.24361697-1.05590366 0-.29164294.24289191-.29164294.63804443 0 .88093635l2.91642936 2.43580713-2.91642936 2.43653219c-.29164294.24325444-.29164294.63768191 0 .88129888.29077495.24361696.76339274.24361696 1.05590366 0l3.4328804-2.86757471c.1484254-.12398364.2213361-.28675747.2187322-.44953131.001302-.16313636-.0716088-.32591019-.2187322-.44989383zM20.57469418 45.11035057c-.06628776.37519593-.44625866.62960962-.84990376.56793357-.40285597-.06167604-.6758984-.4163133-.60961064-.790775l1.25788914-7.12358314c.06628775-.37482882.4470478-.62887538.84950919-.56719934.40285596.06167605.6758984.41521194.60961064.790775l-1.25749457 7.12284891z"/>
    </g>
  </g>
</svg>
