<svg width="37px" height="45px" viewBox="0 0 37 45" version="1.1" xmlns="http://www.w3.org/2000/svg" xmlns:xlink="http://www.w3.org/1999/xlink">
    <defs>
        <linearGradient x1="-0.0016420975%" y1="50.0027523%" x2="100.002844%" y2="50.0027523%" id="linearGradient-1">
            <stop stop-color="#C1D3FA" offset="0%"></stop>
            <stop stop-color="#6D98F4" offset="100%"></stop>
        </linearGradient>
    </defs>
    <g id="Web" stroke="none" stroke-width="1" fill="none" fill-rule="evenodd">
        <g id="Help-Center-Opened" transform="translate(-1059.000000, -849.000000)">
            <g id="Group-3" transform="translate(1060.000000, 839.000000)">
                <g id="ico-expert" transform="translate(0.000000, 10.000000)">
                    <g id="Contact_us_Solidus_Rails-4">
                        <g id="avatar">
                            <path d="M22.0002905,18.3142361 L12.6997979,18.3142361 L8.85831581,7.84028778 C8.2111621,5.01309111 8.83296846,2.18704278 12.6997979,0.857272777 C14.2464014,0.337563871 15.868267,0.0764449246 17.5,0.0844444445 C19.1332747,0.0759389056 20.7567352,0.337064498 22.3048,0.857272777 C26.1716295,2.18704278 26.7934358,5.01309111 26.1462821,7.84028778 L22.0002905,18.3142361 Z" id="Path" fill="url(#linearGradient-1)" fill-rule="nonzero"></path>
                            <path d="M34.7421053,43.4994444 L0.257894737,43.4994444 L0.257894737,31.4603561 C0.258040101,28.57365 2.29721762,26.0881197 5.13051368,25.5211761 L7.44440421,25.0618428 L11.2721515,24.2970528 C15.3834901,23.477129 19.6165098,23.477129 23.7278485,24.2970528 L27.8866442,25.1272978 L29.8694863,25.5234728 C32.7019353,26.0902466 34.7408646,28.5745135 34.7421053,31.4603561 L34.7421053,43.4994444 Z" id="Path" stroke="#3D76F1" stroke-width="1.5" fill="#C1D3FA" fill-rule="nonzero"></path>
                            <ellipse id="Oval" stroke="#3D76F1" stroke-width="1.5" fill="#FFFFFF" fill-rule="nonzero" cx="24.971579" cy="13.2902778" rx="1.72421053" ry="1.7225"></ellipse>
                            <ellipse id="Oval" stroke="#3D76F1" stroke-width="1.5" fill="#FFFFFF" fill-rule="nonzero" cx="10.028421" cy="13.2902778" rx="1.72421053" ry="1.7225"></ellipse>
                            <path d="M20.948421,23.8698727 L20.948421,19.6061112 L14.051579,19.6061112 L14.051579,23.8698727 C14.051579,26.2195662 15.2010526,27.3944129 17.5,27.3944129 C19.7989473,27.3944129 20.948421,26.2195662 20.948421,23.8698727 Z" id="Path" stroke="#3D76F1" stroke-width="1.5" fill="#FFFFFF" fill-rule="nonzero"></path>
                            <path d="M24.3968421,8.12277778 L24.3968421,15.0127777 C24.3968421,16.8401194 23.6702126,18.5926178 22.3768038,19.8847435 C21.083395,21.1768691 19.3291563,21.9027778 17.5,21.9027778 C13.6909793,21.9027778 10.6031579,18.8180197 10.6031579,15.0127777 L10.6031579,8.12277778" id="Path" stroke="#3D76F1" stroke-width="1.57894737" fill="#FFFFFF" fill-rule="nonzero"></path>
                            <path d="M25.5463158,8.12277778 C25.5463158,8.12277778 19.7989474,8.12277778 17.5,5.82611111 C15.2010527,8.12277778 9.45368419,8.12277778 9.45368419,8.12277778" id="Path" stroke="#3D76F1" stroke-width="1.5" fill="#FFFFFF" fill-rule="nonzero" stroke-linecap="round" stroke-linejoin="round"></path>
                            <ellipse id="Oval" fill="#3D76F1" fill-rule="nonzero" cx="20.2631579" cy="11.9166667" rx="1" ry="1"></ellipse>
                            <ellipse id="Oval" fill="#3D76F1" fill-rule="nonzero" cx="14.7368421" cy="11.9166667" rx="1" ry="1"></ellipse>
                            <path d="M8.63646792,42.8881166 L8.63646792,40.1436" id="Line-3" stroke="#3D76F1" stroke-width="1.5" stroke-linecap="square"></path>
                            <path d="M26.3206785,42.8881166 L26.3206785,40.1436" id="Line-3" stroke="#3D76F1" stroke-width="1.5" stroke-linecap="square"></path>
                            <path d="M19.7989474,16.1611111 C19.7989474,17.4295251 18.7696736,18.4577778 17.5,18.4577778 C16.2303264,18.4577778 15.2010526,17.4295251 15.2010526,16.1611111" id="Path" stroke="#3D76F1" stroke-width="1.57894737" fill="#FFFFFF" fill-rule="nonzero"></path>
                        </g>
                        <g id="code" transform="translate(11.052632, 32.083333)" fill="#24282F" fill-rule="nonzero">
                            <path d="M1.56663888,3.45187973 L4.11911871,1.34978691 C4.37394893,1.13957763 4.37394893,0.799238792 4.11911871,0.58902951 C3.8639087,0.378820228 3.45071155,0.378820228 3.19550154,0.58902951 L0.191467108,3.06336793 C0.060823891,3.17034944 -0.00221905672,3.3114274 5.96040392e-05,3.4512541 C-0.00221905672,3.59139362 0.060823891,3.73153314 0.191467108,3.83882747 L3.19550154,6.31316588 C3.449952,6.52306235 3.8639087,6.52306235 4.11911871,6.31316588 C4.37470849,6.10295661 4.37394893,5.76261776 4.11911871,5.55240849 L1.56663888,3.45187973 Z" id="Path"></path>
                            <path d="M11.7822346,3.06299308 L8.77846428,0.589007057 C8.52327671,0.378827713 8.11011589,0.378827713 7.85454857,0.589007057 C7.599361,0.798560866 7.599361,1.13947677 7.85454857,1.34903058 L10.4064243,3.45051124 L7.85454857,5.55261744 C7.599361,5.76248402 7.599361,6.10277439 7.85454857,6.31295373 C8.10897665,6.52313307 8.52251722,6.52313307 8.77846428,6.31295373 L11.7822346,3.83896771 C11.9121069,3.73200143 11.9759037,3.59156911 11.9736253,3.45113677 C11.9747646,3.31039168 11.9109676,3.16995935 11.7822346,3.06299308 Z" id="Path"></path>
                            <path d="M6.07522578,6.83540049 C6.01722399,7.15909894 5.68474946,7.37859311 5.33155999,7.3253824 C4.97906102,7.27217169 4.74014889,6.96621014 4.79815068,6.64314514 L5.89880368,0.497308705 C5.95680546,0.17392698 6.28997051,-0.0452504484 6.64212422,0.00796025667 C6.99462319,0.0611709618 7.23353532,0.366182325 7.17553353,0.690197511 L6.07522578,6.83540049 Z" id="Path"></path>
                        </g>
                    </g>
                </g>
            </g>
        </g>
    </g>
</svg>