<?xml version="1.0" encoding="utf-8"?>
<!-- Generator: Adobe Illustrator 22.1.0, SVG Export Plug-In . SVG Version: 6.00 Build 0)  -->
<svg version="1.1" id="Livello_1" xmlns="http://www.w3.org/2000/svg" xmlns:xlink="http://www.w3.org/1999/xlink" x="0px" y="0px"
	 viewBox="0 0 60 60" style="enable-background:new 0 0 60 60;" xml:space="preserve">
<style type="text/css">
	.st0{fill:#FFFFFF;}
	.st1{fill:#C1D3FA;}
	.st2{fill:#E7F0FD;}
	.st3{fill:#A1C0F7;}
</style>
<g>
	<g>
		<defs>
			<rect id="SVGID_1_" x="-250.5" y="-1672.8" width="957" height="1"/>
		</defs>
		<clipPath id="SVGID_2_">
			<use xlink:href="#SVGID_1_"  style="overflow:visible;"/>
		</clipPath>
	</g>
</g>
<g>
	<g>
		<defs>
			<rect id="SVGID_3_" x="-253.5" y="-2062.8" width="545" height="306"/>
		</defs>
		<clipPath id="SVGID_4_">
			<use xlink:href="#SVGID_3_"  style="overflow:visible;"/>
		</clipPath>
	</g>
</g>
<g>
	<g>
		<defs>
			<path id="SVGID_5_" d="M-16.5-1891.8v-24.6h6.2v2c2-1.6,4.4-2.4,6.8-2.4c3.2-0.1,6.4,1.4,8.5,3.9c1.8,2.4,2.7,5.5,2.4,8.5v12.6
				H1.2v-13c0.1-1.7-0.4-3.4-1.4-4.7c-1-0.9-2.3-1.4-3.6-1.4c-2.3,0-4.5,1.2-5.8,3v16.1H-16.5z"/>
		</defs>
		<clipPath id="SVGID_6_">
			<use xlink:href="#SVGID_5_"  style="overflow:visible;"/>
		</clipPath>
	</g>
</g>
<g>
	<g>
		<defs>
			<path id="SVGID_7_" d="M29-1906.4c-0.3-2.4-2.3-4.2-4.8-4.2s-4.6,1.7-5.1,4.2H29z M34.9-1895.1c-2.5,2.8-6.1,4.4-9.9,4.4
				c-3.4,0.2-6.6-1.1-9-3.5s-3.6-5.7-3.5-9c0-6.7,4.6-12.5,11.7-12.5c6.5,0,11.3,5.6,11.3,12.3c0,0.6,0,1.2-0.2,1.8H18.7
				c0.3,3.4,3.2,5.9,6.5,5.8c2.3,0,4.4-1.1,5.9-2.8L34.9-1895.1z"/>
		</defs>
		<clipPath id="SVGID_8_">
			<use xlink:href="#SVGID_7_"  style="overflow:visible;"/>
		</clipPath>
	</g>
</g>
<g>
	<g>
		<defs>
			<path id="SVGID_9_" d="M45.9-1900.6c1.3,1.9,3.5,3,5.8,3c1.7,0,3.4-0.7,4.6-1.9c1.2-1.3,1.9-2.9,1.8-4.7c0.1-1.7-0.5-3.4-1.7-4.6
				s-2.8-2-4.5-2c-2.4,0-4.6,1.1-6,3C45.9-1907.8,45.9-1900.6,45.9-1900.6z M39.5-1892.2v-35.6h6.4v13.1c2-1.5,4.4-2.3,6.8-2.2
				c3.3,0.1,6.3,1.4,8.6,3.8c2.2,2.4,3.4,5.6,3.2,8.9c0,3.1-1.1,6.1-3,8.4c-2.4,2.6-5.7,4-9.2,4c-2.5,0-4.9-0.9-6.8-2.4v2
				L39.5-1892.2L39.5-1892.2z"/>
		</defs>
		<clipPath id="SVGID_10_">
			<use xlink:href="#SVGID_9_"  style="overflow:visible;"/>
		</clipPath>
	</g>
</g>
<g>
	<g>
		<defs>
			<path id="SVGID_11_" d="M91.5-1915.5v24.4h-6.1v-2c-1.8,1.6-4.1,2.4-6.5,2.4c-3.1,0-6-1.4-8-3.8c-1.7-2.3-2.6-5.2-2.4-8.1v-12.9
				h6.3v13.1c-0.2,1.5,0.3,3,1.2,4.2c1,0.9,2.2,1.4,3.5,1.4c2.2,0,4.2-1.2,5.5-3v-15.9h6.5V-1915.5z"/>
		</defs>
		<clipPath id="SVGID_12_">
			<use xlink:href="#SVGID_11_"  style="overflow:visible;"/>
		</clipPath>
	</g>
</g>
<g>
	<g>
		<defs>
			<rect id="SVGID_13_" x="97.5" y="-1927.8" width="6" height="36"/>
		</defs>
		<clipPath id="SVGID_14_">
			<use xlink:href="#SVGID_13_"  style="overflow:visible;"/>
		</clipPath>
	</g>
</g>
<g>
	<g>
		<defs>
			<path id="SVGID_15_" d="M127.2-1907.7c-1.4-1.9-3.6-3-5.9-3c-1.7,0-3.3,0.7-4.5,2c-1.2,1.2-1.8,2.9-1.7,4.6
				c-0.1,1.7,0.6,3.4,1.8,4.7c1.2,1.2,2.8,1.9,4.6,1.9c2.3,0,4.4-1.1,5.8-3v-7.2H127.2z M133.5-1892.2h-6.1v-2
				c-1.9,1.6-4.3,2.4-6.7,2.4c-3.5,0-6.8-1.5-9.1-4c-1.9-2.4-3-5.3-3-8.4c-0.2-3.2,1-6.4,3.2-8.8s5.3-3.7,8.5-3.8
				c2.5-0.1,5,0.8,6.9,2.4v-2h6.1v24.2L133.5-1892.2L133.5-1892.2z"/>
		</defs>
		<clipPath id="SVGID_16_">
			<use xlink:href="#SVGID_15_"  style="overflow:visible;"/>
		</clipPath>
	</g>
</g>
<g>
	<g>
		<defs>
			<path id="SVGID_17_" d="M145.9-1900.6c1.3,1.9,3.5,3,5.8,3c1.7,0,3.4-0.7,4.6-1.9c1.2-1.3,1.9-2.9,1.8-4.7
				c0.1-1.7-0.5-3.4-1.7-4.6s-2.8-2-4.5-2c-2.4,0-4.6,1.1-6,3L145.9-1900.6L145.9-1900.6z M139.5-1892.2v-35.6h6.4v13.1
				c2-1.5,4.3-2.3,6.8-2.2c3.3,0.1,6.3,1.4,8.6,3.8c2.2,2.4,3.4,5.6,3.2,8.9c0,3.1-1.1,6.1-3,8.4c-2.4,2.6-5.7,4-9.2,4
				c-2.5,0-4.9-0.9-6.8-2.4v2L139.5-1892.2L139.5-1892.2z"/>
		</defs>
		<clipPath id="SVGID_18_">
			<use xlink:href="#SVGID_17_"  style="overflow:visible;"/>
		</clipPath>
	</g>
</g>
<g>
	<g>
		<defs>
			<circle id="SVGID_19_" cx="-81" cy="-1909.2" r="44.5"/>
		</defs>
		<clipPath id="SVGID_20_">
			<use xlink:href="#SVGID_19_"  style="overflow:visible;"/>
		</clipPath>
	</g>
</g>
<g>
	<g>
		<defs>
			<polygon id="SVGID_21_" points="-90.4,-1901.8 -105.5,-1886.8 -85.5,-1892.1 			"/>
		</defs>
		<clipPath id="SVGID_22_">
			<use xlink:href="#SVGID_21_"  style="overflow:visible;"/>
		</clipPath>
	</g>
</g>
<g>
	<g>
		<defs>
			<polygon id="SVGID_23_" points="-57.5,-1931.8 -83.5,-1905.5 -73.6,-1885.8 			"/>
		</defs>
		<clipPath id="SVGID_24_">
			<use xlink:href="#SVGID_23_"  style="overflow:visible;"/>
		</clipPath>
	</g>
</g>
<g>
	<g>
		<defs>
			<rect id="SVGID_25_" x="-413.5" y="-2832.8" width="1440" height="1"/>
		</defs>
		<clipPath id="SVGID_26_">
			<use xlink:href="#SVGID_25_"  style="overflow:visible;"/>
		</clipPath>
	</g>
</g>
<g>
	<g>
		<defs>
			<path id="SVGID_27_" d="M783.5-2890.8v36c0,1.1,0.9,2,2,2h79c1.1,0,2-0.9,2-2v-36c0-1.1-0.9-2-2-2h-79
				C784.4-2892.8,783.5-2891.9,783.5-2890.8z"/>
		</defs>
		<clipPath id="SVGID_28_">
			<use xlink:href="#SVGID_27_"  style="overflow:visible;"/>
		</clipPath>
	</g>
</g>
<g>
	<g>
		<defs>
			<path id="SVGID_29_" d="M-251-2865.4c1.3,1.4,3.4,2.4,5.2,2.4c2,0,3.3-1.2,3.3-2.1c0-1.1-0.9-1.7-2.2-1.9l-2-0.4
				c-4.7-0.9-6-2.4-6-4.7c0-2.8,2.4-5.4,6.5-5.4c2.3,0,4.3,0.7,6.6,2.3l-2,2.5c-1.7-1.5-3.3-1.8-4.4-1.8c-1.5,0-3,0.7-3,2.1
				c0,1,0.8,1.5,2.2,1.7l3.6,0.7c2.9,0.5,4.4,1.9,4.4,4.4c0,2.4-2,5.6-7,5.6c-2.8,0-5.2-1-7.4-2.9L-251-2865.4z"/>
		</defs>
		<clipPath id="SVGID_30_">
			<use xlink:href="#SVGID_29_"  style="overflow:visible;"/>
		</clipPath>
	</g>
</g>
<g>
	<g>
		<defs>
			<path id="SVGID_31_" d="M-228.5-2863.4c3.1,0,5.4-2.4,5.4-5.4s-2.3-5.4-5.4-5.4c-3.1,0-5.4,2.4-5.4,5.4
				C-233.9-2865.8-231.6-2863.4-228.5-2863.4 M-228.5-2877.4c5.8,0,9.1,4.3,9.1,8.7s-3.4,8.7-9.1,8.7c-5.8,0-9.1-4.3-9.1-8.7
				C-237.6-2873.1-234.3-2877.4-228.5-2877.4"/>
		</defs>
		<clipPath id="SVGID_32_">
			<use xlink:href="#SVGID_31_"  style="overflow:visible;"/>
		</clipPath>
	</g>
</g>
<g>
	<g>
		<defs>
			<path id="SVGID_33_" d="M-207.1-2882c1,0,1.8,0.8,1.8,1.8s-0.8,1.8-1.8,1.8s-1.8-0.8-1.8-1.8
				C-208.9-2881.2-208.1-2882-207.1-2882"/>
		</defs>
		<clipPath id="SVGID_34_">
			<use xlink:href="#SVGID_33_"  style="overflow:visible;"/>
		</clipPath>
	</g>
</g>
<g>
	<g>
		<defs>
			<rect id="SVGID_35_" x="-208.9" y="-2874.8" width="3.5" height="14.8"/>
		</defs>
		<clipPath id="SVGID_36_">
			<use xlink:href="#SVGID_35_"  style="overflow:visible;"/>
		</clipPath>
	</g>
</g>
<g>
	<g>
		<defs>
			<path id="SVGID_37_" d="M-194.5-2863.4c-3.1,0-5.4-2.4-5.4-5.4s2.3-5.4,5.4-5.4s5.4,2.4,5.4,5.4
				C-189.2-2865.8-191.4-2863.4-194.5-2863.4z M-189-2882v6.2c-1.5-1.1-3.3-1.7-5.6-1.7c-5.8,0-9.1,4.3-9.1,8.7s3.4,8.7,9.1,8.7
				c2.2,0,4.1-0.7,5.6-1.7v1.7h3.5v-21.9H-189z"/>
		</defs>
		<clipPath id="SVGID_38_">
			<use xlink:href="#SVGID_37_"  style="overflow:visible;"/>
		</clipPath>
	</g>
</g>
<g>
	<g>
		<defs>
			<path id="SVGID_39_" d="M-183.6-2877.4h3.5v9.7c0,2.4,1.8,4.2,4,4.2s4-1.7,4-4.2v-9.7h3.5v10c0,4.6-3.6,7.4-7.6,7.4
				c-3.9,0-7.6-2.8-7.6-7.4L-183.6-2877.4L-183.6-2877.4z"/>
		</defs>
		<clipPath id="SVGID_40_">
			<use xlink:href="#SVGID_39_"  style="overflow:visible;"/>
		</clipPath>
	</g>
</g>
<g>
	<g>
		<defs>
			<path id="SVGID_41_" d="M-165.5-2865.3c1.3,1.4,3.4,2.4,5.2,2.4c2,0,3.3-1.2,3.3-2.1c0-1.1-0.9-1.7-2.2-1.9l-2-0.4
				c-4.6-0.9-5.9-2.4-5.9-4.7c0-2.8,2.4-5.4,6.5-5.4c2.3,0,4.3,0.7,6.6,2.3l-2,2.5c-1.7-1.5-3.3-1.8-4.4-1.8c-1.5,0-3,0.7-3,2.1
				c0,1,0.8,1.5,2.2,1.7l3.6,0.7c2.9,0.5,4.4,1.9,4.4,4.4c0,2.4-2,5.6-7,5.6c-2.8,0-5.2-1-7.4-2.9L-165.5-2865.3z"/>
		</defs>
		<clipPath id="SVGID_42_">
			<use xlink:href="#SVGID_41_"  style="overflow:visible;"/>
		</clipPath>
	</g>
</g>
<g>
	<g>
		<defs>
			<path id="SVGID_43_" d="M-212.6-2863.9c-1-0.6-1.4-1.2-1.4-2.9v-11.5c0-3.5-1.7-4.7-5.4-6.5l-1.6,2.8l1.9,1.1
				c1,0.6,1.4,1.2,1.4,2.9v11.5c0,3.5,1.7,4.7,5.4,6.5l1.6-2.8L-212.6-2863.9z"/>
		</defs>
		<clipPath id="SVGID_44_">
			<use xlink:href="#SVGID_43_"  style="overflow:visible;"/>
		</clipPath>
	</g>
</g>
<g>
	<g>
		<defs>
			<rect id="SVGID_45_" x="290.5" y="-2833.8" width="71" height="2"/>
		</defs>
		<clipPath id="SVGID_46_">
			<use xlink:href="#SVGID_45_"  style="overflow:visible;"/>
		</clipPath>
	</g>
</g>
<g>
	<path class="st0" d="M30.1,26.4c0.9,0,1.7-0.3,2.3-0.8c0.6-0.5,0.9-1.2,0.9-2.1c0-0.8-0.3-1.4-0.8-1.9s-1.3-0.7-2.4-0.7h-3.6v5.5
		h0.1H30.1z"/>
	<path class="st0" d="M30.5,29h-3.9v5.7h3.8c1.3,0,2.2-0.2,2.8-0.7c0.6-0.5,0.9-1.1,0.9-1.9c0-0.9-0.3-1.6-1-2.2
		C32.5,29.3,31.6,29,30.5,29z"/>
	<path class="st0" d="M51.8,14.9l-0.9-0.2c0,0,0,0,0,0c-3.4-0.6-6.2-2.6-9.1-4.9c-3.6-2.7-6.9-5.3-11.9-5.3c-4.8,0-8,2.2-11.4,4.9
		l-1.6,1.2c-2.6,1.9-4.9,3.6-8,4.1L8,14.9v0.9c0.3,24.7,6.2,28.1,20.3,36.5l1.6,0.9l1.6-0.9c14.2-8.4,20-11.8,20.3-36.5V14.9z
		 M44.5,39.1c0,0-10.8,10.5-13.2,10.5c-0.9,0-1.7,0-9.8-7.5c-0.5-0.4-0.7-1.1-0.7-1.7c0-0.6,0.4-1.2,0.9-1.6l2.2-0.9H23v-0.2V18h7.6
		c2.1,0,3.7,0.5,4.8,1.5c1.1,1,1.6,2.2,1.6,3.7c0,1.2-0.3,2.1-1,2.8s-1.5,1.1-2.4,1.4v0.2c0.7,0,1.4,0.2,2,0.6
		c0.6,0.4,1.2,0.9,1.6,1.7c0.4,0.7,0.6,1.5,0.6,2.4l6.6-2.6c0.7-0.5,1.6-0.5,2.3-0.1c0.7,0.4,1.1,1.2,1.1,2.1
		C47.7,31.9,44.5,39.1,44.5,39.1z M48.5,26.6c0,0.5-0.5,0.9-1,0.9c0,0-0.1,0-0.1,0c-0.5,0-1-0.5-0.9-1.1l0.4-4.5
		c0-0.5,0.5-1,1.1-0.9c0.5,0,1,0.5,0.9,1.1L48.5,26.6z"/>
	<path class="st1" d="M53.8,15.8v-1.7c0-0.5-0.3-0.9-0.8-1l-1.7-0.3c-3-0.5-5.5-2.4-8.3-4.5c-3.6-2.8-7.3-5.7-13.1-5.7
		c-5.4,0-9.1,2.5-12.6,5.3l-1.6,1.2c-2.3,1.8-4.5,3.3-7.2,3.7l-1.7,0.3c-0.5,0.1-0.8,0.5-0.8,1v1.7C6.3,41.6,12.9,45.5,27.3,54
		l2.1,1.2c0.2,0.1,0.3,0.1,0.5,0.1s0.4,0,0.5-0.1l2.1-1.2C46.9,45.5,53.5,41.6,53.8,15.8z M31.5,52.3l-1.6,0.9l-1.6-0.9
		C14.2,43.9,8.3,40.5,8,15.8v-0.9l0.9-0.2c3.1-0.5,5.5-2.2,8-4.1l1.6-1.2c3.4-2.7,6.6-4.9,11.4-4.9c5,0,8.3,2.5,11.9,5.3
		c3,2.3,5.7,4.3,9.1,4.9c0,0,0,0,0,0l0.9,0.2v0.8C51.5,40.5,45.6,43.9,31.5,52.3z"/>
	<path class="st2" d="M46.7,29.6c-0.7-0.4-1.6-0.4-2.3,0.1l-6.6,2.6c0,0.1,0,0.1,0,0.2c0,1-0.2,1.9-0.7,2.8
		c-0.5,0.8-1.2,1.5-2.2,1.9c-1,0.5-2.3,0.7-3.8,0.7h-7.2l-2.2,0.9c-0.5,0.4-0.9,1-0.9,1.6c0,0.6,0.2,1.3,0.7,1.7
		c8.1,7.5,8.9,7.5,9.8,7.5c2.4,0,13.2-10.5,13.2-10.5s3.2-7.2,3.3-7.4C47.8,30.8,47.4,30,46.7,29.6z"/>
	<path class="st1" d="M8.4,40.8c-1,2-3,3.4-6.3,4.5c-0.5,0.2-0.9,0.6-1,1.1c-0.1,0.5,0,1,0.4,1.4c1.3,1.3,3.2,1.9,4.8,2.2
		c-0.2,0.9-0.4,1.6-0.6,2.5c-0.1,0.5,0,1.1,0.4,1.5c0.2,0.2,0.5,0.4,0.8,0.4c0.2,0,0.4,0,0.6,0c1.9-0.6,3.4-1.3,4.7-2.1
		c1.1-0.8,2.1-1.7,2.8-2.8C9.3,44.4,8.4,40.8,8.4,40.8z"/>
	<path class="st1" d="M58.3,46.2c-0.1-0.5-0.5-0.9-1-1.1C54,44,52,42.6,51,40.6c0.1,0.2-0.8,3.8-6.6,8.7c0.8,1.1,1.7,2,2.8,2.8
		c1.3,0.9,2.7,1.5,4.7,2.1c0.2,0.1,0.4,0.1,0.6,0c0.3,0,0.6-0.2,0.8-0.4c0.4-0.4,0.5-0.9,0.4-1.5c-0.2-0.9-0.4-1.6-0.6-2.5
		c1.7-0.3,3.5-0.9,4.8-2.2C58.3,47.2,58.4,46.7,58.3,46.2z"/>
	<path class="st2" d="M48,21c-0.6,0-1,0.4-1.1,0.9l-0.4,4.5c0,0.6,0.4,1,0.9,1.1c0,0,0.1,0,0.1,0c0.5,0,0.9-0.4,1-0.9l0.4-4.5
		C48.9,21.5,48.5,21.1,48,21z"/>
	<path class="st3" d="M34.9,37.2c1-0.4,1.7-1.1,2.2-1.9c0.5-0.9,0.7-1.8,0.7-2.8c0-0.1,0-0.1,0-0.2c0-0.9-0.2-1.8-0.6-2.4
		c-0.4-0.8-1-1.3-1.6-1.7c-0.6-0.4-1.3-0.6-2-0.6v-0.2c0.9-0.3,1.7-0.7,2.4-1.4s1-1.6,1-2.8c0-1.5-0.5-2.7-1.6-3.7
		c-1.1-1-2.7-1.5-4.8-1.5H23v19.7v0.2h0.9h7.2C32.6,37.9,33.9,37.7,34.9,37.2z M34.1,32.1c0,0.8-0.3,1.4-0.9,1.9
		c-0.6,0.5-1.5,0.7-2.8,0.7h-3.8V29h3.9c1.1,0,2,0.3,2.6,0.9C33.8,30.5,34.1,31.2,34.1,32.1z M26.5,20.9h3.6c1.1,0,1.9,0.2,2.4,0.7
		s0.8,1.1,0.8,1.9c0,0.9-0.3,1.6-0.9,2.1c-0.6,0.5-1.4,0.8-2.3,0.8h-3.5h-0.1V20.9z"/>
</g>
</svg>
