<svg width="58" height="54" viewBox="0 0 58 54" xmlns="http://www.w3.org/2000/svg"><g fill-rule="nonzero" fill="none"><path d="M29.1 24.4c.9 0 1.7-.3 2.3-.8.6-.5.9-1.2.9-2.1 0-.8-.3-1.4-.8-1.9s-1.3-.7-2.4-.7h-3.6v5.5h3.6zM29.5 27h-3.9v5.7h3.8c1.3 0 2.2-.2 2.8-.7.6-.5.9-1.1.9-1.9 0-.9-.3-1.6-1-2.2-.6-.6-1.5-.9-2.6-.9z" fill="#FFF"/><path d="M50.8 12.9l-.9-.2c-3.4-.6-6.2-2.6-9.1-4.9-3.6-2.7-6.9-5.3-11.9-5.3-4.8 0-8 2.2-11.4 4.9l-1.6 1.2c-2.6 1.9-4.9 3.6-8 4.1l-.9.2v.9c.3 24.7 6.2 28.1 20.3 36.5l1.6.9 1.6-.9c14.2-8.4 20-11.8 20.3-36.5v-.9zm-7.3 24.2S32.7 47.6 30.3 47.6c-.9 0-1.7 0-9.8-7.5-.5-.4-.7-1.1-.7-1.7 0-.6.4-1.2.9-1.6l2.2-.9H22V16h7.6c2.1 0 3.7.5 4.8 1.5 1.1 1 1.6 2.2 1.6 3.7 0 1.2-.3 2.1-1 2.8-.7.7-1.5 1.1-2.4 1.4v.2c.7 0 1.4.2 2 .6.6.4 1.2.9 1.6 1.7.4.7.6 1.5.6 2.4l6.6-2.6c.7-.5 1.6-.5 2.3-.1.7.4 1.1 1.2 1.1 2.1-.1.2-3.3 7.4-3.3 7.4zm4-12.5c0 .5-.5.9-1 .9h-.1c-.5 0-1-.5-.9-1.1l.4-4.5c0-.5.5-1 1.1-.9.5 0 1 .5.9 1.1l-.4 4.5z" fill="#FFF"/><path d="M52.8 13.8v-1.7c0-.5-.3-.9-.8-1l-1.7-.3c-3-.5-5.5-2.4-8.3-4.5C38.4 3.5 34.7.6 28.9.6c-5.4 0-9.1 2.5-12.6 5.3l-1.6 1.2c-2.3 1.8-4.5 3.3-7.2 3.7l-1.7.3c-.5.1-.8.5-.8 1v1.7c.3 25.8 6.9 29.7 21.3 38.2l2.1 1.2c.2.1.3.1.5.1s.4 0 .5-.1l2.1-1.2c14.4-8.5 21-12.4 21.3-38.2zM30.5 50.3l-1.6.9-1.6-.9C13.2 41.9 7.3 38.5 7 13.8v-.9l.9-.2c3.1-.5 5.5-2.2 8-4.1l1.6-1.2c3.4-2.7 6.6-4.9 11.4-4.9 5 0 8.3 2.5 11.9 5.3 3 2.3 5.7 4.3 9.1 4.9l.9.2v.8c-.3 24.8-6.2 28.2-20.3 36.6z" fill="#C1D3FA"/><path d="M45.7 27.6c-.7-.4-1.6-.4-2.3.1l-6.6 2.6v.2c0 1-.2 1.9-.7 2.8-.5.8-1.2 1.5-2.2 1.9-1 .5-2.3.7-3.8.7h-7.2l-2.2.9c-.5.4-.9 1-.9 1.6 0 .6.2 1.3.7 1.7 8.1 7.5 8.9 7.5 9.8 7.5 2.4 0 13.2-10.5 13.2-10.5s3.2-7.2 3.3-7.4c0-.9-.4-1.7-1.1-2.1z" fill="#E7F0FD"/><path d="M7.4 38.8c-1 2-3 3.4-6.3 4.5-.5.2-.9.6-1 1.1-.1.5 0 1 .4 1.4 1.3 1.3 3.2 1.9 4.8 2.2-.2.9-.4 1.6-.6 2.5-.1.5 0 1.1.4 1.5.2.2.5.4.8.4h.6c1.9-.6 3.4-1.3 4.7-2.1 1.1-.8 2.1-1.7 2.8-2.8-5.7-5.1-6.6-8.7-6.6-8.7zM57.3 44.2c-.1-.5-.5-.9-1-1.1C53 42 51 40.6 50 38.6c.1.2-.8 3.8-6.6 8.7.8 1.1 1.7 2 2.8 2.8 1.3.9 2.7 1.5 4.7 2.1.2.1.4.1.6 0 .3 0 .6-.2.8-.4.4-.4.5-.9.4-1.5-.2-.9-.4-1.6-.6-2.5 1.7-.3 3.5-.9 4.8-2.2.4-.4.5-.9.4-1.4z" fill="#CD7F32"/><path d="M47 19c-.6 0-1 .4-1.1.9l-.4 4.5c0 .6.4 1 .9 1.1h.1c.5 0 .9-.4 1-.9l.4-4.5c0-.6-.4-1-.9-1.1z" fill="#E7F0FD"/><path d="M33.9 35.2c1-.4 1.7-1.1 2.2-1.9.5-.9.7-1.8.7-2.8v-.2c0-.9-.2-1.8-.6-2.4-.4-.8-1-1.3-1.6-1.7-.6-.4-1.3-.6-2-.6v-.2c.9-.3 1.7-.7 2.4-1.4s1-1.6 1-2.8c0-1.5-.5-2.7-1.6-3.7S31.7 16 29.6 16H22v19.9h8.1c1.5 0 2.8-.2 3.8-.7zm-.8-5.1c0 .8-.3 1.4-.9 1.9-.6.5-1.5.7-2.8.7h-3.8V27h3.9c1.1 0 2 .3 2.6.9.7.6 1 1.3 1 2.2zm-7.6-11.2h3.6c1.1 0 1.9.2 2.4.7.5.5.8 1.1.8 1.9 0 .9-.3 1.6-.9 2.1-.6.5-1.4.8-2.3.8h-3.6v-5.5z" fill="#CD7F32"/></g></svg>