<svg width="58" height="53" viewBox="0 0 58 53" xmlns="http://www.w3.org/2000/svg"><g fill-rule="nonzero" fill="none"><path d="M51 12.5l-.9-.2c-3.4-.6-6.2-2.6-9.1-4.9-3.6-2.7-6.9-5.3-11.9-5.3-4.8 0-8 2.2-11.4 4.9l-1.6 1.2c-2.6 1.9-4.9 3.6-8 4.1l-.9.2v.9c.3 24.7 6.2 28.1 20.3 36.5l1.6.9 1.6-.9C44.8 41.5 50.6 38 51 13.4v-.9zm-7.3 24.1S32.9 47.1 30.5 47.1c-.9 0-1.7 0-9.8-7.5-.5-.4-.7-1.1-.7-1.7 0-.6.4-1.2.9-1.6l4.7-1.9c-.4-.1-.7-.3-1-.5-1.3-.8-2.4-1.9-3.1-3.4-.7-1.5-1.1-3.2-1.1-5.3 0-2.1.4-3.8 1.2-5.3.8-1.5 1.8-2.6 3.1-3.4 1.3-.8 2.8-1.2 4.5-1.2 1.4 0 2.7.3 3.9.8 1.2.5 2.1 1.3 2.8 2.3.7 1 1.2 2.1 1.4 3.3h-3.5v-.1c-.3-1-.8-1.8-1.6-2.4-.8-.6-1.7-.9-2.9-.9-1 0-2 .3-2.8.8-.8.5-1.4 1.3-1.9 2.3-.5 1-.7 2.2-.7 3.7 0 2.2.5 3.8 1.5 5 1 1.2 2.3 1.8 3.9 1.8 1.4 0 2.6-.4 3.5-1.2.9-.8 1.3-1.9 1.3-3.3h-4.4v-2.7h7.8V27c0 1.1-.2 2-.5 2.8l6.6-2.6c.7-.5 1.6-.5 2.3-.1.8.4 1.2 1.2 1.1 2.1-.1.2-3.3 7.4-3.3 7.4zm3.8-12.8c-.1.5-.5.9-1 .9h-.1c-.5-.1-.9-.6-.9-1.1l.5-4.4c.1-.5.5-.9 1.1-.9.5.1.9.6.9 1.1l-.5 4.4z" fill="#FFF"/><path d="M53 13.4v-1.7c0-.5-.3-.9-.8-1l-1.7-.3c-3-.5-5.5-2.4-8.3-4.6C38.6 3 34.9.1 29.1.1 23.7.1 20 2.6 16.5 5.4l-1.6 1.2c-2.3 1.8-4.5 3.3-7.2 3.7l-1.7.4c-.5.1-.8.5-.8 1v1.7c.3 25.8 6.9 29.7 21.3 38.2l2.1 1.2c.2.1.3.1.5.1s.4 0 .5-.1l2.1-1.2C46 43.1 52.6 39.1 53 13.4zM30.7 49.9l-1.6.9-1.6-.9c-14.2-8.4-20-11.8-20.3-36.5v-.9l.9-.2c3.1-.5 5.5-2.2 8-4.1L17.7 7c3.4-2.7 6.6-4.9 11.4-4.9 5 0 8.3 2.5 11.9 5.3 3 2.3 5.7 4.3 9.1 4.9l.9.2v.8c-.4 24.7-6.2 28.2-20.3 36.6z" fill="#BF9B30"/><path d="M45.9 27.1c-.7-.4-1.6-.4-2.3.1L37 29.8l-.6 1.5c-.7 1.2-1.7 2.1-2.9 2.8-1.2.6-2.6 1-4.2 1-1.4 0-2.6-.2-3.7-.7l-4.7 1.9c-.5.4-.9 1-.9 1.6 0 .6.2 1.3.7 1.7 8.1 7.5 8.9 7.5 9.8 7.5 2.4 0 13.2-10.5 13.2-10.5s3.2-7.2 3.3-7.4c.1-.9-.3-1.7-1.1-2.1z" fill="#E7F0FD"/><path d="M33.5 34.1c1.2-.7 2.2-1.6 2.9-2.8.3-.5.5-1 .6-1.5.3-.8.5-1.8.5-2.8v-2.3h-7.8v2.7h4.4c0 1.4-.4 2.5-1.3 3.3-.9.8-2.1 1.2-3.5 1.2-1.6 0-2.9-.6-3.9-1.8-1-1.2-1.5-2.8-1.5-5 0-1.5.2-2.7.7-3.7.5-1 1.1-1.8 1.9-2.3.8-.5 1.8-.8 2.8-.8 1.2 0 2.1.3 2.9.9.8.6 1.3 1.4 1.6 2.4v.1h3.5c-.2-1.2-.7-2.3-1.4-3.3s-1.6-1.8-2.8-2.3c-1.2-.5-2.5-.8-3.9-.8-1.7 0-3.2.4-4.5 1.2-1.3.8-2.3 1.9-3.1 3.4-.8 1.5-1.2 3.2-1.2 5.3 0 2.1.4 3.8 1.1 5.3.7 1.5 1.8 2.6 3.1 3.4.3.2.7.4 1 .5 1.1.5 2.3.7 3.7.7 1.6 0 3-.4 4.2-1z" fill="#BF9B30"/><path d="M7.6 38.3c-1 2-3 3.4-6.3 4.5-.5.2-.9.6-1 1.1-.1.5 0 1 .4 1.4 1.3 1.3 3.2 1.9 4.8 2.2-.1.8-.3 1.5-.5 2.4-.1.5 0 1.1.4 1.5.2.2.5.4.8.4h.6c1.9-.6 3.4-1.3 4.7-2.1 1.1-.8 2.1-1.7 2.8-2.8-5.8-5-6.7-8.6-6.7-8.6zM57.5 43.7c-.1-.5-.5-.9-1-1.1-3.3-1.1-5.3-2.5-6.3-4.5.2.2-.7 3.8-6.6 8.7.8 1.1 1.7 2 2.8 2.8 1.3.9 2.7 1.5 4.7 2.1.2.1.4.1.6 0 .3 0 .6-.2.8-.4.4-.4.5-.9.4-1.5-.2-.9-.4-1.6-.6-2.5 1.7-.3 3.5-.9 4.8-2.2.4-.4.5-.9.4-1.4z" fill="#A67C00"/><path d="M47.1 18.3c-.6-.1-1 .3-1.1.9l-.5 4.4c-.1.5.3 1 .9 1.1h.1c.5 0 .9-.4 1-.9l.5-4.4c.1-.5-.3-1-.9-1.1z" fill="#E7F0FD"/></g></svg>