<svg width="58" height="60" viewBox="0 0 58 60" xmlns="http://www.w3.org/2000/svg"><g fill-rule="nonzero" fill="none"><path d="M24 52.9c.8-1.5 2.3-2.6 4.2-2.6 2 0 3.6 1.2 4.3 3 3.9-.5 7.5-2.1 10.6-4.3a4.695 4.695 0 0 1 4.2-6.8c.6 0 1.2.1 1.8.4 1.5-2.4 2.6-5.1 3.1-8-2.1-.5-3.6-2.3-3.6-4.6 0-2.2 1.5-4 3.5-4.5-.6-2.9-1.8-5.6-3.3-8-.5.2-1 .3-1.5.3-2.6 0-4.7-2.1-4.7-4.7 0-.6.1-1.2.3-1.7-2.5-1.8-5.4-3.2-8.6-3.9-.8 1.3-2.3 2.1-3.9 2.1-1.8 0-3.3-1-4.1-2.5-3.9.5-7.5 2-10.6 4.2.2.5.3 1.1.3 1.7 0 2.6-2.1 4.7-4.7 4.7-.5 0-1-.1-1.5-.3-1.6 2.4-2.7 5.1-3.4 8C8.5 26 10 27.8 10 30c0 2.2-1.5 4.1-3.6 4.6.5 2.9 1.6 5.6 3.1 8 .5-.2 1.1-.3 1.7-.3 2.6 0 4.7 2.1 4.7 4.7 0 .7-.2 1.4-.5 2.1 2.6 1.7 5.5 3.1 8.6 3.8zm-4.9-32.8h4.3l5.9 14.3h.2l5.9-14.3h4.4v19.8h-3.5V26.3h-.1l-5.5 13.5h-2.6l-5.4-13.5h-.2v13.6h-3.4V20.1z" fill="#FFF"/><path d="M30.4 7.6c1.5 0 2.7-1.2 2.7-2.7 0-1.5-1.2-2.7-2.7-2.7-1.4 0-2.7 1.2-2.7 2.7 0 1.5 1.2 2.7 2.7 2.7z" fill="#FFF"/><circle fill="#FFF" cx="47.3" cy="13" r="2.7"/><path d="M56 30c0-1.5-1.2-2.7-2.7-2.7-1.4 0-2.6 1.2-2.7 2.7 0 1.5 1.2 2.7 2.7 2.7 1.5 0 2.7-1.2 2.7-2.7z" fill="#FFF"/><path d="M58 30c0-2.3-1.7-4.2-3.9-4.6-.6-3.3-1.9-6.3-3.6-9 .9-.9 1.5-2.1 1.5-3.4 0-2.6-2.1-4.7-4.7-4.7-1.3 0-2.4.5-3.3 1.3-2.7-1.9-5.7-3.3-9-4.1 0-.2.1-.4.1-.7 0-2.6-2.1-4.7-4.7-4.7s-4.7 2.1-4.7 4.7v.3c-4.1.6-7.9 2.2-11.2 4.5-.8-.8-2-1.3-3.3-1.3-2.6 0-4.7 2.1-4.7 4.7 0 1.3.6 2.6 1.5 3.4-1.7 2.7-3 5.7-3.6 9C2.2 25.8.5 27.7.5 30s1.6 4.2 3.8 4.6c.7 3.3 1.9 6.4 3.6 9.1-.8.8-1.3 2-1.3 3.2 0 2.6 2.1 4.7 4.7 4.7 1.1 0 2.1-.4 2.9-1.1 2.7 2 5.9 3.5 9.3 4.3v.2c0 2.6 2.1 4.7 4.7 4.7 2.5 0 4.5-2 4.7-4.5 4.3-.6 8.2-2.3 11.5-4.7.8.7 1.8 1.1 2.9 1.1 2.6 0 4.7-2.1 4.7-4.7 0-1.2-.5-2.4-1.3-3.2 1.7-2.7 2.9-5.8 3.5-9.1 2.2-.4 3.8-2.3 3.8-4.6zm-8 16.9c0 1.5-1.2 2.7-2.7 2.7-1.5 0-2.7-1.2-2.7-2.7 0-1.5 1.2-2.7 2.7-2.7 1.5 0 2.7 1.2 2.7 2.7zM30.9 55c0 1.5-1.2 2.7-2.7 2.7-1.5 0-2.7-1.2-2.7-2.7 0-1.5 1.2-2.7 2.7-2.7 1.5 0 2.7 1.2 2.7 2.7zm-19.6-5.4c-1.5 0-2.7-1.2-2.7-2.7.1-1.5 1.3-2.7 2.7-2.7 1.5 0 2.7 1.2 2.7 2.7 0 1.5-1.2 2.7-2.7 2.7zm-6-22.3C6.8 27.3 8 28.5 8 30c0 1.5-1.2 2.7-2.7 2.7-1.5 0-2.7-1.2-2.7-2.7 0-1.5 1.2-2.7 2.7-2.7zm6 14.9c-.6 0-1.2.1-1.7.3-1.5-2.4-2.6-5.1-3.1-8 2-.4 3.5-2.3 3.5-4.5s-1.5-4-3.5-4.5c.6-2.9 1.8-5.6 3.4-8 .5.2.9.3 1.5.3 2.6 0 4.7-2.1 4.7-4.7 0-.6-.1-1.1-.3-1.7 3.1-2.2 6.7-3.7 10.6-4.2.8 1.5 2.3 2.5 4.1 2.5 1.7 0 3.1-.9 3.9-2.1 3.1.7 6.1 2 8.6 3.9-.2.5-.3 1.1-.3 1.7 0 2.6 2.1 4.7 4.7 4.7.5 0 1-.1 1.5-.3 1.6 2.4 2.7 5.1 3.3 8-2 .5-3.5 2.3-3.5 4.5s1.5 4.1 3.6 4.6c-.5 2.9-1.6 5.6-3.1 8-.5-.2-1.1-.4-1.8-.4a4.695 4.695 0 0 0-4.2 6.8c-3 2.2-6.7 3.7-10.6 4.3-.7-1.7-2.3-3-4.3-3-1.8 0-3.4 1.1-4.2 2.6-3.1-.7-6-2.1-8.5-3.9.3-.6.5-1.3.5-2.1-.1-2.7-2.2-4.8-4.8-4.8zM8.7 13c0-1.5 1.2-2.7 2.6-2.7 1.5 0 2.7 1.2 2.7 2.7 0 1.5-1.2 2.7-2.7 2.7-1.5 0-2.6-1.2-2.6-2.7zm19-8.1c0-1.5 1.3-2.7 2.7-2.7 1.5 0 2.7 1.2 2.7 2.7 0 1.5-1.2 2.7-2.7 2.7-1.5 0-2.7-1.2-2.7-2.7zm19.6 5.4c1.5 0 2.7 1.2 2.7 2.7 0 1.5-1.2 2.7-2.7 2.7-1.5 0-2.7-1.2-2.7-2.7 0-1.5 1.2-2.7 2.7-2.7zM50.6 30c.1-1.5 1.3-2.7 2.7-2.7 1.5 0 2.7 1.2 2.7 2.7 0 1.5-1.2 2.7-2.7 2.7-1.5 0-2.7-1.2-2.7-2.7z" fill="#3C76F0"/><path d="M11.3 15.7c1.5 0 2.7-1.2 2.7-2.7 0-1.5-1.2-2.7-2.7-2.7-1.4 0-2.6 1.2-2.6 2.7 0 1.5 1.1 2.7 2.6 2.7z" fill="#FFF"/><circle fill="#FFF" cx="5.3" cy="30" r="2.7"/><circle fill="#FFF" cx="28.2" cy="55" r="2.7"/><path d="M14 46.9c0-1.5-1.2-2.7-2.7-2.7-1.4 0-2.6 1.2-2.7 2.7 0 1.5 1.2 2.7 2.7 2.7 1.5 0 2.7-1.2 2.7-2.7zm33.3-2.7c-1.5 0-2.7 1.2-2.7 2.7 0 1.5 1.2 2.7 2.7 2.7 1.5 0 2.7-1.2 2.7-2.7 0-1.5-1.2-2.7-2.7-2.7z" fill="#FFF"/><path fill="#3C76F0" d="M22.5 26.3h.2l5.4 13.5h2.6l5.5-13.5h.1v13.6h3.5V20.1h-4.4l-5.9 14.3h-.2l-5.9-14.3h-4.3v19.8h3.4z"/></g></svg>