<svg width="58" height="54" viewBox="0 0 58 54" xmlns="http://www.w3.org/2000/svg"><g fill-rule="nonzero" fill="none"><path d="M50.8 12.7l-.9-.2c-3.4-.6-6.2-2.6-9.1-4.9-3.6-2.7-6.9-5.3-11.9-5.3-4.8 0-8 2.2-11.4 4.9l-1.6 1.2c-2.6 1.9-4.9 3.6-8 4.1l-.9.2v.9c.3 24.7 6.2 28.1 20.3 36.5l1.6.9 1.6-.9c14.2-8.4 20-11.8 20.3-36.5v-.9zm-7.3 24.1S32.7 47.3 30.3 47.3c-.9 0-1.7 0-9.8-7.5-.5-.4-.7-1.1-.7-1.7 0-.6.4-1.2.9-1.6l4.6-1.8c-.5-.2-1-.5-1.5-.9-1.3-1-2-2.5-2.1-4.4h3.4c.1 1 .5 1.8 1.2 2.2.8.5 1.7.7 2.8.7 1.1 0 2.1-.3 2.8-.8.7-.5 1.1-1.2 1.1-2 0-.7-.3-1.3-1-1.7-.6-.4-1.5-.7-2.5-1l-2.2-.6c-1.6-.4-2.8-1-3.7-1.9-.9-.8-1.4-1.9-1.4-3.3 0-1.1.3-2.1.9-3 .6-.8 1.5-1.5 2.5-2 1.1-.5 2.3-.7 3.6-.7 1.4 0 2.6.2 3.6.7 1 .5 1.8 1.1 2.4 2 .6.8.9 1.8.9 2.9h-3.2v.3c-.1-.8-.5-1.5-1.1-1.9-.6-.5-1.5-.7-2.5-.7-1.1 0-1.9.2-2.5.7-.6.5-.9 1.1-.9 1.8 0 .5.2 1 .5 1.3.3.3.7.6 1.2.8.5.2 1 .4 1.5.5l1.8.4c1 .2 1.9.6 2.7 1 .9.4 1.6 1 2.1 1.8.5.7.8 1.7.8 2.8v.5l6.9-2.8c.7-.5 1.6-.5 2.3-.1.8.4 1.2 1.2 1.1 2.1-.1.2-3.3 7.4-3.3 7.4zm4-12.4c-.1.5-.5.9-1 .9h-.1c-.5-.1-.9-.6-.9-1.1l.5-4.5c.1-.5.6-.9 1.1-.9.5.1.9.6.9 1.1l-.5 4.5z" fill="#FFF"/><path d="M52.8 13.6v-1.7c0-.5-.3-.9-.8-1l-1.7-.3c-3-.5-5.5-2.4-8.3-4.6C38.4 3.2 34.7.3 28.9.3c-5.4 0-9.1 2.5-12.6 5.3l-1.6 1.2c-2.3 1.8-4.5 3.3-7.2 3.7l-1.7.3c-.5.2-.8.6-.8 1.1v1.7c.3 25.8 6.9 29.7 21.3 38.2l2.1 1.2c.2.1.3.1.5.1s.4 0 .5-.1l2.1-1.2c14.4-8.5 21-12.4 21.3-38.2zM30.5 50.1l-1.6.9-1.6-.9C13.2 41.7 7.3 38.3 7 13.6v-.9l.9-.2c3.1-.5 5.5-2.2 8-4.1l1.6-1.2c3.4-2.7 6.6-4.9 11.4-4.9 5 0 8.3 2.5 11.9 5.3 3 2.3 5.7 4.3 9.1 4.9l.9.2v.8c-.3 24.8-6.2 28.2-20.3 36.6z" fill-opacity=".48" fill="#24282F"/><path d="M45.7 27.3c-.7-.4-1.6-.4-2.3.1l-6.9 2.8c-.1 1.5-.7 2.7-1.9 3.6-1.3 1-3.1 1.6-5.4 1.6-1.5 0-2.8-.3-3.9-.7l-4.6 1.8c-.5.4-.9 1-.9 1.6 0 .6.2 1.3.7 1.7 8.1 7.5 8.9 7.5 9.8 7.5 2.4 0 13.2-10.5 13.2-10.5s3.2-7.2 3.3-7.4c.1-.9-.3-1.7-1.1-2.1z" fill="#E7F0FD"/><path d="M7.4 38.5c-1 2-3 3.4-6.3 4.5-.5.2-.9.6-1 1.1-.1.5 0 1 .4 1.4 1.3 1.3 3.2 1.9 4.8 2.2-.2.9-.4 1.6-.6 2.5-.1.5 0 1.1.4 1.5.3.1.6.3.9.3h.6c1.9-.6 3.4-1.3 4.7-2.1 1.1-.8 2.1-1.7 2.8-2.8-5.8-5-6.7-8.6-6.7-8.6zM57.3 43.9c-.1-.5-.5-.9-1-1.1-3.3-1.1-5.3-2.5-6.3-4.5.2.2-.7 3.8-6.6 8.7.8 1.1 1.7 2 2.8 2.8 1.3.9 2.7 1.5 4.7 2.1.2.1.4.1.6 0 .3 0 .6-.2.8-.4.4-.4.5-.9.4-1.5-.2-.9-.4-1.6-.6-2.5 1.7-.3 3.5-.9 4.8-2.2.4-.4.5-.9.4-1.4z" fill="#8AADF6"/><path d="M34.6 33.8c1.2-.9 1.8-2.1 1.9-3.6v-.5c0-1.1-.3-2.1-.8-2.8-.5-.8-1.2-1.4-2.1-1.8-.8-.4-1.7-.8-2.7-1l-1.8-.4c-.5-.1-1-.3-1.5-.5s-.9-.5-1.2-.8c-.3-.3-.5-.8-.5-1.3 0-.7.3-1.3.9-1.8.6-.5 1.4-.7 2.5-.7 1 0 1.9.2 2.5.7.6.4 1 1.1 1.1 1.9v-.3h3.2c0-1.1-.3-2.1-.9-2.9-.6-.9-1.4-1.5-2.4-2s-2.2-.7-3.6-.7c-1.3 0-2.5.2-3.6.7-1 .5-1.9 1.2-2.5 2-.6.9-.9 1.9-.9 3 0 1.4.5 2.5 1.4 3.3.9.9 2.1 1.5 3.7 1.9l2.2.6c1 .3 1.9.6 2.5 1 .7.4 1 1 1 1.7 0 .8-.4 1.5-1.1 2-.7.5-1.7.8-2.8.8-1.1 0-2-.2-2.8-.7-.7-.4-1.1-1.2-1.2-2.2h-3.4c.1 1.9.8 3.4 2.1 4.4.5.4 1 .6 1.5.9 1.1.5 2.4.7 3.9.7 2.3 0 4.1-.6 5.4-1.6z" fill-opacity=".3" fill="#24282F"/><path d="M47.1 18.8c-.5-.1-1 .3-1.1.9l-.5 4.5c-.1.5.3 1 .9 1.1h.1c.5 0 .9-.4 1-.9l.5-4.5c.1-.5-.3-1-.9-1.1z" fill="#E7F0FD"/></g></svg>