<svg fill="none" xmlns="http://www.w3.org/2000/svg" viewBox="0 0 60 60">
  <circle cx="30" cy="30" r="30" fill="#FFDAD9"/>
  <path d="M44.32 16.96l-5.04-.48-3.96-.36h-.12c-.24 0-.48.24-.48.48 0 2.4-1.92 4.44-4.44 4.44-2.4 0-4.44-2.04-4.44-4.44.12-.36 0-.6-.36-.6h-.12l-3.96.48-4.92.48c-.24 0-.48.24-.48.48v7.8c0 .24.24.48.48.48h4.32c.24 0 .48.24.48.48v13.32c0 .24.24.48.48.48h17.16c.24 0 .48-.24.48-.48V26.2c0-.24.24-.48.48-.48h4.32c.24 0 .48-.24.48-.48v-7.8c.12-.24-.12-.48-.36-.48z" stroke="#FF4F4B" stroke-width="2" stroke-miterlimit="10"/>
</svg>
