<svg width="68" height="68" viewBox="0 0 68 68" xmlns="http://www.w3.org/2000/svg"><g fill="none" fill-rule="evenodd"><path d="M1.191 0H63a5 5 0 0 1 5 5v63.016L.838.854A.5.5 0 0 1 1.19 0z" fill="#BDBEC0"/><path d="M52.9 28.5c1.2-.9 1.8-2.1 1.9-3.6v-.5c0-1.1-.3-2.1-.8-2.8-.5-.8-1.2-1.4-2.1-1.8-.8-.4-1.7-.8-2.7-1l-1.8-.4c-.5-.1-1-.3-1.5-.5s-.9-.5-1.2-.8c-.3-.3-.5-.8-.5-1.3 0-.7.3-1.3.9-1.8.6-.5 1.4-.7 2.5-.7 1 0 1.9.2 2.5.7.6.4 1 1.1 1.1 1.9v-.3h3.2c0-1.1-.3-2.1-.9-2.9-.6-.9-1.4-1.5-2.4-2s-2.2-.7-3.6-.7c-1.3 0-2.5.2-3.6.7-1 .5-1.9 1.2-2.5 2-.6.9-.9 1.9-.9 3 0 1.4.5 2.5 1.4 3.3.9.9 2.1 1.5 3.7 1.9l2.2.6c1 .3 1.9.6 2.5 1 .7.4 1 1 1 1.7 0 .8-.4 1.5-1.1 2-.7.5-1.7.8-2.8.8-1.1 0-2-.2-2.8-.7-.7-.4-1.1-1.2-1.2-2.2H40c.1 1.9.8 3.4 2.1 4.4.5.4 1 .6 1.5.9 1.1.5 2.4.7 3.9.7 2.3 0 4.1-.6 5.4-1.6z" fill="#FFF" fill-rule="nonzero"/></g></svg>