<svg width="15" height="14" viewBox="0 0 15 14" fill="none" xmlns="http://www.w3.org/2000/svg">
<path class="inherit-fill" d="M13.5849 5.24768L9.87788 4.71448L8.2021 1.33753C7.9228 0.753541 7.05952 0.72815 6.75483 1.33753L5.10444 4.71448L1.37202 5.24768C0.711862 5.34924 0.457955 6.16174 0.940377 6.64417L3.60639 9.2594L2.97163 12.941C2.87006 13.6012 3.581 14.109 4.16499 13.8043L7.49116 12.0524L10.7919 13.8043C11.3759 14.109 12.0869 13.6012 11.9853 12.941L11.3505 9.2594L14.0165 6.64417C14.499 6.16174 14.2451 5.34924 13.5849 5.24768ZM10.4619 8.95471L11.1728 13.068L7.49116 11.1383L3.78413 13.068L4.49506 8.95471L1.49897 6.06018L5.63764 5.45081L7.49116 1.69299L9.31928 5.45081L13.458 6.06018L10.4619 8.95471Z" fill="black"/>
</svg>
