<svg width="45" height="45" viewBox="0 0 45 45" fill="none" xmlns="http://www.w3.org/2000/svg">
<circle cx="22.5" cy="22.5" r="22.5" fill="#CBFFF3"/>
<path d="M12 30.1869H16V18.1869H12V30.1869ZM33.9999 19.1869C33.9999 18.0869 33.0999 17.1869 31.9999 17.1869H25.6999L26.6999 12.5869V12.2869C26.6999 11.8869 26.4999 11.4869 26.2999 11.1869L25.1999 10.1869L18.6 16.7869C18.2 17.0869 18 17.5869 18 18.1869V28.1869C18 29.2869 18.9 30.1869 19.9999 30.1869H28.9999C29.7999 30.1869 30.4999 29.6869 30.7999 28.9869L33.7999 21.8869C33.9999 21.6869 33.9999 21.4869 33.9999 21.1869V19.1869Z" fill="#19CCA3"/>
</svg>
