<svg width="45" height="45" viewBox="0 0 45 45" fill="none" xmlns="http://www.w3.org/2000/svg">
<circle cx="22.5" cy="22.5" r="22.5" fill="#FFF0E1"/>
<path fill-rule="evenodd" clip-rule="evenodd" d="M22.8701 15.241C17.3739 15.241 12.7771 18.5387 10.8784 23.2354C12.7771 27.9321 17.3739 31.2297 22.8701 31.2297C28.3663 31.2297 32.9631 27.9321 34.8618 23.2354C32.9631 18.5387 28.3663 15.241 22.8701 15.241ZM22.8701 28.5316C19.8722 28.5316 17.3739 26.1333 17.3739 23.2354C17.3739 20.3374 19.8722 17.9391 22.8701 17.9391C25.868 17.9391 28.3663 20.3374 28.3663 23.2354C28.3663 26.1333 25.868 28.5316 22.8701 28.5316ZM19.5724 23.2354C19.5724 21.4366 21.0713 20.0376 22.8701 20.0376C24.6688 20.0376 26.1678 21.4366 26.1678 23.2354C26.1678 25.0341 24.6688 26.4331 22.8701 26.4331C21.0713 26.4331 19.5724 25.0341 19.5724 23.2354Z" fill="#E69138"/>
</svg>
