<svg width="50" height="36" viewBox="0 0 50 36" fill="none" xmlns="http://www.w3.org/2000/svg">
<path d="M47.6712 6.57755C47.4139 5.54927 46.8897 4.60713 46.1516 3.84627C45.4136 3.08541 44.4879 2.53279 43.4679 2.24423C39.7412 1.33423 24.8346 1.33423 24.8346 1.33423C24.8346 1.33423 9.9279 1.33423 6.20124 2.33089C5.18127 2.61946 4.25552 3.17208 3.51749 3.93294C2.77946 4.69379 2.25528 5.63594 1.99791 6.66422C1.31587 10.4462 0.98225 14.2829 1.00124 18.1259C0.976927 21.9978 1.31057 25.8637 1.99791 29.6742C2.28165 30.6705 2.81757 31.5768 3.55388 32.3055C4.2902 33.0342 5.20202 33.5607 6.20124 33.8341C9.9279 34.8308 24.8346 34.8308 24.8346 34.8308C24.8346 34.8308 39.7412 34.8308 43.4679 33.8341C44.4879 33.5456 45.4136 32.993 46.1516 32.2321C46.8897 31.4712 47.4139 30.5291 47.6712 29.5008C48.348 25.7473 48.6816 21.9399 48.6679 18.1259C48.6922 14.2539 48.3586 10.3881 47.6712 6.57755V6.57755Z" stroke="black" stroke-width="2" stroke-linecap="round" stroke-linejoin="round"/>
<path d="M19.9594 25.2109L32.4177 18.126L19.9594 11.041V25.2109Z" stroke="#FF4848" stroke-width="2" stroke-linecap="round" stroke-linejoin="round"/>
</svg>
