<svg width="17" height="18" viewBox="0 0 17 18" fill="none" xmlns="http://www.w3.org/2000/svg">
<path d="M14.58 0H1.62C0.7254 0 0 0.7254 0 1.62V16.38C0 17.2746 0.7254 18 1.62 18H14.58C15.4746 18 16.2 17.2746 16.2 16.38V1.62C16.2 0.7254 15.4746 0 14.58 0ZM4.05 15.3V11.7L6.075 13.5L4.05 15.3ZM10.35 15.3V9.92475C10.3412 9.50467 10.139 9 9.225 9C7.39485 9 5.34195 9.92048 5.32148 9.9297L4.05 10.5057V2.7H5.85V7.80997C6.74865 7.51747 8.00483 7.2 9.225 7.2C10.3376 7.2 11.0036 7.6374 11.3663 8.00437C12.1405 8.78737 12.1511 9.7848 12.1501 9.9V15.3H10.35ZM10.8 5.625H9C9.7074 4.69688 10.1516 3.72015 10.35 2.7H12.15C12.0285 3.7224 11.6141 4.7025 10.8 5.625Z" fill="#242830"/>
</svg>
