<svg width="20" height="20" viewBox="0 0 20 20" xmlns="http://www.w3.org/2000/svg"><g fill-rule="nonzero" fill="none"><path d="M15.99 9.962a6.125 6.125 0 0 1-.97 3.304l2.502 2.453c1.225-1.602 1.991-3.604 1.991-5.757 0-2.152-.766-4.155-1.991-5.756L15.02 6.659a6 6 0 0 1 .97 3.303z" fill="#B8D3F4"/><path d="M9.763 16.07c-3.421 0-6.23-2.754-6.23-6.108 0-3.354 2.809-6.107 6.23-6.107 1.276 0 2.4.35 3.37 1.001l2.502-2.453C14 1.202 11.958.451 9.763.451 4.4.451.01 4.706.01 10.012c0 5.307 4.391 9.512 9.753 9.512 2.246 0 4.289-.751 5.923-1.953l-2.502-2.452a6.48 6.48 0 0 1-3.421.95z" fill="#3385FF"/></g></svg>