<svg width="20" height="20" xmlns="http://www.w3.org/2000/svg">
  <g fill="none" fill-rule="evenodd">
    <path class="inherit-fill" d="M4.365 12.427a2.138 2.138 0 0 1-2.133 2.133A2.138 2.138 0 0 1 .1 12.427c0-1.174.96-2.133 2.133-2.133h2.133v2.133h-.001zm1.075 0c0-1.174.96-2.133 2.133-2.133 1.174 0 2.133.959 2.133 2.133v5.34a2.138 2.138 0 0 1-2.133 2.134 2.138 2.138 0 0 1-2.133-2.133v-5.341zm2.133-8.062A2.138 2.138 0 0 1 5.44 2.232C5.44 1.058 6.4.1 7.573.1c1.174 0 2.133.96 2.133 2.133v2.133H7.573v-.001zm0 1.075c1.174 0 2.133.96 2.133 2.133a2.138 2.138 0 0 1-2.133 2.133h-5.34A2.138 2.138 0 0 1 .098 7.573 2.142 2.142 0 0 1 2.232 5.44h5.341zm8.062 2.133c0-1.174.959-2.133 2.133-2.133S19.9 6.4 19.9 7.573c0 1.174-.96 2.133-2.133 2.133h-2.133V7.573h.001zm-1.075 0c0 1.174-.96 2.133-2.133 2.133a2.138 2.138 0 0 1-2.133-2.133v-5.34c0-1.175.959-2.134 2.133-2.134s2.133.96 2.133 2.133v5.341zm-2.133 8.062c1.174 0 2.133.959 2.133 2.133S13.6 19.9 12.427 19.9a2.138 2.138 0 0 1-2.133-2.133v-2.133h2.133v.001zm0-1.075a2.138 2.138 0 0 1-2.133-2.133c0-1.174.959-2.133 2.133-2.133h5.34c1.175 0 2.134.959 2.134 2.133s-.96 2.133-2.133 2.133h-5.341z" fill="#000" fill-rule="nonzero"/>
    <path d="M-2-2h24v24H-2z"/>
  </g>
</svg>
