<svg width="20" height="20" viewBox="0 0 20 20" xmlns="http://www.w3.org/2000/svg"><g fill-rule="nonzero" fill="none"><g fill="#E01E5A"><path d="M4.365 12.427c0 1.174-.959 2.133-2.133 2.133A2.138 2.138 0 0 1 .1 12.427c0-1.174.96-2.133 2.133-2.133h2.133v2.133zM5.44 12.427c0-1.174.96-2.133 2.133-2.133 1.174 0 2.133.959 2.133 2.133v5.34c0 1.175-.959 2.134-2.133 2.134a2.138 2.138 0 0 1-2.133-2.133v-5.341z"/></g><g fill="#36C5F0"><path d="M7.573 4.365A2.138 2.138 0 0 1 5.44 2.232C5.44 1.058 6.4.1 7.573.1c1.174 0 2.133.96 2.133 2.133v2.133H7.573zM7.573 5.44c1.174 0 2.133.96 2.133 2.133 0 1.174-.959 2.133-2.133 2.133h-5.34A2.138 2.138 0 0 1 .098 7.573C.1 6.4 1.06 5.44 2.232 5.44h5.341z"/></g><g fill="#2EB67D"><path d="M15.635 7.573c0-1.174.959-2.133 2.133-2.133S19.9 6.4 19.9 7.573c0 1.174-.96 2.133-2.133 2.133h-2.133V7.573zM14.56 7.573c0 1.174-.96 2.133-2.133 2.133a2.138 2.138 0 0 1-2.133-2.133v-5.34c0-1.175.959-2.134 2.133-2.134s2.133.96 2.133 2.133v5.341z"/></g><g fill="#ECB22E"><path d="M12.427 15.635c1.174 0 2.133.959 2.133 2.133S13.6 19.9 12.427 19.9a2.138 2.138 0 0 1-2.133-2.133v-2.133h2.133zM12.427 14.56a2.138 2.138 0 0 1-2.133-2.133c0-1.174.959-2.133 2.133-2.133h5.34c1.175 0 2.134.959 2.134 2.133s-.96 2.133-2.133 2.133h-5.341z"/></g></g></svg>