<?xml version="1.0" encoding="UTF-8" standalone="no"?>
<svg viewBox="0 0 230 58" version="1.1" xmlns="http://www.w3.org/2000/svg" xmlns:xlink="http://www.w3.org/1999/xlink" xmlns:sketch="http://www.bohemiancoding.com/sketch/ns">
  <title>Solidus Logo</title>
  <g id="solidus-logo" sketch:type="MSLayerGroup">
    <path d="M5.7896,44.8529 C8.6866,47.9859 13.4626,50.4119 17.6926,50.4119 C22.3906,50.4119 25.2096,47.7499 25.2096,45.6359 C25.2096,43.1309 23.2516,41.7979 20.2766,41.2519 L15.6566,40.3889 C5.0066,38.4329 2.0306,34.9859 2.0306,29.5829 C2.0306,23.1629 7.4336,17.2119 16.9096,17.2119 C22.1546,17.2119 26.7746,18.7769 31.9436,22.4579 L27.3236,28.1739 C23.3296,24.8069 19.8066,23.9459 17.1436,23.9459 C13.6206,23.9459 10.1756,25.6679 10.1756,28.7219 C10.1756,30.9919 11.9756,32.1669 15.1086,32.7159 L23.3296,34.2809 C30.0636,35.5349 33.3526,38.7449 33.3526,44.3829 C33.3526,49.9439 28.8106,57.1469 17.3006,57.1469 C10.8806,57.1469 5.3976,54.8759 0.2306,50.4899 L5.7896,44.8529 Z" id="Fill-30" sketch:type="MSShapeGroup"></path>
    <path d="M57.5229,49.4731 C64.6489,49.4731 69.8159,43.9921 69.8159,37.1801 C69.8159,30.3671 64.6489,24.8841 57.5229,24.8841 C50.3969,24.8841 45.2289,30.3671 45.2289,37.1801 C45.2289,43.9921 50.3969,49.4731 57.5229,49.4731 M57.5229,17.2111 C70.7569,17.2111 78.4299,27.1561 78.4299,37.1801 C78.4299,47.2031 70.7569,57.1461 57.5229,57.1461 C44.2889,57.1461 36.6159,47.2031 36.6159,37.1801 C36.6159,27.1561 44.2889,17.2111 57.5229,17.2111" id="Fill-32" sketch:type="MSShapeGroup"></path>
    <path d="M106.5214,6.8481 C108.7784,6.8481 110.6124,8.6821 110.6124,10.9391 C110.6124,13.1961 108.7784,15.0291 106.5214,15.0291 C104.2644,15.0291 102.4304,13.1961 102.4304,10.9391 C102.4304,8.6821 104.2644,6.8481 106.5214,6.8481" id="Fill-34" sketch:type="MSShapeGroup"></path>
    <path d="M102.468,23.173 L110.612,23.173 L110.612,57.146 L102.468,57.146 L102.468,23.173 Z" id="Fill-36" sketch:type="MSShapeGroup"></path>
    <path d="M135.3947,49.473 C128.2677,49.473 123.1007,43.992 123.1007,37.18 C123.1007,30.367 128.2677,24.884 135.3947,24.884 C142.5207,24.884 147.6877,30.367 147.6877,37.18 C147.6877,43.992 142.5207,49.473 135.3947,49.473 L135.3947,49.473 Z M148.1587,6.848 L148.1587,21.13 C144.8217,18.712 140.5287,17.211 135.3947,17.211 C122.1607,17.211 114.4877,27.156 114.4877,37.18 C114.4877,47.203 122.1607,57.146 135.3947,57.146 C140.5287,57.146 144.8217,55.645 148.1587,53.228 L148.1587,57.146 L156.3017,57.146 L156.3017,6.848 L148.1587,6.848 Z" id="Fill-38" sketch:type="MSShapeGroup"></path>
    <path d="M160.4191,17.269 L168.5631,17.269 L168.5631,39.457 C168.5631,45.018 172.6341,49.012 177.7251,49.012 C182.8141,49.012 186.8871,45.018 186.8871,39.457 L186.8871,17.269 L195.0311,17.269 L195.0311,40.164 C195.0311,50.812 186.7291,57.155 177.7251,57.155 C168.7191,57.155 160.4191,50.812 160.4191,40.164 L160.4191,17.269 Z" id="Fill-39" sketch:type="MSShapeGroup"></path>
    <path d="M202.0489,44.9678 C204.9459,48.1008 209.7219,50.5268 213.9519,50.5268 C218.6499,50.5268 221.4689,47.8648 221.4689,45.7508 C221.4689,43.2458 219.5109,41.9128 216.5359,41.3668 L211.9159,40.5038 C201.2659,38.5478 198.2899,35.1008 198.2899,29.6978 C198.2899,23.2778 203.6929,17.3258 213.1689,17.3258 C218.4139,17.3258 223.0339,18.8918 228.2029,22.5728 L223.5829,28.2888 C219.5889,24.9208 216.0659,24.0608 213.4029,24.0608 C209.8799,24.0608 206.4349,25.7818 206.4349,28.8368 C206.4349,31.1068 208.2349,32.2818 211.3679,32.8308 L219.5889,34.3958 C226.3229,35.6488 229.6119,38.8598 229.6119,44.4978 C229.6119,50.0588 225.0699,57.2608 213.5599,57.2608 C207.1399,57.2608 201.6569,54.9908 196.4899,50.6048 L202.0489,44.9678 Z" id="Fill-40" sketch:type="MSShapeGroup"></path>
    <path d="M93.9732,48.2202 C91.6912,46.8952 90.7932,45.4312 90.6842,41.6162 L90.6842,15.2282 C90.6842,7.3182 86.7682,4.4202 78.3912,0.4282 L74.7872,6.8482 L79.1732,9.3542 C81.4552,10.6792 82.3552,12.1442 82.4622,15.9582 L82.4622,42.3472 C82.4622,50.2562 86.3782,53.1532 94.7562,57.1462 L98.3592,50.7262 L93.9732,48.2202 Z" id="Fill-41" sketch:type="MSShapeGroup"></path>
  </g>
</svg>
