<svg xmlns="http://www.w3.org/2000/svg" xmlns:xlink="http://www.w3.org/1999/xlink" viewBox="0 0 625.84 462.78" width="625.84" height="462.78">
  <defs>
    <linearGradient id="a" x1="274.41" y1="342.83" x2="608" y2="187.28" gradientTransform="rotate(.03 7678.024 1487.68)" gradientUnits="userSpaceOnUse">
      <stop offset="0" stop-color="#66c789" stop-opacity="0"/>
      <stop offset="1" stop-color="#66c789"/>
    </linearGradient>
    <linearGradient id="d" x1="289.72" y1="323.5" x2="535.39" y2="208.94" xlink:href="#a"/>
    <linearGradient id="e" x1="13052.7" y1="-3059.95" x2="13211.02" y2="-3133.77" gradientTransform="rotate(-132.9 7305.921 1336.337)" xlink:href="#a"/>
    <linearGradient id="f" x1="13080.37" y1="-3074.07" x2="13197.05" y2="-3128.48" gradientTransform="rotate(-90 8204.665 5019.355)" xlink:href="#a"/>
    <linearGradient id="g" x1="5651.37" y1="-5501.9" x2="5664.8" y2="-5501.9" gradientTransform="rotate(-76.6 6747.603 543.24)" gradientUnits="userSpaceOnUse">
      <stop offset="0" stop-color="#3c76f0"/>
      <stop offset="1" stop-color="#5387f2" stop-opacity="0"/>
    </linearGradient>
    <linearGradient id="b" x1="5304.77" y1="-5861.65" x2="5331.21" y2="-5861.65" gradientTransform="rotate(-76.57 6747.973 542.492)" gradientUnits="userSpaceOnUse">
      <stop offset="0" stop-color="#3c76f0"/>
      <stop offset="1" stop-color="#5386f2" stop-opacity="0"/>
    </linearGradient>
    <linearGradient id="h" x1="5639.8" y1="-6106.68" x2="5649.26" y2="-6106.68" xlink:href="#b"/>
    <linearGradient id="c" x1="2152.13" y1="-852.07" x2="2153.39" y2="-852.43" gradientTransform="matrix(16 0 0 16 -33970.09 14064.15)" gradientUnits="userSpaceOnUse">
      <stop offset="0" stop-color="#66c789"/>
      <stop offset="1" stop-color="#66c789" stop-opacity="0"/>
    </linearGradient>
    <linearGradient id="i" x1="2130.51" y1="-877.43" x2="2131.14" y2="-877.61" xlink:href="#c"/>
    <linearGradient id="j" x1="2129.23" y1="-868.52" x2="2131.07" y2="-869.03" xlink:href="#c"/>
  </defs>
  <g opacity=".1" fill="#242830">
    <path d="M31.41 358h.16a1.56 1.56 0 10-1.57-1.53 1.51 1.51 0 001.4 1.56zM1.64 431.84a1.56 1.56 0 00-1.56 1.56 1.51 1.51 0 001.4 1.6h.17a1.56 1.56 0 000-3.12zM1.72 424.82a1.57 1.57 0 100 3.14 1.58 1.58 0 000-3.15zM11.51 379a1.57 1.57 0 001.58-1.56 1.6 1.6 0 00-1.56-1.58 1.58 1.58 0 00-1.53 1.56 1.56 1.56 0 001.51 1.58zM11.56 435zM1.59 421A1.56 1.56 0 100 419.39 1.57 1.57 0 001.59 421zM.79 397.4a1.55 1.55 0 000 2.2 1.6 1.6 0 001.11.45 1.56 1.56 0 001.1-2.67 1.55 1.55 0 00-2.21.02zM1.61 421zM1.56 344.1a1.57 1.57 0 001.58-1.56A1.6 1.6 0 001.58 341 1.58 1.58 0 000 342.52a1.56 1.56 0 001.56 1.58zM1.58 337.08a1.56 1.56 0 001.56-1.56A1.6 1.6 0 001.58 334a1.56 1.56 0 100 3.12zM2 407.05l-.42-.05A1.56 1.56 0 100 405.4a1.78 1.78 0 00.06.65 1.55 1.55 0 001.94 1zM.54 411.31a1.55 1.55 0 000 2.2 1.6 1.6 0 001.11.45 1.56 1.56 0 001.08-2.67 1.55 1.55 0 00-2.19.02zM21.49 372a1.58 1.58 0 001.51-1.54v-.07a1.56 1.56 0 10-1.51 1.61zM21.73 424.84a1.57 1.57 0 00-1.59 1.55 1.55 1.55 0 001.53 1.61h-.19.21a1.57 1.57 0 100-3.14zM21.68 431.82h-.16a1.56 1.56 0 101.56 1.56 1.48 1.48 0 00-.4-1.08 1.53 1.53 0 00-1-.48zM21.89 403.91a1.55 1.55 0 00-1.53 1.58l-.44-.09a1.58 1.58 0 001.56 1.6 1.49 1.49 0 00.52 0 1.56 1.56 0 00-.06-3.12z"/>
    <circle cx="31.5" cy="405.4" r="1.56"/>
    <path d="M21.5 421a1.58 1.58 0 001.5-1.6v-.1a1.56 1.56 0 10-1.5 1.7zM1.68 348a1.56 1.56 0 00-1.56 1.56 1.47 1.47 0 00.44 1.09 1.48 1.48 0 001.08.47h.05a1.56 1.56 0 000-3.12zM11.79 424.83a1.57 1.57 0 10-.12 3.13h-.19a1.24 1.24 0 00.27 0 1.58 1.58 0 000-3.16zM21.74 389.85a1.57 1.57 0 00-1.52 1.62 1.52 1.52 0 00.44 1.11 1.56 1.56 0 001.09.47l-.27-.09a1.1 1.1 0 00.36 0 1.56 1.56 0 001.52-1.62 1.58 1.58 0 00-1.62-1.49zM11.56 431.84a1.56 1.56 0 101.56 1.56 1.56 1.56 0 00-1.56-1.56zM21.56 421zM21.53 372zM21.49 344.11a1.58 1.58 0 001.51-1.56v-.07a1.56 1.56 0 10-1.52 1.63zM10 419.36a1.56 1.56 0 101.6-1.52 1.56 1.56 0 00-1.6 1.52zM11.61 410.8a1.58 1.58 0 00-1.61 1.56 1.57 1.57 0 003.14 0 1.6 1.6 0 00-1.53-1.56zM13.15 391.44a1.57 1.57 0 00-3.14-.1v.07a2 2 0 000 .25 1.56 1.56 0 001.73 1.39l-.22-.09a1.57 1.57 0 001.63-1.52zM10 398.44a2 2 0 000 .35 1.57 1.57 0 001.83 1.26l-.33-.09a1.55 1.55 0 001.6-1.52 1.56 1.56 0 10-3.12-.08zM11.72 382.93a1.56 1.56 0 10-.08 3.12 1.55 1.55 0 001.58-1.52 1.57 1.57 0 00-1.5-1.6zM11.17 407a1.56 1.56 0 00.8-3l-.44-.09A1.59 1.59 0 0010 405.4a1.57 1.57 0 001.17 1.6zM21.64 348h-.16a1.61 1.61 0 101.26.51 1.52 1.52 0 00-1.1-.51zM21.53 337.08zM21.49 337.08a1.58 1.58 0 001.51-1.56v-.07a1.56 1.56 0 10-1.52 1.63zM1.72 361.91a1.56 1.56 0 00-1.56 1.56 1.51 1.51 0 001.4 1.53h.17a1.56 1.56 0 000-3.12zM21.53 344.11zM31.64 414a1.56 1.56 0 10-1.55-1.57 1.55 1.55 0 001.52 1.57zM1.58 358A1.56 1.56 0 100 356.47 1.55 1.55 0 001.58 358zM0 377.52a1.55 1.55 0 001.57 1.53A1.56 1.56 0 100 377.49zM0 384.64a1.55 1.55 0 001.68 1.41h-.11a1.56 1.56 0 10-1.57-1.6zM3.15 391.39a1.57 1.57 0 00-3.14 0 1.82 1.82 0 000 .33 1.57 1.57 0 001.78 1.33l-.21-.05a1.57 1.57 0 001.57-1.61zM1.61 368.9a1.56 1.56 0 00-1.56 1.56 1.51 1.51 0 001.4 1.54h.17a1.56 1.56 0 000-3.12zM11.61 358.08a1.56 1.56 0 00-.08-3.12 1.59 1.59 0 00-1.53 1.56 1.56 1.56 0 001.61 1.56zM11.61 368.9a1.56 1.56 0 101.52 1.6 1.56 1.56 0 00-1.52-1.6zM13.24 349.59a1.56 1.56 0 10-1.6 1.52h-.11a1.59 1.59 0 001.71-1.52zM11.53 344.11a1.55 1.55 0 001.6-1.52 1.56 1.56 0 10-3.12-.08 1.6 1.6 0 001.52 1.6zM11.53 337.08a1.56 1.56 0 10-1.52-1.6 1.58 1.58 0 001.52 1.6zM11.72 361.91a1.56 1.56 0 101.52 1.6 1.56 1.56 0 00-1.52-1.6zM21.42 358.08a1.56 1.56 0 001.58-1.53v-.08a1.56 1.56 0 00-1.47-1.47h-.05a1.56 1.56 0 10-.06 3.12zM81.39 417.85a1.56 1.56 0 00.06 3.11A1.58 1.58 0 0083 419.4v-.06a1.55 1.55 0 00-1.61-1.49zM81.41 420.96h-.01.01zM81.7 389.86a1.57 1.57 0 00-1.53 1.61 1.52 1.52 0 00.44 1.11 1.56 1.56 0 001.09.47l-.3-.09a1.64 1.64 0 00.38 0 1.57 1.57 0 00-.08-3.14zM81.45 403.84a1.56 1.56 0 101.61 1.56 1.59 1.59 0 00-1.6-1.56zM81.5 410.85a1.56 1.56 0 10-.1 3.11 1.58 1.58 0 001.6-1.56 1.55 1.55 0 00-1.5-1.55zM81.51 421zM71.46 431.82a1.58 1.58 0 00-1.56 1.56 1.56 1.56 0 101.56-1.56zM71.5 403.84a1.56 1.56 0 101.61 1.56 1.57 1.57 0 00-1.66-1.56zM71.82 396.9a1.58 1.58 0 000 3.15l-.41-.09a1.67 1.67 0 00.44.06 1.56 1.56 0 10-.07-3.12zM81.48 424.82a1.57 1.57 0 10-.08 3.18 1.58 1.58 0 000-3.15zM81.41 431.82a1.56 1.56 0 101.56 1.56 1.5 1.5 0 00-.44-1.09 1.56 1.56 0 00-1.12-.47zM101.41 431.84a1.56 1.56 0 101.59 1.56 1.56 1.56 0 00-1.59-1.56zM101.4 414a1.56 1.56 0 10-1.56-1.56 1.56 1.56 0 001.56 1.56zM101.33 365.08a1.56 1.56 0 001.56-1.56 1.5 1.5 0 00-.44-1.09 1.56 1.56 0 00-1.08-.47 1.56 1.56 0 100 3.12zM71.43 427.93a1.57 1.57 0 001.57-1.56 1.6 1.6 0 00-1.56-1.58 1.58 1.58 0 00-1.58 1.56 1.56 1.56 0 001.57 1.58zM101.42 424.82a1.58 1.58 0 00-1.12 2.68 1.53 1.53 0 001.1.46 1.57 1.57 0 100-3.14zM101.51 417.84a1.56 1.56 0 100 3.12 1.57 1.57 0 000-3.13zM31.56 421a1.56 1.56 0 10-1.56-1.6 1.56 1.56 0 001.56 1.6zM91.41 435zM91.37 435zM91.79 396.91a1.57 1.57 0 000 3.14l-.46-.09a1.59 1.59 0 00.48.07 1.56 1.56 0 100-3.12zM91.41 431.84A1.56 1.56 0 1093 433.4a1.56 1.56 0 00-1.59-1.56zM91.35 427.92a1.57 1.57 0 001.57-1.57 1.49 1.49 0 00-.41-1.08 1.53 1.53 0 00-1-.48h-.16a1.57 1.57 0 000 3.14zM91.51 417.84a1.56 1.56 0 100 3.12 1.57 1.57 0 000-3.13zM41.5 406.96h-.01.01zM41.45 431.84A1.56 1.56 0 1043 433.4a1.56 1.56 0 00-1.55-1.56zM41.67 424.79a1.58 1.58 0 00-1.58 1.56 1.57 1.57 0 003.14 0 1.5 1.5 0 00-.44-1.09 1.56 1.56 0 00-1.12-.47zM41.56 417.83a1.56 1.56 0 101.55 1.57 1.5 1.5 0 00-.44-1.09 1.56 1.56 0 00-1.11-.48zM41.49 403.84a1.56 1.56 0 00-1.56 1.56 1.56 1.56 0 003.12 0 1.56 1.56 0 00-1.56-1.56zM41.61 410.85A1.56 1.56 0 0040 412.4a1.55 1.55 0 001.61 1.6 1.56 1.56 0 100-3.12zM31.69 424.83a1.58 1.58 0 00-1.58 1.56 1.49 1.49 0 001.43 1.61h.13a1.57 1.57 0 100-3.14zM61.83 396.9a1.58 1.58 0 000 3.15l-.43-.09a1.19 1.19 0 00.46.06 1.55 1.55 0 001.53-1.59 1.57 1.57 0 00-1.56-1.53zM31.81 396.89a1.55 1.55 0 00-1.51 1.6 1.57 1.57 0 001.56 1.56l-.36-.05a1.39 1.39 0 00.41 0 1.56 1.56 0 10-.1-3.11zM41.75 393.05l-.29-.09a1.57 1.57 0 001.54-1.57.57.57 0 000-.18 1.56 1.56 0 00-1.86-1.21 1.57 1.57 0 10.61 3.08zM31.58 431.86a1.51 1.51 0 00-1.56 1.4v.16a1.56 1.56 0 101.56-1.56zM61.46 435zM61.45 427.89a1.54 1.54 0 001.55-1.54 1.56 1.56 0 10-1.56 1.56zM61.46 431.84A1.56 1.56 0 1063 433.4a1.56 1.56 0 00-1.54-1.56zM61.62 410.85a1.56 1.56 0 100 3.11 1.56 1.56 0 000-3.12zM51.87 396.9a1.56 1.56 0 00-1.53 1.59 1.55 1.55 0 001.52 1.56l-.39-.09a1.19 1.19 0 00.46.06 1.55 1.55 0 001.53-1.59 1.57 1.57 0 00-1.59-1.53zM41.81 396.89a1.57 1.57 0 00-1.52 1.6 1.55 1.55 0 001.57 1.53l-.4-.09a1.27 1.27 0 00.43.05 1.56 1.56 0 00-.08-3.12zM51.43 421a1.56 1.56 0 001.57-1.59 1.6 1.6 0 00-1.45-1.58h-.09a1.56 1.56 0 000 3.12zM51.41 344.1a1.57 1.57 0 001.6-1.54v-.08a1.61 1.61 0 00-1.48-1.48h-.06a1.58 1.58 0 00-1.6 1.54 1.56 1.56 0 001.54 1.56zM51.69 424.84a1.57 1.57 0 00-1.58 1.55 1.49 1.49 0 001.43 1.61h-.07.2a1.57 1.57 0 100-3.14zM51.5 431.84a1.56 1.56 0 00-1.56 1.56 1.55 1.55 0 001.52 1.6 1.56 1.56 0 000-3.12zM71.53 372zM81.44 344.11a1.58 1.58 0 001.56-1.56 1.56 1.56 0 10-1.57 1.59zM81.48 372zM83 363.5a.86.86 0 000-.16 1.56 1.56 0 10-1.41 1.66h-.14a1.58 1.58 0 001.55-1.5zM81.46 379.05a1.58 1.58 0 001.54-1.56 1.56 1.56 0 10-1.55 1.59zM81.48 379.05zM81.52 354.91a1.56 1.56 0 00-1.52 1.56 1.55 1.55 0 001.48 1.53 1.56 1.56 0 000-3.12zM83 384.45a.28.28 0 000-.09 1.56 1.56 0 10-1.41 1.69h-.14a1.58 1.58 0 001.55-1.6zM83 349.51a.28.28 0 000-.09 1.56 1.56 0 10-1.41 1.69h-.19a1.58 1.58 0 001.6-1.6zM81.48 344.11zM81.4 337.08a1.58 1.58 0 001.6-1.56 1.56 1.56 0 10-1.61 1.56zM81.41 344.11h-.01.01zM81.46 372a1.58 1.58 0 001.54-1.54 1.56 1.56 0 10-1.54 1.54zM71.57 341a1.56 1.56 0 00-1.57 1.55 1.51 1.51 0 001.4 1.56h.16a1.56 1.56 0 000-3.12zM71.45 337.08a1.6 1.6 0 001.55-1.56 1.56 1.56 0 10-1.56 1.56zM71.43 379a1.57 1.57 0 001.57-1.56 1.59 1.59 0 00-1.48-1.58h-.08a1.58 1.58 0 00-1.58 1.56 1.56 1.56 0 001.57 1.58zM71.45 351.08a1.56 1.56 0 001.55-1.56 1.6 1.6 0 00-1.36-1.52h-.19a1.56 1.56 0 100 3.12zM71.5 358.08a1.56 1.56 0 001.5-1.61 1.58 1.58 0 00-1.47-1.47h-.13a1.56 1.56 0 10.1 3.12zM83 398.4a1.7 1.7 0 000-.22 1.56 1.56 0 10-1.16 1.87l-.44-.05a1.58 1.58 0 001.6-1.6zM101.45 407a1.57 1.57 0 10-1.56-1.57 1.58 1.58 0 001.56 1.57zM71.68 361.91a1.56 1.56 0 00-1.56 1.56 1.51 1.51 0 001.4 1.56h.16a1.56 1.56 0 100-3.12zM73.34 391.38a1.57 1.57 0 10-1.59 1.67l-.3-.09a1.5 1.5 0 00.37 0 1.58 1.58 0 001.52-1.58zM73 370.46v-.07a1.6 1.6 0 100 .07zM72.24 385.93a1.56 1.56 0 00-.6-3 1.53 1.53 0 00-.6.12 1.56 1.56 0 101.2 2.88zM101.48 354.91a1.56 1.56 0 101.56 1.56 1.56 1.56 0 00-1.56-1.56zM101.59 348h-.22a1.58 1.58 0 00-1.34 1.6 1.56 1.56 0 101.56-1.56zM91.48 358a1.56 1.56 0 10-1.48-1.53 1.55 1.55 0 001.48 1.53zM91.47 365.08a1.56 1.56 0 000-3.12 1.56 1.56 0 100 3.12zM101.68 389.86a1.6 1.6 0 000 3.19l-.33-.09a1.29 1.29 0 00.39 0 1.57 1.57 0 00-.08-3.14zM101.37 337.08a1.56 1.56 0 10-1.56-1.56 1.58 1.58 0 001.56 1.56zM21.63 382.9a1.56 1.56 0 101.53 1.59 1.5 1.5 0 00-.44-1.09 1.56 1.56 0 00-1.08-.47zM101.59 382.93a1.56 1.56 0 101.56 1.56 1.56 1.56 0 00-1.56-1.56zM101.78 396.91a1.57 1.57 0 000 3.14l-.44-.09a1.49 1.49 0 00.47.07 1.56 1.56 0 00-.06-3.12zM71.43 413.94a1.57 1.57 0 001.57-1.56 1.6 1.6 0 00-1.4-1.58h-.16a1.58 1.58 0 00-1.58 1.56 1.56 1.56 0 001.57 1.58zM101.48 379.05a1.56 1.56 0 10-1.56-1.56 1.56 1.56 0 001.56 1.56zM101.48 372a1.56 1.56 0 001.56-1.56 1.6 1.6 0 00-1.56-1.56 1.56 1.56 0 000 3.12zM91.59 386.05a1.56 1.56 0 10-1.59-1.56 1.56 1.56 0 001.59 1.56zM91.45 337.08a1.56 1.56 0 001.55-1.56 1.58 1.58 0 00-1.55-1.52 1.56 1.56 0 100 3.12zM91.45 406.96h-.02.02zM91.44 407a1.56 1.56 0 10-1.55-1.56 1.55 1.55 0 001.55 1.56zM91.48 341a1.56 1.56 0 00-1.56 1.56 1.6 1.6 0 001.56 1.56 1.56 1.56 0 000-3.12zM91.41 407zM91.48 368.9a1.56 1.56 0 101.52 1.56 1.56 1.56 0 00-1.52-1.56zM91.48 379.05a1.58 1.58 0 001.6-1.57 1.56 1.56 0 10-1.56 1.56zM91.4 414a1.56 1.56 0 10-1.56-1.56A1.56 1.56 0 0091.4 414zM91.65 393.07a1.57 1.57 0 001.57-1.57 1.49 1.49 0 00-.41-1.08 1.53 1.53 0 00-1-.48h-.16a1.57 1.57 0 000 3.14zM91.59 348a1.56 1.56 0 000 3.12h-.24.18a1.55 1.55 0 10.06-3.1zM101.48 341a1.56 1.56 0 101.56 1.56 1.56 1.56 0 00-1.56-1.56zM41.53 372a1.56 1.56 0 10-1.53-1.54 1.58 1.58 0 001.53 1.54zM33.34 391.36a1.57 1.57 0 10-1.59 1.69l-.25-.05a1.84 1.84 0 00.33 0 1.58 1.58 0 001.51-1.64zM41.63 361.91a1.56 1.56 0 101.56 1.56 1.56 1.56 0 00-1.56-1.56zM41.63 382.93a1.56 1.56 0 101.56 1.56 1.56 1.56 0 00-1.56-1.56zM41.53 379.05a1.56 1.56 0 10-1.53-1.56 1.58 1.58 0 001.53 1.56zM41.53 358a1.56 1.56 0 10-1.53-1.53 1.58 1.58 0 001.53 1.53zM51.43 337.08a1.56 1.56 0 001.57-1.54 1.59 1.59 0 00-1.47-1.54h-.06a1.56 1.56 0 000 3.12zM51.68 348a1.56 1.56 0 00-1.56 1.56 1.55 1.55 0 001.52 1.56 1.56 1.56 0 000-3.12zM41.53 344.11a1.56 1.56 0 10-1.53-1.56 1.59 1.59 0 001.53 1.56zM41.63 348a1.56 1.56 0 101.56 1.56 1.56 1.56 0 00-1.56-1.56zM41.53 337.08a1.56 1.56 0 10-1.53-1.56 1.58 1.58 0 001.53 1.56zM31.53 372a1.56 1.56 0 10-1.53-1.54 1.56 1.56 0 001.53 1.54zM31.53 379.05a1.56 1.56 0 10-1.53-1.56 1.56 1.56 0 001.53 1.56zM23 412.4a.76.76 0 000-.15 1.56 1.56 0 10-1.39 1.75h-.13a1.57 1.57 0 001.52-1.6zM23 398.4a1.32 1.32 0 00-.05-.26 1.56 1.56 0 10-1.1 1.91l-.38-.09A1.57 1.57 0 0023 398.4zM21.53 375.86v-.05a1.57 1.57 0 101.53 1.61 1.5 1.5 0 00-.44-1.09 1.56 1.56 0 00-1.09-.47zM23 363.5a1.27 1.27 0 000-.2 1.56 1.56 0 10-1.36 1.7h-.16a1.57 1.57 0 001.52-1.5zM31.68 348a1.56 1.56 0 00-1.56 1.56 1.55 1.55 0 001.52 1.56 1.56 1.56 0 000-3.12zM31.68 361.91a1.56 1.56 0 00-1.56 1.56 1.55 1.55 0 001.52 1.53 1.56 1.56 0 000-3.12zM31.68 386.05a1.56 1.56 0 10-1.56-1.56 1.55 1.55 0 001.52 1.56zM71.56 421a.21.21 0 01-.08 0h.08zM31.53 344.11a1.56 1.56 0 10-1.53-1.56 1.55 1.55 0 001.52 1.56zM31.53 337.08a1.56 1.56 0 10-1.53-1.56 1.55 1.55 0 001.52 1.56zM51.69 393.08a1.57 1.57 0 001.6-1.54 1.57 1.57 0 00-3.14-.06 1.56 1.56 0 001.54 1.6zM63 363.5a1.27 1.27 0 000-.2 1.56 1.56 0 10-1.36 1.7h-.21a1.58 1.58 0 001.57-1.5zM59.9 384.69a1.56 1.56 0 001.74 1.36h-.19a1.58 1.58 0 001.55-1.6v-.13a1.56 1.56 0 00-3.1.37zM63 349.51v-.13a1.56 1.56 0 10-1.36 1.73h-.21a1.58 1.58 0 001.57-1.6zM61.53 379.05a1.56 1.56 0 10-1.53-1.56 1.56 1.56 0 001.53 1.56zM61.57 354.91a1.56 1.56 0 00-1.57 1.56 1.55 1.55 0 001.53 1.53 1.56 1.56 0 000-3.12zM61.53 341a1.56 1.56 0 00-1.53 1.55 1.6 1.6 0 001.56 1.56 1.56 1.56 0 000-3.12z"/>
    <path d="M73 419.4v-.1a1.61 1.61 0 100 .1zM63 419.4v-.1a1.61 1.61 0 100 .1zM63.34 391.39a1.57 1.57 0 10-1.59 1.66l-.32-.09a1.64 1.64 0 00.38 0 1.57 1.57 0 001.53-1.57zM61.5 407a1.56 1.56 0 10-1.56-1.56A1.57 1.57 0 0061.5 407z"/>
    <path d="M61.56 421a.34.34 0 01-.1 0h.1zM51.64 386.05a1.56 1.56 0 10-1.56-1.56 1.55 1.55 0 001.52 1.56zM50.45 378.58a1.48 1.48 0 001.08.47 1.56 1.56 0 10-1.53-1.56 1.47 1.47 0 00.45 1.09zM51.54 403.85A1.55 1.55 0 0050 405.4a1.55 1.55 0 001.5 1.6 1.56 1.56 0 100-3.11zM51.57 372a1.56 1.56 0 10-1.57-1.54 1.55 1.55 0 001.53 1.54zM61.53 337.08zM51.68 361.91a1.56 1.56 0 00-1.56 1.56 1.55 1.55 0 001.52 1.53 1.56 1.56 0 000-3.12zM51.53 355h-.06a1.56 1.56 0 101.53 1.54v-.07a1.6 1.6 0 00-1.47-1.47zM61.46 337.08a1.58 1.58 0 001.54-1.56v-.07a1.56 1.56 0 10-1.55 1.63zM51.64 414a1.56 1.56 0 10-1.55-1.57 1.55 1.55 0 001.52 1.57zM61.53 372zM61.47 372a1.58 1.58 0 001.53-1.54v-.07a1.56 1.56 0 10-1.53 1.61z"/>
  </g>
  <circle cx="441.85" cy="261.26" r="183.62" fill="none" stroke-miterlimit="10" stroke-width=".75" stroke="url(#a)"/>
  <ellipse cx="413.19" cy="262.41" rx="116.37" ry="199.99" fill="none" stroke-miterlimit="10" stroke-width=".75" stroke="url(#d)"/>
  <circle cx="91.93" cy="87.32" r="86.95" fill="none" stroke-miterlimit="10" stroke-width=".75" stroke="url(#e)"/>
  <ellipse cx="84.04" cy="85.31" rx="94.7" ry="55.1" transform="rotate(-42.9 84.05 85.306)" fill="none" stroke-miterlimit="10" stroke-width=".75" stroke="url(#f)"/>
  <circle class="floating-sphere sphere-2" cx="614.73" cy="202.03" r="6.72" fill="url(#g)"/>
  <circle class="floating-sphere sphere-1" cx="186.48" cy="446.2" r="13.22" fill="url(#b)"/>
  <circle cx="23.97" cy="71.69" r="4.73" fill="url(#h)"/>
  <path class="floating-sphere sphere-4" d="M476.41 435.42a7.87 7.87 0 10-5.63-2.06 7.88 7.88 0 005.63 2.06z" fill="url(#c)"/>
  <path d="M124.29 27.42a3.91 3.91 0 10-2.79-1 3.9 3.9 0 002.79 1z" fill="url(#i)"/>
  <path d="M115.67 174.42a12.87 12.87 0 11.08 0z" fill="url(#j)"/>
</svg>
