<svg width="55" height="55" viewBox="0 0 55 55" fill="none" xmlns="http://www.w3.org/2000/svg">
<path d="M27.5972 0C42.7562 0 55 12.6325 55 28.1802C55 40.6184 47.0318 51.3074 36.1484 55C34.788 55.1943 34.2049 54.417 34.2049 53.6396C34.2049 52.6678 34.2049 49.7527 34.2049 45.8657C34.2049 43.1449 33.2332 41.5901 32.2615 40.6184C38.4806 39.841 44.894 37.5088 44.894 26.6254C44.894 23.5159 43.9223 20.9894 41.9788 19.0459C42.5618 18.4629 43.5336 15.5477 41.9788 11.6608C41.9788 11.6608 39.6466 10.8834 34.3993 14.576C32.2615 13.9929 29.9293 13.6042 27.5972 13.6042C25.265 13.6042 22.9329 13.9929 20.7951 14.576C15.3534 10.8834 13.0212 11.6608 13.0212 11.6608C11.6608 15.5477 12.4382 18.4629 12.8269 19.2403C11.0777 21.1837 9.91166 23.7102 9.91166 26.8198C9.91166 37.7032 16.3251 40.0353 22.5442 40.8127C21.7668 41.5901 20.9894 42.7562 20.7951 44.5053C19.2403 45.2827 15.159 46.4488 12.8269 42.1731C12.8269 42.1731 11.4664 39.4523 8.55124 39.2579C8.55124 39.2579 5.83039 39.2579 8.35689 41.0071C8.35689 41.0071 10.106 41.7845 11.4664 45.0883C11.4664 45.0883 13.0212 50.1413 20.7951 48.3922C20.7951 50.7244 20.7951 53.0565 20.7951 53.6396C20.7951 54.417 20.212 55.1943 18.8516 55C7.9682 51.3074 0 40.6184 0 28.1802C0 12.6325 12.2438 0 27.5972 0Z" fill="white"/>
</svg>
