<svg width="55" height="55" viewBox="0 0 55 55" fill="none" xmlns="http://www.w3.org/2000/svg">
<g clip-path="url(#clip0)">
<path d="M45.0883 26.9657C45.0883 30.2876 44.1166 33.6095 42.3675 36.3451L49.364 43.3797C52.8622 38.8854 55 33.2187 55 26.9657C55 20.9082 52.8622 15.2415 49.364 10.5518L42.3675 17.5863C44.1166 20.5174 45.0883 23.6438 45.0883 26.9657Z" fill="#B8D3F4"/>
<path d="M27.5972 44.3568C17.8799 44.3568 9.91166 36.5406 9.91166 26.9658C9.91166 17.391 17.8799 9.57481 27.5972 9.57481C31.2898 9.57481 34.3993 10.5518 37.1201 12.5059L44.1166 5.47132C39.4523 2.14945 33.8163 0 27.5972 0C12.4382 0 0 12.1151 0 27.1612C0 42.2073 12.4382 54.127 27.5972 54.127C34.0106 54.127 39.6466 51.9775 44.311 48.6557L37.3145 41.6211C34.3993 43.3797 30.9011 44.3568 27.5972 44.3568Z" fill="white"/>
</g>
<defs>
<clipPath id="clip0">
<rect width="55" height="54.127" fill="white"/>
</clipPath>
</defs>
</svg>
