<svg width="51" height="51" viewBox="0 0 51 51" fill="none" xmlns="http://www.w3.org/2000/svg">
<g clip-path="url(#clip0)">
<path d="M11.1271 31.5677C11.1271 34.549 8.67196 37.0041 5.69071 37.0041C2.70947 37.0041 0.429701 34.549 0.254333 31.5677C0.254333 28.5865 2.70947 26.1313 5.69071 26.1313H11.1271V31.5677ZM13.7576 31.5677C13.7576 28.5865 16.2127 26.1313 19.194 26.1313C22.1752 26.1313 24.6304 28.5865 24.6304 31.5677V44.8956C24.6304 47.8769 22.1752 50.332 19.194 50.332C16.2127 50.332 13.933 47.8769 13.7576 44.8956V31.5677Z" fill="#E01E5A"/>
<path d="M19.194 11.4005C16.2127 11.4005 13.933 8.94538 13.7576 5.96414C13.7576 3.15826 16.2127 0.703125 19.194 0.703125C22.1752 0.703125 24.6304 3.15826 24.6304 6.13951V11.5759L19.194 11.4005ZM19.194 14.031C22.1752 14.031 24.6304 16.4862 24.6304 19.4674C24.6304 22.4487 22.1752 24.9038 19.194 24.9038H5.86607C2.88483 24.9038 0.429688 22.4487 0.429688 19.4674C0.429688 16.4862 2.88483 14.031 5.86607 14.031H19.194Z" fill="#36C5F0"/>
<path d="M39.3612 19.4674C39.3612 16.4862 41.8164 14.031 44.7976 14.031C47.7788 14.031 50.234 16.4862 50.234 19.4674C50.234 22.4487 47.7788 24.9038 44.7976 24.9038H39.3612V19.4674ZM36.7307 19.4674C36.7307 22.4487 34.2756 24.9038 31.2943 24.9038C28.3131 24.9038 26.0333 22.4487 25.8579 19.4674V6.13951C26.0333 3.15826 28.4884 0.703125 31.2943 0.703125C34.2756 0.703125 36.7307 3.15826 36.7307 6.13951V19.4674Z" fill="#2EB67D"/>
<path d="M31.2943 39.6346C34.2756 39.6346 36.7307 42.0898 36.7307 45.071C36.7307 48.0522 34.2756 50.5074 31.2943 50.5074C28.3131 50.5074 26.0333 48.0522 25.8579 45.071V39.6346H31.2943ZM31.2943 37.0041C28.3131 37.0041 26.0333 34.549 25.8579 31.5677C25.8579 28.5865 28.3131 26.1313 31.2943 26.1313H44.6222C47.6035 26.1313 50.0586 28.5865 50.0586 31.5677C50.0586 34.549 47.6035 37.0041 44.6222 37.0041H31.2943Z" fill="#ECB22E"/>
</g>
<defs>
<clipPath id="clip0">
<rect x="0.429688" y="0.703125" width="49.6289" height="49.6289" fill="white"/>
</clipPath>
</defs>
</svg>
